<?xml version="1.0" standalone="no"?>
<!DOCTYPE svg PUBLIC "-//W3C//DTD SVG 1.1//EN" "http://www.w3.org/Graphics/SVG/1.1/DTD/svg11.dtd" >
<svg xmlns="http://www.w3.org/2000/svg" xmlns:xlink="http://www.w3.org/1999/xlink" version="1.1">
<metadata></metadata>
<defs>
<font id="baar_sophiabolditalic" horiz-adv-x="1054" >
<font-face units-per-em="2048" ascent="1638" descent="-410" />
<missing-glyph horiz-adv-x="512" />
<glyph horiz-adv-x="0" />
<glyph unicode="&#xd;" horiz-adv-x="512" />
<glyph unicode=" "  horiz-adv-x="512" />
<glyph unicode="&#x09;" horiz-adv-x="512" />
<glyph unicode="&#xa0;" horiz-adv-x="512" />
<glyph unicode="!" horiz-adv-x="581" d="M197 10q18 90 34 201l27 25q131 0 215 4l21 -25q-12 -66 -33 -199l-25 -24q-117 -2 -223 -6zM305 444q113 596 166 1010l23 21q117 2 258 10q-154 -569 -244 -1032l-19 -21q-88 -4 -172 -12z" />
<glyph unicode="&#x22;" horiz-adv-x="700" d="M293 995q0 299 12 369l6 41q92 27 146 27q23 0 75 -7q0 -41 -2 -53l-178 -530q-37 -6 -47 -4q-12 10 -12 157zM537 846l8 274q4 168 22 281q86 31 127 31q6 0 97 -5q2 -117 -64 -288q-58 -144 -115 -287q-37 -6 -75 -6z" />
<glyph unicode="#" horiz-adv-x="1249" d="M78 426l31 164l272 4l63 194l-258 -6l33 164l279 6l133 414l182 2l-135 -414l166 4l135 414l178 2l-133 -411l250 4l-31 -164l-270 -6l-64 -193l252 6l-31 -164l-274 -6l-145 -442l-181 -2l146 440l-166 -2l-145 -442l-185 -4l150 442zM561 598l168 4l62 193l-166 -4z " />
<glyph unicode="$" horiz-adv-x="899" d="M-8 70q4 10 67 161l37 17q63 -57 144 -86l188 454q-119 86 -158 129q-74 82 -73 185q0 25 4 53q33 201 209 293q135 70 321 65l49 138l27 14l135 2q-45 -88 -80 -174q82 -25 164 -72q-39 -92 -63 -157l-39 -11q-59 51 -127 82l-172 -413q129 -84 172 -129q78 -82 77 -191 q0 -29 -6 -59q-29 -188 -194 -299q-144 -97 -316 -97q-27 0 -65 2q-25 -63 -55 -141l-19 -20q-63 2 -135 -2q41 88 80 180q-96 29 -172 76zM365 139q119 12 196 64q94 66 94 176q1 84 -120 168zM414 1006q-14 -84 102 -181l154 359q-90 -10 -162 -54q-82 -50 -94 -124z" />
<glyph unicode="%" horiz-adv-x="1824" d="M225 713q0 61 13 137q35 211 127 350q121 180 311 180q233 0 233 -280q0 -63 -12 -139q-35 -213 -125 -349q-116 -176 -309 -176q-238 0 -238 277zM416 719q0 -129 84 -129q104 0 162 160q27 74 55 254q10 68 10 106q0 121 -82 121q-156 0 -217 -389q-12 -78 -12 -123z M483 -14q131 221 394 684q254 451 376 686l29 22l174 2q-379 -655 -770 -1372l-24 -22h-179zM1028 266q0 59 10 127q35 219 127 355q121 178 318 178q229 0 229 -283q0 -59 -12 -129q-35 -215 -125 -352q-118 -180 -311 -180q-236 0 -236 284zM1217 262q0 -127 83 -127 q152 0 216 402q12 76 12 118q0 121 -84 121q-152 0 -215 -391q-12 -78 -12 -123z" />
<glyph unicode="&#x26;" horiz-adv-x="1130" d="M47 246q0 176 148 313q59 55 200 141q-80 147 -80 254q0 27 4 56q25 150 148 241q115 86 254 86q109 0 180 -55q78 -63 78 -172q0 -25 -4 -51q-31 -186 -316 -369l152 -264q88 119 156 240l39 8q41 -82 84 -144q-78 -123 -197 -254q37 -61 174 -245l-43 -33h-229l-25 8 q-25 57 -49 113q-207 -143 -379 -144q-143 0 -223 80q-72 74 -72 191zM272 289q0 -63 39 -101t103 -38q86 0 233 102l-176 315q-199 -141 -199 -278zM528 1008q0 -72 60 -183q190 127 190 256q0 105 -100 105q-63 0 -106.5 -56.5t-43.5 -121.5z" />
<glyph unicode="'" horiz-adv-x="393" d="M119 956q127 283 205 504l24 17q121 8 250 24q-197 -344 -279 -514l-22 -18q-82 -4 -178 -13z" />
<glyph unicode="(" horiz-adv-x="731" d="M168 309q0 88 14 176q47 287 226 549q143 211 399 441q16 10 213 18q-516 -481 -602 -1020q-16 -100 -17 -197q0 -369 236 -692l-176 -12l-21 10q-272 326 -272 727z" />
<glyph unicode=")" horiz-adv-x="751" d="M-158 -430q514 479 602 1022q14 100 15 196q0 365 -234 689l174 12l23 -8q272 -330 272 -717q0 -92 -16 -186l-6 -33q-74 -422 -475 -821q-39 -41 -80 -82q-49 -47 -90 -68z" />
<glyph unicode="*" horiz-adv-x="821" d="M121 975q127 53 291 125q-113 55 -250 117q59 61 117 141l43 8q72 -63 157 -141q12 141 17 270q88 2 217 12q-45 -137 -86 -278q106 74 207 147l43 -4q16 -37 47 -117l-19 -36q-121 -59 -243 -119q104 -51 223 -105l-111 -153l-47 -2q-76 78 -147 143q-8 -123 -17 -248 l-24 -26q-80 0 -197 -7q47 137 94 275q-117 -78 -213 -148h-43q-27 76 -59 146z" />
<glyph unicode="+" horiz-adv-x="1249" d="M133 475l35 178l410 -6l90 461l192 4l-90 -461h416l-33 -178h-416l-92 -483l-192 -4l92 483z" />
<glyph unicode="," horiz-adv-x="425" d="M-31 -305q141 313 205 502l21 20q119 4 249 14q-141 -245 -272 -505l-25 -21q-72 0 -178 -10z" />
<glyph unicode="-" horiz-adv-x="837" d="M166 451q8 25 43 186l20 16q51 0 131 -2h121q199 0 363 11q-14 -66 -43 -203h-168q-262 0 -467 -8z" />
<glyph unicode="." horiz-adv-x="491" d="M94 12q25 102 39 203l23 21q127 2 221 6l20 -21q-25 -110 -39 -198l-20 -23q-119 -2 -229 -6z" />
<glyph unicode="/" horiz-adv-x="858" d="M-139 -283q137 215 520 867q170 287 502 870l24 21l205 4q-660 -1094 -1018 -1739l-26 -25q-111 2 -207 2z" />
<glyph unicode="0" horiz-adv-x="1144" d="M106 440q0 92 17 199q111 768 668 768q379 0 378 -459q0 -86 -14 -182q-114 -789 -661 -789q-387 0 -388 463zM356 446q0 -291 181 -290q283 0 368 596q18 125 19 209q0 272 -174 272q-291 0 -377 -590q-16 -113 -17 -197z" />
<glyph unicode="1" horiz-adv-x="743" d="M252 -10q147 760 223 1212q-94 -20 -182 -39l-25 21q23 84 35 141l21 23q203 29 415 63l23 -16q-52 -213 -150 -766q-35 -199 -96 -625q-115 -2 -264 -14z" />
<glyph unicode="2" horiz-adv-x="1079" d="M47 96l8 39q305 293 592 582q86 82 117 125q51 72 63 151q6 33 7 60q0 156 -162 155q-164 0 -357 -178l-41 23q12 66 37 194q25 31 78 62q170 100 361 100q154 0 243.5 -80t89.5 -227q0 -43 -6 -88q-20 -127 -116 -250q-49 -66 -194.5 -210t-358.5 -361q260 6 567 26 l14 -26q-19 -72 -35 -162l-26 -29q-84 2 -293 6q-178 2 -281 2q-90 0 -274 -10l-17 16z" />
<glyph unicode="3" horiz-adv-x="1105" d="M43 84q16 72 41 174l47 21q123 -121 277 -121q133 0 235 69q115 80 137 215q4 27 4 52q0 197 -237 196q-53 0 -162 -35l-45 88q166 156 231 220q127 125 222 227q-106 -2 -517 -21q23 86 37 174l23 23q567 -10 774 -2l29 -96q-84 -94 -209 -217q-104 -100 -207 -201 q319 -74 319 -332q1 -127 -79 -252q-186 -287 -586 -286q-195 0 -326 86z" />
<glyph unicode="4" horiz-adv-x="1105" d="M47 344q29 141 33 154q12 29 108 143l109 133q152 182 453 572l24 16q111 2 320 10q-92 -438 -164 -829q80 2 188 10q-22 -72 -53 -193q-55 4 -86 5q-27 0 -86 -3q-27 -145 -59 -339l-23 -23q-109 -2 -205 -8l-18 22q33 147 71 344zM342 530l356 7l111 569z" />
<glyph unicode="5" horiz-adv-x="1105" d="M53 66l41 174l43 20q117 -96 258 -96q139 0 250 76q121 86 146 231q4 31 4 59q0 111 -71 166.5t-185 55.5q-66 0 -119 -19q-39 -14 -137 -65l-62 63q51 190 148 596l24 23q207 4 723 18q-12 -59 -39 -172l-22 -22q-104 2 -152 2q-78 0 -344 -9l-61 -237q76 10 135 10 q203 0 315 -109q100 -100 101 -258q0 -223 -179 -397q-201 -194 -512 -194q-170 0 -295 65z" />
<glyph unicode="6" horiz-adv-x="1101" d="M117 422q0 74 12 158q59 369 246 579q207 233 543 234q135 0 229 -41q-18 -63 -66 -178h-41q-70 43 -135 43q-188 0 -309 -121q-98 -100 -178 -320q174 119 340 119q168 0 258 -100q84 -92 84 -240q0 -213 -152 -383q-168 -190 -422 -190q-207 0 -313 124 q-96 113 -96 316zM369 414q0 -248 188 -248q109 0 189.5 79t101.5 206q6 35 6 67q0 187 -180 187q-164 0 -297 -179q-8 -57 -8 -112z" />
<glyph unicode="7" horiz-adv-x="933" d="M86 -12q401 625 709 1177q-461 0 -545 -8l-23 23q16 84 33 161l27 19h20q66 0 192 -2t189 -2q139 0 356 10l25 -10q25 -94 21 -111q-182 -301 -365 -604q-215 -359 -334 -621l-26 -18q-104 -2 -279 -14z" />
<glyph unicode="8" horiz-adv-x="1103" d="M70 305q0 35 6 74q20 127 102 219q61 68 182 137q-113 104 -112 236q0 27 6 55q31 190 213 291q145 80 321 80q152 0 250 -64q119 -76 119 -223q0 -31 -6 -66q-25 -158 -231 -294q164 -109 163 -265q0 -31 -6 -63q-35 -219 -231 -342q-166 -100 -369 -100q-168 0 -278 73 q-129 86 -129 252zM326 342q0 -184 190 -184q141 0 232 98q82 90 81 203q0 80 -48 133t-142 53q-117 0 -199 -61q-92 -68 -110 -189q-4 -27 -4 -53zM475 973q0 -68 43 -109q45 -47 127 -47q123 0 201 80q68 70 67 162q0 68 -42.5 113t-122.5 45q-121 0 -201 -80 q-72 -72 -72 -164z" />
<glyph unicode="9" horiz-adv-x="1101" d="M82 57q18 76 37 166l41 23q109 -90 225 -90q317 0 469 454q-166 -115 -344 -114q-170 0 -262 98q-82 90 -82 233q0 211 156 383q172 188 430 189q397 0 397 -432q0 -82 -16 -179q-55 -350 -240 -565q-207 -241 -524 -241q-135 0 -279 57zM410 870q0 -84 45 -139t133 -55 q186 0 299 178q18 78 18 127q0 102 -51 169t-139 67q-133 0 -223 -115q-82 -104 -82 -232z" />
<glyph unicode=":" horiz-adv-x="503" d="M141 18q12 68 37 218l27 24q119 0 217 4l18 -24q-8 -43 -37 -213l-20 -25q-119 -4 -225 -6zM276 782l39 217l23 25h41q68 0 180 4l16 -27q-18 -94 -34 -213l-25 -22l-225 -6z" />
<glyph unicode=";" horiz-adv-x="503" d="M12 -301q143 338 199 510l22 20q119 6 252 15q-145 -252 -276 -514l-23 -23q-74 0 -174 -8zM328 782q12 59 39 217l24 25h62q45 -2 157 4l19 -27q-25 -119 -37 -215l-25 -22l-227 -6z" />
<glyph unicode="&#x3c;" horiz-adv-x="1421" d="M137 584l33 168l1368 643l-35 -187l-1128 -536l930 -500l-35 -186z" />
<glyph unicode="=" horiz-adv-x="1251" d="M182 311l31 170l907 -4l-30 -168zM242 623l32 168l908 -5l-33 -168z" />
<glyph unicode="&#x3e;" horiz-adv-x="1429" d="M33 -35l33 189l1130 536l-930 498l35 186l1133 -596l-33 -170z" />
<glyph unicode="?" horiz-adv-x="872" d="M248 12q12 68 39 209l26 27q125 4 219 12l21 -24q-23 -111 -41 -207l-23 -25q-121 -8 -227 -16zM258 1139q18 68 61 229l15 16q154 90 315 91q143 0 230 -70q94 -78 94 -217q0 -35 -6 -72q-27 -158 -191 -371q-96 -125 -123 -163q-61 -92 -90 -179l-18 -24 q-102 -2 -207 -10q47 152 106 243q80 104 158 209q102 137 119 248q6 31 6 55q0 162 -162 162q-63 0 -125.5 -30.5t-181.5 -116.5z" />
<glyph unicode="@" horiz-adv-x="1632" d="M143 367q0 59 11 120q57 352 340 588q270 227 593 228q209 0 343 -109q147 -117 147 -326q0 -47 -8 -100q-35 -211 -170 -399q-160 -221 -352 -222q-94 0 -148 105q-111 -94 -235 -94q-223 0 -224 241q0 195 135 377q147 195 340 195q106 0 175 -82l14 41l33 20l188 -6 q-55 -76 -139 -301q-80 -209 -92 -291q-8 -53 8 -53q63 0 145 111q61 82 103 176q57 135 57 258q0 141 -82 223q-90 92 -268 92q-252 0 -471 -196q-225 -201 -271 -484q-8 -51 -8 -98q0 -203 139 -315q129 -102 336 -103q281 0 607 256l36 -6l58 -92q-373 -301 -715 -301 q-262 0 -434 135q-190 150 -191 412zM643 418q0 -111 78 -111q139 0 252 285q14 39 14 90q0 129 -82 129q-98 0 -184 -141q-78 -129 -78 -252z" />
<glyph unicode="A" horiz-adv-x="1161" d="M-61 -10q279 528 358 684q193 371 332 663l26 21q158 6 283 14l16 -20q14 -219 62 -656q39 -356 76 -663l-31 -29l-219 -10l-17 22q-8 133 -26 400q-199 -2 -424 -8q-109 -227 -178 -383l-25 -23q-100 -2 -233 -12zM461 580q150 0 321 6l-53 518z" />
<glyph unicode="B" horiz-adv-x="1177" d="M68 -6q45 223 131 653q29 137 82 416q16 96 45 299q258 10 434 10q397 0 397 -252q0 -35 -8 -71q-33 -184 -264 -312q219 -76 219 -262q0 -27 -6 -57q-31 -176 -172 -289q-134 -105 -322 -125q-102 -10 -256 -10h-280zM350 174h47q33 -2 45 -2q180 0 271 45 q113 57 139 205q4 23 4 41q0 160 -256 160q-109 0 -108 0q-10 36 -10 117q0 20 1 44h47q121 0 228 54q131 66 151 178q4 25 4 43q0 143 -206 143h-54q-66 0 -112 -4q-68 -340 -191 -1024z" />
<glyph unicode="C" horiz-adv-x="1167" d="M119 494q0 72 12 151q53 354 273.5 559t543.5 205q145 0 305 -63q-8 -78 -30 -240l-31 -21l-127 23l-14 104q-82 31 -136 31q-213 0 -358 -174q-137 -160 -174 -414q-10 -66 -10 -127q0 -174 83 -276t244 -102q94 0 185 40q76 35 223 136q-43 -168 -61 -238l-15 -18 q-190 -96 -393 -97q-248 0 -384 137.5t-136 383.5z" />
<glyph unicode="D" horiz-adv-x="1341" d="M68 -8q127 561 223 1157q6 41 20 192l35 23l60 -2h29q61 0 157 6q129 8 186 8q266 0 389 -94q154 -119 154 -381q0 -250 -124.5 -473.5t-319.5 -325.5q-154 -80 -390 -98q-209 -6 -419 -12zM350 174q227 2 340 45q166 61 268 246q76 135 105 307q10 70 10 127 q0 307 -354 307q-53 0 -172 -8q-102 -469 -197 -1024z" />
<glyph unicode="E" horiz-adv-x="1024" d="M68 -8q98 414 161 782q6 31 43 283q25 170 54 278l20 21q256 0 766 8q-16 -57 -49 -172l-19 -23q-61 0 -239 9q-143 6 -240 6h-16q-37 -174 -78 -379h12q79 -1 197 -1t276 1q-23 -78 -45 -170l-18 -23q-59 2 -215 9q-133 4 -213 4h-29q-43 -211 -84 -445q63 0 172 -2 q125 -2 174 -2q106 0 189 6q-18 -76 -39 -168l-27 -20q-68 -2 -133 -2q-625 0 -620 0z" />
<glyph unicode="F" horiz-adv-x="903" d="M68 -8q70 287 155 756q37 193 109 612q49 1 111 1t137 -1q170 -2 227 -2q135 0 274 6q-27 -88 -49 -176l-22 -21q-68 0 -228 11q-145 8 -227 8q-31 -133 -84 -406q139 0 422 6q-2 -8 -47 -168l-23 -22q-45 0 -198 4q-109 4 -187 4q-66 -317 -100 -598q-72 -2 -270 -14z " />
<glyph unicode="G" horiz-adv-x="1331" d="M96 512q0 70 13 145q55 350 297 555q231 197 557 197q205 0 376 -86q-33 -104 -65 -223q-180 131 -340 131q-231 0 -377.5 -151.5t-187.5 -413.5q-10 -66 -11 -127q0 -180 91.5 -286t261.5 -106q86 0 202 35q25 111 64 332l-133 -2l67 154l33 20q121 -4 141 -4 q10 0 175 8q-70 -282 -125 -610l-19 -17q-233 -90 -444 -90q-260 0 -414 136q-162 145 -162 403z" />
<glyph unicode="H" horiz-adv-x="1333" d="M57 -10q88 401 140 682l22 127q33 174 96 555q76 2 258 14q-70 -336 -108 -537q35 0 158 -2h155q137 0 248 7q31 164 86 520q119 6 256 14q-135 -608 -205 -1038q-23 -154 -47 -342q-102 -2 -264 -15q49 227 137 674h-280q-160 0 -281 -4q-78 -401 -109 -643 q-123 -2 -262 -12z" />
<glyph unicode="I" horiz-adv-x="514" d="M92 -6q125 561 230 1192l-117 -2l67 157l33 21q102 0 299 8q-166 -733 -254 -1364q-111 -4 -258 -12z" />
<glyph unicode="J" horiz-adv-x="628" d="M-51 6q2 12 35 187l12 -3q70 -18 102 -18q102 0 156.5 85t189.5 925l-155 -2l65 157l35 19q117 -2 127 -2q39 0 213 12q-49 -231 -188 -952q-43 -219 -140 -318q-105 -108 -303 -108h-4q-61 0 -145 18z" />
<glyph unicode="K" horiz-adv-x="1138" d="M68 -8q147 666 227 1161q16 100 22 209q96 0 269 12q-49 -221 -113 -553q109 102 328 326q80 94 198 211q82 2 265 12q-205 -211 -598 -622q166 -322 438 -703l-21 -39q-168 -4 -256 -14l-24 14q-123 209 -367 631q-72 -389 -104 -612l-21 -21q-115 -2 -243 -12z" />
<glyph unicode="L" horiz-adv-x="901" d="M74 2q86 401 123 590q63 311 104 567q16 100 21 207q92 2 280 12q-121 -504 -244 -1183q205 6 512 20q-14 -65 -45 -190l-20 -23q-122 2 -304.5 2t-426.5 -2z" />
<glyph unicode="M" horiz-adv-x="1603" d="M0 -14q51 182 203 829q41 168 125 524l37 21q117 2 260 10l16 -20q20 -152 70 -385q63 -307 82 -408q98 170 288 469q170 268 193 309l22 21q78 2 295 14q-113 -680 -200 -1364q-100 -2 -256 -12q59 338 182 1026q-520 -813 -549 -830q-37 0 -121 -6l-12 21 q-8 88 -109 532l-69 299q-76 -332 -221 -1016l-19 -22q-102 -2 -217 -12z" />
<glyph unicode="N" horiz-adv-x="1345" d="M68 -8q98 434 186 946q25 129 68 403l32 23h19q66 0 225 10l25 -20q6 -16 362 -1024q57 330 164 1007l22 21q84 2 213 12q-178 -868 -260 -1364q-104 -2 -262 -12l-18 20q-70 203 -189 521q-139 371 -186 507q-57 -326 -164 -1017l-22 -21q-96 -2 -215 -12z" />
<glyph unicode="O" horiz-adv-x="1402" d="M125 651q51 338 246 543q207 217 518 217q236 0 360 -143q119 -133 119 -371q0 -76 -12 -158q-53 -342 -244 -546q-205 -218 -516 -218q-238 0 -365 144q-120 134 -120 369q0 80 14 163zM371 508q0 -354 266 -354q233 0 369 266q112 215 112 472q0 343 -266 343 q-201 0 -324 -170q-106 -145 -143 -397q-14 -86 -14 -160z" />
<glyph unicode="P" horiz-adv-x="1126" d="M98 -10q61 283 135 676q41 225 117 706q76 2 238 10q139 8 213 9q403 0 403 -317q0 -170 -108 -308q-109 -145 -269 -201q-119 -43 -313 -45l-31 168q150 4 219 23q125 31 192 125t67 206q0 176 -226 177q-66 0 -160 -11q-141 -690 -213 -1183l-22 -23q-113 -2 -242 -12z " />
<glyph unicode="Q" horiz-adv-x="1415" d="M121 502q0 76 10 153q53 342 246 545q205 215 516 215q236 0 360.5 -138t124.5 -374q0 -74 -12 -151q-37 -242 -143.5 -405t-302.5 -294q215 -82 397 -127q-68 -92 -125 -176l-35 -14q-186 84 -502 221q-55 23 -77 23h-6q-232 0 -351 157q-100 137 -100 365zM643 156 q190 0 318 180q111 156 147 399q12 78 12 148q0 354 -268 354q-231 0 -365 -258q-110 -211 -110 -464q0 -359 266 -359z" />
<glyph unicode="R" horiz-adv-x="1134" d="M84 -8q16 78 147 737q53 260 107 645q72 0 233 8q135 6 211 7q395 0 396 -285q0 -35 -7 -74q-25 -154 -157 -280q-117 -113 -256 -156q115 -229 182 -356q47 -74 156 -242q-101 -4 -285 -14l-23 12q-41 96 -290 584q4 6 -31 127q7 -1 16 -1q46 0 150 25q139 33 188 72 q84 68 105 198q6 29 6 56q0 92 -68 129q-51 28 -159 28h-7q-51 0 -141 -4q-82 -412 -117 -600q-61 -336 -96 -602q-106 -2 -260 -14z" />
<glyph unicode="S" horiz-adv-x="1017" d="M18 61q25 84 54 191l43 18q138 -112 278 -112h2q111 0 191 49q94 57 110 166q4 18 4 35q0 100 -131 172q-121 61 -241 122q-129 90 -129 242q0 33 6 70q33 205 215 309q150 86 338 86q135 0 307 -59l10 -19q-27 -86 -47 -172l-39 -18q-147 88 -266 88q-109 0 -186 -51 q-92 -59 -93 -162q0 -94 136 -164q125 -61 249 -125q135 -92 136 -240q0 -31 -7 -65q-37 -225 -219 -346q-155 -103 -366 -103q-190 0 -355 88z" />
<glyph unicode="T" horiz-adv-x="931" d="M150 1171q12 57 36 164l21 23h174q290 0 756 4q-29 -111 -39 -166l-23 -22h-78q-119 0 -249 -3q-131 -627 -216 -1165q-102 -2 -268 -14q143 631 236 1194q-172 -6 -350 -15z" />
<glyph unicode="U" horiz-adv-x="1331" d="M154 319q0 47 12 121q20 129 70.5 382t70.5 382q10 68 17 135l34 21q82 0 240 10q-23 -100 -152 -747q-36 -183 -36 -252q0 -219 215 -219q197 0 288 165q47 88 91.5 319.5t123.5 725.5q72 2 228 14q-51 -235 -164 -839q-51 -279 -182 -408q-162 -156 -439 -156 q-176 0 -286 74q-131 89 -131 267v5z" />
<glyph unicode="V" horiz-adv-x="1062" d="M154 1341l41 23h35q73 0 178 6l16 -20q16 -373 88 -1055q168 338 502 1040l20 23q102 2 230 12q-76 -156 -365 -733q-311 -621 -319 -627q-59 -2 -277 -12l-16 20q-41 391 -117 1172q-4 43 -16 151z" />
<glyph unicode="W" horiz-adv-x="1640" d="M172 1339l31 21q121 4 229 12l14 -26q0 -39 -6 -238q-4 -141 -4 -234l4 -542q137 307 398 919l22 23q59 2 225 10l17 -22q-4 -39 -4 -144q0 -248 22 -790l238 583q53 135 155 416l23 25q98 2 246 12q-138 -299 -279 -657q-96 -223 -272 -682l-29 -23q-147 -4 -291 -12 l-18 24q6 152 6 346v99q-4 379 -4 424q-84 -184 -254 -588q-41 -86 -119 -268l-22 -25q-80 -2 -271 -12l-16 26v-2q-1 0 -14 725q-2 205 -6 293q-6 166 -21 307z" />
<glyph unicode="X" horiz-adv-x="1015" d="M-104 -8q195 246 559 721q-111 328 -240 645q180 12 260 26l25 -18q25 -86 139 -442q311 426 328 440q33 -2 96 -2t156 2q-176 -215 -512 -637l249 -713q-90 -6 -258 -20l-22 16q-49 166 -152 494q-182 -244 -344 -479l-26 -21q-104 -2 -258 -12z" />
<glyph unicode="Y" horiz-adv-x="1011" d="M160 1356q88 2 256 10l22 -12q31 -139 160 -566q242 348 379 560l24 18q61 0 230 8q-196 -270 -567 -794q-66 -326 -99 -555l-22 -21q-35 -2 -242 -16q43 184 66 286q39 188 47 287q-125 428 -254 795z" />
<glyph unicode="Z" horiz-adv-x="976" d="M-63 4l8 107q190 233 555 702l284 373q-47 2 -98 2q-57 0 -175 -8.5t-177 -8.5l-105 3q31 90 54 163l24 23q107 -5 250 -5q72 0 152 1q350 4 407 4l17 -90q-62 -72 -181 -213q-160 -197 -671 -879q92 0 296.5 13.5t325.5 13.5q-16 -43 -61 -182l-27 -19q-93 5 -220 5 q-96 0 -212 -3q-217 -3 -343 -3q-63 0 -103 1z" />
<glyph unicode="[" horiz-adv-x="579" d="M33 -430q49 197 106 485q68 346 135 693q78 403 127 714q156 0 426 13q-20 -76 -36 -162q-109 0 -179 -2q-141 -582 -311 -1577q88 2 193 10q-20 -78 -39 -166q-47 0 -422 -8z" />
<glyph unicode="\" horiz-adv-x="856" d="M203 1481l200 2l23 -19q61 -395 252 -1259q31 -145 100 -453l-35 -22l-165 -2l-21 20q-156 879 -354 1733z" />
<glyph unicode="]" horiz-adv-x="591" d="M-111 -428q20 76 39 162l88 -2q49 0 103 2q98 410 299 1577q-90 -2 -195 -11q20 80 39 166q49 0 422 9q-49 -201 -102 -465q-68 -350 -138 -703q-78 -410 -127 -725q-156 0 -428 -10z" />
<glyph unicode="^" horiz-adv-x="1370" d="M270 645l486 727l168 4l196 -712l-211 -5l-123 461l-307 -471z" />
<glyph unicode="_" horiz-adv-x="935" d="M-90 -254l18 104h971l-16 -104h-973z" />
<glyph unicode="`" horiz-adv-x="880" d="M477 1458l260 -6l19 -14q4 -61 39 -279l-31 -26q-70 2 -137 -5q-12 16 -56 121q-29 68 -94 209z" />
<glyph unicode="a" d="M78 342q0 45 6 94q41 285 235 443q180 147 437 147q145 0 200 -33q63 -37 64 -114q0 -20 -4 -50q-29 -147 -76 -399q-25 -131 -70 -405l-18 -39q-61 4 -101 27.5t-81 49.5q-147 -88 -264 -88q-158 0 -246 105q-82 98 -82 262zM313 371q0 -209 166 -209q94 0 197 80 q35 184 102 553q4 16 -11 37.5t-42 21.5q-13 1 -26 1q-143 -1 -243 -101q-108 -110 -137 -308q-6 -41 -6 -75z" />
<glyph unicode="b" horiz-adv-x="1042" d="M68 102q147 674 211 1067q18 121 32 277l240 55l18 -24l-106 -510q150 71 255 71h3q160 0 246 -99t86 -261q0 -49 -9 -103q-35 -215 -167.5 -364.5t-333.5 -198.5q-92 -24 -225 -24h-11q-53 0 -75.5 5t-83 43t-72.5 56q-2 0 -8 10zM309 164q43 -6 78 -6 q164 0 277.5 109.5t144.5 297.5q6 37 6 70q0 102 -48 164.5t-136 62.5q-82 0 -201 -69q-41 -209 -121 -629z" />
<glyph unicode="c" horiz-adv-x="845" d="M72 365q0 248 168 448q186 223 462 223q131 0 238 -45q-25 -94 -43 -164l-39 -18q-78 53 -162 53q-166 0 -282 -155q-104 -143 -105 -312q0 -106 49 -172q54 -71 157 -71h3q111 0 299 141q-41 -160 -55 -225q-121 -92 -311 -93q-188 0 -289 117q-90 104 -90 273z" />
<glyph unicode="d" horiz-adv-x="1091" d="M74 354q0 49 8 101q43 291 248 446q184 141 450 141q35 0 74 -2q37 203 59 400q102 20 261 59q-115 -515 -201 -1007q-45 -262 -66 -459l-26 -27q-55 2 -100.5 23.5t-90.5 42.5q-156 -90 -278 -90q-162 0 -252 106q-86 100 -86 266zM313 389q0 -219 176 -219 q102 0 211 82q59 295 117 620q-40 2 -67 2q-174 0 -287 -105t-144 -304q-6 -39 -6 -76z" />
<glyph unicode="e" horiz-adv-x="991" d="M88 358q0 47 6 99q37 250 182 413q162 182 394 183q150 0 243 -87t115 -247q-33 -42 -96 -103q-201 -55 -600 -157q-2 -29 -2 -56q0 -253 223 -253h2q84 0 158.5 34.5t204.5 128.5q-41 -139 -62 -235q-55 -49 -182 -80q-98 -23 -174 -23q-190 0 -301 99.5t-111 283.5z M362 643l418 102q-59 150 -147 150q-156 0 -271 -252z" />
<glyph unicode="f" horiz-adv-x="647" d="M104 -8q80 340 170 846q-57 -4 -104 -4l-18 22q14 53 30 125l31 27h90q82 375 260 497q121 84 225 84q39 0 103 -6q-21 -49 -27 -80q-4 -18 -18 -82h-37h-6q-45 0 -97 -25q-57 -28 -90 -73q-49 -66 -86 -305l236 8q-14 -53 -39 -156l-22 -20q-63 0 -205 -4 q-66 -348 -107 -604q-12 -68 -31 -232q-47 0 -258 -18z" />
<glyph unicode="g" d="M55 -334l54 242q137 -125 292 -125q37 0 66 10q141 49 180 238q-131 -70 -244 -70q-158 0 -242.5 102.5t-84.5 266.5q0 47 6 96q43 291 237 451q179 149 434 149h3q145 0 200 -33q63 -37 64 -114q0 -23 -6 -54q-25 -133 -64 -362q-18 -106 -86 -438q-35 -174 -164 -297 q-43 -43 -125 -80q-90 -41 -157 -45h-23q-69 0 -153 10q-123 18 -187 53zM311 360q0 -210 164 -210h2q98 0 201 79q49 262 100 562q2 18 -12 38.5t-43 22.5q-13 1 -26 1q-141 0 -241 -101q-108 -111 -139 -314q-6 -41 -6 -78z" />
<glyph unicode="h" horiz-adv-x="1128" d="M76 -8q70 334 160 796q82 428 108 652q104 20 268 59q-61 -246 -125 -569q199 108 332 108h2q248 0 248 -241q0 -41 -6 -86q-35 -210 -141 -691q-45 -152 -250 -180l41 176q27 117 53 295q20 145 41 293q12 68 12 111q0 141 -110 141q-98 0 -254 -106q-80 -414 -129 -744 q-76 -2 -250 -14z" />
<glyph unicode="i" horiz-adv-x="530" d="M84 -8q152 649 184 1016q137 25 232 47l24 -17q-128 -543 -194 -1032q-131 -4 -246 -14zM332 1161q39 100 100 307q74 4 254 15l-151 -271l-29 -24q-45 -6 -174 -27z" />
<glyph unicode="j" horiz-adv-x="501" d="M-109 -285q106 31 154 88q39 47 66 160q66 276 141 750q23 141 41 295q115 20 264 51q-92 -363 -174 -830q-18 -113 -37 -225q-27 -131 -78 -213q-66 -106 -186 -166q-25 -12 -178 -43q-2 51 -13 133zM334 1161q39 98 100 305q74 4 254 15l-151 -271l-29 -22 q-45 -8 -174 -27z" />
<glyph unicode="k" horiz-adv-x="944" d="M63 -10q201 928 265 1435l20 21q61 12 240 51q-68 -313 -162 -799q109 102 352 338l262 13q-272 -268 -442 -441q176 -369 334 -518l-17 -41q-74 -16 -223 -61l-28 14q-131 223 -275 500q-51 -287 -84 -492q-74 -6 -242 -20z" />
<glyph unicode="l" horiz-adv-x="466" d="M76 -6q193 948 250 1450q117 23 258 55q-34 -143 -138 -721q-82 -446 -129 -772q-88 -4 -241 -12z" />
<glyph unicode="m" horiz-adv-x="1677" d="M43 -10q84 352 150 764q20 121 28 229l41 18q45 -2 84 -20t78 -35q172 98 350 98q139 0 209 -120q191 112 366 112h3q241 0 241 -235q0 -37 -8 -76q-43 -225 -121 -698l-22 -21q-80 -2 -228 -12q129 502 129 590q0 16 -4 16q10 61 11 105q0 145 -121 145q-113 0 -221 -76 q-16 -125 -65.5 -382t-65.5 -386q-70 -2 -250 -14q94 410 129 629q10 66 10 106q0 133 -102 133q-96 0 -238 -94q-47 -246 -133 -762q-104 -2 -250 -14z" />
<glyph unicode="n" horiz-adv-x="1120" d="M68 -6q45 213 120 618q27 158 52 367q37 20 53 20q39 0 153 -49q162 88 365 88q240 0 240 -231q0 -39 -7 -84q-14 -86 -46.5 -254t-47 -256t-28.5 -201q-130 -6 -224 -14l-16 22q43 205 121 623q4 33 4 64q0 153 -110 153h-1q-115 0 -247 -94q-84 -432 -127 -739l-23 -19 q-113 -4 -231 -14z" />
<glyph unicode="o" horiz-adv-x="1038" d="M80 350q0 53 8 111q37 262 188 413q158 160 404 160q180 0 276 -102q90 -96 91 -270q0 -53 -9 -111q-39 -264 -182 -416q-153 -162 -399 -162q-184 0 -280.5 99.5t-96.5 277.5zM313 360q0 -229 174 -229q254 0 312 391q10 70 10 125q0 227 -174 227q-252 0 -313 -428 q-8 -45 -9 -86z" />
<glyph unicode="p" horiz-adv-x="1062" d="M-18 -420q133 590 211 1073q29 182 45 344l28 25q113 -14 176 -59q162 90 312 90q152 0 237 -109q80 -102 80 -260q0 -256 -188 -451q-217 -225 -584 -225q-37 -203 -63 -377l-23 -18zM328 168q18 -2 34 -2q176 0 302.5 108.5t158.5 305.5q6 41 6 80q0 214 -165 214 q-92 0 -218 -77q-53 -252 -118 -629z" />
<glyph unicode="q" horiz-adv-x="1064" d="M174 709q121 193 320 262q139 49 370 49h94h105l18 -19q-53 -236 -123 -602l80 43q-25 -81 -39 -157q-25 -29 -75 -80q-31 -190 -101 -580l-20 -20l-232 -33q55 248 97 473q-158 -80 -271 -80q-166 0 -254 113q-75 97 -75 256q0 207 106 375zM305 369q0 -213 187 -213 q94 0 208 75l113 617q-233 -4 -342 -94q-70 -57 -118 -169t-48 -216z" />
<glyph unicode="r" horiz-adv-x="667" d="M80 -8q53 264 147 770q6 35 27 225q74 18 252 57l-29 -149q186 203 363 203q14 0 59 -11q-27 -65 -82 -206q-106 -18 -115 -21q-59 -12 -110 -47q-96 -63 -154 -211q-37 -96 -67 -272q-27 -152 -52 -326q-82 -2 -239 -12z" />
<glyph unicode="s" horiz-adv-x="827" d="M-16 -16q14 45 65 178q51 -14 105 -29q66 -16 110 -16q92 0 172 39q96 47 107 127q1 8 1 16q0 63 -86 97q-98 38 -194 77q-106 61 -106 180q0 27 4 54q29 182 203 270q129 67 300 67h5q102 0 190 -34l8 -19q-12 -49 -49 -188q-115 69 -208 69h-3q-68 0 -125 -26 q-68 -33 -75 -88q-1 -7 -1 -14q0 -69 109 -105q162 -53 203 -80q90 -57 90 -172q0 -29 -6 -59q-20 -141 -172 -262q-172 -137 -467 -138q-78 0 -172 33z" />
<glyph unicode="t" horiz-adv-x="655" d="M143 852l11 39l41 113l124 24l46 227l247 56q-35 -113 -67 -285q61 0 215 6q-23 -84 -41 -176h-201q-35 -160 -67 -317q-45 -213 -45 -308q0 -55 45 -81.5t149 -36.5l-27 -111q-82 -20 -139 -20q-262 0 -262 192q0 27 6 55l109 623h-144z" />
<glyph unicode="u" horiz-adv-x="1087" d="M121 287q47 236 121 710l22 19q94 6 221 20l19 -20q-12 -74 -45 -197q-37 -135 -47 -188q-16 -86 -50 -262q-6 -35 -6 -66q0 -151 112 -151h1q96 0 244 104q25 115 69 342q33 180 64 399l20 19q27 2 234 20q-140 -658 -185 -1020l-28 -30q-55 8 -99 32q-2 2 -79 58 q-188 -102 -355 -103q-239 0 -239 230q0 41 6 84z" />
<glyph unicode="v" horiz-adv-x="851" d="M125 1012q131 10 242 24l22 -16q6 -117 55 -746q119 238 342 730l25 16h46q73 0 169 4q-252 -471 -504 -995l-20 -19q-37 -2 -258 -24l-13 22q-51 621 -106 1004z" />
<glyph unicode="w" horiz-adv-x="1456" d="M121 1014q154 8 231 14l17 -20q-1 -45 -1 -95q0 -265 27 -663q106 248 299 731l25 20q49 0 121 5q94 6 121 6l14 -21q2 -147 18 -385q20 -297 25 -379q78 139 166 404q82 250 100 379q76 2 256 20q-51 -178 -172 -495q-98 -266 -260 -517l-21 -18h1l-263 -10l-18 22 q0 131 -10 357q-14 258 -17 352l-123 -307q-59 -127 -168 -391l-22 -19q-43 1 -85 1q-84 0 -163 -3l-14 23q-10 221 -84 989z" />
<glyph unicode="x" horiz-adv-x="858" d="M-66 -10q279 317 449 528q-57 156 -188 494q160 12 260 24l14 -14q51 -197 84 -299q131 172 201 281l24 18q113 2 236 8q-170 -201 -400 -491q127 -317 217 -523q-26 -1 -262 -24l-16 18q-39 137 -104 330l-232 -320l-24 -14q-47 0 -259 -16z" />
<glyph unicode="y" horiz-adv-x="864" d="M27 -397q129 168 194 262q10 16 78 131q-12 98 -68 450q-27 178 -96 566q164 16 248 28l18 -20q23 -252 78 -692q111 223 328 682l24 18q90 2 220 8q-250 -440 -512 -942q-82 -147 -236 -456l-29 -23q-119 -4 -247 -12z" />
<glyph unicode="z" horiz-adv-x="849" d="M25 23l8 94q23 41 98 123q109 121 111 122q86 104 374 502q-127 -4 -397 -16l-14 24l39 127l22 25q163 -4 457 -4h211l12 -47q-203 -276 -606 -813q59 0 229 12q114 9 199 9q28 0 53 -1l-57 -166l-29 -20q-100 6 -237 6h-250q-113 2 -199 6z" />
<glyph unicode="{" horiz-adv-x="655" d="M162 483l16 86q92 29 137 125q37 74 62 228q35 209 43 241q39 156 110 226q61 61 158 79q33 6 172 17l-14 -88q-123 -37 -170 -105q-41 -55 -80 -237q-25 -129 -49 -256q-23 -102 -70 -164q-39 -51 -125 -105q100 -84 101 -190q0 -37 -8.5 -88t-30 -153.5t-29.5 -153.5 q-10 -61 -10 -101q0 -131 141 -172l-16 -88q-180 6 -242 35q-86 43 -86 172q0 43 8 98.5t29.5 162t32.5 159.5q14 92 14 127q0 113 -94 145z" />
<glyph unicode="|" horiz-adv-x="425" d="M31 -446l342 1949l180 -4l-344 -1950z" />
<glyph unicode="}" horiz-adv-x="667" d="M-70 -422l17 88q121 37 170 105q39 55 78 237q25 129 49 256q23 104 69 164q39 51 125 104q-100 84 -100 191q0 37 9 89t29.5 153.5t29.5 152.5q10 61 10 103q0 129 -140 170l15 88q180 -6 241 -35q88 -43 89 -172q0 -43 -9.5 -98.5t-31 -162t-29.5 -159.5 q-16 -92 -16 -127q0 -113 94 -145l-17 -86q-90 -29 -137 -125q-35 -74 -61 -228q-35 -209 -43 -241q-37 -156 -109 -226q-63 -59 -160 -80q-33 -6 -172 -16z" />
<glyph unicode="~" horiz-adv-x="1366" d="M258 545q143 164 289 164q82 0 198.5 -59.5t165.5 -59.5q59 0 207 141l49 -149q-162 -156 -297 -156q-80 0 -187.5 59.5t-166.5 59.5q-45 0 -115 -60l-90 -90z" />
<glyph unicode="&#xa1;" horiz-adv-x="512" d="M18 -6q154 567 252 1075q12 0 203 16q-119 -627 -174 -1058l-23 -21q-117 -2 -258 -12zM274 1266q25 115 39 198l21 23l227 16l17 -22q-21 -99 -37 -203l-27 -25q-119 -4 -219 -12z" />
<glyph unicode="&#xa2;" horiz-adv-x="894" d="M117 371q0 258 164 460q180 223 444 209l49 127l19 21q63 -2 143 4q-41 -92 -74 -170q61 -20 115 -51l-53 -164l-45 -19q-37 43 -86 70l-306 -713q14 -2 31 -2q78 0 146.5 29t187.5 113q-39 -127 -59 -222l-17 -16q-158 -76 -297 -76q-25 0 -59 4q-29 -74 -55 -145 l-25 -16h-139q49 100 92 194q-176 104 -176 363zM344 412q0 -102 35 -203l280 668q-262 -80 -309 -373q-6 -45 -6 -92z" />
<glyph unicode="&#xa3;" horiz-adv-x="897" d="M-23 -16q141 279 216 604l-134 -8l31 137l19 22l108 -2q8 55 27 162q88 444 524 444q139 0 266 -53l10 -20q-24 -80 -40 -146l-37 -16q-115 66 -224 66q-131 0 -198 -91q-49 -63 -76 -198q-10 -41 -25 -144q172 4 410 17q-23 -76 -37 -140l-22 -22q-141 0 -377 -4 q-45 -211 -146 -428q178 0 547 20l19 -22q-18 -74 -33 -142l-23 -18q-254 -2 -805 -18z" />
<glyph unicode="&#xa4;" horiz-adv-x="1249" d="M37 203l166 147q-45 113 -45 199q0 37 6 78q25 158 153 319l-108 141l151 138l113 -146q158 96 311 97q131 0 246 -86l170 151l105 -133l-166 -145q45 -117 45 -199q0 -33 -4 -68q-27 -166 -160 -331l113 -146l-154 -137l-115 149q-158 -94 -303 -94q-133 0 -252 86 l-170 -153zM342 573q0 -123 71.5 -197.5t188.5 -74.5q137 0 252 110.5t141 270.5q4 33 4 63q0 119 -71.5 192t-186.5 73q-137 0 -252.5 -107.5t-140.5 -263.5q-6 -33 -6 -66z" />
<glyph unicode="&#xa5;" horiz-adv-x="1011" d="M123 319q16 55 37 132l20 22l228 2l10 62q-8 33 -25 84q-61 -2 -215 -7q18 61 37 131l23 21h108q-94 297 -184 534q90 6 256 21l20 -16q63 -236 156 -549q231 326 367 547l26 18q96 0 227 12q-235 -324 -401 -557q70 0 150 6q-20 -70 -39 -135l-19 -20q-92 2 -196 0 q-25 -35 -47 -70q-6 -27 -17 -78q74 0 262 10q-23 -74 -39 -137l-20 -18q-104 0 -230 -2q-18 -100 -53 -314l-20 -20q-90 0 -238 -10q20 90 70 338q-74 -2 -254 -7z" />
<glyph unicode="&#xa7;" horiz-adv-x="933" d="M12 -195q23 90 35 168l43 19q123 -109 254 -109q98 0 164.5 49.5t66.5 114.5q0 61 -59 109q-43 37 -167 99t-175 110q-76 74 -76 178q0 25 4 53q27 168 236 305q-66 90 -66 168q0 20 2 39q27 170 177 258q121 72 276 72q129 0 270 -58l9 -18q-23 -82 -39 -148l-35 -18 q-117 74 -227 74q-92 0 -151.5 -43t-59.5 -103q0 -57 57 -102q41 -35 168 -98q117 -61 166 -107q74 -72 73 -170q0 -25 -4 -49q-26 -166 -231 -307q84 -98 84 -191q0 -18 -4 -39q-29 -176 -189 -268q-129 -72 -292 -72q-160 0 -310 84zM307 641q-10 -68 45 -117 q18 -16 109 -69l139 -82q129 86 143 178q13 76 -106 158q-70 39 -186 106q-127 -80 -144 -174z" />
<glyph unicode="&#xa8;" horiz-adv-x="550" d="M141 1212q23 63 68 224q76 2 270 12l-127 -191l-30 -22q-47 -6 -181 -23zM502 1212q23 63 67 224q76 2 271 12l-127 -191l-29 -22q-47 -6 -182 -23z" />
<glyph unicode="&#xa9;" horiz-adv-x="1736" d="M201 561q0 51 10 105q45 295 293 501.5t559 206.5q272 0 442 -164q162 -162 162 -409q0 -55 -8 -111q-47 -295 -294 -499.5t-558 -204.5q-268 0 -437 163.5t-169 411.5zM322 575q0 -207 142 -346t370 -139q258 0 462.5 176t243.5 422q8 49 8 96q0 209 -137.5 347.5 t-366.5 138.5q-281 0 -499 -205q-223 -211 -223 -490zM449 596q0 37 6 78q33 203 198.5 343t380.5 140q225 0 371 -194l-180 -150q-61 78 -105 107q-53 35 -125 34q-129 0 -222 -98t-93 -225q0 -96 61.5 -156.5t163.5 -60.5q121 0 277 143l141 -135q-223 -211 -463 -211 q-186 0 -298.5 107.5t-112.5 277.5z" />
<glyph unicode="&#xaa;" horiz-adv-x="628" d="M123 866q0 20 4 43q20 125 156 193q86 41 256 72q6 94 -58 94q-76 0 -198 -56l-29 23q14 51 22 96q98 61 263 62q176 0 176 -156q0 -27 -6 -57q-31 -143 -78 -463q-90 -2 -168 -8l-14 24q-80 -37 -150 -37q-82 0 -129 46t-47 124zM301 893q0 -70 61 -70q51 0 113 43 l39 189q-195 -35 -209 -131q-4 -16 -4 -31z" />
<glyph unicode="&#xab;" horiz-adv-x="815" d="M98 506l4 18q147 199 252 369l25 16q68 0 186 2l-268 -383q33 -117 131 -381q-127 -4 -201 -6l-14 17q-41 141 -51 176q-31 98 -64 172zM436 522l4 17q80 117 238 360l27 16q49 0 196 3q-129 -166 -268 -375q41 -117 131 -387l-191 -4l-16 16q-41 143 -121 354z" />
<glyph unicode="&#xac;" horiz-adv-x="1245" d="M37 461l31 162l1251 26l-125 -647l-180 -4l92 485z" />
<glyph unicode="&#xad;" horiz-adv-x="837" d="M166 451q8 25 43 186l20 16q51 0 131 -2h121q199 0 363 11q-14 -66 -43 -203h-168q-262 0 -467 -8z" />
<glyph unicode="&#xae;" horiz-adv-x="1736" d="M201 559q0 51 10 105q45 293 292 501.5t556 208.5q274 0 444 -164q164 -162 164 -409q0 -55 -8 -111q-45 -291 -294 -497.5t-558 -206.5q-268 0 -438 166q-168 160 -168 407zM322 578q0 -209 141 -348.5t366 -139.5q258 0 464 176t245 420q8 49 8 96q0 209 -135 346 q-142 142 -369 142q-279 0 -499.5 -208t-220.5 -484zM524 229l160 899q350 6 371 7q293 0 293 -195q0 -20 -5 -45q-20 -123 -176 -207q57 -66 56 -166q-2 -186 24 -276l-246 -8q-23 51 -24 122q0 63 2 127q-6 121 -94 121h-60l-67 -375zM858 788q113 0 148 7q90 16 100 86 q12 75 -86 75q-37 0 -131 -2z" />
<glyph unicode="&#xaf;" horiz-adv-x="550" d="M125 1221q29 86 39 125l20 18q362 0 588 16q-27 -80 -39 -131l-24 -14q-186 -4 -584 -14z" />
<glyph unicode="&#xb0;" horiz-adv-x="665" d="M147 1094q0 147 117 266t262 119q113 0 185.5 -68t72.5 -178q0 -145 -116.5 -265t-261.5 -120q-115 0 -187 68.5t-72 177.5zM336 1130q0 -115 102 -114q61 0 108.5 59.5t47.5 122.5q0 113 -98 113q-63 0 -111.5 -58.5t-48.5 -122.5z" />
<glyph unicode="&#xb1;" horiz-adv-x="1251" d="M-4 4l33 166l1097 4l-34 -168zM135 723l31 168l461 -2l90 465l178 4l-88 -467l457 8l-33 -166l-457 -8l-88 -467l-180 -4l88 467z" />
<glyph unicode="&#xb4;" horiz-adv-x="1099" d="M594 1128q109 176 174 306l23 16q127 0 280 10q-153 -149 -280 -315l-27 -15q-57 0 -170 -2z" />
<glyph unicode="&#xb5;" horiz-adv-x="1089" d="M-6 -438q94 401 211 1073q39 213 59 358q102 4 246 19q-47 -209 -123 -613q-10 -53 -10 -94q0 -166 141 -166q199 0 248 234q49 244 72 383q12 70 32 231l23 23q117 4 229 12q-127 -578 -188 -1024q-113 -6 -236 -12v45q-117 -66 -213 -66q-80 0 -163 70 q-27 -143 -76 -443l-23 -20z" />
<glyph unicode="&#xb6;" horiz-adv-x="1247" d="M268 897q0 31 6 66q35 221 207 321q133 76 365 90q182 0 362 2l-20 -121h-64l-301 -1581l-141 -2l301 1579l-229 -4l-301 -1581l-140 -2l179 942q-223 61 -224 291z" />
<glyph unicode="&#xb7;" horiz-adv-x="428" d="M135 416q27 104 43 213l25 20q76 4 223 17l18 -21q-22 -102 -38 -188l-21 -21q-84 -6 -250 -20z" />
<glyph unicode="&#xb8;" horiz-adv-x="540" d="M57 -375q94 119 189 266l26 17l170 2q-57 -111 -127 -256l-20 -21q-90 0 -238 -8z" />
<glyph unicode="&#xba;" horiz-adv-x="704" d="M145 938q0 39 7 82q27 166 133 268.5t268 102.5q242 0 242 -238q0 -39 -9 -82q-27 -168 -120 -268q-105 -109 -271 -109q-250 0 -250 244zM324 952q0 -139 100 -139q145 0 184 250q8 43 8 78q0 131 -100 131q-147 0 -186 -250q-6 -39 -6 -70z" />
<glyph unicode="&#xbb;" horiz-adv-x="817" d="M29 139q127 164 266 375q-4 14 -131 387q125 2 192 6l17 -20q51 -168 121 -352l-5 -19q-78 -106 -239 -358l-25 -17q-55 2 -196 -2zM365 145l268 383q-29 98 -129 383q129 0 196 4l19 -16q25 -90 49 -182q31 -102 66 -174q-148 -201 -259 -379l-22 -17q-70 0 -188 -2z " />
<glyph unicode="&#xbf;" horiz-adv-x="782" d="M53 281q0 35 6 73q25 154 187 365q178 231 215 348l18 25q88 0 207 8q-47 -150 -104 -240q-80 -106 -162 -215q-98 -137 -117 -252q-6 -27 -6 -51q0 -160 168 -160q98 0 301 150q-12 -50 -61 -232l-15 -16q-147 -90 -317 -90q-141 0 -228 72q-92 76 -92 215zM479 1264 q8 41 37 198l23 23l225 14l18 -20q-10 -53 -39 -203l-26 -25q-117 -6 -219 -14z" />
<glyph unicode="&#xc0;" horiz-adv-x="1161" d="M-61 -10q279 528 358 684q193 371 332 663l26 21q158 6 283 14l16 -20q14 -219 62 -656q39 -356 76 -663l-31 -29l-219 -10l-17 22q-8 133 -26 400q-199 -2 -424 -8q-109 -227 -178 -383l-25 -23q-100 -2 -233 -12zM461 580q150 0 321 6l-53 518zM602 1741l260 -6l19 -14 q4 -61 39 -279l-31 -26q-70 2 -137 -5q-12 16 -56 121q-29 68 -94 209z" />
<glyph unicode="&#xc1;" horiz-adv-x="1161" d="M-61 -10q279 528 358 684q193 371 332 663l26 21q158 6 283 14l16 -20q14 -219 62 -656q39 -356 76 -663l-31 -29l-219 -10l-17 22q-8 133 -26 400q-199 -2 -424 -8q-109 -227 -178 -383l-25 -23q-100 -2 -233 -12zM461 580q150 0 321 6l-53 518zM698 1427 q109 176 174 306l23 16q127 0 280 10q-153 -149 -280 -315l-27 -15q-57 0 -170 -2z" />
<glyph unicode="&#xc2;" horiz-adv-x="1161" d="M-61 -10q279 528 358 684q193 371 332 663l26 21q158 6 283 14l16 -20q14 -219 62 -656q39 -356 76 -663l-31 -29l-219 -10l-17 22q-8 133 -26 400q-199 -2 -424 -8q-109 -227 -178 -383l-25 -23q-100 -2 -233 -12zM461 580q150 0 321 6l-53 518zM503 1398 q86 104 230 302l24 20q76 2 240 8l18 -16q31 -86 86 -258l-18 -37h-86q-31 0 -94 -4l-17 16q-10 41 -43 144q-45 -49 -125 -150l-26 -20q-92 2 -189 -5z" />
<glyph unicode="&#xc3;" horiz-adv-x="1161" d="M-61 -10q279 528 358 684q193 371 332 663l26 21q158 6 283 14l16 -20q14 -219 62 -656q39 -356 76 -663l-31 -29l-219 -10l-17 22q-8 133 -26 400q-199 -2 -424 -8q-109 -227 -178 -383l-25 -23q-100 -2 -233 -12zM461 580q150 0 321 6l-53 518zM510 1433q20 80 32 133 q20 39 86 68q59 27 103 26q53 0 137 -36.5t121 -36.5q59 0 145 88l43 -13q-15 -59 -35 -141q-113 -88 -190 -88q-53 0 -132 36t-118 36q-61 0 -153 -90z" />
<glyph unicode="&#xc4;" horiz-adv-x="1161" d="M-61 -10q279 528 358 684q193 371 332 663l26 21q158 6 283 14l16 -20q14 -219 62 -656q39 -356 76 -663l-31 -29l-219 -10l-17 22q-8 133 -26 400q-199 -2 -424 -8q-109 -227 -178 -383l-25 -23q-100 -2 -233 -12zM461 580q150 0 321 6l-53 518zM540 1464q23 63 68 224 q76 2 270 12l-127 -191l-30 -22q-47 -6 -181 -23zM901 1464q23 63 67 224q76 2 271 12l-127 -191l-29 -22q-47 -6 -182 -23z" />
<glyph unicode="&#xc5;" horiz-adv-x="1161" d="M-61 -10q279 528 358 684q193 371 332 663l26 21q158 6 283 14l16 -20q14 -219 62 -656q39 -356 76 -663l-31 -29l-219 -10l-17 22q-8 133 -26 400q-199 -2 -424 -8q-109 -227 -178 -383l-25 -23q-100 -2 -233 -12zM461 580q150 0 321 6l-53 518zM600 1552q0 78 70 136 q76 68 197 67q88 0 135 -41t47 -100q0 -78 -68 -135q-77 -64 -200 -64q-88 0 -134.5 39t-46.5 98zM764 1569q0 -49 51 -49q33 0 52.5 23.5t19.5 51.5q0 54 -47 54q-33 0 -54.5 -24.5t-21.5 -55.5z" />
<glyph unicode="&#xc6;" horiz-adv-x="1601" d="M-111 -14q88 160 396 688q236 408 368 669l27 23h266q188 -2 256 -2q317 0 490 8q-16 -51 -47 -174l-19 -22q-82 0 -230.5 7t-224.5 7q-37 0 -79 -2q-6 -29 -78 -387q37 2 73 2q494 0 447 -2q-14 -51 -43 -174l-21 -23q-70 2 -245 10q-156 6 -246 7q-53 -276 -80 -428 q180 -4 576 6q-14 -61 -43 -172l-23 -25q-109 -2 -188 -2q-629 0 -596 0l-13 25q29 125 82 376q-174 -2 -336 -6q-66 -121 -196 -375l-23 -22q-123 -6 -250 -12zM455 573q139 0 274 7q68 338 119 610l-55 -2z" />
<glyph unicode="&#xc7;" horiz-adv-x="1167" d="M117 487q0 74 12 152q55 358 275.5 564t543.5 206q145 0 305 -63q-8 -78 -30 -242l-31 -21l-127 23l-16 104q-80 31 -136 31q-211 0 -358 -174q-135 -160 -174 -416q-10 -68 -10 -129q0 -174 82 -274q86 -106 247 -107q92 0 183 43q76 33 225 135q-45 -169 -61 -239 l-17 -19q-160 -82 -332 -94q-33 -74 -92 -211l-20 -24q-90 0 -238 -8q88 127 162 251q-190 35 -291.5 168t-101.5 344z" />
<glyph unicode="&#xc8;" horiz-adv-x="1024" d="M68 -8q98 414 161 782q6 31 43 283q25 170 54 278l20 21q256 0 766 8q-16 -57 -49 -172l-19 -23q-61 0 -239 9q-143 6 -240 6h-16q-37 -174 -78 -379h12q158 -2 473 0q-23 -78 -45 -170l-18 -23q-59 2 -215 9q-133 4 -213 4h-29q-43 -211 -84 -445q63 0 172 -2 q125 -2 174 -2q106 0 189 6q-18 -76 -39 -168l-27 -20q-68 -2 -133 -2q-625 0 -620 0zM514 1747l260 -6l19 -14q4 -61 39 -279l-31 -26q-70 2 -137 -5q-12 16 -56 121q-29 68 -94 209z" />
<glyph unicode="&#xc9;" horiz-adv-x="1024" d="M68 -8q98 414 161 782q6 31 43 283q25 170 54 278l20 21q256 0 766 8q-16 -57 -49 -172l-19 -23q-61 0 -239 9q-143 6 -240 6h-16q-37 -174 -78 -379h12q158 -2 473 0q-23 -78 -45 -170l-18 -23q-59 2 -215 9q-133 4 -213 4h-29q-43 -211 -84 -445q63 0 172 -2 q125 -2 174 -2q106 0 189 6q-18 -76 -39 -168l-27 -20q-68 -2 -133 -2q-625 0 -620 0zM629 1411q109 176 174 306l23 16q127 0 280 10q-153 -149 -280 -315l-27 -15q-57 0 -170 -2z" />
<glyph unicode="&#xca;" horiz-adv-x="1024" d="M68 -8q98 414 161 782q6 31 43 283q25 170 54 278l20 21q256 0 766 8q-16 -57 -49 -172l-19 -23q-61 0 -239 9q-143 6 -240 6h-16q-37 -174 -78 -379h12q158 -2 473 0q-23 -78 -45 -170l-18 -23q-59 2 -215 9q-133 4 -213 4h-29q-43 -211 -84 -445q63 0 172 -2 q125 -2 174 -2q106 0 189 6q-18 -76 -39 -168l-27 -20q-68 -2 -133 -2q-625 0 -620 0zM440 1417q86 104 230 302l24 20q76 2 240 8l18 -16q31 -86 86 -258l-18 -37h-86q-31 0 -94 -4l-17 16q-10 41 -43 144q-45 -49 -125 -150l-26 -20q-92 2 -189 -5z" />
<glyph unicode="&#xcb;" horiz-adv-x="1024" d="M68 -8q98 414 161 782q6 31 43 283q25 170 54 278l20 21q256 0 766 8q-16 -57 -49 -172l-19 -23q-61 0 -239 9q-143 6 -240 6h-16q-37 -174 -78 -379h12q158 -2 473 0q-23 -78 -45 -170l-18 -23q-59 2 -215 9q-133 4 -213 4h-29q-43 -211 -84 -445q63 0 172 -2 q125 -2 174 -2q106 0 189 6q-18 -76 -39 -168l-27 -20q-68 -2 -133 -2q-625 0 -620 0zM479 1466q23 63 68 224q76 2 270 12l-127 -191l-30 -22q-47 -6 -181 -23zM840 1466q23 63 67 224q76 2 271 12l-127 -191l-29 -22q-47 -6 -182 -23z" />
<glyph unicode="&#xcc;" horiz-adv-x="514" d="M92 -6q125 561 230 1192l-117 -2l67 157l33 21q102 0 299 8q-166 -733 -254 -1364q-111 -4 -258 -12zM299 1757l260 -6l19 -14q4 -61 39 -279l-31 -26q-70 2 -137 -5q-12 16 -56 121q-29 68 -94 209z" />
<glyph unicode="&#xcd;" horiz-adv-x="514" d="M92 -6q125 561 230 1192l-117 -2l67 157l33 21q102 0 299 8q-166 -733 -254 -1364q-111 -4 -258 -12zM358 1443q109 176 174 306l23 16q127 0 280 10q-153 -149 -280 -315l-27 -15q-57 0 -170 -2z" />
<glyph unicode="&#xce;" horiz-adv-x="514" d="M92 -6q125 561 230 1192l-117 -2l67 157l33 21q102 0 299 8q-166 -733 -254 -1364q-111 -4 -258 -12zM167 1415q86 104 230 302l24 20q76 2 240 8l18 -16q31 -86 86 -258l-18 -37h-86q-31 0 -94 -4l-17 16q-10 41 -43 144q-45 -49 -125 -150l-26 -20q-92 2 -189 -5z" />
<glyph unicode="&#xcf;" horiz-adv-x="514" d="M92 -6q125 561 230 1192l-117 -2l67 157l33 21q102 0 299 8q-166 -733 -254 -1364q-111 -4 -258 -12zM190 1472q23 63 68 224q76 2 270 12l-127 -191l-30 -22q-47 -6 -181 -23zM551 1472q23 63 67 224q76 2 271 12l-127 -191l-29 -22q-47 -6 -182 -23z" />
<glyph unicode="&#xd1;" horiz-adv-x="1345" d="M68 -8q98 434 186 946q25 129 68 403l32 23q59 -2 244 10l25 -20q6 -16 362 -1024q57 330 164 1007l22 21q84 2 213 12q-178 -868 -260 -1364q-104 -2 -262 -12l-18 20q-70 203 -189 521q-139 371 -186 507q-57 -326 -164 -1017l-22 -21q-96 -2 -215 -12zM432 1561 q143 164 289 164q82 0 198.5 -59.5t165.5 -59.5q59 0 207 141l49 -149q-162 -156 -297 -156q-80 0 -187.5 59.5t-166.5 59.5q-45 0 -115 -60l-90 -90z" />
<glyph unicode="&#xd2;" horiz-adv-x="1402" d="M111 492q0 76 14 159q51 338 246 543q207 217 518 217q236 0 360 -143q119 -133 119 -371q0 -76 -12 -158q-53 -342 -244 -546q-205 -218 -516 -218q-238 0 -365 144q-121 135 -120 373zM371 508q0 -354 266 -354q233 0 369 266q113 217 112 477q0 338 -266 338 q-201 0 -324 -170q-106 -145 -143 -397q-14 -86 -14 -160zM690 1794l260 -6l19 -14q4 -61 39 -279l-31 -26q-70 2 -137 -5q-12 16 -56 121q-29 68 -94 209z" />
<glyph unicode="&#xd3;" horiz-adv-x="1402" d="M111 492q0 76 14 159q51 338 246 543q207 217 518 217q236 0 360 -143q119 -133 119 -371q0 -76 -12 -158q-53 -342 -244 -546q-205 -218 -516 -218q-238 0 -365 144q-121 135 -120 373zM371 508q0 -354 266 -354q233 0 369 266q113 217 112 477q0 338 -266 338 q-201 0 -324 -170q-106 -145 -143 -397q-14 -86 -14 -160zM787 1458q109 176 174 306l23 16q127 0 280 10q-153 -149 -280 -315l-27 -15q-57 0 -170 -2z" />
<glyph unicode="&#xd4;" horiz-adv-x="1402" d="M111 492q0 76 14 159q51 338 246 543q207 217 518 217q236 0 360 -143q119 -133 119 -371q0 -76 -12 -158q-53 -342 -244 -546q-205 -218 -516 -218q-238 0 -365 144q-121 135 -120 373zM371 508q0 -354 266 -354q233 0 369 266q113 217 112 477q0 338 -266 338 q-201 0 -324 -170q-106 -145 -143 -397q-14 -86 -14 -160zM589 1458q86 104 230 302l24 20q76 2 240 8l18 -16q31 -86 86 -258l-18 -37h-86q-31 0 -94 -4l-17 16q-10 41 -43 144q-45 -49 -125 -150l-26 -20q-92 2 -189 -5z" />
<glyph unicode="&#xd5;" horiz-adv-x="1402" d="M111 492q0 76 14 159q51 338 246 543q207 217 518 217q236 0 360 -143q119 -133 119 -371q0 -76 -12 -158q-53 -342 -244 -546q-205 -218 -516 -218q-238 0 -365 144q-121 135 -120 373zM371 508q0 -354 266 -354q233 0 369 266q113 217 112 477q0 338 -266 338 q-201 0 -324 -170q-106 -145 -143 -397q-14 -86 -14 -160zM580 1476q20 80 32 133q20 39 86 68q59 27 103 26q53 0 137 -36.5t121 -36.5q59 0 145 88l43 -13q-15 -59 -35 -141q-113 -88 -190 -88q-53 0 -132 36t-118 36q-61 0 -153 -90z" />
<glyph unicode="&#xd6;" horiz-adv-x="1402" d="M111 492q0 76 14 159q51 338 246 543q207 217 518 217q236 0 360 -143q119 -133 119 -371q0 -76 -12 -158q-53 -342 -244 -546q-205 -218 -516 -218q-238 0 -365 144q-121 135 -120 373zM371 508q0 -354 266 -354q233 0 369 266q113 217 112 477q0 338 -266 338 q-201 0 -324 -170q-106 -145 -143 -397q-14 -86 -14 -160zM620 1466q23 63 68 224q76 2 270 12l-127 -191l-30 -22q-47 -6 -181 -23zM981 1466q23 63 67 224q76 2 271 12l-127 -191l-29 -22q-47 -6 -182 -23z" />
<glyph unicode="&#xd8;" horiz-adv-x="1402" d="M-53 59q82 59 196 164q-37 121 -37 238q0 68 13 145q55 346 248 559q209 233 524 234q246 0 387 -160q92 82 164 152h37l59 -78l-4 -29l-195 -162q31 -106 31 -235q0 -352 -188 -617q-217 -305 -586 -305q-244 0 -381 144q-94 -84 -156 -148h-36q-25 33 -76 98zM358 416 l742 663q-84 152 -240 152q-197 0 -332 -193q-115 -164 -155 -413q-14 -94 -15 -209zM391 270q86 -135 236 -135q203 0 336 195q111 164 153 424q10 68 12 174z" />
<glyph unicode="&#xd9;" horiz-adv-x="1331" d="M154 319q0 47 12 121q20 129 70.5 382t70.5 382q10 68 17 135l34 21q82 0 240 10q-23 -100 -152 -747q-37 -188 -36 -256q0 -215 215 -215q197 0 288 165q47 88 91.5 319.5t123.5 725.5q72 2 228 14q-51 -235 -164 -839q-51 -279 -182 -408q-162 -156 -439 -156 q-176 0 -286 74q-133 90 -131 272zM667 1700l260 -6l19 -14q4 -61 39 -279l-31 -26q-70 2 -137 -5q-12 16 -56 121q-29 68 -94 209z" />
<glyph unicode="&#xda;" horiz-adv-x="1331" d="M154 319q0 47 12 121q20 129 70.5 382t70.5 382q10 68 17 135l34 21q82 0 240 10q-23 -100 -152 -747q-37 -188 -36 -256q0 -215 215 -215q197 0 288 165q47 88 91.5 319.5t123.5 725.5q72 2 228 14q-51 -235 -164 -839q-51 -279 -182 -408q-162 -156 -439 -156 q-176 0 -286 74q-133 90 -131 272zM727 1398q109 176 174 306l23 16q127 0 280 10q-153 -149 -280 -315l-27 -15q-57 0 -170 -2z" />
<glyph unicode="&#xdb;" horiz-adv-x="1331" d="M154 319q0 47 12 121q20 129 70.5 382t70.5 382q10 68 17 135l34 21q82 0 240 10q-23 -100 -152 -747q-37 -188 -36 -256q0 -215 215 -215q197 0 288 165q47 88 91.5 319.5t123.5 725.5q72 2 228 14q-51 -235 -164 -839q-51 -279 -182 -408q-162 -156 -439 -156 q-176 0 -286 74q-133 90 -131 272zM569 1421q86 104 230 302l24 20q76 2 240 8l18 -16q31 -86 86 -258l-18 -37h-86q-31 0 -94 -4l-17 16q-10 41 -43 144q-45 -49 -125 -150l-26 -20q-92 2 -189 -5z" />
<glyph unicode="&#xdc;" horiz-adv-x="1331" d="M154 319q0 47 12 121q20 129 70.5 382t70.5 382q10 68 17 135l34 21q82 0 240 10q-23 -100 -152 -747q-37 -188 -36 -256q0 -215 215 -215q197 0 288 165q47 88 91.5 319.5t123.5 725.5q72 2 228 14q-51 -235 -164 -839q-51 -279 -182 -408q-162 -156 -439 -156 q-176 0 -286 74q-133 90 -131 272zM602 1466q23 63 68 224q76 2 270 12l-127 -191l-30 -22q-47 -6 -181 -23zM963 1466q23 63 67 224q76 2 271 12l-127 -191l-29 -22q-47 -6 -182 -23z" />
<glyph unicode="&#xdf;" horiz-adv-x="1093" d="M41 -18q53 225 211 1038q33 180 74 260q61 123 198 195q113 61 254 61q129 0 211 -57q94 -68 94 -193q0 -29 -4 -59q-23 -141 -166 -279q-37 -33 -71 -67q-53 -51 -58 -74q-6 -39 56 -105q104 -113 118 -131q68 -90 68 -186q0 -25 -4 -49q-27 -168 -160 -264 q-118 -86 -274 -86q-78 0 -178 32l-9 19l29 145l33 19q82 -47 145 -47q66 0 117 34q59 41 70 109q12 76 -56 164q-63 74 -127 145q-70 84 -59 142q6 37 76 108q102 104 129 139q74 94 90 189q4 27 4 51q0 139 -119 139q-113 0 -176 -94q-41 -61 -70 -186q-2 -6 -32 -156 q-121 -590 -166 -942q-133 -4 -248 -14z" />
<glyph unicode="&#xe0;" d="M78 342q0 45 6 94q41 285 235 443q180 147 437 147q145 0 200 -33q63 -37 64 -114q0 -20 -4 -50q-29 -147 -76 -399q-25 -131 -70 -405l-18 -39q-61 4 -101 27.5t-81 49.5q-147 -88 -264 -88q-158 0 -246 105q-82 98 -82 262zM313 371q0 -209 166 -209q94 0 197 80 q35 184 102 553q4 16 -11 37.5t-42 21.5q-160 10 -268.5 -99.5t-137.5 -308.5q-6 -41 -6 -75zM477 1458l260 -6l19 -14q4 -61 39 -279l-31 -26q-70 2 -137 -5q-12 16 -56 121q-29 68 -94 209z" />
<glyph unicode="&#xe1;" d="M78 342q0 45 6 94q41 285 235 443q180 147 437 147q145 0 200 -33q63 -37 64 -114q0 -20 -4 -50q-29 -147 -76 -399q-25 -131 -70 -405l-18 -39q-61 4 -101 27.5t-81 49.5q-147 -88 -264 -88q-158 0 -246 105q-82 98 -82 262zM313 371q0 -209 166 -209q94 0 197 80 q35 184 102 553q4 16 -11 37.5t-42 21.5q-160 10 -268.5 -99.5t-137.5 -308.5q-6 -41 -6 -75zM594 1128q109 176 174 306l23 16q127 0 280 10q-153 -149 -280 -315l-27 -15q-57 0 -170 -2z" />
<glyph unicode="&#xe2;" d="M78 342q0 45 6 94q41 285 235 443q180 147 437 147q145 0 200 -33q63 -37 64 -114q0 -20 -4 -50q-29 -147 -76 -399q-25 -131 -70 -405l-18 -39q-61 4 -101 27.5t-81 49.5q-147 -88 -264 -88q-158 0 -246 105q-82 98 -82 262zM313 371q0 -209 166 -209q94 0 197 80 q35 184 102 553q4 16 -11 37.5t-42 21.5q-160 10 -268.5 -99.5t-137.5 -308.5q-6 -41 -6 -75zM391 1128q86 104 230 302l24 20q76 2 240 8l18 -16q31 -86 86 -258l-18 -37h-86q-31 0 -94 -4l-17 16q-10 41 -43 144q-45 -49 -125 -150l-26 -20q-92 2 -189 -5z" />
<glyph unicode="&#xe3;" d="M78 342q0 45 6 94q41 285 235 443q180 147 437 147q145 0 200 -33q63 -37 64 -114q0 -20 -4 -50q-29 -147 -76 -399q-25 -131 -70 -405l-18 -39q-61 4 -101 27.5t-81 49.5q-147 -88 -264 -88q-158 0 -246 105q-82 98 -82 262zM313 371q0 -209 166 -209q94 0 197 80 q35 184 102 553q4 16 -11 37.5t-42 21.5q-160 10 -268.5 -99.5t-137.5 -308.5q-6 -41 -6 -75zM402 1157q20 80 32 133q20 39 86 68q59 27 103 26q53 0 137 -36.5t121 -36.5q59 0 145 88l43 -13q-15 -59 -35 -141q-113 -88 -190 -88q-53 0 -132 36t-118 36q-61 0 -153 -90z " />
<glyph unicode="&#xe4;" d="M78 342q0 45 6 94q41 285 235 443q180 147 437 147q145 0 200 -33q63 -37 64 -114q0 -20 -4 -50q-29 -147 -76 -399q-25 -131 -70 -405l-18 -39q-61 4 -101 27.5t-81 49.5q-147 -88 -264 -88q-158 0 -246 105q-82 98 -82 262zM313 371q0 -209 166 -209q94 0 197 80 q35 184 102 553q4 16 -11 37.5t-42 21.5q-160 10 -268.5 -99.5t-137.5 -308.5q-6 -41 -6 -75zM422 1212q23 63 68 224q76 2 270 12l-127 -191l-30 -22q-47 -6 -181 -23zM783 1212q23 63 67 224q76 2 271 12l-127 -191l-29 -22q-47 -6 -182 -23z" />
<glyph unicode="&#xe5;" d="M78 342q0 45 6 94q41 285 235 443q180 147 437 147q145 0 200 -33q63 -37 64 -114q0 -20 -4 -50q-29 -147 -76 -399q-25 -131 -70 -405l-18 -39q-61 4 -101 27.5t-81 49.5q-147 -88 -264 -88q-158 0 -246 105q-82 98 -82 262zM313 371q0 -209 166 -209q94 0 197 80 q35 184 102 553q4 16 -11 37.5t-42 21.5q-160 10 -268.5 -99.5t-137.5 -308.5q-6 -41 -6 -75zM524 1271q0 78 70 136q76 68 197 67q88 0 135 -41t47 -100q0 -78 -68 -135q-77 -64 -200 -64q-88 0 -134.5 39t-46.5 98zM688 1288q0 -49 51 -49q33 0 52.5 23.5t19.5 51.5 q0 54 -47 54q-33 0 -54.5 -24.5t-21.5 -55.5z" />
<glyph unicode="&#xe6;" horiz-adv-x="1599" d="M20 215q0 27 5 55q35 209 258 293q141 55 401 64q14 76 14 110q0 115 -129 115q-117 0 -315 -90l-35 20q23 76 37 152l23 18q225 74 370 74q158 0 242 -119q176 131 350 131q162 0 250 -96q80 -90 80 -233q-1 -63 -17 -129l-94 -58q-346 -45 -577 -61q-4 -39 -4 -74 q0 -238 213 -237q139 0 327 124l41 -18q-29 -96 -49 -174l-16 -19q-170 -94 -363 -94q-209 0 -325 131q-188 -143 -379 -143q-127 0 -211 63q-96 70 -97 195zM266 254q0 -111 131 -111q113 0 248 115q-6 80 8 195q-358 -4 -385 -168q-2 -16 -2 -31zM915 633q236 20 414 41 q4 104 -22 149q-33 51 -119 51q-150 0 -273 -241z" />
<glyph unicode="&#xe7;" horiz-adv-x="845" d="M70 356q0 250 170 455q188 225 462 225q131 0 238 -45q-27 -96 -43 -166l-39 -20q-78 57 -162 57q-168 0 -282 -160q-106 -143 -107 -313q0 -109 51 -174q55 -72 158 -72q111 0 299 142q-41 -162 -55 -228q-90 -68 -240 -86q-35 -78 -96 -219l-23 -24q-88 0 -235 -9 q90 127 168 261q-131 33 -201 139q-63 98 -63 237z" />
<glyph unicode="&#xe8;" horiz-adv-x="991" d="M88 358q0 47 6 99q37 250 182 413q162 182 394 183q150 0 243 -87t115 -247q-33 -42 -96 -103q-201 -55 -600 -157q-2 -29 -2 -56q0 -254 225 -253q84 0 158.5 34.5t204.5 128.5q-41 -139 -62 -235q-55 -49 -182 -80q-98 -23 -174 -23q-190 0 -301 99.5t-111 283.5z M362 643l418 102q-59 150 -147 150q-156 0 -271 -252zM477 1458l260 -6l19 -14q4 -61 39 -279l-31 -26q-70 2 -137 -5q-12 16 -56 121q-29 68 -94 209z" />
<glyph unicode="&#xe9;" horiz-adv-x="991" d="M88 358q0 47 6 99q37 250 182 413q162 182 394 183q150 0 243 -87t115 -247q-33 -42 -96 -103q-201 -55 -600 -157q-2 -29 -2 -56q0 -254 225 -253q84 0 158.5 34.5t204.5 128.5q-41 -139 -62 -235q-55 -49 -182 -80q-98 -23 -174 -23q-190 0 -301 99.5t-111 283.5z M362 643l418 102q-59 150 -147 150q-156 0 -271 -252zM594 1128q109 176 174 306l23 16q127 0 280 10q-153 -149 -280 -315l-27 -15q-57 0 -170 -2z" />
<glyph unicode="&#xea;" horiz-adv-x="991" d="M88 358q0 47 6 99q37 250 182 413q162 182 394 183q150 0 243 -87t115 -247q-33 -42 -96 -103q-201 -55 -600 -157q-2 -29 -2 -56q0 -254 225 -253q84 0 158.5 34.5t204.5 128.5q-41 -139 -62 -235q-55 -49 -182 -80q-98 -23 -174 -23q-190 0 -301 99.5t-111 283.5z M360 1128q86 104 230 302l24 20q76 2 240 8l18 -16q31 -86 86 -258l-18 -37h-86q-31 0 -94 -4l-17 16q-10 41 -43 144q-45 -49 -125 -150l-26 -20q-92 2 -189 -5zM362 643l418 102q-59 150 -147 150q-156 0 -271 -252z" />
<glyph unicode="&#xeb;" horiz-adv-x="991" d="M88 358q0 47 6 99q37 250 182 413q162 182 394 183q150 0 243 -87t115 -247q-33 -42 -96 -103q-201 -55 -600 -157q-2 -29 -2 -56q0 -254 225 -253q84 0 158.5 34.5t204.5 128.5q-41 -139 -62 -235q-55 -49 -182 -80q-98 -23 -174 -23q-190 0 -301 99.5t-111 283.5z M362 643l418 102q-59 150 -147 150q-156 0 -271 -252zM417 1212q23 63 68 224q76 2 270 12l-127 -191l-30 -22q-47 -6 -181 -23zM778 1212q23 63 67 224q76 2 271 12l-127 -191l-29 -22q-47 -6 -182 -23z" />
<glyph unicode="&#xec;" horiz-adv-x="466" d="M80 -10q92 362 156 766q16 100 26 223q115 23 240 51l26 -18q-129 -549 -192 -1006q-137 -6 -256 -16zM223 1458l260 -6l19 -14q4 -61 39 -279l-31 -26q-70 2 -137 -5q-12 16 -56 121q-29 68 -94 209z" />
<glyph unicode="&#xed;" horiz-adv-x="466" d="M80 -10q92 362 156 766q16 100 26 223q115 23 240 51l26 -18q-129 -549 -192 -1006q-137 -6 -256 -16zM293 1128q109 176 174 306l23 16q127 0 280 10q-153 -149 -280 -315l-27 -15q-57 0 -170 -2z" />
<glyph unicode="&#xee;" horiz-adv-x="466" d="M80 -10q92 362 156 766q16 100 26 223q115 23 240 51l26 -18q-129 -549 -192 -1006q-137 -6 -256 -16zM124 1128q86 104 230 302l24 20q76 2 240 8l18 -16q31 -86 86 -258l-18 -37h-86q-31 0 -94 -4l-17 16q-10 41 -43 144q-45 -49 -125 -150l-26 -20q-92 2 -189 -5z" />
<glyph unicode="&#xef;" horiz-adv-x="466" d="M80 -10q92 362 156 766q16 100 26 223q115 23 240 51l26 -18q-129 -549 -192 -1006q-137 -6 -256 -16zM166 1212q23 63 68 224q76 2 270 12l-127 -191l-30 -22q-47 -6 -181 -23zM527 1212q23 63 67 224q76 2 271 12l-127 -191l-29 -22q-47 -6 -182 -23z" />
<glyph unicode="&#xf1;" horiz-adv-x="1091" d="M68 -6q45 213 120 618q27 158 52 367q37 20 53 20q39 0 153 -49q162 88 365 88q240 0 240 -231q0 -39 -7 -84q-14 -86 -46.5 -254t-47 -256t-28.5 -201q-130 -6 -224 -14l-16 22q43 205 121 623q4 33 4 64q0 154 -111 153q-115 0 -247 -94q-84 -432 -127 -739l-23 -19 q-113 -4 -231 -14zM385 1157q20 80 32 133q20 39 86 68q59 27 103 26q53 0 137 -36.5t121 -36.5q59 0 145 88l43 -13q-15 -59 -35 -141q-113 -88 -190 -88q-53 0 -132 36t-118 36q-61 0 -153 -90z" />
<glyph unicode="&#xf2;" horiz-adv-x="1038" d="M80 350q0 53 8 111q37 262 188 413q158 160 404 160q180 0 276 -102q90 -96 91 -270q0 -53 -9 -111q-39 -264 -182 -416q-153 -162 -399 -162q-184 0 -280.5 99.5t-96.5 277.5zM313 360q0 -229 174 -229q254 0 312 391q10 70 10 125q0 227 -174 227q-252 0 -313 -428 q-8 -45 -9 -86zM477 1458l260 -6l19 -14q4 -61 39 -279l-31 -26q-70 2 -137 -5q-12 16 -56 121q-29 68 -94 209z" />
<glyph unicode="&#xf3;" horiz-adv-x="1038" d="M80 350q0 53 8 111q37 262 188 413q158 160 404 160q180 0 276 -102q90 -96 91 -270q0 -53 -9 -111q-39 -264 -182 -416q-153 -162 -399 -162q-184 0 -280.5 99.5t-96.5 277.5zM313 360q0 -229 174 -229q254 0 312 391q10 70 10 125q0 227 -174 227q-252 0 -313 -428 q-8 -45 -9 -86zM594 1128q109 176 174 306l23 16q127 0 280 10q-153 -149 -280 -315l-27 -15q-57 0 -170 -2z" />
<glyph unicode="&#xf4;" horiz-adv-x="1038" d="M80 350q0 53 8 111q37 262 188 413q158 160 404 160q180 0 276 -102q90 -96 91 -270q0 -53 -9 -111q-39 -264 -182 -416q-153 -162 -399 -162q-184 0 -280.5 99.5t-96.5 277.5zM313 360q0 -229 174 -229q254 0 312 391q10 70 10 125q0 227 -174 227q-252 0 -313 -428 q-8 -45 -9 -86zM360 1128q86 104 230 302l24 20q76 2 240 8l18 -16q31 -86 86 -258l-18 -37h-86q-31 0 -94 -4l-17 16q-10 41 -43 144q-45 -49 -125 -150l-26 -20q-92 2 -189 -5z" />
<glyph unicode="&#xf5;" horiz-adv-x="1038" d="M80 350q0 53 8 111q37 262 188 413q158 160 404 160q180 0 276 -102q90 -96 91 -270q0 -53 -9 -111q-39 -264 -182 -416q-153 -162 -399 -162q-184 0 -280.5 99.5t-96.5 277.5zM313 360q0 -229 174 -229q254 0 312 391q10 70 10 125q0 227 -174 227q-252 0 -313 -428 q-8 -45 -9 -86zM396 1157q20 80 32 133q20 39 86 68q59 27 103 26q53 0 137 -36.5t121 -36.5q59 0 145 88l43 -13q-15 -59 -35 -141q-113 -88 -190 -88q-53 0 -132 36t-118 36q-61 0 -153 -90z" />
<glyph unicode="&#xf6;" horiz-adv-x="1038" d="M80 350q0 53 8 111q37 262 188 413q158 160 404 160q180 0 276 -102q90 -96 91 -270q0 -53 -9 -111q-39 -264 -182 -416q-153 -162 -399 -162q-184 0 -280.5 99.5t-96.5 277.5zM313 360q0 -229 174 -229q254 0 312 391q10 70 10 125q0 227 -174 227q-252 0 -313 -428 q-8 -45 -9 -86zM422 1212q23 63 68 224q76 2 270 12l-127 -191l-30 -22q-47 -6 -181 -23zM783 1212q23 63 67 224q76 2 271 12l-127 -191l-29 -22q-47 -6 -182 -23z" />
<glyph unicode="&#xf7;" horiz-adv-x="1249" d="M25 465l34 164l1250 2l-35 -164zM487 244q0 53 42 97t106 44q98 0 98 -88q0 -53 -39 -94q-42 -47 -108 -47q-98 0 -99 88zM604 801q0 51 41 95t107 44q98 0 98 -88q0 -51 -42.5 -95t-105.5 -44q-98 0 -98 88z" />
<glyph unicode="&#xf8;" horiz-adv-x="1089" d="M-66 68l181 141q-20 137 2 276q39 250 198.5 399.5t391.5 149.5q172 0 288 -110q66 53 129 110h37q29 -43 53 -82l-10 -30q-51 -37 -149 -109q27 -127 4 -274q-43 -262 -189 -410q-154 -158 -397 -158q-188 0 -301 127q-70 -59 -133 -118h-41zM332 383l491 399 q-61 101 -149 101q-274 0 -342 -500zM342 236q49 -115 166 -115q285 0 332 520z" />
<glyph unicode="&#xf9;" horiz-adv-x="1087" d="M115 205q0 39 6 82q47 236 121 710l22 19q94 6 221 20l19 -20q-12 -74 -45 -197q-37 -135 -47 -188q-16 -86 -50 -262q-6 -35 -6 -66q0 -152 113 -151q96 0 244 104q25 115 69 342q33 180 64 399l20 19q27 2 234 20q-140 -658 -185 -1020l-28 -30q-55 8 -99 32 q-2 2 -79 58q-188 -102 -355 -103q-240 0 -239 232zM497 1458l260 -6l19 -14q4 -61 39 -279l-31 -26q-70 2 -137 -5q-12 16 -56 121q-29 68 -94 209z" />
<glyph unicode="&#xfa;" horiz-adv-x="1087" d="M115 205q0 39 6 82q47 236 121 710l22 19q94 6 221 20l19 -20q-12 -74 -45 -197q-37 -135 -47 -188q-16 -86 -50 -262q-6 -35 -6 -66q0 -152 113 -151q96 0 244 104q25 115 69 342q33 180 64 399l20 19q27 2 234 20q-140 -658 -185 -1020l-28 -30q-55 8 -99 32 q-2 2 -79 58q-188 -102 -355 -103q-240 0 -239 232zM594 1128q109 176 174 306l23 16q127 0 280 10q-153 -149 -280 -315l-27 -15q-57 0 -170 -2z" />
<glyph unicode="&#xfb;" horiz-adv-x="1087" d="M115 205q0 39 6 82q47 236 121 710l22 19q94 6 221 20l19 -20q-12 -74 -45 -197q-37 -135 -47 -188q-16 -86 -50 -262q-6 -35 -6 -66q0 -152 113 -151q96 0 244 104q25 115 69 342q33 180 64 399l20 19q27 2 234 20q-140 -658 -185 -1020l-28 -30q-55 8 -99 32 q-2 2 -79 58q-188 -102 -355 -103q-240 0 -239 232zM391 1128q86 104 230 302l24 20q76 2 240 8l18 -16q31 -86 86 -258l-18 -37h-86q-31 0 -94 -4l-17 16q-10 41 -43 144q-45 -49 -125 -150l-26 -20q-92 2 -189 -5z" />
<glyph unicode="&#xfc;" horiz-adv-x="1087" d="M115 205q0 39 6 82q47 236 121 710l22 19q94 6 221 20l19 -20q-12 -74 -45 -197q-37 -135 -47 -188q-16 -86 -50 -262q-6 -35 -6 -66q0 -152 113 -151q96 0 244 104q25 115 69 342q33 180 64 399l20 19q27 2 234 20q-140 -658 -185 -1020l-28 -30q-55 8 -99 32 q-2 2 -79 58q-188 -102 -355 -103q-240 0 -239 232zM432 1212q23 63 68 224q76 2 270 12l-127 -191l-30 -22q-47 -6 -181 -23zM793 1212q23 63 67 224q76 2 271 12l-127 -191l-29 -22q-47 -6 -182 -23z" />
<glyph unicode="&#xff;" horiz-adv-x="849" d="M12 -434q123 152 279 414q-10 82 -60 399q-31 195 -104 614q162 16 248 29l18 -21q18 -225 76 -688q113 225 330 688l26 19q86 2 219 8q-254 -446 -514 -950q-84 -156 -239 -477l-29 -23zM283 1184q23 96 34 188l29 27q88 0 209 8l16 -25q-18 -88 -34 -190l-23 -25 q-94 0 -219 -8zM696 1194q23 113 37 192l27 23h59q47 0 150 6l16 -22q-21 -101 -35 -193l-24 -22q-111 -2 -217 -7z" />
<glyph unicode="&#x152;" horiz-adv-x="1789" d="M90 473q0 78 16 170l7 37q96 539 581 666q129 33 457 32h192q41 0 164 -2q109 -2 166 -2q51 0 199 6q-16 -61 -49 -178l-25 -22q-412 8 -524 8q-41 -190 -78 -383q170 0 514 6q-12 -59 -41 -174l-24 -23q-35 0 -244 4q-147 2 -242 3q-43 -211 -82 -435h88q47 0 144.5 -2 t144.5 -2q76 0 172 6l16 -22q-23 -74 -36 -150l-25 -24q-74 0 -209 4q-145 4 -211 4q-84 0 -256 -5t-258 -5q-557 0 -557 483zM352 520q0 -195 101 -278q80 -66 268 -66q49 0 113 4q125 584 196 1010q-43 2 -74 2q-236 0 -360 -96q-106 -80 -175 -247t-69 -329z" />
<glyph unicode="&#x153;" horiz-adv-x="1714" d="M68 326q0 59 10 125q41 256 186 407q156 164 393 164q197 0 312 -158q188 172 377 172q113 0 188 -47q57 -35 103 -116.5t46 -161.5q0 -30 -18 -93l-92 -79l-584 -84q-10 -84 -6 -127q20 -178 217 -178q141 0 328 124l35 -26q-33 -109 -52 -172l-16 -17 q-172 -86 -344 -86q-215 0 -326 152q-188 -166 -395 -166q-362 0 -362 367zM309 340q0 -213 172 -213q236 0 301 405q10 72 11 125q0 197 -160 197q-250 0 -314 -397q-10 -66 -10 -117zM1022 627l430 61q-14 184 -147 184q-170 0 -283 -245z" />
<glyph unicode="&#x178;" horiz-adv-x="1013" d="M145 1362q57 4 258 22l25 -14q53 -195 160 -577q229 334 379 571l26 18q82 2 232 13q-199 -276 -572 -811q-55 -242 -100 -564l-23 -22q-125 0 -241 -8q80 338 114 573q-137 461 -258 799zM365 1491l38 188l21 25q113 0 240 6q-14 -61 -41 -213l-23 -22l-219 -5z M791 1501q23 113 34 185l25 24h102q20 0 56 2q45 2 63 2l19 -18q-19 -78 -39 -193l-25 -24q-92 4 -219 2z" />
<glyph unicode="&#x2c6;" horiz-adv-x="966" d="M360 1128q86 104 230 302l24 20q76 2 240 8l18 -16q31 -86 86 -258l-18 -37h-86q-31 0 -94 -4l-17 16q-10 41 -43 144q-45 -49 -125 -150l-26 -20q-92 2 -189 -5z" />
<glyph unicode="&#x2dc;" horiz-adv-x="638" d="M156 1157q20 80 32 133q20 39 86 68q59 27 103 26q53 0 137 -36.5t121 -36.5q59 0 145 88l43 -13q-15 -59 -35 -141q-113 -88 -190 -88q-53 0 -132 36t-118 36q-61 0 -153 -90z" />
<glyph unicode="&#x2000;" horiz-adv-x="897" />
<glyph unicode="&#x2001;" horiz-adv-x="1794" />
<glyph unicode="&#x2002;" horiz-adv-x="897" />
<glyph unicode="&#x2003;" horiz-adv-x="1794" />
<glyph unicode="&#x2004;" horiz-adv-x="598" />
<glyph unicode="&#x2005;" horiz-adv-x="448" />
<glyph unicode="&#x2006;" horiz-adv-x="299" />
<glyph unicode="&#x2007;" horiz-adv-x="299" />
<glyph unicode="&#x2008;" horiz-adv-x="224" />
<glyph unicode="&#x2009;" horiz-adv-x="358" />
<glyph unicode="&#x200a;" horiz-adv-x="99" />
<glyph unicode="&#x2010;" horiz-adv-x="837" d="M166 451q8 25 43 186l20 16q51 0 131 -2h121q199 0 363 11q-14 -66 -43 -203h-168q-262 0 -467 -8z" />
<glyph unicode="&#x2011;" horiz-adv-x="837" d="M166 451q8 25 43 186l20 16q51 0 131 -2h121q199 0 363 11q-14 -66 -43 -203h-168q-262 0 -467 -8z" />
<glyph unicode="&#x2012;" horiz-adv-x="837" d="M166 451q8 25 43 186l20 16q51 0 131 -2h121q199 0 363 11q-14 -66 -43 -203h-168q-262 0 -467 -8z" />
<glyph unicode="&#x2013;" horiz-adv-x="1171" d="M135 453q14 63 43 182l25 14q55 0 262 -2q156 -2 254 -2q223 0 436 10q-10 -32 -47 -194q-109 -2 -256 0q-203 2 -236 2q-203 0 -481 -10z" />
<glyph unicode="&#x2014;" horiz-adv-x="1363" d="M63 444q16 57 46 164q123 2 622 0q383 0 623 15q-14 -58 -43 -152l-19 -14q-168 -6 -614 -2q-387 2 -615 -11z" />
<glyph unicode="&#x2018;" horiz-adv-x="389" d="M127 965q129 211 281 505l20 21q86 4 178 12q-80 -176 -112 -258q-53 -130 -88 -239l-23 -21q-98 -4 -256 -20z" />
<glyph unicode="&#x2019;" horiz-adv-x="378" d="M131 965q147 336 201 499l20 21q131 8 256 20q-129 -215 -276 -506l-25 -20z" />
<glyph unicode="&#x201a;" horiz-adv-x="425" d="M-29 -303q139 311 203 500l21 20q90 2 249 14q-141 -245 -272 -505l-25 -21z" />
<glyph unicode="&#x201c;" horiz-adv-x="669" d="M109 954q180 309 280 512l21 19q84 4 178 12q-127 -283 -203 -502l-25 -18q-123 -6 -251 -23zM393 965q158 266 277 503l20 21l178 12q-137 -311 -200 -495l-19 -21q-135 -8 -256 -20z" />
<glyph unicode="&#x201d;" horiz-adv-x="702" d="M147 956q74 170 201 498l19 21q131 8 258 20q-152 -246 -279 -504l-24 -20zM428 963q125 281 203 501l24 19q121 6 250 22q-196 -342 -278 -512l-21 -18q-84 -4 -178 -12z" />
<glyph unicode="&#x201e;" horiz-adv-x="710" d="M-27 -311q74 168 201 495l19 21q131 8 258 20q-152 -246 -279 -504l-25 -20q-49 -2 -174 -12zM254 -307q127 289 203 502l24 18q92 6 250 23q-178 -309 -276 -510l-23 -19z" />
<glyph unicode="&#x2022;" horiz-adv-x="622" d="M195 653q0 104 81.5 182t188.5 78q86 0 137 -55t51 -137q0 -104 -82 -183t-186 -79q-86 0 -139 59q-51 53 -51 135z" />
<glyph unicode="&#x2026;" horiz-adv-x="1867" d="M156 41q0 47 41 87t106 40q96 0 96 -80q0 -47 -40.5 -87t-106.5 -40q-96 0 -96 80zM766 57q0 47 40 87t103 40q98 0 99 -78q0 -47 -41.5 -86.5t-102.5 -39.5q-98 0 -98 77zM1374 94q6 43 52.5 76t93.5 33q98 0 98 -78q0 -47 -40 -88t-101 -41q-49 0 -79 27.5t-24 70.5z " />
<glyph unicode="&#x202f;" horiz-adv-x="358" />
<glyph unicode="&#x2039;" horiz-adv-x="507" d="M113 524l2 17q80 109 239 358l27 16q49 0 194 3q-125 -164 -264 -375q39 -115 129 -387l-188 -4l-21 16q-39 143 -118 356z" />
<glyph unicode="&#x203a;" horiz-adv-x="503" d="M76 150q135 176 266 374q-2 4 -129 385q125 4 188 6l19 -16q31 -117 119 -354l-2 -17q-131 -192 -240 -360l-25 -16q-49 0 -196 -2z" />
<glyph unicode="&#x205f;" horiz-adv-x="448" />
<glyph unicode="&#x20ac;" horiz-adv-x="1167" d="M10 477l74 189h55q6 35 15 69h-103l74 191h92q102 229 297 356t447 127q143 0 288 -57l-69 -226l-111 82q-88 35 -145 35q-297 0 -453 -317h641l-76 -193l-633 2q-10 -34 -14 -69h637l-76 -191h-573q25 -326 325 -325q92 0 183 40q76 35 227 136q-47 -168 -63 -240 l-17 -16q-190 -96 -393 -97q-244 0 -379 133.5t-137 370.5h-113z" />
<glyph unicode="&#x2122;" horiz-adv-x="1265" d="M178 1272l17 80l471 8l-15 -76l-170 -6l-104 -545l-109 -2l105 545zM612 719l121 624l148 3l53 -494l242 500l147 2l-121 -625l-106 -2l102 496l-242 -498l-100 -2l-49 485l-90 -487z" />
<glyph unicode="&#x25fc;" horiz-adv-x="1034" d="M0 0v1034h1034v-1034h-1034z" />
</font>
</defs>
</svg>
