<?xml version="1.0" standalone="no"?>
<!DOCTYPE svg PUBLIC "-//W3C//DTD SVG 1.1//EN" "http://www.w3.org/Graphics/SVG/1.1/DTD/svg11.dtd" >
<svg xmlns="http://www.w3.org/2000/svg" xmlns:xlink="http://www.w3.org/1999/xlink" version="1.1">
<metadata></metadata>
<defs>
<font id="mellony_dry_brushitalic" horiz-adv-x="1478" >
<font-face units-per-em="2048" ascent="1638" descent="-410" />
<missing-glyph horiz-adv-x="411" />
<glyph horiz-adv-x="0" />
<glyph unicode="&#xd;" horiz-adv-x="411" />
<glyph horiz-adv-x="0" />
<glyph horiz-adv-x="0" />
<glyph unicode=" "  horiz-adv-x="411" />
<glyph unicode="&#x09;" horiz-adv-x="411" />
<glyph unicode="&#xa0;" horiz-adv-x="411" />
<glyph unicode="!" horiz-adv-x="475" d="M68 23q35 96 67.5 191t71.5 192q125 328 287 653q27 51 55.5 100t56.5 98q16 29 29.5 33t36.5 -10q10 -6 19 -13t16 -18q4 -4 2 -14t-7 -21q-25 -47 -51 -95t-49 -95q-104 -205 -197.5 -409.5t-173.5 -415.5q-16 -47 -32.5 -94.5t-30.5 -94.5q-8 -23 -10 -46t-6 -46 q-2 -27 -29 -24q-57 4 -57 59q0 33 6 67q-2 0 -2 1.5t-2 1.5zM20 -463q-31 2 -45 13.5t-18 41.5q-4 27 11.5 56.5t37.5 44.5q25 16 57.5 15t45.5 -19q10 -10 23 -18.5t3 -30.5q-10 -27 -24.5 -49.5t-36.5 -39.5q-10 -8 -25 -9t-29 -5zM659 1198l-4 4q-20 -35 -40.5 -70.5 t-36.5 -70.5q-123 -238 -228.5 -477.5t-189.5 -485.5l-17 -53l-6 -31q102 305 235 598t287 586zM381 764l2 -4q23 43 42 87t40 87q-2 0 -2 1t-2 1z" />
<glyph unicode="&#x22;" horiz-adv-x="448" d="M635 1165q8 4 14 10.5t10 4.5q12 -6 7.5 -14.5t-9.5 -16.5q-47 -70 -93 -137.5t-91 -134.5q-18 -29 -31.5 -61t-29.5 -62q-4 -8 -12.5 -18.5t-10.5 -8.5q-10 4 -25.5 11t-15.5 18q-4 18 0 40.5t12 43.5q39 92 93.5 178t117.5 172q12 16 36 18t34 -12q2 -4 -1 -12t-5 -15 q-10 -6 -12 -12l-172 -260l-13 -27q16 20 28.5 41t25.5 41zM340 1061l82 131q4 4 9 8t9 8l4 -12t0 -14q-2 -6 -6 -12.5t-8 -12.5q-37 -66 -75 -129t-72 -129q-14 -29 -20.5 -57.5t-14.5 -57.5q-4 -20 -9.5 -23t-21.5 5q-55 29 -37 88q12 41 26.5 79t33.5 77q27 53 56.5 103 t57.5 101q12 23 25.5 25t32.5 -10q18 -10 12 -19.5t-12 -19.5l-78 -127q4 0 6 -2z" />
<glyph unicode="#" horiz-adv-x="970" d="M842 770q20 33 39.5 65.5t36.5 65.5l38 68q4 6 11.5 13t11.5 5q14 -2 8 -10t-10 -14q-4 -10 -8 -17.5t-8 -17.5q-29 -51 -58 -101.5t-57 -99.5l8 -4q29 51 55.5 101t53.5 102l26 41q4 4 9.5 5t11.5 5q-2 -4 0 -9t-2 -10l-56 -92l-94 -176q-6 -10 -2 -22l10 16l144 264 l7 7t7 8q4 -6 10 -11.5t6 -13.5q0 -6 -4 -14.5t-8 -16.5l-121 -215q-10 -16 -7 -21t20 -9q25 -4 48 -11.5t46 -15.5q4 -2 10 -6t6 -8q4 -8 5 -16.5t3 -18.5q-8 -4 -16 -7.5t-16 -3.5q-35 0 -70 -1t-70 1q-23 0 -32 -20q-23 -47 -47.5 -94t-49.5 -94q-10 -16 -5 -20.5 t20 -6.5q53 0 98 -14.5t80 -53.5q6 -8 10 -19t10 -22l-6 -4q-23 6 -44 12.5t-44 8.5q-39 4 -78 5t-78 5q-14 0 -18 -7t-8 -18q-53 -111 -97.5 -220t-66.5 -224l-4 -16q-4 0 -8 1t-9 1q-41 2 -55 16t-18 55q-4 35 5 68t23 68q41 119 99 241q10 29 -17 23q-47 -8 -96 -14.5 t-96 -16.5q-14 -4 -23 -18q-45 -98 -85 -194.5t-64 -197.5q-6 -29 -14.5 -54t-16.5 -52q-2 -14 -18 -12q-20 2 -30.5 3t-16 6t-7.5 15t-2 29q-6 53 6.5 103.5t28.5 103.5q20 55 41 109.5t43 109.5q6 20 -14 18q-10 -4 -19.5 -5t-19.5 -3q-29 -4 -52.5 12.5t-21.5 44.5 q0 4 7 9.5t14 7.5q35 10 66.5 17t66.5 14q25 6 35 28l86 193q-10 -2 -16.5 -2h-12.5q-68 -12 -80 53l-4 10q-10 25 20 31q31 6 63 12t62 10q29 6 37 29q35 70 72 138.5t72 138.5q4 10 8 17t12 15q4 4 11 6.5t16 6.5q-2 -6 -2 -12.5t-4 -10.5q-4 -14 -10.5 -26.5t-10.5 -26.5 l29 49q4 6 11 14.5t11 8.5q12 -4 7 -12.5t-9 -16.5q0 -2 -4 -10q4 2 8 2q6 4 10.5 15t16.5 5q0 -8 -8 -28l-135 -250l-13 -27q2 0 4 -1t4 -1l160 297q18 -8 18.5 -20.5t-8.5 -28.5q-31 -53 -60.5 -107.5t-57.5 -107.5q-10 -20 -8 -24.5t24 -0.5q45 4 89 8t89 9q14 0 20.5 7 t10.5 17l141 264q4 8 9.5 15.5t11.5 13.5q4 4 11 5t13 5q0 -16 -4 -22l-98 -178l-8 -19q-14 -23 -26.5 -47.5t-27.5 -46.5q4 0 5.5 -1t3.5 -1q12 23 23.5 47t21.5 47zM362 315q6 0 10.5 -1t8.5 -1q49 6 99 11.5t98 13.5q6 0 13 6t9 12q25 47 46.5 92.5t43.5 90.5q6 14 5 21 t-17 3l-191 -28q-6 -2 -13 -6.5t-11 -8.5zM492 -160q10 35 18 70t20 70t26.5 68.5t31.5 68.5q12 35 27.5 67.5t29.5 65.5q-14 -18 -43 -75.5t-55.5 -124t-43.5 -126t-11 -84.5zM119 -252q23 117 66.5 228.5t88.5 224.5q-53 -111 -96 -223.5t-59 -229.5zM807 569l-12 4 q-29 -57 -56.5 -113.5t-56.5 -111.5l10 -4q29 57 57.5 113.5t57.5 111.5zM319 309q2 0 3.5 -1t5.5 -1l100 211q-4 0 -6 1t-4 1zM492 35q-2 2 -7 2q-8 -25 -15 -48.5t-15 -47.5h4zM518 25q-4 0 -8 2q-6 -23 -13.5 -46.5t-15.5 -46.5h4q10 23 17.5 45.5t15.5 45.5zM756 537 q-2 2 -6 2q-16 -29 -29 -58q2 -2 4 -2z" />
<glyph unicode="$" horiz-adv-x="862" d="M180 -467q-8 12 -10 12q-10 0 -17.5 -1t-15.5 -1q4 10 5 21.5t5 21.5q10 45 27 80q10 27 -18 33q-43 10 -81 29.5t-65 54.5q-27 33 -33 69.5t13 84.5q20 61 50 119.5t75 111.5q39 53 96 76q20 10 34.5 6t28.5 -14q2 0 2 -5.5t-4 -9.5q-6 -12 -14 -24.5t-18 -22.5 q-55 -66 -90 -136.5t-44 -148.5q-4 -45 14.5 -76.5t61.5 -45.5q25 -10 37 18q29 72 56.5 141.5t56.5 139.5q41 92 76.5 180t76.5 178q16 33 13.5 58.5t-4.5 54.5q-10 86 -13.5 168.5t25.5 173.5q12 47 37 90q86 135 215 223q12 8 24.5 14t26.5 11q18 4 28.5 15t18.5 28 q16 29 32.5 55t33.5 55q8 23 30 14q29 -14 34 -28.5t-11 -46.5q-6 -14 -13.5 -27.5t-13.5 -28.5q-20 -27 8 -34q27 -10 52.5 -23.5t46.5 -30.5q16 -12 26.5 -32.5t20.5 -38.5q2 -4 0 -11.5t-4 -13.5q-16 0 -21 2q-10 8 -19 15.5t-18 17.5q-23 35 -59.5 40t-79.5 -5 q-16 -4 -22.5 -15.5t-10.5 -21.5l-161 -352q-39 -82 -76 -170q-10 -23 -6 -45q10 -68 19 -134.5t18 -134.5q10 -84 5 -167t-32 -171q-14 -47 -42 -89t-66 -72.5t-82 -51t-93 -24.5q-23 -2 -42 -3t-42 -1q-25 2 -30 -23l-39 -94q-4 -10 -8.5 -18.5t-10.5 -18.5zM516 311 l-14 -18l-213 -504q-10 -20 -7 -23.5t21 3.5q125 39 172 159q35 98 42 191.5t-1 191.5zM733 997q-29 -25 -52.5 -59.5t-38.5 -71.5t-22.5 -73.5t-3.5 -67.5zM635 940l141 164q-47 -33 -80.5 -75t-60.5 -89zM143 94q-12 -16 -25.5 -38.5t-22.5 -46t-14 -44t-5 -33.5zM600 -27 l-59 -135q55 55 59 135zM600 1004l4 -7l62 76l-7 4zM647 1014q4 0 4 -4q12 14 24.5 27.5t22.5 27.5l-6 4zM496 -102q2 -2 8 -2l26 69h-6zM526 -115q2 -2 9 -2q10 31 24 60q-4 0 -6 2zM14 -63q2 -2 6 -3q6 16 13.5 35t11.5 35q-2 0 -3 1t-3 1q-4 -18 -11.5 -35.5t-13.5 -33.5 z" />
<glyph unicode="%" horiz-adv-x="854" d="M190 -41l207 160l25 20q29 25 47 27t43 -19l2 -2q23 -10 24 -16t-22 -31q-23 -23 -39 -49q-12 -16 4 -18q66 -16 90.5 -54t14.5 -110q-6 -39 -17.5 -77t-29.5 -75q-20 -39 -49 -65.5t-72 -34.5q-53 -10 -93 2t-65 55q-18 39 -17 82t15 90q8 25 17.5 50.5t19.5 54.5 q-10 -6 -16.5 -11.5t-12.5 -9.5l-200 -178q-12 -10 -29 -17t-33 -8t-30.5 2t-22.5 13q-4 4 -3 13t5 16q20 35 39.5 71.5t42.5 71.5q141 229 285.5 454.5t308.5 446.5q66 92 137.5 179t140.5 175l33 45q-35 -10 -63.5 -16t-57.5 -12q-35 -8 -69.5 -16.5t-69.5 -12.5 q-25 -6 -27 -29q-2 -66 -34.5 -120t-86.5 -101q-31 -29 -66.5 -38t-67 -2t-54 31t-29.5 60q-6 41 6.5 81t40.5 79q29 39 63 71t75 56q102 66 166 -16q2 -4 10 -7t14 -1q82 23 163 44t163 48q35 10 62.5 -8.5t35.5 -42.5q2 -6 -5 -16.5t-13 -18.5l-183 -219 q-135 -164 -256.5 -332t-234.5 -342q-57 -86 -112.5 -172t-110.5 -172l-13 -25zM492 -160h-7q2 10 4.5 18.5t4.5 18.5q4 29 2 54.5t-17 48.5q-10 14 -24.5 14t-22.5 -17q-33 -55 -55.5 -112.5t-30.5 -116.5q-2 -16 1 -32.5t7 -32.5q8 -51 52 -9q10 10 21 23.5t17 28.5 q14 29 25 57t23 57zM578 1190q-109 -68 -168 -172q-14 -27 -21 -66q-12 -57 47 -24q66 37 106 108.5t36 153.5zM547 571q123 172 252 336t264 330q-141 -160 -270 -325t-246 -341zM324 -201q16 45 34.5 89t36.5 87q-29 -41 -48 -85t-23 -91zM557 -143q-14 -39 -25.5 -72 t-21.5 -66q23 31 33 65t14 73zM481 475q12 18 25.5 36.5t28.5 37.5l-9 4l-47 -76l-45 -63q2 0 3 -1t3 -1q21 28 41 63zM494 1161l-5 6l-81 -90q2 0 6 -4zM549 956q4 0 5 -1t3 -1l35 52q-2 0 -3 1t-3 1q-10 -12 -18.5 -26t-18.5 -26z" />
<glyph unicode="&#x26;" horiz-adv-x="960" d="M297 -627q10 4 17.5 6.5t17.5 4.5q53 10 96 40.5t78 73.5q47 59 78.5 123t54.5 131q23 76 33 149.5t2 145.5l-4 31l-6 10q-8 -16 -13.5 -31.5t-9.5 -29.5q-35 -92 -93.5 -167t-150.5 -128q-188 -104 -342 -11q-33 18 -45 50t-20 69q-14 72 6 140.5t67 134.5 q45 63 99.5 117.5t111.5 103.5q53 45 107.5 88t107.5 86q16 12 18.5 22.5t-3.5 22.5q-23 47 -39 95t-23 102q-14 111 16.5 215t102.5 209q41 61 94.5 111t120.5 85q68 35 133.5 38t116.5 -23.5t82 -79t29 -127.5q-4 -104 -48.5 -197.5t-117.5 -181.5q-70 -80 -148 -150.5 t-157 -136.5q-27 -18 -17 -43q33 -74 64.5 -146.5t60.5 -148.5q27 -84 34 -173t-22 -187q-27 -100 -70.5 -192.5t-125.5 -172.5q-59 -59 -126 -80.5t-138 -11.5q-4 0 -10.5 2t-10.5 4zM965 1335q-29 4 -60 -7t-59 -28q-131 -78 -201 -189.5t-96 -246.5q-14 -70 -3 -131 t38 -121q4 -12 10 -13t20 11q41 35 80 69t78 71q66 63 124 132.5t97 151.5q31 66 45.5 129.5t-4.5 128.5q-8 25 -23 37t-46 6zM113 -63q-10 -47 -5 -91.5t27 -78.5q8 -14 20.5 -20.5t28.5 -0.5q23 6 46.5 13.5t43.5 17.5q78 41 134.5 100.5t97.5 132.5q57 109 82 226 q2 6 7 15t11 11q16 4 15.5 9t-5.5 14q-14 31 -26 62.5t-25 64.5q-8 18 -26 2l-66 -52q-70 -53 -136.5 -109t-119.5 -126q-35 -45 -64.5 -91t-39.5 -99zM690 -354q35 66 54.5 135t27.5 143zM877 748q49 47 92 98t73 110zM604 1104l123 149q-80 -59 -123 -149zM82 -31l78 137 q-29 -31 -51.5 -63.5t-26.5 -73.5zM545 -80q33 37 51 78t29 84q-20 -41 -38.5 -81t-41.5 -81zM707 -100h-7l-28 -136h6zM731 -137h-6l-31 -121q10 14 15.5 28.5t9.5 30.5zM975 942q-2 0 -3 1t-3 1q-8 -10 -16.5 -22.5t-14.5 -24.5l2 -2z" />
<glyph unicode="'" horiz-adv-x="278" d="M451 1219l5 5t5 3q4 2 7 1t7 -1q-2 -4 -2 -7t-2 -6q-10 -12 -19.5 -23t-19.5 -24l4 -4l33 37q4 4 8 5t8 3q2 -4 5.5 -7t1.5 -7q-6 -16 -17 -33q-35 -47 -70.5 -94t-70.5 -96q-51 -78 -70 -170q-2 -4 -6 -17q-47 16 -63.5 53t4.5 89q35 88 87 166.5t115 154.5 q12 16 19.5 17.5t19.5 -11.5q0 -4 2 -4q14 -6 15.5 -10t-6.5 -20z" />
<glyph unicode="(" horiz-adv-x="585" d="M244 -365q-70 0 -105 60q-23 39 -31 83t-12 91q-8 72 -10 143.5t8 145.5q8 59 26.5 117.5t43.5 115.5q86 205 198.5 397.5t266.5 370.5q41 47 85 90t91 86q18 16 42.5 28.5t49.5 22.5q29 10 52.5 -9t19.5 -46q-4 -10 -17 -12q-25 -6 -46 -22.5t-44 -34.5 q-70 -61 -128 -133t-113 -146q-96 -127 -176 -257t-144 -271q-37 -82 -66.5 -163t-41.5 -165q-35 -217 10 -410q4 -16 12 -28.5t16 -26.5q4 -4 11.5 -8t13.5 -8q-4 -4 -6 -5.5t-6 -5.5zM897 1321q-35 -16 -61.5 -40t-49.5 -54z" />
<glyph unicode=")" horiz-adv-x="604" d="M705 842q-37 -158 -86.5 -305.5t-133.5 -288.5q-76 -135 -161.5 -262t-188.5 -248q-27 -31 -54.5 -60.5t-66.5 -50.5q-49 -25 -88 -2q-4 0 -3 9.5t5 13.5q12 16 26.5 30.5t29.5 30.5q76 82 136 171t120 181q68 109 127 218.5t104 226.5q39 98 68.5 195.5t52.5 197.5 q18 84 30.5 165t10.5 163q-2 47 -5 94t-22 88q-2 4 -2 10t4 8q10 8 21 5q41 -10 53 -46q25 -51 36 -106t15 -115q4 -84 -5 -164.5t-23 -158.5zM569 504l-213 -408q66 96 121 197.5t92 210.5zM430 289q4 0 5 -1t3 -1l47 94q-2 0 -3 1t-3 1zM473 424q-4 0 -6 2 q-18 -43 -41 -88q6 0 6 -2q10 23 20.5 44t20.5 44z" />
<glyph unicode="*" horiz-adv-x="655" d="M508 1294l63 131q16 33 34 65l36 64q8 14 17.5 21.5t25.5 -2.5q10 -8 18.5 -13.5t16.5 -13.5q23 -16 2 -51l-41 -76l-14 -26l8 -9q10 10 19 19.5t20 19.5q39 31 63 2q25 -23 24 -29.5t-32 -33.5q-29 -23 -58.5 -48.5t-62.5 -53.5q61 -6 116.5 -15.5t92.5 -50.5 q0 -6 -2 -8q-20 4 -38.5 7t-41.5 5q-45 2 -88 3t-88 1q-23 0 -31 -13t2 -32q29 -57 57.5 -113.5t57.5 -115.5q6 -12 10 -27.5t8 -30.5q-4 -4 -6 -5t-4 -3q-12 8 -24.5 15.5t-20.5 17.5q-29 43 -52.5 87t-49.5 87l-19 33q-25 -41 -41 -84t-30.5 -85t-28.5 -84t-33 -83h-10 q-37 6 -41 31.5t2 58.5q8 31 16.5 61.5t16.5 59.5q2 12 12 35q-18 -12 -20 -15q-66 -68 -129.5 -136t-116.5 -148q-4 -8 -11.5 -16.5t-11.5 -8.5q-14 -2 -26.5 12.5t-7.5 28.5q8 18 15 37.5t19 36.5q43 66 96.5 124t108.5 115l127 127l19 21h-43q-20 -2 -39 -3t-37 -1 q-23 0 -39 8q-6 4 -11.5 11t-11.5 14q10 4 18.5 7t18.5 5l146 16q-10 23 -17.5 43.5t-17.5 40.5t-18.5 40t-16.5 42q-2 4 0 10.5t0 10.5q8 2 14 4t11 -2q12 -10 25 -18.5t24 -22.5q12 -16 19 -37t18 -39q4 -6 7 -11.5t7 -13.5z" />
<glyph unicode="+" horiz-adv-x="864" d="M350 565q-27 0 -47 21.5t-20 46.5q0 2 8 7t12 5q23 2 41 0t39 -2q51 -2 101.5 -3t97.5 -5q16 -2 21 6t11 18q41 82 83 162t87 162l19 29q8 14 18 19t23 -5q6 -6 19.5 -7t4.5 -20h9q8 0 12 -4l12 -16t6 -18q2 -10 -4 -23.5t-14 -24.5q-37 -66 -73 -128t-75 -128 q-14 -25 13 -24q29 0 57.5 -2t56.5 -4q39 0 52 -39q8 -23 -21 -23q-43 2 -87 1t-89 1q-31 0 -41 -26q-29 -70 -58.5 -137.5t-58.5 -137.5q-14 -35 -18 -67.5t-15 -67.5l-6 -27q0 -16 -20 -14q-37 6 -51.5 30.5t-10.5 57.5q4 43 14.5 86t24.5 84q16 49 36 98.5t42 96.5 q12 25 -14 22h-197z" />
<glyph unicode="," horiz-adv-x="313" d="M111 -4q-29 -6 -49.5 3t-36.5 26q-14 14 -15.5 32.5t6.5 38.5q8 12 16.5 25.5t18.5 23.5q25 29 55.5 42.5t58.5 11.5t48 -19.5t27 -50.5q4 -27 5 -56.5t-18 -64.5q-25 -45 -55.5 -87t-69.5 -79q-57 -55 -102 -16q-14 16 2 35q10 10 19.5 18t17.5 19q20 23 37.5 45 t36.5 45zM84 -139l6 -4l76 94l-4 4z" />
<glyph unicode="-" horiz-adv-x="675" d="M342 668q72 -4 143.5 -9.5t141.5 -13.5q25 -2 48 -12t44 -23q8 -4 12 -16t10 -23l-24 -8t-25 -4q-92 2 -185 4t-188 2q-31 0 -55 6.5t-41 28.5q-6 10 -12 19.5t-8 19.5q-4 14 5 18.5t19 4.5q29 2 56.5 2h56.5z" />
<glyph unicode="." horiz-adv-x="305" d="M18 35q6 27 21.5 48t36.5 42q47 39 90 8q39 -29 67 -72q29 -41 -18 -88q-27 -25 -57.5 -35t-59 -7t-51 20.5t-29.5 46.5q-2 10 -1 18.5t1 18.5z" />
<glyph unicode="/" horiz-adv-x="477" d="M41 -14q0 16 -4 21t-17 -5l-10 16q-4 -10 -10 -20q10 61 28.5 121.5t45.5 122.5q88 217 199.5 423.5t234.5 411.5q72 121 147.5 237t149.5 234q18 29 45 51q16 16 33.5 14.5t23.5 -18.5q2 -4 0 -10t-6 -10q-8 -12 -16 -22.5t-19 -20.5q4 -4 6 -4l37 43q2 4 6.5 5t8.5 5 q0 -4 2 -8t0 -8q-4 -12 -8 -19q-123 -166 -228.5 -337t-208.5 -345q-86 -143 -162.5 -286.5t-142.5 -292.5l-119 -271zM795 1423l-127 -198q-4 -4 -6.5 -6t-6.5 -7l-217 -362l-8 -21q16 23 30.5 45.5t26.5 45.5l181 301l129 198l51 74l-6 4zM305 592l-8 4 q-8 -18 -17.5 -35.5t-19.5 -36.5q2 0 3 -1t3 -1z" />
<glyph unicode="0" horiz-adv-x="860" d="M760 1450q23 -4 39 -6t32 -6q80 -25 119 -83.5t49 -140.5q10 -94 -8 -188t-47 -192q-47 -166 -134 -313.5t-204 -287.5q-43 -51 -92 -94t-111 -73q-33 -16 -69.5 -23.5t-72.5 -1.5t-66.5 24.5t-49.5 53.5q-35 59 -45 126.5t-6 139.5q4 92 25.5 185.5t54.5 187.5 q35 96 75 188t95 184q59 102 131 193.5t162 169.5q23 18 45.5 31.5t44.5 27.5q27 18 56.5 19.5t55 -8t45 -27.5t27.5 -39q2 -6 0 -12t-2 -12q-6 0 -11 1t-11 3q-4 0 -8 4q-8 4 -15.5 12t-13.5 6q-16 -4 -30.5 -11t-31.5 -15q-6 -4 -12 -9.5t-16 -13.5zM221 496 q-10 -59 -15 -116.5t1 -115.5q4 -47 15 -89t42 -77q16 -23 45 -8q88 41 158 121q176 203 288.5 422t141.5 463q6 41 5 82t-7 82q-8 111 -111 163q-31 14 -41 13.5t-36 -31.5q-47 -53 -94.5 -107.5t-88.5 -113.5q-78 -111 -133 -225.5t-96 -235.5q-20 -57 -38 -113.5 t-36 -113.5zM682 1430q-88 -80 -157.5 -171.5t-123.5 -193.5q-33 -61 -63.5 -127t-54 -124t-37 -102t-13.5 -63q70 215 176.5 411t272.5 370zM788 549q41 61 71 124.5t46 131.5zM408 1120q29 43 58.5 86t59.5 86q-76 -82 -123 -170q-25 -39 -47 -82q2 0 2 -1t2 -1zM420 1204 q-18 -33 -36.5 -63.5t-35.5 -61.5q-23 -31 -37 -61q2 0 3 -1t5 -1l29 61l76 123l43 62q-2 0 -2 1t-2 1q-10 -16 -21.5 -31t-21.5 -29z" />
<glyph unicode="1" horiz-adv-x="468" d="M707 1468l-62 -30q-37 -16 -60.5 -14.5t-39.5 22.5q-12 10 4 16q66 27 124 67t113 85q8 6 14.5 11t12.5 11q10 10 17.5 14.5t19.5 -5.5q6 -4 16.5 -5.5t16.5 -7.5q10 -8 12 -9t-2 -11q6 -2 12 -3t10 -5q4 -14 -2 -25q-127 -188 -221 -384t-182 -394q-53 -119 -101.5 -238 t-95.5 -239q-14 -41 -22 -82t-19 -82q-8 -20 19 -27q35 -8 67.5 -21.5t53.5 -43.5q6 -10 12 -22.5t-8 -27.5q-2 -4 -19.5 0.5t-21.5 14.5q-37 47 -89.5 46t-109.5 -9q-10 -2 -19.5 -3t-17.5 -6q-37 -14 -62.5 -4.5t-47.5 29.5q-4 4 -7.5 9t-1.5 9q10 10 23 15q31 6 59.5 11 t57.5 9q16 2 22 5t2 20q-8 39 1.5 77t21.5 76q98 289 223 568.5t264 558.5zM844 1536q-10 -4 -13 -12q-29 -51 -58.5 -100.5t-55.5 -102.5q-119 -231 -223.5 -462.5t-194.5 -471.5q-14 -35 -23.5 -66.5t-19.5 -66.5q115 330 263.5 647.5t324.5 634.5z" />
<glyph unicode="2" horiz-adv-x="907" d="M182 111l170 39q59 10 115.5 20t112.5 2q45 -8 72.5 -32.5t31.5 -73.5q0 -6 1 -12.5t-1 -12.5q-10 -31 -35 -12q-10 10 -16 19t-4 26q0 29 -29 26q-47 -8 -93 -12t-93 -16q-86 -20 -168 -44t-164 -46q-16 -4 -26.5 -1t-22.5 7q-16 8 -23 32q-6 23 3.5 32t29.5 16 q14 4 20 18q125 154 249 308.5t247 310.5q84 104 166 208.5t160 212.5q53 72 99 147t75 157q10 39 14 86q4 45 -43 45q-23 0 -46 -2.5t-46 -8.5q-109 -35 -201 -95t-162 -159q-16 -23 -29.5 -43t-10.5 -47q0 -2 -7.5 -8t-11.5 -4q-47 6 -67 41q-4 6 -4.5 16.5t1.5 20.5 q16 49 47 91t72 79q78 72 168 120t189 64q35 6 73.5 2t74.5 -19.5t63.5 -42t37.5 -65.5q12 -43 1 -86t-31 -86q-45 -98 -106.5 -184t-133.5 -172q-172 -207 -343 -412t-345 -411zM1096 1305l-217 -314q63 72 118.5 149t98.5 165zM528 1296l9 -6q20 25 38.5 49.5t40.5 49.5 l-8 6q-18 -25 -39 -49.5t-41 -49.5z" />
<glyph unicode="3" horiz-adv-x="1069" d="M233 330l-32 -45q-53 -63 -59.5 -124t22.5 -120q23 -41 53.5 -71.5t77.5 -45.5q45 -14 94 10q96 47 170 117t133 156q125 174 166 373q12 68 8 132t-32 122q-16 25 -36 40t-50 17q-35 4 -68 3t-68 -1q-61 -2 -102 39q-10 10 -3 18t17 17l133 104q92 72 180.5 143.5 t178.5 145.5q29 23 52.5 51.5t45.5 56.5q10 12 15.5 30t11.5 34q8 23 -17 20q-43 -4 -84 -15t-82 -28q-86 -35 -161.5 -81t-139.5 -117q-14 -14 -26.5 -30.5t-22.5 -33.5q-8 -16 -22 -10q-78 25 -25 102q29 47 67 84t85 66q139 92 297 129q41 10 77.5 10t71.5 -12 q33 -12 54.5 -34.5t28.5 -53.5t-3 -67t-39 -72q-41 -53 -90 -96.5t-102 -84.5l-293 -227l-17 -14q10 -2 15.5 -4t11.5 -2q80 -10 137.5 -48.5t91 -95.5t42 -126.5t-8.5 -141.5q-41 -180 -140 -331.5t-261 -272.5q-115 -84 -236 -86t-211 63q-47 37 -77.5 87t-30.5 120 q0 63 34.5 119.5t94.5 85.5q23 12 40 9t33 -13zM840 276q16 20 34.5 55.5t33 71t22.5 65.5t6 42q-23 -57 -47 -116t-49 -118zM1194 1444q-23 -29 -44.5 -54.5t-43.5 -50.5q65 39 88 105zM827 391q6 0 9 -2l41 113h-7zM670 1362l-8 6q-14 -18 -29 -35.5t-31 -34.5l6 -6z M893 455q-4 0 -8 2l-33 -86q2 0 3 -1t3 -1q10 23 18.5 43t16.5 43z" />
<glyph unicode="4" horiz-adv-x="874" d="M514 -131h-27q-16 -4 -25 0t-13 20q-10 66 8 131q55 197 133 386.5t164 379.5q10 25 8 29t-31 0q-41 -4 -83 -8t-85 -12q-53 -10 -104 -22.5t-101 -29.5q-109 -35 -186 21q-10 8 -6 19.5t12 21.5q25 33 50.5 64.5t52.5 64.5l446 555q23 27 40 53.5t38 52.5q18 27 28.5 32 t32.5 -7q16 -8 29.5 -19.5t19.5 -29.5q4 -14 -4 -29q-20 -35 -40.5 -67.5t-43.5 -65.5l-411 -524l-23 -29q29 4 52.5 7t48.5 5q66 6 133 12.5t135 10.5q29 2 36 6t21 33q68 139 135.5 275t137.5 274q6 14 14 28.5t18 28.5q6 14 17 20q4 4 9 4.5t13 2.5q-2 -4 -2 -9.5 t-2 -9.5q-8 -12 -6 -20q2 6 14 18q4 8 19 17l6 -23q2 0 6 4t8 6t6 0t0 -14q2 -2 9 -2q29 -8 10 -43q-27 -47 -53.5 -93t-53.5 -94q-49 -96 -96 -191t-96 -194q-8 -14 -5 -18t17 -6q47 -4 95 -9t96 -16q18 -4 33.5 -15t31.5 -22q2 -2 1 -8t3 -10q-16 -4 -20 -4q-20 4 -42 8 t-44 6q-45 4 -90 4t-90 2q-27 2 -44 -28q-61 -143 -124.5 -284.5t-122.5 -285.5q-37 -88 -61.5 -175t-47.5 -177zM502 -90q23 117 64.5 230.5t90.5 228.5q47 115 96.5 226.5t98.5 223.5q-2 0 -3 1t-3 1l-17 -33q-68 -147 -133 -295.5t-121 -302.5q-25 -70 -45 -139t-28 -141 zM444 981q45 53 89.5 106.5t87.5 108.5q59 74 114.5 149.5t114.5 151.5q10 12 15 24.5t12 24.5l-10.5 -7t-8.5 -7l-299 -397l-117 -152q-29 -33 -56.5 -65.5t-53.5 -65.5q4 -4 6 -4zM1202 1507q-92 -147 -169 -299.5t-150 -308.5q2 0 3 -1t3 -1zM819 1559q-2 0 -6 4 l-96 -133q2 0 3 -1.5t3 -1.5q25 33 49 65t47 67zM760 1438l4 -4q10 16 22.5 30.5t24.5 30.5q-4 0 -5 1t-3 1z" />
<glyph unicode="5" horiz-adv-x="1017" d="M1415 1405q-29 4 -56.5 10t-55.5 8q-53 4 -109.5 6.5t-112.5 2.5q-63 -2 -126.5 -7.5t-129.5 -9.5q-14 0 -21 -6t-18 -18q-53 -88 -104 -175.5t-92 -179.5q-2 -4 -4 -7t-2 -7q-10 -23 14 -16q33 10 65.5 18t65.5 8q141 6 223 -57.5t99 -198.5q10 -74 -5.5 -147.5 t-50.5 -149.5q-66 -147 -164 -275t-233 -233q-61 -47 -125.5 -82.5t-136.5 -56.5q-57 -16 -110.5 -14t-98.5 21.5t-76 57t-43 93.5q-4 27 1 53.5t16 54.5q33 88 77.5 170t110.5 156q25 29 54.5 51.5t64.5 36.5q6 4 15 7t15 1q12 -4 22.5 -9t23.5 -9q-8 -10 -13.5 -19.5 t-15.5 -15.5q-104 -86 -158.5 -192.5t-89.5 -223.5q-10 -41 -1 -77.5t32 -65.5q23 -35 67 -21q49 14 95.5 37t91.5 51q180 117 299 270.5t190 342.5q29 78 34 150.5t-17 144.5q-10 41 -37 56t-78 11q-57 -4 -110.5 -21.5t-106.5 -41.5l-25 -13q-10 -6 -22.5 -16t-18.5 -8 q-16 4 -31.5 13t-29.5 20q-25 18 -17.5 45.5t13.5 50.5q31 94 78 195q35 72 73.5 139t75.5 137q10 16 10 31q-4 18 4.5 23t22.5 7q27 2 50.5 5.5t47.5 5.5q86 4 170 6t168 2q55 0 107.5 -8.5t97.5 -36.5q27 -18 37 -34.5t14 -45.5zM711 117q74 72 131 153.5t98 173.5 q-49 -88 -107.5 -168.5t-121.5 -158.5zM109 104l122 244q-43 -57 -72.5 -117.5t-49.5 -126.5zM838 367q-4 4 -7 4l-79 -119l4 -4zM836 313q-4 4 -7 4l-53 -73l6 -4z" />
<glyph unicode="6" horiz-adv-x="776" d="M328 688q27 8 51 16.5t49 12.5q111 20 192.5 -12.5t147.5 -100.5q55 -57 56 -129t-33 -151q-35 -86 -89.5 -161t-126.5 -140q-37 -35 -84 -56.5t-96 -31t-96 -4t-84 23.5q-39 20 -63.5 53t-38.5 74q-23 66 -25 134.5t8 139.5q4 23 8.5 44.5t8.5 43.5l-21 -10l10 25 q35 51 53.5 105t41.5 108q61 160 140 313.5t187 298.5q49 66 106.5 125t129.5 107q37 25 80 40q61 25 116.5 6.5t77.5 -69.5q6 -12 6 -23q0 -8 -4 -20q-4 2 -9 1t-9 3q-6 4 -13.5 10t-11.5 15q-16 31 -57 16q-47 -14 -87 -38.5t-79 -55.5q-68 -57 -120 -126t-99 -140 q-66 -104 -120 -212t-99 -218zM221 377q-14 -53 -18 -103.5t4 -97.5q8 -49 23.5 -93t50.5 -79t86 -10q35 16 64.5 35.5t55.5 48.5q135 145 187 315q23 72 13.5 131.5t-64.5 100.5q-37 33 -84 42t-103 -20q-35 -16 -65.5 -37.5t-63.5 -44.5q-47 -33 -59 -90q-6 -25 -13.5 -49 t-13.5 -49zM707 1386q-82 -76 -142.5 -163.5t-113.5 -182.5q-106 -188 -175 -381q84 193 182.5 377t248.5 350zM717 256q29 41 47 85t18 95q-16 -47 -32.5 -92t-32.5 -88zM176 334h6l29 135q-8 -8 -10 -16zM410 1059q-2 0 -2 1t-2 1l-52 -96q4 0 4 -2zM217 664q2 -2 6 -2 l39 92h-6zM743 389h-8l-18 -55q2 0 4 -1t4 -1zM715 403h-8l-21 -67h6q6 16 11.5 33.5t11.5 33.5zM522 1200q2 0 3 -1t3 -1l41 59q-4 0 -6 3z" />
<glyph unicode="7" horiz-adv-x="811" d="M139 4l-10 8q-35 6 -41 14.5t-2 45.5q4 53 21.5 102t39.5 98q43 98 95.5 189.5t107.5 183.5q16 23 17.5 29t-31.5 6q-33 -2 -62.5 3t-48.5 32q-6 4 -8 14l10 5t11 5h38.5t36.5 2q16 0 35 2t35 0q33 -2 51 33q100 150 205.5 295.5t218.5 286.5l10 14q-4 0 -7 1t-7 1 q-66 -12 -131.5 -14t-128.5 2q-66 6 -127 18.5t-113 46.5q-25 18 -37 41q-8 14 2 29q2 4 11.5 6t15.5 2q20 -4 25 -12q25 -25 57.5 -30t65.5 -9q86 -10 173 -9t177 17q47 10 91 23.5t87 40.5q23 14 48.5 7t35.5 -28q4 -2 4 -4t2 -4q10 -10 7 -18.5t-17 -22.5 q-33 -27 -61.5 -56.5t-55.5 -60.5q-121 -135 -227.5 -276t-208.5 -289q-10 -16 -8 -19t18 -3q31 0 61.5 1t59.5 -3q14 -2 25.5 -10.5t21.5 -14.5q8 -4 5 -10t-11 -10q-14 -4 -27.5 -9.5t-25.5 -5.5q-80 -6 -160 -6q-23 0 -33 -18q-76 -115 -145.5 -229.5t-120.5 -237.5 q-16 -41 -29.5 -83t-29.5 -83q-2 -6 -4.5 -12.5t-6.5 -16.5zM170 174q33 63 64.5 127t66.5 127q35 61 73 122.5t75 125.5q-82 -123 -157 -246t-122 -256zM1001 1409q-141 -154 -263 -317.5t-238 -335.5q121 166 242.5 330.5t258.5 322.5z" />
<glyph unicode="8" horiz-adv-x="874" d="M285 -137q-100 0 -174 47q-35 23 -50.5 57.5t-21.5 75.5q-14 82 3 164t62 166q63 117 140.5 223t179.5 201q10 10 10 24q-43 236 158 422q72 68 149.5 120t167.5 79q55 16 109.5 20t101.5 -24q57 -33 43 -103q-10 -53 -32.5 -102t-51.5 -98q-63 -115 -146 -216.5 t-173 -199.5q-16 -16 -29.5 -30.5t-30.5 -29.5q-12 -12 -4 -24l103 -119q55 -57 80 -139q14 -53 -0.5 -107.5t-53.5 -105.5q-106 -143 -239 -220t-301 -81zM182 203q-14 -66 -13 -117t15 -92q20 -70 88 -72q16 0 31.5 2t32.5 6q184 49 315 205q70 86 83.5 170t-38.5 160 q-39 59 -84 110.5t-90 106.5q-10 14 -18 11t-21 -17q-72 -74 -130 -154t-107 -166q-23 -41 -41.5 -80.5t-22.5 -72.5zM563 954l-6 -24q-4 -35 1 -40t42 3q37 10 73 -3t48 -40q4 -10 2 -15.5t-18 -9.5q-27 -2 -58 -20q-29 -16 -41 -23.5t-14 -13.5t6 -15.5t23 -29.5 q10 -14 26 4q98 111 186.5 223.5t153.5 241.5q23 39 37 79t31 81q14 35 -25 26q-16 -4 -29.5 -7t-29.5 -9q-70 -23 -131.5 -62.5t-116.5 -91.5q-61 -53 -103.5 -116.5t-56.5 -137.5zM145 227q55 135 137.5 254t180.5 232q-104 -111 -190.5 -228t-127.5 -258zM1067 1171 q-57 -82 -112.5 -159.5t-108.5 -155.5q66 72 121 149.5t100 165.5zM553 1051l109 147q-37 -31 -65 -65.5t-44 -81.5zM168 422q-12 -14 -25.5 -38t-26 -48.5t-19.5 -46t-7 -31.5zM834 301l-33 -98q0 -2 4 -2q16 25 26.5 48t2.5 52zM195 403q-6 0 -7 3q-14 -29 -27.5 -55.5 t-29.5 -55.5q2 -2 8 -2zM547 1147q-4 0 -8 4l-39 -66q4 0 6 -2z" />
<glyph unicode="9" horiz-adv-x="860" d="M985 1167l-24 -24q-59 -59 -119 -119.5t-121 -120.5q-41 -39 -87 -64.5t-97 -43.5q-80 -29 -135.5 -16.5t-106.5 75.5q-31 41 -36 91t5 106q14 74 51 140t88 128q63 76 137 135t167 96q111 45 204 21.5t144 -105.5q8 -14 12 -30.5t10 -32.5q2 -6 4 -12.5t9 -10.5 q37 -23 44 -61.5t-1 -83.5q-16 -102 -48 -201.5t-73 -199.5q-57 -147 -127 -289t-152 -281q-51 -86 -105.5 -167t-123.5 -152q-29 -29 -59.5 -55.5t-63.5 -51.5q-57 -45 -127 -41q-53 4 -100.5 16.5t-85.5 45.5q-80 61 -37 170q16 39 40.5 71.5t59.5 61.5q16 12 30.5 17 t28.5 -11q4 -4 8.5 -4t8.5 -4l-74 -123q-14 -29 -22.5 -56.5t-1.5 -56.5q8 -37 44.5 -56.5t79.5 -4.5q41 14 76 39.5t64 56.5q61 59 106 127t86 139q76 129 142.5 258t126.5 265q43 96 79.5 190t69.5 192l6 35q-2 0 -2 1t-2 1zM905 1468q-35 -2 -68.5 -8t-66.5 -22 q-276 -127 -395 -406q-16 -31 -18.5 -64.5t-2.5 -66.5q-2 -47 43 -39q57 6 117 31q66 27 124 67.5t105 94.5q72 80 139.5 161.5t139.5 163.5q2 4 5 11.5t-1 11.5q-6 12 -14 24.5t-21 18.5q-20 10 -41.5 14t-44.5 8zM532 29q12 12 36 42.5t50.5 70.5t55 84t51.5 84t37 71 t16 43zM713 932q14 8 60 52t97.5 98.5t92.5 101.5t45 61zM729 1462q-76 -29 -134 -77t-108 -109q55 53 115.5 100t126.5 86zM580 199q2 0 3 -1t3 -1q20 33 39.5 65.5l40.5 67.5q-4 0 -5.5 1t-3.5 1zM580 1440l-5 6l-96 -84l4 -6q23 23 47.5 42t49.5 42zM631 1440l-4 6 l-90 -72q0 -2 1 -3t1 -3zM662 264q-4 2 -9 2l-57 -94q2 -2 6 -2q14 23 29 47t31 47zM88 18q4 -2 8 -2l31 54q-4 0 -5 1t-3 1z" />
<glyph unicode=":" horiz-adv-x="333" d="M223 840q2 20 17.5 41.5t38 39t48 27.5t48.5 4q25 -8 51.5 -15t30.5 -36q4 -31 -1 -65.5t-36 -67.5q-35 -39 -60.5 -47t-66.5 4q-88 29 -70 115zM150 164q-59 2 -79 37t9 94q23 41 53.5 71.5t77.5 39.5q23 4 43 -0.5t33 -22.5q4 -4 5 -7t3 -7q2 -25 7 -49.5t-17 -53.5 q-10 -16 -22.5 -31.5t-26.5 -31.5q-23 -23 -40 -32t-46 -7z" />
<glyph unicode=";" horiz-adv-x="278" d="M299 283q-12 -80 -62.5 -138.5t-127.5 -83.5q-16 -4 -31 -2t-31 4q-12 2 -10 8.5t12 12.5l33 14q29 14 52.5 31.5t43.5 44.5q14 20 12 24.5t-24 6.5q-18 4 -36.5 7t-37.5 9q-23 10 -27 31.5t9 46.5q16 33 41 66q31 37 73 36q27 2 50.5 -1t46.5 -19q33 -27 20 -72 q-4 -6 -4 -13t-2 -13zM315 944q47 2 78 -21.5t41 -64.5q4 -10 -4 -24q-14 -35 -36.5 -62t-51.5 -51q-20 -18 -45 -20.5t-46.5 5t-35.5 23.5t-14 35q0 41 12 78t45 71q14 14 28.5 23.5t28.5 7.5zM334 846l-8 6l-39 -66l12 -4q17 33 35 64zM399 825q-2 0 -3 1t-3 1l-33 -51 q4 0 5.5 -1t3.5 -1zM240 186h6l24 58q-2 0 -4 2q-14 -29 -26 -60z" />
<glyph unicode="&#x3c;" horiz-adv-x="710" d="M522 -102h-14q-23 0 -38 7t-25.5 19.5t-17.5 27.5t-13 32q-35 92 -69 181t-73 179q-29 68 -64.5 133.5t-68.5 130.5q-10 16 -6 28.5t25 27.5q131 90 260 177t258 179q35 23 65.5 48.5t63.5 49.5q41 37 65 10q6 -6 17.5 -8t5.5 -18q0 -2 2 -2q20 -20 18 -26.5t-30 -29.5 l-453 -327l-154 -109q-23 -14 -10 -35q55 -98 103.5 -202.5t89.5 -212.5q16 -43 30.5 -87t26.5 -89q4 -18 4 -39.5t2 -44.5z" />
<glyph unicode="=" horiz-adv-x="739" d="M829 389q-12 0 -24 -1t-23 -1q-96 4 -191 -7t-194 -24q-47 -6 -93 -12t-93 -14q-35 -6 -61.5 16.5t-36.5 44.5q-4 12 4 17.5t20 7.5q27 4 53.5 8t53.5 8q90 10 177 19.5t177 15.5q47 4 90 4t82 -18q20 -10 37.5 -22.5t21.5 -41.5zM690 784q29 -4 63.5 -7t67.5 -9 q27 -6 46.5 -20.5t27.5 -42.5q0 -4 -2 -10.5t-2 -12.5q-6 2 -10 2t-9 4q-20 16 -44.5 19.5t-51.5 1.5l-293 -25q-57 -6 -114.5 -12t-114.5 -15q-35 -4 -62.5 19.5t-37.5 48.5q-2 2 5 9t13 9q12 4 26.5 5.5t30.5 3.5z" />
<glyph unicode="&#x3e;" horiz-adv-x="485" d="M152 123q-29 -35 -48.5 -72t-29.5 -78q-4 -8 -9.5 -18t-7.5 -10q-12 2 -24.5 4t-18.5 10q-10 18 -9 41t11 45q18 35 36 68.5t40 64.5q78 113 161 219.5t175 210.5q10 12 11 21.5t-3 19.5q-37 68 -72.5 134.5t-66.5 138.5q-18 41 -31.5 86t-23.5 92q-8 25 0 32t32 3 q53 -6 70 -56q35 -109 86 -204t105 -193l34 -64q16 -25 -12 -53q-188 -190 -344 -415q-27 -37 -48.5 -77t-43.5 -79l-27 -45q0 -2 -14 -10q0 4 -3 7t1 7q8 23 15 44t18 44q18 41 41 82z" />
<glyph unicode="?" horiz-adv-x="763" d="M225 -43q16 61 39 118.5t51 114.5q102 209 214 410t235 399q31 47 59.5 94.5t55.5 96.5q10 16 14 36.5t8 41.5q6 63 -61 69q-47 4 -92.5 -7t-92.5 -34q-199 -90 -284 -282q-12 -27 -14.5 -50.5t16.5 -43.5q4 -2 4 -6.5v-8.5q-4 -2 -9.5 -4t-9.5 -2q-20 4 -39.5 8 t-35.5 15q-59 31 -31 106q57 156 201 258q72 53 151.5 85t163.5 34q47 0 92 -10.5t80 -36.5q72 -47 83 -104.5t-30 -137.5q-23 -47 -52.5 -94t-57.5 -94l-320 -525q-53 -92 -100 -185t-88 -189q-18 -47 -28.5 -93.5t-18.5 -93.5q-2 -10 -5.5 -15t-17.5 -3q-20 2 -38.5 2 t-30.5 18q-27 39 -15 93zM190 -293q23 -4 41.5 -12t22.5 -35q2 -6 7 -11l9 -9q16 -20 19.5 -37t-10.5 -37q-14 -23 -42 -38t-51 -13q-47 4 -65.5 31.5t-1.5 78.5q10 29 28 58q12 28 43 24zM301 -92q14 39 24.5 71.5t24.5 65.5q66 160 151 313.5t177 307.5q57 96 118.5 189 t121.5 189q16 25 28 50.5t27 52.5q-2 2 -6 2q-33 -51 -66 -102.5t-65 -104.5q-74 -123 -148 -245t-145 -246q-53 -96 -100.5 -192.5t-96.5 -195.5q-18 -35 -30.5 -73.5t-14.5 -81.5zM332 1014l88 143q-31 -31 -54.5 -65.5t-33.5 -77.5zM918 1110l-9 4l-49 -80q2 0 4 -1t4 -1 zM285 47q-2 0 -2 1t-2 1l-35 -102q2 0 4 -1t4 -1q6 27 14.5 52t16.5 50zM854 1081q2 0 4 -1t4 -1l41 72q-2 0 -3 1t-3 1zM283 -31q4 0 6 -2l22 66h-6z" />
<glyph unicode="@" horiz-adv-x="1361" d="M922 600q-31 -33 -58.5 -64.5t-56.5 -62.5q-37 -37 -77 -66.5t-87 -46.5q-41 -12 -81 -10t-71.5 18.5t-54 47t-26.5 76.5q-8 55 7 111t44 110q59 106 144 182t202 111q102 29 189 11t161 -71q14 -10 23.5 -25.5t19.5 -31.5q2 -4 1 -10.5t-3 -12.5q-4 0 -9 -1t-9 3 q-10 4 -20.5 7.5t-14.5 11.5q-39 47 -94.5 55t-114.5 -2q-121 -20 -208 -89t-153 -173q-31 -51 -48 -104.5t-13 -106.5q4 -49 22.5 -57.5t67.5 18.5q55 33 102.5 78t88.5 94q57 66 111.5 132.5t107.5 131.5q20 23 51 26t47 -16q8 -4 10 -8q23 -12 11 -41 q-23 -57 -44.5 -112.5t-44.5 -112.5q-20 -59 -30 -115.5t0 -111.5l6 -19q2 -27 33 -12q41 23 74.5 53.5t62.5 65.5q168 201 213 432q18 92 8 174t-41 158q-16 35 -31.5 65.5t-40.5 59.5q-35 39 -82 47t-104 -2q-162 -31 -294 -120t-245 -218q-162 -186 -231 -404 q-84 -250 -6 -460q39 -98 111.5 -155.5t177.5 -82.5l20 -4t21 -6q31 -10 63 4q10 4 19.5 1t19.5 -5l4 -4q14 10 18.5 4t2.5 -15q-4 -8 -10.5 -16t-14.5 -10q-16 -4 -31.5 -8.5t-31.5 -1.5q-43 4 -85 11t-83 15q-94 20 -168 67.5t-119 125.5q-51 86 -70.5 185t-3.5 212 q78 428 430 737q86 76 181.5 129.5t203.5 81.5q256 66 402 -108q133 -158 133 -381q2 -109 -35 -212.5t-102 -203.5q-41 -59 -84 -113.5t-103 -101.5q-63 -49 -130.5 -59.5t-117.5 26.5q-29 23 -39 62q-14 41 -13 87t11 93l13 51zM578 1116q-23 -16 -53.5 -52t-62.5 -84 t-62.5 -102.5t-55.5 -104.5t-39 -93t-12 -70q23 68 49.5 135.5t67.5 131.5q41 63 85 123.5t83 115.5zM1343 545q82 104 113 219q-56 -108 -113 -219zM528 659l101 146q-72 -60 -101 -146zM305 821q2 0 4 -1t4 -1q12 25 24.5 49.5t29.5 49.5q-2 2 -9 2q-12 -25 -25.5 -49.5 t-27.5 -49.5zM358 860l4 -4l44 74q-2 0 -3.5 1t-3.5 1q-10 -18 -20.5 -37t-20.5 -35zM528 725l4 -4q10 12 18.5 24.5t14.5 24.5l-4 4q-8 -12 -16.5 -24.5t-16.5 -24.5zM1042 694q4 0 2 -2l27 66q-2 2 -6 2q-4 -16 -10.5 -33t-12.5 -33z" />
<glyph unicode="A" horiz-adv-x="1605" d="M1745 905q-6 0 -6 2q-43 43 -108.5 60.5t-125.5 15.5q-25 0 -35 -25q-53 -150 -106 -297t-104 -296q-45 -129 -75 -257t-44 -258q-4 -25 -2 -50t6 -50q4 -27 11 -28t30 22q86 84 157.5 176t131.5 193q72 123 139 246.5t137 246.5q8 14 25.5 21.5t27.5 -0.5q2 -4 2 -12.5 t-4 -12.5q-20 -41 -38.5 -81t-41.5 -79q-41 -80 -82 -159.5t-84 -157.5q-121 -219 -311 -399q-23 -23 -51.5 -36.5t-56.5 -17.5q-66 -12 -88 43q-16 35 -20.5 72t-2.5 76q8 113 31.5 224.5t58.5 221.5q51 162 105.5 323t111.5 322q4 16 -2 18.5t-16 0.5l-236 -25 q-23 -2 -46 -6t-46 -6q-16 -2 -24.5 -8t-18.5 -19q-59 -92 -118.5 -181t-123.5 -179q-72 -109 -150.5 -212.5t-170.5 -199.5q-27 -29 -56.5 -53.5t-58.5 -50.5q-23 -23 -52.5 -30t-59 -5t-54 13.5t-37.5 27.5q-16 20 -23 53t-4 70t15 72.5t35 60.5q16 23 45 26t39 -18 q4 -2 1 -9t-7 -11q-29 -45 -39 -89t-6 -92q8 -53 25.5 -58t66.5 32q47 37 87 82t79 90q117 133 212 274.5t187 286.5l60 92l2 8q-14 -2 -28.5 -3t-29.5 -5q-31 -8 -60.5 -14t-60.5 -17q-16 -4 -28.5 -3t-18.5 18q0 16 -10 30q-10 12 -3 17.5t17 9.5q35 10 70 19.5t70 17.5 q31 8 61.5 13t59.5 9q27 2 43 25q70 102 138 203.5t140 202.5q129 180 285 333q43 47 98 76q63 37 114.5 16.5t55.5 -85.5q2 -31 -3 -65t-15 -67q-31 -88 -65 -175t-66 -173q-23 -53 -42.5 -106t-41.5 -107q-8 -18 -3 -22t21 -6q33 0 66.5 -9.5t62.5 -25t48.5 -33.5 t25.5 -35q4 -10 7 -20t7 -21q-2 0 -4 -1t-4 -1zM1661 1763q-2 0 -4 2q0 20 -2 31q-8 -4 -16.5 -6t-14.5 -6q-16 -10 -31.5 -22.5t-27.5 -24.5q-78 -76 -146.5 -155t-126.5 -165q-63 -90 -123.5 -179t-121.5 -181q-4 -8 -8.5 -15.5t-8.5 -15.5q8 0 16.5 -1t16.5 -1 q72 6 141.5 13t138.5 12q16 2 22.5 7t10.5 17l164 400q31 72 60.5 144t60.5 146zM1102 -199h2q8 51 13 101.5t16 99.5q43 219 116 438l172 480l19 55h-6l-13 -29q-33 -86 -66.5 -173t-62.5 -175q-35 -106 -67.5 -211.5t-61.5 -212.5q-23 -74 -35 -147.5t-24 -147.5 q-4 -20 -4 -40t2 -38zM1364 946h-8l-154 -434h8zM1331 1513l-6 5q-70 -98 -136.5 -196.5t-133.5 -199.5q2 0 4 -1t4 -1zM1225 487h8q25 72 49.5 145t50.5 146h-8zM1071 -12h-6l-14 -105h6q4 27 7 52.5t7 52.5zM1130 260h-6l-10 -51q-2 -8 -2 -14.5t-2 -12.5h4zM1096 125h-4 l-21 -96h4zM1114 59h-2l-25 -112h3zM1122 111h2l23 108h-2z" />
<glyph unicode="B" horiz-adv-x="1243" d="M414 1106q20 31 37.5 61.5t37.5 61.5q74 115 163 213t200 182q61 45 125.5 79t136.5 48q39 8 77 9t73 -9q33 -10 60.5 -29.5t41.5 -50.5t12 -73t-26 -93q-29 -55 -67 -103t-83 -93q-96 -96 -199.5 -180.5t-214.5 -159.5q-23 -14 -55 -41q10 2 16.5 2h10.5q66 6 126 -7.5 t106 -46t76 -88t36 -131.5q2 -23 1 -47t-3 -49q-2 -23 22 -14q57 20 113.5 39.5t114.5 36.5q23 8 42 5t31 -22q16 -23 -10 -31l-127 -47q-100 -35 -188 -73q-8 -2 -13.5 -10.5t-7.5 -14.5q-23 -104 -74 -196.5t-116 -182.5q-139 -186 -338 -301q-55 -33 -111.5 -53.5 t-115.5 -22.5q-66 -2 -117 18.5t-86 69.5q-16 23 -12 50.5t20 56.5q23 47 58.5 86t74.5 76q80 74 168 137t182 119q86 49 172 94t174 92q25 12 27 37q16 59 23.5 116.5t1.5 112.5q-6 59 -42 85t-91 30q-53 4 -107.5 -2t-107.5 -23q-106 -31 -209 -69q-23 -10 -44.5 -16.5 t-43.5 -2.5q-14 4 -23 -18q-23 -63 -46.5 -125.5t-45.5 -126.5l-90 -289q-4 -20 -8 -26q-6 -4 -13.5 -6.5l-13.5 -4.5q-4 -2 -6 0t-4 0q-12 -10 -36 -15t-32 3q-4 4 -5 11.5t1 13.5q10 55 17.5 109.5t19.5 109.5q20 100 41.5 199.5t48.5 199.5q45 178 101.5 352.5 t123.5 348.5q23 57 44.5 114.5t43.5 114.5q4 10 9.5 21.5t11.5 15.5q8 4 17 2t20 -6q61 -16 43 -78l-109 -350q-16 -49 -31.5 -97.5t-31.5 -95.5l-4 -12h6zM377 813l20 10l174 115q135 92 262.5 190.5t245.5 210.5q51 49 97.5 102.5t74.5 117.5q33 66 17 116q-12 39 -58 37 q-49 -4 -96 -21.5t-94 -43.5q-119 -70 -214 -164t-175 -205q-63 -86 -111.5 -176t-93.5 -184q-12 -25 -24.5 -50.5t-24.5 -54.5zM936 369q-4 4 -8 4q-51 -29 -101.5 -56.5t-103.5 -56.5q-102 -59 -197.5 -124.5t-181.5 -147.5q-41 -37 -72.5 -78t-54.5 -88q-16 -41 -1 -60.5 t60 -9.5q135 35 259 125q111 82 195.5 182.5t156.5 214.5zM475 1434q-12 -25 -30.5 -75t-40 -112.5t-43 -129t-38 -124t-26.5 -98.5t-8 -51zM96 303q55 258 121 514t156 512q-98 -256 -164 -512t-113 -514zM362 1210q-59 -166 -102 -327.5t-78 -325.5q45 162 89 324.5 t91 328.5zM954 213l-194 -254q18 12 49 45t60.5 73t53 76.5t31.5 59.5zM1272 1440q25 23 46 62.5t19 62.5q-16 -31 -32.5 -61.5t-32.5 -63.5zM866 182l-4 4l-78 -104l9 -4q16 27 35.5 52t37.5 52zM791 41q4 0 4 -4l77 100l-6 4zM190 -147q4 0 9 -5q16 23 29.5 43.5 t27.5 40.5q0 4 -4 5z" />
<glyph unicode="C" horiz-adv-x="1013" d="M135 518q43 199 132 385.5t214 366.5q59 86 132 162.5t163 138.5q53 37 106.5 64.5t112.5 43.5q84 20 153 -16.5t89 -112.5q12 -41 13 -83t-23 -89q-6 -10 -14.5 -20t-18.5 -21q-10 8 -19.5 14.5t-15.5 16.5q-4 4 -4 12.5v16.5q4 23 9 45t5 45q2 20 -2 40.5t-8 39.5 q-4 16 -17.5 22t-29.5 8q-55 2 -108.5 -20.5t-104.5 -50.5q-92 -53 -161.5 -125t-129.5 -156q-164 -223 -258 -463q-43 -104 -65.5 -209.5t-32.5 -212.5q-8 -74 -9 -144.5t9 -139.5q12 -92 63 -166q55 -76 162 -27q66 31 120 75t108 91q123 115 222 243t191 263l21 29 q10 16 20 19t25 -1q33 -8 16 -43q-90 -154 -188.5 -301t-231.5 -276q-35 -33 -71.5 -63t-77.5 -56q-59 -41 -123 -52.5t-127 -7.5q-113 8 -173.5 68.5t-88.5 159.5q-23 82 -20 168t14 174q4 37 10 72.5t12 72.5zM817 1511q-102 -68 -173 -158.5t-136 -189.5q68 96 141.5 185 t167.5 163z" />
<glyph unicode="D" horiz-adv-x="1398" d="M139 154q6 14 6 34q-8 -8 -8 -10q-14 -25 -25.5 -26.5t-37.5 0.5q-33 4 -33 20t4 35q27 127 51.5 251t57.5 251q27 111 60.5 221t70.5 221q23 63 49 124.5t55 125.5q4 10 11.5 21.5t13.5 21.5q4 4 10 9t10 3q23 -8 42.5 -16t29.5 -29q6 -14 0 -35q-10 -37 -21.5 -74.5 t-21.5 -74.5q-20 -74 -40 -146.5t-40 -146.5q-16 -59 -27.5 -119.5t-25.5 -120.5l-8 -30h6l18 24q117 164 228.5 329t242.5 320q74 88 154 170t174 154q55 41 112.5 76t122.5 55q33 8 65 5t57.5 -15.5t45 -31.5t29.5 -42q20 -45 23.5 -92t-3.5 -98q-14 -111 -46.5 -216.5 t-75.5 -209.5q-57 -139 -117 -275.5t-119 -275.5l-12 -25l49 23q63 27 125.5 54.5t128.5 53.5q20 8 39.5 8t36.5 -12q25 -16 -9 -31l-90 -37q-84 -35 -162.5 -77.5t-156.5 -89.5q-16 -10 -31 -33q-29 -53 -54.5 -106.5t-53.5 -106.5q-66 -121 -137.5 -235.5t-161.5 -223.5 q-47 -53 -97.5 -100t-115.5 -78q-53 -23 -103.5 -31t-99.5 6q-41 10 -53.5 42t-14.5 69q-2 49 16.5 95t47.5 93q47 84 111.5 151.5t138.5 129.5q90 76 182 142.5t190 127.5q16 10 27.5 22.5t19.5 28.5q86 195 173.5 387.5t173.5 387.5q39 90 72.5 181t54.5 183q10 39 12 76 t6 76q0 29 -35 22q-47 -10 -88 -32.5t-82 -51.5q-86 -61 -160.5 -134t-146.5 -150q-104 -113 -192.5 -233t-180.5 -243q-84 -111 -162.5 -223t-144.5 -231q-33 -59 -60.5 -117.5t-56.5 -118.5q-8 -14 -16.5 -22t-26.5 -4zM911 225q-14 -6 -18 -10q-92 -66 -178 -135.5 t-164 -149.5q-47 -49 -85 -102t-65 -113q-16 -39 -23 -75.5t9 -71.5q10 -20 21.5 -23.5t35.5 13.5q47 29 84 67.5t72 83.5q92 119 165 244t140 254zM578 883q59 80 117.5 160.5t121.5 158.5t131 151.5t135 151.5q-27 -18 -70.5 -65t-98 -108.5t-109.5 -130t-103.5 -132 t-82 -113.5t-41.5 -73zM1149 477q2 -2 4 -2t6 -2q20 29 32.5 60.5t29.5 64.5q16 33 29.5 65.5t27.5 65.5q16 35 29.5 66.5t27.5 64.5l56 129q-4 2 -9 2zM1077 487q6 0 8 -2q49 109 98.5 215.5t96.5 214.5q-6 0 -8 3zM1282 829q-4 0 -5 1t-5 1l-174 -382q2 -2 8 -3 q45 96 88 191.5t88 191.5zM84 254h10q18 72 33.5 145.5t26.5 145.5zM1096 344q-4 0 -5 1t-6 1q-18 -41 -37.5 -80t-39.5 -80q6 0 8 -2zM367 -293h-9l-16 -76h4q4 20 10.5 39t10.5 37zM481 758l58 69q0 4 -7 4zM481 758l-53 -72l8 -4q10 18 21.5 37t23.5 39zM233 514h5l14 70 h-4z" />
<glyph unicode="E" horiz-adv-x="1349" d="M485 780q-47 16 -81.5 42t-63.5 59q-53 61 -55 147q-10 150 56.5 279t186.5 243q74 70 156 121t174 84q59 23 117.5 34t111.5 -5q59 -14 109 -51q20 -12 39.5 -24.5t30.5 -39.5q8 -23 10 -29t-19 -26q-143 -166 -219 -363q-8 -23 -10 -43t-6 -43q-4 -16 -7 -19t-18 3 q-49 29 -41 88q6 53 27 105.5t49 103.5q29 53 58.5 103t60.5 104q8 12 9 18t-15 10q-57 10 -112.5 -1t-112.5 -35q-168 -76 -289 -193t-187 -289q-25 -66 -27.5 -130t19.5 -124q16 -37 48 -58.5t77 -19.5q37 2 75 9.5t75 13.5l75 14l56 17q18 4 36.5 0t28.5 -17 q8 -16 -14 -30l-45 -21q-20 -6 -12 -24q6 -16 3 -20.5t-24 -6.5q-37 -4 -73.5 -7t-77.5 -20q-47 -18 -88 -47.5t-82 -62.5q-92 -74 -152.5 -165t-101.5 -196q-35 -88 -60.5 -175t-38.5 -175q-12 -80 -18 -160t10 -153q8 -33 29.5 -60.5t50.5 -46t62.5 -26t66.5 1.5 q61 14 119.5 40.5t113.5 63.5q135 88 242 199.5t203 234.5q104 137 204.5 274.5t205.5 276.5q14 20 27 40t30 40q12 16 25.5 17.5t31.5 -9.5q14 -8 11 -17t-11 -20q-37 -55 -75.5 -111.5t-79.5 -109.5q-74 -104 -149 -205.5t-153 -203.5q-96 -127 -201.5 -241t-238.5 -206 q-90 -63 -185 -99t-198 -26q-66 8 -121 33t-95 67t-59.5 100t-15.5 132q4 61 9.5 122.5t15.5 123.5q14 78 36.5 154.5t57.5 152.5q27 55 54.5 109.5t60.5 107.5q86 137 231 234zM479 1331q119 160 289 279q-92 -51 -166 -119t-123 -160zM287 459q47 66 103 122t118 109 q-72 -45 -127 -102t-94 -129zM633 1554q-86 -61 -139 -143zM549 1522q-14 -8 -32.5 -25.5t-35 -38t-31 -40t-18.5 -32.5zM287 526q4 -4 8 -4l90 103l-6 4zM360 645q-35 -29 -62.5 -60.5t-47.5 -68.5zM1241 1638q-4 4 -6 4l-59 -73l4 -4z" />
<glyph unicode="F" horiz-adv-x="1146" d="M2464 1815l-64 6q-98 14 -196.5 10t-196.5 -8q-80 -4 -157.5 -7.5t-157.5 -7.5q-94 -4 -188.5 -11t-188.5 -11q-33 0 -49 -29q-59 -78 -107.5 -162t-89.5 -170q-43 -90 -80 -180t-76 -182q-10 -20 -6 -24.5t27 -0.5q49 4 96 4t90 -14q53 -16 86 -51t35 -94q2 -14 -6 -35 l-6 -4q-6 10 -11.5 19t-7.5 20q-4 39 -28.5 54t-59.5 21q-57 10 -116.5 4t-118.5 -16q-6 -2 -13.5 -8t-7.5 -12q-20 -55 -37.5 -110.5t-33.5 -110.5q-61 -193 -120 -383.5t-140 -380.5q-27 -63 -58 -125t-71 -121q-8 -10 -14.5 -19.5t-14.5 -19.5q-29 -39 -62.5 -58.5 t-68.5 -26.5t-68 -2t-57 15q-29 14 -38 40t-13 57q-6 53 5 106t34 107q41 100 92 196t118 189q25 33 54.5 63.5t60.5 58.5q29 25 58.5 31t60.5 2q16 -4 21.5 2t9.5 21q35 106 68.5 211.5t68.5 214.5q8 23 5 27.5t-28 -3.5q-57 -18 -112.5 -35.5t-110.5 -35.5q-27 -10 -31 6 q-4 12 -10 23.5t-10 21.5q-8 12 -1 19t17 12q27 12 53.5 23t53.5 20q49 14 98 25t98 24q25 6 35 28q70 186 153 364.5t197 352.5q0 2 11 19q-37 -4 -69 -5.5t-64 -3.5q-74 -4 -148 -10t-145 -8q-82 -4 -147.5 20.5t-106.5 87.5q-12 16 -18.5 37t-14.5 41q0 4 3 11.5t7 13.5 q4 -2 9.5 -2t9.5 -4q6 -6 12 -13.5t8 -17.5q10 -35 36 -49t62 -17q47 -2 93.5 -1t93.5 4q45 0 90 3t90 5q143 8 286.5 17t289.5 15q166 8 330.5 13.5t330.5 9.5q41 2 83 -1t85 -7q61 -6 102 -47q8 -10 12.5 -21.5t10.5 -21.5q-2 -4 -6 -8zM184 -186q-25 -109 4 -176 q12 -27 35 -3q23 29 45.5 56.5t40.5 56.5q51 84 87 170t67 174q23 68 45 135.5t45 137.5q2 8 -2 28q-6 -2 -14.5 -4t-16.5 -6q-16 -12 -31.5 -25.5t-29.5 -29.5q-45 -47 -77 -97.5t-60 -103.5q-93 -163 -138 -313zM739 653q-72 -211 -139.5 -419.5t-159.5 -415.5 q53 102 94 205.5t76 209t65.5 211t63.5 209.5zM258 68q-39 -72 -69.5 -142.5t-43.5 -146.5l58 158q12 33 27.5 64.5t27.5 64.5q12 18 22.5 36.5t20.5 36.5q-2 2 -8 2q-8 -18 -16.5 -36.5t-18.5 -36.5zM496 104h6q23 66 45 131.5t45 131.5h-6q-23 -66 -45 -131.5t-45 -131.5z M518 84q6 0 8 -2l74 217h-6z" />
<glyph unicode="G" horiz-adv-x="1376" d="M1171 725l-75 -74q-98 -98 -196.5 -189t-209.5 -177q-59 -47 -121.5 -83t-132.5 -61q-37 -12 -85 -14t-94 9t-85 34t-59 59q-23 41 -28 90.5t-1 100.5q10 98 39 195.5t65 195.5q84 227 218 436q119 190 267 349t341 284q72 47 144.5 82t152.5 57q41 10 81 4t72.5 -24.5 t55 -47t28.5 -63.5q25 -100 -32 -196q-29 -47 -61 -93.5t-62 -93.5q-4 -6 -10.5 -13t-12.5 -11q-4 -4 -10 -3t-10 -1q0 12 2 18q2 2 6 10q-14 -10 -23.5 -9t-17.5 9q-8 10 -10 20.5t8 26.5q35 59 66.5 118t50.5 122q10 23 13 45.5t5 44.5q4 23 -3 29t-30 2 q-27 -6 -53.5 -12.5t-50.5 -16.5q-86 -33 -165 -82t-153 -108q-166 -133 -293 -292t-225 -339q-66 -119 -116 -240t-87 -248q-18 -66 -32.5 -129t-16.5 -129q0 -23 4 -43t11 -41q12 -47 67 -36q51 10 97.5 31.5t93.5 50.5q98 57 181 128.5t165 147.5q84 78 163.5 153.5 t161.5 153.5q29 29 66 30t59 -22q25 -23 30 -51t-3 -63q-12 -59 -28.5 -121t-30.5 -121l-17 -59q4 0 4 -2l92 63l181 111q51 33 94 0q12 -14 -12 -33q-57 -39 -109 -72q-74 -45 -144.5 -96t-136.5 -109q-14 -14 -20 -30q-31 -111 -64.5 -218.5t-76.5 -213.5 q-43 -115 -95.5 -225.5t-123.5 -217.5q-55 -86 -129 -148.5t-173 -97.5q-25 -10 -51 -14t-49 -6q-74 -4 -104.5 33t-18.5 108q10 63 37 123t62 119q123 209 276.5 391t337.5 348q27 20 33 51l112 371q4 8 5.5 16.5t5.5 16.5q-3 2 -7 2zM991 102q-4 0 -6 2q-4 -4 -7 -6t-5 -6 q-129 -133 -244 -273.5t-207 -295.5q-35 -59 -62.5 -117.5t-35.5 -122.5q-2 -18 1 -35.5t7 -33.5q4 -25 29 -7q29 16 57.5 33t54.5 39q66 53 109 117.5t82 134.5q47 92 85 184t73 187q18 49 35.5 99t33.5 101zM416 1042q129 236 301 436.5t407 356.5q-123 -72 -225 -160 t-189 -188.5t-160 -213t-134 -231.5zM909 -383q14 23 38 74t50.5 115.5t52 136t46 134t33 108.5t10.5 61q-29 -80 -55.5 -159t-55.5 -157t-58.5 -156.5t-60.5 -156.5zM489 1307q39 47 76 96t78 96t85 93t89 96q-35 -25 -86 -77t-101 -111.5t-90.5 -112.5t-50.5 -80z M940 1749q-74 -55 -145.5 -121.5t-132.5 -146.5zM1049 152q-6 0 -11 2q-25 -74 -49 -148t-51 -149h8zM969 -154h10l98 289q-2 0 -3 1t-3 1zM418 -614q-14 -27 -25.5 -53.5t-7.5 -55.5h8zM467 1270q-2 0 -3 1t-3 1l-45 -74q2 0 3 -1t3 -1zM1208 469q-4 0 -4 2 q-6 -14 -10 -27.5t-8 -27.5q0 -2 4 -2z" />
<glyph unicode="H" horiz-adv-x="1847" d="M1270 412q31 117 68.5 230.5t82.5 227.5q4 8 5 16.5t4 18.5q-10 -2 -19.5 -3t-19.5 -5q-55 -20 -110.5 -39.5t-111.5 -38.5q-31 -12 -43 -43q-63 -152 -130.5 -300t-159.5 -290q-55 -84 -111.5 -164.5t-116.5 -158.5q-59 -78 -133 -135.5t-164 -92.5q-70 -27 -136 -31.5 t-130 13.5q-53 16 -74.5 55t-17.5 97q6 78 36.5 150.5t73.5 143.5q84 135 194 250t235 217q100 84 205.5 155t222.5 128q8 4 10 4q41 10 59.5 36t28.5 60q39 123 81 247t79 247q29 88 44 174t17 172q6 63 -6 121q-14 59 -48 79.5t-102 12.5q-90 -10 -168.5 -52t-150.5 -104 q-25 -23 -44.5 -48t-31.5 -54q-4 -10 -9 -14t-15 2q-47 29 -48.5 57.5t27.5 71.5q20 33 51 63q61 59 128 99.5t145 62.5q96 27 168 0q109 -35 162 -108.5t63 -186.5q8 -115 -9.5 -229.5t-52.5 -231.5l-106 -348q-6 -20 -4 -22t22 4l244 69q23 6 33 27q78 172 167 338 t181 332q80 141 166 282q20 35 36.5 37t39.5 -20q20 -20 23 -42t-13 -55q-139 -270 -272 -538l-150 -301q-14 -31 16 -31q37 -4 68 -14.5t47 -38.5l6 -6q8 -16 6 -37t-12 -19q-14 2 -29.5 6.5t-17.5 14.5q-6 29 -24.5 33t-41.5 2q-6 0 -12 -1t-12 -1q-39 0 -51 -39 q-35 -104 -73 -207t-71 -207q-25 -78 -42 -153.5t-33 -153.5q-29 -123 -19 -244l8 -35q4 -23 11.5 -24.5t27.5 20.5q47 47 92 96.5t86 102.5q57 72 109.5 146.5t112.5 148.5q33 43 68.5 84t70.5 82q8 8 15 16t18 16q10 8 29.5 8.5t23.5 -10.5q2 -8 -6 -24 q-23 -31 -46.5 -61.5t-43.5 -61.5q-53 -76 -101.5 -150.5t-101.5 -148.5q-47 -66 -96.5 -130.5t-106.5 -123.5t-111.5 -74.5t-111.5 4.5q-31 12 -48.5 37t-27.5 53q-16 53 -17 108.5t5 113.5q8 66 19.5 129t21.5 129zM936 709q-23 -10 -27 -15q-35 -23 -70.5 -43t-70.5 -43 q-141 -98 -268 -208.5t-236 -245.5q-53 -68 -96 -138.5t-72 -148.5q-16 -41 -24.5 -80t2.5 -80q20 -66 86 -47q29 8 56.5 19.5t55.5 25.5q66 37 120 88t102 113q225 303 372 637q16 39 34 79t36 87zM801 209q14 16 41.5 61t58.5 104.5t62.5 125t57.5 123t41 100.5t13 55 q-66 -145 -130 -287.5t-144 -281.5zM987 727q-4 0 -6 2q-41 -86 -79 -172t-77 -172q49 84 88 169t74 173zM840 340q2 0 4 -1t4 -1l145 309q-2 2 -8 2zM133 23q-18 -20 -35.5 -52t-31 -65t-21.5 -61.5t-6 -43.5zM1452 621q-4 -6 -12 -15q-10 -35 -19.5 -66.5t-17.5 -66.5 q-4 -6 -4 -18l4 2q10 41 22.5 82t26.5 82zM780 1860l-4 4q-18 -14 -36.5 -29.5t-26.5 -38.5zM1452 621l49 143q-6 -8 -9 -15.5t-7 -15.5q-10 -29 -17.5 -56t-15.5 -56zM-16 -176h6l26 78q0 2 -4 2zM14 -172h6l21 66h-6q-4 -16 -9.5 -33t-11.5 -33zM1346 227l2 2l34 164h-2z " />
<glyph unicode="I" horiz-adv-x="645" d="M1147 1798q-16 2 -28.5 4t-24.5 0q-41 -4 -80 -9t-78 -11q-4 -2 -10 -6t-8 -9q-16 -33 -27.5 -65.5t-28.5 -65.5q-86 -186 -165 -372.5t-150 -376.5q-57 -147 -112.5 -292.5t-108.5 -293.5q-25 -66 -46.5 -133.5t-43.5 -134.5q-4 -12 -5.5 -24.5t-9.5 -22.5 q-6 -4 -18.5 -3t-22.5 -1q-37 -2 -49 10t-2 47q31 141 63.5 279.5t81.5 277.5q80 223 171.5 440t191.5 434q31 66 62.5 129.5t64.5 129.5q8 16 4 18t-16 -2q-8 -2 -14.5 -2t-10.5 -4q-33 -10 -49 3t-29 36q-12 23 17 28q29 6 57.5 13.5t56.5 11.5q66 8 131.5 16t130.5 15 q89 6 105 -64zM354 -31h41t35 -16q14 -14 -6 -25q-25 -10 -39 -10q-90 -10 -178 -23.5t-180 -37.5q-18 -4 -48 9t-36 30q-2 4 3 11t9 9q10 4 23.5 8t23.5 6l354 45zM479 1026l-8 -12q-41 -104 -82 -206.5t-78 -207.5q-29 -74 -50 -149.5t-44 -151.5q-10 -35 -19.5 -68.5 t-19.5 -68.5q-8 -31 -13 -61.5t-11 -61.5q4 6 5 12t5 12q20 76 37.5 152t44.5 152q41 123 83 244.5t87 244.5q16 43 32.5 85t32.5 83q6 18 14.5 35.5t16.5 36.5h-8q-4 -16 -11.5 -35t-13.5 -35zM203 31q82 279 184 551t211 546q-123 -274 -223 -545t-172 -552zM240 244 l34 114l146 418q12 35 25.5 66.5t25.5 64.5q-14 -14 -16 -26q-35 -86 -69 -172t-64 -174q-25 -76 -46.5 -152t-44.5 -152zM195 106q-4 -14 -6.5 -27t-6.5 -30q2 2 8 2l33 158q-8 -25 -15 -50.5t-13 -52.5z" />
<glyph unicode="J" horiz-adv-x="1456" d="M1323 551l174 61q25 8 50.5 15.5t49.5 11.5q14 4 28.5 -1t29.5 -9q10 -4 9 -11.5t-17 -11.5q-41 -14 -83 -27.5t-85 -29.5q-47 -18 -93.5 -40t-93.5 -44q-8 -4 -14 -12.5t-10 -16.5q-63 -123 -125 -242.5t-127 -242.5q-68 -125 -145.5 -244t-170.5 -235 q-59 -78 -126.5 -150t-145.5 -135q-115 -98 -248 -117q-90 -10 -137 41t-31 148q12 82 47 159.5t82 151.5q78 123 174.5 230.5t200.5 207.5q117 111 241 203t259 176l6 6q51 18 76.5 54t42.5 81q47 123 97 246t95 246t71 246t26 245q2 70 -14.5 130.5t-59.5 111.5 q-29 39 -73 52.5t-95 9.5q-221 -20 -395.5 -131t-315.5 -295q-39 -49 -68.5 -101.5t-41.5 -111.5q-8 -35 -15.5 -71t2.5 -69q4 -20 15.5 -37.5t19.5 -35.5q4 -8 5 -16.5t5 -16.5q-10 2 -18 1t-16 3q-63 33 -95 87t-24 132q10 88 51 167t96 153q86 117 193.5 202.5 t236.5 147.5q80 39 161 61.5t163 20.5q207 -6 319 -166q55 -78 77 -172t18 -201q-4 -96 -22.5 -190.5t-53.5 -190.5q-39 -104 -79 -208.5t-81 -209.5zM1040 315q-10 -4 -17 -8t-11 -8q-66 -49 -133.5 -98t-133.5 -103q-119 -98 -226 -206.5t-200 -231.5q-53 -72 -99 -148.5 t-73 -160.5q-14 -45 -20 -88t10 -84q18 -47 43 -51.5t72 30.5q61 43 113.5 94.5t101.5 106.5q84 98 153.5 200.5t133.5 209.5q78 129 145.5 258t128.5 262zM1427 956l-180 -438q6 4 22.5 34t36 74t40 95t39 98t29.5 84t13 53zM1167 510q2 -2 7 -2q49 106 92 211.5t75 214.5z M1204 506q4 0 5 -1t5 -1l132 321q-4 0 -9 2zM580 1563q-59 -53 -107.5 -113.5t-87.5 -130.5zM1087 182q2 0 3.5 -1t5.5 -1q29 59 59.5 118.5t61.5 119.5l-13 4zM123 -623q-16 -35 -27.5 -71.5t-3.5 -71.5z" />
<glyph unicode="K" horiz-adv-x="1185" d="M616 1759l23 8q-2 -6 -1 -11t-1 -11q-4 -10 -8 -17.5t-4 -17.5l22 37q8 14 17 6q2 -4 5 -6t-1 -6q-27 -63 -52.5 -126t-50.5 -128q-37 -92 -70.5 -184.5t-66.5 -184.5q-23 -59 -41 -116.5t-37 -116.5q-12 -41 -24.5 -84t-24.5 -86q-39 -145 -76 -289.5t-73 -290.5 q-16 -57 -28.5 -112.5t-27.5 -112.5q0 -4 -1 -7t1 -7q0 -2 4 -2q4 12 11.5 25t11.5 26q45 186 90 368.5t94 366.5q43 154 91 305.5t100 304.5q33 94 70.5 186.5t74.5 184.5l23 55q4 8 9 14.5t9 12.5q4 -8 9 -16.5t5 -16.5q-4 -18 -10 -36.5t-12 -35.5q-37 -100 -75 -198.5 t-73 -198.5q-35 -98 -65.5 -196.5t-59.5 -196.5q-41 -139 -75.5 -276.5t-69.5 -276.5l-51 -195l-6 -26q6 6 9 8t7 6q123 186 260 360.5t283 348.5q117 135 234.5 266t244.5 258q39 37 79 69.5t83 65.5q61 49 112 10q14 -10 25 -32q2 -4 -2 -10.5t-8 -8.5q-63 -31 -116.5 -77 t-102.5 -95q-145 -139 -277.5 -283.5t-261.5 -295.5q-55 -66 -108.5 -131.5t-106.5 -131.5q-10 -14 -11 -21t13 -15q45 -25 66.5 -67t25.5 -91q8 -61 11.5 -124t3.5 -126q0 -72 -3.5 -143.5t-3.5 -143.5q2 -33 8.5 -62.5t10.5 -62.5q4 2 10 2q4 6 8 12.5t8 12.5l203 377 l318 571q23 35 46 71t46 73l8 10q14 16 25.5 16t25.5 -4t10 -14t-8 -21q-45 -82 -90 -162.5t-88 -162.5q-80 -154 -157.5 -304.5t-155.5 -304.5q-23 -47 -49.5 -91t-55.5 -89q-27 -47 -65.5 -61.5t-85.5 -10.5q-49 4 -71.5 35t-37.5 70q-20 57 -23 117.5t-1 122.5 q0 98 2 197t2 198q0 25 -3 49.5t-8 48.5h-10l-67 -90q-94 -129 -175 -261t-139 -274q0 -4 -2 -5t-2 -3q-4 -12 -8 -26.5t-10 -18.5q-20 -6 -42 -11t-42 -3q-33 2 -38 11t-5 46q0 82 17.5 163t33.5 163q18 88 37.5 175t42.5 175q41 160 84 316.5t90 316.5q94 328 252 649 q33 63 74 129q18 33 32 6q-16 -29 -30.5 -54.5t-26.5 -53.5q-59 -133 -115.5 -264.5t-97.5 -266.5q-37 -127 -77 -252t-77 -254q-33 -117 -60.5 -233.5t-55.5 -232.5q-29 -117 -53.5 -234t-36.5 -233v-27q8 6 8 10q10 68 18 136.5t25 136.5q29 125 61.5 249.5t63.5 249.5 q35 143 73.5 286.5t83.5 287.5q92 303 228 594q16 39 35.5 76.5t37.5 76.5zM367 1055q-18 -45 -43 -125t-53.5 -182.5t-60.5 -218t-60.5 -231.5t-54 -223.5t-44 -193.5t-29 -143t-6.5 -70q148 699 351 1387zM215 426q-2 0 -3 1t-3 1l-86 -350h4zM264 434l-41 -164 q-4 -12 -2 -18h4l49 205q-10 -15 -10 -23zM608 -240q2 0 3 1t3 1l2 74q-2 0 -3 -1t-5 -1q2 -18 1 -37t-1 -37zM215 217h-10l-19 -86q13 41 29 86zM182 113l-26 -101h6zM78 -106h2l31 141h-2zM313 618h4l15 70h-4zM242 549h-2l-15 -72h2zM303 561h-4l-6 -31q2 11 10 31z" />
<glyph unicode="L" horiz-adv-x="1349" d="M1700 -633l-4 12q-16 20 -16.5 45t8.5 54q10 45 -2.5 65.5t-57.5 36.5q-92 35 -192.5 54.5t-206.5 27.5q-74 4 -147.5 8t-151.5 0q-117 -6 -231.5 -19t-231.5 -24q-92 -10 -184.5 -17t-184.5 3q-47 6 -79.5 26.5t-57.5 55.5q-6 10 -8 20.5t-6 22.5q-2 10 4 15t16 -1 q47 -29 105.5 -28.5t115.5 6.5q86 10 171 22t171 23q25 2 33 28q57 145 112.5 290t119.5 290q55 129 124.5 252t143.5 246q4 8 9 17t11 22l-63 -21q-90 -29 -177 -47t-175 -23q-55 -2 -106.5 7.5t-100.5 25.5q-12 4 -23.5 12.5t-21.5 18.5q-4 4 -4 9t-2 9l13 6.5t11 2.5 q23 -2 44.5 -5.5t43.5 -3.5q59 4 116.5 7.5t115.5 13.5q98 16 194 46t193 66q29 10 47 39q92 143 201.5 271.5t238.5 244.5q53 47 108.5 88.5t118.5 71.5q88 39 158 -2q33 -18 47.5 -57t-8.5 -88q-35 -76 -98 -152q-109 -129 -240 -221t-276 -166q-10 -4 -18.5 -9t-18.5 -9 q-43 -14 -70.5 -42t-50.5 -67q-80 -135 -160 -266t-157 -266q-74 -129 -138.5 -262.5t-124.5 -268.5q-6 -16 -12 -30.5t-14 -30.5t-4 -20.5t20 -2.5q68 4 135.5 7.5t135.5 0.5q135 -4 268 -15t260 -46q57 -16 109.5 -37.5t93.5 -60.5q37 -35 57 -79t12 -101q-4 -31 -16 -56 t-45 -45zM1456 1196q2 0 4 1t4 1h2q98 51 186.5 111.5t166.5 140.5q47 47 83.5 98t59.5 111q2 6 2 22q-4 -2 -11 -2t-11 -4q-33 -23 -65 -44t-60 -46q-92 -78 -171 -162t-151 -176zM809 207l217 393q55 96 112.5 192.5t116.5 194.5q-12 -6 -46.5 -58t-81 -129t-98.5 -169 t-98 -176t-80 -151.5t-42 -96.5zM1348 1143l8 -6q51 61 101 122.5t104 120.5q53 59 110.5 116.5t114.5 115.5q-129 -102 -235.5 -220t-202.5 -249zM1194 954q-4 4 -10 4l-164 -274l8 -4zM1288 1114q2 0 6 -4q51 68 101.5 134.5t103.5 131.5q-59 -61 -111.5 -126.5 t-99.5 -135.5zM1235 1085l188 254q-55 -59 -102 -121.5t-86 -132.5zM1141 934q-4 0 -4 1t-4 1l-80 -135l4 -4zM1882 1427l4 -4q29 31 56.5 62t44.5 67z" />
<glyph unicode="M" horiz-adv-x="1916" d="M1040 870q37 55 75 110.5t79 111.5q102 139 205.5 276t230.5 262q59 59 126 106.5t145 80.5q41 16 78.5 15t66.5 -16.5t45 -47t14 -76.5q0 -55 -11 -111.5t-28 -112.5q-49 -178 -123.5 -349t-140.5 -345q-63 -160 -126.5 -319.5t-125.5 -321.5q-33 -92 -62.5 -185 t-60.5 -186l-38 -120v-6.5t4 -6.5q8 12 14 19q84 135 165 266t167 264q66 102 134.5 200.5t133.5 199.5l43 63q10 12 27.5 16.5t29.5 -4.5q14 -10 9 -20t-13 -21q-72 -111 -145.5 -221t-142.5 -223q-59 -98 -116 -194.5t-116 -194.5q-39 -59 -77 -116.5t-76 -117.5 q-49 -84 -142 -90q-35 -2 -41 31q-8 33 -5 67.5t11 71.5q20 111 50 217.5t71 216.5q61 174 126 345t132 346q53 135 111.5 269t111.5 271q37 92 70 185.5t68 185.5q4 18 6 37.5t6 38.5q4 29 -3 33t-34 -7q-49 -20 -95 -46.5t-87 -61.5q-72 -61 -135.5 -131t-120.5 -144 q-80 -100 -160 -199.5t-153 -203.5q-78 -109 -152 -216.5t-133 -223.5q-16 -31 -27.5 -62t-23.5 -59q-4 -10 -8.5 -19.5t-10.5 -19.5q-4 -4 -11 -6t-11 -2t-6.5 6t0.5 10q4 14 9 27.5t7 29.5l-25 -49q-4 -12 -7 -12t-17 -4q-16 -6 -31 -2q-18 4 -20 15t2 26q2 20 6 38.5 t10 39.5q29 98 57.5 194t61.5 195q25 76 54.5 151.5t55.5 151.5q27 80 49.5 158.5t47.5 158.5q4 10 1 18.5t-3 18.5q-8 -4 -16.5 -9t-18.5 -11q-78 -59 -142.5 -130t-123.5 -147q-166 -205 -305.5 -418t-256.5 -440q-14 -29 -26.5 -56.5t-26.5 -56.5q-14 -33 -35 -12h-6 q-10 0 -18 -2t-17 2q-12 4 -20 11.5t-4 27.5q4 41 8 80t12 80q12 59 26.5 120.5t31.5 120.5q37 135 87 267.5t111 263.5q41 84 84 165t84 163q6 10 14.5 19t18.5 13q6 4 15.5 -1t17.5 -9q33 -23 38 -39t-12 -57q-41 -98 -79.5 -195.5t-77.5 -195.5q-35 -86 -64 -171 t-57 -171q-8 -12 -4 -33l22 33q98 158 205 308t229 294q53 63 110.5 119.5t123.5 105.5q94 76 156 -8q25 -37 27.5 -83t-9.5 -93q-16 -74 -36.5 -147.5t-43.5 -145.5q-16 -53 -35.5 -104.5t-38.5 -104.5l-4 -23h4zM1380 -236q123 377 275.5 750t298.5 746 q-164 -373 -310.5 -744t-263.5 -752zM1888 1272q-10 -18 -38.5 -82t-65.5 -151t-77 -183t-72.5 -180t-53 -141.5t-20.5 -65.5q82 201 162.5 399.5t164.5 403.5zM1559 385q2 -2 6 -2l264 661q-78 -166 -142.5 -329.5t-127.5 -329.5zM934 721q4 0 8 -2l57 174h-6zM805 516 q2 0 3 -1t3 -1q8 29 15.5 58.5t17.5 58.5q-2 0 -3 1t-3 1zM1327 -455h8l8 58q-2 -2 -8 -2q-2 -14 -3 -28t-5 -28z" />
<glyph unicode="N" horiz-adv-x="1632" d="M96 8q-4 -10 -11 -17t-17 3q-2 2 -8.5 -3t-8.5 -3q-8 10 -21.5 6t-23.5 -2q-4 0 -5 9t1 15q10 37 20.5 74t24.5 74q37 113 75 225.5t77 224.5q35 98 70.5 192.5t70.5 192.5q33 86 64.5 172t66.5 172q20 51 43 100.5t45 100.5q12 31 41 19q10 -6 23.5 -7.5t23.5 -7.5 q39 -31 21 -86q-47 -147 -94.5 -293.5t-96.5 -294.5q-8 -25 -15 -48t-11 -50l32 43q125 178 260.5 347t288.5 327q111 115 230.5 215t255.5 186q31 20 63.5 36t67.5 28q59 25 113.5 10.5t84.5 -59.5q29 -43 33 -93.5t-6 -107.5q-16 -80 -42 -160t-60 -157 q-55 -131 -114 -261.5t-112 -261.5q-111 -264 -209 -534q-51 -139 -97 -278.5t-93 -280.5q-10 -29 -18.5 -56.5t-16.5 -56.5l6 -4q12 8 21 20q59 78 117.5 154t111.5 156q100 150 195.5 299t193.5 301q16 29 33.5 36t46.5 -3q6 -6 2 -19q-18 -37 -37.5 -72.5t-40.5 -72.5 q-86 -158 -183 -309.5t-202 -301.5q-74 -106 -166 -211q-78 -90 -192 -79q-23 2 -36 12t-15 33q-6 51 2 94q20 109 50 214t68 212q59 166 120 331.5t126 331.5q47 117 99.5 231.5t101.5 231.5q47 111 93 218.5t91 215.5q41 100 39 189q-2 23 -6 25.5t-27 -5.5 q-47 -16 -88 -39.5t-82 -52.5q-147 -104 -278 -222t-252 -253q-147 -164 -278.5 -334t-251.5 -350q-53 -78 -104.5 -158t-98.5 -159q-29 -47 -49.5 -97.5t-42.5 -99.5q-10 -23 -21.5 -47.5t-23.5 -46.5q-6 -12 -17 -23q-10 -10 -21.5 -12t-19.5 12zM1190 74q8 8 10 14 l182 487q66 174 140.5 344.5t150.5 344.5q25 53 46.5 108t43.5 111q-12 -8 -14 -21l-78 -174q-41 -88 -82 -174t-76 -176q-76 -188 -146.5 -375.5t-141.5 -378.5q-10 -29 -17.5 -55t-17.5 -55zM1665 1430q-4 0 -5 1t-5 1q-92 -205 -184.5 -408t-163.5 -414q43 104 85 206 t87 204q47 104 93 206t93 204zM1642 1303q-92 -186 -170.5 -369.5t-144.5 -374.5q78 186 157.5 372t157.5 372zM516 1122h-8l-199 -542q6 0 8 -2q6 10 12.5 19t10.5 19zM219 436h12l187 533h-10zM422 1094q-76 -174 -137.5 -348.5t-114.5 -352.5zM1061 -375q2 2 8 2l35 166 q-12 -41 -27.5 -81t-15.5 -87zM1151 -37l-16 -55q12 20 18 43l27 94zM1004 -326h-7l-2 -55q2 2 6 2q2 14 2.5 27.5t0.5 25.5z" />
<glyph unicode="O" d="M39 193q23 98 61.5 191t87.5 185q31 59 65 113.5t69 112.5q14 20 16 41q27 156 93.5 298t180.5 273q78 90 166 162.5t193 122.5q92 43 180 54t165 -8.5t138.5 -68.5t97.5 -125q29 -59 46.5 -120.5t9.5 -133.5q-6 -78 -23.5 -157.5t-50.5 -157.5q-49 -113 -104.5 -222.5 t-120.5 -217.5q-59 -98 -132 -188.5t-151 -176.5q-66 -78 -141.5 -145.5t-155.5 -128.5q-66 -49 -133.5 -91.5t-142.5 -66.5q-88 -29 -168 -27t-146 53q-49 41 -74.5 95.5t-35.5 120.5q-6 53 -4 105.5t14 107.5zM367 541q-8 -8 -9 -11q-45 -92 -86 -184t-59 -188 q-18 -92 -11 -176t58 -154q29 -41 55.5 -46t79.5 17q4 2 8.5 4t8.5 4q106 49 200.5 119t180.5 154q162 160 293 334t229 370q61 123 107 243t61 249q10 92 -7.5 173t-64.5 150q-25 35 -60.5 52.5t-84.5 13.5q-53 -4 -107.5 -18.5t-107.5 -42.5q-121 -63 -216.5 -150.5 t-175.5 -196.5q-61 -82 -108 -188q14 10 22.5 15.5t16.5 11.5q33 18 56.5 12t33.5 -35l4 -4q23 -8 25 -16.5t-19 -28.5q-63 -66 -114.5 -139.5t-98.5 -151.5q-8 -16 -8 -24q2 -53 11 -102.5t32 -90.5q35 -53 70.5 -105.5t70.5 -105.5q6 -8 4 -16q-6 -10 -16 -10 q-33 -4 -62.5 -1t-52.5 29l-135 187q-8 10 -13 21.5t-11 25.5zM348 618h-10q-59 -115 -112.5 -229.5t-69.5 -236.5q10 27 18 53t19 51q37 84 72.5 166t72.5 164q8 18 10 32zM332 735q-18 -16 -44 -57t-54.5 -94.5t-56 -113.5t-48 -112.5t-32 -92.5t-7.5 -54 q41 137 102.5 267t139.5 257zM1497 979l-237 -459q76 111 133 225.5t104 233.5zM735 1409q-96 -90 -158.5 -190.5t-97.5 -217.5q47 111 108.5 212.5t147.5 195.5zM643 1028q-4 0 -5 -1t-3 -1q-45 -41 -82 -87t-70 -97q-4 -4 -4 -11.5t-2 -17.5zM332 672q-66 -102 -114 -207 t-81 -215q43 109 91.5 213.5t103.5 208.5zM422 1028l115 227q-41 -53 -68 -110.5t-47 -116.5zM584 1272q-4 0 -4 1t-2 1q-25 -43 -49.5 -86t-47.5 -86l4 -4zM1411 907q-2 0 -4 1t-4 1l-92 -186q4 0 4 -2zM1386 797q-2 2 -8 2q-16 -33 -33.5 -66t-33.5 -67q2 0 2 -1t2 -1z M492 913l8 -4q8 10 16 21.5t19 21.5l-5 4z" />
<glyph unicode="P" horiz-adv-x="1392" d="M16 -639q-8 -18 -22 -24.5t-35 -10.5q-31 -4 -37 11.5t-8 35.5q2 57 4 113.5t8 116.5q16 135 47 268t66 268q25 104 51.5 204.5t54.5 205.5q37 127 75 253t75 253l104 334q4 16 10.5 29.5t12.5 29.5q4 10 10 17.5t19 2.5q12 -4 9 -11t-7 -15q0 -4 -1 -8t1 -9l12 23l16 20 l19 -18q6 4 15 11t13 -15q-4 -4 2 -4q25 -8 29 -14.5t-2 -34.5q-12 -59 -25.5 -117.5t-27.5 -118.5q-23 -86 -45.5 -173t-44.5 -173q-4 -16 -8.5 -29.5t-4.5 -29.5l29 53q78 160 170 313.5t207 296.5q92 117 192.5 221.5t227.5 186.5q61 41 125.5 65.5t132.5 20.5 q88 -4 151.5 -38t85.5 -120q14 -45 11.5 -94t-13.5 -101q-33 -150 -95 -291t-140 -282q-55 -98 -118.5 -190.5t-135.5 -182.5q-78 -92 -167 -171t-198 -132q-221 -113 -436 -59q-10 2 -17 4t-16 6q-10 6 -14 21q4 14 20 22q20 10 39 11t39 -3q59 -10 121 0t127 47 q72 41 133.5 91.5t120.5 109.5q78 80 140.5 170t121.5 182q59 94 109.5 191.5t93.5 197.5q41 92 76 183.5t49 187.5q4 29 5 58.5t-3 58.5q-4 33 -17.5 41t-48.5 4q-121 -14 -231 -100q-100 -78 -185 -167t-169 -188q-150 -176 -257.5 -366.5t-197.5 -391.5 q-68 -150 -126 -298t-103 -302q-39 -123 -74 -245.5t-70 -245.5q-10 -35 -18 -72t-15 -71q-4 -12 -6 -17q-8 -6 -15 -11t-13 -9q-2 0 -5.5 5t-7.5 9zM-51 -573h8q2 6 2 12t2 14q6 59 11 117.5t16 118.5q35 184 80 360q23 98 47 194.5t53 194.5q35 133 75 264.5t76 266.5 q4 14 6.5 27.5t6.5 27.5q-2 -2 -6 -2l-125 -428q-29 -102 -56.5 -203.5t-54.5 -206.5q-25 -92 -47.5 -184t-42.5 -184q-12 -76 -23.5 -152t-21.5 -151q-4 -23 -4 -43t-2 -43zM25 -274l315 1187q-96 -299 -174 -593.5t-141 -593.5zM205 289q70 203 126 403.5t105 403.5 q-61 -203 -121.5 -402.5t-109.5 -404.5zM1645 1458q-33 -68 -62 -136.5t-61 -135.5q-33 -66 -67 -133.5t-69 -132.5q175 253 259 538zM1391 1083q53 90 94 180.5t69 184.5zM1552 1327q-4 0 -4 2l-123 -258q0 -2 5 -2q37 61 67 126.5t55 131.5zM186 299q4 0 4 -2l103 367 q0 2 -4 2zM483 741q4 0 9 -2q8 16 15 32.5t15 33.5q-4 0 -6 2zM150 154q-2 0 -3 -2l-12 -62h2zM162 201h2l12 59h-2z" />
<glyph unicode="Q" horiz-adv-x="1617" d="M750 -901q-63 -18 -127 -2q-63 14 -102.5 53t-63.5 92q-39 78 -52.5 164t-17.5 178q-2 18 -1 38t-1 40q2 16 -16 23q-68 10 -127.5 31.5t-106.5 66.5q-59 53 -83.5 126t-20.5 161q6 160 69.5 310t161.5 296q90 139 219 258q29 23 57.5 44t57.5 44q16 16 22 31 q51 147 133.5 277t190.5 253q51 57 108.5 107.5t123.5 91.5q63 39 139 58.5t148.5 15t135 -35t103.5 -91.5q57 -86 79.5 -185.5t14.5 -210.5q-10 -174 -67.5 -344t-141.5 -338q-70 -139 -159 -265t-193 -247q-154 -178 -348 -311q-164 -104 -340 -135q-33 -6 -33 -35 q-4 -111 5 -217.5t56 -200.5q20 -45 54.5 -77.5t87.5 -43.5q10 -2 19 -6t20 -8q-2 -2 -2 -3t-2 -3zM475 -231h8l23 100q2 6 5 11t7 9q12 -6 21 -14q2 -4 0 -9t-4 -11q-2 -18 -5.5 -37t-7.5 -37q-6 -27 23 -21q29 8 57.5 15.5t56.5 17.5q76 31 140.5 80t128.5 102 q111 96 201 205t171 226q72 106 128.5 215.5t101.5 224.5q53 131 89 260t40 262q4 98 -11.5 187.5t-68.5 164.5q-20 29 -45 51.5t-70 18.5q-35 -2 -69.5 -13.5t-69.5 -29.5q-78 -43 -144.5 -101.5t-125.5 -125.5q-80 -96 -144.5 -196.5t-111.5 -211.5q-6 -16 -4 -23.5 t18 -11.5q12 -2 22.5 -8t20.5 -14q2 0 3 -4t1 -7q-4 -2 -7 -4t-7 -2q-14 -4 -27.5 -6t-27.5 -6q-29 -6 -35 -37q-8 -53 -19.5 -103t-15.5 -102q-12 -123 13.5 -231.5t78.5 -206.5l74 -127l22 -24l8.5 -8.5t2.5 -8.5q-4 -14 -15 -20q-14 -10 -39 -17q-31 -10 -57.5 -7 t-44.5 26l-64 84q-86 127 -123.5 272.5t-11.5 317.5q2 4 1 8t-1 8q-4 4 -6 4q-2 -4 -10 -12q-27 -35 -53.5 -67t-53.5 -66q-94 -129 -155.5 -266.5t-79.5 -284.5q-12 -86 0 -162t59 -141q39 -53 105 -82q23 -6 24 16q2 14 4 28.5t7 28.5q4 18 8 28.5t11 16t19.5 7.5t32.5 4 q23 0 26 -6.5t-3 -28.5q-8 -25 -13.5 -49t-11.5 -49zM297 567q-35 -68 -64.5 -133t-51 -130.5t-30 -131.5t2.5 -133q2 66 11 131.5t32 130.5q23 66 48 131t52 135zM1612 795q53 109 86 216t49 216zM717 983q-16 -12 -27.5 -55t-17.5 -94.5t-6 -99.5t10 -68q-4 78 7 155.5 t34 161.5zM735 1085h8q29 59 57.5 117t57.5 117q-37 -57 -68.5 -115t-54.5 -119zM96 260q-8 -23 -15 -53.5t-10 -62t-3 -58.5t4 -37zM1683 1210h-8q-16 -66 -34.5 -129t-34.5 -127q4 0 4 -1t2 -1zM1704 1161q-2 2 -6 2v-2l-66 -219h8zM616 899q-8 -14 -14 -41t-9 -56.5 t-3 -54t4 -34.5zM147 307q-41 -111 -34 -209q8 51 16 103.5t18 105.5zM627 768q4 0 6 2l29 168h-9zM442 -143h-8l-6 -58h2z" />
<glyph unicode="R" horiz-adv-x="1419" d="M668 1710h4q20 2 23 -1t1 -21q12 6 22.5 -2.5t8.5 -24.5q-4 -14 -8 -27.5t-8 -27.5q-31 -84 -65 -165t-62 -165q-31 -86 -59.5 -171t-57.5 -171l-37 -121q-4 -8 -5 -15t-3 -14q2 -2 6 -2l21 39q109 193 232.5 373t283.5 342q96 98 201.5 180t226.5 146q86 45 173 68.5 t179 17.5q84 -4 142.5 -55.5t64.5 -131.5q4 -47 -9.5 -93t-33.5 -93q-41 -98 -105.5 -181t-142.5 -161q-84 -86 -173 -163t-181 -148q-100 -78 -204 -145.5t-220 -119.5q-78 -35 -154 -69.5t-154 -69.5l-30 -16l41 -39q47 -49 76.5 -110.5t50.5 -129.5q29 -92 32 -189 t-2 -198q-2 -92 -3 -182t-1 -182q-2 -20 1 -40t8 -42l17 17t13 15q59 94 118.5 186.5t119.5 186.5q92 150 184 297.5t195 292.5q43 59 85 119.5t83 120.5q25 31 57 24q27 -6 8 -31q-27 -37 -53.5 -73.5t-50.5 -75.5q-98 -156 -197.5 -310.5t-198.5 -314.5q-51 -84 -95 -168 t-95 -170q-43 -74 -107 -143q-37 -41 -83 -56.5t-93 -11.5q-25 2 -38 16.5t-23 35.5q-35 84 -42 174t-3 184q2 98 5 196.5t-7 196.5q-8 61 -23.5 119.5t-42.5 112.5q-16 33 -32.5 62.5t-32.5 60.5q-4 4 -4 11t-2 11l-15 -6q-14 -29 -27.5 -58.5t-25.5 -60.5 q-39 -92 -77 -182t-72 -182q-18 -53 -30.5 -108.5t-27.5 -108.5l-41 -154q-2 -6 -5 -12t-5 -13q-6 -12 -13.5 -22t-21.5 -6q-6 2 -8 10t-6 14l-2 -2q-16 -45 -56 -35q-31 4 -38 11.5t-2 42.5q10 76 20 150.5t25 150.5q23 133 61.5 263t79.5 261q29 94 55.5 186.5t54.5 184.5 q53 166 106.5 331.5t131.5 329.5q59 127 119 250q16 35 39 21q2 -2 1 -5.5t-1 -7.5q12 4 24.5 9.5t14.5 -17.5zM444 567q10 4 17.5 6t15.5 7q66 31 130.5 60.5t127.5 61.5q45 23 87 44.5t85 46.5q102 61 196.5 133.5t186.5 152.5q106 94 204.5 194.5t184.5 217.5 q51 70 90 141.5t50 149.5q4 16 3 30.5t-3 28.5q-6 31 -43 31q-96 2 -187.5 -30t-179.5 -83q-168 -98 -304 -228t-253 -282q-207 -266 -344 -555zM633 1524q-2 0 -3 1t-3 1q-123 -268 -207 -539.5t-166 -544.5q12 12 16 29l35 107l111 340q29 88 56.5 175t57.5 175 q23 66 50.5 128t52.5 128zM549 1526q-16 -20 -48 -93t-70 -173.5t-78 -215t-72.5 -215t-54 -175t-21.5 -97.5q43 119 80 241t76.5 243.5t85 242.5t102.5 242zM684 -477q0 123 8 244.5t-2 240.5q-4 -18 -6 -58t-4 -91.5t-3 -106.5t0 -103t2 -83t5 -43zM444 1163 q-59 -154 -108 -308.5t-94 -309.5h6zM1688 1325q27 25 57.5 62.5t57 75.5t44 72t19.5 50zM61 53h-8q-23 -94 -42 -188t-27 -189zM606 -31q-4 -2 -8 -2q0 -96 -5 -191t5 -188zM1704 1466l6 -4q23 35 45.5 71t44.5 71q-2 0 -3 1t-5 1zM1808 1548q-2 0 -6 4l-73 -108 q8 -4 10 -4zM645 -186h-6l-4 -68h8zM594 1640q2 0 3 -1t5 -1q6 16 12.5 35t12.5 37q-10 -16 -17.5 -35t-15.5 -35z" />
<glyph unicode="S" horiz-adv-x="1484" d="M184 -909q-59 2 -109 5t-91 27q-68 41 -86 115q-10 66 2 133.5t37 134.5q33 88 89 163t126 143q66 66 139.5 121t144.5 112q74 55 148.5 103.5t152.5 95.5q53 33 109.5 62.5t114.5 58.5q16 8 22 15t2 23q-20 72 -38.5 143.5t-39.5 143.5q-25 86 -53.5 169t-48.5 169 q-37 156 -9.5 311.5t132.5 313.5q102 158 262 231q84 37 159.5 36t143.5 -36q10 -4 19.5 -6t23.5 4q18 10 40.5 1t31.5 -28q2 -2 5 -2t3 -4q6 -6 10 -12t-4 -18q-33 -59 -64.5 -116.5t-58.5 -117.5q-33 -70 -57.5 -139.5t-48.5 -138.5q-10 -29 -11.5 -58.5t-5.5 -58.5 q-2 -14 -5 -18.5t-17 -2.5q-51 6 -70.5 33t-9.5 86q12 59 28.5 118.5t34.5 119.5q20 57 46 114.5t51 114.5q4 10 10 21.5t10 21.5q27 45 -20 37q-25 -4 -51.5 -8t-51.5 -15q-96 -41 -162.5 -107.5t-113.5 -156.5q-33 -63 -55.5 -128.5t-30.5 -131.5q-4 -37 -4 -73.5v-73.5 q4 -76 25.5 -143.5t45.5 -133.5q35 -98 72 -190t59 -197q2 -12 8.5 -12t16.5 4q66 27 127 52.5t127 49.5q53 20 105.5 32.5t105.5 14.5q20 2 45 -8q4 -2 7 -6t7 -8l-20 -14q-37 -10 -73 -19.5t-73 -23.5q-57 -23 -113.5 -47.5t-115.5 -49.5l-117 -51q-12 -6 -15 -12t-3 -17 q2 -63 5 -125.5t-1 -127.5q-4 -109 -27.5 -215.5t-75.5 -215.5q-16 -35 -39.5 -69.5t-48.5 -69.5q-66 -86 -147.5 -155.5t-173.5 -126.5q-240 -148 -494 -166zM979 -152q4 53 11 105.5t11 105.5q4 51 2 100.5t-4 98.5q2 25 -3 27t-27 -13l-107 -59q-76 -45 -149.5 -87 t-147.5 -89q-82 -53 -157.5 -112.5t-147.5 -131.5q-57 -57 -103 -118.5t-77 -133.5q-31 -70 -43 -136.5t4 -131.5q23 -94 117 -104q35 -4 72.5 -2t72.5 10q174 35 307 138t244 245q53 66 80 138t45 150zM1096 -160q33 117 44 231.5t-7 225.5q-4 -115 -9 -227.5t-28 -229.5z M944 1407q18 43 36.5 84t43.5 82q23 39 48.5 77t49.5 72q-25 -16 -51.5 -49t-51 -76t-44 -92t-31.5 -98zM1075 -33q8 23 14.5 63t8.5 82t0 76.5t-8 44.5zM1044 256q-2 -68 -4 -135.5t-2 -136.5q6 18 10.5 56t5.5 80t-1.5 80t-8.5 56zM1542 1761l-6 4q-37 -72 -68.5 -144.5 t-54.5 -145.5q31 72 62.5 143t66.5 143zM981 1661q-39 -43 -61.5 -91t-38.5 -100q25 47 49 95.5t51 95.5zM0 -569q-10 -41 -14 -80t12 -78zM1020 1649q-25 -18 -48.5 -61.5t-31.5 -76.5zM-76 -725l8 4l-4 66q-4 0 -6 -2zM-35 -645h-8v-51h6zM1454 1737l4 -4l31 59q-4 0 -4 2 zM1169 201h-6v-68h4z" />
<glyph unicode="T" horiz-adv-x="1142" d="M1038 1794q-51 -8 -98 -13t-94 -16q-106 -18 -211 -37.5t-209 -39.5q-16 -4 -27.5 -1t-13.5 21q-2 10 -5 17.5t-7 15.5q-6 29 28 39q55 12 109.5 25.5t107.5 23.5q164 27 327 51.5t323 44.5q131 16 259 21.5t255 -4.5q53 -4 106.5 -13.5t100.5 -34.5q41 -18 63.5 -51 t32.5 -74q2 -8 1 -16t-1 -16h-10q-51 53 -119 73.5t-146 26.5q-113 10 -227.5 6t-230.5 -14q-25 -4 -48.5 -4t-50.5 -4q-6 -2 -14 -6.5t-12 -10.5q-47 -86 -92 -170t-84 -170q-72 -160 -140.5 -320.5t-134.5 -322.5q-72 -172 -131 -343t-104 -345q-18 -72 -37 -143.5 t-35 -143.5q-16 -86 -24.5 -170t10.5 -161q4 -18 12 -35t16 -33q6 -12 15.5 -11t19.5 11q25 25 50.5 48.5t43.5 51.5q47 66 90 133.5t86 137.5q92 152 181.5 302t183.5 302q27 45 59.5 87t63.5 85q12 14 35 22q10 4 17 1t15 -3q-4 -8 -6 -15t-8 -15q-86 -113 -150.5 -233 t-136.5 -240q-68 -117 -135 -234t-135 -233q-35 -55 -71.5 -107.5t-86.5 -93.5q-47 -41 -100 -61.5t-108 -10.5q-33 4 -53.5 24.5t-35.5 49.5q-47 90 -50 190.5t20 210.5q25 143 63.5 284.5t85.5 283.5q70 207 146.5 408.5t169.5 406.5q41 98 86 193.5t92 191.5 q20 41 45.5 79t48.5 79zM1182 1808q-2 0 -3 1t-3 1q-4 -4 -7.5 -9t-7.5 -9q-45 -86 -92 -171t-88 -173q-92 -182 -166 -369q-45 -102 -85 -202.5t-79 -204.5q-25 -66 -48 -133.5t-46 -135.5q-23 -66 -41 -132t-37 -132q-29 -100 -53.5 -199.5t-34.5 -199.5q-4 -31 -3 -60.5 t1 -60.5h8q0 10 2 16q0 63 9.5 127t23.5 129q35 154 77 305.5t97 305.5q33 88 66 175t67 175q41 100 83 199.5t83 199.5q35 78 70 154t72 151q29 59 61.5 116t65.5 114zM602 762q4 0 4 -2l12 22l197 471q59 137 121.5 270.5t150.5 262.5q4 8 5 12q-4 0 -7 2l-16 -24 q-106 -160 -178 -324q-57 -133 -113.5 -263t-111.5 -263q-18 -41 -33 -82t-31 -82zM924 1421q-35 -72 -62 -137q-53 -121 -102 -239.5t-101 -241.5l-4 -19q2 -2 7 -2l26 74l197 457q14 35 26.5 69.5t28.5 69.5q-4 -8 -8 -15.5t-8 -15.5zM467 236q-25 -78 -48.5 -165 t-41 -164t-24.5 -133.5t1 -72.5q14 135 47 267.5t66 267.5zM406 166q-25 -80 -45.5 -160t-33 -147.5t-16.5 -116.5t4 -68q6 127 34 248t57 244zM971 1511q80 135 153 271l11 18q-14 -6 -17 -14q-29 -47 -56.5 -94t-53.5 -95q-16 -29 -28.5 -59.5t-27.5 -60.5zM432 -195h4 l25 113q-2 0 -4 2zM797 1069q-4 0 -4 2l-27 -61h6zM475 -16h4l15 69h-5zM393 -152l-16 -73h2l16 73h-2z" />
<glyph unicode="U" horiz-adv-x="2160" d="M1430 301l-127 -143q-57 -61 -112.5 -122t-115.5 -118q-53 -53 -111.5 -104.5t-117.5 -100.5q-29 -25 -58.5 -41t-64.5 -26q-137 -39 -182 73q-16 45 -18.5 94.5t3.5 100.5q8 59 16.5 115.5t20.5 113.5q20 78 44 154t50 154q53 154 110.5 303t111.5 303q25 68 44 136.5 t25 135.5q4 31 4 60.5t-4 58.5q-4 39 -23.5 53.5t-58.5 14.5q-55 0 -108 -13.5t-107 -34.5q-143 -53 -270 -161l-23 -25q-6 -4 -9 -10t-6 -10.5t-9 -6.5t-15 2q-61 31 -34 68q18 31 49 55q66 57 137.5 96.5t149.5 67.5q43 16 86 25.5t88 13.5q156 6 221 -110 q29 -47 37 -103.5t2 -116.5q-10 -88 -30.5 -176t-49.5 -176q-41 -131 -85 -261t-85 -261q-27 -76 -49.5 -149.5t-40.5 -149.5q-18 -72 -29.5 -140.5t-9.5 -138.5q2 -23 7 -45t11 -45q4 -18 12.5 -19t26.5 13q41 31 81 62.5t77 66.5q98 88 189 181.5t180 193.5q45 51 92 101 t94 102q20 20 30.5 42.5t20.5 47.5q41 143 97.5 283.5t121.5 281.5q49 100 101.5 199.5t103.5 199.5q0 4 2 4q20 39 29.5 46.5t32.5 -0.5q29 -12 41 -29t-3 -51q-29 -63 -56.5 -127t-57.5 -127q-66 -143 -123 -285.5t-105 -290.5q-78 -246 -141 -491q-25 -98 -45 -196.5 t-37 -197.5q-10 -59 -12 -118.5t14 -114.5q4 -12 9.5 -24.5t13.5 -22.5q16 -29 47 2q29 33 58.5 65.5t53.5 67.5q53 78 101.5 158t99.5 160l434 675q6 10 12.5 19.5t14.5 17.5q14 14 25 17q8 2 15 1t15 -1q-4 -12 -10 -27l-270 -442q-72 -123 -143.5 -243t-147.5 -241 q-39 -63 -83 -123.5t-103 -109.5q-86 -70 -177 -64q-23 2 -39 14.5t-28 28.5q-29 43 -37 94.5t-6 104.5q2 104 19.5 208.5t39.5 211.5q12 59 27.5 120.5t30.5 120.5l4 21zM1417 -487q-8 80 0 162.5t25 166.5q27 135 57.5 268.5t73.5 268.5q29 98 60.5 194.5t68.5 194.5 q51 131 108.5 261t114.5 261l10 29h-4l-37 -74q-90 -180 -163.5 -361.5t-131.5 -367.5q-35 -117 -65.5 -230.5t-58.5 -230.5q-25 -104 -44.5 -205.5t-27.5 -205.5q-2 -35 -1 -67.5t15 -63.5zM637 -225v10q0 115 21.5 227.5t56.5 229.5q37 123 79 242.5t83 242.5l32 94 q-10 -16 -18 -32.5t-12 -32.5l-138 -387q-41 -117 -70.5 -233t-41.5 -232q-4 -33 -4 -65.5t12 -63.5zM811 659l-8 -8q-33 -96 -65.5 -189t-63.5 -190q-55 -176 -80 -350l-4 -86h6q4 27 6 51.5t6 51.5q16 78 30.5 157.5t37.5 157.5q25 86 55.5 169t59.5 169q6 16 10 31.5 t10 35.5zM1839 1260q-78 -158 -146.5 -312.5t-119.5 -306.5zM821 786h-6q-53 -143 -105.5 -286.5t-91.5 -290.5zM1599 604q45 113 88.5 223.5t90.5 223.5q-14 -18 -43 -84t-58.5 -141.5t-53.5 -140.5t-24 -81zM604 160q-12 -43 -23.5 -96.5t-18.5 -102.5t-9 -87t4 -50z M1462 106q-8 -4 -8 -8q-14 -59 -27.5 -119.5t-23.5 -119.5q-2 -6 -1 -13.5t1 -13.5zM1354 -276q-6 -16 -9.5 -42t-3.5 -52.5t2.5 -49t6.5 -31.5zM1403 -170q-16 -59 -22.5 -115.5t-4.5 -113.5q4 31 6 61.5t7 61.5q2 27 6 52t8 54zM1366 -156h4l53 252h-4zM674 8h2l18 84h-2z M1497 268h-2l-12 -61h2zM1444 193h-2l-10 -58h2z" />
<glyph unicode="V" horiz-adv-x="1372" d="M233 1100q20 78 45 170t54 190q10 33 25.5 64.5t29.5 62.5q6 14 15.5 24.5t27.5 8.5q20 -4 33.5 -13.5t13.5 -25.5l-6 -43q-25 -123 -48.5 -243.5t-43.5 -243.5q-23 -113 -38 -224.5t-32 -224.5q-16 -127 -32.5 -253t-28.5 -253q-12 -135 -2 -263t45 -251q4 -16 11 -31.5 t15 -29.5q27 -41 74 -6q43 29 82 67q98 92 182 193.5t164 208.5q86 117 159 239.5t138 249.5q53 104 107.5 207.5t101.5 210.5q49 111 91 220.5t81 219.5q23 72 37 142.5t29 142.5q6 35 4 70.5t-2 70.5q0 20 5 26.5t27 4.5q49 0 56 -66q8 -102 -13 -209q-23 -113 -59.5 -222 t-77.5 -222q-59 -166 -137 -323.5t-162 -317.5q-176 -332 -413 -621q-59 -72 -120 -141t-132 -129q-59 -49 -126 -76.5t-141 -25.5q-47 2 -75.5 25.5t-49.5 60.5q-29 55 -40 116.5t-19 122.5q-25 221 2 445q10 86 21.5 172t23.5 172q23 131 47 265t51 286zM272 711l-34 -224 q-25 -150 -38.5 -297t-9.5 -292q0 -18 2.5 -36t4.5 -34q8 8 6 14q-10 111 -3 222.5t23 226.5q12 102 27.5 203.5t30.5 205.5q2 6 1 11.5t-3 11.5q-7 -6 -7 -12zM199 682q-8 -23 -18.5 -76t-20.5 -121.5t-19.5 -144.5t-15.5 -142.5t-7 -114.5t3 -63q4 166 28.5 331t49.5 331z M1624 1597q-20 -92 -41.5 -180t-44.5 -178q31 90 54.5 178t31.5 180zM311 885q-6 0 -10 -2q-6 -35 -10 -67t-8 -66zM1540 1401h2l27 123h-2zM1556 1382h5l12 58h-4z" />
<glyph unicode="W" horiz-adv-x="2375" d="M1047 952q-35 -35 -67 -69.5t-67 -67.5q-104 -100 -206.5 -197.5t-212.5 -187.5q-41 -35 -86.5 -56.5t-96.5 -27.5q-90 -10 -136 23.5t-50 122.5q-4 59 5 119.5t28 121.5q29 109 72.5 212.5t99.5 207.5q45 84 96 163t123 146q35 31 68.5 47.5t74.5 10.5q45 -6 60 -39 q8 -14 -11 -19q-31 -6 -54 -23.5t-46 -39.5q-43 -45 -77 -94.5t-62 -100.5q-57 -102 -100.5 -205.5t-77.5 -212.5l-32 -106t-28 -107q-10 -39 -14 -77.5t6 -75.5q10 -35 39 -17q33 16 63.5 34t57.5 40q143 119 279 244t268 258q66 66 131 131.5t131 130.5q8 6 14 13.5 t14 15.5q57 63 111 14q8 -8 14 -10q18 -4 4 -29q-63 -90 -109 -183t-87 -190q-76 -176 -138.5 -351t-115.5 -355q-23 -74 -41.5 -148.5t-32.5 -150.5q-23 -109 -25 -212.5t33 -199.5q8 -27 21.5 -48t30.5 -44q16 -25 42.5 -22.5t55.5 18.5q33 18 64.5 39.5t60.5 46.5 q113 98 206 210t179 230q57 82 118.5 160t120.5 158q133 182 250 367.5t215 383.5q47 100 93.5 198.5t91.5 199.5q33 78 51 156.5t22 156.5v39q0 39 39 37q23 0 40.5 -14.5t21.5 -36.5v-60q-10 -90 -36 -176t-61 -172q-59 -135 -119.5 -266t-131.5 -262q-70 -129 -146 -253 t-158 -247q-98 -145 -202.5 -284.5t-214.5 -276.5q-78 -92 -163 -178t-190 -152q-82 -51 -165.5 -76.5t-170.5 -3.5q-51 12 -81.5 45t-49.5 78q-33 74 -40 156t-3 168q10 135 43 266t74 264q53 172 120 338t150 332q2 4 7 16v2zM1327 1229q-2 0 -2 1t-2 1l-20 -29 q-53 -78 -94.5 -158.5t-78.5 -164.5q-59 -133 -110 -264.5t-94 -266.5q-47 -143 -88 -286.5t-56 -288.5l-2 -68v-33.5t2 -33.5q4 8 5 15t1 15q2 90 17.5 179.5t40.5 179.5q35 117 69.5 229.5t73.5 224.5q53 154 115.5 303.5t140.5 296.5q18 37 40 74t42 74zM1223 1126 q-2 -2 -11 -14q-68 -117 -122 -236.5t-103 -242.5q-111 -270 -184 -547q-16 -63 -28.5 -125.5t-24.5 -124.5q-4 -16 -3 -30.5t-2 -30.5q61 346 184.5 681.5t293.5 669.5zM1143 1047q-6 -6 -15 -19q-49 -111 -101 -220.5t-97 -221.5q-43 -109 -79 -216.5t-71 -217.5 q-29 -92 -48 -181.5t-30 -181.5l-6 -88q43 346 165 680t282 666zM242 668q63 190 141 372.5t205 354.5q-137 -168 -215 -351t-131 -376zM446 1296q-6 -10 -14 -20t-12 -21q-63 -100 -111.5 -204.5t-87.5 -212.5l-18 -60q20 41 35.5 81t31.5 81q74 182 181 354l47 66 q-2 0 -3 1t-3 1zM2552 1567q-23 -66 -43.5 -133.5t-42.5 -135.5q33 66 54.5 134.5t31.5 134.5zM377 1124q2 0 3 -1t3 -1l111 187l-7 4zM883 70h-11l-38 -176l2 -3q10 45 22.5 89.5t24.5 89.5zM821 61q2 0 3 -1t3 -1l35 129h-6q-8 -33 -16.5 -63.5t-18.5 -63.5zM815 20 q-2 0 -2 1.5t-2 1.5l-31 -146h4zM885 270q2 0 2 -2l22 64q-2 2 -6 2z" />
<glyph unicode="X" horiz-adv-x="1691" d="M670 84q-70 -106 -138.5 -213t-129 -216.5t-109.5 -223t-78 -232.5q-8 2 -15 4t-16 2q-27 -2 -32 27q-10 53 3 108.5t35 112.5q53 129 121 251t146 243q45 72 92 142.5t94 139.5q18 31 16 58q-10 104 -20 208.5t-18 209.5q-6 86 -12.5 171t-10.5 171l-18 460q-2 18 -1 38 t3 40q4 39 20 50.5t51 4.5q35 -4 52.5 -24.5t25.5 -50.5q23 -98 33 -200.5t16 -207.5q4 -98 11.5 -196.5t15.5 -196.5l20 -232q0 -10 7 -30l79 106q115 158 233 312.5t249 304.5q33 39 68.5 75.5t70.5 71.5q27 31 57 23q43 -14 56 -52q0 -6 -9 -14q-100 -102 -189 -208.5 t-175 -217.5q-104 -135 -203.5 -268t-202.5 -268q-23 -25 -19.5 -45.5t5.5 -42.5q10 -111 25.5 -218.5t42.5 -214.5q23 -92 46 -180t66 -170q8 -16 17.5 -29.5t19.5 -29.5q14 -29 39 0q31 39 64.5 74.5t62.5 76.5q86 123 167 248t157 254q143 248 294 498q10 16 20.5 30.5 t35.5 12.5t14 -23q-12 -23 -23.5 -45t-23.5 -45q-90 -160 -177 -319.5t-179 -319.5q-63 -111 -131 -219.5t-154 -208.5q-100 -115 -236 -129q-47 -4 -77.5 15.5t-53.5 50.5q-41 53 -61.5 115.5t-38.5 127.5q-31 106 -52.5 216t-35.5 223l-4 14h-8zM614 59l-57 -86l-25 -32 q-78 -127 -152.5 -253t-127.5 -261q-14 -39 -25.5 -78t-23.5 -80h6q8 29 16 55.5t19 54.5q39 106 93 208t114 202q27 47 54 92t56 90l53 86q14 16 25.5 31.5t22.5 32.5l-9 4zM975 565q29 39 57.5 76t57.5 74l24 33q115 147 230.5 291.5t244.5 279.5q4 4 5 7t5 7l-4 4 l-41 -41q-86 -100 -168.5 -199.5t-164.5 -199.5q-35 -43 -68 -88t-68 -90l-112 -152l-49 -63q4 -4 6 -4zM872 -193l-12 60q-2 4 -1 6t1 6q-12 78 -24.5 155t-22.5 154q-4 18 -6 38t-4 38q-4 0 -6 -2v-16q8 -102 24 -203q6 -45 15.5 -89t17.5 -89l16 -60l23 -102l18 -70l11 5 z" />
<glyph unicode="Y" horiz-adv-x="2000" d="M1888 455l119 88q31 23 60.5 44t60.5 42q20 14 43.5 14t38.5 -12q10 -6 4 -11.5t-10 -9.5q-39 -29 -78 -54.5t-74 -53.5q-45 -33 -87 -67t-83 -68q-18 -14 -22 -33q-41 -166 -90.5 -328t-114.5 -323q-49 -117 -104.5 -229.5t-125.5 -223.5q-66 -100 -140.5 -192.5 t-164.5 -176.5q-59 -53 -123.5 -96t-140.5 -68q-70 -23 -129 -10q-53 10 -65 60q-4 25 -6.5 50t1.5 52q14 102 56.5 199.5t95.5 193.5q57 100 123.5 195.5t138.5 187.5q127 162 266.5 310.5t288.5 291.5q20 18 29 43q33 162 64.5 323t62.5 322q10 55 11 109.5t3 108.5 q2 23 -3 24.5t-28 -14.5q-109 -84 -198.5 -180.5t-173.5 -200.5q-78 -96 -152 -192.5t-151 -192.5q-57 -72 -118 -139.5t-130 -126.5q-57 -51 -124 -55.5t-108 16.5q-23 12 -32 32.5t-13 45.5q-10 57 -5 117.5t18 119.5q29 147 78 290.5t110 285.5q61 137 126.5 271 t127.5 269q29 68 49 144q8 23 4 26.5t-26 -6.5q-45 -23 -90.5 -43t-88.5 -47q-135 -86 -245.5 -190.5t-208.5 -227.5q-66 -84 -105 -186q0 -4 -2 -9.5t0 -9.5q2 -23 -9 -27.5t-28 -2.5h-26q-31 4 -38 18t3 47q25 76 69 140.5t99 123.5q106 119 225 221.5t258 180.5 q45 25 88 47t92 33q78 14 125 -31t35 -123q-14 -78 -45 -154.5t-63 -154.5q-53 -129 -107.5 -257t-105.5 -259q-29 -74 -53.5 -150t-47.5 -151q-18 -63 -31.5 -127t-29.5 -127q-2 -10 -2 -17.5v-17.5l6 -25q14 6 27 17q72 61 135 129.5t123 140.5q129 158 258 310.5 t274 297.5q43 43 90 82t94 80q27 23 56.5 30t56.5 2t48.5 -22.5t31.5 -44.5q18 -43 21 -91t8 -97q2 -106 -11.5 -214t-31.5 -218zM1614 109q-6 0 -8 2q-8 -8 -15.5 -14.5t-13.5 -14.5l-129 -135q-152 -164 -285 -335t-241 -362q-43 -78 -79 -156.5t-52 -160.5 q-10 -41 -13.5 -79t13.5 -73q16 -31 31.5 -32.5t47.5 20.5q53 35 99.5 78t87.5 90q154 168 258 363q49 94 92 189t78 194q23 68 44 135t44 135q10 39 20.5 77t20.5 79zM1145 1520q-2 0 -4 2l-107 -246q-72 -156 -139.5 -311.5t-120.5 -315.5q-33 -96 -57.5 -190t-42.5 -191 q-2 -6 -1 -14t1 -18l61 243q35 125 82 249t101 247l192 446q10 25 18.5 49.5t16.5 49.5zM1083 1542h-8l-12 -22l-53 -119q-47 -100 -94.5 -199.5t-92.5 -200.5q-53 -117 -96 -232.5t-76 -233.5q-14 -53 -23.5 -103.5t-19.5 -101.5q4 6 8 18q25 86 47.5 172t51.5 172 q53 154 118.5 304.5t137.5 301.5q31 59 57 121t55 123zM674 438q66 240 165 470.5t203 461.5q-113 -229 -213 -459.5t-155 -472.5zM1888 772h-8l-70 -377q2 0 3.5 -1t3.5 -1q4 8 9 16.5t7 16.5q4 27 9 53.5t9 52.5zM1675 -113q76 199 125 406q-20 -12 -22 -25.5t-6 -23.5 l-72 -269zM1800 760l-96 -453h6q33 115 53.5 226.5t36.5 226.5zM1765 352q25 78 36 158t26 166l-70 -324h8zM754 -1069q-10 -35 -16.5 -67.5t7.5 -61.5q4 33 5.5 64.5t3.5 64.5zM283 975l65 137q-27 -33 -44 -66.5t-21 -70.5zM1825 532h-4l-31 -145h4zM1880 545h-4l-23 -107 h5zM801 612h-4l-19 -57h4z" />
<glyph unicode="Z" horiz-adv-x="1798" d="M1307 1606q-29 -4 -59.5 -9.5t-59.5 -11.5q-86 -16 -171 -33.5t-171 -33.5q-94 -16 -186.5 -28.5t-184.5 -8.5q-53 4 -98 14q-12 4 -23.5 11t-21.5 16q-4 2 -6 8t0 8q8 8 20 12q10 2 20.5 3t20.5 -1q98 0 194.5 14.5t194.5 32.5q133 25 264 48.5t265 46.5q27 4 52 9 t48 11q35 10 62.5 4t52.5 -20q23 -16 32 -43q2 -6 -4 -18.5t-12 -18.5q-23 -23 -46.5 -43.5t-45.5 -40.5q-92 -78 -184.5 -153.5t-182.5 -153.5q-104 -92 -203.5 -187.5t-201.5 -189.5q-12 -8 -23 -23l88 17q104 23 196.5 11.5t180.5 -44.5q201 -76 297 -252 q18 -39 30.5 -81t24.5 -85q6 -18 8.5 -19t22.5 9q100 55 198.5 110.5t198.5 110.5q29 16 60 27.5t63 1.5l15 -4q29 -18 27.5 -26.5t-36.5 -31.5q-70 -39 -138 -74.5t-138 -76.5q-61 -35 -122.5 -74t-123.5 -76q-12 -6 -16 -14t-6 -20q-6 -190 -67.5 -371.5t-172.5 -360.5 q-63 -104 -139 -199.5t-164 -181.5q-80 -76 -164 -141t-182 -117q-78 -39 -153 -60.5t-152 -23.5q-31 0 -60.5 5.5t-58.5 13.5q-111 33 -86 164q16 78 47 149.5t76 141.5q162 252 389 456q68 61 135.5 120.5t138.5 119.5q102 82 206 154.5t210 142.5q20 12 26.5 24.5 t6.5 32.5q-4 82 -20.5 158t-55.5 143q-47 80 -118.5 127t-174.5 55q-47 4 -98 -5t-103 -23q-53 -16 -106 -33.5t-109 -34.5q-14 -4 -33.5 -3t-39 5t-34.5 13.5t-22 19.5q-4 6 -1 18.5t10 20.5q23 29 47 55.5t51 50.5q94 92 187 184.5t192 180.5q92 84 185 163t188 159l49 40 q0 2 -1 3.5t-1 3.5zM1290 41l8 70q2 4 1 10t-1 10l-22 -10q-68 -53 -135.5 -102.5t-132.5 -102.5q-102 -82 -198.5 -167t-188.5 -179q-90 -92 -170 -188.5t-142 -206.5q-35 -59 -56.5 -117.5t-25.5 -120.5q-2 -29 8.5 -51.5t38.5 -30.5q33 -8 66 -5t68 20q41 23 79.5 44 t77.5 48q135 92 247 206.5t204 249.5q104 147 170.5 302t103.5 321zM1427 186q-37 -225 -116 -450q53 113 82.5 224t33.5 226zM1346 156l-54 -252q23 63 38.5 126t15.5 126zM229 -889q-23 -43 -39 -86t-8 -88q12 43 24.5 87t22.5 87zM1380 113h-6l-47 -222h6zM115 -1061 l20 94q-32 -57 -20 -94zM168 -971h-4l-17 -71h5z" />
<glyph unicode="[" horiz-adv-x="462" d="M195 23q23 4 47 8t49 8q12 2 24.5 0t24.5 -6q4 0 8 -5t2 -10q0 -4 -6 -9t-10 -7q-6 -4 -13.5 -6t-13.5 -4q-55 -8 -111.5 -16.5t-113.5 -14.5q-16 -2 -31.5 2t-32.5 8q-18 4 -18 20.5t4 31.5q4 29 12.5 58.5t16.5 57.5q49 209 104 418q37 129 76 256t80 256 q47 143 96 285.5t96 285.5q12 35 22.5 72t20.5 72q12 43 31 58.5t59 15.5q113 2 220 0q29 0 50 -9.5t34 -33.5q2 -6 2 -17q-4 -2 -9.5 -4t-9.5 -2q-55 -4 -111.5 -8t-111.5 -8q-23 -4 -25 -23q-6 -39 -11 -77t-15 -77q-23 -78 -45.5 -155.5t-46.5 -155.5 q-47 -147 -95.5 -293.5t-95.5 -294.5q-47 -154 -90 -304t-88 -304l-6 -31q-6 -29 -2 -33.5t33 -4.5zM508 1339h-4l-35 -94l-102 -311q-31 -94 -62 -187.5t-59 -189.5q-18 -61 -35.5 -122.5t-34.5 -121.5q-18 -66 -34.5 -133t-35.5 -133q0 -4 2.5 -9t2.5 -11q12 16 12 20 q14 55 27.5 110.5t27.5 108.5q16 59 31.5 116.5t34.5 117.5q29 90 57.5 179t56.5 179q23 72 44.5 142.5t43.5 142.5q16 49 31 98t31 98zM72 31q0 -2 4 -2q33 121 64.5 240.5t66.5 240.5q35 119 71.5 237.5t73.5 239.5q-86 -240 -154.5 -477t-125.5 -479zM408 1294 q-111 -319 -205 -635.5t-164 -640.5q74 322 173.5 638t195.5 638zM383 1085h-4q-6 -16 -12.5 -34.5t-10.5 -36.5h6z" />
<glyph unicode="\" horiz-adv-x="454" d="M383 1804q2 6 2 13.5t4 11.5q4 6 12.5 13t14.5 5q47 -4 74.5 -25.5t25.5 -70.5q-4 -59 -7 -118.5t-7 -119.5q-10 -96 -20.5 -190t-20.5 -188q-18 -225 -31 -449q-10 -145 -16 -288.5t2 -286.5v-13q2 -35 -7.5 -45t-43.5 -14q-23 -4 -29 10q-10 23 -19.5 45.5t-11.5 46.5 l-8 168t0 170q4 166 10 332t17 332q8 121 16 240.5t18 242.5q4 45 12.5 89t14.5 89h-2zM422 1161q-2 -10 -3 -17t-3 -18q-4 -59 -7 -119.5t-8 -119.5q-4 -41 -6 -79t-6 -77h6l6 57l21 291v82zM422 1161l20 150h-10zM387 543h-6l-2 -70q2 2 6 2z" />
<glyph unicode="]" horiz-adv-x="538" d="M786 1864q59 0 91 -37q16 -18 18 -39t-6 -47q-51 -152 -98.5 -301.5t-96.5 -302.5q-23 -78 -47 -156t-47 -156l-139 -485q-23 -72 -42.5 -141.5t-39.5 -141.5q-4 -16 -7 -30.5t-7 -30.5q-4 -8 -11.5 -17.5t-15.5 -13.5q-72 -20 -140.5 -38.5t-140.5 -35.5 q-14 -4 -29.5 -2t-27.5 7q-16 4 -16 18q0 8 5 17.5t11 13.5q14 6 29.5 13t25.5 3q43 -6 83 9.5t81 25.5q4 2 10.5 11t8.5 18q14 49 25 98t24 96q29 115 55.5 227.5t56.5 225.5q47 166 95.5 329.5t99.5 329.5q35 109 70.5 215.5t74.5 216.5q6 16 1 19.5t-19 3.5q-35 4 -70 6 t-67 8q-16 2 -28.5 11.5t-25.5 19.5q-23 18 13 29q16 4 28 4h111q33 0 57 1t47 -1zM332 10q102 375 208.5 746.5t227.5 746.5q-16 -35 -43 -113.5t-60.5 -186t-72.5 -233.5t-76 -255t-71.5 -250t-60.5 -218t-40 -161t-12 -76zM387 475q14 55 29.5 111.5t32.5 111.5l114 396 l78 245l25 88q-86 -246 -159 -489.5t-132 -488.5q4 6 7 12t5 14zM397 406q2 4 6.5 9t4.5 9q14 45 25 89t26 87q29 102 57.5 201.5t56.5 202.5q16 55 33 122q-4 -6 -6 -8t-2 -4q-33 -113 -66.5 -225.5t-66.5 -226.5q-18 -63 -35 -126.5t-33 -129.5zM348 342h4l13 59 q-4 -16 -8.5 -29.5t-8.5 -29.5z" />
<glyph unicode="^" horiz-adv-x="675" d="M729 1622q-20 -20 -27 -29q-72 -84 -145.5 -163.5t-155.5 -155.5q-14 -10 -28.5 -22.5t-24.5 -12.5q-23 2 -41 9t-37 16q-2 0 -1 10t5 14l52 43q123 109 219 233t182 257q8 8 12 18q23 33 35 39t45 -2q41 -10 62.5 -34.5t13.5 -76.5q-20 -135 -33.5 -267t-30.5 -265 q-4 -25 -2 -48.5t2 -45.5q-2 -25 -8 -30t-30 -5q-78 6 -78 82q0 156 6 309q0 29 2 60.5t6 66.5zM731 1675l-6 6l-57 -75l4 -4q16 18 30.5 36.5t28.5 36.5z" />
<glyph unicode="_" horiz-adv-x="806" d="M526 -25q-104 -6 -207.5 -12t-207.5 -14q-43 -4 -72 17.5t-33 62.5q-2 20 25 24q12 2 24.5 3t22.5 1l446 15q47 0 93.5 -6.5t82.5 -28.5q27 -14 33 -43q0 -18 -18 -21q-23 0 -45.5 -1t-44.5 -1q-27 -2 -50.5 -1t-48.5 1v4z" />
<glyph unicode="`" horiz-adv-x="319" d="M553 1374l-12 -33q-8 -14 -19 -8q-29 14 -48 32.5t-23 51.5l-31 150q-10 45 -17.5 90t-21.5 90q-10 18 12 25q27 14 41 6q4 -2 12 -2q33 -2 39 -37l27 -117q10 -53 19.5 -106.5t19.5 -106.5q4 -8 3 -17.5t-1 -17.5z" />
<glyph unicode="a" horiz-adv-x="727" d="M846 582q8 14 13 23t11.5 12.5t16.5 1t28 -10.5q-33 -53 -61.5 -104t-62.5 -103q-57 -86 -117 -171t-119 -171q-14 -18 -30.5 -35.5t-35.5 -33.5q-23 -23 -47 -31t-45.5 -4t-37 19.5t-21.5 43.5q-8 51 4 102.5t29 104.5q25 80 59.5 158t75.5 154q8 10 8 26l-59 -55 q-68 -61 -152 -115q-33 -20 -69.5 -22t-68.5 12t-50.5 45t-14.5 74q4 61 27 117.5t63 109.5q59 78 131 135.5t164 87.5q145 47 236 -43q14 -14 24 4q2 4 11 13q18 27 25 29.5t28 -7.5q20 -10 23.5 -22.5t-9.5 -36.5q-53 -90 -103 -178t-97 -179q-53 -94 -97.5 -190 t-72.5 -197q-10 -35 -18.5 -67.5t-8.5 -67.5q4 0 4 -1t4 -1q16 18 33.5 35.5t34.5 38.5q92 115 175 232.5t154 244.5q4 4 7.5 10.5t7.5 12.5zM446 590q61 63 123 126.5t123 129.5q25 27 -2 37q-16 8 -31.5 12t-25.5 8q-72 -2 -127 -24.5t-109 -63.5q-57 -43 -99 -95 t-77 -112q-39 -61 -43 -127q-2 -53 9.5 -61t68.5 22q53 29 100 67t90 81zM403 63q45 199 144.5 385.5t206.5 368.5q-4 0 -4 2l-43 -69q-78 -125 -144.5 -251t-118.5 -259q-16 -45 -27.5 -88.5t-13.5 -88.5zM229 686q4 -4 7 -4l106 119l-8 4zM567 590q-4 0 -6 2l-43 -80 q2 0 2 -1t2 -1q10 20 21.5 40t23.5 40zM383 184h-2l-16 -75h2z" />
<glyph unicode="b" horiz-adv-x="905" d="M1028 618q18 8 24.5 7.5t22.5 -17.5q-29 -14 -54.5 -26.5t-49.5 -26.5q-27 -14 -51.5 -28.5t-49.5 -28.5q-23 -10 -32 -41q-53 -147 -133 -279.5t-201 -249.5q-45 -43 -97.5 -69.5t-111.5 -24.5l-21 4q-39 8 -49 23.5t2 56.5q12 45 38 85t57 77q68 86 146.5 159.5 t166.5 139.5l117 86q4 4 9 8t5 8q16 41 26.5 80t0.5 78q-4 20 -13.5 24.5t-34.5 -1.5q-53 -16 -100 -44t-92 -63q-78 -59 -138.5 -129t-113.5 -147q-53 -80 -103.5 -160t-103.5 -160q-10 -16 -20.5 -26.5t-34.5 -10.5h-39t-20.5 5t-6.5 18.5t2 38.5q4 147 36 292.5t85 292.5 q53 154 121 304.5t154 297.5q68 119 147.5 230.5t181.5 210.5q43 41 87 75.5t98 63.5q57 33 108 38t92 -10.5t70 -47t39 -72.5t3 -83t-26 -83q-35 -84 -87 -157.5t-111 -145.5q-104 -125 -217 -240.5t-240 -216.5q-59 -45 -118.5 -82t-127.5 -51q-29 -6 -43 -18.5t-22 -38.5 q-35 -92 -62.5 -181.5t-48.5 -181.5l-6 -28q4 0 8 -2q4 6 7 12t8 10q70 104 146.5 200.5t176.5 180.5q53 43 107.5 80t117.5 59q63 25 117.5 13.5t75.5 -56.5q8 -18 9 -41.5t5 -46.5q0 -4 -2 -9t-2 -13l43 20zM948 1686q-78 -51 -139 -117t-119 -137q-121 -154 -215 -318 t-174 -336l-45 -106l8 -6q29 20 59.5 37.5t61.5 39.5q147 106 280.5 229.5t254.5 262.5q53 61 102 125.5t84 136.5q23 45 32 89t-1 89q-8 35 -34 49.5t-65 1.5q-23 -8 -45 -17t-45 -23zM733 401l-12 -6t-8 -6q-53 -47 -106.5 -91t-106.5 -91q-55 -53 -102.5 -113.5 t-78.5 -130.5q-6 -16 -11 -32.5t-9 -32.5q-6 -33 23 -13q27 20 55.5 39t50.5 41q92 88 159.5 187.5t125.5 205.5zM817 1624q-98 -88 -186 -203q-111 -147 -200 -301.5t-163 -318.5q-16 -37 -32.5 -75t-32.5 -77l8 -4l16 33q59 150 134 294t167 283q66 100 137.5 193.5 t163.5 175.5l23 23l-4 6zM190 590q-12 -18 -29.5 -59.5t-33.5 -93.5t-31.5 -110.5t-27 -109.5t-16.5 -91t-1 -54q14 131 52 260t87 258zM274 932q-10 -16 -18 -34.5t-18 -37.5q2 0 4 -1t4 -1l30 72l121 225q10 20 22.5 38.5t22.5 37.5q-4 0 -6 2l-16 -27l-70 -121zM786 375 q-4 0 -4 1t-2 1l-73 -137q4 -2 8 -2zM432 1161q-4 0 -6 2l-90 -164q2 -2 6 -2zM199 772q-8 -23 -16.5 -43t-18.5 -43q2 0 2 -1t2 -1l39 88h-8zM242 803q4 0 6 -2l33 67q-2 2 -9 2zM530 1325l-38 -59l4 -4l41 59zM514 1350q-10 -14 -19.5 -28.5t-19.5 -29.5l4 -4 q10 16 19.5 29.5t19.5 28.5z" />
<glyph unicode="c" horiz-adv-x="503" d="M682 614q0 -6 -4 -10q-80 -104 -163 -205.5t-179 -195.5q-29 -29 -60.5 -49.5t-68.5 -30.5q-41 -12 -78 -8t-66.5 21.5t-50 48t-24.5 69.5q-10 57 3 122.5t44 129t77 119t105 92.5q66 45 131.5 53t124.5 -27q10 -6 17.5 -16t15.5 -20q4 -2 2 -6.5t-2 -8.5q-4 0 -7 -1 t-7 -1q-174 31 -295 -133q-41 -55 -68 -113.5t-43 -121.5q-4 0 -6 -3q2 -29 1 -58.5t5 -57.5q6 -41 37 -52.5t74 11.5t82.5 53.5t74.5 67.5q72 80 140.5 160.5t140.5 162.5q4 4 6 9.5t6 5.5q16 2 35 0v-7zM201 612q-35 -29 -56.5 -63.5t-38.5 -75.5zM94 553q8 10 16.5 22.5 t16.5 24.5q-2 0 -2 1t-2 1l-35 -47q2 -2 6 -2z" />
<glyph unicode="d" horiz-adv-x="940" d="M526 -152q27 35 54.5 67t54.5 67l436 622q4 4 6 8t6 9q10 14 19.5 12t19.5 -6q2 -2 1 -10.5t-5 -12.5q-35 -51 -68.5 -100t-66.5 -98q-76 -111 -149.5 -222.5t-151.5 -222.5q-29 -43 -61.5 -82t-73.5 -74q-27 -23 -55.5 -28.5t-57.5 0.5q-10 4 -18 16t-8 25 q-4 35 -4.5 69.5t6.5 71.5q14 96 43.5 191.5t64.5 191.5l8 23l6 22q-14 -10 -22 -18.5t-16 -16.5q-53 -47 -107.5 -90t-118.5 -74q-41 -18 -84 -23t-80.5 3t-68.5 29.5t-45 52.5q-20 43 -16.5 91t22.5 101q25 68 72 132.5t108.5 117.5t131 91t141.5 53q68 14 130 9t115 -34 q16 -6 22.5 -3t14.5 19q80 156 170 305.5t195 294.5q53 72 113.5 137.5t131.5 123.5q16 12 36 23t38 22q20 10 41 10t37 -8.5t26.5 -24.5t8.5 -37q-2 -35 -8.5 -69.5t-16.5 -69.5q-25 -72 -62.5 -140.5t-84.5 -133.5q-115 -160 -240 -310.5t-276 -283.5q-76 -66 -107 -152 q-45 -123 -90 -242.5t-88 -242.5q-14 -43 -20.5 -87t-16.5 -89zM598 786q-41 -4 -82 -12t-82 -29q-115 -55 -193.5 -140t-125.5 -197q-16 -39 -24.5 -77t1.5 -75q10 -33 26.5 -42t53.5 1q49 14 94 39t88 57q59 45 113.5 95.5t105.5 103.5q14 14 21 29l96 204q8 23 -10 29 q-23 4 -42.5 7t-39.5 7zM840 750l8 -5l22 23q88 78 166 166t152 178q72 86 133 175t109 188q23 47 35 95t16 95q6 37 -25 12q-27 -18 -45 -39q-66 -61 -120 -128.5t-103 -139.5q-78 -117 -146.5 -235.5t-128.5 -241.5zM1339 1599l-4 5q-6 -4 -11 -8.5t-9 -10.5 q-43 -53 -89 -107.5t-85 -111.5q-104 -152 -190.5 -308.5t-166.5 -318.5q-10 -18 -18 -36.5t-18 -38.5q6 0 8 -2l18 28q53 104 105.5 205.5t109.5 204.5q66 117 135.5 227.5t161.5 212.5zM711 551q-6 0 -9 2q-4 -8 -8 -15.5t-8 -15.5q-16 -41 -31.5 -78.5t-31.5 -78.5 q-41 -109 -76 -214.5t-60 -216.5q-6 -27 -8 -52t-6 -52h10q10 92 34 182t55.5 180.5t67.5 179.5t71 179zM973 1139q-2 0 -3 1t-5 1q-41 -78 -83 -155t-83 -155q4 0 6 -2q41 78 84 155t84 155zM84 430l127 195q-86 -82 -127 -195zM813 924q2 -2 6 -2l80 147q-4 0 -4 2z M596 377q2 0 3 -1t3 -1l49 123q-6 0 -8 2zM47 492l4 -5l60 97q-4 0 -7 2q-14 -25 -28.5 -48t-28.5 -46zM700 631q6 0 9 -2l49 106h-6zM422 -150q2 0 3 1.5t3 1.5q4 29 7 55t7 55h-6q-4 -29 -7 -56.5t-7 -56.5zM1104 1358q2 -2 6 -2l49 69q-2 0 -2 1t-2 1zM96 522q4 0 4 -1 t2 -1q12 16 23.5 33.5t26.5 34.5q-2 0 -3.5 1t-3.5 1zM909 1098q2 0 3 -1t3 -1l33 55q-2 2 -6 2zM461 -74h2l20 97h-2z" />
<glyph unicode="e" horiz-adv-x="720" d="M909 608q-23 -27 -42 -51.5t-42 -46.5q-68 -72 -134 -141.5t-138 -137.5q-66 -59 -134.5 -111t-144.5 -95q-51 -29 -101 -42.5t-99 3.5q-61 20 -87 63t-16 129q12 106 53.5 208.5t94.5 203.5q59 113 138 213t179 190q39 35 80 62.5t88 50.5t86 15.5t70 -34.5 q33 -27 34 -63.5t-14 -77.5q-31 -84 -106 -151q-156 -143 -344 -207q-6 -4 -11.5 -6t-11.5 -2q-35 0 -52 -18.5t-32 -49.5q-41 -92 -77.5 -182t-53.5 -185q-4 -23 -5 -44t3 -42q4 -29 15.5 -35t39.5 3q59 16 109.5 46.5t101.5 65.5q90 59 168 133l156 148q43 41 83 85t81 87 q20 23 27 25.5t38 -9.5zM291 641l4 -6q8 4 24 8q78 35 150 78t139 96q37 31 68 68q29 35 46 71.5t19 77.5q-2 51 -49 29q-29 -14 -55.5 -30.5t-52.5 -37.5q-125 -104 -219 -241q-20 -29 -38 -56.5t-36 -56.5zM508 965q-31 -20 -75 -68.5t-87 -103t-74.5 -103.5t-35.5 -74 q59 94 124.5 182.5t147.5 166.5zM150 582l139 211l-6 6q-16 -23 -31.5 -44.5t-30.5 -43.5q-18 -33 -36.5 -65t-37.5 -62l-77 -152q2 0 4 -1t4 -1zM88 293q33 72 64.5 142.5t60.5 142.5q-82 -144 -125 -285z" />
<glyph unicode="f" horiz-adv-x="692" d="M268 276q43 -63 60.5 -134.5t15.5 -149.5q-2 -51 -17.5 -102.5t-33.5 -102.5q-39 -109 -89 -213t-120 -203q-23 -33 -49.5 -64.5t-54.5 -60.5q-23 -23 -50.5 -34t-58.5 -13q-41 -2 -59 31q-18 31 -23.5 66.5t-7.5 74.5q0 113 19.5 226.5t43.5 228.5q53 223 135 436 t193 424q129 246 287.5 471t357.5 432q70 72 145.5 138.5t161.5 119.5q41 25 84 42.5t90 21.5q63 4 101.5 -39t27.5 -109q-14 -74 -46.5 -144.5t-80.5 -135.5q-164 -246 -370.5 -443.5t-464.5 -349.5q-41 -25 -86 -46t-90 -44q-16 -6 -25 -22q-25 -55 -50.5 -110.5 t-49.5 -111.5q-10 -27 -6 -30.5t32 6.5q80 23 159 53.5t157 65.5q84 39 163 84t152 98q27 18 43 -6q0 -4 -5 -10.5t-9 -10.5q-55 -41 -110.5 -83t-114.5 -81q-152 -102 -326 -155q-8 -2 -14.5 -4.5t-16.5 -6.5zM322 690l69 33q152 84 287 188.5t258 227.5 q104 104 195.5 214.5t162.5 235.5q33 53 55.5 107.5t24.5 111.5q0 29 -9 37t-38 -2q-72 -27 -129 -63q-76 -47 -144.5 -107.5t-127.5 -128.5q-178 -193 -325.5 -397.5t-264.5 -427.5q-4 -6 -6 -12.5t-8 -16.5zM-53 -299q-20 -88 -32.5 -176t-16.5 -174q0 -23 4 -42.5 t8 -41.5q2 -10 8 -10t14 10q20 20 39 45q66 86 113 176t84 184q27 63 48.5 127t37.5 129q16 78 5 150t-36 137q-10 23 -23.5 38t-45.5 15q-16 -2 -23.5 -5t-11.5 -19q-53 -135 -96 -270.5t-76 -272.5zM256 662q2 0 4 -1.5t4 -1.5q164 303 364.5 577.5t469.5 510.5 q-14 -6 -27 -18q-59 -53 -118.5 -106.5t-112.5 -113.5q-166 -182 -303.5 -378.5t-249.5 -407.5q-19 -30 -31 -61zM227 584q-2 0 -4 1t-4 1q-35 -66 -63.5 -132.5t-57.5 -134.5q2 -2 4 -2t4 -2q33 68 62.5 134.5t58.5 134.5zM94 293q-66 -152 -111.5 -304.5t-74.5 -305.5 q35 154 83 305t103 305zM-131 -715q-8 90 4 182.5t25 184.5q-18 -94 -31.5 -185.5t2.5 -181.5zM465 1071l4 -4l129 180q-2 0 -3 1t-3 1zM545 1223q-2 0 -2 1t-2 1l-88 -125q0 -2 2 -2q23 31 45 61.5t45 63.5zM274 745q-4 0 -8 3l-47 -97q4 0 6 -2zM147 504q2 0 3.5 -1 t3.5 -1l28 63q-2 2 -6 2zM319 -41h-4l-16 -76h4z" />
<glyph unicode="g" horiz-adv-x="1177" d="M1024 416q45 29 85 56.5t81 53.5l147 99q16 10 23.5 5t11.5 -14q8 -10 1 -15t-15 -9l-334 -234q-35 -23 -47 -59q-94 -223 -209 -435t-262 -417q-49 -68 -101.5 -133.5t-117.5 -122.5q-68 -59 -139.5 -97t-155.5 -40q-51 -2 -103 20q-12 6 -20 22.5t-12 33.5q-8 41 5 84 t34 86q57 127 139 235.5t180 212.5q131 135 273.5 257t293.5 237q29 25 39 51q47 111 88 222.5t68 225.5l6 27q-2 0 -3 1t-3 1q-27 -27 -54.5 -52.5t-56.5 -53.5q-98 -100 -207.5 -186.5t-230.5 -160.5q-39 -25 -80 -42t-82 -23q-31 -4 -64.5 2t-64.5 22.5t-54.5 43 t-31.5 61.5q-14 53 2.5 107.5t48.5 105.5q57 94 137 163.5t177 123.5q47 29 96 46t102 19q74 4 121 -43q8 -6 13 -18q2 -8 2 -27q-8 2 -25 2q-66 4 -129 -29q-115 -57 -210 -136t-167 -185q-23 -37 -37 -74t-12 -78q-4 -51 47 -36q31 6 62.5 15t60.5 25q164 84 309.5 193 t268.5 250q20 23 39.5 48.5t37.5 49.5q16 18 33 17q72 -18 76 -93q4 -57 -6.5 -114.5t-24.5 -114.5q-12 -45 -24.5 -89t-24.5 -93zM758 152q-2 0 -3 1t-3 1l-31 -23q-135 -106 -256 -226t-232 -249q-74 -86 -138 -177t-105 -194q-16 -39 -27.5 -76.5t-1.5 -74.5 q6 -29 19.5 -35t44.5 8q39 16 72.5 42t68.5 54q68 59 121 130t104 147q178 270 318 561q14 29 25.5 55.5t23.5 55.5zM926 283l-271 -543q14 20 39 60t51.5 90.5t55 106.5t53.5 109.5t44.5 100.5t27.5 76zM186 530q53 76 119 140.5t141 120.5q-82 -49 -150.5 -111 t-109.5 -150zM664 -113l6 -4l151 312q-2 2 -8 2zM838 156q-2 0 -3 1t-4 1l-139 -283q2 -2 6 -2q35 72 70 141.5t70 141.5zM195 606l114 121q-35 -27 -64.5 -54.5t-49.5 -66.5zM145 594l113 131q-76 -53 -113 -131zM-31 -694l-4 4l-43 -115q2 -2 8 -2z" />
<glyph unicode="h" horiz-adv-x="1101" d="M100 88l17 27q66 92 132 180t146 172q66 70 138.5 129t156.5 106q29 16 54.5 25.5t54.5 3.5q39 -8 59.5 -32.5t13.5 -65.5q-8 -43 -16 -87t-25 -87q-45 -139 -91 -275.5t-93 -275.5q-33 -98 -54.5 -194.5t-35.5 -194.5l-2 -23q0 2 4 -14q29 47 55.5 90t53.5 88l516 864 q14 23 28.5 46.5t30.5 47.5q18 29 47 21q18 -6 8 -25l-84 -137q-80 -131 -161.5 -261t-161.5 -265q-66 -111 -125 -220.5t-121 -219.5q-16 -27 -31.5 -52.5t-31.5 -50.5q-23 -29 -51.5 -36t-61.5 -9q-27 0 -35 15.5t-12 37.5q-10 55 -6 113.5t14 118.5q20 133 59 263t89 259 l147 391q8 20 12 41t11 41q8 27 -17 12q-57 -29 -106.5 -66.5t-96.5 -82.5q-72 -68 -133 -143.5t-121 -153.5q-63 -86 -121.5 -173t-117.5 -177q-10 -12 -15.5 -26.5t-9.5 -29.5q-4 -12 -8 -18t-16 -8l-54 -10q-35 -6 -28 32q4 35 7 71t9 71q43 233 124 458.5t196 448.5 q102 201 220 390t263 370q51 63 108.5 120.5t122.5 104.5q33 23 67 39t73 14q53 -2 89 -39t46 -94q8 -49 -2 -98t-27 -99q-29 -90 -77 -171.5t-107 -159.5q-76 -96 -157 -186.5t-173 -172.5q-90 -82 -185 -149.5t-206 -116.5q-18 -8 -27 -27q-47 -109 -88 -216t-71 -218 q-4 -12 -7.5 -24.5t-7.5 -24.5q4 0 6 -2zM328 707l6 -7q51 33 101 64t97 65q254 184 441 439q70 98 119 199.5t65 211.5q4 35 3 69t-15 62q-12 25 -39 9q-25 -16 -48.5 -31.5t-45.5 -34.5q-68 -59 -121 -125.5t-107 -138.5q-113 -154 -209 -314.5t-180 -326.5 q-16 -35 -32.5 -70.5t-34.5 -70.5zM942 1733l-4 4q-225 -244 -386 -514.5t-294 -556.5q16 8 18 16q8 14 14.5 27.5t12.5 27.5q100 213 221 416t269 397q35 47 73.5 91.5t75.5 91.5zM504 -573q2 2 8 2q6 39 9 77.5t7 77.5q16 115 48 227.5t71 225.5l156 442q10 27 15 52.5 t13 54.5q-6 -10 -11 -21.5t-7 -21.5q-45 -125 -89 -249t-85 -249q-47 -129 -81 -258t-48 -258q-4 -27 -4 -51t-2 -51zM692 1524q-41 -47 -71 -97q-131 -186 -239 -376.5t-200 -391.5l-12 -28q14 10 20 24q147 332 353 645q37 57 75.5 111.5t75.5 108.5q16 23 32.5 42 t33.5 40q-4 0 -8 4zM23 -27h4q0 4 2 9.5t4 11.5q23 80 45 161t49 160q23 59 46.5 119t45.5 119q4 4 2 10t0 10l-8 -8t-8 -10q-10 -25 -20.5 -49.5t-18.5 -48.5q-29 -86 -57.5 -168t-55.5 -166q-10 -37 -16 -75t-14 -75zM786 1597q-180 -223 -319 -460.5t-250 -489.5 q117 248 256 486.5t313 463.5zM774 596q-10 -2 -10 -4l-119 -330q2 0 2 -1t4 -1zM655 201q4 0 5.5 -1t5.5 -1l106 297q-2 2 -8 2q-27 -74 -53.5 -148.5t-55.5 -148.5zM186 573q-6 0 -8 2l-96 -256q0 -2 4 -2q27 66 51 128t49 128zM80 408h6q18 45 35.5 89t36.5 91h-6 q-20 -45 -38 -89t-34 -91zM473 -551q4 0 8 2q4 47 8.5 92t8.5 92q-4 0 -9 -2zM449 -549q4 29 5 55.5t3 55.5v49q-6 -41 -10 -80t2 -80zM76 381h-6l-31 -92h4zM475 -303h-4q-4 -20 -6 -39.5t-6 -42.5z" />
<glyph unicode="i" horiz-adv-x="456" d="M-55 -72q35 197 101.5 386.5t143.5 381.5q2 2 11 2l12 -18v-4q16 12 21.5 5t15.5 -13q16 -10 21 -18.5t-3 -33.5l-71 -251q-23 -78 -47.5 -153t-49.5 -153q-12 -39 -24.5 -77.5t-24.5 -77.5q-4 -10 -5 -18.5t-5 -22.5q20 14 33 31q35 43 71.5 88t71.5 90 q98 125 188.5 254t180.5 262q6 10 13 18t22 6q25 -4 27.5 -10t-13.5 -29q-121 -166 -238.5 -331.5t-236.5 -331.5q-12 -18 -28.5 -35.5t-33.5 -34.5q-29 -29 -58.5 -38t-59.5 -5q-49 6 -60 56q-4 29 -8 58.5t0 59.5q4 72 22.5 141.5t42.5 139.5q29 90 63 178t69 178 q14 37 32 68q4 12 17 18q6 6 18 2q4 -4 0 -14q-39 -102 -79 -202.5t-74 -203.5q-23 -76 -40.5 -151.5t-35.5 -153.5q-4 -10 -4 -17v-17q0 -7 2 -9zM213 903q8 14 15.5 28.5t17.5 29.5q25 35 53.5 33.5t46.5 -19.5q14 -14 25 -35q14 -29 -0.5 -67.5t-48.5 -59.5 q-10 -6 -23.5 -6t-24.5 2q-71 12 -61 94zM221 594h-6q-8 -23 -15 -44.5t-14 -43.5q-33 -94 -64.5 -186.5t-60.5 -184.5q-18 -59 -31.5 -118.5t-27.5 -118.5q-2 -6 -1 -12.5t1 -14.5q43 182 104.5 361.5t114.5 361.5zM-20 -76q16 63 32.5 133t38.5 142q23 72 46.5 142.5 t45.5 141.5q-27 -53 -57.5 -139t-55 -173t-39.5 -157t-11 -90zM25 55h-2l-25 -123h2z" />
<glyph unicode="j" horiz-adv-x="428" d="M252 352q35 33 62.5 60.5t58.5 52.5q51 43 102 84t105 82q18 14 41 14q10 -2 19 -7t19 -9q-8 -8 -13 -15.5t-13 -13.5q-104 -80 -197.5 -169t-181.5 -187q-25 -25 -31 -54q-23 -111 -44 -222t-46 -222q-27 -119 -62.5 -236.5t-74.5 -236.5q-72 -209 -182 -408 q-33 -55 -69 -105t-89 -91q-61 -51 -141 -62q-72 -8 -97 54q-16 43 -19 89t-3 93q4 111 34.5 219.5t77.5 218.5q170 393 457 733q35 43 54.5 86t25.5 93q20 121 43 239.5t45 239.5q4 31 14.5 62.5t20.5 64.5q8 23 16.5 24.5t24.5 -10.5q0 -2 2 -2h2q12 18 17.5 11t9.5 -13 q2 0 5 1t5 1q14 4 14 0q2 -12 12.5 -14t14.5 -11q10 -23 6 -45q-8 -115 -25 -229q-4 -39 -9 -77t-11 -83zM0 -53q-4 -2 -6 -2h-2q-6 -8 -13.5 -15.5t-11.5 -15.5q-74 -94 -138.5 -191.5t-123.5 -199.5q-78 -135 -134 -271.5t-79 -281.5q-10 -59 -12 -118.5t14 -117.5 q4 -16 12.5 -30.5t16.5 -28.5q14 -27 37 4q25 35 50 69.5t46 71.5q72 129 121 260.5t86 266.5q23 80 41 160.5t37 162.5q16 68 29.5 136.5t29.5 140.5zM213 1104q8 37 32.5 64.5t59.5 37.5q20 8 34.5 4t29.5 -14q4 -4 9 -10t-11 -17q-2 0 -2 -4t2 -8q4 -12 10 -16 q27 -29 15.5 -60.5t-46.5 -64.5q-25 -23 -53 -17q-103 13 -80 105zM51 -371h6l111 516h-6q-4 -8 -8 -15t-7 -15l-67 -348zM193 283q10 41 13 80.5t9 82.5l-35 -163h13zM88 166q14 53 20.5 103t14.5 104l-43 -207h8zM109 76h-5l-22 -113h4zM154 299h-4l-17 -72h4zM199 172h-2 l-23 -106h2z" />
<glyph unicode="k" horiz-adv-x="1046" d="M236 182l-54 -100q-59 -117 -112.5 -232.5t-96.5 -236.5q-6 -18 -12 -37.5t-12 -40.5q0 -4 -2 -8t-4 -4l-62 -23q-20 -6 -27.5 2.5t-5.5 24.5q2 29 3.5 55.5t5.5 55.5q20 141 55 280t78 281q25 86 52.5 171t61.5 171q35 90 73 177t79 175q68 141 144.5 275.5t168.5 267.5 q66 98 140.5 188t164.5 168q59 53 127 90q57 33 111.5 23.5t89.5 -52.5q41 -53 39 -114.5t-33 -130.5q-59 -131 -142 -249t-181 -229q-104 -117 -216 -222t-235 -199q-27 -20 -54.5 -36t-53.5 -34q-16 -6 -27 -23q-29 -70 -56.5 -138t-54.5 -138l-45 -121q2 0 4.5 -1t4.5 -1 q10 14 16 29q72 125 156 240.5t194 213.5q55 49 114.5 87t125.5 61q41 12 76.5 9t64.5 -26q35 -25 23 -69q-12 -47 -38 -88t-61 -80q-72 -82 -155.5 -146.5t-173.5 -123.5q-41 -27 -81 -52.5t-83 -52.5q43 -29 61.5 -74t24.5 -94q6 -51 7 -102t3 -103q0 -72 -2 -142.5 t0 -141.5q2 -23 9 -45.5t16 -42.5q4 -18 11 -18.5t23 16.5q45 45 80 95t66 103q55 90 105 180.5t104 182.5q55 96 110.5 190t112.5 191q29 49 58.5 98t60.5 98q20 35 53 25q6 -6 2 -17q-6 -16 -15.5 -30.5t-19.5 -30.5q-117 -211 -233.5 -418t-237.5 -415 q-39 -68 -79 -133.5t-97 -125.5q-41 -41 -84 -60t-94 -9q-35 8 -54.5 32.5t-35.5 53.5q-20 45 -26.5 93t-6.5 101q2 92 6 181.5t8 181.5q0 31 -6 60.5t-10 58.5q0 4 -5 9t-9 15zM387 803q8 -4 6 -4l80 67q135 113 257 232t226 258q55 72 104.5 144.5t80.5 154.5q18 47 20 90 t-20 82q-8 16 -27 4q-29 -23 -60.5 -42.5t-58.5 -45.5q-72 -66 -131 -140.5t-114 -152.5q-92 -133 -169 -269.5t-147 -277.5q-10 -27 -22.5 -51t-24.5 -49zM307 303q6 -2 8 -2l11 6q92 59 178 124t164 144q41 45 80.5 92.5t60.5 104.5q4 10 4 31q-8 -2 -15 -3t-16 -5 q-45 -23 -86 -48.5t-78 -60.5q-86 -74 -153.5 -159t-126.5 -177zM918 1714q0 4 -5 4q-106 -111 -192 -229.5t-160 -243.5t-137.5 -254t-124.5 -260l14 14q59 121 121 240t127 236q68 123 149 237.5t179 218.5zM385 -471q-6 82 -6 164q-2 78 0 154.5t2 154.5q0 14 -3 25.5 t-3 23.5q-4 0 -6 -2v-88l-7 -309q0 -35 3.5 -65.5t19.5 -57.5zM340 -2q-2 -2 -8 -2q6 -111 -4.5 -222.5t8.5 -217.5zM305 47q-2 0 -4 -1t-4 -1l-2 -168q2 2 8 2q2 41 3 84t-1 84zM293 -291q-6 -45 -4 -87t18 -81zM1077 1425q2 0 3 -1t5 -1l76 131q-2 0 -3 1t-3 1zM860 707 q4 0 5 -1t5 -1l23 63q-6 0 -8 2z" />
<glyph unicode="l" horiz-adv-x="624" d="M-106 -53q29 96 54 190t54 191q49 154 114.5 302t147.5 296q80 150 172 293t205 278q47 55 96 105.5t109 93.5q49 35 99 51t104 0q47 -16 71.5 -62.5t16.5 -109.5q-12 -104 -58.5 -201.5t-111.5 -189.5q-98 -143 -217 -266t-258 -234q-51 -41 -107.5 -78t-118.5 -59 q-25 -10 -33 -33q-27 -72 -54 -142.5t-50 -142.5q-29 -94 -53.5 -186t-46.5 -186q-18 -76 -25.5 -151t-1.5 -146q0 -25 5 -48.5t11 -46.5q6 -20 12.5 -21t22.5 19q41 49 80 98.5t74 102.5q70 113 135.5 226.5t132.5 228.5l164 268l117 211q10 25 28 14q6 -2 7.5 -11t13.5 7 q2 -4 4 -7t0 -7q-10 -23 -17.5 -43.5t-19.5 -40.5l-307 -516q-55 -94 -109.5 -187.5t-111.5 -185.5q-23 -41 -49.5 -79t-55.5 -74q-35 -47 -87 -70t-99 -12q-29 6 -41 28q-31 43 -41 95.5t-12 109.5q-2 80 8.5 162t26.5 166zM291 651q4 0 8 -4l10 6q23 16 47.5 31.5 t46.5 32.5q156 117 287 254t242 295q53 72 87 149.5t44 159.5q2 25 0 48.5t-6 45.5q-4 27 -27 10q-18 -10 -36.5 -20t-35.5 -23q-59 -49 -109 -105t-97 -118q-100 -135 -189.5 -275.5t-167.5 -287.5q-29 -49 -53 -98.5t-51 -100.5zM842 1573l-8 6q-23 -29 -49.5 -54.5 t-49.5 -54.5q-150 -190 -270.5 -388.5t-220.5 -409.5q-8 -16 -13.5 -31.5t-11.5 -32.5l10 -4q59 129 125 253t144 247t160 241.5t184 227.5zM-35 -489q4 0 6 2v12q-10 90 -2 181t27 183q12 68 30.5 135.5t41.5 135.5q29 90 61.5 177t63.5 177l6 29l-12.5 -12.5t-8.5 -14.5 q-72 -172 -123 -344t-82 -346q-12 -63 -18 -124.5t-2 -121.5q2 -18 5 -35.5t7 -33.5zM584 1374l-19 -22q-160 -225 -285.5 -460t-216.5 -484l-28 -86q25 57 47 114.5t47 114.5q66 160 145.5 313.5t178.5 304.5q33 51 66.5 100.5t68.5 100.5l47 64q0 2 -4 2l-13 -13z M682 1446q-319 -406 -508 -860q205 450 508 860zM66 285q16 47 32.5 93t32.5 93l37 86q0 2 -6 2l-12 -20l-44 -109l-49 -160q2 4 5.5 7.5t3.5 7.5zM-98 -217q-10 -59 -13.5 -121.5t7.5 -124.5zM-72 -444l6 202q-22 -104 -6 -202zM981 1237q-2 0 -3 1t-3 1 q-16 -20 -29.5 -40.5t-30.5 -43.5q4 0 7 -2zM25 176q2 0 3 -1t3 -1l24 94z" />
<glyph unicode="m" horiz-adv-x="1638" d="M2 4q10 45 18.5 90t20.5 92q25 98 48.5 195.5t51.5 196.5q18 63 42 124.5t46 122.5q4 8 13 21q4 4 7 4t7 2q0 -4 1 -6t1 -6q-29 -94 -58.5 -187.5t-58.5 -187.5q-16 -53 -29.5 -108.5t-27.5 -108.5q-10 -39 -16.5 -76t-14.5 -78q12 18 19 37q23 84 42 166t42 166 q25 88 50 175t52 175q2 8 9 18.5t12 8.5q12 0 13 -10.5t-3 -22.5q-14 -55 -28.5 -110.5t-29.5 -110.5q-18 -74 -36.5 -147.5t-34.5 -147.5q-4 -8 -2 -23l18 27q72 111 143.5 219.5t149.5 216.5q51 70 109.5 135.5t115.5 130.5q23 25 45.5 50.5t44.5 50.5q16 16 41 20 q61 8 95 -30.5t30 -102.5q-10 -86 -36.5 -167t-55.5 -165q-25 -78 -52.5 -153.5t-53.5 -153.5q6 4 14 12q150 221 310.5 432t340.5 412q29 33 66 40t65 -15q39 -31 39 -86q0 -57 -14 -113.5t-37 -112.5q-53 -133 -106.5 -263t-106.5 -261q-45 -113 -88 -224.5t-84 -223.5 q-31 -86 -56.5 -169t-52.5 -169q-10 -35 -15 -71t-13 -71q2 0 4 -1t4 -1q4 6 10 11.5t12 13.5q74 96 141.5 194.5t133.5 202.5q66 106 135.5 211t136.5 211q49 76 95.5 150.5t93.5 150.5q25 39 55 19q4 -4 5 -12.5t-1 -14.5l-67 -106l-351 -539q-72 -111 -144.5 -220.5 t-143.5 -219.5q-16 -23 -33 -43.5t-33 -42.5q-25 -29 -54.5 -44.5t-64.5 -19.5q-41 -6 -47 29q-4 29 -7 57.5t1 56.5q12 72 26.5 142.5t32.5 142.5q35 135 81 269.5t100 269.5q37 98 77.5 197.5t81.5 197.5l138 336l12 47q-2 0 -3 1t-3 1q-25 -29 -50.5 -55.5t-50.5 -55.5 q-313 -375 -565 -776l-156 -246q-2 -4 -7 -10t-9 -6q-25 -4 -49.5 -6t-50.5 -4q-4 0 -8.5 8t-2.5 12q4 33 6.5 64t10.5 61q16 66 32.5 129.5t36.5 128.5q23 70 47.5 137.5t47.5 137.5q27 84 53.5 166t54.5 166q0 6 -2 12q-4 -4 -9 -8t-9 -9q-100 -92 -183 -195.5 t-159 -213.5q-90 -133 -172 -268.5t-156 -274.5q-12 -25 -23.5 -50.5t-21.5 -51.5q-10 -29 -37 -23q-4 0 -8 -4q-23 -12 -40 -10t-34 6q-6 2 -8 13.5t0 21.5q4 47 9 96t16 98q12 68 26.5 135.5t30.5 135.5q27 104 59.5 207.5t79.5 207.5q6 10 11.5 21.5t13.5 21.5 q14 23 27.5 30t35.5 3q14 -2 6 -20q-18 -45 -35.5 -88t-31.5 -86q-20 -57 -37.5 -113.5t-32.5 -114.5q-27 -102 -49 -203.5t-45 -203.5l-6 -29h8zM1171 145q0 -2 7 -2q2 4 4 5.5t2 5.5q41 96 78.5 190t78.5 191q51 123 100.5 242.5t88.5 244.5l6 33zM893 926 q-61 -188 -132 -373.5t-120 -376.5q63 188 135 374t117 376zM616 250h9l204 586h-10zM813 938l-211 -619h8q47 156 107.5 308.5t95.5 310.5zM-53 -76q41 225 96 447.5t141 445.5q-96 -223 -148 -445.5t-89 -447.5zM1462 1028q-8 0 -10 2q-41 -100 -80 -199.5t-80 -201.5h8 q41 100 81 199.5t81 199.5zM1477 969h-11l-149 -371h10q35 92 73 184.5t77 186.5zM973 -582h8l4 78h-6zM524 18h4l21 93h-4zM100 365h4l19 86h-4zM160 401l-2 2l-21 -102h2zM70 240h2l18 84h-2zM111 205h2l12 57h-2z" />
<glyph unicode="n" horiz-adv-x="1019" d="M238 727q25 59 51 115q0 8 8 16q4 4 16 8q2 -6 2 -14q-31 -94 -62.5 -188.5t-59.5 -188.5q-18 -59 -34 -116.5t-32 -116.5q0 -2 6 -2q4 6 7 11t5 11l109 375q12 47 28.5 94t30.5 94q4 6 9.5 12.5t9.5 14.5q4 -8 11 -14.5t5 -14.5q-12 -66 -31 -127q-18 -63 -37.5 -125.5 t-37.5 -124.5q-4 -10 2 -20q16 25 32.5 50.5t32.5 47.5q70 102 140.5 201.5t156.5 192.5q47 51 97.5 97t109.5 85q20 12 42 23.5t44 21.5q29 12 58.5 11t52 -14.5t33 -39t-0.5 -62.5q-20 -68 -38.5 -134t-40.5 -132q-41 -129 -83 -255t-83 -255q-35 -104 -62.5 -207.5 t-56.5 -208.5q-12 -43 -19.5 -86t-17.5 -86q-2 -4 -1 -9t1 -9q4 0 6 -2q14 23 28.5 46.5t26.5 45.5q55 109 109.5 214.5t108.5 211.5q53 111 110 217.5t121 212.5q27 45 63 25q4 -2 3.5 -10.5t-5.5 -12.5q-16 -33 -33.5 -65.5t-35.5 -65.5q-72 -123 -133.5 -246l-122.5 -245 q-47 -94 -101.5 -184.5t-107.5 -182.5q-20 -33 -46 -53.5t-63 -26.5q-20 -4 -29.5 1t-13.5 28q-2 29 -3 55.5t1 54.5q8 135 36 270.5t63 270.5q55 219 135 428q37 98 75.5 195.5t77.5 195.5l17 45q-35 -14 -64.5 -33.5t-56.5 -41.5q-156 -125 -268 -283 q-55 -78 -111.5 -154.5t-103.5 -156.5q-53 -92 -99.5 -184.5t-97.5 -184.5q-6 -12 -12 -26.5t-17 -18.5q-16 -8 -33.5 -8h-33.5q-39 0 -33 45q6 57 13 113.5t18 115.5q14 76 31.5 150.5t37.5 150.5q16 66 40 131.5t61 126.5l18 29q10 14 31.5 20.5t32.5 -2.5q4 -2 3 -10 t-5 -14q-10 -29 -23.5 -58.5t-26.5 -58.5q4 0 5.5 -1t3.5 -1zM997 1004q-39 -100 -78.5 -210t-75.5 -216.5t-68 -205t-55.5 -179t-35.5 -136t-12 -77.5q66 262 154.5 515t170.5 509zM725 434l96 268l103 265h-9q-53 -133 -103 -265.5t-87 -267.5zM926 891q-4 0 -6 2 q-47 -129 -94.5 -256t-82.5 -258zM236 823q-86 -193 -132.5 -384t-76.5 -388q39 195 84 387t125 385zM125 371q-12 -49 -23.5 -98.5t-21.5 -98.5q-4 -10 -4 -18.5t-2 -18.5q2 0 4 1t4 1l55 258l-7 -14t-5 -12zM659 -49h-2l-32 -154h2zM137 399q4 16 9.5 35t9.5 35h-4z" />
<glyph unicode="o" horiz-adv-x="645" d="M436 575l17 -24q41 -68 58 -143.5t-5 -165.5q-29 -102 -84 -192.5t-152 -160.5q-150 -111 -307 -65q-47 12 -69.5 45t-30.5 80q-10 74 2 148.5t41 152.5q37 90 86 174t117 158q23 23 46 43t48 41q23 20 50.5 23t43.5 -13q12 -10 27.5 -14.5t32 -7.5t33 -5t30.5 -10 q59 -29 129 -35q35 -4 71.5 0t73.5 8q23 2 48.5 6.5t48.5 6.5q16 2 36 -4q6 -2 9.5 -7.5t7.5 -9.5q-6 -6 -12.5 -13t-14.5 -9q-29 -8 -59.5 -13.5t-59.5 -9.5q-63 -10 -120.5 -5t-114.5 17q-4 2 -10.5 2t-16.5 2zM397 233q4 23 5 45.5t4 45.5q4 80 -23 145.5t-66 124.5 q-6 12 -20 -2q-18 -25 -38.5 -48.5t-37.5 -45.5q-78 -111 -131 -223.5t-76 -235.5q-8 -39 -9 -77t11 -73q16 -37 54 -24q23 8 44 16t42 19q98 59 155 144t86 189zM223 567q-104 -115 -167.5 -238.5t-80.5 -265.5q31 135 94.5 260t153.5 244zM-37 190l143 285 q-53 -68 -86.5 -140.5t-56.5 -144.5zM47 449q-43 -68 -76.5 -136.5t-50.5 -140.5zM430 127q23 35 35 70.5t16 76.5z" />
<glyph unicode="p" horiz-adv-x="870" d="M-201 -954q-2 -20 -17 -20.5t-26 -0.5q-27 -4 -33 2t-2 35q2 18 4.5 37.5t6.5 40.5q25 113 47 224.5t51 223.5q39 154 79 306.5t83 306.5q39 135 81 266t85 266l32 111q8 23 15.5 25.5t23.5 -3.5q10 -4 19.5 -4t19.5 -4q39 -16 45 -30.5t2 -45.5l-59 -272h6q4 8 9 15 t12 16q35 51 69.5 103t75.5 101q20 25 47 47.5t55 41.5q45 31 87 35.5t77 -9.5t57.5 -45t26.5 -70q6 -53 -3 -108t-25 -111l-21 -65q12 2 21 8q86 51 137 81t78.5 45t40 19t20.5 9q4 2 11 3t12 -1q8 -4 14 -8.5t14 -8.5q-6 -6 -12 -13t-14 -11l-301 -185q-63 -39 -95 -106 q-39 -88 -90 -169t-116 -159q-31 -37 -68 -68.5t-86 -46.5q-68 -23 -117 -2q-37 14 -26 56q4 35 21 64.5t40 58.5q55 70 120.5 127t137.5 110q66 49 94 119q27 63 52.5 125.5t39.5 128.5q6 35 10.5 71.5t4.5 73.5q-2 33 -13.5 37t-46.5 -14q-47 -29 -85 -67t-68 -83 q-66 -88 -115 -180t-94 -190q-53 -119 -101.5 -237t-87.5 -241q-41 -121 -76.5 -239.5t-64.5 -239.5q-16 -61 -32.5 -121.5t-34.5 -121.5q-2 -14 -15 -33q-8 -16 -20 -17q-4 -2 -9.5 2.5t-9.5 8.5zM442 158q-61 -53 -116.5 -111.5t-81.5 -136.5q70 49 113.5 115.5 t84.5 132.5zM-217 -786q66 281 136.5 557t152.5 555q-92 -279 -163 -555t-126 -557zM-66 -268h9l96 346q-4 0 -8 2zM197 225q29 55 54 111.5t52 114.5q4 4 4 7t2 7q-20 -29 -35.5 -59.5t-29.5 -59.5q-16 -37 -31.5 -72.5t-28.5 -70.5zM113 219q35 59 49 120.5t31 125.5 q-20 -61 -38.5 -123t-41.5 -123zM625 297q-4 4 -9 4l-71 -137q2 0 2 -1t4 -1zM647 496h-6l-55 -129q2 0 2 -1t4 -1zM670 424q2 0 3 -1t5 -1q29 51 35 115zM135 102q2 -2 8 -2l29 76q-10 -18 -19.5 -38t-17.5 -36z" />
<glyph unicode="q" horiz-adv-x="970" d="M526 10q72 70 144.5 137.5t142.5 139.5q59 59 113.5 119.5t107.5 121.5q18 20 33.5 43t32.5 45q20 25 35.5 30t38.5 -7q4 -2 6 -8t0 -10q-8 -16 -17.5 -32t-19.5 -30q-92 -117 -193.5 -223.5t-210.5 -208.5q-59 -53 -118.5 -104.5t-118.5 -102.5q-18 -16 -29.5 -26.5 t-14.5 -19.5t1 -20.5t12 -29.5l35 -74q25 -55 25.5 -116.5t-11.5 -127.5q-23 -125 -64.5 -244.5t-119.5 -236.5q-18 -29 -40 -54.5t-44 -51.5q-29 -33 -62.5 -48.5t-72.5 -21.5q-59 -6 -78 43q-18 47 -19.5 97t5.5 104q41 291 176 571q55 121 115.5 238.5t119.5 236.5 q4 6 4 19q-33 -33 -69 -64q-41 -35 -83 -68.5t-87 -62.5q-72 -47 -151 -45t-128 49q-27 23 -34 56.5t-7 70.5q-2 57 14.5 112.5t43.5 110.5q66 137 157.5 256t216.5 220q41 31 84 57.5t90 42.5q70 27 131 -6q8 -2 17 -15q4 -6 8 -26q-6 -2 -13 -2t-14 -4q-20 -8 -40.5 -15.5 t-38.5 -19.5q-129 -80 -229.5 -184.5t-176.5 -233.5q-41 -68 -71.5 -137.5t-39.5 -140.5q-4 -29 -3 -56.5t6 -54.5q6 -39 49 -21q47 16 87 43t77 60q68 61 134 124.5t134 125.5q61 59 112.5 122.5t96.5 133.5q16 25 27.5 30t35.5 0q14 -4 26.5 -9t24.5 -11q14 -6 12.5 -17.5 t-10.5 -21.5q-23 -39 -45 -76t-45 -73l-207 -363q-4 -8 -7 -15t-7 -16zM389 -233l-14 -25q-35 -76 -68 -149.5t-63 -151.5q-41 -102 -70 -203.5t-41 -206.5q-4 -29 -2 -57.5t4 -56.5q0 -27 29 -4q39 39 69.5 81.5t57.5 90.5q61 113 97 228.5t46 231.5q8 61 -5 115t-40 107z M285 -348l-80 -193q-37 -98 -64.5 -196.5t-44.5 -198.5q-4 -23 -3 -46.5t-1 -45.5h6q0 4 2 8t0 8q4 35 8.5 71t10.5 71q25 123 65.5 242.5t91.5 242.5q4 12 8.5 24.5t8.5 22.5q-6 -6 -8 -10zM260 625q-31 -23 -78 -82.5t-90 -129t-72.5 -137t-27.5 -104.5q41 123 110.5 236 t157.5 217zM741 475q-82 -119 -153.5 -240.5t-130.5 -250.5q72 123 142 245.5t142 245.5zM86 451q-14 -16 -33.5 -47t-36 -64t-28 -60.5t-8.5 -37.5zM20 403q-29 -47 -55 -97t-37 -105q25 53 48.5 103t43.5 99zM504 -391l-35 -217q16 55 27.5 109.5t7.5 107.5zM59 -883h-6 l-10 -82q4 0 8 2zM334 -262q-4 0 -4 1t-4 1l-25 -59q8 16 16.5 29.5t16.5 27.5zM94 -852h-4l-12 -61q4 2 4 6z" />
<glyph unicode="r" horiz-adv-x="741" d="M530 893q-14 -23 -28.5 -46.5t-30.5 -47.5q-88 -158 -173 -314.5t-155 -318.5q-10 -25 -17 -50.5t-17 -49.5q-4 -10 -7.5 -18.5t-9.5 -14.5q-4 -4 -11 -6t-13 -7q-4 8 0 19q-2 4 0 7t2 7h-7q-8 -8 -11 -21.5t-21 -8.5q-23 4 -35 11t-10 27q4 47 8 92.5t12 92.5 q41 195 92 385q18 66 45 129t50 129q4 8 8 15t8 16q16 31 32.5 33.5t41.5 -13.5q29 -18 29.5 -43t-9.5 -59q-23 -86 -44 -170t-44 -170q0 -2 4 -11l51 88q68 123 139.5 241t153.5 235l12 20q6 10 14.5 22.5t12.5 12.5q35 0 60 -12q31 -16 24 -58l-39 -295l-31 -301 q0 -18 4.5 -36.5t8.5 -36.5q10 -29 41 -7q18 14 37.5 28.5t33.5 31.5q29 37 55.5 76t55.5 77q6 8 11 16.5t16 18.5q33 39 59 10q4 -4 2 -13t-6 -15q-18 -29 -36.5 -56.5t-41.5 -54.5q-25 -33 -53.5 -64.5t-57.5 -62.5q-35 -37 -72.5 -41t-74.5 11q-41 16 -63.5 43.5 t-32.5 68.5q-14 47 -14.5 96.5t6.5 100.5q8 59 19 118.5t22 118.5q0 16 2 25h-7z" />
<glyph unicode="s" horiz-adv-x="741" d="M293 154q41 39 80 75.5t80 69.5q135 117 276 221q39 27 80 46.5t82 41.5q37 20 70 -2q16 -10 -5 -22q-8 -4 -14 -9.5t-16 -9.5q-86 -37 -159 -91t-144 -114q-154 -127 -293 -278q-23 -27 -21 -55q23 -158 10 -318q-6 -92 -33.5 -181t-82.5 -177q-98 -162 -277 -182 q-23 -2 -48 -2.5t-50 4.5q-47 8 -62.5 34.5t-11.5 77.5q8 76 37 145.5t64 141.5q53 106 120.5 202.5t147.5 188.5q27 29 20 59q-29 166 -49 332q-10 78 -8 158t27 166q29 92 83 162.5t146 117.5q61 33 115.5 21t95.5 -41q0 -2 1 -2t1 -2l12 -33q-8 0 -16 -1t-16 1 q-61 4 -111.5 -22.5t-91.5 -73.5t-60.5 -97.5t-27.5 -103.5q-10 -66 -7 -126t13 -120l37 -184q2 -4 3 -8t3 -10zM154 -129l-17 -16q-141 -178 -225 -383q-20 -47 -34.5 -95.5t-10.5 -97.5q2 -47 21.5 -54t64.5 25q37 29 63.5 66t49.5 78q43 90 63.5 178t24.5 180q2 56 0 119 zM195 -584q37 72 57 142.5t18 142.5zM-168 -700q4 0 6 -2l33 157q-16 -41 -29.5 -78.5t-9.5 -76.5zM322 848q-37 -27 -56.5 -60.5t-34.5 -72.5zM152 -489q8 12 15 33.5t12 45t6 45t-1 33.5zM186 -494h7l28 132h-6zM172 750q2 0 3 -1t3 -1l60 92q-2 0 -3.5 1t-3.5 1 q-16 -23 -30.5 -46t-28.5 -46zM223 774q2 0 3 -1t3 -1l35 51l-6 4zM-203 -631h-4l-12 -59q4 8 6 15t4 16zM270 -446h2l15 61h-2z" />
<glyph unicode="t" horiz-adv-x="462" d="M92 -166q35 49 69 98.5t64 98.5q53 82 102.5 165t100.5 164q45 70 93 138.5t95 138.5q10 16 21.5 14t21.5 -4q20 -6 9 -29l-68 -112l-348 -574q-20 -35 -44 -70.5t-48 -70.5q-53 -74 -142 -61q-45 8 -63 40.5t-27 73.5q-10 53 -4 108.5t23 110.5q31 111 62.5 218.5 t66.5 218.5q33 102 68.5 202.5t70.5 202.5q23 63 48.5 127t49.5 127q10 23 7 27t-23 0q-68 -10 -133.5 -17.5t-128.5 2.5q-82 16 -139 60q-18 12 -29 33q-4 8 0 22q4 0 9 1t9 1q16 -4 21 -8q41 -33 88 -36t100 3q59 8 120.5 18.5t123.5 20.5q25 6 37 35q33 96 78 199 q10 27 16 27.5t31 2.5q20 2 30.5 -4t20.5 -16q20 -16 20 -39t-6 -47q-4 -23 -10 -47.5t-10 -46.5q-8 -23 -5 -27t25 -4q63 2 119.5 -8.5t103.5 -40.5q16 -10 28.5 -24.5t25.5 -28.5v-17q-14 -4 -19 -2q-27 6 -39 16q-39 27 -85 31t-93 0q-16 -2 -32.5 -5t-32.5 -3 q-33 -2 -39 -35q-16 -49 -30.5 -98t-31.5 -98q-35 -98 -68.5 -194.5t-68.5 -195.5q-29 -88 -57.5 -175t-55.5 -175q-23 -78 -45 -154.5t-45 -154.5q-8 -31 -11 -60.5t-9 -60.5q4 0 6 -1t6 -1zM330 846q-8 -6 -13 -19q-16 -47 -34.5 -92t-34.5 -92q-33 -98 -65.5 -193.5 t-61.5 -193.5q-23 -76 -43.5 -149.5t-36.5 -149.5q-6 -23 -5 -45.5t-3 -46.5q25 123 59.5 245.5t74.5 244.5t82 245t81 246zM250 858h-6q-10 -29 -21.5 -55.5t-21.5 -54.5q-39 -117 -79 -232t-77 -231q-23 -70 -39 -139.5t-35 -141.5q-4 -23 -6 -47.5t-6 -46.5h10l8 65 q16 82 36 163t48 161l125 377zM0 -82h6q41 217 112.5 429t141.5 427q-4 -10 -9 -19.5t-9 -19.5q-33 -92 -66 -183t-61 -183q-31 -100 -56.5 -199.5t-52.5 -198.5q-4 -14 -4 -26.5t-2 -26.5zM25 -51h4l39 180h-5zM182 319q-2 0 -4 3l-26 -86h6zM203 395q0 -2 4 -2q2 8 5 16.5 t5 16.5l10 31h-6zM158 414h-4l-21 -66h6z" />
<glyph unicode="u" horiz-adv-x="1161" d="M397 1020q45 6 25 -35q-23 -47 -45.5 -95t-42.5 -97q-53 -129 -102.5 -259.5t-73.5 -265.5l-6 -49q0 -18 3 -20t19 10q31 25 59.5 48.5t53.5 49.5q164 166 315.5 339t296.5 353q18 23 31.5 48.5t30.5 50.5q8 10 14 25.5t29 2.5q6 -4 17 0t21 7q4 0 17 -5q29 -16 32 -29.5 t-14 -51.5l-145 -336q-68 -154 -128.5 -305.5t-107.5 -307.5q-20 -66 -39.5 -131t-35.5 -131q-12 -66 -16.5 -132t-10.5 -134q-2 -2 2 -21q8 6 12 11.5t8 9.5q53 78 108.5 156.5t106.5 156.5q86 125 166 249t160 249q29 45 56.5 90t56.5 90q12 25 30 49q12 16 25.5 13.5 t26.5 -5.5q2 0 1 -10t-5 -16q-10 -20 -22.5 -40t-25.5 -40l-440 -690q-43 -68 -87 -134.5t-91 -131.5q-51 -76 -143 -76q-37 0 -50 33q-18 43 -23 90t-1 96q4 115 30.5 227.5t61.5 227.5q49 160 112.5 315.5t135.5 310.5q4 4 2 15q-23 -29 -45.5 -56.5t-46.5 -54.5 q-86 -102 -170 -201.5t-172 -199.5q-31 -33 -64 -63t-67 -58q-37 -29 -76 -33t-78 4q-41 8 -57.5 34t-16.5 66q-2 55 9.5 110.5t29.5 113.5q35 106 77 209.5t95 205.5q20 37 44 74t48 72q14 20 42 24.5t40 -12.5q2 -2 -2 -10zM553 -436h8v28q0 74 8.5 149t28.5 148 q16 63 32.5 125t39.5 123q31 92 63.5 183.5t71.5 181.5q53 133 111.5 262t117.5 260l17 47q-2 2 -7 2l-12 -14q-6 -16 -11 -30.5t-13 -31.5q-104 -229 -202.5 -457.5t-170.5 -463.5q-31 -104 -54.5 -205.5t-27.5 -206.5q-2 -25 -1 -50t1 -50zM117 274q4 10 6 19.5t6 19.5 q16 57 31.5 113.5t36.5 114.5q39 111 84 218t102 214q8 10 9 21.5t5 23.5q-100 -180 -173.5 -364.5t-106.5 -379.5zM248 854q-61 -131 -115.5 -262t-77.5 -270q33 135 85.5 267t107.5 265zM96 358q41 139 95.5 273.5t115.5 269.5q-70 -133 -123 -267.5t-88 -275.5zM580 -2 q-4 -18 -9.5 -36.5t-9.5 -35.5q-16 -59 -24.5 -117.5t-10.5 -117.5q6 6 6 16q6 37 10.5 74t12.5 74q8 41 15.5 79.5t17.5 77.5q-6 -6 -8 -14zM580 100q-20 -49 -38 -115.5t-29 -130t-15 -115.5t2 -73q4 111 24.5 217t55.5 217zM731 428q-4 0 -6 2l-55 -147h8 q12 35 25.5 71.5t27.5 73.5zM799 598q12 29 25.5 54.5t25.5 54.5q-6 0 -8 2l-43 -109l-33 -70q4 0 4 -1t4 -1zM625 125h-13l-18 -94z" />
<glyph unicode="v" horiz-adv-x="790" d="M113 55l14 90q16 92 30.5 182.5t32.5 182.5q14 66 35 130.5t39 129.5l45 156q0 4 3 9t5 5q4 0 10.5 -1t6.5 -5q6 -18 4 -33q-16 -59 -31.5 -115.5t-30.5 -115.5q-23 -92 -42 -182.5t-39 -182.5q-10 -41 -15.5 -81t-11.5 -81q0 -6 -2 -13t0 -13q0 -2 4 -2q6 8 14.5 15 t14.5 17q158 205 304 410t273 426q10 18 19.5 36.5t19.5 35.5q12 16 29 20q33 8 49 -6t16 -45q-4 -53 -8 -105.5t0 -105.5q2 -61 11.5 -121.5t43.5 -109.5q12 -16 -12 -19q-45 -6 -70 35q-35 55 -48 117.5t-19 130.5q-2 8 -2 33l-23 -31q-66 -109 -133 -215.5t-139 -212.5 q-49 -76 -102.5 -149.5t-106.5 -145.5q-25 -35 -54.5 -64.5t-62.5 -58.5q-14 -12 -35.5 -20.5t-45 -11.5t-44 0t-30.5 14q-12 10 -18.5 26.5t-8.5 32.5q-4 90 6 180q6 94 29 195q18 94 50 184t67 182q14 35 27.5 69t25.5 69q10 25 28.5 30.5t43.5 -0.5q0 -2 2 -2 q16 -4 24 -4q-2 -14 -12 -33q-29 -98 -60.5 -196.5t-54.5 -196.5q-23 -104 -37 -204.5t-30 -204.5q-4 -14 -4.5 -27.5t-2.5 -28.5h9zM231 899q-72 -180 -125 -357t-63 -360q8 90 26.5 180.5t45 179.5t56 178t60.5 179zM274 928q-47 -133 -92 -262t-63 -248z" />
<glyph unicode="w" horiz-adv-x="1439" d="M1364 911q-16 -27 -27.5 -51t-23.5 -47q-80 -150 -166 -295t-189 -285q-55 -78 -116 -139q-31 -33 -67 -45t-69.5 -9t-60.5 18.5t-39 39.5q-20 41 -24 83t4 89q16 113 43.5 224.5t68.5 222.5q4 6 0 16l-47 -61q-66 -92 -128 -181.5t-128 -181.5q-27 -35 -56.5 -65.5 t-59.5 -61.5q-16 -18 -46 -28.5t-61 -9.5t-56.5 12.5t-37.5 36.5q-31 66 -21 147q8 72 24.5 144.5t37.5 144.5q18 74 43.5 147.5t60.5 145.5q25 47 51.5 95t55.5 95q8 14 18 23.5t31 5.5q6 -4 17.5 -4h21.5q23 -2 20.5 -12.5t-10.5 -22.5q-18 -35 -36.5 -72t-39.5 -74 q-41 -80 -69.5 -160.5t-51.5 -164.5q-16 -59 -29.5 -117.5t-25.5 -118.5q-6 -27 -8 -52.5t-4 -49.5h8l4 51q35 180 88 354t150 346q8 12 13 26.5t9 27.5q4 8 11.5 14t11.5 12q6 -8 17 -13t1 -21l-41 -86q-51 -94 -88 -190.5t-61 -195.5q-20 -78 -37 -154.5t-33 -154.5 q-4 -23 -5 -43t-5 -43q2 0 2 -1t4 -1q10 8 17.5 14.5t15.5 16.5q53 68 107.5 136.5t107.5 137.5l317 406l35 51q25 45 64 23l10 -5q8 -8 8 -14q-31 -86 -63.5 -172t-61.5 -172q-23 -68 -39 -136.5t-33 -137.5q-10 -33 -15 -65t-11 -62q0 -2 4 -2q6 12 6 20q25 92 46.5 181 t47.5 182q29 90 61.5 177t63.5 177q2 4 6 8l8 8q2 -4 6.5 -6t4.5 -6q2 -6 1 -13t-1 -14q-29 -84 -56.5 -164.5t-56.5 -164.5q-33 -111 -61 -232q-12 -53 -23.5 -105t-21.5 -106q-4 -23 -1 -43t7 -39q8 -41 41 -8q29 29 57.5 59.5t54.5 63.5q94 121 174 247t152 257 q47 86 89 169t87 169q8 14 13 28.5t10 30.5q4 12 10 20.5t22 8.5q45 4 59.5 -6.5t12.5 -51.5q-4 -82 -3 -161.5t17 -157.5q10 -51 30 -96t54 -82l4 -4l19 -35q-12 -2 -24.5 -7t-22.5 -3q-16 4 -31.5 8t-26.5 14q-51 41 -83.5 95.5t-43.5 123.5q-6 31 -11 62.5t-9 66.5z M100 385q18 70 36 139.5t38 139.5q23 70 47.5 138t48.5 138q-70 -137 -107.5 -275.5t-62.5 -279.5zM621 289q16 66 31.5 134.5t37.5 135.5q18 70 42 137.5t46 137.5q-20 -35 -45.5 -107t-48 -152.5t-41 -158.5t-22.5 -127zM328 971q-72 -125 -110 -253t-64 -257 q31 129 72 256t102 254zM784 780q2 0 3 -1t6 -1l49 135h-6q-10 -33 -24 -65.5t-28 -67.5zM729 612q4 0 6 -2l21 66h-6zM694 481h-2l-20 -100h2z" />
<glyph unicode="x" horiz-adv-x="804" d="M315 479q16 18 28.5 34.5t29.5 31.5q47 45 94 89t96 85q49 43 107 29q10 -2 26 -15q12 -12 9 -19t-19 -18q-12 -8 -24.5 -15t-24.5 -17q-78 -72 -150.5 -148t-134.5 -162q-10 -18 -8 -32q4 -61 9 -122t12 -122q8 -72 22 -140.5t43 -132.5q16 -31 24.5 -30.5t30.5 35.5 q66 111 128.5 219t125.5 219q55 94 108.5 188t108.5 191q20 35 50 24q14 -4 12 -16t-8 -23q-20 -41 -43 -80.5t-45 -80.5q-41 -78 -85 -153t-85 -153q-47 -84 -90.5 -166.5t-83.5 -166.5q-4 -6 -7.5 -12.5t-7.5 -10.5q-35 -55 -90 -74.5t-108 2.5q-47 23 -77 60t-46 86 q-16 55 -28.5 112.5t-27.5 114.5l-6 10l-51 -80q-80 -129 -154.5 -257t-138.5 -263q-27 -53 -44 -104t-30 -105q-4 -12 -8 -18t-6 -10q-14 2 -30.5 0t-20.5 14q-4 23 -6 44.5t2 41.5q18 55 37.5 108.5t44.5 106.5q80 168 173 329t197 320q12 20 18.5 38t2.5 40 q-14 86 -24.5 174t-22.5 176q-4 29 -15.5 53.5t-21.5 49.5q-6 18 -3 24t25 13q37 10 63 -2.5t44 -36.5q41 -55 62.5 -120t37.5 -134q0 -13 4 -23zM178 145l-4 5l-16 -21l-97 -154q-72 -123 -141.5 -243.5t-126.5 -249.5l-37 -98h8q76 201 186.5 388t227.5 373zM334 389 q4 -4 6 -4q23 25 41 50.5t41 51.5q-4 0 -4 5z" />
<glyph unicode="y" horiz-adv-x="1173" d="M950 821l-22 -22q-92 -106 -183.5 -213t-185.5 -213q-47 -53 -99 -101.5t-112 -89.5q-35 -25 -83 -35t-93 -1.5t-80 36t-47 80.5q-18 72 -13 144.5t27 150.5q33 111 84.5 213t126.5 199q29 37 69 38t56 -36q4 -10 -4 -19q-51 -78 -88 -158.5t-65 -164.5 q-33 -90 -48.5 -178.5t-5.5 -174.5q4 -18 10.5 -34.5t10.5 -32.5q6 -23 33 -6q41 29 84 55.5t81 60.5q154 141 290 294t268 313q10 14 19 29.5t19 31.5q16 16 29 17q35 0 59 -9q29 -10 30 -32.5t-3 -49.5q-16 -113 -41.5 -225.5t-60.5 -224.5l-19 -60l37 27 q70 53 138.5 101.5t146.5 86.5q14 8 26.5 11.5t28.5 -2.5q12 -6 13 -11.5t-15 -15.5q-27 -16 -53.5 -32.5t-50.5 -35.5q-59 -43 -119 -89t-121 -89q-43 -31 -62.5 -67.5t-35.5 -81.5q-35 -96 -75 -190.5t-81 -188.5q-88 -203 -215 -385q-66 -98 -142.5 -186.5t-170.5 -163.5 q-45 -39 -94.5 -61.5t-102.5 -26.5q-51 -4 -75.5 14t-18.5 78q4 59 26.5 115.5t51.5 111.5q63 125 144 238.5t171 224.5q82 102 175 194.5t194 178.5q66 59 86 135q33 111 66.5 220.5t68.5 219.5l22 86q-2 0 -3 1t-3 1zM715 63q-2 2 -8 3l-15 -15q-213 -203 -379 -440 q-63 -88 -117.5 -177t-91.5 -188q-14 -37 -20 -73.5t-14 -73.5q-4 -12 2 -15.5t18 7.5q10 8 19.5 15t17.5 15q98 82 173 178.5t140 198.5q68 104 121 211t98 217q14 35 27 68.5t29 68.5zM918 342q8 8 20 38t26.5 69.5t28 87t24.5 88.5t17 72.5t4 41.5zM954 657q-6 0 -10 2 l-119 -383q2 0 4 -1t5 -1zM872 309h9q23 76 49 152t43 151q-2 0 -3 1t-3 1zM352 952q-70 -94 -112.5 -194.5t-71.5 -204.5q35 104 80 202.5t104 196.5zM801 14q2 -2 6 -2q23 53 46.5 107.5t37.5 109.5q0 2 -8 2q-20 -53 -41 -108.5t-41 -108.5zM250 897q-88 -137 -137 -287z M53 -803q-10 -23 -18 -44t0 -44zM956 686h5l12 62h-4z" />
<glyph unicode="z" horiz-adv-x="1173" d="M604 627q-8 0 -15 1t-18 1q-72 -2 -140.5 9t-127.5 46q-4 4 -11 2t-11 0h-37t-39 2q-12 2 -11 10.5t11 14.5q18 10 18 19t-6 22q-27 47 -28 101t18 112q33 111 94 205t152 178q41 39 88 63.5t100 24.5q92 -2 126 -57.5t-1 -145.5q-10 -20 -20.5 -40.5t-22.5 -41.5 q-66 -111 -146.5 -207t-183.5 -180q-18 -14 -19 -19.5t15 -19.5q49 -39 125 -35q53 0 105.5 4t105.5 9q57 6 96 -33q18 -20 -4 -43q-35 -31 -71.5 -60.5t-69.5 -62.5q-55 -53 -109.5 -107.5l-109.5 -109.5l-21 -27q18 4 33.5 8t30.5 6q41 4 83 7.5t83 3.5q33 -2 56 -16.5 t42 -37.5q12 -14 35 3q104 86 208.5 168.5t211.5 166.5q16 12 32.5 22.5t32.5 20.5q18 12 32.5 11.5t29.5 -7.5q23 -12 0 -28q-25 -18 -48.5 -34.5t-46.5 -35.5l-231 -196l-189 -162q-6 -6 -12 -14.5t-2 -12.5q10 -68 -3 -137.5t-40 -138.5q-39 -102 -91 -198.5t-126 -184.5 q-193 -229 -465 -314q-41 -10 -74 -10q-41 -2 -63.5 23.5t-11.5 66.5q4 23 12 45.5t18 44.5q47 96 112 180.5t136 165.5q102 119 214 227.5t229 213.5q23 18 16 43q-16 57 -40 69.5t-89 -4.5q-63 -16 -122.5 -43.5t-119.5 -68.5q-82 -57 -162 -21q-27 10 -29.5 19.5 t19.5 36.5q45 55 89 109t93 103q68 68 139.5 132.5t145.5 132.5zM680 12q-2 2 -8 2q-8 -4 -15 -10q-135 -123 -258 -256t-229 -278q-55 -78 -96 -162q-8 -16 -9.5 -33.5t1.5 -34.5q4 -35 38 -16l43 16q117 57 200 147.5t151 194.5q47 72 80.5 145.5t62.5 151.5 q10 33 19.5 65.5t19.5 67.5zM332 942l-2 -104q2 -29 28 -7q190 166 310 392q18 37 24 73.5t-10 71.5q-6 25 -31 10q-18 -10 -34.5 -19t-32.5 -22q-94 -82 -153.5 -181t-98.5 -214zM297 942q20 74 57 142.5t78 136.5q-47 -66 -87 -133.5t-48 -145.5zM739 -127q18 45 31.5 87 t11.5 85h-6zM748 1247q-2 0 -3.5 1t-3.5 1q-10 -20 -20 -40.5t-19 -41.5q2 0 2.5 -1t2.5 -1q23 41 41 82zM268 1042q-2 0 -4 1t-4 1l-29 -90q4 0 5 -2zM279 1006q2 -2 6 -2l24 59q-2 0 -3 1t-3 1zM696 -45h4l17 82h-4zM729 -45h4l12 63h-4z" />
<glyph unicode="{" horiz-adv-x="671" d="M90 -705q-10 6 -19.5 12.5t-19.5 14.5q-39 39 -52 88t-11 109q-2 123 19.5 243.5t58.5 243.5q29 100 60.5 200.5t47.5 203.5q10 59 9 114.5t-23 106.5l-8 16q-18 29 6 60q88 98 145 204.5t107 221.5q49 117 104 227t125 221q49 78 107.5 146.5t136.5 121.5q35 23 66.5 31 t62.5 -10q8 -4 12 -12q16 -20 15 -25.5t-29 -15.5q-37 -16 -66 -39t-57 -52q-133 -135 -211 -305q-53 -117 -105.5 -231.5t-105.5 -231.5q-80 -166 -211 -303q-4 -4 -6 -10t0 -10q41 -57 51 -124t-6 -142q-16 -70 -35.5 -138.5t-38.5 -138.5q-25 -98 -51.5 -193.5 t-46.5 -193.5q-10 -49 -11 -99t-6 -102q-4 -49 14.5 -89t41.5 -79q4 -10 3 -16t-16 -10zM68 -545q6 0 8 2v25q-4 80 4 162t31 166q29 115 61.5 228.5t65.5 227.5q10 35 17 69t7 73q-6 -12 -6 -13q-33 -121 -65.5 -239.5t-65.5 -239.5q-25 -86 -41 -172t-21 -172 q0 -29 2.5 -58.5t2.5 -58.5zM532 1196q-51 -100 -95 -201.5t-109 -195.5q39 45 67.5 94t51 99t42.5 101.5t43 102.5zM680 1499q39 55 77 109.5t79 107.5q-51 -47 -89 -102.5t-67 -114.5zM199 356h-6l-52 -190h9zM227 348h-6l-57 -207h6zM51 -293h4l43 201h-4zM334 907 q2 0 2 -1t2 -1l39 72q-4 0 -6 2zM39 -446l4 2q4 18 4 36.5t2 36.5q-2 0 -3 -1t-3 -1zM717 1647q-2 0 -2 1t-2 1l-37 -52q2 0 3 -1t3 -1zM82 -43h-4l-12 -61h4z" />
<glyph unicode="|" horiz-adv-x="395" d="M-6 -514q33 147 65.5 294.5t67.5 295.5q35 139 70.5 277.5t74.5 277.5q35 129 73 257t75 257q23 76 42 150.5t42 150.5l84 270q4 14 12 22.5t25 6.5q43 -6 37 -39q-102 -356 -197 -713q-35 -121 -67.5 -239.5t-63.5 -241.5q-37 -141 -71 -283.5t-66 -285.5 q-29 -111 -52.5 -220.5t-48.5 -220.5q-6 -25 -12 -48l-12 -46v-4q-16 -4 -34 -9t-34 -9q-29 -6 -24 22l10 78h4zM51 -547h6q86 379 174 753t199 750q-10 -29 -20.5 -59.5t-18.5 -60.5l-74 -256q-14 -47 -24 -92.5t-21 -92.5q-23 -92 -47 -181t-45 -181q-31 -129 -58.5 -256 t-55.5 -256zM158 4h-4l-43 -205h4zM219 346h-4l-14 -72h4zM152 78l-2 2l-29 -135h2zM231 403h5l14 60h-4zM55 -334h2l19 90h-2zM199 182h-2l-15 -71h2zM217 250h2l14 67h-2zM266 446h-2l-14 -65h2z" />
<glyph unicode="}" horiz-adv-x="342" d="M614 1479q-27 -92 -50 -175t-46 -167q-29 -117 -46 -228.5t3 -220.5q4 -35 -4 -60.5t-35 -56.5q-53 -59 -87 -127.5t-56 -140.5q-29 -86 -54.5 -172t-54.5 -172q-23 -72 -46 -141.5t-52 -139.5q-29 -78 -81 -141t-111 -127q-23 -23 -45.5 -44t-57.5 -25 q-10 -2 -20.5 -4.5t-20.5 -0.5q-16 4 -12 11.5t10 15.5q20 25 38.5 50.5t41.5 49.5q16 23 34.5 45.5t37.5 45.5q47 59 74.5 122.5t45.5 128.5q35 106 66 212t64 212q29 92 66.5 179.5t94.5 173.5q8 10 15.5 20t15.5 21q31 33 20 67q-16 59 -18 119.5t6 123t22.5 125 t30.5 126.5q29 109 61 215t60 215q16 59 14.5 114.5t-38.5 100.5q-2 0 -2 2v4v4q12 8 16 6q16 -8 32.5 -14t28.5 -19q68 -84 56 -196zM295 406q-55 -123 -89 -242t-65 -240z" />
<glyph unicode="~" horiz-adv-x="917" d="M412 764q63 2 115.5 -17.5t103.5 -44.5q35 -16 71.5 -28t75.5 -23q72 -16 144 31q27 16 52 31.5t52 31.5q6 4 15.5 7.5t17.5 3.5t14 -4t14 -9q-6 -8 -22 -24q-47 -41 -100.5 -74t-110.5 -55q-70 -29 -134.5 -28t-129.5 16q-47 10 -91 30.5t-85 42.5q-25 16 -51.5 26.5 t-55.5 20.5q-10 4 -24.5 3t-26.5 -1q-12 2 -23.5 3.5t-23.5 5.5q-4 0 -7 3l-7 7q6 4 10 8t12 6q23 6 46.5 11.5t47.5 9.5q25 4 50.5 6t50.5 4zM737 608q0 6 2 8l-47 11q-4 -4 -4 -6z" />
<glyph unicode="&#xa1;" horiz-adv-x="475" d="M600 759q-35 -96 -67.5 -191t-71.5 -192q-125 -328 -287 -653q-27 -51 -55.5 -100t-56.5 -98q-16 -29 -29.5 -33t-36.5 10q-10 6 -19 13t-16 18q-4 4 -2 14t7 21q25 47 51 95t49 95q104 205 197.5 409.5t173.5 415.5q16 47 32.5 94.5t30.5 94.5q8 23 10 46t6 46 q2 27 29 24q57 -4 57 -59q0 -33 -6 -67q2 0 2 -1.5t2 -1.5zM648 1245q31 -2 45 -13.5t18 -41.5q4 -27 -11.5 -56.5t-37.5 -44.5q-25 -16 -57.5 -15t-45.5 19q-10 10 -23 18.5t-3 30.5q10 27 24.5 49.5t36.5 39.5q10 8 25 9t29 5zM9 -416l4 -4q20 35 40.5 70.5t36.5 70.5 q123 238 228.5 477.5t189.5 485.5l17 53l6 31q-102 -305 -235 -598t-287 -586zM287 18l-2 4q-23 -43 -42 -87t-40 -87q2 0 2 -1t2 -1z" />
<glyph unicode="&#xa2;" horiz-adv-x="759" d="M434 94q29 16 53.5 29.5t47.5 30.5q39 25 74.5 51t70.5 55q23 23 43 48.5t43 49.5q6 8 14 17.5t17 11.5q12 2 22 -3t21 -9q6 -4 2 -19q0 -27 -13.5 -48t-31.5 -42q-45 -51 -98.5 -91t-108.5 -75q-35 -23 -69 -43t-70 -22q-35 -4 -51.5 -21.5t-28.5 -46.5q-16 -41 -37 -81 t-39 -81q-8 -20 -27 -16h-12q-23 2 -28 10t5 31l74 174q10 23 -12 25q-113 18 -166 95t-31 193q80 401 457 629q33 20 70 32.5t71 22.5q35 10 49 43q20 47 41 95.5t45 95.5q12 27 19.5 38t14.5 13t16.5 -5t27.5 -17q10 -4 10.5 -9.5t-4.5 -15.5q-20 -51 -37.5 -102.5 t-39.5 -100.5q-12 -31 14 -39q51 -18 74 -61l6 -18q0 -4 -2 -9.5t-2 -9.5q-10 0 -15 2q-10 4 -19 10.5t-20 12.5l-9 9t-13 9q-39 23 -61 -29l-244 -563l-105 -231q-2 -4 -3 -9.5t-5 -15.5zM688 909q-6 -2 -8 -1t-4 -1q-14 -4 -21 -10q-41 -29 -84 -55.5t-79 -59.5 q-92 -80 -157 -175t-108 -204q-20 -57 -28.5 -112t2.5 -109q10 -43 34.5 -73.5t75.5 -34.5q29 -2 37 24l303 723zM600 528q-6 0 -8 2l-191 -438q2 -2 7 -2zM233 494q37 70 84.5 135t100.5 129q-124 -117 -185 -264zM287 -160q2 0 3 -1t3 -1l80 176h-6z" />
<glyph unicode="&#xa3;" horiz-adv-x="1349" d="M1145 852q4 4 8 10t10 10q4 4 8.5 5.5t8.5 3.5q0 -14 -2 -19q-10 -12 -21.5 -24.5t-23.5 -20.5q-39 -25 -91 -41q-55 -16 -111.5 -26.5t-109.5 -1.5q-14 2 -17 -5.5t-7 -15.5q-31 -59 -60.5 -117.5t-62.5 -117.5q-53 -92 -107.5 -180.5t-126.5 -168.5 q-33 -37 -68.5 -71.5t-70.5 -69.5l-27 -25q20 -4 36 -5t30 -5q59 -18 116.5 -37.5t116.5 -40.5q70 -23 138.5 -44t146.5 -19q76 2 146.5 22.5t140.5 67.5q20 14 39.5 20.5t40.5 -8.5q14 -10 16 -17t-12 -22q-20 -16 -43 -32.5t-45 -28.5q-137 -68 -263 -69t-247 34 q-66 20 -129.5 47t-128.5 49q-31 10 -62.5 17.5t-62.5 15.5q-39 10 -76 -18q-16 -14 -35.5 -25.5t-38.5 -25.5q-29 -23 -52 -17l-46 12q-2 0 -4 2.5t-6 4.5q-23 8 0 28q35 29 68.5 59.5t70.5 57.5q188 143 307 346q59 98 112.5 195.5t106.5 195.5q14 27 -12 27 q-45 -4 -88 -5t-86 -3q-8 0 -16 -4q-33 -16 -49.5 -3t-32.5 27q-2 2 0 8.5t4 8.5q6 4 14 9t19 9q72 31 138 33t134 -2q16 -2 24.5 3t16.5 21q57 106 112.5 212t114.5 210q47 84 105.5 161t132.5 142q35 31 70.5 57.5t76.5 45.5q59 25 111.5 10.5t83.5 -64.5q59 -94 26 -225 q-4 -12 -12 -23.5t-16 -23.5l-20.5 20.5t-18.5 20.5q-4 6 -2 15.5t2 19.5q4 43 2 84t-12 80q-6 23 -15.5 27.5t-36.5 -5.5q-47 -14 -84.5 -40.5t-72.5 -61.5q-68 -68 -122 -143.5t-97 -159.5q-49 -92 -94.5 -183.5t-92.5 -183.5q-10 -18 -7 -22.5t24 -1.5q53 6 104 17 t102 40q4 4 8.5 5t8.5 3q16 6 31.5 13.5t27.5 -9.5q12 -16 -2 -25.5t-20 -21.5zM465 223q92 127 164.5 259t136.5 270zM803 836q6 0 8 -2q35 66 66.5 132t64.5 132q-4 0 -4 2q-35 -66 -68.5 -132t-66.5 -132zM702 750q-4 0 -4 1t-2 1q-35 -66 -70.5 -130.5t-68.5 -129.5 q2 0 2 -1.5t4 -1.5q35 66 69.5 130.5t69.5 130.5zM700 678l-8 4l-147 -268q2 0 3 -1t3 -1zM1274 1575q-74 -57 -126 -127t-97 -148q51 74 104 143t119 132zM762 887q2 -2 6 -2q12 29 29 57q-2 0 -3 1t-3 1z" />
<glyph unicode="&#xa4;" horiz-adv-x="1093" d="M569 961q39 31 78 54t80 42q41 16 82 3t57 -46q8 -16 21 -23q41 -16 74.5 -39.5t60.5 -56.5q10 -10 16 -9t17 11q49 49 100 98t105 97q29 29 43 27.5t34 -29.5q0 -2 3 -2.5t6 -2.5q16 -10 0 -22l-254 -223q-10 -8 -14.5 -15.5t-2.5 -19.5q10 -37 1 -76t-25 -78 q-41 -86 -86 -168t-113 -157q-2 -4 -5 -8.5t1 -8.5q14 -55 37 -110q12 -35 26.5 -68t28.5 -68q0 -4 2 -9t-2 -9q0 -4 -6 -5t-10 -1q-80 -6 -107 57q-12 29 -24.5 55.5t-22.5 55.5q-8 25 -33 6q-53 -39 -108.5 -66.5t-114.5 -33.5q-33 -4 -65.5 -3t-65.5 5q-27 6 -47 -19 q-55 -66 -111.5 -132t-113.5 -132l-60 -65q-33 -33 -65 -9q-4 0 -3 4.5t1 6.5q16 27 30.5 52t32.5 50q53 68 108.5 134.5t110.5 131.5q10 12 9 18.5t-9 14.5q-14 23 -24 53q-10 27 -16.5 51.5t-8.5 53.5q-4 66 18.5 131t57.5 129q41 82 93 157.5t118 143.5q18 20 6 41 q-23 39 -45.5 76.5t-46.5 76.5l-10 21q-4 12 0 22q8 8 22 4q43 0 62 -30l69 -123zM963 754q0 10 2 27.5t0 33.5q-2 27 -16.5 52.5t-37 46t-51.5 34t-55 13.5q-41 4 -72 -23q-14 -10 -28.5 -21.5t-28.5 -23.5q-109 -98 -187.5 -214t-132.5 -245q-23 -45 -33 -89t-1 -89 q6 -41 37.5 -64.5t76.5 -17.5q51 8 97.5 29.5t89.5 52.5q57 39 101 87t85 103q49 72 90 146t64 162zM492 743l182 195q-57 -41 -102 -89.5t-80 -105.5zM870 399q18 18 42 54t46.5 75t38 73t17.5 48zM479 825q4 -4 6 -4q12 14 23.5 26.5t21.5 26.5q-4 4 -4 5z" />
<glyph unicode="&#xa5;" horiz-adv-x="806" d="M1165 1649q6 8 13.5 14t11.5 12q-2 -10 -3 -20t-5 -19q-53 -98 -107.5 -192t-107.5 -193q-92 -168 -183.5 -337t-185.5 -336q-14 -31 14 -35q51 -6 72 -47q4 -12 4 -19q-6 -2 -11 -3t-11 -1l-99 -6q-29 0 -39 -27l-108 -221q-10 -20 -7 -23t23 -8q66 -10 125 -24 q41 -12 47 -64l-26 6q-25 16 -53.5 18.5t-57.5 2.5q-16 0 -34.5 -1t-35.5 1q-20 0 -26 -21l-166 -444q-4 -16 -5 -33.5t-3 -34.5q-2 -8 -3 -13t-12 -3l-73 6q-16 2 -20.5 12.5t-2.5 22.5q4 31 9 61.5t16 61.5q27 86 54.5 170t55.5 170q4 14 3 20.5t-17 8.5q-49 0 -72 36 q-18 23 13 29q20 4 41.5 7t42.5 3q33 0 38 31q0 2 2 2q29 47 27 90l-4 86q-2 18 -23 13l-73 -19q-33 -8 -65 5.5t-44 37.5q-4 12 3 16.5t18 8.5l108 24q27 6 41.5 10.5t21.5 12.5t8 22.5t1 40.5q2 186 7 369.5t28 370.5q10 78 16 152.5t14 150.5q2 18 9.5 24t23.5 4 q82 -6 80 -84q0 -96 -2 -189t-4 -187l-8 -473v-69t4 -69l16 25l602 1038q10 25 33 45q6 8 16.5 13.5t20.5 7.5q41 6 10 -43q-6 -10 -14 -20.5t-12 -20.5q-37 -63 -73 -126t-71 -126l-411 -737q-18 -35 -35 -70q2 0 3 -1t3 -1q4 8 10 15t10 18q72 129 140.5 257t140.5 257 q78 139 156.5 276.5t156.5 274.5zM170 -354l168 471q-2 2 -8 2q-47 -117 -89 -234.5t-71 -238.5zM266 104q-43 -106 -79.5 -211.5t-63.5 -214.5zM180 -211h8q29 80 57.5 159t57.5 158h-8zM362 197q2 -2 4.5 -2t4.5 -2l35 79q-8 0 -11 2q-10 -20 -18.5 -39.5t-14.5 -37.5z M498 449q-2 2 -4 2t-7 2q-8 -18 -17 -36t-19 -36l8 -4zM334 203q0 -2 6 -2l25 63q-2 0 -3.5 1t-3.5 1zM299 199q2 -2 6 -2l21 55q-10 -10 -15.5 -22.5t-9.5 -24.5z" />
<glyph unicode="&#xa6;" horiz-adv-x="299" d="M70 -274q4 10 6 21l4 22q29 127 55.5 250.5t54.5 250.5q0 10 3 17q4 10 8 10t8 -2t2 -6q6 -10 -2 -29q-25 -129 -51.5 -256t-55.5 -256l-10 -49q0 -4 -4 -7t-8 -5q-16 -2 -32.5 -4t-31.5 2q-8 2 -12 9t-6 15q-4 6 -3 14.5t3 14.5q16 88 33.5 176t36.5 176q10 47 24 93 t29 93q6 16 18.5 21.5t28.5 1.5t14 -12t-4 -17l-117 -542q5 -2 9 -2zM336 1143l153 504q10 29 21.5 57.5t21.5 56.5q10 23 19.5 27t26.5 -6q8 -4 15 -5t11 -8q10 -10 2 -26q-14 -49 -30.5 -98.5t-32.5 -98.5q-16 -53 -31.5 -105t-32.5 -106l-63 -209q-6 -23 -12.5 -26.5 t-28.5 0.5q-29 4 -36 12t-3 31zM150 217h-5l-102 -481h4zM31 -195h4l78 359h-4z" />
<glyph unicode="&#xa7;" horiz-adv-x="927" d="M721 135q23 80 1 145.5t-69 122.5q-41 53 -82 108.5t-75 115.5q-41 66 -64.5 137.5t-23.5 155.5q2 63 18 124.5t70 116.5q20 18 23 33.5t1 36.5q-16 127 15.5 247.5t126.5 237.5q68 84 146.5 123t153 40t138 -33t98.5 -95q29 -53 26 -113.5t-28 -126.5q-16 -47 -39.5 -91 t-60.5 -83q-25 -29 -43.5 -33t-42.5 11q-18 10 -18.5 14t16.5 25q68 90 99.5 182t6.5 186q-16 68 -59 83.5t-121 -19.5q-121 -55 -193 -176q-68 -113 -88 -222.5t13 -216.5q16 -55 41.5 -105t54.5 -101q43 -84 84 -168t53 -185q8 -53 -6 -103t-43 -101q-12 -23 -14 -41.5 t14 -38.5q27 -47 25.5 -100.5t-11.5 -108.5q-12 -72 -46 -135.5t-93 -118.5q-53 -51 -114.5 -88t-131.5 -53q-43 -10 -87 -17.5t-85 -11.5q-86 -6 -157.5 12.5t-124.5 73.5q-41 45 -55.5 105.5t14.5 131.5q39 111 84 215q10 23 23 43.5t30 40.5q16 23 44 33t48 4 q18 -4 19 -10t-9 -22q-6 -10 -13 -17.5t-13 -17.5q-41 -78 -70 -157t-31 -157q-2 -111 51.5 -162t157.5 -51q61 0 120.5 27t113.5 68q74 57 119 124.5t63 155.5zM774 510q2 0 6 2q0 23 1 45.5t-3 44.5q-8 57 -28.5 108.5t-44.5 100.5q-33 61 -65 122.5t-65 125.5l-12 12 l-12 -18q-27 -57 -35 -111.5t4 -107.5q16 -74 48 -136.5t75 -119.5q23 -29 47.5 -56.5t48.5 -56.5q2 -4 17 -8l10 16q4 10 5 18.5t3 18.5zM758 1698q-45 -41 -68.5 -87t-40.5 -95q27 45 53.5 90t55.5 92zM780 0q51 74 47 162q-12 -41 -24.5 -81t-22.5 -81zM57 -29l58 211 q-23 -53 -41.5 -105.5t-16.5 -105.5zM866 518q-6 0 -10 2l-45 -121q2 0 4 -1t4 -1q12 31 24.5 60.5t22.5 60.5zM1167 1499q-2 0 -3 1t-5 1l-53 -110q4 0 8 -2zM664 1669q-2 0 -3.5 1t-3.5 1l-59 -108l4 -4zM496 1014h6l43 92q-4 2 -10 2zM639 1579q2 0 3 -1t3 -1 q12 18 22.5 36.5t20.5 39.5q-4 0 -6 2q-10 -20 -21.5 -39t-21.5 -37zM766 59h8q4 16 8 30.5t9 29.5q-2 2 -7 2zM733 57h4l23 99h-4zM47 49h-4l-14 -59h4z" />
<glyph unicode="&#xa8;" horiz-adv-x="528" d="M385 1647q6 20 13.5 37.5t21.5 33.5q18 23 42.5 31t45.5 -2q31 -12 51 -27q25 -12 21 -51q-4 -23 -17.5 -44t-34 -36.5t-45 -24t-47.5 -3.5q-67 12 -51 86zM725 1567q-4 2 -12 2t-17 2q-35 12 -37 43q-2 10 -2 18v19q6 45 52 73q23 10 43 15.5t43 -2.5q10 -4 22 -7.5 t25 -7.5q14 -6 21 -22.5t1 -32.5q-18 -45 -51 -71.5t-88 -28.5zM750 1604q4 2 9 6t5 8v4q-4 0 -11.5 -5t-7.5 -9q0 -2 3 -2zM469 1606h2v2z" />
<glyph unicode="&#xa9;" horiz-adv-x="1431" d="M317 657q16 84 51 162t78 156q47 86 102.5 168t133.5 153q78 72 162 133.5t184 90.5q72 20 140.5 29.5t131.5 -17.5q72 -29 127 -94q47 -59 79 -128t28 -157q-2 -57 -13.5 -112.5t-31.5 -110.5q-29 -80 -59.5 -158t-77.5 -151q-53 -90 -117 -170t-152 -144 q-86 -61 -177 -106t-191 -56q-143 -16 -245.5 38.5t-143.5 183.5q-23 68 -24 140t15 150zM1282 1499l-10 -4q8 -18 2 -21.5t-23 -0.5q-14 2 -30.5 3t-32.5 -3q-102 -18 -195 -80q-262 -168 -411 -428q-61 -104 -105.5 -210t-52.5 -216q-2 -78 11.5 -147.5t60.5 -127.5 q68 -84 186 -61q174 37 326 153q100 74 168.5 165t121.5 196q35 66 61.5 133.5t49.5 134.5q41 135 31 251t-97 208q-14 16 -29.5 28.5t-31.5 26.5zM817 731q-6 -45 -9 -81t7 -70q8 -27 17.5 -30t35.5 19q18 16 36 35t36 35q10 10 21.5 20.5t23.5 18.5q29 23 43 -10q0 -6 6 0 q10 8 14.5 4t2.5 -15q-4 -16 -13 -30q-23 -35 -51.5 -62.5t-58.5 -52.5q-41 -29 -80 -32t-76 12q-59 23 -82.5 67.5t-23.5 106.5q-4 170 131 307q25 23 49 43t53 37q27 16 59.5 22t65.5 1t61.5 -21.5t47.5 -42.5q4 -10 4 -20.5t-13 -20.5q-4 -4 -12 -4h-16q-33 0 -41 28 q-4 14 -15.5 14.5t-25.5 -10.5q-25 -20 -49.5 -41.5t-46.5 -44.5q-12 -12 -29 -35.5t-32 -50t-26.5 -53.5t-13.5 -43zM436 748q59 137 136 263t186 240q-37 -23 -87 -84t-98.5 -136t-86.5 -151.5t-50 -131.5zM1462 938q-29 -70 -58.5 -138.5t-60.5 -137.5q43 66 69.5 135 t49.5 141zM457 932l141 229q-10 -10 -18.5 -21.5t-16.5 -23.5q-29 -47 -54.5 -91t-53.5 -91l-56 -111q4 0 7 -2q14 29 26.5 55.5t24.5 55.5zM778 750l80 153q-31 -29 -53.5 -73.5t-26.5 -79.5zM530 1018l9 -4q20 33 41.5 64.5t44.5 64.5l-4 4zM754 856q-2 0 -3 1t-3 1 q-8 -16 -14.5 -32.5t-14.5 -32.5q2 -2 8 -2z" />
<glyph unicode="&#xaa;" horiz-adv-x="528" d="M291 1489q4 10 7 21.5t7 21.5q41 82 99.5 139.5t146.5 85.5q23 8 44 11.5t42 -1.5q6 -2 11 -2t9 -4q16 -8 33 4q25 20 60 7q4 -4 10 -6.5t10 -6.5q16 -6 10 -24q-2 -4 -3 -8.5t-3 -8.5q-25 -55 -45 -111.5t-37 -113.5q-12 -43 -22.5 -87t-14.5 -89q-2 -23 -3 -44.5 t-1 -43.5q0 -16 2 -30.5t6 -31.5v-12t-6 -12q-10 -10 -26 -6q-49 10 -64 53q-8 25 -9 50.5t-1 49.5l14 119q0 4 1 8t-1 8q2 4 -1 5.5t-5 -3.5q-10 -8 -16 -16q-8 -8 -15.5 -16.5t-17.5 -16.5q-37 -31 -82 -38t-80 10q-77 43 -59 139zM399 1477q-4 -23 -5 -42.5t5 -35.5 q4 -8 6.5 -9t10.5 5q16 10 28.5 22.5t26.5 24.5q41 41 74 83t63 89q14 23 25.5 45t23.5 47q8 27 -18 31q-8 2 -23 -2q-12 -6 -24 -12.5t-25 -14.5q-53 -33 -88 -78t-61 -98q-13 -30 -19 -55z" />
<glyph unicode="&#xab;" horiz-adv-x="784" d="M705 -61q-41 0 -59.5 22.5t-31.5 52.5q-16 41 -31.5 84t-37.5 84q-33 68 -71 134.5t-73 132.5q-10 16 -17 33.5t-15 33.5t-1 31.5t19 32.5q92 109 180 215t181 215q78 90 153.5 177t151.5 175q6 8 13 16t19 -2q20 -12 25.5 -22.5t-6.5 -26.5q-16 -25 -34.5 -49.5 t-37.5 -48.5l-459 -555q-55 -72 -116 -142q-20 -20 -8 -40q8 -14 13 -28.5t13 -31.5q47 -80 92 -159.5t90 -163.5q20 -35 34 -74t30 -76q11 -24 -16 -20zM127 600q4 10 9 18.5t11 16.5q119 135 237 266t239 266l161 183q14 16 22.5 16t16.5 -10q18 -23 19.5 -30t-21.5 -34 q-143 -162 -284.5 -323.5t-282.5 -325.5q-27 -31 -41 -46t-17 -27.5t4 -29t21 -48.5q39 -98 82 -190.5t84 -188.5q18 -41 35.5 -83t34.5 -85q2 -4 1 -10.5t-1 -12.5q-14 0 -21 2q-29 2 -43 17.5t-24 40.5l-201 469q-10 25 -19.5 51t-17.5 53q-2 10 -2 21.5t-2 23.5zM780 952 q-4 4 -6 4l-205 -245q4 0 9 -4q49 61 100 122.5t102 122.5zM799 991l8 -4q25 31 50.5 62.5t51.5 62.5q-4 4 -8 4q-25 -31 -49 -62.5t-53 -62.5zM477 600l-49 -55l6 -6l43 57l49 55l-4 6q-10 -16 -22.5 -29.5t-22.5 -27.5z" />
<glyph unicode="&#xac;" horiz-adv-x="1040" d="M1016 305q-43 43 -31 103q12 59 25.5 118.5t29.5 118.5q6 16 2 20.5t-20 6.5q-133 0 -265 -10.5t-268 -26.5q-70 -8 -137 -12.5t-135 -8.5q-16 -2 -32.5 18.5t-12.5 39.5q4 10 18 10q66 8 130.5 14t130.5 13q88 10 177 18t177 12q68 4 133.5 3t130.5 -1q23 0 34 -27.5 t1 -58.5l-70 -227q-6 -23 -9 -46.5t-7 -45.5v-13.5t-2 -17.5z" />
<glyph unicode="&#xad;" horiz-adv-x="675" d="M342 668q72 -4 143.5 -9.5t141.5 -13.5q25 -2 48 -12t44 -23q8 -4 12 -16t10 -23l-24 -8t-25 -4q-92 2 -185 4t-188 2q-31 0 -55 6.5t-41 28.5q-6 10 -12 19.5t-8 19.5q-4 14 5 18.5t19 4.5q29 2 56.5 2h56.5z" />
<glyph unicode="&#xae;" horiz-adv-x="1415" d="M1511 979q-18 -72 -41.5 -141.5t-62.5 -135.5q-33 -59 -65.5 -116.5t-75.5 -110.5q-176 -211 -430 -250q-84 -12 -161 -8t-147 33q-98 41 -146 120t-52 189q-4 78 11 156t40 157q25 82 58.5 162t78.5 158q70 123 166 215t225 156q47 25 94.5 29.5t90.5 -15.5q4 -2 11 -2 h11q86 14 155.5 -7.5t133.5 -58.5q61 -37 90 -94t39 -129q10 -76 2.5 -152.5t-25.5 -154.5zM496 801q-16 -70 -27.5 -130.5t-7.5 -119.5q4 -80 31.5 -146.5t99.5 -105.5q47 -25 108.5 -32t129 7.5t137 51t131.5 98.5q78 78 138 166t110 182q41 84 61 169t31 171 q6 80 -3.5 154.5t-39.5 142.5q-23 45 -60 76t-84 44t-101 8t-108 -30q-29 -14 -58.5 -24t-59.5 -23l-25 -14q-143 -102 -237 -246q-63 -98 -102 -199.5t-64 -199.5zM817 819q-12 -35 -24.5 -64.5t-22.5 -60.5l-31 -86q-4 -4 -8 -10t-8 -6q-23 0 -41 6q-16 4 -24.5 13.5 t-2.5 29.5q16 53 31.5 106.5t32.5 106.5l82 256q14 47 41 104q10 29 19 36t38 3q14 -2 27.5 -9t25.5 -15q10 -8 2 -25q-4 -16 -9 -32.5t-13 -34.5q18 6 26 10q49 29 98.5 41t102.5 12q10 0 20.5 -2t18.5 -6q41 -16 51.5 -45t-24.5 -76q-37 -49 -83 -82t-100 -59 q-29 -16 -56.5 -28.5t-55.5 -29.5q-20 -10 -23.5 -17t8.5 -24q23 -35 54.5 -61.5t72.5 -42.5q23 -12 48 -29q4 -4 5 -8t1 -8q-12 -8 -21 -8q-27 4 -54.5 8t-49.5 14q-43 16 -77 45t-63 64zM856 924q33 18 67.5 34.5t67.5 35t63.5 40t57.5 49.5q18 18 29 43q10 16 7 20.5 t-20 0.5q-66 -10 -118 -44t-97 -81q-20 -23 -36.5 -45t-20.5 -53zM684 1292q-119 -147 -174 -302.5t-82 -321.5q33 164 91.5 320.5t164.5 303.5zM377 729q23 104 58.5 204.5t82.5 201.5q-108 -201 -141 -406zM721 649h6l70 195h-9zM1464 915h6l46 220h-7zM567 1165q0 2 -4 2 q-16 -35 -33.5 -71.5t-35.5 -71.5q2 0 4 -1t4 -1zM924 1198q-2 0 -4 1t-5 1l-38 -106q6 0 8 -2zM1434 961h2l18 86h-2zM1475 1047h-2l-19 -86h2z" />
<glyph unicode="&#xb0;" horiz-adv-x="565" d="M827 1438q-4 -29 -17 -54.5t-32 -52.5q-72 -92 -170 -149q-27 -16 -54.5 -25.5t-55.5 -15.5q-76 -12 -138 24q-47 31 -59 81t14 114q55 137 164 248q23 23 45 37q43 33 80 14q27 -14 60 -6q27 4 55.5 -1t52 -18.5t39.5 -37t20 -54.5q4 -27 4 -51t-8 -53zM731 1442 q18 82 -4 137q-2 10 -7 17.5t-9 15.5q-10 12 -29 6l-27 -12l-104 -58q-6 -4 -12.5 -7t-12.5 -3q-12 -2 -22 -16q-31 -43 -56.5 -89.5t-41.5 -95.5q-23 -72 6 -125q18 -33 37.5 -37t60.5 17l14 6q100 59 164 150q37 49 43 94z" />
<glyph unicode="&#xb1;" horiz-adv-x="847" d="M700 678h-147q-27 2 -29 -21q-20 -63 -39.5 -126.5t-42.5 -127.5q-14 -47 -31.5 -96t-33.5 -96q-4 -14 -9.5 -23.5t-21.5 7.5q-4 2 -9 0t-9 0q-25 4 -30 11t-1 30l59 223l45 194q8 25 -16 23q-29 -2 -54.5 -2t-49.5 -4q-33 -4 -60.5 3t-48.5 29q-2 4 -5 7.5t1 7.5 q4 12 16 12q25 6 47 6q41 2 84 3t86 1q25 0 33 23q23 74 47.5 148.5t50.5 148.5q4 12 12.5 28.5t12.5 14.5q31 0 57 -17q27 -14 13 -55l-72 -264q-10 -29 16 -29h101.5t99.5 -2q23 0 42.5 -2t41.5 -4h6l39 -31q-14 -4 -26.5 -11t-24.5 -7q-39 -2 -76 -2h-74zM555 -14 q-78 -6 -155.5 -11.5t-155.5 -9.5l-178 -14q-12 0 -24.5 6t-24 17.5t-17.5 23.5t-6 25q0 4 7 10t11 6q27 4 53.5 6t55.5 4q102 4 204.5 6t206.5 4q27 0 51.5 -6t51.5 -12q10 -2 18 -10l15 -37l-33 -8l-80 -4v4z" />
<glyph unicode="&#xb2;" horiz-adv-x="458" d="M164 453l72 17q26 4 50 8.5t48 1.5q19 -4 31 -14.5t13 -31.5q0 -2 0.5 -5t-0.5 -5q-4 -14 -15 -6q-4 5 -6.5 8.5t-1.5 11.5q0 12 -13 11q-20 -4 -39.5 -5.5t-39.5 -6.5q-37 -9 -72 -19l-70 -20q-7 -1 -11.5 0t-9.5 3q-7 3 -10 14q-2 9 2 13t12 7q6 2 9 8l106 132t106 133 q36 44 71 89t68 91q23 31 42.5 63t32.5 67q4 17 6 37q1 19 -19 19q-10 0 -19.5 -1t-19.5 -4q-47 -15 -86 -40.5t-69 -67.5q-7 -10 -13 -18.5t-4 -20.5q0 -1 -3.5 -3.5t-4.5 -1.5q-21 2 -29 17q-2 3 -2 7.5t1 8.5q6 21 19.5 39t30.5 34q34 31 72.5 51.5t80.5 27.5 q15 2 31.5 0.5t32 -8t27 -18t15.5 -28.5q6 -18 1 -36.5t-13 -36.5q-20 -42 -46 -79t-57 -74q-73 -88 -146.5 -176t-147.5 -176zM554 964l-92 -134q27 31 50.5 64t41.5 70zM312 961l3 -3q9 11 17 21.5t17 20.5l-3 3q-8 -11 -17 -21.5t-17 -20.5z" />
<glyph unicode="&#xb3;" horiz-adv-x="501" d="M185 570l-15 -20q-23 -28 -26 -55t10 -54q10 -18 23.5 -31.5t34.5 -20.5q20 -6 42 5q43 21 75.5 52t59.5 69q55 78 74 166q5 31 3 59.5t-14 53.5q-7 12 -16 18.5t-22 7.5q-16 2 -30.5 1.5t-30.5 -0.5q-27 -1 -45 17q-5 5 -1.5 8.5l7.5 7.5l59 46q41 32 80.5 64t79.5 65 q13 10 23.5 22.5t19.5 25.5q5 5 7.5 13t4.5 15q4 11 -7 9q-19 -1 -37.5 -6t-36.5 -13q-38 -15 -71.5 -35.5t-62.5 -52.5q-6 -6 -11.5 -13.5t-10.5 -15.5q-3 -7 -9 -4q-35 11 -12 45q13 21 30 37.5t38 29.5q62 41 132 58q18 4 34.5 4t31.5 -5q15 -6 24.5 -16t12.5 -23.5 t-1.5 -29.5t-16.5 -32q-19 -24 -40.5 -43.5t-45.5 -37.5l-130 -101l-8 -6q5 -1 7.5 -2t4.5 -1q36 -4 61.5 -21.5t40.5 -42.5t18.5 -56t-3.5 -63q-18 -81 -62 -148.5t-116 -120.5q-52 -38 -105.5 -39t-93.5 28q-21 17 -34.5 39t-13.5 53q0 29 15 54t42 38q10 5 17.5 3.5 t15.5 -5.5zM454 546q8 9 16 24.5t14.5 31.5t10 29.5t2.5 18.5q-10 -25 -20.5 -51.5t-22.5 -52.5zM612 1066q-10 -13 -19.5 -24t-19.5 -23q29 18 39 47zM449 597q2 0 4 -1l18 51h-3zM379 1030l-4 2q-6 -8 -12.5 -15.5t-13.5 -15.5l2 -2zM478 626q-2 0 -3 1l-15 -39 q1 0 1.5 -0.5t1.5 -0.5q4 11 8 19.5t7 19.5z" />
<glyph unicode="&#xb4;" horiz-adv-x="475" d="M379 1446q-8 0 -27 6q-6 2 0 12q4 4 6 6.5t7 6.5l186 153l98 78q70 51 148 76q4 2 9 3t9 -3t-8 -19q-8 -8 -14.5 -14t-14.5 -10q-35 -29 -61 -47q-47 -39 -95.5 -79t-95.5 -77q-18 -16 -38.5 -32.5t-41.5 -32.5q-28 -27 -67 -27z" />
<glyph unicode="&#xb5;" horiz-adv-x="944" d="M639 -25q10 10 18.5 17.5t14.5 15.5q51 68 99 134.5t95 136.5q59 86 115.5 171t114.5 171q6 10 13 11t13 -1q10 -4 21.5 -8.5t7.5 -22.5q-4 -10 -9 -19.5t-9 -19.5l-211 -342q-41 -68 -86 -134.5t-103 -127.5l-24 -25q-27 -29 -54.5 -37t-58.5 3q-29 8 -44 26.5t-11 48.5 q4 47 11 94.5t17 94.5q31 143 83.5 282.5t109.5 280.5q10 23 18 46.5t19 47.5l-4 2q-10 -10 -18.5 -17t-14.5 -18l-334 -389q-49 -53 -101.5 -103t-111.5 -95q-82 -61 -156 -27q-16 8 -23 5t-13 -23l-76 -271q0 -12 -2 -20l12 6q59 51 119 27q68 -33 43 -103 q-8 -25 -20.5 -50.5t-28.5 -47.5q-37 -49 -72 -59.5t-88 8.5q-35 12 -52.5 39.5t-23.5 62.5q-10 61 -1 124.5t26 129.5q43 147 104.5 287.5t126.5 283.5q104 227 240 443q12 20 28 41q16 23 25.5 25.5t28.5 -7.5q23 -16 34 -41q4 -6 0 -16t-8 -19q-45 -98 -93 -192t-89 -193 q-35 -80 -64.5 -160.5t-62.5 -162.5q-2 -6 -2 -14.5t-4 -22.5q14 10 26.5 18.5t22.5 18.5q66 49 122 107.5t109 119.5q117 131 232 263t229 265q53 63 101 13q25 -29 8 -72l-78 -209q-53 -143 -103.5 -284.5t-99.5 -284.5q-16 -51 -27.5 -103.5t-25.5 -105.5v-23zM725 786 q2 0 2 -1t2 -1l70 82l-4 4l-66 -75q0 -1 -4 -9zM657 709l-49 -56q2 0 6 -4q12 14 23.5 27.5t21.5 28.5l48 55l-5 4zM1020 414q-4 0 -4 1t-2 1l-41 -66l6 -4q10 16 20.5 34t20.5 34zM592 623l-4 6l-41 -47l4 -4z" />
<glyph unicode="&#xb6;" horiz-adv-x="1419" d="M-25 12v-24q4 4 10.5 11t12.5 9q33 8 33 -26q0 -59 6 -121q6 -49 28.5 -57.5t73.5 24.5q29 20 53.5 46t47.5 54q66 86 116 173t97 178q100 184 189 367t175 370q6 16 4 23.5t-18 11.5q-23 4 -44.5 10t-43.5 12q-86 25 -141.5 79t-94.5 126q-25 47 -16.5 100.5t37.5 106.5 q35 68 88 119t119 94q86 57 177 85.5t185 37.5q90 8 173 5t167 -14q82 -10 164 -16t168 -10q41 -4 84 5t84 26l18 8q18 8 38 23.5t33 35t19 43t0 49.5q-4 4 -3 10.5t1 12.5q6 0 13.5 1t11.5 -3q16 -6 28.5 -22.5t18.5 -38t5 -45t-9 -42.5q-10 -23 -22.5 -44t-32.5 -38 q-35 -29 -70 -37t-70 -12q-43 -6 -84 -7t-82 -5q-12 0 -24 1t-25 3q-12 2 -17 -2t-11 -16q-41 -92 -78 -184.5t-80 -184.5q-145 -299 -285.5 -594t-300.5 -588q-41 -74 -83 -146.5t-93 -141.5q-59 -82 -137 -129.5t-174 -57.5q-14 -2 -35 2q-8 2 -13.5 6t-9.5 9l13.5 9 l13.5 9q109 35 186 119q45 51 84 112q129 209 237.5 420t209.5 426q72 154 146.5 302.5t146.5 299.5q39 80 74.5 161t72.5 161q10 23 -12 22q-66 4 -130.5 9.5t-129.5 11.5q-10 0 -13.5 -1t-7.5 -11q-29 -104 -71.5 -203.5t-90.5 -200.5q-96 -209 -192 -414.5t-197 -412.5 q-66 -135 -136.5 -265.5t-156.5 -256.5q-23 -35 -48 -67t-52 -65q-53 -61 -115.5 -81.5t-130.5 -12.5q-45 4 -74.5 28.5t-41 61.5t-3.5 81t37 87zM850 106q80 141 152.5 286t142 289t138.5 287.5t140 286.5q-6 0 -8 2zM911 1030q-111 -238 -228.5 -472t-246.5 -468 q139 229 255 463.5t220 476.5zM733 768q-4 0 -6 2q-14 -31 -27.5 -61.5t-29.5 -61.5q0 -2 4 -2q16 31 30.5 61.5t28.5 61.5zM1200 924q0 2 -4 2l-49 -107q4 0 4 -2zM569 1499l4 -6q16 16 29.5 33.5t30.5 34.5l-4 4zM1087 696q2 0 3.5 -1t3.5 -1l28 64q-4 0 -6 2z" />
<glyph unicode="&#xb7;" horiz-adv-x="561" d="M403 516q-61 0 -96 33q-2 4 -8 10q-12 8 -17.5 20.5t-11.5 26.5q-4 27 6.5 47.5t30.5 40.5q8 10 16.5 19.5t18.5 19.5q29 29 61.5 48.5t73.5 29.5q37 10 66 -4q10 -6 19 -10t20 -11q47 -29 32 -90q-14 -59 -64 -109t-110 -67q-10 -2 -20.5 -3t-16.5 -1z" />
<glyph unicode="&#xb8;" horiz-adv-x="485" d="M43 -438q-53 -4 -92 18q-12 2 -25 19q-16 16 6 34q8 6 18.5 10.5t18.5 8.5q10 4 17 -2q8 -10 15 -17.5t17 -17.5q6 -16 23 -12q20 4 36.5 6t35.5 6q14 2 26.5 11t22.5 22q29 41 45 84t18 90q-4 47 -43 55q-10 2 -20 5t-21 7q-12 8 -2 25q31 47 61.5 95t59.5 95 q25 35 55 29q12 -2 20.5 -6t18.5 -8q4 -2 4 -13q-2 -6 -6 -11t-8 -11l-96 -156q-10 -16 -10 -21t16 -13l33 -13q45 -25 45 -82q-4 -41 -18.5 -77.5t-39.5 -73.5q-10 -14 -22 -24.5t-29 -20.5q-20 -10 -40.5 -17.5t-43.5 -11.5t-47 -6t-49 -6z" />
<glyph unicode="&#xb9;" horiz-adv-x="315" d="M426 1112l-30 -15q-18 -8 -29.5 -7t-18.5 11q-6 5 2 8q31 13 59 32t55 41q3 3 6.5 5t5.5 5q5 5 8.5 7t9.5 -2q3 -2 8 -3t8 -4q5 -4 6 -4t-1 -5q3 -1 6 -1.5t4 -2.5q2 -7 0 -12q-61 -90 -106.5 -184.5t-87.5 -189.5q-26 -57 -49 -114.5t-46 -114.5q-6 -20 -10 -39.5 t-9 -39.5q-4 -10 9 -13q17 -4 32.5 -10.5t25.5 -20.5q3 -5 6 -11t-4 -13q-1 -2 -9.5 0t-10.5 7q-18 22 -43 21.5t-52 -3.5q-5 -1 -9.5 -1.5t-8.5 -3.5q-18 -6 -30.5 -1.5t-22.5 13.5q-2 2 -3.5 4.5t-0.5 4.5q4 5 11 7q15 3 28.5 5.5t27.5 4.5q8 1 10.5 2.5t0.5 9.5 q-3 19 1.5 37t9.5 36q47 139 107.5 273.5t126.5 268.5zM491 1144q-4 -2 -6 -6l-28 -48t-27 -49q-57 -111 -107 -222.5t-93 -226.5q-7 -17 -11.5 -32t-9.5 -32q55 159 126.5 311.5t155.5 304.5z" />
<glyph unicode="&#xba;" horiz-adv-x="548" d="M289 1264q16 74 45 137q23 57 48.5 112.5t59.5 108.5q16 31 37 58.5t43 56.5q29 41 70 28q16 -2 33 4q20 8 40.5 12.5t39.5 0.5q35 -10 62.5 -27.5t41.5 -50.5q37 -88 22 -184q-4 -29 -15 -58.5t-25 -58.5q-41 -86 -101.5 -157.5t-146.5 -123.5q-23 -12 -43.5 -23.5 t-42.5 -19.5q-61 -27 -119 -8q-45 14 -55 64q-8 51 0 104zM389 1260q-6 -35 -9 -66t1 -59q4 -23 12 -25t31 10q57 33 107.5 75t89.5 95q47 63 73 125q70 141 25 271q-6 27 -21 43q-6 10 -11 11t-17 -3q-10 -4 -19.5 -9.5t-19.5 -9.5q-43 -14 -70 -61q-35 -57 -62.5 -116.5 t-54.5 -121.5q-18 -41 -31.5 -80.5t-23.5 -78.5z" />
<glyph unicode="&#xbb;" horiz-adv-x="897" d="M252 -184l29 49q109 172 234.5 328.5t266.5 306.5q20 20 30.5 32.5t13.5 23.5t-1 23.5t-10 34.5q-27 74 -49.5 149t-46.5 150q-35 113 -71 225.5t-75 225.5q-4 12 -10 23.5t-10 21.5q-4 8 0 12q6 6 12 2q12 -8 27.5 -14t21.5 -18q18 -35 35 -69t31 -71 q37 -98 70.5 -196.5t68.5 -196.5l99 -311q2 -6 -0.5 -16.5t-8.5 -18.5q-18 -23 -36.5 -43t-41.5 -43q-131 -139 -248.5 -285.5t-220.5 -306.5q-18 -33 -38.5 -40t-49.5 7zM53 -113h-10q-33 4 -38 16.5t13 41.5l126 184t130 180q53 68 109.5 130.5t114.5 127.5q20 20 12 43 q-20 72 -39.5 141.5t-40.5 139.5q-12 45 -28.5 88t-28.5 88q-16 68 -32.5 136.5t-33.5 135.5l-12 43q-4 10 1 14.5t13 -1.5q10 -6 22.5 -14.5t18.5 -20.5l74 -209q23 -72 46.5 -140.5t45.5 -140.5l90 -297q6 -25 -14 -41q-133 -123 -238.5 -263t-206.5 -285q-33 -45 -71 -90 q-4 -4 -10.5 -5.5t-10.5 -3.5z" />
<glyph unicode="&#xbc;" horiz-adv-x="1511" d="M1481 1110l51 68q2 4 7 6t9 6q0 -6 2 -12.5t0 -10.5l-32 -45l-351 -405q-47 -53 -94 -104.5t-94 -104.5q-4 -4 -7 -10t-7 -13q6 0 11 -2t11 0l322 15q14 0 19 8t11 18q61 117 122 235l122 236q8 16 17.5 29.5t19.5 30.5q47 70 104 28q6 -4 12.5 -10t8.5 -14 q2 -6 -7 -13.5t-14 -15.5q-35 -59 -68.5 -117.5t-68.5 -117.5q-33 -57 -62.5 -113.5t-58.5 -114.5q-6 -12 -8 -21t15 -16q14 -6 12 -19t-17 -24q-10 -10 -16 -10q-29 -4 -40 -22.5t-21 -38.5q-66 -135 -128.5 -267.5t-113.5 -269.5q-12 -35 -20.5 -70.5t-18.5 -70.5 q-2 -8 -5 -19.5t-7 -13.5q-16 -4 -30.5 -5t-20.5 15t-11.5 32.5t-1.5 33.5q12 53 28.5 105.5t39.5 105.5q43 106 91 211.5t97 212.5q10 23 7 26.5t-27 3.5q-82 -4 -162 -8t-162 -6q-57 -4 -94 23q-20 12 -4 37q8 14 20 26q113 125 226.5 250t224.5 252q41 43 77 88t70 90 q20 27 45 16q31 -8 9 -38q-12 -16 -23.5 -31t-23.5 -29zM1720 1882h25q-2 -6 -3 -13t-5 -11q-150 -129 -280 -273.5t-259 -292.5q-195 -223 -380 -450.5t-361 -462.5q-106 -141 -201.5 -286.5t-171.5 -301.5q-4 -8 -9 -16t-9 -15q-4 -6 -8.5 -19t-18.5 5q-4 4 -10 -2 q-14 -12 -15 4q-8 -4 -12 -8q14 59 39 114.5t55 110.5q76 137 165 266t183 256q246 328 504 639.5t539 612.5q41 47 87 89t89 87q16 16 27.5 11t19.5 -9t18 -11.5t-8 -23.5zM842 1804l-86 -24q-33 -10 -54.5 1t-37.5 34q-2 2 -2 12q0 2 5 4t9 0q49 -4 97 16.5t95 42.5 q43 23 71 11.5t42 -43.5q4 -6 0 -17.5t-10 -19.5q-39 -66 -80 -131.5t-78 -130.5q-53 -100 -104.5 -201t-102.5 -203q-10 -23 -15 -45.5t-9 -44.5q-4 -14 1 -26.5t9 -24.5q-37 -4 -62.5 19.5t-23.5 58.5q2 47 19.5 92t39.5 90q63 123 128 245.5t128 247.5q4 8 9.5 15.5 t11.5 21.5zM1694 1038q-8 -6 -30 -41.5t-51.5 -87t-62 -110t-60.5 -111.5t-46.5 -92t-20.5 -49zM1298 289q39 78 82 157q-4 0 -6 1.5t-4 1.5q-16 -41 -34.5 -80t-37.5 -78l-69 -150q-2 -4 -3 -5t-3 -5q-25 -57 -49.5 -113.5t-47.5 -113.5q-12 -29 -21 -60.5t-20 -62.5h9 q0 2 1 3t1 3l67 190l68 162z" />
<glyph unicode="&#xbd;" horiz-adv-x="913" d="M-23 -229l33 90h-6q-6 -18 -13 -37t-16 -35q-4 -6 -11 -13t-9 -5q-6 0 -14.5 5t-8.5 9q0 16 2.5 30.5t12.5 30.5q47 98 96 194.5t102 195.5q180 328 364.5 648t381.5 640q49 82 105.5 158.5t111.5 154.5q10 12 17.5 15t21.5 1q37 -6 53 -41q8 -16 -8 -32 q-18 -29 -38.5 -58.5t-41.5 -58.5q-131 -180 -247.5 -365.5t-227.5 -375.5q-135 -236 -267 -467.5t-268 -466.5q-27 -47 -49 -93.5t-47 -93.5q-6 -16 -20 -34zM512 150q10 2 22.5 3t24.5 1q78 8 151.5 5t139.5 -32q29 -14 52.5 -32.5t37.5 -47.5q4 -8 5 -18.5t1 -20.5 q-10 0 -18 -1t-19 1q-6 2 -14 5t-12 10q-51 63 -124 76.5t-163 -5.5q-41 -8 -84 -20.5t-86 -22.5q-74 -18 -125 19q-4 4 -4 13t4 13l74 72l373 371q47 47 94 95t90 97q18 23 34.5 46.5t26.5 49.5q12 27 3 34t-38 3q-59 -10 -111 -36.5t-97 -73.5q-51 -51 -91 -109 q-6 -8 -5 -18.5t-3 -20.5q-2 -2 -3 -4t-3 -4q-2 -4 -4 -6q-16 6 -34.5 10t-33.5 14q-4 4 -3 18.5t8 22.5q33 55 73 103q72 80 156 113.5t178 27.5q66 -4 86.5 -49t-16.5 -104q-23 -39 -50.5 -75t-60.5 -69q-100 -106 -202.5 -210.5t-204.5 -209.5l-27 -28zM670 1765 q-31 -16 -63 -31.5t-64 -31.5q-27 -12 -43.5 -10t-34.5 18q-10 10 -7 15.5t15 11.5q23 10 43.5 20t40.5 21l166 94q27 16 59.5 5t34.5 -38q2 -8 -3 -17.5t-9 -19.5q-53 -88 -104.5 -174t-102.5 -176q-45 -78 -87 -158t-83 -159q-6 -12 -10 -25.5t-10 -28.5q-8 -20 -29 -16 q-29 8 -37 20.5t2 40.5q39 94 86 191q57 104 113.5 207.5t113.5 208.5q4 6 7.5 13t7.5 13q-2 2 -2 6zM723 1116l76 123l6 6q82 135 169 266t183 261q4 6 7 13t7 13q-2 0 -4 2q-4 -4 -8 -9t-8 -11q-57 -82 -114.5 -163t-112.5 -165q-35 -51 -66 -104.5t-63 -106.5l-74 -123 q-10 -16 -20.5 -31.5t-20.5 -31.5q4 -2 8 -2zM500 1325q2 4 5 7l7 7l256 453q6 6 6 14q-8 -6 -16 -18l-215 -373q-12 -23 -22.5 -45t-22.5 -45q-10 -18 -21.5 -37.5t-23.5 -38.5l8 -4zM1051 782l-9 4l-51 -84q2 0 3 -1t3 -1z" />
<glyph unicode="&#xbe;" horiz-adv-x="1329" d="M1493 997q8 4 17.5 9.5t13.5 -7.5q6 -16 -4 -32q-45 -86 -91.5 -171t-93.5 -171q-4 -6 -4 -15.5t2 -15.5q6 -31 -24 -49q-18 -10 -25 -27q-61 -139 -121.5 -276.5t-120.5 -278.5q-16 -31 -21 -62.5t-15 -62.5q-4 -10 -7.5 -21.5t-11.5 -17.5q-8 -8 -31.5 -3t-29.5 11 q-16 16 -17.5 37t4.5 41q18 59 37 116.5t43 115.5q39 98 82 194.5t84 194.5q4 12 4 18t-16 4q-53 -4 -107.5 -8t-107.5 -12q-23 -4 -47.5 -10t-48.5 -17q-37 -16 -66 -10t-55 23q-14 10 -8 19t16 19q68 78 139 158q98 109 196.5 213.5t196.5 212.5q23 25 39.5 31t51.5 -14 q4 -4 5 -9.5t3 -9.5l28 -4q-4 -8 -7 -16.5t-7 -14.5l-457 -493l-16 -21h31q59 4 118.5 6t118.5 2q27 2 41 29q92 186 187 373q6 16 18 29q8 10 16.5 18t18.5 12q8 2 17 -2t20 -8l22 -6zM-12 -360q-43 2 -58.5 23.5t7.5 60.5q37 70 73.5 139t83.5 135q137 203 276.5 402.5 t282.5 400.5q152 211 305.5 420t307.5 419q39 53 75.5 108.5t75.5 111.5q14 23 31.5 23.5t28.5 -19.5q8 -14 24 -19q18 -4 19.5 -13t-9.5 -24q-31 -43 -60.5 -86t-61.5 -86q-195 -262 -389.5 -522t-387.5 -524q-129 -178 -249.5 -356.5t-241.5 -358.5q-29 -41 -51.5 -85 t-44.5 -87q-12 -18 -13 -37q3 -32 -24 -26zM743 1440l35 -13q23 -8 42.5 -19t31.5 -32q41 -66 -18 -131q-29 -29 -61 -54.5t-64 -49.5q-61 -41 -125 -77t-133 -58q-41 -14 -75 -6t-63 30q-8 8 -12 23q-4 14 4 22t25 6l16 -4t12 -6q8 -16 21.5 -14t30.5 10q47 29 96 56.5 t96 58.5q35 25 67.5 52.5t63.5 55.5q12 12 20.5 27.5t18.5 32.5q4 12 1 21t-21 5q-20 -4 -41 -6t-43 -10q-29 -10 -64 3t-49 34q-2 4 3 15t9 15q29 25 56.5 48.5t56.5 46.5q41 35 82 66.5t80 66.5q18 16 33.5 35.5t29.5 40.5q14 23 7 34t-31 7q-66 -14 -124.5 -44 t-107.5 -77q-18 -16 -31.5 -38t-25.5 -44q-8 -14 -13.5 -16.5t-15.5 3.5q-29 14 -35 33t11 53q27 59 84 101q47 35 98 56.5t108 31.5q53 10 101.5 -15.5t64.5 -72.5q8 -23 1 -43.5t-19 -40.5q-35 -49 -78 -88t-90 -76q-16 -14 -32 -27.5t-34 -27.5zM1249 528l-8 -16 l-94 -203q-37 -86 -73 -173t-70 -173q-10 -25 -15.5 -49.5t-15.5 -48.5h8q51 170 124.5 333.5t143.5 329.5zM1493 997q-57 -92 -105.5 -185t-91.5 -191q8 8 11 12q47 84 91 167t89 167q4 8 4 15t2 15zM1251 1505q14 10 52 58.5t77 103.5t70 102.5t31 57.5zM967 1688 q-4 0 -9 4l-59 -76l8 -4zM20 -244q-2 0 -3 1t-3 1q-6 -14 -12 -28.5t-12 -30.5q4 0 6 -2q6 16 12 30.5t12 28.5zM1335 1700q2 0 2 -1t2 -1q12 16 23.5 32.5t23.5 32.5q-2 0 -3 1t-3 1z" />
<glyph unicode="&#xbf;" horiz-adv-x="763" d="M746 874q-16 -61 -39 -118.5t-51 -114.5q-102 -209 -214 -410t-235 -399q-31 -47 -59.5 -94.5t-55.5 -96.5q-10 -16 -14 -36.5t-8 -41.5q-6 -63 61 -69q47 -4 92.5 7t92.5 34q199 90 284 282q12 27 14.5 50.5t-16.5 43.5q-4 2 -4 6.5v8.5q4 2 9.5 4t9.5 2q20 -4 39.5 -8 t35.5 -15q59 -31 31 -106q-57 -156 -201 -258q-72 -53 -151.5 -85t-163.5 -34q-47 0 -92 10.5t-80 36.5q-72 47 -83 104.5t30 137.5q23 47 52.5 94t57.5 94l320 525q53 92 100 185t88 189q18 47 28.5 93.5t18.5 93.5q2 10 5.5 15t17.5 3q20 -2 38.5 -2t30.5 -18 q27 -39 15 -93zM781 1124q-23 4 -41.5 12t-22.5 35q-2 6 -7 11l-9 9q-16 20 -19.5 37t10.5 37q14 23 42 38t51 13q47 -4 65.5 -31.5t1.5 -78.5q-10 -29 -28 -58q-12 -28 -43 -24zM670 923q-14 -39 -24.5 -71.5t-24.5 -65.5q-66 -160 -151 -313.5t-177 -307.5 q-57 -96 -118.5 -189t-121.5 -189q-16 -25 -28 -50.5t-27 -52.5q2 -2 6 -2q33 51 66 102.5t65 104.5q74 123 148 245t145 246q53 96 100.5 192.5t96.5 195.5q18 35 30.5 73.5t14.5 81.5zM639 -183l-88 -143q31 31 54.5 65.5t33.5 77.5zM53 -279l9 -4l49 80q-2 0 -4 1t-4 1z M686 784q2 0 2 -1t2 -1l35 102q-2 0 -4 1t-4 1q-6 -27 -14.5 -52t-16.5 -50zM117 -250q-2 0 -4 1t-4 1l-41 -72q2 0 3 -1t3 -1zM688 862q-4 0 -6 2l-22 -66h6z" />
<glyph unicode="&#xc0;" horiz-adv-x="1646" d="M1884 1966l-12 -33q-8 -14 -19 -8q-29 14 -48 32.5t-23 51.5l-31 150q-10 45 -17.5 90t-21.5 90q-10 18 12 25q27 14 41 6q4 -2 12 -2q33 -2 39 -37l27 -117q10 -53 19.5 -106.5t19.5 -106.5q4 -8 3 -17.5t-1 -17.5zM1745 905q-6 0 -6 2q-43 43 -108.5 60.5t-125.5 15.5 q-25 0 -35 -25q-53 -150 -106 -297t-104 -296q-45 -129 -75 -257t-44 -258q-4 -25 -2 -50t6 -50q4 -27 11 -28t30 22q86 84 157.5 176t131.5 193q72 123 139 246.5t137 246.5q8 14 25.5 21.5t27.5 -0.5q2 -4 2 -12.5t-4 -12.5q-20 -41 -38.5 -81t-41.5 -79 q-41 -80 -82 -159.5t-84 -157.5q-121 -219 -311 -399q-23 -23 -51.5 -36.5t-56.5 -17.5q-66 -12 -88 43q-16 35 -20.5 72t-2.5 76q8 113 31.5 224.5t58.5 221.5q51 162 105.5 323t111.5 322q4 16 -2 18.5t-16 0.5l-236 -25q-23 -2 -46 -6t-46 -6q-16 -2 -24.5 -8t-18.5 -19 q-59 -92 -118.5 -181t-123.5 -179q-72 -109 -150.5 -212.5t-170.5 -199.5q-27 -29 -56.5 -53.5t-58.5 -50.5q-23 -23 -52.5 -30t-59 -5t-54 13.5t-37.5 27.5q-16 20 -23 53t-4 70t15 72.5t35 60.5q16 23 45 26t39 -18q4 -2 1 -9t-7 -11q-29 -45 -39 -89t-6 -92 q8 -53 25.5 -58t66.5 32q47 37 87 82t79 90q117 133 212 274.5t187 286.5l60 92l2 8q-14 -2 -28.5 -3t-29.5 -5q-31 -8 -60.5 -14t-60.5 -17q-16 -4 -28.5 -3t-18.5 18q0 16 -10 30q-10 12 -3 17.5t17 9.5q35 10 70 19.5t70 17.5q31 8 61.5 13t59.5 9q27 2 43 25 q70 102 138 203.5t140 202.5q129 180 285 333q43 47 98 76q63 37 114.5 16.5t55.5 -85.5q2 -31 -3 -65t-15 -67q-31 -88 -65 -175t-66 -173q-23 -53 -42.5 -106t-41.5 -107q-8 -18 -3 -22t21 -6q33 0 66.5 -9.5t62.5 -25t48.5 -33.5t25.5 -35q4 -10 7 -20t7 -21q-2 0 -4 -1 t-4 -1zM1661 1763q-2 0 -4 2q0 20 -2 31q-8 -4 -16.5 -6t-14.5 -6q-16 -10 -31.5 -22.5t-27.5 -24.5q-78 -76 -146.5 -155t-126.5 -165q-63 -90 -123.5 -179t-121.5 -181q-4 -8 -8.5 -15.5t-8.5 -15.5q8 0 16.5 -1t16.5 -1q72 6 141.5 13t138.5 12q16 2 22.5 7t10.5 17 l164 400q31 72 60.5 144t60.5 146zM1102 -199h2q8 51 13 101.5t16 99.5q43 219 116 438l172 480l19 55h-6l-13 -29q-33 -86 -66.5 -173t-62.5 -175q-35 -106 -67.5 -211.5t-61.5 -212.5q-23 -74 -35 -147.5t-24 -147.5q-4 -20 -4 -40t2 -38zM1364 946h-8l-154 -434h8z M1331 1513l-6 5q-70 -98 -136.5 -196.5t-133.5 -199.5q2 0 4 -1t4 -1zM1225 487h8q25 72 49.5 145t50.5 146h-8zM1071 -12h-6l-14 -105h6q4 27 7 52.5t7 52.5zM1130 260h-6l-10 -51q-2 -8 -2 -14.5t-2 -12.5h4zM1096 125h-4l-21 -96h4zM1114 59h-2l-25 -112h3zM1122 111h2 l23 108h-2z" />
<glyph unicode="&#xc1;" horiz-adv-x="1646" d="M1581 1958q-8 0 -27 6q-6 2 0 12q4 4 6 6.5t7 6.5l186 153l98 78q70 51 148 76q4 2 9 3t9 -3t-8 -19q-8 -8 -14.5 -14t-14.5 -10q-35 -29 -61 -47q-47 -39 -95.5 -79t-95.5 -77q-18 -16 -38.5 -32.5t-41.5 -32.5q-28 -27 -67 -27zM1745 905q-6 0 -6 2q-43 43 -108.5 60.5 t-125.5 15.5q-25 0 -35 -25q-53 -150 -106 -297t-104 -296q-45 -129 -75 -257t-44 -258q-4 -25 -2 -50t6 -50q4 -27 11 -28t30 22q86 84 157.5 176t131.5 193q72 123 139 246.5t137 246.5q8 14 25.5 21.5t27.5 -0.5q2 -4 2 -12.5t-4 -12.5q-20 -41 -38.5 -81t-41.5 -79 q-41 -80 -82 -159.5t-84 -157.5q-121 -219 -311 -399q-23 -23 -51.5 -36.5t-56.5 -17.5q-66 -12 -88 43q-16 35 -20.5 72t-2.5 76q8 113 31.5 224.5t58.5 221.5q51 162 105.5 323t111.5 322q4 16 -2 18.5t-16 0.5l-236 -25q-23 -2 -46 -6t-46 -6q-16 -2 -24.5 -8t-18.5 -19 q-59 -92 -118.5 -181t-123.5 -179q-72 -109 -150.5 -212.5t-170.5 -199.5q-27 -29 -56.5 -53.5t-58.5 -50.5q-23 -23 -52.5 -30t-59 -5t-54 13.5t-37.5 27.5q-16 20 -23 53t-4 70t15 72.5t35 60.5q16 23 45 26t39 -18q4 -2 1 -9t-7 -11q-29 -45 -39 -89t-6 -92 q8 -53 25.5 -58t66.5 32q47 37 87 82t79 90q117 133 212 274.5t187 286.5l60 92l2 8q-14 -2 -28.5 -3t-29.5 -5q-31 -8 -60.5 -14t-60.5 -17q-16 -4 -28.5 -3t-18.5 18q0 16 -10 30q-10 12 -3 17.5t17 9.5q35 10 70 19.5t70 17.5q31 8 61.5 13t59.5 9q27 2 43 25 q70 102 138 203.5t140 202.5q129 180 285 333q43 47 98 76q63 37 114.5 16.5t55.5 -85.5q2 -31 -3 -65t-15 -67q-31 -88 -65 -175t-66 -173q-23 -53 -42.5 -106t-41.5 -107q-8 -18 -3 -22t21 -6q33 0 66.5 -9.5t62.5 -25t48.5 -33.5t25.5 -35q4 -10 7 -20t7 -21q-2 0 -4 -1 t-4 -1zM1661 1763q-2 0 -4 2q0 20 -2 31q-8 -4 -16.5 -6t-14.5 -6q-16 -10 -31.5 -22.5t-27.5 -24.5q-78 -76 -146.5 -155t-126.5 -165q-63 -90 -123.5 -179t-121.5 -181q-4 -8 -8.5 -15.5t-8.5 -15.5q8 0 16.5 -1t16.5 -1q72 6 141.5 13t138.5 12q16 2 22.5 7t10.5 17 l164 400q31 72 60.5 144t60.5 146zM1102 -199h2q8 51 13 101.5t16 99.5q43 219 116 438l172 480l19 55h-6l-13 -29q-33 -86 -66.5 -173t-62.5 -175q-35 -106 -67.5 -211.5t-61.5 -212.5q-23 -74 -35 -147.5t-24 -147.5q-4 -20 -4 -40t2 -38zM1364 946h-8l-154 -434h8z M1331 1513l-6 5q-70 -98 -136.5 -196.5t-133.5 -199.5q2 0 4 -1t4 -1zM1225 487h8q25 72 49.5 145t50.5 146h-8zM1071 -12h-6l-14 -105h6q4 27 7 52.5t7 52.5zM1130 260h-6l-10 -51q-2 -8 -2 -14.5t-2 -12.5h4zM1096 125h-4l-21 -96h4zM1114 59h-2l-25 -112h3zM1122 111h2 l23 108h-2z" />
<glyph unicode="&#xc2;" horiz-adv-x="1646" d="M1904 1899q-8 0 -15 2t-17 4q-20 6 -27 30q-4 16 -5 36t1 38q2 70 12 146q2 23 6.5 45t8.5 45q0 4 1 7t-1 7h-4h-5q-2 -4 -6 -8l-8 -8l-127 -162q-12 -14 -23.5 -27.5t-23.5 -25.5q-14 -20 -43 -21q-4 0 -9 1t-9 1q-10 4 -5 10l9 9l118 153q27 33 51.5 62.5t49.5 60.5 q12 14 22.5 28.5t20.5 28.5q20 31 51 27q8 -2 15.5 -2t13.5 -4q20 -4 16 -23l-2 -55q-8 -41 -15 -83t-12 -83q-12 -74 -12 -147q0 -14 1 -28.5t7 -24.5q8 -16 -5.5 -28.5t-29.5 -10.5zM1745 905q-6 0 -6 2q-43 43 -108.5 60.5t-125.5 15.5q-25 0 -35 -25q-53 -150 -106 -297 t-104 -296q-45 -129 -75 -257t-44 -258q-4 -25 -2 -50t6 -50q4 -27 11 -28t30 22q86 84 157.5 176t131.5 193q72 123 139 246.5t137 246.5q8 14 25.5 21.5t27.5 -0.5q2 -4 2 -12.5t-4 -12.5q-20 -41 -38.5 -81t-41.5 -79q-41 -80 -82 -159.5t-84 -157.5q-121 -219 -311 -399 q-23 -23 -51.5 -36.5t-56.5 -17.5q-66 -12 -88 43q-16 35 -20.5 72t-2.5 76q8 113 31.5 224.5t58.5 221.5q51 162 105.5 323t111.5 322q4 16 -2 18.5t-16 0.5l-236 -25q-23 -2 -46 -6t-46 -6q-16 -2 -24.5 -8t-18.5 -19q-59 -92 -118.5 -181t-123.5 -179 q-72 -109 -150.5 -212.5t-170.5 -199.5q-27 -29 -56.5 -53.5t-58.5 -50.5q-23 -23 -52.5 -30t-59 -5t-54 13.5t-37.5 27.5q-16 20 -23 53t-4 70t15 72.5t35 60.5q16 23 45 26t39 -18q4 -2 1 -9t-7 -11q-29 -45 -39 -89t-6 -92q8 -53 25.5 -58t66.5 32q47 37 87 82t79 90 q117 133 212 274.5t187 286.5l60 92l2 8q-14 -2 -28.5 -3t-29.5 -5q-31 -8 -60.5 -14t-60.5 -17q-16 -4 -28.5 -3t-18.5 18q0 16 -10 30q-10 12 -3 17.5t17 9.5q35 10 70 19.5t70 17.5q31 8 61.5 13t59.5 9q27 2 43 25q70 102 138 203.5t140 202.5q129 180 285 333 q43 47 98 76q63 37 114.5 16.5t55.5 -85.5q2 -31 -3 -65t-15 -67q-31 -88 -65 -175t-66 -173q-23 -53 -42.5 -106t-41.5 -107q-8 -18 -3 -22t21 -6q33 0 66.5 -9.5t62.5 -25t48.5 -33.5t25.5 -35q4 -10 7 -20t7 -21q-2 0 -4 -1t-4 -1zM1661 1763q-2 0 -4 2q0 20 -2 31 q-8 -4 -16.5 -6t-14.5 -6q-16 -10 -31.5 -22.5t-27.5 -24.5q-78 -76 -146.5 -155t-126.5 -165q-63 -90 -123.5 -179t-121.5 -181q-4 -8 -8.5 -15.5t-8.5 -15.5q8 0 16.5 -1t16.5 -1q72 6 141.5 13t138.5 12q16 2 22.5 7t10.5 17l164 400q31 72 60.5 144t60.5 146zM1102 -199 h2q8 51 13 101.5t16 99.5q43 219 116 438l172 480l19 55h-6l-13 -29q-33 -86 -66.5 -173t-62.5 -175q-35 -106 -67.5 -211.5t-61.5 -212.5q-23 -74 -35 -147.5t-24 -147.5q-4 -20 -4 -40t2 -38zM1364 946h-8l-154 -434h8zM1331 1513l-6 5q-70 -98 -136.5 -196.5 t-133.5 -199.5q2 0 4 -1t4 -1zM1225 487h8q25 72 49.5 145t50.5 146h-8zM1071 -12h-6l-14 -105h6q4 27 7 52.5t7 52.5zM1130 260h-6l-10 -51q-2 -8 -2 -14.5t-2 -12.5h4zM1096 125h-4l-21 -96h4zM1114 59h-2l-25 -112h3zM1122 111h2l23 108h-2z" />
<glyph unicode="&#xc3;" horiz-adv-x="1646" d="M1886 2003q-16 2 -31.5 4.5t-31.5 6.5q-14 2 -27.5 5t-26.5 7q-23 6 -42 15.5t-38 19.5q-16 8 -30.5 15t-26.5 18q-35 20 -80 -7q-4 -2 -7 -4t-7 -2q-6 -6 -14 -8q-16 -4 -17 4q-4 6 1 9t9 8q14 16 41 26q41 16 76 29q49 12 96 0q35 -10 65 -22.5t58 -26.5 q12 -6 24.5 -13.5t28.5 -13.5q6 -4 14.5 -5t18.5 -3q12 -2 26.5 2t26.5 14q6 6 14.5 11.5t14.5 9.5q27 14 43 8q8 -4 9 -5t-3 -9q-14 -25 -34 -37q-16 -10 -35 -19.5t-37 -19.5q-33 -17 -78 -17zM1745 905q-6 0 -6 2q-43 43 -108.5 60.5t-125.5 15.5q-25 0 -35 -25 q-53 -150 -106 -297t-104 -296q-45 -129 -75 -257t-44 -258q-4 -25 -2 -50t6 -50q4 -27 11 -28t30 22q86 84 157.5 176t131.5 193q72 123 139 246.5t137 246.5q8 14 25.5 21.5t27.5 -0.5q2 -4 2 -12.5t-4 -12.5q-20 -41 -38.5 -81t-41.5 -79q-41 -80 -82 -159.5t-84 -157.5 q-121 -219 -311 -399q-23 -23 -51.5 -36.5t-56.5 -17.5q-66 -12 -88 43q-16 35 -20.5 72t-2.5 76q8 113 31.5 224.5t58.5 221.5q51 162 105.5 323t111.5 322q4 16 -2 18.5t-16 0.5l-236 -25q-23 -2 -46 -6t-46 -6q-16 -2 -24.5 -8t-18.5 -19q-59 -92 -118.5 -181 t-123.5 -179q-72 -109 -150.5 -212.5t-170.5 -199.5q-27 -29 -56.5 -53.5t-58.5 -50.5q-23 -23 -52.5 -30t-59 -5t-54 13.5t-37.5 27.5q-16 20 -23 53t-4 70t15 72.5t35 60.5q16 23 45 26t39 -18q4 -2 1 -9t-7 -11q-29 -45 -39 -89t-6 -92q8 -53 25.5 -58t66.5 32 q47 37 87 82t79 90q117 133 212 274.5t187 286.5l60 92l2 8q-14 -2 -28.5 -3t-29.5 -5q-31 -8 -60.5 -14t-60.5 -17q-16 -4 -28.5 -3t-18.5 18q0 16 -10 30q-10 12 -3 17.5t17 9.5q35 10 70 19.5t70 17.5q31 8 61.5 13t59.5 9q27 2 43 25q70 102 138 203.5t140 202.5 q129 180 285 333q43 47 98 76q63 37 114.5 16.5t55.5 -85.5q2 -31 -3 -65t-15 -67q-31 -88 -65 -175t-66 -173q-23 -53 -42.5 -106t-41.5 -107q-8 -18 -3 -22t21 -6q33 0 66.5 -9.5t62.5 -25t48.5 -33.5t25.5 -35q4 -10 7 -20t7 -21q-2 0 -4 -1t-4 -1zM1661 1763q-2 0 -4 2 q0 20 -2 31q-8 -4 -16.5 -6t-14.5 -6q-16 -10 -31.5 -22.5t-27.5 -24.5q-78 -76 -146.5 -155t-126.5 -165q-63 -90 -123.5 -179t-121.5 -181q-4 -8 -8.5 -15.5t-8.5 -15.5q8 0 16.5 -1t16.5 -1q72 6 141.5 13t138.5 12q16 2 22.5 7t10.5 17l164 400q31 72 60.5 144t60.5 146 zM1102 -199h2q8 51 13 101.5t16 99.5q43 219 116 438l172 480l19 55h-6l-13 -29q-33 -86 -66.5 -173t-62.5 -175q-35 -106 -67.5 -211.5t-61.5 -212.5q-23 -74 -35 -147.5t-24 -147.5q-4 -20 -4 -40t2 -38zM1364 946h-8l-154 -434h8zM1331 1513l-6 5q-70 -98 -136.5 -196.5 t-133.5 -199.5q2 0 4 -1t4 -1zM1225 487h8q25 72 49.5 145t50.5 146h-8zM1071 -12h-6l-14 -105h6q4 27 7 52.5t7 52.5zM1130 260h-6l-10 -51q-2 -8 -2 -14.5t-2 -12.5h4zM1096 125h-4l-21 -96h4zM1114 59h-2l-25 -112h3zM1122 111h2l23 108h-2z" />
<glyph unicode="&#xc4;" horiz-adv-x="1646" d="M1561 2110q6 20 13.5 37.5t21.5 33.5q18 23 42.5 31t45.5 -2q31 -12 51 -27q25 -12 21 -51q-4 -23 -17.5 -44t-34 -36.5t-45 -24t-47.5 -3.5q-67 12 -51 86zM1901 2030q-4 2 -12 2t-17 2q-35 12 -37 43q-2 10 -2 18v19q6 45 52 73q23 10 43 15.5t43 -2.5q10 -4 22 -7.5 t25 -7.5q14 -6 21 -22.5t1 -32.5q-18 -45 -51 -71.5t-88 -28.5zM1926 2067q4 2 9 6t5 8v4q-4 0 -11.5 -5t-7.5 -9q0 -2 3 -2zM1645 2069h2v2zM1745 905q-6 0 -6 2q-43 43 -108.5 60.5t-125.5 15.5q-25 0 -35 -25q-53 -150 -106 -297t-104 -296q-45 -129 -75 -257t-44 -258 q-4 -25 -2 -50t6 -50q4 -27 11 -28t30 22q86 84 157.5 176t131.5 193q72 123 139 246.5t137 246.5q8 14 25.5 21.5t27.5 -0.5q2 -4 2 -12.5t-4 -12.5q-20 -41 -38.5 -81t-41.5 -79q-41 -80 -82 -159.5t-84 -157.5q-121 -219 -311 -399q-23 -23 -51.5 -36.5t-56.5 -17.5 q-66 -12 -88 43q-16 35 -20.5 72t-2.5 76q8 113 31.5 224.5t58.5 221.5q51 162 105.5 323t111.5 322q4 16 -2 18.5t-16 0.5l-236 -25q-23 -2 -46 -6t-46 -6q-16 -2 -24.5 -8t-18.5 -19q-59 -92 -118.5 -181t-123.5 -179q-72 -109 -150.5 -212.5t-170.5 -199.5 q-27 -29 -56.5 -53.5t-58.5 -50.5q-23 -23 -52.5 -30t-59 -5t-54 13.5t-37.5 27.5q-16 20 -23 53t-4 70t15 72.5t35 60.5q16 23 45 26t39 -18q4 -2 1 -9t-7 -11q-29 -45 -39 -89t-6 -92q8 -53 25.5 -58t66.5 32q47 37 87 82t79 90q117 133 212 274.5t187 286.5l60 92l2 8 q-14 -2 -28.5 -3t-29.5 -5q-31 -8 -60.5 -14t-60.5 -17q-16 -4 -28.5 -3t-18.5 18q0 16 -10 30q-10 12 -3 17.5t17 9.5q35 10 70 19.5t70 17.5q31 8 61.5 13t59.5 9q27 2 43 25q70 102 138 203.5t140 202.5q129 180 285 333q43 47 98 76q63 37 114.5 16.5t55.5 -85.5 q2 -31 -3 -65t-15 -67q-31 -88 -65 -175t-66 -173q-23 -53 -42.5 -106t-41.5 -107q-8 -18 -3 -22t21 -6q33 0 66.5 -9.5t62.5 -25t48.5 -33.5t25.5 -35q4 -10 7 -20t7 -21q-2 0 -4 -1t-4 -1zM1661 1763q-2 0 -4 2q0 20 -2 31q-8 -4 -16.5 -6t-14.5 -6q-16 -10 -31.5 -22.5 t-27.5 -24.5q-78 -76 -146.5 -155t-126.5 -165q-63 -90 -123.5 -179t-121.5 -181q-4 -8 -8.5 -15.5t-8.5 -15.5q8 0 16.5 -1t16.5 -1q72 6 141.5 13t138.5 12q16 2 22.5 7t10.5 17l164 400q31 72 60.5 144t60.5 146zM1102 -199h2q8 51 13 101.5t16 99.5q43 219 116 438 l172 480l19 55h-6l-13 -29q-33 -86 -66.5 -173t-62.5 -175q-35 -106 -67.5 -211.5t-61.5 -212.5q-23 -74 -35 -147.5t-24 -147.5q-4 -20 -4 -40t2 -38zM1364 946h-8l-154 -434h8zM1331 1513l-6 5q-70 -98 -136.5 -196.5t-133.5 -199.5q2 0 4 -1t4 -1zM1225 487h8 q25 72 49.5 145t50.5 146h-8zM1071 -12h-6l-14 -105h6q4 27 7 52.5t7 52.5zM1130 260h-6l-10 -51q-2 -8 -2 -14.5t-2 -12.5h4zM1096 125h-4l-21 -96h4zM1114 59h-2l-25 -112h3zM1122 111h2l23 108h-2z" />
<glyph unicode="&#xc5;" horiz-adv-x="1646" d="M1630 2103q23 72 64.5 126t109.5 89q16 10 36.5 12t37.5 -2q68 -16 101.5 -62t43.5 -112q6 -35 -29 -76q-92 -127 -233 -120q-45 2 -79 24.5t-48 63.5q-4 14 -3 29.5t-1 27.5zM1929 2173q4 27 -1 45t-16 39q-12 16 -32 6q-123 -74 -160 -201q-8 -35 -1 -41t42 2 q14 2 24 8q51 18 92.5 59.5t51.5 82.5zM1728 2160l6 -4q10 16 24.5 31.5t26.5 32.5l-8 6q-12 -16 -23.5 -33t-25.5 -33zM1929 2052q43 20 51 61q-14 -16 -26.5 -30.5t-24.5 -30.5zM1745 905q-6 0 -6 2q-43 43 -108.5 60.5t-125.5 15.5q-25 0 -35 -25q-53 -150 -106 -297 t-104 -296q-45 -129 -75 -257t-44 -258q-4 -25 -2 -50t6 -50q4 -27 11 -28t30 22q86 84 157.5 176t131.5 193q72 123 139 246.5t137 246.5q8 14 25.5 21.5t27.5 -0.5q2 -4 2 -12.5t-4 -12.5q-20 -41 -38.5 -81t-41.5 -79q-41 -80 -82 -159.5t-84 -157.5q-121 -219 -311 -399 q-23 -23 -51.5 -36.5t-56.5 -17.5q-66 -12 -88 43q-16 35 -20.5 72t-2.5 76q8 113 31.5 224.5t58.5 221.5q51 162 105.5 323t111.5 322q4 16 -2 18.5t-16 0.5l-236 -25q-23 -2 -46 -6t-46 -6q-16 -2 -24.5 -8t-18.5 -19q-59 -92 -118.5 -181t-123.5 -179 q-72 -109 -150.5 -212.5t-170.5 -199.5q-27 -29 -56.5 -53.5t-58.5 -50.5q-23 -23 -52.5 -30t-59 -5t-54 13.5t-37.5 27.5q-16 20 -23 53t-4 70t15 72.5t35 60.5q16 23 45 26t39 -18q4 -2 1 -9t-7 -11q-29 -45 -39 -89t-6 -92q8 -53 25.5 -58t66.5 32q47 37 87 82t79 90 q117 133 212 274.5t187 286.5l60 92l2 8q-14 -2 -28.5 -3t-29.5 -5q-31 -8 -60.5 -14t-60.5 -17q-16 -4 -28.5 -3t-18.5 18q0 16 -10 30q-10 12 -3 17.5t17 9.5q35 10 70 19.5t70 17.5q31 8 61.5 13t59.5 9q27 2 43 25q70 102 138 203.5t140 202.5q129 180 285 333 q43 47 98 76q63 37 114.5 16.5t55.5 -85.5q2 -31 -3 -65t-15 -67q-31 -88 -65 -175t-66 -173q-23 -53 -42.5 -106t-41.5 -107q-8 -18 -3 -22t21 -6q33 0 66.5 -9.5t62.5 -25t48.5 -33.5t25.5 -35q4 -10 7 -20t7 -21q-2 0 -4 -1t-4 -1zM1661 1763q-2 0 -4 2q0 20 -2 31 q-8 -4 -16.5 -6t-14.5 -6q-16 -10 -31.5 -22.5t-27.5 -24.5q-78 -76 -146.5 -155t-126.5 -165q-63 -90 -123.5 -179t-121.5 -181q-4 -8 -8.5 -15.5t-8.5 -15.5q8 0 16.5 -1t16.5 -1q72 6 141.5 13t138.5 12q16 2 22.5 7t10.5 17l164 400q31 72 60.5 144t60.5 146zM1102 -199 h2q8 51 13 101.5t16 99.5q43 219 116 438l172 480l19 55h-6l-13 -29q-33 -86 -66.5 -173t-62.5 -175q-35 -106 -67.5 -211.5t-61.5 -212.5q-23 -74 -35 -147.5t-24 -147.5q-4 -20 -4 -40t2 -38zM1364 946h-8l-154 -434h8zM1331 1513l-6 5q-70 -98 -136.5 -196.5 t-133.5 -199.5q2 0 4 -1t4 -1zM1225 487h8q25 72 49.5 145t50.5 146h-8zM1071 -12h-6l-14 -105h6q4 27 7 52.5t7 52.5zM1130 260h-6l-10 -51q-2 -8 -2 -14.5t-2 -12.5h4zM1096 125h-4l-21 -96h4zM1114 59h-2l-25 -112h3zM1122 111h2l23 108h-2z" />
<glyph unicode="&#xc6;" horiz-adv-x="2562" d="M1143 100l53 256q4 14 8 27.5t8 28.5q10 33 5 40t-35 11q-33 4 -64 8t-63 4q-82 4 -163 -4t-165 -18q-37 -6 -68 -39l-378 -449l-306 -360q-29 -35 -59 -66q-29 -29 -66 -49q-37 -18 -67 -6q-16 10 0 20q29 23 52.5 48.5t45.5 52.5l465 569q41 51 83 100.5t83 98.5l23 26 l8 17q-4 0 -8.5 1t-8.5 -1q-12 -2 -23 -4t-22 -2q-12 -2 -24.5 -3t-22.5 -1t-18 3t-17 5q-2 2 -3 4t-5 6q4 4 8 6t9 4q4 4 10 4t10 2q35 8 67.5 15.5t67.5 11.5q35 6 64 41l565 676q98 117 192.5 230.5t192.5 227.5q29 35 57.5 66t57.5 64q23 27 61 30q18 2 32.5 -5 t29.5 -17q6 -4 6 -11.5t-2 -13.5l-21 -63q-29 -88 -62.5 -175t-68.5 -174l-29 -71q0 -4 2 -8q2 2 4.5 2t4.5 4q4 4 6 7t6 7q199 283 516 387q135 45 266 31q131 -16 217 -98q8 -8 14.5 -16.5t12.5 -16.5q10 -25 2 -45q-8 -18 -25.5 -24.5t-29.5 3.5q-6 6 -6 17 q6 16 0.5 29.5t-13.5 23.5q-88 100 -233 94q-53 -2 -107.5 -17.5t-107.5 -39.5q-123 -59 -218.5 -144.5t-172.5 -195.5q-20 -33 -37 -72q-49 -111 8 -192q23 -31 49.5 -54.5t63.5 -40.5q27 -12 61 0q39 16 78 24.5t78 12.5q33 2 60.5 -8t51.5 -24q10 -6 8 -16.5t-14 -18.5 q-18 -14 -43 -21q-27 -10 -53.5 -12t-52.5 -4q-16 -2 -30.5 -2h-29.5q-29 2 -59 -17q-39 -23 -74 -48t-69 -54q-94 -78 -170 -167t-140 -189q-8 -10 -12 -21.5t-8 -23.5q-4 -18 -19 -29q-6 -4 -10 -10t-8 -13q-45 -82 -76 -174q-18 -51 -32.5 -102t-24.5 -105 q-16 -100 -11 -192t46 -178q37 -76 102 -135q27 -27 61.5 -33t75.5 2q49 10 94.5 30.5t88.5 51.5q29 20 55 41.5t53 44.5q111 98 205 205.5t178 226.5q51 72 101.5 144.5t103.5 144.5q29 39 56.5 75.5t55.5 71.5q29 33 51.5 64.5t45.5 66.5l45 66q18 27 49 26q33 0 16 -30 l-43 -64q-41 -59 -83 -117.5t-83 -117.5q-31 -43 -59.5 -86t-56.5 -86l-113 -170q-86 -127 -185.5 -242t-215.5 -219q-70 -61 -144.5 -103.5t-161.5 -60.5q-156 -33 -276 41q-78 53 -131 139q-4 4 -7 10.5t-7 4.5q-10 -4 -10.5 -10.5t1.5 -12.5l-6 -111q0 -27 -26 -32 q-27 -6 -47.5 0t-36.5 20q-10 8 -11 29q0 20 -1 39.5t1 42.5l25 198q16 106 34.5 212t41.5 212zM1221 504q12 -2 18 14q4 4 4 10l51 164q29 94 63 187.5t70 185.5l168 416l17 43v10l-10 -6q-6 -4 -10.5 -9.5t-8.5 -11.5l-248 -293l-571 -677l-16 -21q-10 -16 6 -16q4 0 9 1 t9 1l158 14q49 4 100 4t98 -6q23 -2 46.5 -4t46.5 -6zM1358 479q0 -4 -1 -6t1 -6q0 -6 4 -10q6 0 10 4l14 18l58 72q74 92 161 169t189 136l12 6q14 8 4 17l-26 10q-88 37 -144 102q-23 29 -36 59.5t-9 71.5q0 4 1 7.5t-1 7.5l-2 6l-8 -6l-6 -17q-23 -63 -47.5 -125.5 t-44.5 -126.5q-23 -61 -44.5 -123.5t-41.5 -126.5z" />
<glyph unicode="&#xc7;" horiz-adv-x="1253" d="M179 -548q-42 -3 -73 14q-9 1 -19 15q-13 12 4 26q7 5 15 8.5t15 6.5t13 -1q6 -8 11.5 -14t13.5 -14q5 -12 18 -9q16 3 29 4.5t28 4.5q11 2 21 9t18 17q22 32 35 66t14 71q-3 36 -34 43q-8 1 -15.5 3.5l-16.5 5.5q-9 6 -2 20q25 36 49 74t47 75q19 27 43 22q9 -1 16 -4.5 t15 -6.5q3 -1 3 -10q-2 -5 -5 -8.5t-6 -8.5l-76 -122q-8 -13 -8 -17t13 -10l26 -10q35 -20 35 -65q-3 -32 -14.5 -60.5t-30.5 -57.5q-8 -11 -17.5 -19t-22.5 -16q-16 -8 -32 -14t-35 -9q-18 -3 -36.5 -4.5t-38.5 -4.5zM135 518q43 199 132 385.5t214 366.5q59 86 132 162.5 t163 138.5q53 37 106.5 64.5t112.5 43.5q84 20 153 -16.5t89 -112.5q12 -41 13 -83t-23 -89q-6 -10 -14.5 -20t-18.5 -21q-10 8 -19.5 14.5t-15.5 16.5q-4 4 -4 12.5v16.5q4 23 9 45t5 45q2 20 -2 40.5t-8 39.5q-4 16 -17.5 22t-29.5 8q-55 2 -108.5 -20.5t-104.5 -50.5 q-92 -53 -161.5 -125t-129.5 -156q-164 -223 -258 -463q-43 -104 -65.5 -209.5t-32.5 -212.5q-8 -74 -9 -144.5t9 -139.5q12 -92 63 -166q55 -76 162 -27q66 31 120 75t108 91q123 115 222 243t191 263l21 29q10 16 20 19t25 -1q33 -8 16 -43q-90 -154 -188.5 -301 t-231.5 -276q-35 -33 -71.5 -63t-77.5 -56q-59 -41 -123 -52.5t-127 -7.5q-113 8 -173.5 68.5t-88.5 159.5q-23 82 -20 168t14 174q4 37 10 72.5t12 72.5zM817 1511q-102 -68 -173 -158.5t-136 -189.5q68 96 141.5 185t167.5 163z" />
<glyph unicode="&#xc8;" horiz-adv-x="1435" d="M1251 1880l-12 -33q-8 -14 -19 -8q-29 14 -48 32.5t-23 51.5l-31 150q-10 45 -17.5 90t-21.5 90q-10 18 12 25q27 14 41 6q4 -2 12 -2q33 -2 39 -37l27 -117q10 -53 19.5 -106.5t19.5 -106.5q4 -8 3 -17.5t-1 -17.5zM485 780q-47 16 -81.5 42t-63.5 59q-53 61 -55 147 q-10 150 56.5 279t186.5 243q74 70 156 121t174 84q59 23 117.5 34t111.5 -5q59 -14 109 -51q20 -12 39.5 -24.5t30.5 -39.5q8 -23 10 -29t-19 -26q-143 -166 -219 -363q-8 -23 -10 -43t-6 -43q-4 -16 -7 -19t-18 3q-49 29 -41 88q6 53 27 105.5t49 103.5q29 53 58.5 103 t60.5 104q8 12 9 18t-15 10q-57 10 -112.5 -1t-112.5 -35q-168 -76 -289 -193t-187 -289q-25 -66 -27.5 -130t19.5 -124q16 -37 48 -58.5t77 -19.5q37 2 75 9.5t75 13.5l75 14l56 17q18 4 36.5 0t28.5 -17q8 -16 -14 -30l-45 -21q-20 -6 -12 -24q6 -16 3 -20.5t-24 -6.5 q-37 -4 -73.5 -7t-77.5 -20q-47 -18 -88 -47.5t-82 -62.5q-92 -74 -152.5 -165t-101.5 -196q-35 -88 -60.5 -175t-38.5 -175q-12 -80 -18 -160t10 -153q8 -33 29.5 -60.5t50.5 -46t62.5 -26t66.5 1.5q61 14 119.5 40.5t113.5 63.5q135 88 242 199.5t203 234.5 q104 137 204.5 274.5t205.5 276.5q14 20 27 40t30 40q12 16 25.5 17.5t31.5 -9.5q14 -8 11 -17t-11 -20q-37 -55 -75.5 -111.5t-79.5 -109.5q-74 -104 -149 -205.5t-153 -203.5q-96 -127 -201.5 -241t-238.5 -206q-90 -63 -185 -99t-198 -26q-66 8 -121 33t-95 67t-59.5 100 t-15.5 132q4 61 9.5 122.5t15.5 123.5q14 78 36.5 154.5t57.5 152.5q27 55 54.5 109.5t60.5 107.5q86 137 231 234zM479 1331q119 160 289 279q-92 -51 -166 -119t-123 -160zM287 459q47 66 103 122t118 109q-72 -45 -127 -102t-94 -129zM633 1554q-86 -61 -139 -143z M549 1522q-14 -8 -32.5 -25.5t-35 -38t-31 -40t-18.5 -32.5zM287 526q4 -4 8 -4l90 103l-6 4zM360 645q-35 -29 -62.5 -60.5t-47.5 -68.5zM1241 1638q-4 4 -6 4l-59 -73l4 -4z" />
<glyph unicode="&#xc9;" horiz-adv-x="1435" d="M1008 1868q-8 0 -27 6q-6 2 0 12q4 4 6 6.5t7 6.5l186 153l98 78q70 51 148 76q4 2 9 3t9 -3t-8 -19q-8 -8 -14.5 -14t-14.5 -10q-35 -29 -61 -47q-47 -39 -95.5 -79t-95.5 -77q-18 -16 -38.5 -32.5t-41.5 -32.5q-28 -27 -67 -27zM485 780q-47 16 -81.5 42t-63.5 59 q-53 61 -55 147q-10 150 56.5 279t186.5 243q74 70 156 121t174 84q59 23 117.5 34t111.5 -5q59 -14 109 -51q20 -12 39.5 -24.5t30.5 -39.5q8 -23 10 -29t-19 -26q-143 -166 -219 -363q-8 -23 -10 -43t-6 -43q-4 -16 -7 -19t-18 3q-49 29 -41 88q6 53 27 105.5t49 103.5 q29 53 58.5 103t60.5 104q8 12 9 18t-15 10q-57 10 -112.5 -1t-112.5 -35q-168 -76 -289 -193t-187 -289q-25 -66 -27.5 -130t19.5 -124q16 -37 48 -58.5t77 -19.5q37 2 75 9.5t75 13.5l75 14l56 17q18 4 36.5 0t28.5 -17q8 -16 -14 -30l-45 -21q-20 -6 -12 -24 q6 -16 3 -20.5t-24 -6.5q-37 -4 -73.5 -7t-77.5 -20q-47 -18 -88 -47.5t-82 -62.5q-92 -74 -152.5 -165t-101.5 -196q-35 -88 -60.5 -175t-38.5 -175q-12 -80 -18 -160t10 -153q8 -33 29.5 -60.5t50.5 -46t62.5 -26t66.5 1.5q61 14 119.5 40.5t113.5 63.5q135 88 242 199.5 t203 234.5q104 137 204.5 274.5t205.5 276.5q14 20 27 40t30 40q12 16 25.5 17.5t31.5 -9.5q14 -8 11 -17t-11 -20q-37 -55 -75.5 -111.5t-79.5 -109.5q-74 -104 -149 -205.5t-153 -203.5q-96 -127 -201.5 -241t-238.5 -206q-90 -63 -185 -99t-198 -26q-66 8 -121 33t-95 67 t-59.5 100t-15.5 132q4 61 9.5 122.5t15.5 123.5q14 78 36.5 154.5t57.5 152.5q27 55 54.5 109.5t60.5 107.5q86 137 231 234zM479 1331q119 160 289 279q-92 -51 -166 -119t-123 -160zM287 459q47 66 103 122t118 109q-72 -45 -127 -102t-94 -129zM633 1554 q-86 -61 -139 -143zM549 1522q-14 -8 -32.5 -25.5t-35 -38t-31 -40t-18.5 -32.5zM287 526q4 -4 8 -4l90 103l-6 4zM360 645q-35 -29 -62.5 -60.5t-47.5 -68.5zM1241 1638q-4 4 -6 4l-59 -73l4 -4z" />
<glyph unicode="&#xca;" horiz-adv-x="1435" d="M1296 1766q-8 0 -15 2t-17 4q-20 6 -27 30q-4 16 -5 36t1 38q2 70 12 146q2 23 6.5 45t8.5 45q0 4 1 7t-1 7h-4h-5q-2 -4 -6 -8l-8 -8l-127 -162q-12 -14 -23.5 -27.5t-23.5 -25.5q-14 -20 -43 -21q-4 0 -9 1t-9 1q-10 4 -5 10l9 9l118 153q27 33 51.5 62.5t49.5 60.5 q12 14 22.5 28.5t20.5 28.5q20 31 51 27q8 -2 15.5 -2t13.5 -4q20 -4 16 -23l-2 -55q-8 -41 -15 -83t-12 -83q-12 -74 -12 -147q0 -14 1 -28.5t7 -24.5q8 -16 -5.5 -28.5t-29.5 -10.5zM485 780q-47 16 -81.5 42t-63.5 59q-53 61 -55 147q-10 150 56.5 279t186.5 243 q74 70 156 121t174 84q59 23 117.5 34t111.5 -5q59 -14 109 -51q20 -12 39.5 -24.5t30.5 -39.5q8 -23 10 -29t-19 -26q-143 -166 -219 -363q-8 -23 -10 -43t-6 -43q-4 -16 -7 -19t-18 3q-49 29 -41 88q6 53 27 105.5t49 103.5q29 53 58.5 103t60.5 104q8 12 9 18t-15 10 q-57 10 -112.5 -1t-112.5 -35q-168 -76 -289 -193t-187 -289q-25 -66 -27.5 -130t19.5 -124q16 -37 48 -58.5t77 -19.5q37 2 75 9.5t75 13.5l75 14l56 17q18 4 36.5 0t28.5 -17q8 -16 -14 -30l-45 -21q-20 -6 -12 -24q6 -16 3 -20.5t-24 -6.5q-37 -4 -73.5 -7t-77.5 -20 q-47 -18 -88 -47.5t-82 -62.5q-92 -74 -152.5 -165t-101.5 -196q-35 -88 -60.5 -175t-38.5 -175q-12 -80 -18 -160t10 -153q8 -33 29.5 -60.5t50.5 -46t62.5 -26t66.5 1.5q61 14 119.5 40.5t113.5 63.5q135 88 242 199.5t203 234.5q104 137 204.5 274.5t205.5 276.5 q14 20 27 40t30 40q12 16 25.5 17.5t31.5 -9.5q14 -8 11 -17t-11 -20q-37 -55 -75.5 -111.5t-79.5 -109.5q-74 -104 -149 -205.5t-153 -203.5q-96 -127 -201.5 -241t-238.5 -206q-90 -63 -185 -99t-198 -26q-66 8 -121 33t-95 67t-59.5 100t-15.5 132q4 61 9.5 122.5 t15.5 123.5q14 78 36.5 154.5t57.5 152.5q27 55 54.5 109.5t60.5 107.5q86 137 231 234zM479 1331q119 160 289 279q-92 -51 -166 -119t-123 -160zM287 459q47 66 103 122t118 109q-72 -45 -127 -102t-94 -129zM633 1554q-86 -61 -139 -143zM549 1522q-14 -8 -32.5 -25.5 t-35 -38t-31 -40t-18.5 -32.5zM287 526q4 -4 8 -4l90 103l-6 4zM360 645q-35 -29 -62.5 -60.5t-47.5 -68.5zM1241 1638q-4 4 -6 4l-59 -73l4 -4z" />
<glyph unicode="&#xcb;" horiz-adv-x="1435" d="M909 1969q6 20 13.5 37.5t21.5 33.5q18 23 42.5 31t45.5 -2q31 -12 51 -27q25 -12 21 -51q-4 -23 -17.5 -44t-34 -36.5t-45 -24t-47.5 -3.5q-67 12 -51 86zM1249 1889q-4 2 -12 2t-17 2q-35 12 -37 43q-2 10 -2 18v19q6 45 52 73q23 10 43 15.5t43 -2.5q10 -4 22 -7.5 t25 -7.5q14 -6 21 -22.5t1 -32.5q-18 -45 -51 -71.5t-88 -28.5zM1274 1926q4 2 9 6t5 8v4q-4 0 -11.5 -5t-7.5 -9q0 -2 3 -2zM993 1928h2v2zM485 780q-47 16 -81.5 42t-63.5 59q-53 61 -55 147q-10 150 56.5 279t186.5 243q74 70 156 121t174 84q59 23 117.5 34t111.5 -5 q59 -14 109 -51q20 -12 39.5 -24.5t30.5 -39.5q8 -23 10 -29t-19 -26q-143 -166 -219 -363q-8 -23 -10 -43t-6 -43q-4 -16 -7 -19t-18 3q-49 29 -41 88q6 53 27 105.5t49 103.5q29 53 58.5 103t60.5 104q8 12 9 18t-15 10q-57 10 -112.5 -1t-112.5 -35q-168 -76 -289 -193 t-187 -289q-25 -66 -27.5 -130t19.5 -124q16 -37 48 -58.5t77 -19.5q37 2 75 9.5t75 13.5l75 14l56 17q18 4 36.5 0t28.5 -17q8 -16 -14 -30l-45 -21q-20 -6 -12 -24q6 -16 3 -20.5t-24 -6.5q-37 -4 -73.5 -7t-77.5 -20q-47 -18 -88 -47.5t-82 -62.5q-92 -74 -152.5 -165 t-101.5 -196q-35 -88 -60.5 -175t-38.5 -175q-12 -80 -18 -160t10 -153q8 -33 29.5 -60.5t50.5 -46t62.5 -26t66.5 1.5q61 14 119.5 40.5t113.5 63.5q135 88 242 199.5t203 234.5q104 137 204.5 274.5t205.5 276.5q14 20 27 40t30 40q12 16 25.5 17.5t31.5 -9.5 q14 -8 11 -17t-11 -20q-37 -55 -75.5 -111.5t-79.5 -109.5q-74 -104 -149 -205.5t-153 -203.5q-96 -127 -201.5 -241t-238.5 -206q-90 -63 -185 -99t-198 -26q-66 8 -121 33t-95 67t-59.5 100t-15.5 132q4 61 9.5 122.5t15.5 123.5q14 78 36.5 154.5t57.5 152.5 q27 55 54.5 109.5t60.5 107.5q86 137 231 234zM479 1331q119 160 289 279q-92 -51 -166 -119t-123 -160zM287 459q47 66 103 122t118 109q-72 -45 -127 -102t-94 -129zM633 1554q-86 -61 -139 -143zM549 1522q-14 -8 -32.5 -25.5t-35 -38t-31 -40t-18.5 -32.5zM287 526 q4 -4 8 -4l90 103l-6 4zM360 645q-35 -29 -62.5 -60.5t-47.5 -68.5zM1241 1638q-4 4 -6 4l-59 -73l4 -4z" />
<glyph unicode="&#xcc;" horiz-adv-x="645" d="M969 1992l-12 -33q-8 -14 -19 -8q-29 14 -48 32.5t-23 51.5l-31 150q-10 45 -17.5 90t-21.5 90q-10 18 12 25q27 14 41 6q4 -2 12 -2q33 -2 39 -37l27 -117q10 -53 19.5 -106.5t19.5 -106.5q4 -8 3 -17.5t-1 -17.5zM1147 1798q-16 2 -28.5 4t-24.5 0q-41 -4 -80 -9 t-78 -11q-4 -2 -10 -6t-8 -9q-16 -33 -27.5 -65.5t-28.5 -65.5q-86 -186 -165 -372.5t-150 -376.5q-57 -147 -112.5 -292.5t-108.5 -293.5q-25 -66 -46.5 -133.5t-43.5 -134.5q-4 -12 -5.5 -24.5t-9.5 -22.5q-6 -4 -18.5 -3t-22.5 -1q-37 -2 -49 10t-2 47q31 141 63.5 279.5 t81.5 277.5q80 223 171.5 440t191.5 434q31 66 62.5 129.5t64.5 129.5q8 16 4 18t-16 -2q-8 -2 -14.5 -2t-10.5 -4q-33 -10 -49 3t-29 36q-12 23 17 28q29 6 57.5 13.5t56.5 11.5q66 8 131.5 16t130.5 15q89 6 105 -64zM354 -31h41t35 -16q14 -14 -6 -25q-25 -10 -39 -10 q-90 -10 -178 -23.5t-180 -37.5q-18 -4 -48 9t-36 30q-2 4 3 11t9 9q10 4 23.5 8t23.5 6l354 45zM479 1026l-8 -12q-41 -104 -82 -206.5t-78 -207.5q-29 -74 -50 -149.5t-44 -151.5q-10 -35 -19.5 -68.5t-19.5 -68.5q-8 -31 -13 -61.5t-11 -61.5q4 6 5 12t5 12 q20 76 37.5 152t44.5 152q41 123 83 244.5t87 244.5q16 43 32.5 85t32.5 83q6 18 14.5 35.5t16.5 36.5h-8q-4 -16 -11.5 -35t-13.5 -35zM203 31q82 279 184 551t211 546q-123 -274 -223 -545t-172 -552zM240 244l34 114l146 418q12 35 25.5 66.5t25.5 64.5q-14 -14 -16 -26 q-35 -86 -69 -172t-64 -174q-25 -76 -46.5 -152t-44.5 -152zM195 106q-4 -14 -6.5 -27t-6.5 -30q2 2 8 2l33 158q-8 -25 -15 -50.5t-13 -52.5z" />
<glyph unicode="&#xcd;" horiz-adv-x="645" d="M731 1909q-8 0 -27 6q-6 2 0 12q4 4 6 6.5t7 6.5l186 153l98 78q70 51 148 76q4 2 9 3t9 -3t-8 -19q-8 -8 -14.5 -14t-14.5 -10q-35 -29 -61 -47q-47 -39 -95.5 -79t-95.5 -77q-18 -16 -38.5 -32.5t-41.5 -32.5q-28 -27 -67 -27zM1147 1798q-16 2 -28.5 4t-24.5 0 q-41 -4 -80 -9t-78 -11q-4 -2 -10 -6t-8 -9q-16 -33 -27.5 -65.5t-28.5 -65.5q-86 -186 -165 -372.5t-150 -376.5q-57 -147 -112.5 -292.5t-108.5 -293.5q-25 -66 -46.5 -133.5t-43.5 -134.5q-4 -12 -5.5 -24.5t-9.5 -22.5q-6 -4 -18.5 -3t-22.5 -1q-37 -2 -49 10t-2 47 q31 141 63.5 279.5t81.5 277.5q80 223 171.5 440t191.5 434q31 66 62.5 129.5t64.5 129.5q8 16 4 18t-16 -2q-8 -2 -14.5 -2t-10.5 -4q-33 -10 -49 3t-29 36q-12 23 17 28q29 6 57.5 13.5t56.5 11.5q66 8 131.5 16t130.5 15q89 6 105 -64zM354 -31h41t35 -16q14 -14 -6 -25 q-25 -10 -39 -10q-90 -10 -178 -23.5t-180 -37.5q-18 -4 -48 9t-36 30q-2 4 3 11t9 9q10 4 23.5 8t23.5 6l354 45zM479 1026l-8 -12q-41 -104 -82 -206.5t-78 -207.5q-29 -74 -50 -149.5t-44 -151.5q-10 -35 -19.5 -68.5t-19.5 -68.5q-8 -31 -13 -61.5t-11 -61.5q4 6 5 12 t5 12q20 76 37.5 152t44.5 152q41 123 83 244.5t87 244.5q16 43 32.5 85t32.5 83q6 18 14.5 35.5t16.5 36.5h-8q-4 -16 -11.5 -35t-13.5 -35zM203 31q82 279 184 551t211 546q-123 -274 -223 -545t-172 -552zM240 244l34 114l146 418q12 35 25.5 66.5t25.5 64.5 q-14 -14 -16 -26q-35 -86 -69 -172t-64 -174q-25 -76 -46.5 -152t-44.5 -152zM195 106q-4 -14 -6.5 -27t-6.5 -30q2 2 8 2l33 158q-8 -25 -15 -50.5t-13 -52.5z" />
<glyph unicode="&#xce;" horiz-adv-x="645" d="M1034 1887q-8 0 -15 2t-17 4q-20 6 -27 30q-4 16 -5 36t1 38q2 70 12 146q2 23 6.5 45t8.5 45q0 4 1 7t-1 7h-4h-5q-2 -4 -6 -8l-8 -8l-127 -162q-12 -14 -23.5 -27.5t-23.5 -25.5q-14 -20 -43 -21q-4 0 -9 1t-9 1q-10 4 -5 10l9 9l118 153q27 33 51.5 62.5t49.5 60.5 q12 14 22.5 28.5t20.5 28.5q20 31 51 27q8 -2 15.5 -2t13.5 -4q20 -4 16 -23l-2 -55q-8 -41 -15 -83t-12 -83q-12 -74 -12 -147q0 -14 1 -28.5t7 -24.5q8 -16 -5.5 -28.5t-29.5 -10.5zM1147 1798q-16 2 -28.5 4t-24.5 0q-41 -4 -80 -9t-78 -11q-4 -2 -10 -6t-8 -9 q-16 -33 -27.5 -65.5t-28.5 -65.5q-86 -186 -165 -372.5t-150 -376.5q-57 -147 -112.5 -292.5t-108.5 -293.5q-25 -66 -46.5 -133.5t-43.5 -134.5q-4 -12 -5.5 -24.5t-9.5 -22.5q-6 -4 -18.5 -3t-22.5 -1q-37 -2 -49 10t-2 47q31 141 63.5 279.5t81.5 277.5 q80 223 171.5 440t191.5 434q31 66 62.5 129.5t64.5 129.5q8 16 4 18t-16 -2q-8 -2 -14.5 -2t-10.5 -4q-33 -10 -49 3t-29 36q-12 23 17 28q29 6 57.5 13.5t56.5 11.5q66 8 131.5 16t130.5 15q89 6 105 -64zM354 -31h41t35 -16q14 -14 -6 -25q-25 -10 -39 -10 q-90 -10 -178 -23.5t-180 -37.5q-18 -4 -48 9t-36 30q-2 4 3 11t9 9q10 4 23.5 8t23.5 6l354 45zM479 1026l-8 -12q-41 -104 -82 -206.5t-78 -207.5q-29 -74 -50 -149.5t-44 -151.5q-10 -35 -19.5 -68.5t-19.5 -68.5q-8 -31 -13 -61.5t-11 -61.5q4 6 5 12t5 12 q20 76 37.5 152t44.5 152q41 123 83 244.5t87 244.5q16 43 32.5 85t32.5 83q6 18 14.5 35.5t16.5 36.5h-8q-4 -16 -11.5 -35t-13.5 -35zM203 31q82 279 184 551t211 546q-123 -274 -223 -545t-172 -552zM240 244l34 114l146 418q12 35 25.5 66.5t25.5 64.5q-14 -14 -16 -26 q-35 -86 -69 -172t-64 -174q-25 -76 -46.5 -152t-44.5 -152zM195 106q-4 -14 -6.5 -27t-6.5 -30q2 2 8 2l33 158q-8 -25 -15 -50.5t-13 -52.5z" />
<glyph unicode="&#xcf;" horiz-adv-x="645" d="M680 2046q6 20 13.5 37.5t21.5 33.5q18 23 42.5 31t45.5 -2q31 -12 51 -27q25 -12 21 -51q-4 -23 -17.5 -44t-34 -36.5t-45 -24t-47.5 -3.5q-67 12 -51 86zM1020 1966q-4 2 -12 2t-17 2q-35 12 -37 43q-2 10 -2 18v19q6 45 52 73q23 10 43 15.5t43 -2.5q10 -4 22 -7.5 t25 -7.5q14 -6 21 -22.5t1 -32.5q-18 -45 -51 -71.5t-88 -28.5zM1045 2003q4 2 9 6t5 8v4q-4 0 -11.5 -5t-7.5 -9q0 -2 3 -2zM764 2005h2v2zM1147 1798q-16 2 -28.5 4t-24.5 0q-41 -4 -80 -9t-78 -11q-4 -2 -10 -6t-8 -9q-16 -33 -27.5 -65.5t-28.5 -65.5 q-86 -186 -165 -372.5t-150 -376.5q-57 -147 -112.5 -292.5t-108.5 -293.5q-25 -66 -46.5 -133.5t-43.5 -134.5q-4 -12 -5.5 -24.5t-9.5 -22.5q-6 -4 -18.5 -3t-22.5 -1q-37 -2 -49 10t-2 47q31 141 63.5 279.5t81.5 277.5q80 223 171.5 440t191.5 434q31 66 62.5 129.5 t64.5 129.5q8 16 4 18t-16 -2q-8 -2 -14.5 -2t-10.5 -4q-33 -10 -49 3t-29 36q-12 23 17 28q29 6 57.5 13.5t56.5 11.5q66 8 131.5 16t130.5 15q89 6 105 -64zM354 -31h41t35 -16q14 -14 -6 -25q-25 -10 -39 -10q-90 -10 -178 -23.5t-180 -37.5q-18 -4 -48 9t-36 30 q-2 4 3 11t9 9q10 4 23.5 8t23.5 6l354 45zM479 1026l-8 -12q-41 -104 -82 -206.5t-78 -207.5q-29 -74 -50 -149.5t-44 -151.5q-10 -35 -19.5 -68.5t-19.5 -68.5q-8 -31 -13 -61.5t-11 -61.5q4 6 5 12t5 12q20 76 37.5 152t44.5 152q41 123 83 244.5t87 244.5q16 43 32.5 85 t32.5 83q6 18 14.5 35.5t16.5 36.5h-8q-4 -16 -11.5 -35t-13.5 -35zM203 31q82 279 184 551t211 546q-123 -274 -223 -545t-172 -552zM240 244l34 114l146 418q12 35 25.5 66.5t25.5 64.5q-14 -14 -16 -26q-35 -86 -69 -172t-64 -174q-25 -76 -46.5 -152t-44.5 -152z M195 106q-4 -14 -6.5 -27t-6.5 -30q2 2 8 2l33 158q-8 -25 -15 -50.5t-13 -52.5z" />
<glyph unicode="&#xd0;" horiz-adv-x="1456" d="M1069 930l-25 12q-25 10 -30 35q-16 57 -56 81.5t-100 24.5q-8 0 -14 -1t-15 1q-29 8 -49 -4t-41 -39q-139 -176 -259 -358t-224 -375q-20 -39 -30.5 -81t-26.5 -83q-12 -37 -24.5 -73.5t-27.5 -73.5q-4 -6 -10 -11l-12 -10l-10 23q-4 -6 -11.5 -12t-19.5 0 q-10 4 -21.5 9t-7.5 23q10 49 20.5 99.5t20.5 99.5q2 4 3 8t3 8l103 431q23 82 43 161.5t43 159.5q4 23 0 26t-27 -3q-59 -16 -119.5 -30.5t-119.5 -31.5q-23 -6 -55.5 8.5t-45.5 30.5q-2 4 2 11.5t8 11.5q12 6 24.5 11t23.5 9q78 20 154.5 38.5t152.5 35.5q16 4 26.5 11 t14.5 26q29 111 58.5 219t60.5 219q23 78 44 152.5t46 150.5q10 29 16 32t35 3q10 0 18 1t10 -13q2 -2 5 0q23 10 29.5 -2.5t13.5 -22.5q14 -16 6 -43q-14 -59 -28.5 -119.5t-31.5 -120.5l-55 -204l-63 -224q-6 -23 -3 -25.5t25 -0.5q45 6 87 10t87 8q23 2 39 19 q143 168 313 299q72 55 147 100t157 80q49 18 95 18t84 -17.5t63.5 -49t31.5 -76.5q12 -70 0 -141q-14 -111 -49 -217.5t-80 -215.5q-45 -106 -93 -210.5t-106 -206.5q-4 -4 -6 -10.5t-6 -14.5q45 18 84 34.5t80 33.5q37 14 72.5 25.5t70.5 21.5q16 4 31.5 1t30.5 -7 q2 0 4 -3.5t0 -5.5q0 -8 -8 -8q-82 -16 -159 -53t-155 -70q-16 -6 -29.5 -14t-29.5 -14q-25 -8 -39 -23.5t-27 -36.5q-98 -158 -215 -302t-252 -275q-76 -76 -155 -135q-137 -100 -277 -54q-33 10 -40 41t14 76q29 59 69.5 113.5t87.5 103.5q246 262 570 420q39 16 65 59 q115 193 202 390.5t159 402.5q27 74 45 148.5t14 146.5l2 6q-4 57 -28.5 68.5t-84.5 -17.5q-154 -72 -279.5 -178t-240.5 -229q-16 -18 -15 -22.5t23 -10.5q35 -10 69 -22.5t65 -28.5t47 -42t26 -57q4 -16 3 -33.5t-1 -33.5q-4 -2 -10 -2zM975 293l-4 8l-99 -59 q-70 -43 -133 -95.5t-123 -111.5q-53 -51 -103 -105.5t-87 -119.5q-16 -25 -23.5 -49.5t-15.5 -51.5q-4 -8 2 -18t12 -15q4 -4 14.5 1.5t18.5 9.5l62 49q98 90 186 188.5t172 202.5q31 41 60.5 83t60.5 83zM362 694h3l270 381q-43 -6 -84 -12t-82 -14q-10 -6 -10 -17z M1333 717q78 154 142.5 307.5t97.5 314.5q-49 -160 -110.5 -314t-129.5 -308zM1516 1264q-35 -86 -67 -173t-65 -173q41 86 76.5 172t55.5 174zM1389 1020q37 78 66.5 156.5t45.5 160.5q-29 -80 -56 -158.5t-56 -158.5z" />
<glyph unicode="&#xd1;" horiz-adv-x="1654" d="M1235 1906q-16 2 -31.5 4.5t-31.5 6.5q-14 2 -27.5 5t-26.5 7q-23 6 -42 15.5t-38 19.5q-16 8 -30.5 15t-26.5 18q-35 20 -80 -7q-4 -2 -7 -4t-7 -2q-6 -6 -14 -8q-16 -4 -17 4q-4 6 1 9t9 8q14 16 41 26q41 16 76 29q49 12 96 0q35 -10 65 -22.5t58 -26.5 q12 -6 24.5 -13.5t28.5 -13.5q6 -4 14.5 -5t18.5 -3q12 -2 26.5 2t26.5 14q6 6 14.5 11.5t14.5 9.5q27 14 43 8q8 -4 9 -5t-3 -9q-14 -25 -34 -37q-16 -10 -35 -19.5t-37 -19.5q-33 -17 -78 -17zM96 8q-4 -10 -11 -17t-17 3q-2 2 -8.5 -3t-8.5 -3q-8 10 -21.5 6t-23.5 -2 q-4 0 -5 9t1 15q10 37 20.5 74t24.5 74q37 113 75 225.5t77 224.5q35 98 70.5 192.5t70.5 192.5q33 86 64.5 172t66.5 172q20 51 43 100.5t45 100.5q12 31 41 19q10 -6 23.5 -7.5t23.5 -7.5q39 -31 21 -86q-47 -147 -94.5 -293.5t-96.5 -294.5q-8 -25 -15 -48t-11 -50l32 43 q125 178 260.5 347t288.5 327q111 115 230.5 215t255.5 186q31 20 63.5 36t67.5 28q59 25 113.5 10.5t84.5 -59.5q29 -43 33 -93.5t-6 -107.5q-16 -80 -42 -160t-60 -157q-55 -131 -114 -261.5t-112 -261.5q-111 -264 -209 -534q-51 -139 -97 -278.5t-93 -280.5 q-10 -29 -18.5 -56.5t-16.5 -56.5l6 -4q12 8 21 20q59 78 117.5 154t111.5 156q100 150 195.5 299t193.5 301q16 29 33.5 36t46.5 -3q6 -6 2 -19q-18 -37 -37.5 -72.5t-40.5 -72.5q-86 -158 -183 -309.5t-202 -301.5q-74 -106 -166 -211q-78 -90 -192 -79q-23 2 -36 12 t-15 33q-6 51 2 94q20 109 50 214t68 212q59 166 120 331.5t126 331.5q47 117 99.5 231.5t101.5 231.5q47 111 93 218.5t91 215.5q41 100 39 189q-2 23 -6 25.5t-27 -5.5q-47 -16 -88 -39.5t-82 -52.5q-147 -104 -278 -222t-252 -253q-147 -164 -278.5 -334t-251.5 -350 q-53 -78 -104.5 -158t-98.5 -159q-29 -47 -49.5 -97.5t-42.5 -99.5q-10 -23 -21.5 -47.5t-23.5 -46.5q-6 -12 -17 -23q-10 -10 -21.5 -12t-19.5 12zM1190 74q8 8 10 14l182 487q66 174 140.5 344.5t150.5 344.5q25 53 46.5 108t43.5 111q-12 -8 -14 -21l-78 -174 q-41 -88 -82 -174t-76 -176q-76 -188 -146.5 -375.5t-141.5 -378.5q-10 -29 -17.5 -55t-17.5 -55zM1665 1430q-4 0 -5 1t-5 1q-92 -205 -184.5 -408t-163.5 -414q43 104 85 206t87 204q47 104 93 206t93 204zM1642 1303q-92 -186 -170.5 -369.5t-144.5 -374.5 q78 186 157.5 372t157.5 372zM516 1122h-8l-199 -542q6 0 8 -2q6 10 12.5 19t10.5 19zM219 436h12l187 533h-10zM422 1094q-76 -174 -137.5 -348.5t-114.5 -352.5zM1061 -375q2 2 8 2l35 166q-12 -41 -27.5 -81t-15.5 -87zM1151 -37l-16 -55q12 20 18 43l27 94zM1004 -326 h-7l-2 -55q2 2 6 2q2 14 2.5 27.5t0.5 25.5z" />
<glyph unicode="&#xd2;" d="M1591 1800l-12 -33q-8 -14 -19 -8q-29 14 -48 32.5t-23 51.5l-31 150q-10 45 -17.5 90t-21.5 90q-10 18 12 25q27 14 41 6q4 -2 12 -2q33 -2 39 -37l27 -117q10 -53 19.5 -106.5t19.5 -106.5q4 -8 3 -17.5t-1 -17.5zM39 193q23 98 61.5 191t87.5 185q31 59 65 113.5 t69 112.5q14 20 16 41q27 156 93.5 298t180.5 273q78 90 166 162.5t193 122.5q92 43 180 54t165 -8.5t138.5 -68.5t97.5 -125q29 -59 46.5 -120.5t9.5 -133.5q-6 -78 -23.5 -157.5t-50.5 -157.5q-49 -113 -104.5 -222.5t-120.5 -217.5q-59 -98 -132 -188.5t-151 -176.5 q-66 -78 -141.5 -145.5t-155.5 -128.5q-66 -49 -133.5 -91.5t-142.5 -66.5q-88 -29 -168 -27t-146 53q-49 41 -74.5 95.5t-35.5 120.5q-6 53 -4 105.5t14 107.5zM367 541q-8 -8 -9 -11q-45 -92 -86 -184t-59 -188q-18 -92 -11 -176t58 -154q29 -41 55.5 -46t79.5 17 q4 2 8.5 4t8.5 4q106 49 200.5 119t180.5 154q162 160 293 334t229 370q61 123 107 243t61 249q10 92 -7.5 173t-64.5 150q-25 35 -60.5 52.5t-84.5 13.5q-53 -4 -107.5 -18.5t-107.5 -42.5q-121 -63 -216.5 -150.5t-175.5 -196.5q-61 -82 -108 -188q14 10 22.5 15.5 t16.5 11.5q33 18 56.5 12t33.5 -35l4 -4q23 -8 25 -16.5t-19 -28.5q-63 -66 -114.5 -139.5t-98.5 -151.5q-8 -16 -8 -24q2 -53 11 -102.5t32 -90.5q35 -53 70.5 -105.5t70.5 -105.5q6 -8 4 -16q-6 -10 -16 -10q-33 -4 -62.5 -1t-52.5 29l-135 187q-8 10 -13 21.5t-11 25.5z M348 618h-10q-59 -115 -112.5 -229.5t-69.5 -236.5q10 27 18 53t19 51q37 84 72.5 166t72.5 164q8 18 10 32zM332 735q-18 -16 -44 -57t-54.5 -94.5t-56 -113.5t-48 -112.5t-32 -92.5t-7.5 -54q41 137 102.5 267t139.5 257zM1497 979l-237 -459q76 111 133 225.5t104 233.5z M735 1409q-96 -90 -158.5 -190.5t-97.5 -217.5q47 111 108.5 212.5t147.5 195.5zM643 1028q-4 0 -5 -1t-3 -1q-45 -41 -82 -87t-70 -97q-4 -4 -4 -11.5t-2 -17.5zM332 672q-66 -102 -114 -207t-81 -215q43 109 91.5 213.5t103.5 208.5zM422 1028l115 227q-41 -53 -68 -110.5 t-47 -116.5zM584 1272q-4 0 -4 1t-2 1q-25 -43 -49.5 -86t-47.5 -86l4 -4zM1411 907q-2 0 -4 1t-4 1l-92 -186q4 0 4 -2zM1386 797q-2 2 -8 2q-16 -33 -33.5 -66t-33.5 -67q2 0 2 -1t2 -1zM492 913l8 -4q8 10 16 21.5t19 21.5l-5 4z" />
<glyph unicode="&#xd3;" d="M1167 1798q-8 0 -27 6q-6 2 0 12q4 4 6 6.5t7 6.5l186 153l98 78q70 51 148 76q4 2 9 3t9 -3t-8 -19q-8 -8 -14.5 -14t-14.5 -10q-35 -29 -61 -47q-47 -39 -95.5 -79t-95.5 -77q-18 -16 -38.5 -32.5t-41.5 -32.5q-28 -27 -67 -27zM39 193q23 98 61.5 191t87.5 185 q31 59 65 113.5t69 112.5q14 20 16 41q27 156 93.5 298t180.5 273q78 90 166 162.5t193 122.5q92 43 180 54t165 -8.5t138.5 -68.5t97.5 -125q29 -59 46.5 -120.5t9.5 -133.5q-6 -78 -23.5 -157.5t-50.5 -157.5q-49 -113 -104.5 -222.5t-120.5 -217.5q-59 -98 -132 -188.5 t-151 -176.5q-66 -78 -141.5 -145.5t-155.5 -128.5q-66 -49 -133.5 -91.5t-142.5 -66.5q-88 -29 -168 -27t-146 53q-49 41 -74.5 95.5t-35.5 120.5q-6 53 -4 105.5t14 107.5zM367 541q-8 -8 -9 -11q-45 -92 -86 -184t-59 -188q-18 -92 -11 -176t58 -154q29 -41 55.5 -46 t79.5 17q4 2 8.5 4t8.5 4q106 49 200.5 119t180.5 154q162 160 293 334t229 370q61 123 107 243t61 249q10 92 -7.5 173t-64.5 150q-25 35 -60.5 52.5t-84.5 13.5q-53 -4 -107.5 -18.5t-107.5 -42.5q-121 -63 -216.5 -150.5t-175.5 -196.5q-61 -82 -108 -188 q14 10 22.5 15.5t16.5 11.5q33 18 56.5 12t33.5 -35l4 -4q23 -8 25 -16.5t-19 -28.5q-63 -66 -114.5 -139.5t-98.5 -151.5q-8 -16 -8 -24q2 -53 11 -102.5t32 -90.5q35 -53 70.5 -105.5t70.5 -105.5q6 -8 4 -16q-6 -10 -16 -10q-33 -4 -62.5 -1t-52.5 29l-135 187 q-8 10 -13 21.5t-11 25.5zM348 618h-10q-59 -115 -112.5 -229.5t-69.5 -236.5q10 27 18 53t19 51q37 84 72.5 166t72.5 164q8 18 10 32zM332 735q-18 -16 -44 -57t-54.5 -94.5t-56 -113.5t-48 -112.5t-32 -92.5t-7.5 -54q41 137 102.5 267t139.5 257zM1497 979l-237 -459 q76 111 133 225.5t104 233.5zM735 1409q-96 -90 -158.5 -190.5t-97.5 -217.5q47 111 108.5 212.5t147.5 195.5zM643 1028q-4 0 -5 -1t-3 -1q-45 -41 -82 -87t-70 -97q-4 -4 -4 -11.5t-2 -17.5zM332 672q-66 -102 -114 -207t-81 -215q43 109 91.5 213.5t103.5 208.5z M422 1028l115 227q-41 -53 -68 -110.5t-47 -116.5zM584 1272q-4 0 -4 1t-2 1q-25 -43 -49.5 -86t-47.5 -86l4 -4zM1411 907q-2 0 -4 1t-4 1l-92 -186q4 0 4 -2zM1386 797q-2 2 -8 2q-16 -33 -33.5 -66t-33.5 -67q2 0 2 -1t2 -1zM492 913l8 -4q8 10 16 21.5t19 21.5l-5 4z " />
<glyph unicode="&#xd4;" d="M1552 1760q-8 0 -15 2t-17 4q-20 6 -27 30q-4 16 -5 36t1 38q2 70 12 146q2 23 6.5 45t8.5 45q0 4 1 7t-1 7h-4h-5q-2 -4 -6 -8l-8 -8l-127 -162q-12 -14 -23.5 -27.5t-23.5 -25.5q-14 -20 -43 -21q-4 0 -9 1t-9 1q-10 4 -5 10l9 9l118 153q27 33 51.5 62.5t49.5 60.5 q12 14 22.5 28.5t20.5 28.5q20 31 51 27q8 -2 15.5 -2t13.5 -4q20 -4 16 -23l-2 -55q-8 -41 -15 -83t-12 -83q-12 -74 -12 -147q0 -14 1 -28.5t7 -24.5q8 -16 -5.5 -28.5t-29.5 -10.5zM39 193q23 98 61.5 191t87.5 185q31 59 65 113.5t69 112.5q14 20 16 41q27 156 93.5 298 t180.5 273q78 90 166 162.5t193 122.5q92 43 180 54t165 -8.5t138.5 -68.5t97.5 -125q29 -59 46.5 -120.5t9.5 -133.5q-6 -78 -23.5 -157.5t-50.5 -157.5q-49 -113 -104.5 -222.5t-120.5 -217.5q-59 -98 -132 -188.5t-151 -176.5q-66 -78 -141.5 -145.5t-155.5 -128.5 q-66 -49 -133.5 -91.5t-142.5 -66.5q-88 -29 -168 -27t-146 53q-49 41 -74.5 95.5t-35.5 120.5q-6 53 -4 105.5t14 107.5zM367 541q-8 -8 -9 -11q-45 -92 -86 -184t-59 -188q-18 -92 -11 -176t58 -154q29 -41 55.5 -46t79.5 17q4 2 8.5 4t8.5 4q106 49 200.5 119t180.5 154 q162 160 293 334t229 370q61 123 107 243t61 249q10 92 -7.5 173t-64.5 150q-25 35 -60.5 52.5t-84.5 13.5q-53 -4 -107.5 -18.5t-107.5 -42.5q-121 -63 -216.5 -150.5t-175.5 -196.5q-61 -82 -108 -188q14 10 22.5 15.5t16.5 11.5q33 18 56.5 12t33.5 -35l4 -4 q23 -8 25 -16.5t-19 -28.5q-63 -66 -114.5 -139.5t-98.5 -151.5q-8 -16 -8 -24q2 -53 11 -102.5t32 -90.5q35 -53 70.5 -105.5t70.5 -105.5q6 -8 4 -16q-6 -10 -16 -10q-33 -4 -62.5 -1t-52.5 29l-135 187q-8 10 -13 21.5t-11 25.5zM348 618h-10q-59 -115 -112.5 -229.5 t-69.5 -236.5q10 27 18 53t19 51q37 84 72.5 166t72.5 164q8 18 10 32zM332 735q-18 -16 -44 -57t-54.5 -94.5t-56 -113.5t-48 -112.5t-32 -92.5t-7.5 -54q41 137 102.5 267t139.5 257zM1497 979l-237 -459q76 111 133 225.5t104 233.5zM735 1409q-96 -90 -158.5 -190.5 t-97.5 -217.5q47 111 108.5 212.5t147.5 195.5zM643 1028q-4 0 -5 -1t-3 -1q-45 -41 -82 -87t-70 -97q-4 -4 -4 -11.5t-2 -17.5zM332 672q-66 -102 -114 -207t-81 -215q43 109 91.5 213.5t103.5 208.5zM422 1028l115 227q-41 -53 -68 -110.5t-47 -116.5zM584 1272q-4 0 -4 1 t-2 1q-25 -43 -49.5 -86t-47.5 -86l4 -4zM1411 907q-2 0 -4 1t-4 1l-92 -186q4 0 4 -2zM1386 797q-2 2 -8 2q-16 -33 -33.5 -66t-33.5 -67q2 0 2 -1t2 -1zM492 913l8 -4q8 10 16 21.5t19 21.5l-5 4z" />
</font>
</defs>
</svg>
