<?xml version="1.0" standalone="no"?>
<!DOCTYPE svg PUBLIC "-//W3C//DTD SVG 1.1//EN" "http://www.w3.org/Graphics/SVG/1.1/DTD/svg11.dtd" >
<svg xmlns="http://www.w3.org/2000/svg" xmlns:xlink="http://www.w3.org/1999/xlink" version="1.1">
<metadata></metadata>
<defs>
<font id="baar_sophiabold" horiz-adv-x="1054" >
<font-face units-per-em="2048" ascent="1638" descent="-410" />
<missing-glyph horiz-adv-x="512" />
<glyph horiz-adv-x="0" />
<glyph unicode="&#xd;" horiz-adv-x="512" />
<glyph unicode=" "  horiz-adv-x="512" />
<glyph unicode="&#x09;" horiz-adv-x="512" />
<glyph unicode="&#xa0;" horiz-adv-x="512" />
<glyph unicode="!" horiz-adv-x="581" d="M193 211l22 25q131 0 217 4l23 -25q0 -66 2 -199l-19 -24q-117 -2 -223 -6l-20 24q4 90 -2 201zM215 1454l18 21q117 2 256 10q-53 -569 -61 -1032l-16 -21q-86 -4 -168 -12l-17 24q8 596 -12 1010z" />
<glyph unicode="&#x22;" horiz-adv-x="700" d="M63 1364v41q86 27 142 27q23 0 76 -7q8 -41 8 -53l-84 -530q-37 -6 -47 -4q-20 14 -60 264q-35 229 -35 262zM322 1401q80 31 120 31q6 0 97 -5q10 -47 10 -100q0 -94 -35 -240q-47 -202 -51 -235q-35 -6 -76 -6q-20 137 -41 274q-25 168 -24 281z" />
<glyph unicode="#" horiz-adv-x="1249" d="M2 426l2 164l272 4l29 194l-256 -6l2 164l279 6l61 414l180 2l-61 -414l164 4l63 414l178 2l-61 -411l250 4l-2 -164l-271 -6l-28 -193l252 6l-4 -164l-273 -6l-67 -442l-179 -2l66 440l-166 -2l-65 -442l-185 -4l72 442zM455 598l168 4l28 193l-166 -4z" />
<glyph unicode="$" horiz-adv-x="899" d="M-23 70q4 10 41 161l35 17q74 -57 158 -86l108 454q-150 94 -198 146q-92 96 -94 221q-2 201 157 293q123 70 310 65l26 138l23 14l135 2q-29 -88 -49 -174q86 -25 176 -72q-20 -92 -33 -157l-39 -11q-68 51 -141 82l-100 -413q160 -94 213 -146q96 -96 98 -233 q4 -188 -141 -299q-126 -97 -300 -97q-27 0 -65 2q-14 -63 -29 -141l-18 -20q-61 2 -133 -2q27 88 49 180q-102 29 -189 76zM236 1006q2 -84 135 -181l90 359q-88 -10 -152 -54q-73 -50 -73 -124zM340 139q254 25 250 211q0 105 -154 197z" />
<glyph unicode="%" horiz-adv-x="1824" d="M88 850q-4 211 66 350q88 180 278 180q289 0 295 -419q4 -213 -61 -349q-88 -176 -281 -176q-291 0 -297 414zM279 842q4 -252 116 -252q104 0 133 160q14 74 11 254q-2 227 -111 227q-156 0 -149 -389zM485 -14q92 221 273 684q176 451 258 686l22 22l174 2 q-264 -655 -528 -1372l-20 -22h-179zM969 393q-2 219 65 355q88 178 285 178q285 0 291 -412q4 -215 -64 -352q-85 -180 -278 -180q-291 0 -299 411zM1161 385q4 -250 115 -250q152 0 145 402q-3 239 -114 239q-152 0 -146 -391z" />
<glyph unicode="&#x26;" horiz-adv-x="1130" d="M-2 307q0 143 96 252q51 55 176 141q-127 178 -129 310q-2 150 107 241q98 86 235 86q125 0 209 -69q94 -76 96 -209q2 -186 -249 -369l198 -264q66 119 111 240l39 8q55 -82 108 -144q-55 -123 -149 -254q47 -61 215 -245l-37 -33h-229l-25 8q-35 57 -72 113 q-180 -143 -352 -144q-162 0 -260 103q-88 92 -88 229zM217 324q2 -80 50 -127t120 -47q86 0 215 102l-229 315q-158 -125 -156 -243zM348 1036q2 -82 94 -211q150 113 150 226q-2 61 -36 98t-87 37q-51 0 -86 -42t-35 -108z" />
<glyph unicode="'" horiz-adv-x="393" d="M-49 956q76 283 115 504l22 17q119 8 246 24q-138 -344 -189 -514l-18 -18q-82 -4 -176 -13z" />
<glyph unicode="(" horiz-adv-x="731" d="M98 485q-6 287 127 549q106 211 322 441q14 10 209 18q-430 -481 -422 -1020q6 -481 377 -889l-174 -12l-23 10q-410 406 -416 903z" />
<glyph unicode=")" horiz-adv-x="751" d="M-82 -430q430 479 422 1022q-8 477 -377 885l174 12l23 -8q416 -414 415 -903l3 -33q0 -422 -332 -821l-66 -82q-41 -47 -80 -68z" />
<glyph unicode="*" horiz-adv-x="821" d="M-53 1217q49 61 92 141l41 8q82 -63 184 -141q-14 141 -31 270q86 2 213 12q-18 -137 -36 -278q94 74 180 147l45 -4q23 -37 67 -117l-10 -36q-113 -59 -225 -119q115 -51 242 -105l-84 -153l-45 -2q-90 78 -174 143q14 -123 28 -248l-20 -26q-80 0 -195 -7 q23 137 45 275q-104 -78 -186 -148h-43q-41 76 -86 146q119 53 268 125q-123 55 -270 117z" />
<glyph unicode="+" horiz-adv-x="1249" d="M51 475l2 178l412 -6l8 461l191 4l-9 -461h416l-2 -178h-416l-8 -483l-190 -4l8 483z" />
<glyph unicode="," horiz-adv-x="425" d="M23 -305q86 313 116 502l17 20q119 4 247 14q-98 -245 -184 -505l-20 -21q-72 0 -176 -10z" />
<glyph unicode="-" horiz-adv-x="837" d="M88 451q2 25 8 186l19 16q51 0 131 -2h121q199 0 360 11q-2 -66 -8 -203h-166q-262 0 -465 -8z" />
<glyph unicode="." horiz-adv-x="491" d="M92 12q6 102 2 203l21 21q127 2 219 6l22 -21q-2 -110 -2 -198l-16 -23q-119 -2 -229 -6z" />
<glyph unicode="/" horiz-adv-x="858" d="M-90 -283q100 215 369 867q119 287 348 870l22 21l203 4q-467 -1094 -713 -1739l-22 -25q-109 2 -207 2z" />
<glyph unicode="0" horiz-adv-x="1144" d="M10 639q-25 768 531 768q248 0 370 -203q100 -164 109 -438q25 -789 -522 -789q-467 0 -488 662zM260 643q14 -487 250 -487q281 0 262 596q-15 481 -242 481q-289 0 -270 -590z" />
<glyph unicode="1" horiz-adv-x="743" d="M59 1184q8 84 11 141l16 23q199 29 403 63l27 -16q-14 -209 -14 -766q0 -412 14 -625q-115 -2 -262 -14q12 760 8 1212q-90 -20 -174 -39z" />
<glyph unicode="2" horiz-adv-x="1079" d="M29 96l4 39q252 293 489 582q70 82 92 125q39 72 39 151q-4 215 -194 215q-164 0 -326 -178l-45 23q2 66 4 194q18 31 66 62q154 100 344 100q176 0 280 -100q113 -104 115 -295q2 -127 -70 -250q-39 -66 -159.5 -210t-294.5 -361q260 6 565 26l16 -26q-4 -72 -6 -162 l-20 -29q-84 2 -293 6q-180 2 -283 2q-90 0 -272 -10l-21 16z" />
<glyph unicode="3" horiz-adv-x="1105" d="M29 84q4 72 10 174l43 21q145 -121 299 -121q133 0 223 69q98 80 96 215q-2 125 -82 191q-74 57 -192 57q-55 0 -156 -35l-61 88q139 156 192 220q106 125 181 227q-104 -2 -512 -21q8 86 8 174l18 23q567 -10 772 -2l47 -96q-68 -94 -172 -217q-84 -100 -170 -201 q160 -35 261 -123q121 -106 122 -276q2 -93 -41 -185q-135 -287 -534 -286q-195 0 -340 86z" />
<glyph unicode="4" horiz-adv-x="1105" d="M-12 344q2 141 4 154q8 29 82 143l86 133q119 182 352 572l23 16q111 2 317 10q-16 -438 -18 -829q80 2 186 10q-9 -72 -19 -193q-55 4 -86 5q-27 0 -86 -3q-2 -145 0 -339l-18 -23q-109 -2 -205 -8l-20 22q6 147 10 344zM248 530l356 7l10 569z" />
<glyph unicode="5" horiz-adv-x="1105" d="M43 66l10 174l39 20q133 -96 275 -96q139 0 235 76q106 86 105 231q-2 139 -91 213q-80 68 -210 68q-63 0 -115 -19q-35 -14 -125 -65l-74 63q18 190 43 596l21 23q207 4 721 18q-4 -59 -11 -172l-18 -22q-104 2 -152 2q-78 0 -344 -9l-18 -237q74 10 133 10 q231 0 367 -137q121 -127 120 -311q0 -203 -147 -349q-164 -161 -447 -161q-168 0 -307 65z" />
<glyph unicode="6" horiz-adv-x="1101" d="M29 580q-6 369 141 579q166 233 502 234q135 0 237 -41q-8 -63 -35 -178h-40q-78 43 -144 43q-188 0 -287 -121q-82 -100 -122 -320q154 119 317 119q195 0 309 -131q102 -121 103 -297q0 -195 -121 -332q-136 -153 -361 -153q-244 0 -376 172q-119 158 -123 426z M285 526q2 -135 45 -229q63 -131 198 -131q109 0 175.5 79t64.5 206q-4 254 -219 254q-164 0 -264 -179z" />
<glyph unicode="7" horiz-adv-x="933" d="M18 1180q2 84 7 161l22 19h21q66 0 191.5 -2t189.5 -2q139 0 354 10l26 -10q41 -94 41 -111l-258 -606q-153 -359 -225 -619l-22 -18q-104 -2 -277 -14q293 625 500 1177q-461 0 -543 -8z" />
<glyph unicode="8" horiz-adv-x="1103" d="M10 379q-2 127 64 219q49 68 157 137q-156 125 -159 291q-2 190 164 291q131 80 307 80q168 0 282 -78q139 -92 142 -275q2 -158 -181 -294q213 -127 218 -328q4 -219 -173 -342q-147 -100 -350 -100q-188 0 -317 90q-152 106 -154 309zM260 395q2 -113 64.5 -175 t164.5 -62q125 0 199 80q66 72 66 174q0 96 -58 161q-63 72 -170 72q-117 0 -188 -61q-80 -68 -78 -189zM301 1008q0 -78 51 -131q55 -59 150 -60q111 0 172 66q57 55 57 139q0 78 -53.5 136.5t-145.5 58.5q-109 0 -174 -66q-57 -59 -57 -143z" />
<glyph unicode="9" horiz-adv-x="1101" d="M12 911q0 195 125 334q137 154 369 154q252 0 377 -178q106 -156 110 -433q6 -350 -139 -565q-164 -241 -483 -241q-135 0 -287 57l-12 18q4 76 8 166l37 23q123 -90 241 -90q315 0 387 454q-143 -115 -323 -114q-195 0 -307 129q-102 115 -103 286zM252 930 q0 -104 53 -174q59 -80 162 -80q188 0 270 178q2 45 2 61q-2 127 -68.5 214.5t-170.5 87.5q-117 0 -187 -93q-61 -80 -61 -194z" />
<glyph unicode=":" horiz-adv-x="503" d="M137 18v218l23 24q117 0 215 4l24 -24q-2 -43 0 -213l-16 -25q-117 -4 -225 -6zM137 782l2 217l19 25h41q68 0 180 4l18 -27q0 -94 4 -213l-20 -22l-223 -6z" />
<glyph unicode=";" horiz-adv-x="503" d="M66 -301q84 338 108 510l19 20q119 6 249 15q-100 -252 -186 -514l-18 -23q-74 0 -172 -8zM188 782q2 55 2 217l19 25h63q45 -2 158 4l23 -27q-4 -119 0 -215l-21 -22l-225 -6z" />
<glyph unicode="&#x3c;" horiz-adv-x="1421" d="M35 584l2 168l1255 643l-2 -187l-1034 -536l1018 -500l-2 -186z" />
<glyph unicode="=" horiz-adv-x="1251" d="M127 311l2 170l907 -4l-2 -168zM131 623l4 168l907 -5l-4 -168z" />
<glyph unicode="&#x3e;" horiz-adv-x="1429" d="M39 -35v189l1036 536l-1018 498v186l1239 -596l-4 -170z" />
<glyph unicode="?" horiz-adv-x="872" d="M57 1139q8 68 21 229l12 16q137 90 299 91q162 0 264 -89q113 -96 117 -270q2 -158 -127 -371q-74 -125 -92 -163q-45 -92 -59 -179l-15 -24q-102 -2 -203 -10q18 152 64 243q59 104 119 209q78 137 75 248q-4 217 -192 217q-66 0 -123 -30.5t-160 -116.5zM244 12 q4 145 2 209l22 27q125 4 219 12l23 -24q-2 -111 -4 -207l-17 -25q-121 -8 -225 -16z" />
<glyph unicode="@" horiz-adv-x="1632" d="M68 487q-6 352 235 588q231 227 555 228q233 0 393 -134q178 -147 183 -401q2 -211 -101 -399q-119 -221 -311 -222q-96 0 -168 105q-92 -94 -219 -94q-133 0 -207 98q-66 88 -66 229q0 184 101 328q111 158 280 158q106 0 189 -82l8 41l29 20l190 -6q-43 -76 -88 -301 q-41 -209 -39 -291q0 -53 17 -53q66 0 127 111q47 82 69 176q23 82 23 164q0 178 -99 286q-111 123 -317 123q-252 0 -438.5 -198.5t-182.5 -481.5q4 -248 172 -389q154 -127 385 -127q281 0 562 256l39 -6l71 -92q-319 -301 -659 -301q-295 0 -500 166q-227 184 -233 501z M563 479q0 -172 105 -172q139 0 200 285q2 16 2 39q0 66 -24 117q-31 63 -84 63q-86 0 -146 -111q-53 -102 -53 -221z" />
<glyph unicode="A" horiz-adv-x="1161" d="M-59 -10q186 528 237 684q127 371 215 663l23 21q156 6 280 14l21 -20q53 -219 176 -656q102 -356 194 -663l-26 -29l-217 -10l-21 22q-33 133 -98 400q-199 -2 -422 -8q-68 -227 -110 -383l-21 -23q-100 -2 -231 -12zM358 580q150 0 322 6l-145 518z" />
<glyph unicode="B" horiz-adv-x="1177" d="M70 -6q4 223 14 653q8 373 8 416q0 96 -8 299q258 10 432 10q449 0 449 -323q0 -184 -211 -312q272 -88 272 -319q0 -176 -123 -289q-115 -105 -299 -125q-102 -10 -256 -10h-278zM317 387q0 -80 2 -213h48q33 -2 45 -2q182 0 262 45q102 57 102 206q0 200 -284 200h-111 q-20 45 -35 161h45q121 0 219 54q121 66 121 178q0 186 -235 186h-56q-63 0 -112 -4q-10 -633 -11 -811z" />
<glyph unicode="C" horiz-adv-x="1167" d="M16 645v29q0 333 176 530q184 205 508 205q143 0 316 -63q6 -78 12 -240l-29 -21l-129 23l-34 104q-86 31 -140 31q-213 0 -327 -174q-103 -152 -103 -388v-26q6 -227 109 -362q109 -143 301 -143q92 0 174 40q70 35 201 136q-15 -168 -19 -238l-12 -18 q-172 -96 -377 -97q-285 0 -451.5 179.5t-175.5 492.5z" />
<glyph unicode="D" horiz-adv-x="1341" d="M70 -8q20 421 20 861q0 147 -2 296q-2 41 -14 192l32 23l60 -2h28q61 0 156 6q127 8 185 8q266 0 405 -94q236 -160 236 -537q-1 -174 -56 -319q-86 -221 -262 -324q-139 -80 -371 -98q-209 -6 -417 -12zM319 174q225 2 332 45q154 61 226 246q51 130 51 295v12 q-4 231 -111 336q-100 98 -311 98q-53 0 -170 -8q-17 -408 -17 -881v-143z" />
<glyph unicode="E" horiz-adv-x="1024" d="M70 -8q24 398 24 754v28q0 78 -4 231.5t-4 231.5q0 57 4 98l19 21q254 0 761 8q-6 -57 -16 -172l-16 -23q-61 0 -240 9q-145 6 -242 6h-16q-6 -174 -10 -379h12q79 -1 197.5 -1t275.5 1q-10 -84 -16 -170l-15 -23q-57 2 -215 9q-135 4 -215 4h-28q-4 -211 -7 -445 q63 0 175 -2q125 -2 174 -2q106 0 188 6q-6 -76 -12 -168l-21 -20q-70 -2 -135 -2q-625 0 -618 0z" />
<glyph unicode="F" horiz-adv-x="903" d="M70 -8q18 287 22 756q2 208 2 361t-2 251q49 1 111 1t137 -1q170 -2 227 -2q135 0 273 6q-10 -88 -17 -176l-18 -21q-70 0 -230 11q-147 8 -229 8q-6 -133 -14 -406q141 0 422 6q0 -8 -19 -168l-18 -22q-45 0 -197 4q-110 4 -188 4q-4 -122 -4 -239q0 -187 10 -359 q-72 -2 -268 -14z" />
<glyph unicode="G" horiz-adv-x="1331" d="M-8 657v20q0 336 198 535q197 197 525 197q203 0 391 -86q-14 -104 -27 -223q-203 131 -362 131q-231 0 -351 -151q-116 -147 -116 -397v-17q4 -233 120.5 -376t313.5 -143q88 0 199 35q5 169 5 271q0 34 -1 61l-133 -2l41 154l28 20q123 -4 144 -4q8 0 170 8 q-17 -255 -17 -548v-62l-14 -17q-217 -90 -430 -90q-295 0 -481 172q-197 186 -203 512z" />
<glyph unicode="H" horiz-adv-x="1333" d="M59 -10q18 401 19 682l2 127q0 428 -4 555q76 2 256 14q-10 -336 -15 -537l316 -2q135 0 246 7v126q0 268 -7 394q119 6 254 14q-21 -494 -21 -870q0 -87 1 -168q2 -154 12 -342q-102 -2 -262 -15q8 227 18 674h-280q-160 0 -279 -4q-3 -160 -3 -295q0 -202 7 -348 q-123 -2 -260 -12z" />
<glyph unicode="I" horiz-adv-x="514" d="M-2 1184l37 157l31 21q100 0 296 8q-22 -442 -22 -819v-33q0 -256 10 -512q-113 -4 -256 -12q19 425 19 890q0 149 -2 302z" />
<glyph unicode="J" horiz-adv-x="628" d="M-51 6q0 12 2 187l10 -3q74 -18 107 -18q102 0 142 85q30 63 30 540q0 167 -4 385l-156 -2l39 157l31 19q119 -2 126 -2q39 0 213 12q-10 -231 -22 -952q-4 -219 -82 -318q-85 -108 -285 -108h-4q-61 0 -147 18z" />
<glyph unicode="K" horiz-adv-x="1138" d="M70 -8q23 536 23 962q0 103 -1 199q-2 100 -14 209q94 0 266 12q-10 -221 -16 -553q90 102 270 326q63 94 162 211q82 2 262 12q-168 -211 -487 -622q221 -322 561 -703l-13 -39q-168 -4 -256 -14l-26 14q-160 209 -477 631q-1 -130 -1 -241q0 -222 5 -371l-19 -21 q-113 -2 -239 -12z" />
<glyph unicode="L" horiz-adv-x="901" d="M74 2q23 627 23 995q0 89 -1 162q-2 100 -14 207q90 2 276 12q-33 -516 -34 -1183q205 6 510 20q-5 -65 -13 -190l-16 -23q-122 2 -304.5 2t-426.5 -2z" />
<glyph unicode="M" horiz-adv-x="1603" d="M2 -14q20 182 57 829q12 168 33 524l31 21q119 2 260 10l18 -20q49 -152 140 -385q117 -307 153 -408q70 170 207 469q123 268 137 309l19 21q78 2 293 14q8 -680 41 -1364q-102 -2 -254 -12v-1v1027q-377 -813 -404 -830q-35 0 -117 -6l-18 21q-23 88 -203 532l-121 299 q-18 -332 -41 -1016l-16 -22q-102 -2 -215 -12z" />
<glyph unicode="N" horiz-adv-x="1345" d="M70 -8q20 432 20 946q0 307 -6 403l31 23h19q65 0 220 10l29 -20q10 -16 545 -1024q0 330 -15 1007l19 21q84 2 211 12q-21 -670 -21 -1118q0 -133 2 -246q-106 -2 -260 -12l-24 20q-184 338 -555 1028q0 -326 16 -1017l-18 -21q-96 -2 -213 -12z" />
<glyph unicode="O" horiz-adv-x="1402" d="M10 651v32q0 316 150 511q170 217 479 217q276 0 432 -190q147 -180 154 -482v-33q0 -319 -148 -513q-166 -218 -477 -218q-276 0 -434 191q-150 180 -156 485zM266 668q6 -223 82 -357q89 -157 260 -157h2q190 0 287 182q78 147 78 369v32q-12 498 -340 498 q-201 0 -295 -170q-74 -135 -74 -362v-35z" />
<glyph unicode="P" horiz-adv-x="1126" d="M100 -10q12 283 15 676q1 134 1 249q0 288 -7 457q76 2 235 10q137 8 213 9q197 0 315 -84q145 -100 150 -314v-8q0 -119 -59 -219q-84 -145 -234 -201q-113 -43 -307 -45l-60 168q150 4 216 23q119 31 170 125q34 63 34 137v12q-4 233 -262 234q-63 0 -158 -11 q-11 -383 -11 -706q0 -258 7 -477l-18 -23q-113 -2 -240 -12z" />
<glyph unicode="Q" horiz-adv-x="1415" d="M16 655v33q0 319 150 512q166 215 477 215q272 0 432 -186q152 -178 158 -477v-34q0 -220 -72 -371q-78 -163 -252 -294q229 -82 422 -127q-51 -92 -96 -176l-31 -14q-203 84 -540 221q-59 23 -82 23h-5q-275 0 -425 217q-129 184 -136 458zM272 664q4 -219 82 -355 q89 -153 260 -153h2q190 0 285 180q78 149 78 377v22q-6 215 -84 348q-92 154 -262 154q-190 0 -285 -178q-76 -143 -76 -363v-32z" />
<glyph unicode="R" horiz-adv-x="1134" d="M84 -8q4 78 20 737q2 71 2 151q0 214 -12 494q72 0 234 8q135 6 209 7q446 0 452 -359v-6q0 -151 -106 -274q-96 -113 -230 -156q156 -229 246 -356q59 -74 197 -242q-99 -4 -281 -14l-24 12q-59 96 -396 584q4 6 -53 127q7 -1 16 -1q46 0 146 25q133 33 176 72 q32 29 52 88q19 54 18 101v9q-2 125 -78 175q-58 38 -183 38h-6q-49 0 -139 -4q-9 -406 -9 -706t9 -496q-106 -2 -260 -14z" />
<glyph unicode="S" horiz-adv-x="1017" d="M8 61q10 84 19 191l41 18q157 -112 297 -112h2q111 0 182 49q82 56 82 161v5q-2 125 -158 202q-143 70 -289 140q-159 108 -159 304q0 201 161 304q133 86 324 86q135 0 317 -59l13 -19q-10 -86 -17 -172l-35 -18q-162 88 -282 88q-100 0 -166 -43q-78 -48 -78 -139 q0 -115 162 -191q147 -72 297 -141q160 -106 164 -293v-5q0 -221 -160 -341q-137 -103 -348 -103q-190 0 -369 88z" />
<glyph unicode="T" horiz-adv-x="931" d="M-55 1171q2 57 6 164l16 23h174q290 0 756 4q-8 -111 -10 -166l-19 -22h-77q-119 0 -250 -3q-13 -405 -13 -772q0 -202 4 -393q-102 -2 -266 -14q26 529 26 1010q0 93 -1 184q-170 -6 -346 -15z" />
<glyph unicode="U" horiz-adv-x="1331" d="M86 1339l33 21q82 0 237 10q-6 -100 -18 -747q-2 -109 -2 -115q0 -162 43 -244q60 -112 216 -112h3q197 0 258 165q33 88 37 320q2 177 2 323q0 244 -6 402q70 2 223 14q-8 -235 -14 -839q-2 -279 -113 -408q-133 -156 -410 -156q-176 0 -299 74q-150 90 -180 272 q-8 47 -8 121q-1 37 -1 84q0 117 4 298t4 298q0 47 -1 84q0 68 -8 135z" />
<glyph unicode="V" horiz-adv-x="1062" d="M-84 1341l39 23h34q72 0 177 6l20 -20q82 -373 273 -1055q111 338 319 1040l19 23q100 2 225 12q-47 -156 -236 -733q-200 -621 -208 -627q-57 -2 -275 -12l-20 20q-109 391 -324 1172q-10 43 -43 151z" />
<glyph unicode="W" horiz-adv-x="1640" d="M-63 1339l26 21q119 4 227 12l19 -26q23 -158 74 -472l98 -542q84 307 237 919l19 23q57 2 221 10l23 -22q8 -129 182 -934l133 583q31 135 84 416l18 25q96 2 244 12q-86 -299 -164 -657q-55 -223 -153 -682l-23 -23q-147 -4 -289 -12l-22 24q-27 190 -72 445 q-74 389 -80 424q-51 -184 -151 -588q-25 -86 -70 -268l-20 -25q-78 -2 -267 -12l-22 26q-47 242 -139 723q-41 205 -60 293q-35 166 -73 307z" />
<glyph unicode="X" horiz-adv-x="1015" d="M-104 -8q154 246 432 721q-168 328 -353 645q178 12 256 26l27 -18q39 -86 217 -442q236 426 250 440q34 -2 97 -2t155 2q-137 -215 -397 -637l374 -713q-88 -6 -256 -20l-24 16q-78 166 -240 494q-139 -244 -258 -479l-22 -21q-104 -2 -258 -12z" />
<glyph unicode="Y" horiz-adv-x="1011" d="M-80 1356q88 2 254 10l25 -12q55 -139 260 -566q182 348 280 560l21 18q61 0 229 8q-149 -270 -428 -794q-4 -163 -4 -301.5t4 -253.5l-18 -21q-35 -2 -240 -16q16 280 16 440q0 83 -4 133q-201 428 -395 795z" />
<glyph unicode="Z" horiz-adv-x="976" d="M-76 111q150 233 432 702l219 373q-49 2 -100 2q-55 0 -172 -8.5t-176 -8.5l-104 3q14 90 24 163l21 23q107 -5 249 -5q71 0 152 1q350 4 408 4l30 -90q-47 -72 -141 -213q-125 -197 -516 -879q92 0 295 13.5t321 13.5q-8 -43 -28 -182l-23 -19q-94 5 -222 5 q-96 0 -212 -3q-217 -3 -342 -3q-62 0 -102 1z" />
<glyph unicode="[" horiz-adv-x="579" d="M109 -430q14 197 20 485q20 1073 14 1407q156 0 424 13q-6 -76 -8 -162q-109 0 -178 -2q-37 -582 -33 -1577q88 2 191 10q-6 -78 -9 -166q-49 0 -421 -8z" />
<glyph unicode="\" horiz-adv-x="856" d="M-57 1481l198 2l27 -19q131 -395 473 -1259q57 -145 180 -453l-30 -22l-166 -2l-23 20q-311 879 -659 1733z" />
<glyph unicode="]" horiz-adv-x="591" d="M-35 -428q8 76 10 162l88 -2q49 0 103 2q27 410 20 1577q-88 -2 -192 -11q8 80 10 166q49 0 422 9q-17 -201 -23 -465q-20 -1083 -12 -1428q-156 0 -426 -10z" />
<glyph unicode="^" horiz-adv-x="1370" d="M156 645l358 727l168 4l322 -712l-211 -5l-203 461l-225 -471z" />
<glyph unicode="_" horiz-adv-x="935" d="M-45 -150h971v-104h-971v104z" />
<glyph unicode="`" horiz-adv-x="880" d="M219 1458l262 -6l21 -14q14 -61 90 -279l-27 -26q-72 2 -137 -5q-14 16 -78 121q-39 68 -131 209z" />
<glyph unicode="a" d="M8 436q-1 16 -1 32q0 262 159 411q154 147 409 147q145 0 207 -33q82 -43 86 -164q1 -5 1 -25q0 -41 -3 -147q-2 -172 -2 -227q0 -356 2 -405l-12 -39q-61 4 -106.5 27.5t-88.5 49.5q-133 -88 -249 -88q-180 0 -291 136q-104 127 -111 325zM242 446q4 -129 57 -206.5 t152 -77.5q94 0 182 80q6 459 6 553q0 16 -18.5 37.5t-47.5 21.5q-14 1 -27 1q-142 -1 -222 -101q-82 -102 -83 -283q1 -12 1 -25z" />
<glyph unicode="b" horiz-adv-x="1042" d="M49 102q24 558 24 924q0 76 -1 143q-2 121 -15 277l230 55l22 -24l-16 -510q135 71 243 71h3q184 0 297 -135q104 -127 106 -328v-15q0 -206 -104 -350q-108 -150 -297 -198q-88 -24 -221 -24h-11q-53 0 -76.5 5t-90 43t-83.5 56q-2 0 -10 10zM281 164q45 -6 77 -6 q164 0 260 110q92 105 91 282v15q-2 127 -65 212t-165 85q-82 0 -188 -69q-10 -432 -10 -629z" />
<glyph unicode="c" horiz-adv-x="845" d="M-2 473q0 225 131 385q147 178 391 178q131 0 244 -45q-8 -94 -12 -164l-37 -18q-86 53 -172 53q-143 0 -232 -123q-80 -109 -80 -262q0 -135 66 -225q70 -100 195 -100q111 0 274 141q-12 -160 -16 -225q-104 -92 -295 -93q-219 0 -344 154q-113 139 -113 344z" />
<glyph unicode="d" horiz-adv-x="1091" d="M2 455v25q0 273 168 421q160 141 426 141q35 0 74 -2q1 43 1 85q0 159 -12 315q98 20 250 59q-22 -466 -22 -930v-77q0 -250 14 -459l-22 -27q-55 2 -104.5 23.5t-96.5 42.5q-141 -90 -262 -90q-188 0 -301 139q-109 131 -113 334zM238 465q2 -129 59 -209 q59 -86 162 -86q104 0 196 82q8 285 9 620q-43 2 -68 2q-174 0 -270 -105q-89 -98 -88 -277v-27z" />
<glyph unicode="e" horiz-adv-x="991" d="M14 457q-1 16 -1 32q0 229 110 381q129 182 360 183q150 0 259.5 -87t158.5 -247q-25 -42 -78 -103q-193 -55 -573 -157q29 -309 278 -309q84 0 153 34.5t181 128.5q-16 -139 -20 -235q-45 -49 -168 -80q-94 -23 -170 -23q-215 0 -346 121q-135 129 -144 361zM250 643 l399 102q-86 150 -174 150q-156 0 -225 -252z" />
<glyph unicode="f" horiz-adv-x="647" d="M0 856q4 53 8 125l29 27h88q14 375 172 497q109 84 211 84q39 0 104 -6q-12 -49 -14 -80q0 -18 -4 -82h-35h-6q-45 0 -93 -25q-52 -28 -77 -73q-33 -60 -33 -260v-45l234 8q-4 -53 -11 -156l-18 -20q-63 0 -205 -4q-2 -174 -2 -325t2 -279q0 -68 10 -232q-45 0 -254 -18 q18 340 21 846q-57 -4 -104 -4z" />
<glyph unicode="g" d="M8 426q-1 16 -1 32q0 268 159 419q153 149 406 149h3q145 0 207 -33q82 -45 86 -168v-362v-42q0 -119 -8 -396q-4 -174 -110 -297q-37 -43 -113 -80q-82 -41 -150 -45h-22q-68 0 -154 10q-127 18 -196 53l10 242q160 -125 315 -125q35 0 62 10q135 49 141 238 q-119 -70 -233 -70q-180 0 -291 135q-104 129 -111 330zM242 438q4 -131 55 -207q54 -81 152 -81h2q98 0 186 79q3 175 3 366q0 96 -1 196q0 18 -18.5 38.5t-47.5 22.5q-13 1 -26 1q-143 0 -223 -101q-82 -104 -82 -288v-26z" />
<glyph unicode="h" horiz-adv-x="1128" d="M76 -8q12 334 20 796q2 143 2 263q0 240 -8 389q100 20 258 59q-18 -246 -24 -569q178 108 311 108h2q295 0 299 -327q1 -38 1 -84q0 -212 -19 -607q-18 -152 -218 -180l11 176q3 58 3 132t-3 163q-4 145 -11 293q-2 252 -143 252q-96 0 -233 -106q-4 -184 -4 -351 q0 -209 6 -393q-78 -2 -250 -14z" />
<glyph unicode="i" horiz-adv-x="530" d="M84 -8q22 361 22 590v20q0 219 -16 406q133 25 223 47l29 -17q-20 -348 -21 -673q0 -183 7 -359q-129 -4 -244 -14zM127 1161q20 100 47 307q74 4 250 15l-102 -271l-25 -24q-45 -6 -170 -27z" />
<glyph unicode="j" horiz-adv-x="501" d="M-59 -285q102 31 139 88q31 47 37 160q12 201 12 506q0 115 -2 244q-4 141 -12 295q111 20 256 51q-29 -365 -29 -830q0 -31 2 -92t2 -92q0 -150 -33 -238q-47 -119 -163 -182q-23 -12 -173 -43q-12 51 -36 133zM129 1161q20 98 47 305q72 4 250 15l-104 -271l-23 -22 q-45 -8 -170 -27z" />
<glyph unicode="k" horiz-adv-x="944" d="M66 -10q22 558 22 889v28q0 276 -12 518l16 21q59 12 232 51q-12 -313 -21 -799q90 102 293 338l260 13q-225 -268 -364 -441q240 -369 423 -518l-8 -41q-72 -16 -213 -61l-30 14q-170 223 -363 500q0 -270 2 -492q-74 -6 -237 -20z" />
<glyph unicode="l" horiz-adv-x="466" d="M72 1444q111 23 247 55q-6 -143 -10 -721q-1 -117 -1 -225q0 -270 7 -483l2 -64q-88 -4 -239 -12q12 492 12 762q0 379 -18 688z" />
<glyph unicode="m" horiz-adv-x="1677" d="M45 -10q17 253 17 537q0 111 -3 227q0 121 -12 229l37 18q47 -2 89 -20t83 -35q156 98 334 98q139 0 231 -120q170 112 343 112h3q139 0 214 -84t77 -227q-2 -90 -2 -220q0 -195 4 -478l-18 -21q-80 -2 -228 -12q31 365 31 514q0 92 -12 92q-4 250 -154 250 q-113 0 -209 -76q4 -75 4 -198q0 -82 -2 -184q-1 -79 -1 -146q0 -151 6 -240q-72 -2 -248 -14q17 342 17 551q0 42 -1 78q-2 239 -132 239h-1q-96 0 -221 -94q-4 -220 -3 -395q0 -219 5 -367q-104 -2 -248 -14z" />
<glyph unicode="n" horiz-adv-x="1120" d="M68 -6q14 382 14 573v45q-4 158 -14 367q33 20 49 20q39 0 162 -49q147 88 350 88q283 0 286 -315q1 -34 1 -82q0 -71 -2 -172q-3 -168 -3 -254q2 -90 9 -203q-128 -6 -222 -14l-20 22q0 86 8 314q4 190 4 309q-2 94 -37 152q-38 65 -106 65h-2q-115 0 -232 -94 q-4 -192 -4 -359q0 -209 6 -380l-18 -19q-113 -4 -229 -14z" />
<glyph unicode="o" horiz-adv-x="1038" d="M6 461v32q0 240 115 381q131 160 377 160q209 0 325 -133q111 -127 117 -350q1 -17 1 -33q0 -240 -110 -383q-124 -162 -368 -162q-213 0 -331 129t-126 359zM242 446q4 -137 57 -221q59 -94 166 -94q243 0 243 357q0 17 -1 34q-13 352 -226 352q-240 0 -239 -382 q-1 -22 0 -46z" />
<glyph unicode="p" horiz-adv-x="1062" d="M55 -420q23 462 23 859q0 110 -2 214q-2 182 -15 344l25 25q117 -14 186 -59q145 90 297 90q174 0 287 -146q104 -135 105 -325q0 -233 -156 -392q-180 -182 -508 -182q-1 -51 -1 -100q0 -146 5 -277l-20 -18zM297 168q20 -2 37 -2q176 0 282 108q105 107 105 299v7 q-2 127 -55 206q-60 88 -158 88q-90 0 -201 -77q-10 -246 -10 -629z" />
<glyph unicode="q" horiz-adv-x="1064" d="M-2 457q0 139 51 252q88 193 273 262q131 49 362 49h96h103l22 -19q-12 -236 -16 -602l72 43q-11 -81 -11 -157q-20 -29 -63 -80q3 -127 3 -342q0 -108 -1 -238l-17 -20l-225 -33q10 248 12 473q-143 -80 -256 -80q-197 0 -309 156q-96 135 -96 336zM233 451 q0 -125 54 -205q61 -90 178 -90q94 0 194 75l5 617q-115 -2 -172 -14q-93 -21 -154 -80q-104 -100 -105 -303z" />
<glyph unicode="r" horiz-adv-x="667" d="M80 -8q14 490 14 717v53q-2 35 -14 225q72 18 242 57l-5 -149q66 86 150 141q94 61 178 62q16 0 64 -11q-16 -65 -47 -206q-102 -18 -111 -21q-57 -12 -102 -47q-86 -63 -117 -211q-18 -96 -19 -272q0 -152 6 -326q-82 -2 -239 -12z" />
<glyph unicode="s" horiz-adv-x="827" d="M-14 -16q6 45 34 178q55 -14 111 -29q68 -16 113 -16q92 0 166 39q84 46 84 123q0 79 -119 122q-195 72 -217 84q-117 72 -121 222v9q0 175 156 261q119 67 287 67h5q104 0 197 -34l12 -19q-4 -49 -16 -188q-127 69 -220 69h-3q-70 0 -121 -26q-60 -32 -60 -86 q0 -81 129 -121q184 -57 236 -90q102 -72 106 -221v-8q0 -136 -127 -254q-147 -137 -442 -138q-78 0 -178 33z" />
<glyph unicode="t" horiz-adv-x="655" d="M-6 852l2 39l20 113l123 24l4 227l238 56q-14 -113 -16 -285q59 0 215 6q-8 -84 -11 -176h-202q-5 -351 -5 -534v-56q0 -76 48.5 -108.5t171.5 -44.5l-9 -111q-78 -20 -137 -20q-299 0 -299 247v623h-143z" />
<glyph unicode="u" horiz-adv-x="1087" d="M66 997l18 19q94 6 219 20l21 -20v-21q0 -70 -11 -176q-12 -135 -12 -188q-4 -182 -4 -262q2 -94 39 -155.5t106 -61.5q96 0 224 104q2 37 8 170q4 109 4 172q0 186 -8 399l18 19q25 2 230 20q-15 -383 -15 -665q0 -203 8 -355l-22 -30q-57 8 -105 32q-2 2 -88 58 q-170 -102 -338 -103q-283 0 -286 314q1 67 1 154q0 217 -7 556z" />
<glyph unicode="v" horiz-adv-x="851" d="M-53 1012q129 10 237 24l25 -16q27 -117 188 -746q76 238 213 730l21 16h46q73 0 169 4q-168 -471 -328 -995l-18 -19q-37 -2 -252 -24l-19 22q-160 621 -282 1004z" />
<glyph unicode="w" horiz-adv-x="1456" d="M-59 1014q154 8 231 14l18 -20q45 -285 162 -758q61 248 168 731l21 20q49 0 121 5q94 6 120 6l19 -21q29 -147 86 -385q72 -297 90 -379q53 139 96 404q34 217 34 342q0 19 -1 37q76 2 252 20q-21 -178 -84 -495q-51 -266 -168 -517l-19 -18h1l-261 -10l-22 22 q-23 133 -74 357q-59 258 -78 352l-69 -307q-35 -127 -99 -391l-20 -19q-42 1 -84 1q-83 0 -162 -3l-18 23q-49 221 -260 989z" />
<glyph unicode="x" horiz-adv-x="858" d="M-63 -10q221 317 354 528q-84 156 -275 494q158 12 254 24l19 -14q86 -197 137 -299q100 172 152 281l20 18q113 2 236 8q-135 -201 -316 -491q184 -317 311 -523q-29 -1 -258 -24l-20 18q-61 137 -162 330q-59 -104 -176 -320l-23 -14q-45 0 -253 -16z" />
<glyph unicode="y" horiz-adv-x="864" d="M-43 1012q160 16 244 28l22 -20q66 -252 197 -692q74 223 209 682l22 18q88 2 217 8q-172 -440 -346 -942q-55 -147 -155 -456l-25 -23q-117 -4 -246 -12q100 168 148 262q10 16 55 131q-29 98 -145 450q-59 178 -197 566z" />
<glyph unicode="z" horiz-adv-x="849" d="M12 117q14 39 76 123q88 123 88 122q68 104 289 502q-127 -4 -395 -16l-19 24l17 127l18 25q164 -4 458 -4h210l20 -47q-154 -276 -463 -813q59 0 228 12q114 9 199 9q28 0 53 -1l-29 -166l-25 -20q-102 6 -239 6h-250q-113 2 -199 6l-29 17z" />
<glyph unicode="{" horiz-adv-x="655" d="M78 483v86q94 31 123 148q14 66 14 205q0 16 -2 71q-2 49 -2 80q0 229 74 316q51 61 145 79q31 6 170 17v-88q-117 -37 -154 -105q-31 -55 -36 -237q0 -129 -2 -256q-4 -102 -41 -164q-31 -51 -107 -105q78 -57 107 -110q31 -59 32 -170q2 -49 -1 -151.5t-3 -153.5 q2 -119 31 -172q39 -70 147 -101v-88q-207 6 -274 49q-96 61 -100 258q0 53 3 160t1 160q-2 117 -15 160q-27 84 -110 112z" />
<glyph unicode="|" horiz-adv-x="425" d="M109 1503l180 -4v-1950l-178 5z" />
<glyph unicode="}" horiz-adv-x="667" d="M4 -334q117 37 154 105q29 55 35 237q2 129 4 256q4 104 41 164q31 51 106 104q-78 59 -106 111q-33 59 -33 170q-2 51 1 152.5t3 152.5q-2 119 -31 172q-39 70 -147 101v88q207 -6 274 -49q96 -61 98 -259q2 -53 -1 -159.5t-3 -159.5q2 -117 17 -160q25 -84 110 -112 l-2 -86q-92 -31 -121 -148q-16 -66 -14 -205q0 -14 2 -71q2 -49 2 -80q0 -229 -74 -316q-51 -59 -145 -80q-31 -6 -170 -16v88z" />
<glyph unicode="~" horiz-adv-x="1366" d="M162 545q115 164 260 164q82 0 209 -59.5t176 -59.5q61 0 182 141l76 -149q-135 -156 -268 -156q-80 0 -199 59.5t-178 59.5q-45 0 -103 -60q-2 0 -75 -90z" />
<glyph unicode="&#xa1;" horiz-adv-x="512" d="M20 -6q53 567 62 1075q12 0 201 16q-8 -627 12 -1058l-19 -21q-117 -2 -256 -12zM51 1266q4 115 4 198l17 23l225 16l20 -22q-4 -99 -2 -203l-22 -25q-119 -4 -217 -12z" />
<glyph unicode="&#xa2;" horiz-adv-x="894" d="M41 489q0 231 127 388q141 176 375 163l24 127l17 21q63 -2 141 4q-23 -92 -45 -170q68 -20 127 -51l-27 -164l-41 -19q-43 43 -98 70l-180 -713q16 -2 31 -2q80 0 143 29t166 113q-16 -127 -21 -222l-12 -16q-145 -76 -283 -76q-25 0 -61 4q-16 -74 -31 -145l-20 -16 h-140q31 100 60 194q-123 66 -189 201q-63 127 -63 280zM262 504q2 -147 80 -295l162 668q-246 -80 -242 -373z" />
<glyph unicode="&#xa3;" horiz-adv-x="897" d="M-43 580l6 137l14 22l111 -2q-2 119 -2 162q10 444 444 444q141 0 277 -53l14 -20q-10 -80 -14 -146l-35 -16q-129 66 -235 66q-131 0 -185 -91q-35 -63 -39 -198q-2 -41 0 -144q172 4 408 17q-10 -76 -14 -140l-19 -22q-139 0 -375 -4q-8 -211 -69 -428q178 0 544 20 l21 -22q-6 -74 -6 -142l-21 -18q-256 -2 -802 -18q92 279 108 604z" />
<glyph unicode="&#xa4;" horiz-adv-x="1249" d="M2 203l139 147q-86 150 -88 277q-2 158 99 319l-136 141l127 138l140 -146q141 96 295 97q129 0 262 -86l141 151l127 -133l-139 -145q86 -150 88 -267q2 -166 -101 -331l138 -146l-131 -137l-140 149q-141 -94 -286 -94q-133 0 -269 86l-141 -153zM236 639 q2 -147 91 -242.5t222 -95.5q137 0 232.5 110.5t92.5 270.5q-2 145 -92 236.5t-219 91.5q-137 0 -234.5 -107.5t-92.5 -263.5z" />
<glyph unicode="&#xa5;" horiz-adv-x="1011" d="M-68 1300q88 6 252 21l23 -16q106 -236 254 -549q174 326 270 547l25 18q94 0 223 12q-178 -324 -303 -557q70 0 147 6q-8 -70 -12 -135l-16 -20q-94 2 -197 0q-18 -35 -35 -70q0 -27 -4 -78q76 0 260 10q-8 -74 -12 -137l-19 -18q-102 0 -229 -2q0 -205 4 -314l-18 -20 q-90 0 -236 -10q6 90 10 338q-72 -2 -253 -7q8 55 14 132l18 22l226 2l-2 62q-12 33 -39 84q-59 -2 -213 -7q8 61 14 131l18 21h109q-147 297 -279 534z" />
<glyph unicode="&#xa7;" horiz-adv-x="933" d="M-2 596q-4 168 182 305q-100 109 -100 207q-4 170 131 258q106 72 262 72q131 0 283 -58l10 -18q-8 -82 -12 -148l-33 -18q-129 74 -242 74q-82 0 -134 -37t-52 -90q0 -68 78 -121q45 -33 198 -107q133 -63 193 -116q86 -82 88 -201q2 -166 -178 -307q119 -117 121 -230 q2 -176 -142 -268q-117 -72 -280 -72q-160 0 -324 84q6 88 6 168l39 19q141 -109 273 -109q90 0 147 42t57 102q0 72 -80 129q-47 35 -202 108q-139 63 -199 121q-88 84 -90 211zM195 641q2 -68 63 -117q23 -16 123 -69l154 -82q115 86 112 178q-2 76 -135 158 q-76 39 -205 106q-115 -80 -112 -174z" />
<glyph unicode="&#xa8;" horiz-adv-x="550" d="M-72 1212q10 63 27 224q76 2 268 12l-94 -191l-25 -22q-47 -6 -176 -23zM289 1212q10 63 28 224q76 2 269 12l-94 -191l-27 -22q-45 -6 -176 -23z" />
<glyph unicode="&#xa9;" horiz-adv-x="1736" d="M92 666q-4 295 207 501.5t522 206.5q303 0 510 -200q201 -197 207 -484q4 -295 -206 -499.5t-521 -204.5q-301 0 -507 198.5t-212 481.5zM211 668q4 -240 178 -409t428 -169q258 0 432 176t170 422q-6 244 -172 410q-172 172 -426 172q-260 0 -437 -178.5t-173 -423.5z M336 674q-4 203 137 343t356 140q225 0 406 -194l-154 -150q-76 78 -125 107q-57 35 -131 34q-115 0 -189.5 -81.5t-72.5 -194.5t78 -188.5t193 -75.5q121 0 249 143l166 -135q-186 -211 -426 -211q-209 0 -346 132t-141 331z" />
<glyph unicode="&#xaa;" horiz-adv-x="628" d="M-33 909q-2 125 123 193q78 41 242 72q-10 94 -76 94q-74 0 -186 -56l-33 23q4 51 6 96q86 61 250 62q205 0 209 -213q-6 -143 2 -463q-90 -2 -166 -8l-19 24q-74 -37 -143 -37q-92 0 -149.5 58.5t-59.5 154.5zM141 924q2 -100 76 -101q51 0 107 43l4 189 q-189 -35 -187 -131z" />
<glyph unicode="&#xab;" horiz-adv-x="815" d="M8 506l2 18q113 199 187 369l22 16q68 0 184 2l-200 -383q55 -117 198 -381q-127 -4 -198 -6l-19 17q-53 119 -176 348zM344 522l2 17q57 117 174 360l23 16q49 0 196 3q-98 -166 -200 -375q59 -117 198 -387l-190 -4l-19 16q-68 143 -184 354z" />
<glyph unicode="&#xac;" horiz-adv-x="1245" d="M-45 461l2 162l1247 26l-10 -647l-180 -4l6 485z" />
<glyph unicode="&#xad;" horiz-adv-x="837" d="M88 451q2 25 8 186l19 16q51 0 131 -2h121q199 0 360 11q-2 -66 -8 -203h-166q-262 0 -465 -8z" />
<glyph unicode="&#xae;" horiz-adv-x="1736" d="M92 664q-4 293 205 501.5t520 208.5q305 0 510 -198.5t211 -485.5q4 -291 -208 -497.5t-519 -206.5q-301 0 -507 198.5t-212 479.5zM211 668q4 -238 178 -408t424 -170q258 0 433 176t171 420q-6 244 -172 412q-172 172 -426 172q-260 0 -436 -178.5t-172 -423.5z M485 229v899q348 6 369 7q328 0 332 -240q2 -123 -139 -207q68 -66 83 -166q20 -123 21 -127q16 -74 53 -149l-243 -8q-33 51 -48 122q-10 63 -20 127q-27 121 -115 121h-59l-2 -375zM719 788q111 0 143 7q90 16 90 86q-2 75 -100 75q-37 0 -131 -2z" />
<glyph unicode="&#xaf;" horiz-adv-x="550" d="M-90 1221q12 86 16 125l19 18q362 0 583 16q-12 -80 -16 -131l-20 -14q-186 -4 -582 -14z" />
<glyph unicode="&#xb0;" horiz-adv-x="665" d="M-51 1147q-2 131 92 231.5t225 100.5q125 0 214 -83t91 -214q2 -133 -91 -233.5t-226 -100.5q-125 0 -214 84t-91 215zM133 1163q2 -66 38 -106.5t89 -40.5q47 0 87 46t40 105q-2 61 -37 102.5t-86 41.5q-49 0 -90 -45t-41 -103z" />
<glyph unicode="&#xb1;" horiz-adv-x="1251" d="M-4 4l2 166l1098 4l-4 -168zM6 723l4 168l459 -2l8 465l178 4l-4 -467l453 8l-2 -166l-455 -8l-6 -467l-180 -4l6 467z" />
<glyph unicode="&#xb4;" horiz-adv-x="1099" d="M395 1128q76 176 119 306l21 16q127 0 278 10q-127 -149 -223 -315l-25 -15q-59 0 -170 -2z" />
<glyph unicode="&#xb5;" horiz-adv-x="1089" d="M70 -438q25 401 24 1073q0 213 -6 358q102 4 244 19q-2 -53 -13 -318q-6 -182 -4 -295q4 -260 179 -260q199 0 204 234q8 244 7 383q0 70 -9 231l19 23q115 4 227 12q-24 -578 -8 -1024q-111 -6 -234 -12l-8 45q-104 -66 -200 -66q-80 0 -177 70q0 -338 2 -443l-18 -20z " />
<glyph unicode="&#xb6;" horiz-adv-x="1247" d="M104 963q-4 221 152 321q119 76 348 90q180 0 363 2v-121h-64l-22 -1581l-142 -2l23 1579l-227 -4l-23 -1581l-139 -2l12 942q-123 33 -201 126t-80 231z" />
<glyph unicode="&#xb7;" horiz-adv-x="428" d="M63 416q6 104 5 213l20 20q76 4 221 17l23 -21q-6 -102 -6 -188l-17 -21q-84 -6 -246 -20z" />
<glyph unicode="&#xb8;" horiz-adv-x="540" d="M125 -375q72 119 141 266l23 17l168 2q-35 -111 -80 -256l-17 -21q-90 0 -235 -8z" />
<glyph unicode="&#xba;" horiz-adv-x="704" d="M-29 1020q-2 166 86 268.5t252 102.5q285 0 289 -320q4 -168 -74 -268q-86 -109 -252 -109q-147 0 -225 90q-74 84 -76 236zM150 1022q2 -209 131 -209q145 0 141 250q-4 209 -131 209q-145 0 -141 -250z" />
<glyph unicode="&#xbb;" horiz-adv-x="817" d="M4 139q98 164 201 375q-6 14 -199 387q123 2 191 6l20 -20q80 -168 182 -352v-19q-59 -106 -176 -358l-24 -17q-55 2 -195 -2zM338 145q72 133 201 383q-45 98 -197 383q131 0 197 4l20 -16q41 -90 82 -182q49 -102 96 -174q-110 -201 -190 -379l-21 -17q-68 0 -188 -2z " />
<glyph unicode="&#xbf;" horiz-adv-x="782" d="M-4 354q-2 154 123 365q137 231 153 348l17 25q86 0 203 8q-20 -150 -64 -240q-59 -106 -121 -215q-76 -137 -74 -252q2 -211 199 -211q61 0 121 35q53 29 156 115q-7 -50 -21 -232l-12 -16q-131 -90 -301 -90q-162 0 -264 90q-113 96 -115 270zM258 1264q0 41 2 198 l16 23l224 14l20 -20q0 -53 -2 -203l-20 -25q-117 -6 -217 -14z" />
<glyph unicode="&#xc0;" horiz-adv-x="1161" d="M-59 -10q186 528 237 684q127 371 215 663l23 21q156 6 280 14l21 -20q53 -219 176 -656q102 -356 194 -663l-26 -29l-217 -10l-21 22q-33 133 -98 400q-199 -2 -422 -8q-68 -227 -110 -383l-21 -23q-100 -2 -231 -12zM293 1741l262 -6l21 -14q14 -61 90 -279l-27 -26 q-72 2 -137 -5q-14 16 -78 121q-39 68 -131 209zM358 580q150 0 322 6l-145 518z" />
<glyph unicode="&#xc1;" horiz-adv-x="1161" d="M-59 -10q186 528 237 684q127 371 215 663l23 21q156 6 280 14l21 -20q53 -219 176 -656q102 -356 194 -663l-26 -29l-217 -10l-21 22q-33 133 -98 400q-199 -2 -422 -8q-68 -227 -110 -383l-21 -23q-100 -2 -231 -12zM358 580q150 0 322 6l-145 518zM446 1427 q76 176 119 306l21 16q127 0 278 10q-127 -149 -223 -315l-25 -15q-59 0 -170 -2z" />
<glyph unicode="&#xc2;" horiz-adv-x="1161" d="M-59 -10q186 528 237 684q127 371 215 663l23 21q156 6 280 14l21 -20q53 -219 176 -656q102 -356 194 -663l-26 -29l-217 -10l-21 22q-33 133 -98 400q-199 -2 -422 -8q-68 -227 -110 -383l-21 -23q-100 -2 -231 -12zM256 1398q68 104 176 302l20 20q76 2 240 8l20 -16 q45 -86 132 -258l-13 -37h-86q-31 0 -92 -4l-20 16q-18 41 -68 144q-37 -49 -100 -150l-21 -20q-94 2 -188 -5zM358 580q150 0 322 6l-145 518z" />
<glyph unicode="&#xc3;" horiz-adv-x="1161" d="M-59 -10q186 528 237 684q127 371 215 663l23 21q156 6 280 14l21 -20q53 -219 176 -656q102 -356 194 -663l-26 -29l-217 -10l-21 22q-33 133 -98 400q-199 -2 -422 -8q-68 -227 -110 -383l-21 -23q-100 -2 -231 -12zM256 1433q8 80 8 133q16 39 73.5 66.5t100.5 27.5 q53 0 143.5 -36.5t126.5 -36.5q59 0 129 88l48 -13q-7 -59 -11 -141q-96 -88 -174 -88q-53 0 -138 36t-126 36q-61 0 -137 -90zM358 580q150 0 322 6l-145 518z" />
<glyph unicode="&#xc4;" horiz-adv-x="1161" d="M-59 -10q186 528 237 684q127 371 215 663l23 21q156 6 280 14l21 -20q53 -219 176 -656q102 -356 194 -663l-26 -29l-217 -10l-21 22q-33 133 -98 400q-199 -2 -422 -8q-68 -227 -110 -383l-21 -23q-100 -2 -231 -12zM282 1464q10 63 27 224q76 2 268 12l-94 -191 l-25 -22q-47 -6 -176 -23zM358 580q150 0 322 6l-145 518zM643 1464q10 63 28 224q76 2 269 12l-94 -191l-27 -22q-45 -6 -176 -23z" />
<glyph unicode="&#xc5;" horiz-adv-x="1161" d="M-59 -10q186 528 237 684q127 371 215 663l23 21q156 6 280 14l21 -20q53 -219 176 -656q102 -356 194 -663l-26 -29l-217 -10l-21 22q-33 133 -98 400q-199 -2 -422 -8q-68 -227 -110 -383l-21 -23q-100 -2 -231 -12zM326 1577q0 72 57 121q66 57 176 57q96 0 156 -53 q53 -47 53 -115q0 -70 -57 -118q-65 -54 -178 -54q-96 0 -151.5 48.5t-55.5 113.5zM358 580q150 0 322 6l-145 518zM488 1583q0 -63 61 -63q59 0 60 61q-1 68 -58 68q-63 0 -63 -66z" />
<glyph unicode="&#xc6;" horiz-adv-x="1601" d="M-109 -14q61 160 275 688q164 408 252 669l22 23h267q186 -2 256 -2q317 0 485 8q-4 -51 -14 -174l-15 -22q-82 0 -232.5 7t-223.5 7q-39 0 -80 -2q-2 -29 -11 -387q37 2 74 2q494 0 447 -2q-4 -51 -13 -174l-16 -23q-72 2 -248 10q-158 6 -248 7q-2 -276 -2 -428 q180 -4 574 6q-4 -61 -15 -172l-16 -25q-109 -2 -188 -2q-629 0 -596 0l-17 25q6 125 15 376q-172 -2 -334 -6q-45 -121 -131 -375l-19 -22q-121 -6 -248 -12zM354 573q137 0 273 7q8 338 12 610l-55 -2z" />
<glyph unicode="&#xc7;" horiz-adv-x="1167" d="M16 639q-8 358 176.5 564t507.5 206q143 0 316 -63q6 -78 12 -242l-29 -21l-129 23l-34 104q-86 31 -140 31q-213 0 -327 -174q-109 -160 -103 -416q6 -227 109 -364q109 -145 301 -146q92 0 174 43q70 33 201 135q-15 -169 -19 -239l-12 -19q-145 -82 -315 -94 q-20 -74 -56 -211l-16 -24q-90 0 -236 -8q66 127 117 251q-229 41 -360 215.5t-138 448.5z" />
<glyph unicode="&#xc8;" horiz-adv-x="1024" d="M70 -8q25 414 24 782q0 78 -4 231.5t-4 231.5q0 57 4 98l19 21q254 0 761 8q-6 -57 -16 -172l-16 -23q-61 0 -240 9q-145 6 -242 6h-16q-6 -174 -10 -379h12q158 -2 473 0q-10 -84 -16 -170l-15 -23q-57 2 -215 9q-135 4 -215 4h-28q-4 -211 -7 -445q63 0 175 -2 q125 -2 174 -2q106 0 188 6q-6 -76 -12 -168l-21 -20q-70 -2 -135 -2q-625 0 -618 0zM205 1747l262 -6l21 -14q14 -61 90 -279l-27 -26q-72 2 -137 -5q-14 16 -78 121q-39 68 -131 209z" />
<glyph unicode="&#xc9;" horiz-adv-x="1024" d="M70 -8q25 414 24 782q0 78 -4 231.5t-4 231.5q0 57 4 98l19 21q254 0 761 8q-6 -57 -16 -172l-16 -23q-61 0 -240 9q-145 6 -242 6h-16q-6 -174 -10 -379h12q158 -2 473 0q-10 -84 -16 -170l-15 -23q-57 2 -215 9q-135 4 -215 4h-28q-4 -211 -7 -445q63 0 175 -2 q125 -2 174 -2q106 0 188 6q-6 -76 -12 -168l-21 -20q-70 -2 -135 -2q-625 0 -618 0zM381 1411q76 176 119 306l21 16q127 0 278 10q-127 -149 -223 -315l-25 -15q-59 0 -170 -2z" />
<glyph unicode="&#xca;" horiz-adv-x="1024" d="M70 -8q25 414 24 782q0 78 -4 231.5t-4 231.5q0 57 4 98l19 21q254 0 761 8q-6 -57 -16 -172l-16 -23q-61 0 -240 9q-145 6 -242 6h-16q-6 -174 -10 -379h12q158 -2 473 0q-10 -84 -16 -170l-15 -23q-57 2 -215 9q-135 4 -215 4h-28q-4 -211 -7 -445q63 0 175 -2 q125 -2 174 -2q106 0 188 6q-6 -76 -12 -168l-21 -20q-70 -2 -135 -2q-625 0 -618 0zM191 1417q68 104 176 302l20 20q76 2 240 8l20 -16q45 -86 132 -258l-13 -37h-86q-31 0 -92 -4l-20 16q-18 41 -68 144q-37 -49 -100 -150l-21 -20q-94 2 -188 -5z" />
<glyph unicode="&#xcb;" horiz-adv-x="1024" d="M70 -8q25 414 24 782q0 78 -4 231.5t-4 231.5q0 57 4 98l19 21q254 0 761 8q-6 -57 -16 -172l-16 -23q-61 0 -240 9q-145 6 -242 6h-16q-6 -174 -10 -379h12q158 -2 473 0q-10 -84 -16 -170l-15 -23q-57 2 -215 9q-135 4 -215 4h-28q-4 -211 -7 -445q63 0 175 -2 q125 -2 174 -2q106 0 188 6q-6 -76 -12 -168l-21 -20q-70 -2 -135 -2q-625 0 -618 0zM221 1466q10 63 27 224q76 2 268 12l-94 -191l-25 -22q-47 -6 -176 -23zM582 1466q10 63 28 224q76 2 269 12l-94 -191l-27 -22q-45 -6 -176 -23z" />
<glyph unicode="&#xcc;" horiz-adv-x="514" d="M-12 1757l262 -6l21 -14q14 -61 90 -279l-27 -26q-72 2 -137 -5q-14 16 -78 121q-39 68 -131 209zM-2 1184l37 157l31 21q100 0 296 8q-23 -461 -22 -852q0 -256 10 -512q-113 -4 -256 -12q25 561 17 1192z" />
<glyph unicode="&#xcd;" horiz-adv-x="514" d="M-2 1184l37 157l31 21q100 0 296 8q-23 -461 -22 -852q0 -256 10 -512q-113 -4 -256 -12q25 561 17 1192zM102 1443q76 176 119 306l21 16q127 0 278 10q-127 -149 -223 -315l-25 -15q-59 0 -170 -2z" />
<glyph unicode="&#xce;" horiz-adv-x="514" d="M-82 1415q68 104 176 302l20 20q76 2 240 8l20 -16q45 -86 132 -258l-13 -37h-86q-31 0 -92 -4l-20 16q-18 41 -68 144q-37 -49 -100 -150l-21 -20q-94 2 -188 -5zM-2 1184l37 157l31 21q100 0 296 8q-23 -461 -22 -852q0 -256 10 -512q-113 -4 -256 -12q25 561 17 1192z " />
<glyph unicode="&#xcf;" horiz-adv-x="514" d="M-70 1472q10 63 27 224q76 2 268 12l-94 -191l-25 -22q-47 -6 -176 -23zM-2 1184l37 157l31 21q100 0 296 8q-23 -461 -22 -852q0 -256 10 -512q-113 -4 -256 -12q25 561 17 1192zM291 1472q10 63 28 224q76 2 269 12l-94 -191l-27 -22q-45 -6 -176 -23z" />
<glyph unicode="&#xd1;" horiz-adv-x="1345" d="M70 -8q20 432 20 946q0 307 -6 403l31 23q59 -2 239 10l29 -20q10 -16 545 -1024q0 330 -15 1007l19 21q84 2 211 12q-27 -868 -19 -1364q-106 -2 -260 -12l-24 20q-184 338 -555 1028q0 -326 16 -1017l-18 -21q-96 -2 -213 -12zM158 1561q115 164 260 164 q82 0 209 -59.5t176 -59.5q61 0 182 141l76 -149q-135 -156 -268 -156q-80 0 -199 59.5t-178 59.5q-45 0 -103 -60q-2 0 -75 -90z" />
<glyph unicode="&#xd2;" horiz-adv-x="1402" d="M10 651q-8 338 150 543q170 217 479 217q276 0 432 -190q147 -180 154 -482q8 -342 -148 -546q-166 -218 -477 -218q-276 0 -434 191q-150 180 -156 485zM266 668q6 -223 82 -357q90 -158 262 -157q190 0 287 182q84 158 78 401q-12 498 -340 498q-201 0 -295 -170 q-80 -145 -74 -397zM373 1794l262 -6l21 -14q14 -61 90 -279l-27 -26q-72 2 -137 -5q-14 16 -78 121q-39 68 -131 209z" />
<glyph unicode="&#xd3;" horiz-adv-x="1402" d="M10 651q-8 338 150 543q170 217 479 217q276 0 432 -190q147 -180 154 -482q8 -342 -148 -546q-166 -218 -477 -218q-276 0 -434 191q-150 180 -156 485zM266 668q6 -223 82 -357q90 -158 262 -157q190 0 287 182q84 158 78 401q-12 498 -340 498q-201 0 -295 -170 q-80 -145 -74 -397zM528 1458q76 176 119 306l21 16q127 0 278 10q-127 -149 -223 -315l-25 -15q-59 0 -170 -2z" />
<glyph unicode="&#xd4;" horiz-adv-x="1402" d="M10 651q-8 338 150 543q170 217 479 217q276 0 432 -190q147 -180 154 -482q8 -342 -148 -546q-166 -218 -477 -218q-276 0 -434 191q-150 180 -156 485zM266 668q6 -223 82 -357q90 -158 262 -157q190 0 287 182q84 158 78 401q-12 498 -340 498q-201 0 -295 -170 q-80 -145 -74 -397zM334 1458q68 104 176 302l20 20q76 2 240 8l20 -16q45 -86 132 -258l-13 -37h-86q-31 0 -92 -4l-20 16q-18 41 -68 144q-37 -49 -100 -150l-21 -20q-94 2 -188 -5z" />
<glyph unicode="&#xd5;" horiz-adv-x="1402" d="M10 651q-8 338 150 543q170 217 479 217q276 0 432 -190q147 -180 154 -482q8 -342 -148 -546q-166 -218 -477 -218q-276 0 -434 191q-150 180 -156 485zM266 668q6 -223 82 -357q90 -158 262 -157q190 0 287 182q84 158 78 401q-12 498 -340 498q-201 0 -295 -170 q-80 -145 -74 -397zM318 1476q8 80 8 133q16 39 73.5 66.5t100.5 27.5q53 0 143.5 -36.5t126.5 -36.5q59 0 129 88l48 -13q-7 -59 -11 -141q-96 -88 -174 -88q-53 0 -138 36t-126 36q-61 0 -137 -90z" />
<glyph unicode="&#xd6;" horiz-adv-x="1402" d="M10 651q-8 338 150 543q170 217 479 217q276 0 432 -190q147 -180 154 -482q8 -342 -148 -546q-166 -218 -477 -218q-276 0 -434 191q-150 180 -156 485zM266 668q6 -223 82 -357q90 -158 262 -157q190 0 287 182q84 158 78 401q-12 498 -340 498q-201 0 -295 -170 q-80 -145 -74 -397zM362 1466q10 63 27 224q76 2 268 12l-94 -191l-25 -22q-47 -6 -176 -23zM723 1466q10 63 28 224q76 2 269 12l-94 -191l-27 -22q-45 -6 -176 -23z" />
<glyph unicode="&#xd8;" horiz-adv-x="1402" d="M-63 59q72 59 167 164q-88 184 -92 383q-6 346 150 559q168 233 483 234q246 0 416 -160q78 82 137 152h35l74 -78v-29l-164 -162q88 -195 88 -430q0 -303 -146 -499q-168 -227 -483 -228q-244 0 -405 144q-80 -84 -131 -148h-37q-29 33 -92 98zM262 625q2 -96 23 -209 l624 663q-110 152 -266 152q-197 0 -299 -193q-86 -164 -82 -413zM344 270q109 -135 260 -135q201 0 301 195q82 164 78 424q-2 68 -18 174z" />
<glyph unicode="&#xd9;" horiz-adv-x="1331" d="M86 1339l33 21q82 0 237 10q-6 -100 -18 -747q-2 -109 -2 -115q0 -162 43 -244q61 -113 219 -112q197 0 258 165q33 88 37 320q6 471 -4 725q70 2 223 14q-8 -235 -14 -839q-2 -279 -113 -408q-133 -156 -410 -156q-176 0 -299 74q-150 90 -180 272q-8 47 -8 121 q-2 129 3 382t3 382q0 68 -8 135zM366 1700l262 -6l21 -14q14 -61 90 -279l-27 -26q-72 2 -137 -5q-14 16 -78 121q-39 68 -131 209z" />
<glyph unicode="&#xda;" horiz-adv-x="1331" d="M86 1339l33 21q82 0 237 10q-6 -100 -18 -747q-2 -109 -2 -115q0 -162 43 -244q61 -113 219 -112q197 0 258 165q33 88 37 320q6 471 -4 725q70 2 223 14q-8 -235 -14 -839q-2 -279 -113 -408q-133 -156 -410 -156q-176 0 -299 74q-150 90 -180 272q-8 47 -8 121 q-2 129 3 382t3 382q0 68 -8 135zM479 1398q76 176 119 306l21 16q127 0 278 10q-127 -149 -223 -315l-25 -15q-59 0 -170 -2z" />
<glyph unicode="&#xdb;" horiz-adv-x="1331" d="M86 1339l33 21q82 0 237 10q-6 -100 -18 -747q-2 -109 -2 -115q0 -162 43 -244q61 -113 219 -112q197 0 258 165q33 88 37 320q6 471 -4 725q70 2 223 14q-8 -235 -14 -839q-2 -279 -113 -408q-133 -156 -410 -156q-176 0 -299 74q-150 90 -180 272q-8 47 -8 121 q-2 129 3 382t3 382q0 68 -8 135zM320 1421q68 104 176 302l20 20q76 2 240 8l20 -16q45 -86 132 -258l-13 -37h-86q-31 0 -92 -4l-20 16q-18 41 -68 144q-37 -49 -100 -150l-21 -20q-94 2 -188 -5z" />
<glyph unicode="&#xdc;" horiz-adv-x="1331" d="M86 1339l33 21q82 0 237 10q-6 -100 -18 -747q-2 -109 -2 -115q0 -162 43 -244q61 -113 219 -112q197 0 258 165q33 88 37 320q6 471 -4 725q70 2 223 14q-8 -235 -14 -839q-2 -279 -113 -408q-133 -156 -410 -156q-176 0 -299 74q-150 90 -180 272q-8 47 -8 121 q-2 129 3 382t3 382q0 68 -8 135zM344 1466q10 63 27 224q76 2 268 12l-94 -191l-25 -22q-47 -6 -176 -23zM705 1466q10 63 28 224q76 2 269 12l-94 -191l-27 -22q-45 -6 -176 -23z" />
<glyph unicode="&#xdf;" horiz-adv-x="1093" d="M45 -18q14 225 27 1038q2 180 28 260q41 123 164 195q100 61 242 61q145 0 242 -72q113 -82 114 -237q2 -141 -114 -279q-31 -33 -62 -67q-45 -51 -43 -74q0 -41 82 -113q121 -104 154 -145q82 -102 84 -213q2 -168 -115 -264q-102 -86 -256 -86q-80 0 -186 32l-11 19 l2 145l31 19q90 -47 152 -47q68 0 115.5 37.5t45.5 105.5q0 76 -84 164q-76 74 -153 145q-82 84 -82 142q-2 37 55 108q84 104 107 139q55 94 55 189q-2 86 -41 138t-106 52q-113 0 -160 -94q-31 -61 -39 -186q0 -6 -4 -156q-16 -590 0 -942q-131 -4 -244 -14z" />
<glyph unicode="&#xe0;" d="M8 436q-10 285 158 443q154 147 409 147q145 0 207 -33q82 -43 86 -164q2 -14 -2 -172q-2 -172 -2 -227q0 -356 2 -405l-12 -39q-61 4 -106.5 27.5t-88.5 49.5q-133 -88 -249 -88q-180 0 -291 136q-104 127 -111 325zM219 1458l262 -6l21 -14q14 -61 90 -279l-27 -26 q-72 2 -137 -5q-14 16 -78 121q-39 68 -131 209zM242 446q4 -129 57 -206.5t152 -77.5q94 0 182 80q6 459 6 553q0 16 -18.5 37.5t-47.5 21.5q-162 10 -249.5 -99.5t-81.5 -308.5z" />
<glyph unicode="&#xe1;" d="M8 436q-10 285 158 443q154 147 409 147q145 0 207 -33q82 -43 86 -164q2 -14 -2 -172q-2 -172 -2 -227q0 -356 2 -405l-12 -39q-61 4 -106.5 27.5t-88.5 49.5q-133 -88 -249 -88q-180 0 -291 136q-104 127 -111 325zM242 446q4 -129 57 -206.5t152 -77.5q94 0 182 80 q6 459 6 553q0 16 -18.5 37.5t-47.5 21.5q-162 10 -249.5 -99.5t-81.5 -308.5zM395 1128q76 176 119 306l21 16q127 0 278 10q-127 -149 -223 -315l-25 -15q-59 0 -170 -2z" />
<glyph unicode="&#xe2;" d="M8 436q-10 285 158 443q154 147 409 147q145 0 207 -33q82 -43 86 -164q2 -14 -2 -172q-2 -172 -2 -227q0 -356 2 -405l-12 -39q-61 4 -106.5 27.5t-88.5 49.5q-133 -88 -249 -88q-180 0 -291 136q-104 127 -111 325zM193 1128q68 104 176 302l20 20q76 2 240 8l20 -16 q45 -86 132 -258l-13 -37h-86q-31 0 -92 -4l-20 16q-18 41 -68 144q-37 -49 -100 -150l-21 -20q-94 2 -188 -5zM242 446q4 -129 57 -206.5t152 -77.5q94 0 182 80q6 459 6 553q0 16 -18.5 37.5t-47.5 21.5q-162 10 -249.5 -99.5t-81.5 -308.5z" />
<glyph unicode="&#xe3;" d="M8 436q-10 285 158 443q154 147 409 147q145 0 207 -33q82 -43 86 -164q2 -14 -2 -172q-2 -172 -2 -227q0 -356 2 -405l-12 -39q-61 4 -106.5 27.5t-88.5 49.5q-133 -88 -249 -88q-180 0 -291 136q-104 127 -111 325zM197 1157q8 80 8 133q16 39 73.5 66.5t100.5 27.5 q53 0 143.5 -36.5t126.5 -36.5q59 0 129 88l48 -13q-7 -59 -11 -141q-96 -88 -174 -88q-53 0 -138 36t-126 36q-61 0 -137 -90zM242 446q4 -129 57 -206.5t152 -77.5q94 0 182 80q6 459 6 553q0 16 -18.5 37.5t-47.5 21.5q-162 10 -249.5 -99.5t-81.5 -308.5z" />
<glyph unicode="&#xe4;" d="M8 436q-10 285 158 443q154 147 409 147q145 0 207 -33q82 -43 86 -164q2 -14 -2 -172q-2 -172 -2 -227q0 -356 2 -405l-12 -39q-61 4 -106.5 27.5t-88.5 49.5q-133 -88 -249 -88q-180 0 -291 136q-104 127 -111 325zM209 1212q10 63 27 224q76 2 268 12l-94 -191 l-25 -22q-47 -6 -176 -23zM242 446q4 -129 57 -206.5t152 -77.5q94 0 182 80q6 459 6 553q0 16 -18.5 37.5t-47.5 21.5q-162 10 -249.5 -99.5t-81.5 -308.5zM570 1212q10 63 28 224q76 2 269 12l-94 -191l-27 -22q-45 -6 -176 -23z" />
<glyph unicode="&#xe5;" d="M8 436q-10 285 158 443q154 147 409 147q145 0 207 -33q82 -43 86 -164q2 -14 -2 -172q-2 -172 -2 -227q0 -356 2 -405l-12 -39q-61 4 -106.5 27.5t-88.5 49.5q-133 -88 -249 -88q-180 0 -291 136q-104 127 -111 325zM242 446q4 -129 57 -206.5t152 -77.5q94 0 182 80 q6 459 6 553q0 16 -18.5 37.5t-47.5 21.5q-162 10 -249.5 -99.5t-81.5 -308.5zM297 1296q0 72 57 121q66 57 176 57q96 0 156 -53q53 -47 53 -115q0 -70 -57 -118q-65 -54 -178 -54q-96 0 -151.5 48.5t-55.5 113.5zM459 1302q0 -63 61 -63q59 0 60 61q-1 68 -58 68 q-63 0 -63 -66z" />
<glyph unicode="&#xe6;" horiz-adv-x="1599" d="M-23 270q-4 209 205 293q131 55 391 64q0 111 -18 153q-33 72 -135 72q-119 0 -301 -90l-39 20q10 76 12 152l19 18q211 74 358 74q158 0 262 -119q152 131 328 131q199 0 307 -141q98 -129 86 -317l-84 -58q-338 -45 -567 -61q20 -311 264 -311q139 0 305 124l45 -18 q-12 -96 -18 -174l-13 -19q-156 -94 -346 -94q-209 0 -350 131q-162 -143 -354 -143q-139 0 -240 76q-115 86 -117 237zM217 285q4 -141 156 -142q113 0 227 115q-21 80 -27 195q-358 -4 -356 -168zM803 633q231 20 407 41q-14 104 -49 149q-41 51 -129 51q-150 0 -229 -241 z" />
<glyph unicode="&#xe7;" horiz-adv-x="845" d="M-4 465q0 227 133 391q147 180 391 180q131 0 244 -45q-8 -96 -12 -166l-37 -20q-86 57 -172 57q-143 0 -232 -125q-80 -113 -80 -266q0 -135 66 -227q70 -100 195 -101q111 0 274 142q-12 -162 -16 -228q-78 -68 -224 -86q-23 -78 -57 -219l-18 -24q-90 0 -236 -9 q68 127 123 261q-166 39 -256 182q-86 129 -86 303z" />
<glyph unicode="&#xe8;" horiz-adv-x="991" d="M14 457q-8 250 109 413q129 182 360 183q150 0 259.5 -87t158.5 -247q-25 -42 -78 -103q-193 -55 -573 -157q29 -309 278 -309q84 0 153 34.5t181 128.5q-16 -139 -20 -235q-45 -49 -168 -80q-94 -23 -170 -23q-215 0 -346 121q-135 129 -144 361zM219 1458l262 -6 l21 -14q14 -61 90 -279l-27 -26q-72 2 -137 -5q-14 16 -78 121q-39 68 -131 209zM250 643l399 102q-86 150 -174 150q-156 0 -225 -252z" />
<glyph unicode="&#xe9;" horiz-adv-x="991" d="M14 457q-8 250 109 413q129 182 360 183q150 0 259.5 -87t158.5 -247q-25 -42 -78 -103q-193 -55 -573 -157q29 -309 278 -309q84 0 153 34.5t181 128.5q-16 -139 -20 -235q-45 -49 -168 -80q-94 -23 -170 -23q-215 0 -346 121q-135 129 -144 361zM250 643l399 102 q-86 150 -174 150q-156 0 -225 -252zM395 1128q76 176 119 306l21 16q127 0 278 10q-127 -149 -223 -315l-25 -15q-59 0 -170 -2z" />
<glyph unicode="&#xea;" horiz-adv-x="991" d="M14 457q-8 250 109 413q129 182 360 183q150 0 259.5 -87t158.5 -247q-25 -42 -78 -103q-193 -55 -573 -157q29 -309 278 -309q84 0 153 34.5t181 128.5q-16 -139 -20 -235q-45 -49 -168 -80q-94 -23 -170 -23q-215 0 -346 121q-135 129 -144 361zM162 1128 q68 104 176 302l20 20q76 2 240 8l20 -16q45 -86 132 -258l-13 -37h-86q-31 0 -92 -4l-20 16q-18 41 -68 144q-37 -49 -100 -150l-21 -20q-94 2 -188 -5zM250 643l399 102q-86 150 -174 150q-156 0 -225 -252z" />
<glyph unicode="&#xeb;" horiz-adv-x="991" d="M14 457q-8 250 109 413q129 182 360 183q150 0 259.5 -87t158.5 -247q-25 -42 -78 -103q-193 -55 -573 -157q29 -309 278 -309q84 0 153 34.5t181 128.5q-16 -139 -20 -235q-45 -49 -168 -80q-94 -23 -170 -23q-215 0 -346 121q-135 129 -144 361zM204 1212q10 63 27 224 q76 2 268 12l-94 -191l-25 -22q-47 -6 -176 -23zM250 643l399 102q-86 150 -174 150q-156 0 -225 -252zM565 1212q10 63 28 224q76 2 269 12l-94 -191l-27 -22q-45 -6 -176 -23z" />
<glyph unicode="&#xec;" horiz-adv-x="466" d="M-35 1458l262 -6l21 -14q14 -61 90 -279l-27 -26q-72 2 -137 -5q-14 16 -78 121q-39 68 -131 209zM82 -10q27 362 20 766q-2 100 -12 223q109 23 229 51l31 -18q-32 -549 -14 -1006q-137 -6 -254 -16z" />
<glyph unicode="&#xed;" horiz-adv-x="466" d="M82 -10q27 362 20 766q-2 100 -12 223q109 23 229 51l31 -18q-32 -549 -14 -1006q-137 -6 -254 -16zM94 1128q76 176 119 306l21 16q127 0 278 10q-127 -149 -223 -315l-25 -15q-59 0 -170 -2z" />
<glyph unicode="&#xee;" horiz-adv-x="466" d="M-74 1128q68 104 176 302l20 20q76 2 240 8l20 -16q45 -86 132 -258l-13 -37h-86q-31 0 -92 -4l-20 16q-18 41 -68 144q-37 -49 -100 -150l-21 -20q-94 2 -188 -5zM82 -10q27 362 20 766q-2 100 -12 223q109 23 229 51l31 -18q-32 -549 -14 -1006q-137 -6 -254 -16z" />
<glyph unicode="&#xef;" horiz-adv-x="466" d="M-47 1212q10 63 27 224q76 2 268 12l-94 -191l-25 -22q-47 -6 -176 -23zM82 -10q27 362 20 766q-2 100 -12 223q109 23 229 51l31 -18q-32 -549 -14 -1006q-137 -6 -254 -16zM314 1212q10 63 28 224q76 2 269 12l-94 -191l-27 -22q-45 -6 -176 -23z" />
<glyph unicode="&#xf1;" horiz-adv-x="1091" d="M68 -6q16 430 14 618q-4 158 -14 367q33 20 49 20q39 0 162 -49q147 88 350 88q283 0 286 -315q2 -86 -1 -254t-3 -254q2 -90 9 -203q-128 -6 -222 -14l-20 22q0 86 8 314q4 190 4 309q-2 94 -37 152q-39 66 -108 65q-115 0 -232 -94q-8 -432 2 -739l-18 -19 q-113 -4 -229 -14zM180 1157q8 80 8 133q16 39 73.5 66.5t100.5 27.5q53 0 143.5 -36.5t126.5 -36.5q59 0 129 88l48 -13q-7 -59 -11 -141q-96 -88 -174 -88q-53 0 -138 36t-126 36q-61 0 -137 -90z" />
<glyph unicode="&#xf2;" horiz-adv-x="1038" d="M6 461q-8 262 115 413q131 160 377 160q209 0 325 -133q111 -127 117 -350q8 -264 -109 -416q-124 -162 -368 -162q-213 0 -331 129t-126 359zM219 1458l262 -6l21 -14q14 -61 90 -279l-27 -26q-72 2 -137 -5q-14 16 -78 121q-39 68 -131 209zM242 446q4 -137 57 -221 q59 -94 166 -94q254 0 242 391q-13 352 -226 352q-254 0 -239 -428z" />
<glyph unicode="&#xf3;" horiz-adv-x="1038" d="M6 461q-8 262 115 413q131 160 377 160q209 0 325 -133q111 -127 117 -350q8 -264 -109 -416q-124 -162 -368 -162q-213 0 -331 129t-126 359zM242 446q4 -137 57 -221q59 -94 166 -94q254 0 242 391q-13 352 -226 352q-254 0 -239 -428zM395 1128q76 176 119 306l21 16 q127 0 278 10q-127 -149 -223 -315l-25 -15q-59 0 -170 -2z" />
<glyph unicode="&#xf4;" horiz-adv-x="1038" d="M6 461q-8 262 115 413q131 160 377 160q209 0 325 -133q111 -127 117 -350q8 -264 -109 -416q-124 -162 -368 -162q-213 0 -331 129t-126 359zM162 1128q68 104 176 302l20 20q76 2 240 8l20 -16q45 -86 132 -258l-13 -37h-86q-31 0 -92 -4l-20 16q-18 41 -68 144 q-37 -49 -100 -150l-21 -20q-94 2 -188 -5zM242 446q4 -137 57 -221q59 -94 166 -94q254 0 242 391q-13 352 -226 352q-254 0 -239 -428z" />
<glyph unicode="&#xf5;" horiz-adv-x="1038" d="M6 461q-8 262 115 413q131 160 377 160q209 0 325 -133q111 -127 117 -350q8 -264 -109 -416q-124 -162 -368 -162q-213 0 -331 129t-126 359zM191 1157q8 80 8 133q16 39 73.5 66.5t100.5 27.5q53 0 143.5 -36.5t126.5 -36.5q59 0 129 88l48 -13q-7 -59 -11 -141 q-96 -88 -174 -88q-53 0 -138 36t-126 36q-61 0 -137 -90zM242 446q4 -137 57 -221q59 -94 166 -94q254 0 242 391q-13 352 -226 352q-254 0 -239 -428z" />
<glyph unicode="&#xf6;" horiz-adv-x="1038" d="M6 461q-8 262 115 413q131 160 377 160q209 0 325 -133q111 -127 117 -350q8 -264 -109 -416q-124 -162 -368 -162q-213 0 -331 129t-126 359zM209 1212q10 63 27 224q76 2 268 12l-94 -191l-25 -22q-47 -6 -176 -23zM242 446q4 -137 57 -221q59 -94 166 -94 q254 0 242 391q-13 352 -226 352q-254 0 -239 -428zM570 1212q10 63 28 224q76 2 269 12l-94 -191l-27 -22q-45 -6 -176 -23z" />
<glyph unicode="&#xf7;" horiz-adv-x="1249" d="M-57 465l4 164l1249 2l-4 -164zM442 264q0 47 34 84t91 37q55 0 88 -35q27 -29 27 -74q0 -49 -31 -81q-35 -39 -92 -39q-55 0 -88 34q-29 29 -29 74zM461 821q0 47 32.5 83t92.5 36q55 0 84.5 -31.5t29.5 -77.5q0 -47 -33 -82.5t-92 -35.5q-55 0 -84.5 31.5t-29.5 76.5z " />
<glyph unicode="&#xf8;" horiz-adv-x="1089" d="M-78 68l156 141q-45 137 -47 276q-4 250 128 399.5t365 149.5q172 0 310 -110q55 53 108 110h37q37 -43 68 -82l-7 -30q-45 -37 -129 -109q49 -127 52 -274q6 -262 -115 -410q-125 -158 -371 -158q-188 0 -321 127q-61 -59 -113 -118h-41zM264 383l420 399 q-78 101 -166 101q-274 0 -254 -500zM301 236q68 -115 186 -115q246 0 246 385q0 59 -6 135z" />
<glyph unicode="&#xf9;" horiz-adv-x="1087" d="M66 997l18 19q94 6 219 20l21 -20q2 -74 -11 -197q-12 -135 -12 -188q-4 -182 -4 -262q2 -94 39 -155.5t106 -61.5q96 0 224 104q2 37 8 170q4 109 4 172q0 186 -8 399l18 19q25 2 230 20q-25 -658 -7 -1020l-22 -30q-57 8 -105 32q-2 2 -88 58q-170 -102 -338 -103 q-283 0 -286 314q4 236 -6 710zM239 1458l262 -6l21 -14q14 -61 90 -279l-27 -26q-72 2 -137 -5q-14 16 -78 121q-39 68 -131 209z" />
<glyph unicode="&#xfa;" horiz-adv-x="1087" d="M66 997l18 19q94 6 219 20l21 -20q2 -74 -11 -197q-12 -135 -12 -188q-4 -182 -4 -262q2 -94 39 -155.5t106 -61.5q96 0 224 104q2 37 8 170q4 109 4 172q0 186 -8 399l18 19q25 2 230 20q-25 -658 -7 -1020l-22 -30q-57 8 -105 32q-2 2 -88 58q-170 -102 -338 -103 q-283 0 -286 314q4 236 -6 710zM395 1128q76 176 119 306l21 16q127 0 278 10q-127 -149 -223 -315l-25 -15q-59 0 -170 -2z" />
<glyph unicode="&#xfb;" horiz-adv-x="1087" d="M66 997l18 19q94 6 219 20l21 -20q2 -74 -11 -197q-12 -135 -12 -188q-4 -182 -4 -262q2 -94 39 -155.5t106 -61.5q96 0 224 104q2 37 8 170q4 109 4 172q0 186 -8 399l18 19q25 2 230 20q-25 -658 -7 -1020l-22 -30q-57 8 -105 32q-2 2 -88 58q-170 -102 -338 -103 q-283 0 -286 314q4 236 -6 710zM193 1128q68 104 176 302l20 20q76 2 240 8l20 -16q45 -86 132 -258l-13 -37h-86q-31 0 -92 -4l-20 16q-18 41 -68 144q-37 -49 -100 -150l-21 -20q-94 2 -188 -5z" />
<glyph unicode="&#xfc;" horiz-adv-x="1087" d="M66 997l18 19q94 6 219 20l21 -20q2 -74 -11 -197q-12 -135 -12 -188q-4 -182 -4 -262q2 -94 39 -155.5t106 -61.5q96 0 224 104q2 37 8 170q4 109 4 172q0 186 -8 399l18 19q25 2 230 20q-25 -658 -7 -1020l-22 -30q-57 8 -105 32q-2 2 -88 58q-170 -102 -338 -103 q-283 0 -286 314q4 236 -6 710zM219 1212q10 63 27 224q76 2 268 12l-94 -191l-25 -22q-47 -6 -176 -23zM580 1212q10 63 28 224q76 2 269 12l-94 -191l-27 -22q-45 -6 -176 -23z" />
<glyph unicode="&#xff;" horiz-adv-x="849" d="M-49 993q160 16 244 29l20 -21q61 -225 199 -688q74 225 209 688l22 19q86 2 217 8q-174 -446 -346 -950q-55 -156 -156 -477l-24 -23q-123 -6 -248 -12q96 152 205 414q-23 82 -129 399q-63 195 -213 614zM74 1184q6 96 2 188l22 27q90 0 209 8l21 -25q-4 -88 -2 -190 l-19 -25q-92 0 -217 -8zM485 1194q4 113 2 192l25 23h59q47 0 148 6l20 -22q-2 -101 0 -193l-20 -22q-113 -2 -217 -7z" />
<glyph unicode="&#x152;" horiz-adv-x="1789" d="M-6 643v37q0 258 116.5 430t346.5 236q123 33 450 32h193q43 0 166 -2q106 -2 164 -2q51 0 198 6q-4 -61 -16 -178l-23 -22q-414 8 -524 8q-8 -190 -12 -383q172 0 516 6q-4 -59 -13 -174l-20 -23q-35 0 -244 4q-147 2 -243 3q-4 -209 -5 -435h89q47 0 144 -2t146 -2 q74 0 170 6l21 -22q-10 -74 -12 -150l-19 -24q-74 0 -211 4q-145 4 -209 4q-86 0 -257 -5t-257 -5q-307 0 -475 155q-180 166 -180 498zM250 657q0 -299 160 -415q90 -66 280 -66q47 0 113 4q20 584 18 1010q-45 2 -76 2q-236 0 -342 -96q-74 -63 -113.5 -183t-39.5 -256z " />
<glyph unicode="&#x153;" horiz-adv-x="1714" d="M-2 451q-4 256 115 407q127 164 364 164q197 0 338 -158q160 172 348 172q113 0 197 -47q72 -39 133 -131q66 -98 68 -182q-1 -7 -7 -58l-77 -79l-568 -84q4 -84 17 -127q51 -178 248 -178q141 0 305 124l41 -26q-14 -109 -21 -172l-14 -17q-156 -86 -330 -86 q-215 0 -352 152q-158 -166 -367 -166q-213 0 -327 135q-106 129 -111 357zM238 457q6 -330 221 -330q236 0 229 405q-6 322 -205 322q-252 0 -245 -397zM913 627l416 61q-45 184 -178 184q-170 0 -238 -245z" />
<glyph unicode="&#x178;" horiz-adv-x="1013" d="M-94 1362q55 4 254 22l26 -14q86 -195 263 -577q170 334 276 571l25 18q82 2 229 13q-152 -276 -428 -811q-12 -242 -2 -564l-19 -22q-125 0 -239 -8q18 338 14 573q-221 461 -399 799zM102 1491l4 188l19 25q111 0 237 6q-4 -61 -4 -213l-18 -22l-217 -5zM526 1501 q2 113 2 185l21 24h102q20 0 56 2q43 2 61 2l23 -18q-5 -78 -5 -193l-22 -24q-92 4 -217 2z" />
<glyph unicode="&#x2c6;" horiz-adv-x="966" d="M162 1128q68 104 176 302l20 20q76 2 240 8l20 -16q45 -86 132 -258l-13 -37h-86q-31 0 -92 -4l-20 16q-18 41 -68 144q-37 -49 -100 -150l-21 -20q-94 2 -188 -5z" />
<glyph unicode="&#x2dc;" horiz-adv-x="638" d="M-49 1157q8 80 8 133q16 39 73.5 66.5t100.5 27.5q53 0 143.5 -36.5t126.5 -36.5q59 0 129 88l48 -13q-7 -59 -11 -141q-96 -88 -174 -88q-53 0 -138 36t-126 36q-61 0 -137 -90z" />
<glyph unicode="&#x2000;" horiz-adv-x="897" />
<glyph unicode="&#x2001;" horiz-adv-x="1794" />
<glyph unicode="&#x2002;" horiz-adv-x="897" />
<glyph unicode="&#x2003;" horiz-adv-x="1794" />
<glyph unicode="&#x2004;" horiz-adv-x="598" />
<glyph unicode="&#x2005;" horiz-adv-x="448" />
<glyph unicode="&#x2006;" horiz-adv-x="299" />
<glyph unicode="&#x2007;" horiz-adv-x="299" />
<glyph unicode="&#x2008;" horiz-adv-x="224" />
<glyph unicode="&#x2009;" horiz-adv-x="358" />
<glyph unicode="&#x200a;" horiz-adv-x="99" />
<glyph unicode="&#x2010;" horiz-adv-x="837" d="M88 451q2 25 8 186l19 16q51 0 131 -2h121q199 0 360 11q-2 -66 -8 -203h-166q-262 0 -465 -8z" />
<glyph unicode="&#x2011;" horiz-adv-x="837" d="M88 451q2 25 8 186l19 16q51 0 131 -2h121q199 0 360 11q-2 -66 -8 -203h-166q-262 0 -465 -8z" />
<glyph unicode="&#x2012;" horiz-adv-x="837" d="M88 451q2 25 8 186l19 16q51 0 131 -2h121q199 0 360 11q-2 -66 -8 -203h-166q-262 0 -465 -8z" />
<glyph unicode="&#x2013;" horiz-adv-x="1171" d="M55 453q4 63 11 182l22 14q55 0 262 -2q158 -2 254 -2q225 0 434 10q-4 -32 -12 -194q-106 -2 -256 0q-203 2 -233 2q-205 0 -482 -10z" />
<glyph unicode="&#x2014;" horiz-adv-x="1363" d="M-14 444q6 57 16 164q121 2 621 0q383 0 622 15q-6 -58 -16 -152l-19 -14q-166 -6 -612 -2q-387 2 -612 -11z" />
<glyph unicode="&#x2018;" horiz-adv-x="389" d="M-43 965q90 211 190 505l19 21q84 4 174 12q-47 -176 -66 -258q-31 -130 -47 -239l-18 -21q-96 -4 -252 -20z" />
<glyph unicode="&#x2019;" horiz-adv-x="378" d="M-39 965q88 336 113 499l16 21q131 8 254 20q-92 -215 -190 -506l-19 -20z" />
<glyph unicode="&#x201a;" horiz-adv-x="425" d="M25 -303q84 311 114 500l17 20q90 2 247 14q-98 -245 -184 -505l-20 -21z" />
<glyph unicode="&#x201c;" horiz-adv-x="669" d="M-59 954q125 309 188 512l18 19q84 4 177 12q-78 -283 -115 -502l-21 -18q-123 -6 -247 -23zM223 965q111 266 189 503l16 21l176 12q-84 -311 -115 -495l-14 -21q-133 -8 -252 -20z" />
<glyph unicode="&#x201d;" horiz-adv-x="702" d="M-20 956q43 170 112 498l14 21q131 8 254 20q-106 -246 -190 -504l-18 -20zM258 963q76 281 115 501l22 19q119 6 246 22q-137 -342 -188 -512l-19 -18q-82 -4 -176 -12z" />
<glyph unicode="&#x201e;" horiz-adv-x="710" d="M29 -311q43 168 112 495l15 21q131 8 254 20q-107 -246 -189 -504l-20 -20q-49 -2 -172 -12zM307 -307q78 289 117 502l20 18q92 6 246 23q-125 -309 -188 -510l-19 -19z" />
<glyph unicode="&#x2022;" horiz-adv-x="622" d="M76 690q0 92 66.5 157.5t160.5 65.5q96 0 160.5 -68.5t66.5 -160.5q2 -94 -64.5 -159.5t-162.5 -65.5t-160.5 69.5t-66.5 161.5z" />
<glyph unicode="&#x2026;" horiz-adv-x="1867" d="M147 57q0 43 34 77t93 34q111 0 111 -96q0 -43 -34 -77t-93 -34q-111 0 -111 96zM754 74q0 45 32.5 77.5t90.5 32.5q115 0 114 -96q0 -43 -34 -75.5t-89 -32.5q-115 0 -114 94zM1358 94q-2 43 38 76t87 33q115 0 114 -97q0 -43 -30 -73q-35 -37 -90 -37q-49 0 -84 27.5 t-35 70.5z" />
<glyph unicode="&#x202f;" horiz-adv-x="358" />
<glyph unicode="&#x2039;" horiz-adv-x="507" d="M20 524v17q59 109 177 358l22 16q49 0 195 3q-96 -164 -199 -375q59 -115 199 -387l-191 -4l-20 16q-66 143 -183 356z" />
<glyph unicode="&#x203a;" horiz-adv-x="503" d="M51 150q102 176 199 374q-2 4 -197 385q123 4 187 6l22 -16q51 -117 182 -354v-17q-98 -192 -176 -360l-22 -16q-49 0 -195 -2z" />
<glyph unicode="&#x205f;" horiz-adv-x="448" />
<glyph unicode="&#x20ac;" horiz-adv-x="1167" d="M-78 735l41 191h90q63 229 234.5 356t423.5 127q145 0 299 -57q2 0 -29 -226l-125 82q-94 35 -151 35q-297 0 -398 -317h641l-41 -193l-635 2q-2 -34 -2 -69h623l-43 -191h-557q82 -326 383 -325q92 0 176 40q70 35 201 136q-14 -168 -21 -240l-12 -16q-172 -96 -377 -97 q-244 0 -401.5 133.5t-202.5 370.5h-113l41 189h56q0 35 2 69h-103z" />
<glyph unicode="&#x2122;" horiz-adv-x="1265" d="M-47 1272l2 80l471 8l-2 -76l-168 -6l-8 -545l-109 -2l8 545zM485 719l13 624l145 3l141 -494l154 500l145 2l-10 -625l-104 -2l12 496l-154 -498l-100 -2l-133 485l-4 -487z" />
<glyph unicode="&#x25fc;" horiz-adv-x="1034" d="M0 0v1034h1034v-1034h-1034z" />
</font>
</defs>
</svg>
