<?xml version="1.0" standalone="no"?>
<!DOCTYPE svg PUBLIC "-//W3C//DTD SVG 1.1//EN" "http://www.w3.org/Graphics/SVG/1.1/DTD/svg11.dtd" >
<svg xmlns="http://www.w3.org/2000/svg" xmlns:xlink="http://www.w3.org/1999/xlink" version="1.1">
<metadata></metadata>
<defs>
<font id="mellony_dry_brushregular" horiz-adv-x="1478" >
<font-face units-per-em="2048" ascent="1638" descent="-410" />
<missing-glyph horiz-adv-x="411" />
<glyph horiz-adv-x="0" />
<glyph unicode="&#xd;" horiz-adv-x="411" />
<glyph horiz-adv-x="0" />
<glyph horiz-adv-x="0" />
<glyph unicode=" "  horiz-adv-x="411" />
<glyph unicode="&#x09;" horiz-adv-x="411" />
<glyph unicode="&#xa0;" horiz-adv-x="411" />
<glyph unicode="!" horiz-adv-x="475" d="M63 23q14 96 27.5 191t30.5 192q29 166 65.5 328.5t83.5 324.5q16 51 34 100l36 98q10 29 22.5 33t38.5 -10q10 -6 21.5 -13t19.5 -18q4 -4 5.5 -14t-3.5 -21q-14 -47 -29.5 -95t-29.5 -95q-61 -205 -110.5 -409.5t-84.5 -415.5q-14 -90 -24 -189q-2 -23 0 -46l4 -46 q2 -14 -2 -20.5t-21 -3.5q-59 4 -71 59q-4 16 -5 33.5t-3 33.5q-2 0 -2.5 1.5t-2.5 1.5zM121 -463q-35 2 -51.5 13.5t-26.5 41.5q-10 27 -1 56.5t30 44.5q23 16 55.5 15t48.5 -19q12 -10 26.5 -18.5t10.5 -30.5q-4 -27 -13.5 -49.5t-29.5 -39.5q-10 -8 -23.5 -9t-25.5 -5z M406 1198q-4 4 -5 4q-12 -35 -25.5 -70.5t-23.5 -70.5q-72 -238 -126 -477.5t-87 -485.5l-4 -53v-31q37 305 108 598t163 586zM219 764l4 -4q12 43 23.5 87t21.5 87q-2 0 -3 1t-3 1z" />
<glyph unicode="&#x22;" horiz-adv-x="448" d="M389 1165q6 4 11.5 10.5t9.5 4.5q14 -6 11 -14.5t-7 -16.5q-33 -70 -65 -137.5t-60 -134.5q-12 -29 -19.5 -61t-17.5 -62q-2 -8 -8 -18.5t-8 -8.5q-12 4 -27.5 11t-20.5 18q-8 18 -9 40.5t3 43.5q20 92 56 178t81 172q10 16 33 18t35 -12q4 -4 2 -12t-2 -15 q-8 -8 -10 -12l-117 -260l-6 -27q12 20 19.5 41t17.5 41zM115 1061l55 131q2 4 6 8l8 8q4 -6 7.5 -12t3.5 -14q0 -6 -3.5 -12.5t-7.5 -12.5q-23 -66 -47 -129t-45 -129q-8 -29 -8 -57.5t-2 -57.5q0 -20 -4 -23t-23 5q-61 29 -55 88q6 84 27 156q14 53 32.5 103t36.5 101 q8 23 20.5 25t35.5 -10q20 -10 16 -19.5t-8 -19.5l-51 -127q4 0 6 -2z" />
<glyph unicode="#" horiz-adv-x="970" d="M680 770q12 33 24.5 65.5t22.5 65.5l25 68q4 6 9 13t9 5q14 -2 10 -10t-6 -14q-2 -10 -5 -17.5t-5 -17.5q-18 -51 -35.5 -101.5t-36.5 -99.5l8 -4q16 51 33 101t33 102l18 41q4 4 9.5 5t9.5 5q0 -4 2 -9t0 -10l-35 -92l-57 -176q-2 -4 -2 -9t4 -13l8 16l86 264q2 4 5 7 t7 8q4 -6 11.5 -11.5t9.5 -13.5q2 -6 -1 -14.5t-5 -16.5l-74 -215q-6 -16 -2 -21t20 -9q25 -4 50.5 -11.5t50.5 -15.5q4 -2 10 -6t8 -8q6 -8 9 -16.5t7 -18.5l-15 -7.5t-15 -3.5q-35 0 -70 -1t-70 1q-25 0 -28 -20q-14 -47 -27.5 -94t-30.5 -94q-4 -16 1.5 -20.5t19.5 -6.5 q53 0 102 -14.5t90 -53.5q8 -8 14.5 -19t14.5 -22l-4 -4q-23 6 -46.5 12.5t-45.5 8.5q-41 4 -80 5t-78 5q-14 0 -17 -7t-5 -18q-31 -111 -51.5 -220t-18.5 -224v-16q-4 0 -8 1t-8 1q-41 2 -59.5 16t-30.5 55q-10 35 -8.5 68t8.5 68q10 61 21 121.5t26 119.5q6 29 -21 23 q-47 -8 -93 -14.5t-93 -16.5q-14 -4 -19 -18q-25 -98 -43 -194.5t-22 -197.5q0 -29 -3 -54t-5 -52q0 -14 -17 -12q-20 2 -31.5 3t-17.5 6t-9 15t-9 29q-16 53 -15.5 103.5t6.5 103.5q8 55 17.5 109.5t19.5 109.5q2 20 -18 18q-10 -4 -18.5 -5t-18.5 -3q-29 -4 -55.5 12.5 t-30.5 44.5q0 4 6 9.5t12 7.5q63 18 125 31q25 6 29 28l45 193q-10 -2 -27 -2q-66 -12 -92 53l-6 10q-16 25 14 31q29 6 60 12t61 10q27 6 31 29q20 70 40.5 138.5t43.5 138.5q4 10 6 17t6 15q4 4 11.5 6.5t13.5 6.5q0 -6 1 -12.5t-1 -10.5q-4 -14 -7 -26.5t-3 -26.5l18 49 q4 6 9 14.5t10 8.5q12 -4 9 -12.5t-5 -16.5q0 -2 -1 -4t-1 -6q2 2 6 2q6 4 7 15t15 5q2 -2 1 -11t-3 -17l-82 -250l-6 -27q2 0 4 -1t4 -1l97 297q20 -8 22 -20.5t-2 -28.5q-18 -53 -36.5 -107.5t-35.5 -107.5q-6 -20 -4 -24.5t25 -0.5q45 4 88 8t88 9q14 0 17 7t8 17l86 264 q8 20 14 29q4 4 10 5t12 5q0 -6 1 -12t-1 -10l-61 -178l-4 -19q-8 -23 -15.5 -47.5t-17.5 -46.5q4 0 5 -1t3 -1q8 23 14.5 47t12.5 47zM297 315q6 0 10 -1t8 -1q47 6 95.5 11.5t95.5 13.5q6 0 12 6t8 12q14 47 25.5 92.5t26.5 90.5q4 14 0.5 21t-19.5 3l-184 -28 q-16 -4 -21 -15zM526 -160l4 70t7 70q4 35 11 68.5t15 68.5q6 35 14.5 67.5t16.5 65.5q-10 -18 -26.5 -75.5t-30 -124t-18.5 -126t7 -84.5zM174 -252q-2 117 17.5 228.5t41.5 224.5q-31 -111 -50 -223.5t-9 -229.5zM686 569l-12 4q-16 -57 -32.5 -113.5t-33.5 -111.5l13 -4 q16 57 32.5 113.5t32.5 111.5zM254 309q2 0 4 -1t6 -1l55 211q-4 0 -6 1t-4 1zM485 35q-2 2 -6 2q-4 -25 -6 -48.5t-4 -47.5h4zM514 25q-4 0 -8 2q-2 -23 -4 -46.5t-6 -46.5h4q4 23 7 45.5t7 45.5zM643 537q-2 2 -6 2q-10 -33 -16 -58q2 -2 4 -2z" />
<glyph unicode="$" horiz-adv-x="862" d="M281 -467q-12 12 -13 12q-10 0 -17 -1t-15 -1q0 10 -1.5 21.5t1.5 21.5l4 40t6 40q6 27 -25 33q-47 10 -88 29.5t-76 54.5q-35 33 -49 69.5t-6 84.5q10 61 27.5 119.5t50.5 111.5q14 25 32.5 44t47.5 32q18 10 33.5 6t31.5 -14q2 0 3 -5.5t-1 -9.5q-10 -27 -24 -47 q-41 -66 -61.5 -136.5t-10.5 -148.5q10 -94 102 -122q27 -10 33 18q12 72 25.5 141.5t27.5 139.5q20 92 38 180t40 178q8 33 0 58.5t-16 54.5q-29 86 -49.5 168.5t-12.5 173.5q4 47 19 90q57 137 168 223q10 8 21.5 14t23.5 11q18 4 26.5 15t12.5 28q10 29 20.5 55t20.5 55 q6 23 28 14q31 -14 39.5 -28.5t-0.5 -46.5q-4 -14 -8 -27.5t-8 -28.5q-14 -27 16 -34q29 -10 57.5 -23.5t53.5 -30.5q18 -12 32.5 -32.5t28.5 -38.5q4 -4 3 -11.5t-1 -13.5q-16 0 -22 2q-10 8 -21.5 15.5t-21.5 17.5q-31 35 -69 40t-79 -5q-16 -4 -18 -15.5t-6 -21.5 l-86 -352q-10 -43 -20.5 -85t-20.5 -85q-2 -20 4 -45q23 -68 47.5 -134.5t46.5 -134.5q27 -84 40 -167t5 -171q-10 -96 -73.5 -161.5t-157.5 -75.5q-23 -2 -42.5 -3t-41.5 -1q-23 2 -27 -23l-18 -94q-2 -10 -4 -18.5t-6 -18.5zM451 311l-11 -18l-106 -504q-4 -20 -1 -23.5 t21 3.5q115 39 138 159q16 98 2 191.5t-43 191.5zM522 997q-23 -25 -39 -59.5t-23 -71.5t-7 -73.5t10 -67.5zM436 940l107 164q-41 -33 -66 -75t-41 -89zM125 94q-20 -35 -30.5 -85t-2.5 -77zM606 -27l-31 -135q45 59 31 135zM387 1004l6 -7l45 76l-6 4zM432 1014q2 0 6 -4 q10 14 18.5 27.5t16.5 27.5l-6 4zM518 -102q2 -2 8 -2l13 69h-7zM551 -115q4 -2 10 -2q2 14 4 28.5t6 31.5q-4 0 -6 2zM29 -63q2 -2 6 -3q4 16 6 35t4 35q-2 0 -3 1t-3 1q-2 -18 -4 -35.5t-6 -33.5z" />
<glyph unicode="%" horiz-adv-x="854" d="M201 -41l172 160l20 20q25 25 42.5 27t45.5 -19l2 -2q27 -10 28 -16t-15 -31q-8 -10 -15.5 -23.5t-13.5 -25.5q-10 -16 8 -18q68 -16 100.5 -54t38.5 -110q6 -80 -14 -152q-12 -39 -35.5 -65.5t-64.5 -34.5q-49 -10 -92 2t-76 55q-29 39 -36 82t-3 90q2 25 6 50.5t8 54.5 q-10 -6 -15 -11.5t-9 -9.5l-164 -178q-18 -23 -56 -26t-59 16q-4 4 -5 13t3 16q12 35 25.5 71.5t27.5 71.5q92 229 188.5 454.5t213.5 446.5q47 92 99 179t103 175l25 45q-33 -10 -59.5 -16t-55.5 -12q-33 -8 -65.5 -16.5t-67.5 -12.5q-23 -6 -20 -29q12 -66 -9.5 -120 t-64.5 -101q-27 -29 -60.5 -38t-66.5 -2t-60.5 31t-41.5 60q-16 41 -11.5 81t25.5 79q41 80 109 127q90 66 170 -16q4 -4 12 -7t14 -1q78 23 154 44t151 48q35 10 66 -8.5t45 -42.5q4 -6 -2 -16.5t-10 -18.5l-136 -219q-199 -330 -348 -674q-39 -86 -75.5 -172t-73.5 -172 l-8 -25zM526 -160h-6q0 10 1 18.5t-1 18.5q-4 29 -10 54.5t-25 48.5q-12 14 -27.5 14t-19.5 -17q-23 -55 -33 -112.5t-4 -116.5q2 -31 21 -65q20 -49 53 -9q10 10 17.5 23.5t11.5 28.5q8 29 12 57t10 57zM326 1190q-96 -70 -131 -172q-10 -31 -7 -66q0 -57 52 -24 q57 37 81.5 108.5t4.5 153.5zM426 571q86 172 181 336t194 330q-109 -160 -203 -325t-172 -341zM367 -201q8 45 16 89t18 87q-20 -41 -29 -85t-5 -91zM588 -143q-4 -39 -8.5 -72t-8.5 -66q27 58 17 138zM381 475q10 18 19.5 36.5t19.5 37.5l-10 4l-31 -76l-31 -63q2 0 3 -1 t3 -1q8 16 14.5 31.5t12.5 31.5zM248 1161l-6 6l-62 -90q2 0 6 -4zM346 956q4 0 5 -1t3 -1l25 52q-2 0 -3 1t-3 1q-6 -12 -12.5 -26t-14.5 -26z" />
<glyph unicode="&#x26;" horiz-adv-x="960" d="M432 -627q10 4 16.5 6.5t14.5 4.5q53 10 89 40.5t62 73.5q35 59 52.5 123t25.5 131q8 76 2 149.5t-28 145.5l-13 31q0 2 -8 10q-4 -16 -5 -31.5t-3 -29.5q-16 -92 -59 -167t-123 -128q-164 -104 -340 -11q-35 18 -55.5 50t-36.5 69q-29 72 -22 140.5t40 134.5 q31 63 74 117.5t90 103.5q43 45 88 88l90 86q23 23 4 45q-31 47 -58.5 95t-45.5 102q-37 111 -28 215t56 209q29 61 72 111t102 85t124 38t122 -23.5t99 -79t57 -127.5q18 -104 -6.5 -197.5t-79.5 -181.5q-53 -80 -115.5 -150.5t-128.5 -136.5q-23 -18 -6 -43 q47 -74 95 -146.5t91 -148.5q45 -84 71 -173t19 -187q-6 -100 -30.5 -192.5t-89.5 -172.5q-47 -59 -108.5 -80.5t-135.5 -11.5q-4 0 -10.5 2t-12.5 4zM682 1335q-31 4 -58.5 -7t-52.5 -28q-115 -78 -162 -190.5t-42 -245.5q0 -70 24.5 -131t63.5 -121q8 -12 14 -13t16 11 q33 35 66 69t63 71q53 63 95.5 132.5t64.5 151.5q16 66 17.5 129.5t-31.5 128.5q-12 25 -30.5 37t-47.5 6zM127 -63q-2 -47 14.5 -91.5t44.5 -78.5q10 -14 23.5 -20.5t30.5 -0.5q23 6 44 13.5t40 17.5q70 41 113.5 100.5t66.5 132.5q18 55 26.5 110.5t8.5 115.5q0 6 4 15 t8 11q16 4 13 9t-7 14q-20 31 -39.5 62.5t-38.5 64.5q-8 10 -13 10t-13 -8l-56 -52q-59 -53 -112.5 -109t-94.5 -126q-27 -45 -45 -91t-18 -99zM766 -354q41 127 22 278zM719 748q39 47 71.5 98t49.5 110zM371 1104l90 149q-65 -59 -90 -149zM90 -31l47 137 q-20 -31 -35.5 -63.5t-11.5 -73.5zM563 -80q25 37 34 78t11 84q-10 -41 -21.5 -81t-23.5 -81zM729 -100h-6v-136h6v136zM762 -137h-6l-6 -121q6 14 8 28.5t4 30.5v62zM776 942q-2 0 -3 1t-3 1q-14 -25 -22 -47l4 -2z" />
<glyph unicode="'" horiz-adv-x="278" d="M193 1219q2 2 4 5t4 3q4 2 7 1t7 -1q0 -10 -2 -13q-6 -12 -13 -23t-16 -24l6 -4l25 37q4 4 7 5t7 3q4 -4 7.5 -7t3.5 -7q-2 -14 -11 -33q-25 -47 -51 -94t-49 -96q-35 -76 -35 -170q0 -4 -1 -8.5t-1 -8.5q-51 16 -75.5 53t-14.5 89q16 88 52 166.5t83 154.5 q10 16 16.5 17.5t20.5 -11.5l4 -4q16 -6 17.5 -10t-2.5 -20z" />
<glyph unicode="(" horiz-adv-x="585" d="M322 -365q-70 0 -117 60q-29 39 -47.5 83t-32.5 91q-23 72 -40 143.5t-24 145.5q-4 59 2.5 117.5t18.5 115.5q43 205 113.5 397.5t187.5 370.5q31 47 66.5 90t72.5 86q16 16 38 28.5t44 22.5q25 10 52.5 -9t29.5 -46q0 -8 -12 -12q-25 -6 -43.5 -22.5t-34.5 -34.5 q-57 -61 -100 -133t-84 -146q-68 -127 -120 -257t-87 -271q-18 -82 -30.5 -163t-8.5 -165q6 -106 29.5 -208.5t68.5 -201.5q6 -16 18.5 -28.5t22.5 -26.5q4 -4 12.5 -8t14.5 -8q-2 -4 -4 -5.5t-6 -5.5zM616 1321q-53 -29 -90 -94z" />
<glyph unicode=")" horiz-adv-x="604" d="M526 842q-4 -158 -21.5 -305.5t-70.5 -288.5q-47 -135 -106.5 -262t-134.5 -248q-20 -31 -42 -60.5t-57 -50.5q-45 -25 -90 -2q-4 0 -5 9.5t3 13.5q10 16 21.5 30.5t21.5 30.5q59 82 101 171t81 181q45 109 81 218.5t57 226.5q18 98 26 195.5t10 197.5q2 84 -4 165 t-24 163q-10 47 -23.5 94t-42.5 88q-2 4 -3 10t1 8q10 8 21 5q41 -8 63 -46q35 -51 58.5 -106t39.5 -115q23 -84 30 -164.5t9 -158.5zM463 504l-125 -408q43 96 77 197.5t48 210.5zM371 289q4 0 5 -1t3 -1l27 94q-2 0 -3.5 1t-3.5 1zM385 424q-4 0 -8 2q-4 -23 -10.5 -44.5 t-12.5 -43.5q6 0 8 -2q4 23 10.5 44t12.5 44z" />
<glyph unicode="*" horiz-adv-x="655" d="M233 1294l37 131q10 33 20.5 65t20.5 64q4 14 13.5 21.5t25.5 -2.5q10 -8 20.5 -13.5t20.5 -13.5q27 -16 12 -51l-24 -76l-8 -26l10 -9q8 10 14 19.5t17 19.5q31 31 63 2q29 -23 30 -29.5t-26 -33.5q-25 -23 -48 -48.5t-50 -53.5q63 -6 119.5 -15.5t103.5 -50.5 q0 -6 -2 -8q-20 4 -39.5 7t-42.5 5q-45 2 -88 3t-88 1q-23 0 -28 -13t8 -32q41 -57 81.5 -113.5t81.5 -115.5q10 -12 16.5 -27.5t14.5 -30.5q-2 -4 -4 -5t-4 -3q-14 8 -27.5 15.5t-23.5 17.5q-37 43 -71 87t-69 87l-26 33q-29 -84 -35 -169t-27 -167h-10q-39 6 -48 31.5 t-9 58.5q0 31 2 61.5t4 59.5q0 8 1 16t3 19q-14 -10 -16 -15q-53 -68 -101.5 -136t-83.5 -148q-4 -8 -9 -16.5t-9 -8.5q-14 -2 -29.5 12.5t-13.5 28.5q4 18 7 37.5t11 36.5q29 66 70 124t84 115l100 127l15 21h-43q-20 -2 -39 -3t-37 -1q-23 0 -39 8q-8 4 -14.5 11t-14.5 14 l17.5 7t17.5 5l141 16q-14 23 -26 43.5t-27 40.5q-12 20 -25.5 40t-25.5 42q-4 4 -3 10.5t-1 10.5l12 4t10 -2q16 -10 32 -18.5t28 -22.5q16 -16 27.5 -37t25.5 -39q4 -6 8 -11.5t10 -13.5z" />
<glyph unicode="+" horiz-adv-x="864" d="M231 565q-27 0 -52 21.5t-29 46.5q0 2 7 7t11 5q20 2 39.5 0t40.5 -2q51 -2 101 -3t100 -5q16 -2 19 6t7 18q25 82 49.5 162t50.5 162l13 29q14 31 39 14q8 -6 21.5 -7t8.5 -20h9q8 0 12 -4l16 -16t11 -18q4 -10 -0.5 -23.5t-8.5 -24.5q-23 -66 -46 -128t-48 -128 q-8 -25 19 -24q29 0 57.5 -2t56.5 -4q39 0 60 -39q14 -23 -15 -23q-43 2 -87 1t-89 1q-31 0 -37 -26q-14 -70 -29.5 -137.5t-27.5 -137.5q-6 -35 -4 -67.5t0 -67.5v-27q2 -16 -19 -14q-39 6 -57 30.5t-22 57.5q-4 43 -3 86t5 84q6 49 16 98.5t20 96.5q6 25 -18 22h-197z" />
<glyph unicode="," horiz-adv-x="313" d="M113 -4q-29 -6 -50.5 3t-42.5 26q-33 27 -22 71q4 12 9 25.5t13 23.5q18 29 47 42.5t57 11.5t52.5 -19.5t36.5 -50.5q10 -27 17.5 -56.5t-3.5 -64.5q-16 -45 -37.5 -87t-52.5 -79q-47 -53 -98 -16q-10 8 -13 16t7 19q8 10 15 18t13 19q16 23 28.5 45t27.5 45zM115 -139 l6 -4l57 94l-6 4z" />
<glyph unicode="-" horiz-adv-x="675" d="M201 668q74 -4 146.5 -9.5t144.5 -13.5q25 -2 50 -12t48 -23q10 -4 16 -16t15 -23q-10 -4 -22.5 -8t-25.5 -4q-92 2 -185 4t-187 2q-31 0 -56.5 6.5t-48.5 28.5q-8 10 -16 19.5t-12 19.5q-6 14 2 18.5t18 4.5q29 2 56.5 2h56.5v4z" />
<glyph unicode="." horiz-adv-x="305" d="M12 35q0 27 11.5 48t27.5 42q37 41 88 8q23 -16 43.5 -33.5t38.5 -38.5q37 -41 0 -88q-20 -25 -50 -35t-58.5 -7t-54 20.5t-38.5 46.5q-4 10 -5 18.5t-3 18.5z" />
<glyph unicode="/" horiz-adv-x="477" d="M45 -14q-6 33 -25 16l-12 16q-2 -4 -3 -10t-5 -10q-4 61 3 121.5t20 122.5q43 217 110.5 423.5t147.5 411.5q47 121 97 237t99 234q12 27 33 51q12 16 30.5 14.5t28.5 -18.5q2 -6 -2 -20q-4 -12 -11 -22.5t-13 -20.5q4 -4 6 -4l26 43q2 4 5.5 5t7.5 5l4 -8t2 -8 q0 -6 -4 -19q-86 -166 -155.5 -337t-135.5 -345q-53 -143 -100 -286.5t-82 -292.5l-62 -271zM494 1423l-86 -198q-4 -4 -9 -13l-141 -362l-4 -21q12 23 21.5 45.5t17.5 45.5l117 301l86 198l36 74l-8 4zM180 592l-8 4q-4 -18 -10 -35.5t-12 -36.5q2 0 3 -1t3 -1z" />
<glyph unicode="0" horiz-adv-x="860" d="M453 1450q23 -4 40 -6t33 -6q86 -25 137.5 -83.5t77.5 -140.5q29 -94 33 -188t-6 -192q-12 -166 -68.5 -313.5t-142.5 -287.5q-33 -51 -73 -94t-93 -73q-29 -16 -65.5 -23.5t-73.5 -1.5t-71 24.5t-60 53.5q-47 59 -70.5 126.5t-36.5 139.5q-16 92 -14 185.5t14 187.5 q14 96 35 188t55 184q39 102 91.5 193.5t126.5 169.5q16 18 35.5 31.5t39.5 27.5q25 18 53.5 19.5t56.5 -8t51.5 -27.5t35.5 -39q4 -6 3 -12t1 -12q-8 0 -25 4q-4 0 -8 4q-10 4 -18 12t-15 6q-16 -4 -28 -11t-27 -15q-6 -4 -11 -9.5t-13 -13.5zM117 496q4 -59 10 -116.5 t25 -115.5q14 -47 34.5 -89t57.5 -77q20 -20 47 -8q78 41 133 121q133 203 198.5 422t43.5 463q-4 41 -13.5 82t-23.5 82q-16 57 -54 97t-92 66q-35 14 -44 13.5t-29 -31.5q-35 -53 -71 -107.5t-65 -113.5q-55 -111 -85.5 -225.5t-47.5 -235.5q-8 -57 -13 -113.5t-11 -113.5 zM379 1430q-72 -80 -121 -171.5t-82 -193.5q-20 -61 -36.5 -127t-28 -124t-15.5 -102t0 -63q25 215 89.5 411t193.5 370zM674 549q27 61 42 124.5t19 131.5zM170 1120q20 43 39.5 86t42.5 86q-57 -82 -86 -170q-16 -45 -29 -82q2 0 2 -1t2 -1zM166 1204q-12 -33 -24.5 -63.5 t-22.5 -61.5q-6 -16 -12.5 -30.5t-10.5 -30.5q2 0 3 -1t5 -1l17 61l49 123l31 62q-2 0 -3 1t-3 1q-8 -16 -14.5 -31t-14.5 -29z" />
<glyph unicode="1" horiz-adv-x="468" d="M395 1468l-55 -30q-33 -16 -56.5 -14.5t-45.5 22.5q-12 10 2 16q59 27 108 67t96 85q6 6 12.5 11t10.5 11q8 10 14 14.5t21 -5.5q6 -4 16 -5.5t19 -7.5q10 -8 13 -9t1 -11q6 -2 13 -3t11 -5q8 -12 5 -25q-86 -188 -139.5 -384t-100.5 -394q-29 -119 -50.5 -238 t-43.5 -239q-6 -41 -5 -82t-1 -82q-2 -20 24 -27q37 -8 72 -21.5t61 -43.5q10 -10 18.5 -22.5t-1.5 -27.5q-2 -4 -20.5 0.5t-24.5 14.5q-47 47 -99.5 46t-107.5 -9q-10 -2 -18.5 -3t-16.5 -6q-35 -14 -62.5 -4.5t-52.5 29.5l-9 9t-3 9q6 10 18 15q29 6 56.5 11t56.5 9 q16 2 21.5 5t-2.5 20q-16 39 -14.5 77t5.5 76q37 289 102.5 568.5t145.5 558.5zM518 1536q-8 -4 -10 -12q-18 -51 -36.5 -100.5t-35.5 -102.5q-70 -231 -125 -462.5t-94 -471.5q-6 -35 -8 -66.5t-6 -66.5q45 330 125.5 647.5t189.5 634.5z" />
<glyph unicode="2" horiz-adv-x="907" d="M160 111l162 39l110 20t113 2q47 -8 79.5 -32.5t47.5 -73.5q4 -16 4 -25q-2 -31 -31 -12q-12 10 -20.5 19t-10.5 26q-6 29 -34 26q-45 -8 -91.5 -12t-89.5 -16q-80 -20 -157.5 -44t-155.5 -46q-16 -4 -26.5 -1t-22.5 7q-20 8 -31 32q-10 23 -3 32t26 16q10 4 18 18 q92 154 182 308.5t181 310.5q61 104 120.5 208.5t116.5 212.5q39 72 68.5 147t40.5 157q2 39 -4 86q-6 45 -52 45q-23 0 -45 -2.5t-45 -8.5q-102 -35 -181 -95t-128 -159q-10 -23 -19.5 -43t-2.5 -47q2 -2 -4.5 -8t-10.5 -4q-49 6 -78 41q-4 6 -6 16.5t-2 20.5q4 49 26.5 91 t55.5 79q63 72 142 120t176 64q33 6 72.5 2t78.5 -19.5t73 -42t52 -65.5q23 -43 19.5 -86t-13.5 -86q-25 -98 -67.5 -184t-96.5 -172q-129 -207 -257 -412t-257 -411zM819 1305l-149 -314q47 72 85.5 149t63.5 165zM254 1296l10 -6q14 25 27.5 49.5t30.5 49.5l-9 6 q-14 -25 -28.5 -49.5t-30.5 -49.5z" />
<glyph unicode="3" horiz-adv-x="1069" d="M164 330l-23 -45q-41 -63 -33.5 -124t48.5 -120q31 -41 68.5 -71.5t86.5 -45.5q47 -14 92 10q86 47 145.5 117t100.5 156q90 176 86 373q-2 68 -19.5 132t-58.5 122q-20 25 -43.5 40t-54.5 17q-35 4 -67.5 3t-67.5 -1q-59 -2 -111 39q-10 10 -6 18t12 17l111 104 q76 72 150.5 143.5t146.5 145.5q23 23 41 51.5t35 56.5q8 12 9 30t5 34q2 23 -22 20q-41 -4 -79 -15t-77 -28q-78 -35 -144.5 -81t-115.5 -117q-10 -14 -18.5 -30.5t-16.5 -33.5q-6 -16 -20 -10q-82 25 -48 102q18 47 49 84t72 66q123 92 271 129q37 10 74.5 10t74.5 -12 q35 -12 61.5 -34.5t40 -53.5t10.5 -67t-24 -72q-29 -53 -69.5 -96.5t-83.5 -84.5l-244 -227l-14 -14q10 -2 16 -4t12 -2q82 -10 148.5 -48.5t111.5 -95.5t68.5 -126.5t21.5 -141.5q-4 -180 -70.5 -331.5t-203.5 -272.5q-96 -84 -216 -86t-224 63q-57 37 -97.5 87t-56.5 120 q-14 63 9.5 119.5t76.5 85.5q20 12 38 9t36 -13zM782 276q12 20 23.5 55.5t18.5 71t9.5 65.5t-4.5 42q-12 -57 -23.5 -116t-23.5 -118zM889 1444q-18 -29 -34.5 -54.5t-33.5 -50.5q58 39 68 105zM745 391q6 0 9 -2l16 113h-6zM381 1362l-8 6q-10 -18 -22.5 -35.5 t-22.5 -34.5l6 -6zM797 455q-4 0 -9 2l-14 -86q2 0 3 -1t3 -1q4 23 8.5 43t8.5 43z" />
<glyph unicode="4" horiz-adv-x="874" d="M543 -131h-27q-16 -4 -26.5 0t-16.5 20q-10 33 -16 65t-4 66q14 197 52 386.5t83 379.5q4 25 1 29t-30 0l-82 -8t-82 -12q-49 -10 -98 -22.5t-96 -29.5q-100 -35 -191 21q-12 8 -10 19.5t8 21.5q18 33 36.5 64.5t39.5 64.5l328 555q16 27 28.5 53.5t26.5 52.5 q12 27 21.5 32t33.5 -7q16 -8 32.5 -19.5t27.5 -29.5q8 -16 2 -29q-12 -35 -25.5 -67.5t-30.5 -65.5l-299 -524l-16 -29q29 4 51.5 7t44.5 5q66 6 132.5 12.5t131.5 10.5q29 2 35 6t15 33q39 139 76.5 275t78.5 274q4 14 9.5 28.5t11.5 28.5q4 14 12 20q4 4 9 4.5t11 2.5 q0 -4 1.5 -9.5t-1.5 -9.5q-4 -12 -2 -20q2 6 11 18q6 10 16 17l10 -23q2 0 5 4t6.5 6t6.5 0t5 -14q2 -2 8 -2q31 -8 18 -43q-16 -47 -32.5 -93t-32.5 -94q-29 -96 -56.5 -191t-56.5 -194q-8 -23 19 -24q49 -4 98 -9t98 -16q18 -4 37 -15t35 -22q4 -2 4 -8t4 -10 q-12 -4 -18 -4q-23 4 -45.5 8t-44.5 6q-45 4 -90.5 4t-90.5 2q-31 2 -36 -28q-33 -143 -66 -284.5t-61 -285.5q-18 -88 -24.5 -175t-10.5 -177q0 -2 -1 -3t-1 -3v-2zM522 -90q-2 117 15.5 230.5t42.5 228.5q23 115 48 226.5t50 223.5q-2 0 -3 1t-3 1l-8 -33 q-37 -147 -71 -295.5t-56 -302.5q-10 -70 -16.5 -139t1.5 -141zM238 981q33 53 65.5 106.5t63.5 108.5q43 74 84 149.5t81 151.5q6 12 9.5 24.5t7.5 24.5q-6 -4 -8 -7t-6 -7l-216 -397l-86 -152q-23 -33 -42 -65.5t-39 -65.5q4 -4 8 -4zM883 1507q-59 -147 -104.5 -299.5 t-86.5 -308.5q2 0 3 -1t3 -1zM489 1559l-8 4l-67 -133q2 0 3 -1.5t3 -1.5q18 33 35.5 65t33.5 67zM455 1438l6 -4q8 16 15 30.5t18 30.5q-4 0 -5.5 1t-3.5 1z" />
<glyph unicode="5" horiz-adv-x="1017" d="M1118 1405q-31 4 -59.5 10t-57.5 8q-55 4 -111 6.5t-112 2.5q-63 -2 -125.5 -7.5t-126.5 -9.5q-23 0 -34 -24q-35 -88 -67 -175.5t-54 -179.5q-4 -8 -4 -14q-6 -23 18 -16q31 10 61.5 18t63.5 8q285 12 377 -256q27 -74 26.5 -147.5t-18.5 -149.5q-35 -147 -105.5 -275 t-185.5 -233q-51 -47 -108.5 -82.5t-122.5 -56.5q-53 -16 -107.5 -14t-102.5 21.5t-88 57t-63 93.5q-10 27 -11 53.5t3 54.5q14 88 42 170t79 156q18 29 41.5 51.5t56.5 36.5q6 4 14.5 7t16.5 1q12 -4 23.5 -9t23.5 -9q-4 -10 -8 -19.5t-12 -15.5q-86 -86 -118 -192.5 t-42 -223.5q-2 -41 15.5 -77.5t45.5 -65.5q29 -35 72 -21q47 14 88 37t80 51q154 117 241 270.5t117 342.5q12 78 2 150.5t-47 144.5q-20 41 -50 56t-79 11q-55 -4 -106 -21.5t-99 -41.5l-20 -13q-10 -6 -19.5 -16t-17.5 -8q-16 4 -33.5 13t-34.5 20q-29 18 -27.5 45.5 t3.5 50.5q10 100 37 195q20 72 43.5 139t46.5 137q8 18 4 31q-10 18 -2 23t22 7q25 2 48.5 5.5t48.5 5.5q86 4 169 6t167 2q55 0 109 -8.5t104 -36.5q31 -18 45 -34.5t24 -45.5zM686 117q59 72 99 153.5t61 173.5q-31 -88 -72 -168.5t-88 -158.5zM88 104l70 244 q-31 -57 -47.5 -117.5t-22.5 -126.5zM760 367q-4 4 -6 4l-56 -119l7 -4zM770 313q-4 4 -6 4l-39 -73l8 -4z" />
<glyph unicode="6" horiz-adv-x="776" d="M182 688q25 8 48.5 16.5t45.5 12.5q106 20 195.5 -12.5t169.5 -100.5q68 -57 83 -129t-1 -151q-16 -86 -55 -161t-97 -140q-31 -35 -72.5 -56.5t-89 -31t-95.5 -4t-89 23.5q-43 20 -74.5 53t-54.5 74q-35 66 -52 134.5t-21 139.5q0 23 -1.5 44.5t-3.5 43.5l-18 -10l6 25 q23 51 31 105t18 108q29 160 74 313.5t123 298.5q35 66 80 125t106 107q35 27 72 40q57 25 116.5 6.5t92.5 -69.5q4 -6 6 -11t4 -12q2 -4 1 -10t-1 -10q-4 2 -9 1t-9 3q-8 4 -16.5 10t-14.5 15q-23 31 -62 16q-43 -14 -77.5 -38.5t-67.5 -55.5q-55 -57 -93 -126t-69 -140 q-45 -104 -75.5 -212t-53.5 -218v-17zM141 377q-2 -53 5.5 -103.5t23.5 -97.5q18 -49 44 -93t67 -79t88 -10q66 33 102 84q106 143 121 315q8 72 -14.5 131.5t-85.5 100.5q-45 33 -93.5 42t-99.5 -20q-29 -16 -55.5 -37.5t-55.5 -44.5q-41 -33 -41 -90q0 -25 -2 -49t-4 -49z M414 1386q-66 -76 -107 -163.5t-76 -182.5q-35 -92 -57 -187t-37 -194q41 193 101.5 378t175.5 349zM664 256q18 41 27 85t-1 95q-6 -47 -13 -92t-13 -88zM106 334h7v135q-6 -6 -7 -16v-119zM186 1059q-2 0 -3 1t-3 1l-30 -96q4 0 6 -2zM78 664q2 -2 6 -2l18 92h-6zM662 389 h-9l-6 -55q2 0 4 -1t4 -1zM631 403h-8l-7 -67h7q2 16 3 33.5t5 33.5zM268 1200q2 0 3 -1t3 -1l29 59q-4 0 -6 3z" />
<glyph unicode="7" horiz-adv-x="811" d="M139 4l-12 8q-35 6 -43 14.5t-12 45.5q-6 53 0 102t18 98q23 98 55.5 189.5t69.5 183.5q10 23 10 29t-32 6q-33 -2 -64 3t-55 32q-8 8 -11 14q4 2 9.5 5t9.5 5h38.5t37.5 2q16 0 33.5 2t33.5 0q33 -2 45 33q137 303 301 582l7 14q-4 0 -7.5 1t-7.5 1q-63 -12 -127.5 -14 t-130.5 2q-66 6 -130 18.5t-124 46.5q-27 16 -45 41q-12 12 -4 29q2 4 10 6t15 2l16 -4t12 -8q29 -25 63 -30t68 -9q88 -10 175.5 -9t173.5 17q45 10 86 23.5t77 40.5q18 14 47 7t41 -28q4 -2 5.5 -4t3.5 -4q12 -10 10 -18.5t-12 -22.5q-27 -27 -49.5 -56.5t-43.5 -60.5 q-92 -135 -167.5 -276t-147.5 -289q-8 -16 -5 -19t19 -3q31 0 62 1t61 -3q14 -2 26.5 -10.5t24.5 -14.5q10 -4 8.5 -10t-10.5 -10q-12 -4 -24 -9.5t-25 -5.5q-80 -6 -157 -6q-23 0 -31 -18q-51 -115 -96 -229.5t-70 -237.5q-8 -41 -13 -83t-12 -83q0 -6 -1 -12.5t-3 -16.5z M133 174q20 63 37.5 127t40.5 127q23 61 47.5 122.5t46.5 125.5q-55 -123 -103.5 -246t-68.5 -256zM702 1409q-109 -154 -196.5 -317.5t-165.5 -335.5q86 166 172 330.5t190 322.5z" />
<glyph unicode="8" horiz-adv-x="874" d="M315 -137q-102 0 -184 47q-41 23 -62.5 57.5t-37.5 75.5q-61 160 -4 330q39 117 93 223t136 201q8 12 4 24q-94 238 68 422q57 68 123.5 120t152.5 79q53 16 105.5 20t105.5 -24q29 -16 47.5 -41t18.5 -62q2 -53 -10.5 -102t-30.5 -98q-41 -115 -101.5 -216.5 t-130.5 -199.5q-12 -16 -23.5 -30.5t-23.5 -29.5q-10 -12 2 -24l127 -119q68 -59 109 -139q27 -53 23.5 -107.5t-31.5 -105.5q-76 -143 -193 -220t-283 -81zM139 203q0 -125 47 -209q16 -33 42 -51.5t63 -20.5q35 0 61 8q174 49 271 205q53 86 48 170t-73 160 q-51 59 -107.5 110.5t-111.5 106.5q-14 14 -21.5 11t-17.5 -17q-106 -145 -168 -320q-16 -41 -25.5 -80.5t-7.5 -72.5zM360 954v-24q4 -35 10.5 -40t41.5 3q35 10 73.5 -3t55.5 -40q16 -18 -11 -25q-25 -2 -53 -20q-25 -16 -36 -23.5t-12 -13.5t9.5 -15.5t28.5 -29.5 q16 -16 27 4q74 111 138 223.5t103 241.5q12 39 19.5 79t13.5 81q6 35 -31 26q-14 -4 -27.5 -7t-27.5 -9q-66 -23 -118 -62.5t-97 -91.5q-49 -53 -79 -116.5t-28 -137.5zM98 227q27 135 83.5 254t131.5 232q-82 -111 -142.5 -228t-72.5 -258zM819 1171q-41 -82 -79 -159.5 t-74 -155.5q49 72 87.5 149.5t65.5 165.5zM330 1051l78 147q-31 -31 -51.5 -65.5t-26.5 -81.5zM80 422q-10 -14 -18.5 -38t-14.5 -48.5t-9 -46t-1 -31.5zM770 301l-12 -98q2 -2 6 -2q10 25 15 48t-9 52zM111 403q-6 0 -9 3q-8 -29 -15 -55.5t-17 -55.5q2 -2 8 -2zM303 1147 q-4 0 -8 4l-25 -66q4 0 6 -2z" />
<glyph unicode="9" horiz-adv-x="860" d="M737 1167l-18 -24q-47 -59 -93 -119.5t-96 -120.5q-33 -39 -73.5 -64.5t-87.5 -43.5q-74 -29 -131.5 -16.5t-122.5 75.5q-41 41 -55.5 91t-18.5 106q-2 74 21.5 140t62.5 128q47 76 108.5 135t145.5 96q100 45 198.5 21.5t165.5 -105.5q10 -14 18.5 -30.5t18.5 -32.5 q4 -6 7.5 -12.5t9.5 -10.5q41 -23 56 -61.5t17 -83.5q4 -102 -6 -201.5t-28 -199.5q-51 -289 -158 -570q-33 -86 -71 -167t-91 -152q-23 -29 -47.5 -55.5t-52.5 -51.5q-47 -45 -117 -41q-53 4 -103.5 16.5t-97.5 45.5q-94 61 -71 170q16 80 71 133q14 12 27.5 17t30.5 -11 q4 -4 8 -4t10 -4q-12 -31 -24.5 -61.5t-22.5 -61.5q-10 -29 -12 -56.5t10 -56.5q16 -37 57 -56.5t82 -4.5q37 14 66.5 39.5t52.5 56.5q47 59 78 127t57 139q47 129 86 258t72 265q47 190 67 382v35q-2 0 -3 1t-3 1zM594 1468q-35 -2 -67.5 -8t-61.5 -22q-250 -129 -309 -406 q-8 -31 -3 -64.5t11 -66.5q8 -47 51 -39q57 6 111 31q59 27 108 67.5t86 94.5q53 80 104.5 161.5t104.5 163.5q2 4 3 11.5t-3 11.5q-10 12 -20.5 24.5t-24.5 18.5q-23 10 -45 14t-45 8zM528 29q10 12 26.5 42.5t35 70.5t37 84t33 84t22.5 71t8 43zM516 932q12 8 49 52 t76 98.5t69.5 101.5t32.5 61zM420 1462q-70 -29 -118 -77t-85 -109q45 53 94.5 100t108.5 86zM539 199q2 0 3 -1t3 -1q14 33 26.5 65.5t24.5 67.5q-4 0 -5 1t-3 1zM274 1440l-6 6l-78 -84l7 -6q18 23 37.5 42t39.5 42zM326 1440l-7 6l-73 -72q0 -2 4 -6zM606 264q-4 2 -8 2 l-37 -94q2 -2 6 -2q10 23 19.5 47t19.5 47zM86 18q4 -2 8 -2l19 54q-4 0 -5.5 1t-3.5 1z" />
<glyph unicode=":" horiz-adv-x="333" d="M45 840q-2 20 9.5 41.5t29.5 39t42 27.5t48 4q27 -8 54.5 -15t37.5 -36q10 -31 12.5 -65.5t-20.5 -67.5q-27 -39 -50.5 -47t-68.5 4q-94 29 -94 115zM115 164q-59 2 -86 37t-11 94q12 41 36 71.5t71 39.5q51 10 82 -23q6 -4 10 -14q8 -25 18.5 -49.5t-6.5 -53.5 q-8 -16 -17 -31.5t-19 -31.5q-16 -23 -32.5 -32t-45.5 -7z" />
<glyph unicode=";" horiz-adv-x="278" d="M240 283q4 -80 -33 -138.5t-111 -83.5q-14 -4 -29.5 -2t-31.5 4q-12 2 -12 8.5t10 12.5l28 14q25 14 45.5 31.5t34.5 44.5q10 20 7 24.5t-25 6.5q-18 4 -37.5 7t-38.5 9q-25 10 -34 31.5t-3 46.5q10 31 29 66q20 37 65 36q27 2 51.5 -1t49.5 -19q39 -25 35 -72 q-2 -6 -1 -13t1 -13zM117 944q47 2 83 -21.5t52 -64.5q6 -8 2 -24q-6 -35 -23.5 -62t-40.5 -51q-16 -18 -40.5 -20.5t-48 5t-41 23.5t-21.5 35q-8 41 -4 78t31 71q10 14 22.5 23.5t28.5 7.5zM156 846l-11 6l-24 -66l12 -4q9 29 23 64zM225 825q-2 0 -3 1t-3 1l-22 -51 q4 0 5 -1t3 -1zM201 186h6l12 58q-2 0 -4 2q-4 -16 -7 -30t-7 -30z" />
<glyph unicode="&#x3c;" horiz-adv-x="710" d="M545 -102h-15q-47 -2 -69.5 25.5t-42.5 60.5q-53 92 -106.5 181t-110.5 179q-45 68 -94.5 133.5t-96.5 130.5q-23 31 8 56q111 90 221.5 177t221.5 179q29 23 54.5 48.5t51.5 49.5q33 37 64 10q8 -6 20.5 -8t7.5 -18q0 -2 3 -2q25 -20 24.5 -26.5t-24.5 -29.5l-383 -327 l-132 -109q-20 -14 -2 -35q78 -98 146.5 -202.5t134.5 -212.5q25 -43 48.5 -87t45.5 -89q10 -18 14.5 -39.5t10.5 -44.5z" />
<glyph unicode="=" horiz-adv-x="739" d="M748 389q-12 0 -24.5 -1t-23.5 -1q-96 4 -189 -7t-187 -24q-47 -6 -92.5 -12t-90.5 -14q-35 -6 -65.5 16.5t-44.5 44.5q-8 12 0 17.5t18 7.5q27 4 52.5 8t52.5 8q86 10 172 19.5t174 15.5q45 4 89 4t87 -18q23 -10 42.5 -22.5t29.5 -41.5zM524 784q31 -4 66 -7t69 -9 q29 -6 51.5 -20.5t34.5 -42.5q2 -4 1 -10.5t2 -12.5q-6 2 -11.5 2t-9.5 4q-23 16 -48.5 19.5t-51.5 1.5l-287 -25q-57 -6 -113.5 -12t-111.5 -15q-35 -4 -67 19.5t-48 48.5q-2 2 4 9t10 9q12 4 26.5 5.5t29.5 3.5z" />
<glyph unicode="&#x3e;" horiz-adv-x="485" d="M127 123q-23 -35 -33 -72t-14 -78q-2 -8 -5 -18t-5 -10q-12 2 -24.5 4t-20.5 10q-16 18 -19.5 41t2.5 45q10 35 20.5 68.5t26.5 64.5q53 113 113.5 219.5t130.5 210.5q10 12 9 21.5t-9 19.5q-51 68 -100 134.5t-97 138.5q-29 41 -50 86t-44 92q-12 25 -6 32t33 3 q53 -6 80 -56q57 -109 129.5 -204t146.5 -193l47 -64q23 -25 0 -53q-76 -98 -139 -201.5t-117 -213.5q-18 -37 -31.5 -77t-27.5 -79l-17 -45q-2 -4 -5 -5t-7 -5q-2 4 -5 7t-1 7q4 23 7 44t7 44q4 20 11.5 41t13.5 41z" />
<glyph unicode="?" horiz-adv-x="763" d="M236 -43q2 61 13 118.5t27 114.5q57 209 127 410t150 399q20 47 38.5 94.5t35.5 96.5q6 16 7 36.5t-1 41.5q-6 63 -76 69q-47 4 -91 -7t-85 -34q-180 -90 -225 -282q-6 -27 -3 -50.5t25 -43.5q4 -2 5 -6.5t3 -8.5q-4 -2 -9 -4t-9 -2q-20 4 -41 8t-39 15q-66 31 -53 106 q25 156 145 258q61 53 134 85t157 34q47 0 94 -10.5t88 -36.5q80 -47 103.5 -104.5t1.5 -137.5q-12 -47 -32.5 -94t-39.5 -94l-207 -525q-35 -92 -61.5 -185t-46.5 -189q-10 -47 -11.5 -93.5t2.5 -93.5q0 -10 -2 -15t-16 -3q-20 2 -38.5 2t-35.5 18q-35 37 -34 93v20z M254 -293q25 -4 44 -12t30 -35q4 -8 20 -20q41 -39 25 -74q-10 -23 -35 -38t-47 -13q-49 4 -73.5 31.5t-18.5 78.5q2 27 16 58q10 28 39 24zM322 -92q6 39 9 71.5t11 65.5q33 160 84 313.5t111 307.5q37 96 77.5 189t81.5 189q10 25 17.5 50.5t15.5 52.5q-2 2 -6 2 q-23 -51 -44.5 -102.5t-41.5 -104.5q-47 -123 -95 -245t-93 -246q-33 -96 -60 -192.5t-55 -195.5q-10 -35 -15 -73.5t3 -81.5zM117 1014l57 143q-23 -31 -39 -65.5t-18 -77.5zM682 1110l-8 4l-33 -80q2 0 4 -1t4 -1zM276 47q-2 0 -3 1t-3 1l-12 -102q2 0 4 -1t4 -1 q2 27 4 52t6 50zM625 1081q2 0 4 -1t4 -1l26 72q-2 0 -3 1t-3 1zM291 -31q4 0 6 -2l8 66h-6z" />
<glyph unicode="@" horiz-adv-x="1361" d="M795 600q-23 -33 -44.5 -64.5t-43.5 -62.5q-29 -37 -62 -66.5t-78 -46.5q-39 -12 -78.5 -10t-75.5 18.5t-65 47t-43 76.5q-18 55 -14 111t20 110q35 106 103.5 182t179.5 111q96 29 186 11t176 -71q16 -10 29.5 -25.5t26.5 -31.5q4 -4 4 -10.5v-12.5q-4 0 -10.5 -1 t-10.5 3q-10 4 -20 7.5t-19 11.5q-47 47 -103 55t-116 -2q-117 -20 -189.5 -89t-115.5 -173q-20 -51 -26.5 -104.5t10.5 -106.5q14 -49 34.5 -57.5t63.5 18.5q49 33 86 78t68 94q43 66 83 132.5t80 131.5q16 23 46 26t51 -16q8 -4 12 -8q25 -14 18 -41q-10 -57 -20 -112.5 t-20 -112.5q-8 -59 -6.5 -115.5t24.5 -111.5l10 -19q8 -27 35 -12q37 23 63.5 53.5t49.5 65.5q123 201 120 432q-2 92 -29.5 174t-74.5 158q-23 35 -45.5 65.5t-52.5 59.5q-43 39 -92.5 47t-102.5 -2q-156 -31 -268.5 -120t-198.5 -218q-121 -186 -145 -404 q-31 -250 92 -460q59 -98 143 -155.5t195 -82.5q10 -2 21.5 -4t21.5 -6q35 -10 63 4q8 4 18.5 1t20.5 -5q0 -2 4 -2q2 0 2 -2q10 10 16.5 4t6.5 -15q-2 -8 -7 -16t-14 -10q-14 -4 -28.5 -8.5t-30.5 -1.5q-45 4 -88 11t-86 15q-98 20 -182 67.5t-146 125.5q-70 86 -110.5 185 t-46.5 212q-16 426 272 737q70 76 154 129.5t186 81.5q244 66 424 -108q168 -160 215 -381q25 -109 10.5 -212.5t-59.5 -203.5q-29 -59 -60.5 -113.5t-81.5 -101.5q-53 -49 -117.5 -59.5t-121.5 26.5q-33 20 -53 62q-23 41 -31 87t-8 93v51zM342 1116q-20 -16 -43 -52 t-44.5 -84t-40.5 -102.5t-32.5 -104.5t-18.5 -93t1 -70q10 68 21.5 135.5t39.5 131.5q29 63 58.5 123.5t58.5 115.5zM1229 545q59 102 65 219q-16 -55 -32.5 -109.5t-32.5 -109.5zM389 659l70 146q-60 -60 -70 -146zM131 821q2 0 4 -1t4 -1q8 25 15.5 49.5t17.5 49.5 q-2 2 -8 2q-8 -25 -15.5 -49.5t-17.5 -49.5zM176 860l6 -4l27 74q-2 0 -3 1t-3 1q-8 -18 -14.5 -37t-12.5 -35zM375 725l6 -4q6 12 12 24.5t10 24.5l-6 4q-4 -12 -10 -24.5t-12 -24.5zM895 694q4 0 4 -2l12 66q-2 2 -6 2q-2 -16 -4 -33t-6 -33z" />
<glyph unicode="A" horiz-adv-x="1605" d="M1554 905q-6 0 -8 2q-53 43 -121.5 60.5t-128.5 15.5q-23 0 -28 -25q-23 -150 -44.5 -297t-39.5 -296q-16 -129 -20.5 -257t10.5 -258q2 -25 9 -50t15 -50q10 -27 17.5 -28t25.5 22q70 84 122 176t89 193q47 123 88 246.5t84 246.5q4 14 19.5 21.5t27.5 -0.5q8 -10 4 -25 q-10 -41 -21.5 -81t-23.5 -79q-23 -80 -47 -159.5t-51 -157.5q-78 -221 -227 -399q-18 -23 -43 -36.5t-54 -17.5q-63 -12 -98 43q-23 35 -35 72t-18 76q-16 113 -16.5 224.5t10.5 221.5q16 162 36.5 323t42.5 322q2 16 -4 18.5t-16 0.5l-231 -25q-23 -2 -45.5 -6t-45.5 -6 q-25 -2 -36 -27q-41 -92 -81 -181t-83 -179q-51 -109 -107.5 -212.5t-128.5 -199.5q-20 -29 -44.5 -53.5t-47.5 -50.5q-18 -23 -46 -30t-57.5 -5t-57 13.5t-44.5 27.5q-20 20 -34.5 53t-18.5 70t1 72.5t22 60.5q12 23 38.5 26t42.5 -18q4 -2 3.5 -9t-5.5 -11 q-20 -45 -20 -89t14 -92q18 -53 38 -58t61 32t70.5 82t58.5 90q88 133 154.5 274.5t125.5 286.5l39 92v8q-14 -2 -27.5 -3t-27.5 -5q-29 -8 -57.5 -14t-57.5 -17q-16 -4 -27.5 -3t-21.5 18q-6 18 -18 30q-10 12 -5 17.5t15 9.5q68 23 131 37q29 8 58.5 13t58.5 9q27 2 36 25 q47 102 95.5 203.5t97.5 202.5q45 92 98.5 174t114.5 159q35 47 82 76q27 18 56.5 21.5t56 -6t46 -31t27.5 -53.5q8 -31 10.5 -65t-2.5 -67q-12 -88 -27.5 -175t-29.5 -173q-10 -53 -19.5 -106t-19.5 -107q-4 -18 2 -22t23 -6q33 0 68.5 -9.5t67.5 -25t55.5 -33.5t33.5 -35 q6 -10 11 -20t12 -21q-2 0 -3.5 -1t-3.5 -1zM1286 1763q-2 0 -4 2q-4 20 -8 31q-6 -4 -14.5 -6t-14.5 -6q-12 -10 -25.5 -22.5t-23.5 -24.5q-59 -76 -111.5 -155t-93.5 -165q-43 -90 -85 -179t-83 -181q-8 -20 -10 -31q8 0 16.5 -1t16.5 -1q70 6 138.5 13t137.5 12 q25 2 27 24l80 400q16 72 29.5 144t27.5 146zM1145 -199h2q-4 51 -8 101.5t-6 99.5q-2 221 24 438l70 480l6 55h-6l-6 -29q-14 -86 -29.5 -173t-26.5 -175q-12 -106 -22 -211.5t-17 -212.5q-4 -74 -2 -147.5t6 -147.5q0 -20 5.5 -40t9.5 -38zM1163 946h-8l-61 -434h8z M1010 1513l-6 5q-47 -98 -93.5 -196.5t-93.5 -199.5q2 0 4 -1t4 -1zM1122 487h8q10 72 19.5 145t19.5 146h-8zM1075 -12h-6l8 -105h6q-4 27 -5 52.5t-3 52.5zM1077 260h-6v-51q0 -8 1 -14.5t1 -12.5h4v78zM1071 125h-4v-96h4v96zM1102 59h-2v-112h2v112zM1100 111h2v108h-2 v-108z" />
<glyph unicode="B" horiz-adv-x="1243" d="M180 1106q12 31 23.5 61.5t25.5 61.5q49 115 118 213t161 182q53 45 109.5 79t125.5 48q37 8 75 9t75 -9q35 -10 66.5 -29.5t52 -50.5t28 -73t-7.5 -93q-16 -55 -43.5 -103t-62.5 -93q-147 -186 -342 -340q-23 -16 -47 -41q10 2 16 2h10q63 6 127 -7.5t117 -46t94 -88 t64 -131.5q12 -45 18 -96q2 -23 27 -14q53 20 105 39.5t106 36.5q20 8 40.5 5t36.5 -22q18 -23 -4 -31l-116 -47q-45 -16 -88 -34.5t-86 -38.5q-6 -2 -10.5 -10.5t-4.5 -14.5q0 -104 -31.5 -196.5t-78.5 -182.5q-100 -188 -275 -301q-47 -33 -99 -53.5t-112 -22.5 q-66 -2 -121 18.5t-100 69.5q-20 23 -22.5 50.5t8.5 56.5q14 47 40.5 86t57.5 76q66 74 139.5 137t157.5 119q74 49 150.5 94t154.5 92q20 12 21 37q2 59 -3.5 116.5t-21.5 112.5q-18 59 -59 85t-99 30q-53 4 -106 -2t-105 -23q-49 -16 -97 -32.5t-95 -36.5 q-23 -10 -42.5 -16.5t-41.5 -2.5q-16 4 -21 -18q-10 -63 -19 -125.5t-17 -126.5l-29 -289q0 -20 -4 -26q-4 -4 -11.5 -6.5l-13.5 -4.5q-2 -2 -5 0t-5 0q-10 -10 -31.5 -15t-32.5 3q-6 4 -8 11.5t-2 13.5q-4 55 -7 109.5t-3 109.5q0 100 1 199.5t5 199.5q6 178 25.5 352.5 t50.5 348.5q10 57 19.5 114.5t19.5 114.5q2 10 5 21.5t9 15.5t16.5 2t20.5 -6q66 -16 59 -78l-34 -350q-4 -49 -10.5 -97.5t-12.5 -95.5v-12h6zM205 813l18 10l150 115q117 92 222 190.5t200 210.5q41 49 75.5 102.5t51.5 117.5q8 31 7 59.5t-16 56.5q-20 39 -65 37 q-49 -4 -92 -21.5t-84 -43.5q-104 -70 -179 -164t-133 -205q-45 -86 -74.5 -176t-54.5 -184q-6 -25 -13 -50.5t-13 -54.5zM858 369q-4 4 -8 4q-45 -29 -90 -56.5t-90 -56.5q-90 -59 -171 -124.5t-151 -147.5q-33 -37 -57.5 -78t-34.5 -88q-8 -41 12.5 -60.5t61.5 -9.5 q127 33 231 125q94 82 157.5 182.5t110.5 214.5zM172 1434q-6 -25 -14 -75t-16.5 -112.5t-15.5 -129t-11 -124t-6.5 -98.5t2.5 -51zM33 303q2 258 13 514t46 512q-43 -256 -54 -512t-5 -514zM106 1210q-23 -166 -31.5 -327.5t-8.5 -325.5q10 162 20 324.5t20 328.5zM909 213 l-139 -254q16 12 38.5 45t44 73t37 76.5t19.5 59.5zM967 1440q20 23 32.5 62.5t6.5 62.5q-10 -31 -19.5 -61.5t-19.5 -63.5zM829 182q-2 0 -6 4l-55 -104l8 -4q12 27 25.5 52t27.5 52zM782 41q2 0 6 -4l56 100l-6 4zM223 -147q4 0 8 -5q10 23 20.5 43.5t20.5 40.5q-4 4 -6 5 z" />
<glyph unicode="C" horiz-adv-x="1013" d="M27 518q0 199 49 385.5t137 366.5q41 86 97.5 162.5t131.5 138.5q45 37 93.5 64.5t103.5 43.5q39 10 79 5t76.5 -22t66.5 -46t48 -66q20 -41 30.5 -83t-5.5 -89q-4 -10 -10 -20t-13 -21q-10 8 -21 14.5t-20 16.5q-6 4 -7 12.5t-3 16.5q-2 23 -2 45t-4 45q-4 20 -11 40.5 t-16 39.5q-8 16 -22 22t-31 8q-57 2 -105 -20.5t-94 -50.5q-80 -53 -134 -125t-97 -156q-115 -221 -160 -463q-20 -104 -20 -209.5t12 -212.5q8 -74 22.5 -144.5t39.5 -139.5q31 -92 98 -166q72 -76 168 -27q57 31 103 75t87 91q100 115 173 243t134 263l15 29q6 16 16 19 t25 -1q35 -8 24 -43q-55 -154 -122.5 -301t-174.5 -276q-29 -33 -58.5 -63t-63.5 -56q-53 -41 -113 -52.5t-125 -7.5q-115 8 -188.5 68.5t-122.5 159.5q-41 82 -54.5 168t-23.5 174q-4 37 -5 72.5t-3 72.5zM498 1511q-88 -68 -140.5 -158.5t-95.5 -189.5q47 96 102.5 185 t133.5 163z" />
<glyph unicode="D" horiz-adv-x="1398" d="M109 154v16t-3 18l-6 -10q-10 -25 -20 -26.5t-37 0.5q-35 4 -38 20t-3 35q0 127 -2 251t4 251q4 111 13.5 221t23.5 221q8 63 22.5 124.5t28.5 125.5q4 10 8 21.5t9 21.5q2 4 7 9t9 3q23 -8 44 -16t38 -29q4 -6 6 -15.5t2 -19.5q-4 -37 -7 -74.5t-5 -74.5 q-4 -74 -8.5 -146.5t-8.5 -146.5q-4 -59 -3 -119.5t-1 -120.5v-30h6l13 24q82 164 158.5 329t175.5 320q55 88 117.5 170t140.5 154q47 41 97 76t111 55q31 8 63 5t60.5 -15.5t52 -31.5t37.5 -42q29 -45 43.5 -92t18.5 -98q10 -111 0 -216.5t-33 -209.5 q-29 -139 -59.5 -275.5t-59.5 -275.5l-6 -25l45 23q57 27 113.5 54.5t116.5 53.5q18 8 38.5 8t38.5 -12q29 -16 -2 -31l-82 -37q-76 -35 -146.5 -77.5t-137.5 -89.5q-16 -12 -23 -33q-16 -53 -31.5 -106.5t-31.5 -106.5q-41 -121 -89 -235.5t-114 -223.5q-35 -53 -75 -100 t-99 -78q-47 -23 -96 -31t-103 6q-43 10 -61.5 42t-28.5 69q-12 49 -3 95t26 93q29 84 80 151.5t110 129.5q74 76 152 142.5t164 127.5q29 23 36 51q45 195 91.5 387.5t89.5 387.5q20 90 34.5 181t16.5 183q0 39 -5 76t-9 76q-6 29 -39 22q-45 -10 -82 -32.5t-72 -51.5 q-72 -61 -131 -134t-115 -150q-80 -113 -143.5 -233t-128.5 -243q-59 -111 -114.5 -223t-96.5 -231q-20 -59 -34.5 -117.5t-31.5 -118.5q-4 -14 -11 -22t-25 -4zM864 225q-12 -6 -16 -10q-78 -66 -148.5 -135.5t-132.5 -149.5q-35 -49 -62.5 -102t-41.5 -113 q-10 -39 -8 -75.5t24 -71.5q14 -20 26.5 -23.5t33.5 13.5q41 29 70.5 67.5t54.5 83.5q66 119 111.5 244t86.5 254q2 4 2 18zM391 883q43 80 84 160.5t88 158.5t98.5 151.5t102.5 151.5q-23 -18 -57.5 -65t-74.5 -108.5t-81 -130t-76 -132t-57.5 -113.5t-26.5 -73zM1049 477 q2 -2 4 -2t6 -2q14 29 20 60.5t15 64.5q10 33 16 65.5t14 65.5q8 35 15.5 66.5t13.5 64.5l29 129q-4 2 -8 2zM975 487q6 0 8 -2q27 109 52.5 215.5t49.5 214.5q-6 0 -8 3zM1106 829q-4 0 -5 1t-5 1l-92 -382q2 -2 8 -3q25 96 48 191.5t46 191.5zM31 254h10q4 72 3 145.5 t-5 145.5zM1024 344q-4 0 -5 1t-5 1q-10 -41 -21.5 -80t-23.5 -80q6 0 8 -2zM430 -293h-8v-76h4q0 20 1 39t3 37zM322 758l43 69q-4 4 -9 4zM322 758l-39 -72l10 -4q6 18 13.5 37t15.5 39zM125 514h4v70h-4v-70z" />
<glyph unicode="E" horiz-adv-x="1349" d="M322 780q-51 16 -92.5 42t-75.5 59q-66 61 -86 147q-41 150 -3.5 279t136.5 243q119 141 284 205q53 23 109.5 34t114.5 -5q61 -14 120 -51q23 -12 44.5 -24.5t37.5 -39.5q14 -23 16.5 -29t-12.5 -26q-111 -166 -141 -363q-4 -23 -2 -43t4 -43q0 -16 -3 -19t-19 3 q-57 29 -60 88q-4 53 5.5 105.5t25.5 103.5q16 53 35.5 103t40.5 104q4 12 4 18t-17 10q-59 10 -112 -1t-105 -35q-154 -76 -249 -193t-123 -289q-10 -66 0 -130t45 -124q23 -37 59.5 -58.5t81.5 -19.5q37 2 74 9.5t71 13.5l72 14l53 17q16 4 37 0t31 -17q12 -16 -6 -30 l-41 -21q-18 -6 -8 -24q10 -16 8 -20.5t-23 -6.5q-37 -4 -73.5 -7t-71.5 -20q-43 -18 -78 -47.5t-70 -62.5q-78 -74 -118.5 -165t-57.5 -196q-16 -88 -23 -175t-1 -175q4 -80 15 -160t44 -153q14 -33 41 -60.5t59.5 -46t68.5 -26t67 1.5q59 14 111 40.5t100 63.5 q117 88 199.5 199.5t152.5 234.5q76 137 147.5 274.5t145.5 276.5l20 40t21 40q16 27 55 8q16 -8 14 -17t-6 -20q-27 -55 -53.5 -111.5t-54.5 -109.5q-53 -104 -106.5 -205.5t-108.5 -203.5q-68 -127 -150 -241t-194 -206q-78 -63 -165 -99t-192 -26q-68 8 -129 33 t-109.5 67t-81 100t-44.5 132q-10 61 -17.5 122.5t-9.5 123.5q-2 78 5 154.5t26 152.5q14 55 29.5 109.5t37.5 107.5q57 137 183 234zM197 1331q43 82 100 150.5t129 128.5q-80 -51 -139 -119t-90 -160zM190 459q35 66 78 122t94 109q-127 -92 -172 -231zM303 1554 q-74 -59 -108 -143zM227 1522q-12 -8 -26.5 -25.5t-27.5 -38t-22.5 -40t-11.5 -32.5zM176 526q4 -4 8 -4l70 103l-8 4zM225 645q-59 -57 -84 -129q20 33 40.5 64.5t43.5 64.5zM893 1638q-4 4 -6 4l-43 -73l4 -4q12 18 23.5 36.5t21.5 36.5z" />
<glyph unicode="F" horiz-adv-x="1146" d="M2079 1815l-64 6q-100 14 -198.5 10t-196.5 -8q-78 -4 -156 -7.5t-155 -7.5q-94 -4 -186.5 -11t-186.5 -11q-31 0 -43 -29q-43 -78 -72.5 -162t-52.5 -170q-25 -90 -42 -180t-38 -182q-4 -20 0 -24.5t27 -0.5q47 4 94 4t94 -14q57 -16 97 -51t55 -94q4 -10 3 -18.5 t-1 -16.5l-6 -4q-8 10 -15.5 19t-11.5 20q-12 39 -41 54t-63 21q-59 10 -117 4t-117 -16q-4 -2 -10 -8t-6 -12q-8 -55 -13.5 -110.5t-11.5 -110.5q-20 -193 -37.5 -383.5t-58.5 -380.5q-14 -63 -31.5 -125t-46.5 -121q-10 -23 -20 -39q-20 -39 -50 -58.5t-63 -26.5t-66.5 -2 t-60.5 15q-31 14 -46 40t-26 57q-18 53 -17 106t11 107q20 100 50 196t79 189q16 33 40 63.5t48 58.5q23 25 51.5 31t59.5 2q16 -4 20 2t6 21q10 106 22.5 211.5t25.5 214.5q4 23 -1.5 27.5t-27.5 -3.5q-53 -18 -104.5 -35.5t-102.5 -35.5q-23 -10 -33 6q-6 12 -14 23.5 t-16 21.5q-10 12 -5 19t15 12q25 12 49 23t49 20q47 14 93 25t93 24q25 6 29 28q29 186 74 364.5t123 352.5q0 2 6 19q-35 -4 -66.5 -5.5t-64.5 -3.5q-72 -4 -144.5 -10t-144.5 -8q-80 -4 -150.5 20.5t-125.5 87.5q-16 16 -26.5 37t-23.5 41q-2 4 0 11.5t4 13.5 q6 -2 11.5 -2t9.5 -4q8 -6 15 -13.5t12 -17.5q16 -35 45.5 -49t66.5 -17q47 -2 93 -1t94 4q45 0 89 3t89 5q141 8 282.5 17t284.5 15q166 8 329 13.5t328 9.5q41 2 84 -1t86 -7q61 -6 113 -47q10 -10 16.5 -21.5t14.5 -21.5q0 -4 -4 -8zM225 -186q-2 -53 9.5 -98.5 t31.5 -77.5q18 -25 35 -3q16 29 33.5 56.5t30.5 56.5q33 84 50 170t29 174q10 68 17.5 135.5t15.5 137.5q0 8 -8 28q-6 -2 -14.5 -4t-14.5 -6q-14 -12 -27.5 -25.5t-23.5 -29.5q-35 -47 -56.5 -97.5t-37.5 -103.5q-29 -80 -46.5 -158.5t-23.5 -154.5zM602 653 q-29 -211 -51.5 -419.5t-71.5 -415.5q31 102 50.5 205.5t32.5 209t21.5 211t18.5 209.5zM244 68q-23 -72 -39.5 -142.5t-11.5 -146.5l24 158q6 33 14.5 64.5t14.5 64.5q8 18 14 36.5t12 36.5q-2 2 -8 2q-4 -18 -9 -36.5t-11 -36.5zM475 104h6q10 66 17.5 131.5t15.5 131.5 h-6q-10 -66 -17.5 -131.5t-15.5 -131.5zM502 84q6 0 8 -2l27 217h-7z" />
<glyph unicode="G" horiz-adv-x="1376" d="M1018 725l-60 -74q-76 -98 -155.5 -189t-171.5 -177q-49 -47 -104.5 -83t-118.5 -61q-35 -12 -83.5 -14t-96.5 9t-92 34t-70 59q-33 41 -48.5 90.5t-21.5 100.5q-12 98 -4 195.5t24 195.5q37 227 125 436q78 190 194 349t279 284q61 47 127 82t142 57q39 10 80 4 t77.5 -24.5t65.5 -47t43 -63.5q45 -100 8 -196q-16 -47 -38.5 -93.5t-45.5 -93.5q-8 -16 -16 -24q-4 -4 -10.5 -3t-10.5 -1q0 4 -1 9t-1 9q4 4 4 10q-18 -18 -41 0q-10 10 -14 20.5t2 26.5q23 59 42.5 118t25.5 122q4 23 3 45.5t-5 44.5q-2 23 -9.5 29t-29.5 2 q-25 -6 -50.5 -12.5t-48.5 -16.5q-80 -33 -147.5 -82t-128.5 -108q-139 -133 -231.5 -292t-153.5 -339q-80 -238 -98 -488q-4 -66 -5.5 -129t11.5 -129q4 -23 12 -43t18 -41q23 -47 76 -36q49 10 91 31.5t83 50.5q86 57 154 128.5t133 147.5q66 78 130.5 153.5t129.5 153.5 q23 29 58.5 30t64.5 -22t40 -51t11 -63q0 -59 -3 -121t-5 -121l-4 -59q4 0 6 -2l78 63l156 111q45 33 94 0q18 -14 -4 -33q-23 -18 -46.5 -36.5t-48.5 -35.5q-66 -45 -124 -96t-111 -109q-10 -10 -14 -30q-8 -111 -18.5 -218.5t-31.5 -213.5q-20 -115 -47.5 -225.5 t-76.5 -217.5q-39 -86 -99.5 -148.5t-150.5 -97.5q-23 -10 -48.5 -14t-48.5 -6q-72 -4 -110.5 33t-42.5 108q-2 63 11 123t36 119q78 209 194.5 391t264.5 348q20 20 20 51l35 371q2 8 2 16.5v16.5q-2 2 -6 2zM971 102q-4 0 -6 2q-8 -8 -11 -12q-100 -133 -185 -273.5 t-144 -295.5q-23 -59 -38.5 -117.5t-8.5 -122.5q2 -18 9 -35.5t13 -33.5q10 -23 31 -7q25 16 49.5 33t46.5 39q53 53 84 117.5t53 134.5q29 92 47.5 184t32.5 187q8 49 14.5 99t12.5 101zM195 1042q80 236 210 436.5t330 356.5q-109 -72 -192.5 -160t-148 -188.5 t-113.5 -213t-86 -231.5zM991 -383q10 23 23.5 74t25 115.5t22.5 136t18 134t9.5 108.5t-2.5 61q-10 -80 -20 -159t-23 -157q-10 -78 -24.5 -156.5t-28.5 -156.5zM213 1307q29 47 55.5 96t57.5 96t64.5 93t68.5 96q-29 -25 -69 -77t-78 -111.5t-65.5 -112.5t-33.5 -80z M569 1749q-61 -55 -118.5 -121.5t-102.5 -146.5zM1018 152q-6 0 -10 2q-10 -74 -19.5 -148t-19.5 -149h8zM1001 -154h11l37 289q-2 0 -3.5 1t-3.5 1zM549 -614q-8 -27 -13.5 -53.5t5.5 -55.5h8v109zM199 1270q-2 0 -3 1t-3 1l-31 -74q2 0 3 -1t3 -1zM1110 469q-4 0 -4 2 q-4 -14 -5 -27.5t-3 -27.5q2 -2 6 -2z" />
<glyph unicode="H" horiz-adv-x="1847" d="M1184 412q6 117 19.5 230.5t33.5 227.5q2 8 2 16.5v18.5q-10 -2 -19.5 -3t-19.5 -5q-51 -20 -101 -39.5t-104 -38.5q-27 -10 -32 -43q-31 -152 -68 -300t-98 -290q-37 -84 -77 -164.5t-81 -158.5q-88 -162 -250 -228q-131 -53 -262 -18q-59 16 -88 55t-37 97 q-10 78 5.5 150.5t43.5 143.5q53 135 138 250t190 217q84 84 174 155t195 128q8 4 10 4q37 10 50 36t17 60q12 123 27.5 247t26.5 247q10 88 8 174t-19 172q-4 31 -12 61.5t-20 59.5q-27 59 -66 79.5t-104 12.5q-86 -10 -156 -52t-129 -104q-20 -23 -34.5 -48t-20.5 -54 q-4 -23 -21 -12q-53 29 -60 57.5t11 71.5q8 16 17.5 32.5t21.5 30.5q98 121 237 162q90 27 168 0q115 -35 184.5 -108.5t102.5 -186.5q33 -115 40 -229.5t-3 -231.5l-33 -348q-2 -20 1 -22t22 4l229 69q20 6 27 27q41 172 95 338t112 332q49 141 104 282q14 35 29.5 37 t44.5 -20q23 -20 32 -42t-1 -55q-41 -135 -80 -269t-78 -269l-86 -301q-8 -31 22 -31q37 -4 70 -14.5t57 -38.5l6 -6q10 -16 13.5 -37t-6.5 -19q-14 2 -31 6.5t-21 14.5q-12 29 -31.5 33t-41.5 2q-6 0 -12.5 -1t-12.5 -1q-37 0 -43 -39q-12 -104 -28.5 -207t-26.5 -207 q-8 -78 -9 -153.5t-1 -153.5q0 -61 8 -123t26 -121l15 -35q10 -23 17 -24.5t24 20.5q35 47 70.5 96.5t64.5 102.5q41 72 79 146.5t79 148.5q23 43 50 84l54 82l12 16t15 16q10 8 29.5 8.5t23.5 -10.5q6 -8 -2 -24q-16 -31 -32.5 -61.5t-31.5 -61.5q-35 -76 -68.5 -150.5 t-70.5 -148.5q-33 -66 -68.5 -130.5t-78.5 -123.5q-45 -59 -96.5 -74.5t-112.5 4.5q-35 12 -56.5 37t-38.5 53q-29 53 -42 108.5t-17 113.5q-6 66 -8 129t-6 129zM786 709q-20 -10 -24 -15q-31 -23 -62.5 -43t-60.5 -43q-121 -98 -224.5 -208.5t-181.5 -245.5 q-39 -68 -66.5 -138.5t-41.5 -148.5q-8 -41 -7 -80t19 -80q33 -66 96 -47q27 8 52.5 19.5t50.5 25.5q59 37 102 88t76 113q162 303 238 637q10 39 17 79t17 87zM758 209q12 16 28.5 61t35 104.5t37 125t31.5 123t19 100.5t2 55q-35 -145 -68.5 -287.5t-84.5 -281.5zM834 727 q-4 0 -7 2q-23 -86 -42 -172t-40 -172q31 84 52 169t37 173zM768 340q2 0 4 -1t4 -1l80 309q-2 2 -8 2zM129 23q-12 -20 -23.5 -52t-17.5 -65t-8 -61.5t2 -43.5zM1321 621q-2 -4 -4 -7.5t-4 -7.5q-4 -35 -6 -66.5t-4 -66.5q-2 -4 -1 -9t1 -9l4 2q4 41 7 82t7 82zM385 1860 l-4 4q-16 -14 -30.5 -29.5t-18.5 -38.5zM1321 621l18 143q-4 -8 -6 -15.5t-4 -15.5q-4 -29 -5 -56t-3 -56zM20 -176h7l12 78q-2 2 -6 2zM51 -172h6l9 66h-7q-2 -16 -3 -33t-5 -33zM1298 227l2 2v164h-2v-166z" />
<glyph unicode="I" horiz-adv-x="645" d="M766 1798q-16 2 -29.5 4t-25.5 0q-39 -4 -77 -9t-75 -11q-4 -2 -10 -6t-6 -9q-8 -33 -13.5 -65.5t-13.5 -65.5q-47 -186 -86 -372.5t-72 -376.5q-25 -147 -49 -292.5t-47 -293.5q-10 -66 -17 -133.5t-16 -134.5q0 -12 1 -24.5t-5 -22.5q-4 -4 -17 -3t-24 -1 q-35 -2 -50 10t-13 47q2 141 5 279.5t24 277.5q33 223 77.5 440t98.5 434q16 66 34.5 129.5t36.5 129.5q4 16 0 18t-16 -2q-6 -2 -12.5 -2t-10.5 -4q-31 -10 -50 3t-36 36q-16 23 11 28q29 6 54 13.5t54 11.5q63 8 127 16t129 15q47 4 75 -11.5t44 -52.5zM362 -31h41t37 -16 q16 -14 0 -25q-20 -10 -37 -10q-88 -10 -174 -23.5t-172 -37.5q-8 -2 -22.5 1t-28.5 9t-26.5 13t-16.5 16q-2 4 1 11t7 9q10 4 22.5 8t24.5 6l344 45v-6zM262 1026l-6 -12q-18 -104 -36.5 -206.5t-35.5 -207.5q-12 -74 -17 -149.5t-13 -151.5q-4 -35 -5.5 -68.5t-3.5 -68.5 q-2 -31 -1 -61.5t1 -61.5q4 6 4.5 12t2.5 12q4 76 5 152t11 152q14 123 31.5 244.5t36.5 244.5q6 43 13 85t15 83q4 18 8 35.5t9 36.5h-9q-2 -16 -4 -35t-6 -35zM197 31q23 279 67.5 551t93.5 546q-66 -274 -107.5 -545t-53.5 -552zM188 244l11 114l57 418q4 35 11 66.5 t12 64.5q-10 -14 -11 -26q-16 -86 -31.5 -172t-27.5 -174q-10 -76 -15.5 -152t-11.5 -152zM172 106q-2 -14 -1 -27t1 -30q2 2 8 2v158q-4 -25 -5 -50.5t-3 -52.5z" />
<glyph unicode="J" horiz-adv-x="1456" d="M1206 551l162 61q23 8 47.5 15.5t46.5 11.5q14 4 29.5 -1t30.5 -9q10 -4 12 -11.5t-14 -11.5q-41 -14 -79 -27.5t-77 -29.5q-43 -18 -86 -40t-84 -44q-6 -4 -10 -12.5t-8 -16.5q-37 -123 -72 -242.5t-76 -242.5q-84 -250 -215 -479q-43 -78 -95 -150t-116 -135 q-96 -98 -223 -117q-88 -10 -146.5 41t-62.5 148q-4 82 13.5 159.5t49.5 151.5q51 123 124 230.5t159 207.5q92 111 196.5 203t221.5 176l6 6q47 18 64.5 54t25.5 81q23 123 46.5 246t41.5 246t18.5 246t-26.5 245q-14 70 -43 130.5t-82 111.5q-39 39 -85 52.5t-97 9.5 q-217 -20 -367.5 -131t-253.5 -295q-29 -49 -47 -101.5t-18 -111.5q0 -35 1 -71t17 -69q10 -20 24.5 -37.5t26.5 -35.5q6 -8 9.5 -16.5t7.5 -16.5q-10 2 -18.5 1t-16.5 3q-72 33 -114 87t-52 132q-10 88 14.5 167t65.5 153q61 117 150.5 202.5t203.5 147.5q72 39 149 61.5 t158 20.5q207 -6 355 -166q72 -78 112.5 -172t61.5 -201q16 -96 17 -190.5t-13 -190.5q-16 -104 -34.5 -208.5t-35.5 -209.5v-16zM975 315q-20 -10 -27 -16q-55 -49 -112.5 -98t-110.5 -103q-98 -98 -182 -206.5t-150 -231.5q-39 -72 -68.5 -148.5t-37.5 -160.5 q-4 -45 -1 -88t27 -84q29 -47 53.5 -51.5t65.5 30.5q53 43 94 94.5t78 106.5q63 98 111.5 200.5t89.5 209.5q49 129 89 258t75 262zM1225 956l-86 -438q6 4 15 34t19.5 74t20.5 95t17.5 98t11.5 84t2 53zM1061 510q2 -2 6 -2q27 106 47.5 211.5t30.5 214.5zM1098 506 q4 0 5 -1t5 -1l63 321q-4 0 -8 2zM248 1563q-94 -104 -142 -244zM1051 182q2 0 3 -1t5 -1q16 59 33.5 118.5t35.5 119.5l-12 4zM256 -623q-8 -35 -12 -71.5t12 -71.5v143z" />
<glyph unicode="K" horiz-adv-x="1185" d="M244 1759l20 8q0 -6 2 -11t0 -11q0 -10 -3 -17.5t-1 -17.5l14 37q6 14 17 6q2 -4 5 -6t1 -6q-12 -63 -25.5 -126t-23.5 -128q-16 -92 -30.5 -184.5t-29.5 -184.5q-8 -59 -14 -116.5t-12 -116.5q-4 -41 -7 -84t-7 -86q-8 -145 -14.5 -289.5t-12.5 -290.5q-4 -57 -4 -112.5 t-2 -112.5q0 -10 2 -14q2 -2 6 -2q2 12 5 25t5 26q6 186 12.5 368.5t16.5 366.5q10 154 26.5 305.5t34.5 304.5q12 94 30.5 186.5t35.5 184.5l10 55q2 10 14 27q4 -8 11.5 -16.5t9.5 -16.5q0 -18 -2 -36.5t-6 -35.5q-16 -100 -32.5 -198.5t-29.5 -198.5 q-14 -98 -24.5 -196.5t-16.5 -196.5q-10 -139 -16 -276.5t-12 -276.5l-11 -195v-26q4 6 7.5 8t5.5 6q86 186 185 360.5t208 348.5q86 135 177 266t189 258q31 37 65 69.5t69 65.5q53 49 110 10q10 -6 17.5 -14t15.5 -18q2 -4 0 -10.5t-6 -8.5q-57 -31 -100.5 -77t-84.5 -95 q-115 -139 -216 -283.5t-197 -295.5q-41 -66 -80 -131.5t-80 -131.5q-8 -14 -7 -21t17 -15q49 -25 79 -67t46 -91q23 -61 38 -124l30 -126q16 -72 27.5 -143.5t27.5 -143.5q8 -33 20.5 -62.5t24.5 -62.5q2 2 8 2q4 6 7.5 12.5t5.5 12.5l123 377l196 571q14 35 29.5 71 t32.5 73l6 10q10 16 21 16t26 -4q16 -4 15 -14t-5 -21q-29 -82 -56.5 -162.5t-52.5 -162.5q-47 -154 -92 -304.5t-92 -304.5q-14 -47 -31.5 -91t-33.5 -89q-16 -47 -53 -61.5t-85 -10.5q-49 4 -78.5 35t-52.5 70q-33 57 -48 117.5t-27 122.5q-20 98 -39 197t-41 198 q-4 25 -13.5 49.5t-17.5 48.5h-10l-49 -90q-66 -129 -119 -261t-80 -274q0 -4 -1 -5t-1 -3q-2 -12 -3 -26.5t-7 -18.5q-18 -6 -39 -11t-43 -3q-33 2 -40 11t-16 46q-16 82 -17 163t-1 163q2 88 3 175t5 175q8 160 16.5 316.5t22.5 316.5q12 166 41 327.5t74 321.5 q10 33 21.5 64.5t23.5 64.5q8 18 15 19.5t18 -13.5q-10 -29 -19.5 -54.5t-15.5 -53.5q-31 -133 -59.5 -264.5t-41.5 -266.5q-10 -127 -22 -252t-23 -254q-8 -117 -11 -233.5t-7 -232.5q-4 -117 -5 -234t11 -233l6 -27q6 4 6 10q-4 68 -9 136.5t-3 136.5q2 125 8 249.5 t11 249.5q4 143 12 286.5t22 287.5q16 152 41 299t62 295q10 39 20.5 76.5t20.5 76.5zM143 1055q-8 -45 -16 -125t-15.5 -182.5t-13.5 -218t-10 -231.5t-7 -223.5t-3 -193.5t2 -143t8 -70q0 695 55 1387zM125 426q-2 0 -3 1t-3 1l-13 -350h5zM172 434l-6 -164q0 -12 2 -18h4 l6 205q-6 -13 -6 -23zM659 -240q2 0 3.5 1t3.5 1l-13 74q-2 0 -3 -1t-5 -1q4 -18 7 -37t7 -37zM170 217h-10v-86q2 20 4 41.5t6 44.5zM160 113l-6 -101h6v101zM102 -106h2v141h-2v-141zM182 618h4v70h-4v-70zM127 549h-2v-72h2v72zM184 561h-4v-31q0 11 4 31z" />
<glyph unicode="L" horiz-adv-x="1349" d="M1835 -633l-6 12q-23 20 -27 45t-2 54q2 45 -16.5 65.5t-65.5 36.5q-100 35 -203.5 54.5t-211.5 27.5q-76 4 -151 8t-151 0q-115 -6 -227 -19t-227 -24q-92 -10 -182.5 -17t-182.5 3q-90 12 -157 82q-12 14 -23 43q-4 10 1 15t15 -1q55 -29 113.5 -28.5t116.5 6.5 q84 10 166 22t166 23q25 2 26 28q27 145 51.5 290t57.5 290q29 129 71.5 252t90.5 246q6 16 12 39l-60 -21q-84 -29 -166.5 -47t-170.5 -23q-53 -2 -106.5 7.5t-106.5 25.5q-14 4 -26.5 12.5t-25.5 18.5q-4 4 -5 9t-5 9q6 4 11 6.5t12 2.5q23 -2 45 -5.5t45 -3.5 q57 4 114.5 7.5t112.5 13.5q94 16 184 46t179 66q27 10 38 39q61 143 143.5 271.5t186.5 244.5q43 47 90 88.5t105 71.5q80 39 157 -2q37 -18 58.5 -57t11.5 -88q-10 -41 -26.5 -78t-38.5 -74q-80 -129 -193 -221t-242 -166q-8 -4 -15 -9t-17 -9q-41 -14 -62.5 -42 t-36.5 -67q-51 -135 -102 -266t-100 -266q-47 -129 -84 -262.5t-66 -268.5q-4 -16 -7 -30.5t-7 -30.5t1 -20.5t19 -2.5q68 4 134.5 7.5t133.5 0.5q137 -4 272.5 -15t270.5 -46q59 -16 116.5 -37.5t106.5 -60.5q45 -35 75 -79t34 -101q4 -31 -4 -56t-37 -45zM1202 1196 q2 0 4 1t4 1h2q86 51 163 111.5t136 140.5q35 47 61.5 98t37.5 111q2 6 -2 22q-4 -2 -10.5 -2t-10.5 -4q-29 -23 -55.5 -44t-50.5 -46q-74 -78 -135.5 -162t-114.5 -176zM766 207l133 393q35 96 73 192.5t75 194.5q-10 -6 -34 -58t-54.5 -129t-63.5 -169t-60.5 -176 t-46 -151.5t-22.5 -96.5zM1106 1143l10 -6q37 61 74 122.5t78 120.5t86 116.5t90 115.5q-106 -102 -188 -220t-150 -249zM991 954q-4 4 -10 4l-104 -274l8 -4zM1053 1114q2 0 6 -4q37 68 73.5 134.5t75.5 131.5q-47 -61 -84.5 -126.5t-70.5 -135.5zM1006 1085l133 254 q-41 -59 -75.5 -121.5t-57.5 -132.5zM944 934q-4 0 -5 1t-5 1l-51 -135l6 -4zM1579 1427l6 -4q23 31 42.5 62t29.5 67z" />
<glyph unicode="M" horiz-adv-x="1916" d="M856 870q27 55 52.5 110.5t54.5 111.5q72 139 147.5 276t173.5 262q47 59 103.5 106.5t128.5 80.5q37 16 74.5 15t69.5 -16.5t55.5 -47t31.5 -76.5q12 -55 12 -111.5t-4 -112.5q-10 -176 -49 -348t-68 -346q-29 -160 -58.5 -319.5t-55.5 -321.5q-14 -92 -24.5 -185 t-20.5 -186l-13 -120q0 -8 7 -13q2 6 10 19q55 135 108.5 266t110.5 264q45 102 91 200.5t93 199.5l29 63q6 12 23.5 16.5t31.5 -4.5q16 -10 12 -20t-8 -21q-47 -111 -97 -221t-97 -223q-41 -98 -76 -194.5t-74 -194.5q-25 -59 -50.5 -116.5t-51.5 -117.5q-35 -84 -123 -90 q-20 -2 -30.5 6.5t-16.5 24.5q-16 33 -20.5 67.5t-4.5 71.5q-4 111 4.5 217.5t24.5 216.5q27 174 54.5 345t58.5 346q25 135 54.5 269t53.5 271q16 92 29.5 185.5t27.5 185.5q2 18 0 37.5t-4 38.5q-2 29 -10 33t-33 -7q-45 -20 -84 -46.5t-73 -61.5q-59 -61 -108.5 -131 t-90.5 -144q-59 -100 -116.5 -199.5t-110.5 -203.5q-53 -109 -104.5 -216.5t-86.5 -223.5q-10 -31 -15 -62t-11 -59q-2 -10 -4.5 -19.5t-6.5 -19.5q-2 -4 -9 -6t-11 -2t-7 6t-1 10q2 14 4 27.5t0 29.5l-15 -49q-4 -12 -6 -12t-16 -4q-12 -6 -29 -2q-20 4 -24 15t-4 26 q-2 39 0 78q8 98 16 194t20 195q8 76 21.5 151.5t23.5 151.5q10 80 16.5 158.5t12.5 158.5q2 10 -2 18.5t-6 18.5q-8 -4 -15.5 -9t-15.5 -11q-66 -59 -115 -130t-94 -147q-121 -205 -215 -418t-161 -440q-10 -29 -16.5 -56.5t-14.5 -56.5q-6 -35 -31 -12h-6q-10 0 -18.5 -2 t-16.5 2q-14 4 -24.5 11.5t-10.5 27.5q-4 41 -8 80t-4 80q0 121 6 241q8 135 29.5 267.5t56.5 263.5q23 84 48.5 165t49.5 163q8 23 25 32q6 4 16.5 -1t18.5 -9q37 -23 47 -39t0 -57q-20 -98 -38.5 -195.5t-35.5 -195.5q-16 -86 -26.5 -171t-22.5 -171q-2 -12 4 -33l15 33 q66 158 140.5 308t166.5 294q41 63 86 119.5t100 105.5q78 76 156 -8q35 -37 47 -83t10 -93q-2 -74 -7 -147.5t-11 -145.5q-4 -53 -12.5 -104.5t-16.5 -104.5v-23h4zM1432 -236q43 377 116.5 750t139.5 746q-86 -373 -153.5 -744t-102.5 -752zM1620 1272q-8 -18 -22.5 -82 t-33 -151t-38 -183t-34.5 -180t-23.5 -141.5t-6.5 -65.5q39 201 78 399.5t80 403.5zM1479 385q2 -2 6 -2l123 661q-41 -166 -70.5 -329.5t-58.5 -329.5zM782 721q4 0 9 -2l20 174h-6zM696 516q2 0 3 -1t3 -1q2 29 3.5 58.5t5.5 58.5q-2 0 -3 1t-3 1zM1425 -455h9l-4 58 q-2 -2 -9 -2q2 -14 3 -28t1 -28z" />
<glyph unicode="N" horiz-adv-x="1632" d="M96 8q-4 -10 -8 -17t-18 3q-2 2 -7.5 -3t-7.5 -3q-10 10 -22.5 6t-24.5 -2q-4 0 -6 9t-2 15q2 74 12 148q14 113 27.5 225.5t30.5 224.5q14 98 28.5 192.5t30.5 192.5q14 86 27.5 172t29.5 172q10 51 22.5 100.5t22.5 100.5q6 29 37 19q12 -6 26.5 -7.5t24.5 -7.5 q45 -31 39 -86q-16 -147 -32.5 -293.5t-32.5 -294.5q-4 -25 -6 -48t0 -50l22 43q88 178 186.5 347t221.5 327q86 115 184 215t215 186q27 20 56.5 36t60.5 28q55 25 111.5 10.5t97.5 -59.5q39 -43 53 -93.5t16 -107.5q2 -80 -8 -160t-26 -157q-29 -131 -58.5 -261.5 t-56.5 -261.5q-27 -133 -50.5 -266t-43.5 -268q-23 -139 -39.5 -278.5t-32.5 -280.5q-4 -29 -6 -56.5t-4 -56.5l6 -4q12 12 16 20q41 78 85 154t79 156q68 150 131.5 299t128.5 301q12 29 28.5 36t45.5 -3q6 -6 6 -19q-10 -37 -22.5 -72.5t-24.5 -72.5 q-53 -158 -118.5 -309.5t-137.5 -301.5q-27 -55 -56.5 -107t-64.5 -104q-59 -90 -174 -79q-49 4 -61 45q-8 23 -13.5 47t-5.5 47q-4 109 4.5 214t24.5 212q25 166 50.5 331.5t53.5 331.5q23 117 50.5 231.5t52.5 231.5q25 111 47 218.5t45 215.5q10 47 10 94.5t-12 94.5 q-6 23 -11.5 25.5t-25.5 -5.5q-41 -16 -78 -39.5t-71 -52.5q-125 -104 -231.5 -222t-199.5 -253q-113 -164 -207 -334t-178 -350q-37 -78 -70.5 -158t-64.5 -159q-16 -47 -26.5 -97.5t-22.5 -99.5q-6 -23 -12 -47.5t-15 -46.5q-2 -12 -10 -23q-10 -10 -20.5 -12t-20.5 12z M1176 74q2 4 4 7t2 7l80 487q29 174 66.5 344.5t76.5 344.5q14 53 24.5 108t20.5 111q-10 -8 -10 -21l-41 -174q-23 -88 -45.5 -174t-38.5 -176q-35 -188 -65.5 -375.5t-63.5 -378.5q-4 -29 -5 -55t-5 -55zM1362 1430q-4 0 -5 1t-5 1q-49 -205 -98.5 -408t-75.5 -414 q23 104 43 206t43 204q23 104 48 206zM1366 1303q-51 -186 -92 -369.5t-66 -374.5q41 186 80 372zM279 1122h-9l-84 -542q6 0 11 -2q4 10 8 19t6 19zM127 436h12l74 533h-10zM190 1094q-39 -174 -62.5 -348.5t-39.5 -352.5zM1141 -375q2 2 8 2v166q-4 -41 -11 -81t3 -87z M1159 -37l-4 -55q4 10 6 21.5t4 21.5l6 94zM1073 -326h-6l10 -55q2 2 6 2q-2 14 -4 27.5t-6 25.5z" />
<glyph unicode="O" d="M0 193q0 98 19.5 191t48.5 185q18 59 40.5 113.5t45.5 112.5q8 16 8 41q-16 313 151 571q59 90 132 162.5t167 122.5q82 43 168 54t167 -8.5t152.5 -68.5t125.5 -125q41 -59 71.5 -120.5t38.5 -133.5q10 -78 9 -157.5t-17 -157.5q-25 -113 -56.5 -222.5t-74.5 -217.5 q-41 -98 -93 -188.5t-112 -176.5q-51 -78 -111.5 -145.5t-127.5 -128.5q-55 -49 -113.5 -91.5t-128.5 -66.5q-82 -29 -163 -27t-157 53q-59 41 -96 95.5t-59 120.5q-37 107 -35 213zM252 541q-6 -10 -6 -11q-25 -92 -46.5 -184t-19.5 -188q2 -92 26.5 -176t90.5 -154 q37 -41 65.5 -46t75.5 17q4 2 7.5 4t7.5 4q98 49 177 119t146 154q129 160 222.5 334t150.5 370q35 123 56.5 243t6.5 249q-10 92 -43.5 173t-97.5 150q-31 35 -70.5 52.5t-87.5 13.5q-53 -4 -104 -18.5t-98 -42.5q-106 -63 -183 -150.5t-135 -196.5q-47 -88 -67 -188 q10 10 18 15.5t14 11.5q29 18 53.5 12t41.5 -35q4 -4 6 -4q23 -8 26.5 -16.5t-12.5 -28.5q-49 -66 -84 -139.5t-67 -151.5q-4 -16 -3 -24q12 -53 32 -102.5t52 -90.5q45 -53 92.5 -105.5t94.5 -105.5q8 -8 8 -16q-6 -10 -14 -10q-33 -4 -64 -1t-57 29l-176 187 q-10 10 -17.5 21.5t-17.5 25.5zM217 618h-10q-16 -57 -33.5 -113t-30 -114.5t-17.5 -118t-1 -120.5q4 27 6 53t8 51q18 84 37 166t39 164q2 8 2 16v16zM176 735q-14 -16 -30.5 -57t-34 -94.5t-33 -113.5t-24.5 -112.5t-12 -92.5t5 -54q12 137 45 267t84 257zM1290 979 l-139 -459q51 111 83.5 225.5t55.5 233.5zM436 1409q-76 -90 -116.5 -190.5t-51.5 -217.5q23 111 62.5 212.5t105.5 195.5zM426 1028q-4 0 -5 -1t-3 -1q-70 -80 -113 -184q-4 -4 -2 -11.5t2 -17.5zM190 672q-43 -102 -69.5 -207t-34.5 -215q20 109 44.5 213.5t59.5 208.5z M205 1028l65 227q-29 -53 -43 -110.5t-22 -116.5zM315 1272q-4 0 -5 1t-3 1q-16 -43 -30.5 -86t-28.5 -86l6 -4zM1219 907q-2 0 -4.5 1t-4.5 1l-53 -186q4 0 6 -2zM1219 797q-2 2 -9 2l-20 -66t-21 -67q2 0 3.5 -1t3.5 -1zM299 913l8 -4q6 10 12.5 21.5t14.5 21.5q-2 0 -6 4 z" />
<glyph unicode="P" horiz-adv-x="1392" d="M154 -639q-4 -18 -18.5 -24.5t-35.5 -10.5q-29 -4 -39 11.5t-14 35.5q-10 57 -20.5 113.5t-16.5 116.5q-14 135 -10 268t10 268q4 104 9.5 204.5t11.5 205.5q10 127 20 253t21 253l32 334q2 16 4.5 29.5t6.5 29.5q4 10 8 17.5t16 2.5q14 -4 12.5 -11t-4.5 -15 q0 -10 5 -17l6 23l12 20l23 -18l11 11t17 -15q0 -4 4 -4q27 -8 32 -14.5t5 -34.5q0 -59 -1 -117.5t-3 -118.5q-4 -86 -8 -173t-8 -173q0 -16 -2 -29.5t2 -29.5l18 53q45 160 103.5 313.5t144.5 296.5q68 117 145.5 221.5t186.5 186.5q53 41 112.5 65.5t126.5 20.5 q90 -4 161 -38t112 -120q23 -45 31 -94t8 -101q0 -150 -33 -291t-82 -282q-35 -98 -78 -190.5t-96 -182.5q-57 -92 -130 -171t-169 -132q-199 -113 -424 -59q-10 2 -18.5 4t-16.5 6q-14 6 -18 21q0 6 5 12t9 10q18 10 36.5 11t39.5 -3q63 -10 122.5 0t116.5 47 q63 41 113.5 91.5t97.5 109.5q61 80 104.5 170t82.5 182q41 94 69.5 191.5t51.5 197.5q20 92 35.5 183.5t9.5 187.5q-4 57 -23 117q-10 33 -25.5 41t-50.5 4q-117 -14 -209 -100q-84 -78 -150.5 -167t-127.5 -188q-113 -176 -180.5 -366.5t-114.5 -391.5 q-35 -150 -61.5 -298t-38.5 -302q-12 -123 -20.5 -245.5t-18.5 -245.5q-4 -35 -4 -72v-71q0 -12 -2 -17q-6 -6 -12.5 -11t-12.5 -9q-2 0 -6 5t-8 9zM70 -573h8q0 6 -1 12t-1 14q-6 59 -13.5 117.5t-9.5 118.5q-2 92 -1 181t5 179q4 98 7.5 194.5t11.5 194.5q8 133 18 264.5 t21 266.5q2 14 1 27.5t-1 27.5q-2 -2 -6 -2l-33 -428q-14 -201 -25 -410q-4 -92 -7 -184t-3 -184q2 -76 7 -152t9 -151q2 -23 5.5 -43t7.5 -43zM84 -274l63 1187q-33 -299 -48 -593.5t-15 -593.5zM145 289q27 203 40.5 403.5t19.5 403.5q-18 -203 -37 -402.5t-23 -404.5z M1335 1458q-16 -68 -31.5 -136.5t-33.5 -135.5q-16 -66 -37 -133.5t-41 -132.5q59 129 96 263t47 275zM1161 1083q35 90 56.5 180.5t29.5 184.5zM1272 1327q-4 0 -4 2q-18 -66 -36 -129t-34 -129q2 -2 6 -2q45 121 68 258zM123 299q4 0 6 -2l25 367q-2 2 -7 2zM328 741 q4 0 8 -2q4 16 8 32.5t8 33.5q-4 0 -6 2zM119 154q-2 0 -2 -2v-62h2v64zM121 201h2v59h-2v-59z" />
<glyph unicode="Q" horiz-adv-x="1617" d="M942 -901q-59 -18 -127 -2q-66 14 -113 53t-84 92q-53 78 -85.5 164t-55.5 178q-6 18 -10 38l-8 40q-2 16 -23 23q-70 10 -134 31.5t-120 66.5q-72 53 -111.5 126t-54.5 161q-29 160 3 310t100 296q63 141 166 258q23 23 47 44t47 44q12 12 16 31q20 147 74.5 277 t136.5 253q39 57 85 107.5t106 91.5q55 39 125.5 58.5t144.5 15t143.5 -35t122.5 -91.5q76 -86 119 -185.5t59 -210.5q27 -174 5.5 -344t-68.5 -338q-41 -139 -103.5 -265t-140.5 -247q-119 -180 -282 -311q-137 -104 -312 -135q-31 -6 -24 -35q20 -111 52 -217.5t97 -200.5 q31 -45 72 -77.5t96 -43.5q10 -2 20.5 -6t20.5 -8q0 -4 -2 -6zM526 -231h9v100q0 6 3 11t5 9q16 -8 22 -14q4 -4 3 -9t-1 -11q2 -18 2 -37v-37q0 -27 27 -21q27 8 54.5 15.5t54.5 17.5q70 31 123 80t106 102q92 96 158.5 205t121.5 226q51 106 83 215.5t55 224.5 q27 131 34 260t-16 262q-16 98 -52 187.5t-104 164.5q-27 29 -56.5 51.5t-72.5 18.5q-35 -2 -67.5 -13.5t-63.5 -29.5q-70 -43 -123 -101.5t-98 -125.5q-59 -96 -103 -196.5t-67 -211.5q-6 -31 23 -35q12 -2 23.5 -8t23.5 -14q2 0 4 -4t2 -7q-4 -2 -6 -4t-6 -2 q-14 -4 -26.5 -6t-27.5 -6q-27 -6 -26 -37q4 -53 3 -103t5 -102q14 -123 62.5 -231.5t123.5 -206.5l101 -127l26 -24q4 -4 9.5 -8.5t5.5 -8.5q0 -14 -11 -20q-8 -6 -16 -9.5t-18 -7.5q-29 -10 -56.5 -7t-50.5 26l-82 84q-113 127 -181.5 272.5t-78.5 317.5q0 8 -4 16 q-4 4 -6 4q-4 -8 -8 -12q-18 -35 -39 -67t-39 -66q-66 -129 -98.5 -266.5t-20.5 -284.5q6 -86 36 -162t89 -141q47 -53 121 -82q23 -6 20 16q-2 14 -2 28.5v28.5q0 18 3 28.5t9.5 16t17.5 7.5t32 4q23 0 26.5 -6.5t1.5 -28.5q-2 -25 -2 -49v-49zM178 567 q-41 -133 -60.5 -264t27.5 -264q-10 66 -16 131.5t4 130.5q10 66 21.5 131t23.5 135zM1444 795q29 109 39 216t4 216zM508 983q-12 -12 -15.5 -55t2 -94.5t15.5 -99.5t25 -68q-20 78 -25.5 155.5t-1.5 161.5zM506 1085h8q16 59 32.5 117t33.5 117q-27 -57 -46.5 -115 t-27.5 -119zM43 260q-4 -23 -5 -53.5t2 -62t9 -58.5t12 -37zM1427 1210h-8q-4 -66 -8 -129t-8 -127q4 0 5 -1t3 -1zM1458 1161q-2 2 -6 2v-2l-18 -219h8zM426 899q-4 -14 -4 -41t3 -56.5t8 -54t11 -34.5zM84 307q-18 -111 8 -209q-4 51 -5 103.5t-3 105.5zM465 768q4 0 6 2 l-8 168h-8zM473 -143h-8l6 -58h2v58z" />
<glyph unicode="R" horiz-adv-x="1419" d="M305 1710h4q20 2 23.5 -1t5.5 -21q12 6 23.5 -2.5t13.5 -24.5q0 -14 -1 -27.5t-3 -27.5q-14 -84 -29.5 -165t-28.5 -165q-12 -86 -22 -171t-21 -171l-12 -121q-2 -8 -2 -15v-14q2 -2 6 -2l12 39q68 193 153 373t212 342q76 98 164 180t194 146q78 45 160 68.5t174 17.5 q84 -4 154.5 -55.5t93.5 -131.5q14 -47 10 -93t-14 -93q-23 -98 -69 -181t-105 -161q-66 -86 -138.5 -163t-150.5 -148q-84 -78 -174 -145.5t-195 -119.5q-70 -35 -138 -69.5t-138 -69.5l-29 -16l49 -39q59 -49 101.5 -110.5t77.5 -129.5q47 -92 71.5 -189t42.5 -198 q16 -92 35 -182t37 -182q4 -20 11 -40t16 -42q8 10 13 17t9 15q41 94 81 186.5t79 186.5q59 150 120.5 297.5t133.5 292.5q29 59 58.5 119.5t58.5 120.5q16 31 51 24q29 -6 14 -31q-18 -37 -36.5 -73.5t-35.5 -75.5q-66 -156 -132 -310.5t-130 -314.5q-35 -84 -60.5 -168 t-58.5 -170q-27 -72 -75 -143q-29 -41 -72 -56.5t-90 -11.5q-27 2 -43 16.5t-31 35.5q-53 84 -78.5 174t-42.5 184q-18 98 -35.5 196.5t-50.5 196.5q-20 61 -47.5 119.5t-66.5 112.5q-23 33 -45.5 62.5t-44.5 60.5q-4 4 -6.5 11t-6.5 11l-12 -6q-8 -29 -15.5 -58.5 t-13.5 -60.5q-18 -92 -37.5 -182t-33.5 -182q-8 -53 -8.5 -108.5t-2.5 -108.5l-10 -154q0 -6 -2 -12t-2 -13q-4 -12 -9 -22t-20 -6q-6 2 -10 10t-10 14v-2q-6 -45 -51 -35q-31 4 -40 11.5t-12 42.5q-6 76 -11 150.5t-9 150.5q-4 133 8 263t25 261q8 94 15 186.5t18 184.5 q18 166 35.5 331.5t60.5 329.5q16 63 32.5 125t32.5 125q8 33 35 21q2 -2 2 -13q12 4 23.5 9.5t17.5 -17.5zM326 567q10 4 16 6t12 7q59 31 117.5 60.5t116.5 61.5q41 23 77.5 44.5t73.5 46.5q90 61 169 133.5t153 152.5q88 94 166 194.5t137 217.5q35 70 58.5 141.5 t19.5 149.5q-2 16 -6 30.5t-9 28.5q-12 31 -49 31q-96 2 -180 -30t-162 -83q-147 -98 -254.5 -228t-193.5 -282q-152 -264 -228 -555zM309 1524q-2 0 -3 1t-3 1q-66 -268 -92.5 -538.5t-48.5 -545.5q10 14 10 29l12 107l37 340q10 88 19.5 175t21.5 175q10 66 23.5 128 t23.5 128zM225 1526q-12 -20 -27.5 -93t-33 -173.5t-32.5 -215t-26.5 -215t-16.5 -175t-1 -97.5q16 119 28.5 241t26 243.5t32.5 242.5t50 242zM786 -477q-27 123 -44 244.5t-52 240.5q0 -18 6 -58t14.5 -91.5t19.5 -106.5t22.5 -103t19.5 -83t14 -43zM199 1163 q-27 -154 -44.5 -308.5t-27.5 -309.5h6zM1407 1325q23 25 45.5 62.5t40.5 75.5t28.5 72t8.5 50zM51 53h-8q-2 -94 -3 -188t11 -189v377zM614 -31q-4 -2 -8 -2q20 -96 34.5 -191t45.5 -188zM1393 1466l8 -4q16 35 30.5 71t28.5 71q-2 0 -3 1t-5 1zM1481 1548l-8 4l-50 -108 q8 -4 11 -4zM686 -186h-6l10 -68h8zM246 1640q2 0 3 -1t5 -1q4 16 6 35t4 37q-6 -16 -10 -35t-8 -35z" />
<glyph unicode="S" horiz-adv-x="1484" d="M379 -909q-59 2 -111.5 5t-99.5 27q-76 41 -109 115q-27 66 -27.5 133.5t9.5 134.5q14 88 55 163t97 143q53 66 114.5 121t120.5 112q61 55 125.5 103.5t132.5 95.5q47 33 97.5 62.5t101.5 58.5q14 8 18 15t-2 23q-35 72 -69.5 143.5t-69.5 143.5q-43 86 -89 169t-85 169 q-72 156 -76 311.5t66 313.5q66 158 213 231q76 37 151.5 36t151.5 -36q10 -4 20 -6t23 4q16 10 40.5 1t36.5 -28q2 -2 5.5 -2t5.5 -4q6 -6 11 -12t1 -18q-20 -59 -39.5 -116.5t-34.5 -117.5q-16 -70 -26.5 -139.5t-20.5 -138.5q-4 -29 0 -58.5t8 -58.5q2 -14 -1 -18.5 t-17 -2.5q-53 6 -77.5 33t-27.5 86q0 117 13 238q8 57 21.5 114.5t25.5 114.5q2 10 5 21.5t7 21.5q18 45 -29 37l-50 -8t-48 -15q-86 -41 -138 -107.5t-81 -156.5q-18 -63 -27.5 -128.5t-3.5 -131.5q4 -37 11.5 -73.5t15.5 -73.5q20 -76 56 -143.5t75 -133.5 q53 -98 111.5 -190t101.5 -197q4 -12 10 -12t17 4q59 27 115.5 52.5t115.5 49.5q47 20 97.5 32.5t103.5 14.5q23 2 47 -8q4 -2 9 -6t9 -8l-18 -14q-35 -10 -67.5 -19.5t-67.5 -23.5q-53 -23 -104.5 -47.5t-104.5 -49.5l-107 -51q-18 -10 -12 -29q16 -63 31.5 -125.5 t25.5 -127.5q18 -109 18.5 -215.5t-28.5 -215.5q-10 -35 -25.5 -69.5t-33.5 -69.5q-47 -86 -113.5 -155.5t-146.5 -126.5q-209 -148 -459 -166zM1012 -152q-6 53 -10.5 105.5t-12.5 105.5q-8 51 -19.5 100.5t-23.5 98.5q-4 25 -9 27t-26 -13l-94 -59q-66 -45 -130 -87 t-128 -89q-72 -53 -135.5 -112.5t-118.5 -131.5q-45 -57 -77.5 -118.5t-49.5 -133.5q-16 -70 -13 -136.5t32 -131.5q41 -94 139 -104q35 -4 71.5 -2t71.5 10q166 35 277.5 138t191.5 245q39 66 50.5 138t13.5 150zM1130 -160q8 117 -5 231.5t-54 225.5q20 -115 37.5 -227.5 t21.5 -229.5zM645 1407q10 43 19.5 84t25.5 82q14 39 32.5 77t35.5 72q-23 -16 -42.5 -49t-34.5 -76t-24.5 -92t-11.5 -98zM1083 -33q4 23 1 63t-10 82t-16 76.5t-18 44.5zM991 256q12 -68 24.5 -135.5t26.5 -136.5q2 18 -2 56t-11 80t-17.5 80t-20.5 56zM1169 1761l-8 4 q-23 -72 -38 -144.5t-23 -145.5q16 72 33.5 143t35.5 143zM629 1661q-29 -43 -42.5 -91t-17.5 -100q14 47 29 95.5t31 95.5zM123 -569q-4 -41 1 -80t28 -78zM670 1649q-20 -18 -34.5 -61.5t-14.5 -76.5zM78 -725l6 4l-16 66q-4 0 -7 -2zM100 -645h-8l12 -51h7zM1085 1737 l7 -4l18 59q-4 0 -6 2zM1128 201h-6l15 -68h4z" />
<glyph unicode="T" horiz-adv-x="1142" d="M657 1794q-49 -8 -94 -13t-92 -16q-102 -18 -201.5 -37.5t-201.5 -39.5q-16 -4 -27.5 -1t-17.5 21q-4 10 -9.5 17.5t-9.5 15.5q-14 29 21 39q53 12 103 25.5t103 23.5q158 27 314.5 51.5t314.5 44.5q129 16 255 21.5t255 -4.5q55 -4 109.5 -13.5t107.5 -34.5 q43 -18 73 -51t50 -74q4 -8 4 -16t2 -16h-10q-61 53 -134 73.5t-151 26.5q-115 10 -228.5 6t-227.5 -14q-25 -4 -48.5 -4t-48.5 -4q-6 -2 -14 -6.5t-10 -10.5q-29 -86 -55.5 -170t-47.5 -170q-39 -160 -72.5 -320.5t-66.5 -322.5q-35 -172 -57.5 -343t-30.5 -345 q-4 -72 -8 -143.5t-4 -143.5q2 -86 12 -170t45 -161q8 -18 20.5 -35t22.5 -33q18 -25 35 0q18 25 38.5 48.5t33.5 51.5q33 66 61.5 133.5t56.5 137.5q59 152 118 302t120 302q16 45 39.5 87t46.5 85q8 14 31 22q8 4 16 1t16 -3q-2 -8 -3 -15t-5 -15q-61 -113 -101 -233 t-85 -240q-43 -117 -85 -234t-87 -233q-23 -55 -48.5 -107.5t-66.5 -93.5q-39 -41 -87 -61.5t-105 -10.5q-35 4 -59.5 24.5t-45.5 49.5q-66 90 -89 190.5t-28 210.5q-4 143 5.5 284.5t25.5 283.5q25 207 59.5 408.5t82.5 406.5q23 98 46 193.5t50 191.5q10 41 27.5 79 t33.5 79zM799 1808q-2 0 -3 1t-3 1q-8 -12 -11 -18q-29 -86 -57.5 -171t-50.5 -173q-27 -92 -48.5 -183t-39.5 -186q-23 -102 -41.5 -202.5t-34.5 -204.5q-20 -129 -37 -269q-8 -66 -13 -132t-9 -132q-8 -100 -11.5 -199.5t6.5 -199.5q4 -31 11.5 -60.5t13.5 -60.5h8 q-2 6 -2 16q-12 63 -16 127t-4 129q4 154 12 305.5t31 305.5q14 88 28.5 175t30.5 175q18 100 38.5 199.5t43.5 199.5q16 78 34.5 154t41.5 151q16 59 36.5 116t41.5 114zM440 762q4 0 6 -2l7 22l96 471q29 137 64.5 270.5t95.5 262.5q2 4 2 12q-4 0 -6 2l-13 -24 q-35 -78 -62.5 -158t-45.5 -166q-29 -133 -57.5 -263t-57.5 -263q-10 -41 -15.5 -82t-13.5 -82zM623 1421q-10 -35 -18.5 -68.5t-14.5 -68.5q-27 -121 -51.5 -239.5t-49.5 -241.5v-19q2 -2 7 -2l12 74l98 457q8 35 13.5 69.5t13.5 69.5q-8 -21 -10 -31zM418 236 q-8 -78 -13.5 -165t-6.5 -164t4.5 -133.5t17.5 -72.5q-16 135 -11 267.5t9 267.5zM371 166q-8 -80 -11.5 -160t-1.5 -147.5t8.5 -116.5t18.5 -68q-20 127 -19 248t5 244zM651 1511q25 68 49.5 135.5t47.5 135.5l6 18q-12 -6 -15 -14q-18 -47 -35.5 -94t-33.5 -95 q-10 -29 -16.5 -59.5t-14.5 -60.5zM475 -195h4v113q-2 0 -4 2v-115zM571 1069q-4 0 -6 2l-12 -61h6zM479 -16h4v69h-4v-69zM426 -152v-73h2v73h-2z" />
<glyph unicode="U" horiz-adv-x="2160" d="M1366 301l-96 -143l-86 -122t-90 -118q-43 -53 -91.5 -104.5t-95.5 -100.5q-39 -45 -108 -67q-129 -39 -197 73q-29 45 -41 94.5t-16 100.5q-4 59 -8.5 115.5t-1.5 113.5q4 78 11 154t17 154q23 154 46.5 303t45.5 303q10 68 15.5 136.5t-2.5 135.5q-4 31 -10.5 60.5 t-16.5 58.5q-12 39 -34.5 53.5t-61.5 14.5q-55 0 -105.5 -13.5t-99.5 -34.5q-131 -53 -236 -161l-18 -25q-4 -4 -6 -10t-4 -10.5t-7.5 -6.5t-15.5 2q-66 31 -49 68q12 31 37 55q53 57 116.5 96.5t135.5 67.5q41 16 82 25.5t84 13.5q154 6 246 -110q39 -47 58 -103.5 t25 -116.5q10 -88 8.5 -176t-12.5 -176q-14 -131 -29.5 -261t-29.5 -261q-10 -76 -16.5 -149.5t-10.5 -149.5q-4 -72 0 -140.5t21 -138.5q6 -23 16 -45t21 -45q10 -18 17 -19t24 13q35 31 67.5 62.5t63.5 66.5q80 88 151.5 181.5t137.5 193.5q35 51 70.5 101t72.5 102 q16 20 21 42.5t10 47.5q12 143 37.5 283.5t62.5 281.5q29 100 59.5 199.5t59.5 199.5q0 4 2 4q12 39 20 46.5t31 -0.5q33 -12 48 -29t7 -51q-14 -63 -28.5 -127t-30.5 -127q-35 -143 -61.5 -285.5t-43.5 -290.5q-25 -246 -36 -491q-4 -98 -4.5 -196.5t4.5 -197.5 q4 -59 14 -118.5t39 -114.5q14 -29 33 -47q23 -29 45 2q23 33 45 65.5t39 67.5q37 78 68.5 158t66.5 160l289 675q4 10 9 19.5t11 17.5q10 14 21 17q8 2 15 1t15 -1q0 -10 -4 -27q-45 -111 -89 -221.5t-87 -220.5q-47 -123 -93 -243t-95 -241q-27 -63 -57.5 -123.5 t-80.5 -109.5q-70 -70 -161 -64q-25 2 -43.5 14.5t-34.5 28.5q-39 43 -57.5 94.5t-28.5 104.5q-20 104 -24.5 208.5t-4.5 211.5q0 59 2 120.5t4 120.5v21zM1522 -487q-25 80 -34 162.5t-11 166.5q-4 135 -1 268.5t17 268.5q10 98 20.5 194.5t26.5 194.5q23 131 53.5 261 t59.5 261l4 29h-4l-23 -74q-51 -180 -87 -361.5t-52 -367.5q-10 -117 -16.5 -230.5t-10.5 -230.5q-4 -104 -2 -205.5t17 -205.5q6 -35 14.5 -67.5t28.5 -63.5zM686 -225q-2 4 -2 10q-25 115 -28 227.5t8 229.5q12 123 28.5 242.5t30.5 242.5l12 94q-14 -33 -16 -65l-55 -387 q-16 -117 -21.5 -233t6.5 -232q4 -33 11.5 -65.5t25.5 -63.5zM672 659l-6 -8q-12 -96 -25.5 -189t-24.5 -190q-18 -180 -4 -350l15 -86h6q-4 27 -7 51.5t-3 51.5q-2 78 -4.5 157.5t4.5 157.5q6 86 19 169t24 169q4 16 4 31.5t2 35.5zM1573 1260q-47 -158 -82 -312.5 t-53 -306.5zM655 786h-6q-23 -143 -44 -286.5t-30 -290.5zM1473 604q20 113 39.5 223.5t41.5 223.5q-10 -18 -24 -84t-28.5 -141.5t-23.5 -140.5t-5 -81zM571 160q-4 -43 -3 -96.5t4 -102.5t9.5 -87t14.5 -50zM1440 106q-6 -4 -6 -8q0 -59 -1 -119.5t1 -119.5q0 -6 2 -13.5 t4 -13.5v274zM1413 -276q-2 -16 0 -42t7 -52.5t12.5 -49t13.5 -31.5zM1440 -170q-4 -59 2 -115.5t20 -113.5q-2 31 -6 61.5t-8 61.5q-4 27 -5 52t-3 54zM1401 -156h4v252h-4v-252zM674 8h2v84h-2v-84zM1442 268h-2v-61h2v61zM1405 193h-2v-58h2v58z" />
<glyph unicode="V" horiz-adv-x="1372" d="M0 1100q4 78 9 170t14 190q4 33 12 64.5t16 62.5q4 14 10.5 24.5t24.5 8.5q23 -4 37 -13.5t18 -25.5l4 -43q2 -123 4.5 -243.5t6.5 -243.5q4 -113 10 -224.5t16 -224.5q10 -127 20.5 -253t26.5 -253q16 -135 53 -263t99 -251q8 -16 18.5 -31.5t20.5 -29.5q35 -41 76 -6 q20 16 35.5 32.5t31.5 34.5q78 92 140.5 193.5t119.5 208.5q61 117 107.5 239.5t85.5 249.5q33 104 64.5 207.5t56.5 210.5q27 111 45 220.5t32 219.5q10 72 9.5 142.5t-2.5 142.5q-2 35 -11.5 70.5t-17.5 70.5q-4 20 0 26.5t27 4.5q49 0 69 -66q31 -102 31 -209 q2 -113 -11.5 -222t-29.5 -222q-25 -166 -70 -323.5t-94 -317.5q-104 -330 -283 -621q-43 -72 -88 -141t-104 -129q-51 -49 -111.5 -76.5t-134.5 -25.5q-47 2 -80.5 25.5t-62.5 60.5q-39 55 -63.5 116.5t-47.5 122.5q-72 219 -92 445q-8 86 -15 172t-12 172q-6 131 -10 265 t-10 286zM123 711l12 -224q8 -150 25.5 -297t52.5 -292q4 -18 10 -36t10 -34q8 8 5 14q-33 111 -49.5 222.5t-26.5 226.5q-10 102 -15.5 203.5t-13.5 205.5q0 6 -2 11.5t-6 11.5q-2 -4 -2 -12zM55 682q-4 -23 -3 -76t6 -121.5t12.5 -144.5t14.5 -142.5t16.5 -114.5t15.5 -63 q-29 166 -40.5 331t-21.5 331zM1286 1597q-2 -92 -4 -180t-6 -178q12 90 16 178t-6 180zM125 885q-6 0 -10 -2q2 -35 4 -67t6 -66v135zM1243 1401h2v123h-2v-123zM1264 1382h4v58h-4v-58z" />
<glyph unicode="W" horiz-adv-x="2375" d="M846 952q-27 -35 -52.5 -69.5t-52.5 -67.5q-82 -100 -163.5 -197.5t-174.5 -187.5q-35 -35 -74.5 -56.5t-88.5 -27.5q-88 -10 -142.5 23.5t-77.5 122.5q-16 59 -19 119.5t1 121.5q8 109 28.5 212.5t55.5 207.5q27 84 61.5 163t92.5 146q27 31 58.5 47.5t72.5 10.5 q45 -6 67 -39q12 -16 -6 -19q-29 -6 -50.5 -23.5t-37.5 -39.5q-35 -45 -56.5 -94.5t-39.5 -100.5q-35 -102 -56.5 -205.5t-33.5 -212.5q-6 -53 -9.5 -106t-5.5 -107q-2 -39 3.5 -77.5t21.5 -75.5q16 -35 43 -17q29 16 55.5 34t48.5 40q119 119 227.5 244t213.5 258 q51 66 102 131.5t105 130.5q6 6 11 13.5t11 15.5q43 66 107 14q4 -4 8 -6l8 -4q20 -4 10 -29q-43 -90 -68.5 -183t-48.5 -190q-39 -176 -63.5 -351t-40.5 -355q-6 -74 -9 -148.5t-1 -150.5q2 -109 22.5 -212.5t73.5 -199.5q14 -27 32.5 -48t39.5 -44q23 -25 48 -22.5 t50 18.5q29 18 56.5 39.5t50.5 46.5q92 98 161.5 210t128.5 230q41 82 86 160t86 158q94 182 173 367.5t133 383.5q29 100 53 198.5t47 199.5q16 78 19 156.5t-11 156.5l-8 39q-8 39 31 37q23 0 43 -14.5t28 -36.5l13 -60q10 -90 1.5 -176t-24.5 -172q-29 -135 -62.5 -266 t-76.5 -262q-41 -129 -91.5 -253t-105.5 -247q-66 -145 -141.5 -284.5t-157.5 -276.5q-57 -92 -122.5 -178t-157.5 -152q-72 -51 -150 -76.5t-170 -3.5q-53 12 -91 45t-67 78q-47 74 -72.5 156t-37.5 168q-20 135 -15 266t19 264q16 172 48 338t79 332q2 4 2 16v2z M1067 1229q-2 0 -2 1t-2 1l-14 -29q-39 -78 -61.5 -158.5t-43.5 -164.5q-61 -264 -92 -531q-16 -143 -26.5 -286.5t5.5 -288.5l13 -68q4 -16 8 -33.5t8 -33.5q4 10 0 30q-16 90 -20 179.5t2 179.5q10 117 20 229.5t27 224.5q18 154 50 303.5t77 296.5q10 37 24.5 74t26.5 74 zM985 1126q-6 -6 -8 -14q-43 -117 -71.5 -236.5t-51.5 -242.5q-27 -135 -44 -271.5t-24 -275.5q-4 -63 -3 -125.5t3 -124.5q0 -16 3.5 -30.5t5.5 -30.5q-12 346 40 681.5t150 669.5zM922 1047q-8 -12 -11 -19q-27 -111 -55.5 -220.5t-48.5 -221.5q-20 -109 -32.5 -216.5 t-24.5 -217.5q-10 -92 -11.5 -181.5t9.5 -181.5l14 -88q-16 172 -9 342t29.5 338t58.5 334t81 332zM100 668q23 188 63 372.5t130 354.5q-51 -84 -85 -172t-55.5 -180.5t-34 -186.5t-18.5 -188zM172 1296q-4 -10 -9 -20t-9 -21q-41 -100 -67 -204.5t-42 -212.5l-6 -60 q10 41 17 81t16 81q33 180 104 354l33 66q-2 0 -3 1t-3 1zM2220 1567q-8 -66 -14 -133.5t-15 -135.5q39 136 29 269zM139 1124q2 0 3 -1t3 -1l72 187l-8 4zM868 70h-10v-176l2 -3q2 45 3 89.5t5 89.5zM809 61q2 0 3 -1t3 -1l8 129h-6q-2 -33 -3 -63.5t-5 -63.5zM811 20 q-2 0 -2 1.5t-2 1.5v-146h4v143zM827 270q2 0 4 -2l9 64q-2 2 -6 2z" />
<glyph unicode="X" horiz-adv-x="1691" d="M653 84q-47 -106 -93 -213t-84 -216.5t-62.5 -223t-26.5 -232.5q-10 2 -17.5 4t-15.5 2q-27 -2 -39 27q-23 53 -20.5 108.5t12.5 112.5q25 129 68 251t94 243q29 72 60.5 142.5t66.5 139.5q12 31 4 58q-68 209 -129 418q-25 86 -48.5 171t-45.5 171l-117 460q-4 18 -7 38 t-7 40q-4 39 9 50.5t50 4.5q35 -4 57.5 -24.5t36.5 -50.5q45 -98 76 -200.5t60 -207.5q27 -98 54 -196.5t56 -196.5l70 -232q2 -6 5 -13t7 -17l57 106q82 158 167 312.5t184 304.5q25 39 52 75.5t56 71.5q20 31 53 23q45 -12 66 -52q0 -6 -4 -14q-78 -102 -145.5 -208.5 t-129.5 -217.5q-76 -135 -147.5 -268t-144.5 -268q-16 -25 -8 -45.5t14 -42.5q33 -111 71.5 -218.5t85.5 -214.5q41 -92 85 -180t104 -170q10 -16 23.5 -29.5t25.5 -29.5q20 -27 39 0q23 39 48.5 74.5t45.5 76.5q59 123 114.5 248t102.5 254q47 125 94 249t95 249 q6 16 14 30.5t33 12.5q27 -2 18 -23q-6 -23 -12 -45t-15 -45q-55 -160 -108 -319.5t-113 -319.5q-41 -111 -85 -219.5t-109 -208.5q-76 -115 -207 -129q-47 -4 -82 15.5t-64 50.5q-51 53 -84.5 115.5t-66.5 127.5q-53 106 -98 216t-84 223l-6 14h-9zM602 59l-39 -86l-16 -32 q-53 -127 -100.5 -253t-71.5 -261q-6 -39 -9.5 -78t-7.5 -80h7q4 29 6 55.5t6 54.5q16 106 48 208t71 202q16 47 34.5 92t36.5 90l37 86q10 16 17.5 31.5t15.5 32.5l-8 4zM856 565q20 39 41 76t41 74l18 33q84 147 169 291.5t186 279.5q4 4 4 7t2 7l-4 4l-33 -41 q-63 -100 -125.5 -199.5t-124.5 -199.5q-27 -43 -49.5 -88t-46.5 -90l-80 -152l-37 -63q4 -4 8 -4zM913 -193l-24 60q-2 4 -2 12q-29 78 -56.5 155t-56.5 154q-8 18 -14 38t-12 38q-4 0 -7 -2l4 -16q31 -102 68 -203q16 -45 34.5 -89t37.5 -89l28 -60l43 -102l35 -70l8 5z " />
<glyph unicode="Y" horiz-adv-x="2000" d="M1792 455l100 88q27 23 51.5 44t51.5 42q16 14 40.5 14t41.5 -12q10 -6 6 -11.5t-8 -9.5q-33 -29 -66 -54.5t-63 -53.5q-37 -33 -72 -67l-70 -68q-14 -14 -14 -33q-4 -166 -20.5 -328t-47.5 -323q-23 -117 -54.5 -229.5t-78.5 -223.5q-43 -100 -98 -192.5t-127 -176.5 q-47 -53 -103.5 -96t-125.5 -68q-66 -23 -127 -10q-55 10 -78 60q-10 25 -16.5 50t-10.5 52q-8 102 12.5 199.5t55.5 193.5q35 100 81 195.5t99 187.5q92 162 200.5 310.5t227.5 291.5q18 18 18 43q-2 162 -4 323t-6 322q-2 55 -11 109.5t-20 108.5q-4 23 -9 24.5t-23 -14.5 q-92 -84 -162 -180.5t-131 -200.5q-55 -96 -109.5 -192.5t-111.5 -192.5q-41 -72 -87 -139.5t-104 -126.5q-47 -51 -111.5 -55.5t-111.5 16.5q-25 12 -38 32.5t-23 45.5q-23 57 -30 117.5t-9 119.5q-2 147 16 290.5t51 285.5q33 137 69 271t68 269q10 35 13.5 72t7.5 72 q4 23 -2 26.5t-27 -6.5q-41 -23 -81 -43t-76 -47q-117 -86 -206 -190.5t-161 -227.5q-25 -43 -40 -90t-24 -96q0 -4 -1 -9.5t1 -9.5q6 -23 -3 -27.5t-25 -2.5h-27q-33 4 -43 18t-6 47q8 76 39 140.5t72 123.5q82 119 179 221.5t220 180.5q39 25 77 47t85 33q78 14 133 -31 t59 -123t-10 -154.5t-31 -154.5q-27 -129 -54.5 -257t-49.5 -259q-14 -74 -22.5 -150t-14.5 -151q-4 -63 -4 -127t-2 -127q0 -10 1 -17.5t3 -17.5l12 -25q4 4 11.5 8.5t11.5 8.5q59 61 107 129.5t93 140.5q96 158 192.5 310.5t211.5 297.5q35 43 73 82t76 80q20 23 49 30 t57 2t53.5 -22.5t41.5 -44.5q29 -43 42 -91t26 -97q25 -106 35 -214t14 -218zM1591 109q-6 0 -8 2q-6 -8 -12 -14.5t-10 -14.5l-101 -135q-117 -164 -214 -335t-165 -362q-27 -78 -45 -156.5t-18 -160.5q-2 -41 4 -79t29 -73q23 -31 38 -32.5t44 20.5q47 35 82.5 78t68.5 90 q59 86 104.5 175t75.5 188q29 94 52.5 189t35.5 194q18 135 31 270q4 39 5 77t3 79zM823 1520q-2 0 -4 2l-55 -246q-37 -156 -73 -311.5t-54 -315.5q-25 -190 -19 -381q0 -6 2.5 -14t4.5 -18l10 243q10 125 28.5 249t47.5 247l98 446q4 25 7 49.5t7 49.5zM756 1542h-8 l-7 -22l-28 -119q-25 -100 -51.5 -199.5t-49.5 -200.5q-29 -117 -47 -232.5t-26 -233.5q-4 -53 -2 -103.5t2 -101.5q4 6 4 18q6 86 11 172t15 172q18 154 53 304.5t74 301.5q16 59 30 121t30 123zM582 438q14 240 65 470.5t105 461.5q-63 -229 -114.5 -460.5t-55.5 -471.5z M1724 772h-8l10 -377q2 0 4.5 -1t4.5 -1q2 8 5 16.5t3 16.5q0 27 -1 53.5t-3 52.5q-4 59 -7.5 120t-7.5 120zM1700 -113q16 100 26.5 200.5t12.5 205.5q-16 -12 -16.5 -25.5t-2.5 -23.5l-14 -269zM1640 760v-453h7q8 115 4.5 226.5t-11.5 226.5zM1692 352q8 78 2 158 t-11 166v-324h9zM981 -1069q-4 -35 -2 -67.5t22 -61.5q-4 33 -9 64.5t-11 64.5zM76 975l37 137q-18 -33 -29.5 -66.5t-7.5 -70.5zM1712 532h-4v-145h4v145zM1765 545h-4v-107h4v107zM672 612h-4l-6 -57h4z" />
<glyph unicode="Z" horiz-adv-x="1798" d="M967 1606q-29 -4 -57.5 -9.5t-57.5 -11.5q-84 -16 -165 -33.5t-163 -33.5q-92 -16 -181 -28.5t-181 -8.5q-55 4 -103 14q-12 4 -24 11t-25 16q-4 2 -8 8t-2 8q6 8 18 12q10 2 19.5 3t19.5 -1q98 0 191.5 14.5t187.5 32.5q129 25 255 48.5t255 46.5q25 4 49.5 9t46.5 11 q33 10 60.5 4t56.5 -20q27 -16 43 -43q4 -6 0 -18.5t-8 -18.5q-18 -23 -37.5 -43.5t-38.5 -40.5q-76 -78 -152.5 -153.5t-148.5 -153.5q-86 -92 -165 -187.5t-160 -189.5q-8 -8 -17 -23l84 17q98 23 193.5 11.5t189.5 -44.5q106 -37 194.5 -98.5t155.5 -153.5 q29 -39 49.5 -81t42.5 -85q10 -18 12.5 -19t20.5 9q88 55 174 110.5t176 110.5q27 16 54.5 27.5t62.5 1.5l14 -4q35 -18 35 -26.5t-30 -31.5q-59 -39 -122 -74.5t-122 -76.5q-53 -35 -107.5 -74t-107.5 -76q-18 -10 -14 -34q35 -190 11 -371.5t-95 -360.5 q-84 -211 -224 -381q-63 -76 -133.5 -141t-157.5 -117q-68 -39 -138 -60.5t-148 -23.5q-31 0 -62.5 5.5t-60.5 13.5q-117 33 -121 164q-2 78 14.5 149.5t46.5 141.5q53 127 126 239.5t165 216.5q55 61 110.5 120.5t115.5 119.5q84 82 172 154.5t180 142.5q16 12 20 24.5 t0 32.5q-20 82 -53 158t-86 143q-63 80 -145 127t-187 55q-49 4 -98 -5t-96 -23q-51 -16 -100.5 -33.5t-100.5 -34.5q-12 -4 -32.5 -3t-41 5t-38 13.5t-25.5 19.5q-4 6 -4 18.5t4 20.5q16 29 34.5 55.5t41.5 50.5q74 92 148.5 184.5t152.5 180.5q74 84 150.5 163t154.5 159 l39 40q0 2 -1 3.5t-1 3.5zM1282 41l-6 70q0 8 -4 20l-21 -10q-57 -53 -113.5 -102.5t-111.5 -102.5q-86 -82 -164 -167t-149 -179q-70 -92 -129.5 -188.5t-98.5 -206.5q-23 -59 -32 -117.5t2 -120.5q4 -29 18 -51.5t45 -30.5q35 -8 67.5 -5t63.5 20q35 23 70 44t67 48 q117 92 203 206.5t152 249.5q72 147 105.5 302t35.5 321zM1389 186q6 -115 0.5 -226.5t-21.5 -223.5q29 113 36.5 224t-15.5 226zM1313 156v-252q10 63 12 126t-12 126zM420 -889q-12 -43 -19.5 -86t9.5 -88q4 43 6 87t4 87zM1358 113h-6v-222h6v222zM342 -1061v94 q-20 -57 0 -94zM375 -971h-4v-71h4v71z" />
<glyph unicode="[" horiz-adv-x="462" d="M190 23q23 4 46.5 8t46.5 8q12 2 25.5 0t25.5 -6q4 0 9 -5t5 -10q0 -12 -14 -16q-4 -4 -11.5 -6t-13.5 -4q-53 -8 -107.5 -16.5t-109.5 -14.5q-16 -2 -33.5 2t-33.5 8q-20 4 -22.5 20.5t-2.5 31.5q-2 29 0 58.5t4 57.5q4 104 7 209t9 209q10 129 21.5 256t26.5 256 q16 143 34.5 285.5t34.5 285.5q4 35 6 72t7 72q4 43 19 58.5t56 15.5q109 2 219 0q29 0 52.5 -9.5t40.5 -33.5q4 -4 4 -8.5t2 -8.5q-4 -2 -8.5 -4t-8.5 -2q-55 -4 -110.5 -8t-110.5 -8q-20 -2 -18 -23q2 -39 4 -77t0 -77q-10 -160 -25 -311q-16 -147 -33.5 -293.5 t-31.5 -294.5q-14 -154 -25.5 -304t-23.5 -304v-31q0 -29 4.5 -33.5t33.5 -4.5zM223 1339h-4l-14 -94l-35 -311q-10 -94 -20.5 -187.5t-20.5 -189.5q-12 -121 -18 -244q-4 -66 -6.5 -133t-6.5 -133q0 -4 3 -9t5 -11q8 16 9 20q2 55 3 110.5t5 108.5q4 59 7 116.5t9 117.5 q8 90 17.5 179t19.5 179q8 72 15.5 142.5t13.5 142.5q6 49 10 98zM66 31q2 -2 6 -2q6 121 12 240.5t16 240.5q10 119 21.5 237.5t21.5 239.5q-35 -240 -53 -477t-24 -479zM133 1294q-41 -319 -68.5 -635.5t-27.5 -640.5q4 322 35.5 638t60.5 638zM154 1085h-4 q-4 -16 -5.5 -34.5t-3.5 -36.5h6z" />
<glyph unicode="\" horiz-adv-x="454" d="M0 1804q0 6 -1 13.5t3 11.5q4 6 10 13t13 5q47 -4 78.5 -25.5t41.5 -70.5q10 -59 18.5 -118.5t16.5 -119.5q12 -96 21.5 -190t19.5 -188q14 -113 30.5 -224.5t33.5 -224.5q23 -145 46 -288.5t62 -286.5q0 -4 1 -6.5t1 -6.5q10 -35 3 -45t-42 -14q-20 -4 -30 10 q-14 23 -28.5 45.5t-21.5 46.5q-23 84 -43 168t-36 170q-31 166 -59.5 332t-55.5 332q-18 121 -34.5 240.5t-33.5 242.5q-4 45 -6 89t-6 89h-2zM176 1161v-17t2 -18q8 -59 16.5 -119.5t18.5 -119.5q6 -41 12 -79t11 -77h6l-6 57l-43 291q-4 20 -8.5 41t-8.5 41zM176 1161 l-12 150h-10zM272 543h-6l13 -70q2 2 6 2z" />
<glyph unicode="]" horiz-adv-x="538" d="M391 1864q59 0 98 -37q20 -18 26.5 -39t4.5 -47q-18 -152 -33.5 -301.5t-31.5 -302.5q-8 -78 -15.5 -156t-13.5 -156l-37 -485q-6 -72 -11 -141.5t-9 -141.5q-2 -16 -1 -30.5t-1 -30.5q-2 -8 -7.5 -17.5t-13.5 -13.5q-133 -41 -264 -74q-14 -4 -29.5 -2t-32.5 7 q-16 4 -20 18q-2 8 2 17.5t10 13.5q12 6 26.5 13t27.5 3q43 -6 79.5 9.5t75.5 25.5q4 2 8 11t4 18q4 49 4.5 98t4.5 96q4 115 6 227.5t10 225.5q10 166 23.5 329.5t29.5 329.5q10 109 24.5 215.5t29.5 216.5q4 16 -2.5 19.5t-20.5 3.5q-35 4 -69.5 6t-69.5 8 q-16 2 -30.5 11.5t-31.5 19.5q-25 18 6 29q16 4 29 4h111q33 0 57 1t47 -1zM330 10q23 375 50.5 746.5t68.5 746.5q-8 -35 -18.5 -113.5t-22 -186t-22.5 -233.5t-21.5 -255t-18.5 -250t-13 -218t-6 -161t3 -76zM287 475q4 55 7 111.5t7 111.5l31 396l24 245l6 88 q-33 -246 -53 -489.5t-28 -488.5l4 12t2 14zM311 406q2 4 5 9t3 9q4 45 6.5 89t6.5 87q6 102 14 201.5t14 202.5q4 29 5.5 58.5t3.5 63.5q-6 -12 -7 -12q-10 -113 -19 -225.5t-17 -226.5q-4 -63 -7.5 -126.5t-7.5 -129.5zM276 342h5v59q-2 -16 -3.5 -29.5t-1.5 -29.5z" />
<glyph unicode="^" horiz-adv-x="675" d="M385 1622q-16 -18 -20 -29q-53 -84 -110.5 -163.5t-123.5 -155.5l-22.5 -22.5t-22.5 -12.5q-23 2 -43 9t-41 16q-2 0 -3 10t3 14l41 43q98 109 170 233t129 257q4 6 8 18q16 33 26.5 39t45.5 -2q41 -10 67.5 -34.5t30.5 -76.5q10 -135 23.5 -267t27.5 -265 q2 -25 8.5 -48.5t10.5 -45.5q4 -25 -1 -30t-30 -5q-78 6 -96 82q-16 78 -30.5 154.5t-29.5 154.5q-6 29 -10 60.5t-8 66.5zM377 1675l-8 6l-41 -75l4 -4q12 18 23.5 36.5t21.5 36.5z" />
<glyph unicode="_" horiz-adv-x="806" d="M532 -25q-104 -6 -204.5 -12t-204.5 -14q-43 -4 -77 17.5t-44 62.5q-8 20 18 24q12 2 24.5 3t23.5 1l442 15q47 0 94 -6.5t90 -28.5q29 -14 41 -43q4 -18 -14 -21q-23 0 -45.5 -1t-44.5 -1q-25 -2 -49.5 -1t-49.5 1v4z" />
<glyph unicode="`" horiz-adv-x="319" d="M262 1374l-6 -33q-6 -14 -16 -8q-31 14 -54.5 32.5t-35.5 51.5l-62 150q-18 45 -36.5 90t-41.5 90q-12 18 8 25q23 14 39 6q4 -2 13 -2q35 -2 47 -37l51 -117q23 -53 43 -106.5t41 -106.5q4 -8 6 -17.5t4 -17.5z" />
<glyph unicode="a" horiz-adv-x="727" d="M723 582q6 14 9 23t8 12.5t15.5 1t30.5 -10.5q-20 -53 -38.5 -104t-40.5 -103q-39 -86 -80 -171t-84 -171q-10 -18 -22.5 -35.5t-26.5 -33.5q-18 -23 -41 -31t-45.5 -4t-42 19.5t-29.5 43.5q-18 51 -17.5 102.5t5.5 104.5q8 80 26.5 158t42.5 154q6 10 2 26l-47 -55 q-57 -63 -127 -115q-29 -20 -65.5 -22t-70.5 12t-59.5 45t-31.5 74q-10 61 2 117.5t41 109.5q43 78 102.5 135.5t145.5 87.5q66 23 127 13.5t116 -56.5q16 -14 25 4q0 4 2 6.5t4 6.5q14 27 20.5 29.5t28.5 -7.5q23 -10 29 -22.5t-2 -36.5q-33 -90 -64.5 -178t-60.5 -179 q-33 -94 -55.5 -190t-32.5 -197q-4 -35 -4 -67.5t6 -67.5q4 0 5 -1t5 -1q12 18 26.5 35.5t24.5 38.5q68 115 125.5 232.5t102.5 244.5q4 4 5 10.5t5 12.5zM322 590q49 63 97 126.5t95 129.5q18 27 -10 37q-16 8 -33.5 12t-28.5 8q-72 -2 -123 -24.5t-94 -63.5 q-47 -43 -78.5 -95t-54.5 -112q-27 -66 -14 -127q10 -53 22.5 -61t63.5 22q47 29 85 67t73 81zM391 63q0 100 17.5 195.5t45 190t60.5 185.5t68 183q-4 0 -7 2l-26 -69q-51 -125 -91 -251t-63 -259q-6 -45 -9 -88.5t5 -88.5zM84 686l8 -4l80 119l-8 4zM442 590q-4 0 -6 2 l-26 -80q2 0 3 -1t3 -1l12 40t14 40zM344 184h-2v-75h2v75z" />
<glyph unicode="b" horiz-adv-x="905" d="M897 618q16 8 23.5 7.5t25.5 -17.5q-25 -14 -47 -26.5t-45 -26.5t-44.5 -28.5t-43.5 -28.5q-20 -10 -25 -41q-23 -147 -74 -279.5t-147 -249.5q-35 -43 -82 -69.5t-106 -24.5l-23 4q-41 8 -54 23.5t-9 56.5q4 45 20.5 85t38.5 77q49 86 112.5 159.5t137.5 139.5l98 86 q4 4 8.5 8t4.5 8q6 41 8 80t-17 78q-10 20 -19 24.5t-32 -1.5q-49 -16 -91 -44t-79 -63q-66 -59 -111.5 -129t-80.5 -147q-37 -80 -71 -160t-69 -160q-6 -16 -14 -26.5t-33 -10.5h-41t-21 5t-10 18.5t-8 38.5q-27 147 -25.5 292.5t23.5 292.5q23 154 59 304.5t89 297.5 q43 119 99.5 230.5t135.5 210.5q35 41 72 75.5t84 63.5q51 33 101.5 38t94.5 -10.5t78.5 -47t53.5 -72.5q18 -41 21 -83t-7 -83q-16 -84 -53 -157.5t-82 -145.5q-78 -125 -166 -240.5t-195 -216.5q-47 -45 -99 -82t-118 -51q-47 -10 -53 -57q-14 -92 -23.5 -181.5 t-9.5 -181.5v-28q4 0 9 -2q2 12 10 22q47 104 103.5 200.5t137.5 180.5q43 43 90.5 80t106.5 59q57 25 114.5 13.5t86.5 -56.5q12 -18 18 -41.5t15 -46.5q2 -4 1 -9t1 -13l36 20zM592 1686q-66 -51 -115 -117t-90 -137q-88 -154 -147.5 -318t-102.5 -336l-22 -106l8 -6 q27 20 52.5 37.5t51.5 39.5q127 106 232.5 229.5t197.5 262.5q41 61 76 125.5t55 136.5q12 45 13.5 89t-19.5 89q-16 35 -44.5 49.5t-65.5 1.5q-23 -8 -42.5 -17t-37.5 -23zM649 401q-8 -4 -11 -6t-7 -6q-43 -47 -88 -91t-86 -91q-45 -53 -79 -113.5t-50 -130.5 q-6 -31 -6 -65q0 -33 24 -13q23 20 47.5 39t42.5 41q72 88 119 187.5t82 205.5zM473 1624q-80 -90 -143 -203q-80 -147 -135.5 -301.5t-96.5 -318.5q-10 -37 -17 -75t-15 -77l10 -4l8 33q29 150 73 294t105 283q45 100 97.5 193.5t125.5 175.5l19 23l-6 6zM66 590 q-8 -18 -16.5 -59.5t-13.5 -93.5t-9 -110.5t-4 -109.5t3 -91t11 -54q-14 131 -4 260t33 258zM78 932q-6 -16 -11.5 -34.5t-11.5 -37.5q2 0 4 -1t4 -1l17 72l74 225q6 20 13 38.5t15 37.5q-4 0 -6 2l-12 -27l-43 -121zM709 375q-4 0 -5.5 1t-3.5 1l-43 -137q4 -2 9 -2z M186 1161q-4 0 -6 2l-55 -164q2 -2 6 -2zM35 772q-4 -23 -8 -43t-9 -43q2 0 3.5 -1t3.5 -1l18 88h-8zM72 803q4 0 6 -2l18 67q-2 2 -8 2q-4 -16 -8 -33.5t-8 -33.5zM250 1325l-27 -59l6 -4l27 59zM227 1350q-6 -14 -12 -28.5t-14 -29.5l6 -4q6 16 13 29.5t13 28.5q-4 4 -6 4 z" />
<glyph unicode="c" horiz-adv-x="503" d="M551 621q2 -2 2 -7q0 -8 -2 -10q-59 -104 -120.5 -205.5t-137.5 -195.5q-23 -29 -49.5 -49.5t-61.5 -30.5q-37 -12 -75.5 -8t-72.5 21.5t-60.5 48t-41.5 69.5q-23 57 -22.5 122.5t18 129t53 119t85.5 92.5q57 45 120.5 53t128.5 -27q12 -6 21.5 -16t19.5 -20q4 -2 3 -6.5 t1 -8.5q-4 0 -7 -1t-7 -1q-182 31 -266 -133q-31 -55 -45.5 -113.5t-16.5 -121.5q-4 0 -6 -3q8 -29 14.5 -58.5t16.5 -57.5q16 -41 49 -52.5t72 11.5q80 47 131 121q53 80 106.5 160.5t106.5 162.5q2 4 3 9.5t5 5.5q17 2 35 0zM72 612q-29 -29 -43.5 -63.5t-22.5 -75.5z M-23 553q14 25 23 47q-2 0 -2 1t-2 1l-25 -47q2 -2 6 -2z" />
<glyph unicode="d" horiz-adv-x="940" d="M559 -152q20 35 41 67t39 67l305 622q4 12 8 17q8 14 17.5 12t19.5 -6q4 -2 5 -10.5t-3 -12.5q-23 -51 -47 -100t-47 -98q-51 -111 -101.5 -222.5t-103.5 -222.5q-20 -43 -43.5 -82t-58.5 -74q-43 -43 -107 -28q-10 4 -21 16t-16 25q-10 35 -17 69.5t-9 71.5 q-6 96 3 191.5t23 191.5l5 23v22q-10 -10 -17.5 -18.5t-13.5 -16.5q-41 -47 -87 -90t-104 -74q-37 -18 -78.5 -23t-81.5 3t-76 29.5t-56 52.5q-29 43 -36 91t1 101q12 68 46 132.5t83 117.5t111.5 91t129.5 53q66 14 128.5 9t121.5 -34q16 -6 23.5 -3t11.5 19 q47 156 104.5 305.5t131.5 294.5q39 72 85 137.5t105 123.5q16 12 32.5 23t33.5 22q18 10 38.5 10t39 -8.5t30.5 -24.5t17 -37q6 -35 7 -69.5t-3 -69.5q-10 -72 -33 -140.5t-55 -133.5q-80 -160 -174.5 -310.5t-217.5 -283.5q-61 -66 -73 -152q-18 -123 -38 -242.5 t-36 -242.5q-6 -43 -3 -87t3 -89zM432 786q-41 -4 -80 -12t-76 -29q-102 -55 -162.5 -140t-84.5 -197q-8 -39 -8.5 -77t18.5 -75q16 -33 34.5 -42t53.5 1q47 14 87 39t75 57q51 45 94 95.5t84 103.5q12 16 14 29l51 204q6 23 -16 29q-23 4 -42 7t-42 7zM682 750l8 -5l19 23 q72 78 130 166t113 178q53 86 95.5 175t68.5 188q12 47 14.5 95t-2.5 95q-2 35 -28 12q-23 -20 -37 -39q-51 -61 -91 -128.5t-75 -139.5q-53 -117 -95 -235.5t-77 -241.5zM999 1599l-4 5q-4 -4 -8 -8.5t-8 -10.5q-33 -53 -66.5 -107.5t-60.5 -111.5q-72 -152 -125 -308.5 t-98 -318.5q-6 -18 -11.5 -36.5t-9.5 -38.5q6 0 8 -2l13 28q31 104 61.5 205.5t65.5 204.5q41 117 88 227.5t117 212.5zM594 551q-6 0 -8 2q-8 -20 -11 -31q-8 -41 -15 -78.5t-13 -78.5q-18 -109 -30.5 -214.5t-14.5 -216.5q0 -27 3 -52t5 -52h10q-10 92 -5 182t17.5 180.5 t29 179.5t32.5 179zM731 1139q-2 0 -3 1t-5 1q-25 -78 -50.5 -155t-49.5 -155q4 0 6 -2q27 78 52 155t50 155zM-6 430l86 195q-70 -86 -86 -195zM618 924q2 -2 7 -2l49 147q-4 0 -6 2zM516 377q2 0 4 -1t4 -1q4 31 10.5 61.5t12.5 61.5q-6 0 -8 2zM-57 492l6 -5l39 97 q-4 0 -6 2q-10 -25 -19.5 -48t-19.5 -46zM567 631q6 0 8 -2l27 106h-6zM455 -150q2 0 3 1.5t3 1.5q-2 29 -4 55t-6 55h-7q4 -29 6.5 -56.5t4.5 -56.5zM817 1358q2 -2 6 -2l35 69q-2 0 -3 1t-3 1zM-14 522q4 0 5 -1t3 -1q8 16 15 33.5t18 34.5q-2 0 -3 1t-4 1zM678 1098 q2 0 3 -1t3 -1l21 55q-2 2 -7 2zM477 -74h2v97h-2v-97z" />
<glyph unicode="e" horiz-adv-x="720" d="M780 608q-16 -27 -30.5 -51.5t-30.5 -46.5q-53 -72 -105.5 -141.5t-109.5 -137.5q-51 -59 -109.5 -111t-124.5 -95q-45 -29 -92 -42.5t-100 3.5q-68 20 -102.5 63t-43.5 129q-10 106 9.5 208.5t52.5 203.5q76 229 231 403q33 35 68 62.5t78 50.5t83 15.5t76 -34.5 q37 -27 46.5 -63.5t3.5 -77.5q-12 -88 -74 -151q-125 -143 -301 -207q-12 -8 -21 -8q-35 0 -48 -18.5t-21 -49.5q-23 -92 -40.5 -182t-13.5 -185q2 -43 17 -86q10 -29 22.5 -35t40.5 3q53 16 98.5 46.5t88.5 65.5q78 59 140 133l124 148q35 41 65.5 85t61.5 87 q16 23 22 25.5t39 -9.5zM156 641l6 -6q6 4 22 8q70 35 132.5 78t119.5 96q16 16 28.5 32.5t24.5 35.5q23 35 32 71.5t1 77.5q-12 51 -55 29q-49 -27 -94 -68q-53 -53 -94 -113.5t-74 -127.5q-14 -29 -25.5 -56.5t-23.5 -56.5zM303 965q-25 -20 -59.5 -68.5t-65.5 -103 t-51.5 -103.5t-20.5 -74q39 94 85 182.5t112 166.5zM27 582l94 211l-6 6q-10 -23 -21.5 -44.5t-21.5 -43.5q-12 -33 -23.5 -65t-23.5 -62l-45 -152q2 0 4 -1t4 -1zM27 293q16 72 32.5 142.5t32.5 142.5q-53 -142 -65 -285z" />
<glyph unicode="f" horiz-adv-x="692" d="M211 276q57 -63 89 -134.5t46 -149.5q10 -51 6 -102.5t-12 -102.5q-16 -109 -45 -213t-76 -203q-16 -33 -36.5 -64.5t-43.5 -60.5q-16 -23 -42.5 -34t-55.5 -13q-41 -2 -68 31q-25 31 -37 66.5t-22 74.5q-25 113 -30 226.5t-3 228.5q4 223 42 436t104 424 q76 246 187.5 471t266.5 432q53 72 114.5 138.5t137.5 119.5q35 25 74 42.5t86 21.5q63 2 109.5 -41t50.5 -107q4 -74 -15.5 -144.5t-50.5 -135.5q-113 -246 -277.5 -443.5t-390.5 -349.5q-37 -25 -76.5 -46t-80.5 -44q-14 -8 -19 -22q-14 -55 -27.5 -110.5t-25.5 -111.5 q-6 -27 -2 -30.5t33 6.5q76 23 147.5 53.5t143.5 65.5q74 39 143.5 84t132.5 98q25 18 43 -6q2 -4 -1 -10.5t-7 -10.5q-47 -41 -94 -83t-97 -81q-129 -102 -292 -155q-8 -2 -13.5 -4.5t-15.5 -6.5zM176 690l62 33q135 84 246.5 188.5t209.5 227.5q82 104 150.5 214.5 t113.5 235.5q20 53 31.5 107.5t1.5 111.5q-6 29 -16 37t-39 -2q-66 -27 -115 -63q-66 -47 -121 -107.5t-102 -128.5q-135 -193 -239.5 -397.5t-174.5 -427.5q-4 -6 -4 -12.5t-4 -16.5zM10 -299q-2 -88 3 -176t22 -174q4 -23 12 -42.5t19 -41.5q4 -10 10 -10t12 10 q8 10 15.5 21.5t13.5 23.5q47 86 75.5 176t47.5 184q12 63 20 127t10 129q0 78 -26.5 150t-65.5 137q-14 23 -30.5 38t-49.5 15q-16 -2 -22 -5t-8 -19q-23 -135 -38.5 -270.5t-19.5 -272.5zM117 662q2 0 4 -1.5t4 -1.5q98 303 240.5 577.5t361.5 510.5q-14 -6 -22 -18 q-47 -53 -95.5 -106.5t-89.5 -113.5q-250 -360 -387 -786q-4 -16 -8 -30.5t-8 -30.5zM104 584q-2 0 -4 1t-4 1q-23 -66 -37 -132.5t-28 -134.5q4 -2 6 -2t4 -2q16 68 31.5 134.5t31.5 134.5zM33 293q-68 -305 -60 -610q2 154 19.5 305t40.5 305zM20 -715q-29 90 -36 182.5 t-13 184.5q2 -94 8 -185.5t41 -181.5zM238 1071q2 0 6 -4l90 180q-2 0 -3 1t-3 1zM287 1223q-2 0 -3 1t-3 1l-62 -125q2 -2 4 -2q16 31 32 61.5t32 63.5zM117 745q-4 0 -8 3l-27 -97q4 0 6 -2zM41 504q2 0 3 -1t3 -1l16 63q-2 2 -6 2zM330 -41h-4v-76h4v76z" />
<glyph unicode="g" horiz-adv-x="1177" d="M936 416q39 29 73.5 56.5t69.5 53.5l127 99q14 10 21.5 5t15.5 -14q10 -10 3 -15t-13 -9l-285 -234q-29 -23 -35 -59q-47 -223 -115.5 -435t-172.5 -417q-35 -68 -74 -133.5t-92 -122.5q-53 -59 -118 -97t-148 -40q-53 -4 -107 20q-14 6 -25.5 22.5t-19.5 33.5 q-16 41 -12 84t14 86q31 127 90.5 235.5t136.5 212.5q102 135 218 257t243 237q23 23 29 51q25 111 41 222.5t20 225.5v27q-2 0 -3 1t-3 1q-23 -27 -44 -52.5t-44 -53.5q-78 -100 -169 -186.5t-196 -160.5q-35 -25 -71.5 -42t-77.5 -23q-29 -4 -63.5 2t-69.5 22.5t-63.5 43 t-45.5 61.5q-25 53 -20.5 107.5t26.5 105.5q37 94 101.5 163.5t150.5 123.5q41 29 87 46t98 19q76 4 131 -43q10 -8 16 -18q4 -6 4 -12.5t2 -14.5q-8 2 -24 2q-66 4 -123 -29q-102 -57 -180 -136t-127 -185q-16 -37 -22.5 -74t3.5 -78q4 -25 16.5 -35t39.5 -1q29 6 58.5 15 t55.5 25q145 84 268 193t216 250q16 23 29.5 48.5t27.5 49.5q10 18 29 17q78 -18 96 -93q16 -57 18 -114.5t-2 -114.5q-2 -45 -4 -89t-6 -93zM727 152q-2 0 -3 1t-3 1l-27 -23q-113 -106 -208 -226t-179 -249q-55 -86 -99 -177t-67 -194q-10 -39 -12 -76.5t14 -74.5 q12 -29 27.5 -35t44.5 8q35 16 63.5 42t57.5 54q55 59 93 130t73 147q61 135 110.5 275.5t87.5 285.5q8 29 14.5 55.5t12.5 55.5zM866 283l-155 -543q16 31 41.5 102.5t49 154.5t42 162t22.5 124zM74 530q37 76 89 140.5t116 120.5q-72 -49 -127 -111t-78 -150zM688 -113 l8 -4l84 312q-2 2 -8 2zM805 156q-2 0 -3 1t-3 1l-80 -283q4 -2 8 -2q20 72 40 141.5t38 141.5zM68 606l88 121q-29 -27 -53.5 -54.5t-34.5 -66.5zM20 594l84 131q-61 -53 -84 -131zM117 -694l-6 4l-19 -115q2 -2 8 -2z" />
<glyph unicode="h" horiz-adv-x="1101" d="M82 88l12 27q45 92 93.5 180t109.5 172q51 70 111.5 129t134.5 106q23 16 48 25.5t54 3.5q41 -8 65.5 -32.5t28.5 -65.5q2 -43 2 -87t-6 -87q-16 -139 -32.5 -275.5t-34.5 -275.5q-12 -98 -13.5 -194.5t4.5 -194.5l5 -23q0 -2 6 -14q18 47 36.5 90t34.5 88l332 864 q10 23 19.5 46.5t19.5 47.5q12 31 43 21q20 -4 14 -25l-55 -137q-53 -131 -106.5 -261t-104.5 -265q-41 -111 -78 -220.5t-75 -219.5q-10 -27 -19.5 -52.5t-21.5 -50.5q-16 -29 -44 -36t-59 -9q-27 0 -39 15.5t-20 37.5q-23 55 -30 113.5t-11 118.5q-8 133 3 263t34 259 l63 391q4 20 4 41t2 41q2 27 -20 12q-51 -29 -92 -66.5t-78 -82.5q-59 -68 -104.5 -143.5t-86.5 -153.5q-45 -86 -85 -173t-80 -177q-6 -12 -8.5 -26.5t-4.5 -29.5q0 -25 -20 -26l-51 -10q-33 -6 -37 32q-4 35 -7.5 71t-5.5 71q-6 233 28 458.5t101 448.5q59 201 137 390 t185 370q37 63 82 120.5t100 104.5q29 23 59.5 39t69.5 14q53 -2 97.5 -39t66.5 -94q16 -49 16 -98t-4 -99q-10 -90 -39.5 -171.5t-74.5 -159.5q-53 -96 -115.5 -186.5t-136.5 -172.5q-72 -82 -155 -149.5t-181 -116.5q-16 -8 -21 -27q-25 -109 -42 -216t-25 -218 q-2 -12 -3 -24.5t-1 -24.5q4 0 6 -2zM178 707l8 -7q43 33 86 64t84 65q111 92 197 202t152 237q49 98 77.5 199.5t18.5 211.5q-4 35 -11.5 69t-27.5 62q-20 27 -41 9q-23 -16 -43.5 -31.5t-36.5 -34.5q-55 -59 -95 -125.5t-77 -138.5q-80 -154 -142.5 -314.5t-109.5 -326.5 q-10 -35 -19.5 -70.5t-19.5 -70.5zM575 1733q-2 0 -6 4q-172 -244 -276.5 -515.5t-175.5 -555.5q12 6 16 16q4 14 7 27.5t7 27.5q55 213 132 416t186 397q25 47 53 91.5t57 91.5zM627 -573q2 2 8 2q-4 39 -8 77.5t-9 77.5q-8 115 -0.5 227.5t23.5 225.5l61 442 q4 27 4.5 52.5t2.5 54.5q-10 -25 -11 -43q-37 -250 -67 -498q-18 -129 -25.5 -258t4.5 -258q4 -27 8.5 -51t8.5 -51zM369 1524q-14 -23 -27.5 -47.5t-24.5 -49.5q-92 -186 -159.5 -376.5t-114.5 -391.5l-6 -28q10 10 14 24q41 166 94.5 328t122.5 317q25 57 51.5 111.5 t53.5 108.5q10 23 22.5 42t24.5 40q-4 0 -8 4zM29 -27h4q0 4 1 9.5t1 11.5q6 80 11 161t15 160q8 59 19.5 119t21.5 119q2 4 0 10t-2 10q-4 -4 -7 -8t-5 -10q-4 -25 -9 -49.5t-9 -48.5q-10 -86 -21.5 -168t-19.5 -166q-4 -37 -2 -75t2 -75zM449 1597 q-133 -223 -222.5 -460.5t-146.5 -489.5q66 248 154 486.5t215 463.5zM649 596q-10 -2 -10 -4l-49 -330q2 0 3 -1t5 -1zM614 201q4 0 5.5 -1t5.5 -1l43 297q-2 2 -9 2q-10 -74 -21.5 -148.5t-23.5 -148.5zM66 573q-6 0 -9 2l-43 -256q2 -2 6 -2q12 66 24 128t22 128zM-6 408 h6q10 45 17.5 89t15.5 91h-6q-10 -45 -17.5 -89t-15.5 -91zM592 -551q4 0 6 2q-4 47 -10 92t-13 92q-4 0 -6 -2zM565 -549q-2 29 -6 55.5t-8 55.5l-10 49q2 -41 6 -80t18 -80zM-4 381h-6l-10 -92h4zM541 -303h-4q0 -20 1 -39.5t3 -42.5v82z" />
<glyph unicode="i" horiz-adv-x="456" d="M-41 -72q-8 197 20.5 386.5t63.5 381.5q2 2 10 2l17 -18v-4q14 12 21 5t18 -13q18 -10 25 -18.5t5 -33.5l-18 -251q-8 -78 -15.5 -153t-17.5 -153q-4 -39 -8 -77.5t-8 -77.5q-2 -10 -1 -18.5t1 -22.5l16 16t10 15q27 43 52.5 88t52.5 90q72 125 135 254t123 262 q4 10 10 18t21 6q25 -4 28.5 -10t-6.5 -29q-86 -166 -168 -331.5t-166 -331.5q-10 -18 -22.5 -35.5t-24.5 -34.5q-23 -29 -50.5 -38t-59.5 -5q-51 6 -72 56q-10 29 -20.5 58.5t-14.5 59.5q-10 72 -7 141.5t13 139.5q12 90 27.5 178t30.5 178q6 33 18 68q4 12 12 18q6 6 19 2 q4 -4 4 -14q-16 -102 -36 -202.5t-32 -203.5q-10 -76 -10 -151.5t-4 -153.5q-2 -10 0 -17t4 -17q0 -5 4 -9zM23 903q4 14 9 28.5t11 29.5q16 35 45 33.5t51 -19.5q20 -18 33 -35q20 -29 13 -67.5t-35 -59.5q-8 -6 -21.5 -6t-24.5 2q-75 12 -81 94zM96 594h-6 q-4 -23 -6 -44.5t-4 -43.5q-12 -94 -24.5 -186.5t-22.5 -184.5q-4 -59 -5 -118.5t-3 -118.5q0 -6 2 -12.5t4 -14.5q4 182 27.5 361.5t37.5 361.5zM-6 -76q4 63 7 133t9 142t14.5 142.5t16.5 141.5q-16 -53 -27.5 -139t-18.5 -173t-8 -157t7 -90zM14 55h-2v-123h2v123z" />
<glyph unicode="j" horiz-adv-x="428" d="M178 352l49.5 60.5t46.5 52.5q82 86 172 166q14 14 39 14q10 -2 20.5 -7t20.5 -9q-6 -8 -10 -15.5t-10 -13.5q-88 -80 -162 -169t-141 -187q-18 -25 -19 -54l4 -222t0 -222q-2 -119 -12 -236.5t-26 -236.5q-14 -104 -38 -206.5t-59 -201.5q-20 -55 -45.5 -105t-68.5 -91 q-51 -51 -129 -62q-70 -8 -107 54q-27 43 -39 89t-22 93q-20 111 -12 219.5t30 218.5q86 391 301 733q51 84 45 179q-6 121 -9 239.5t-5 239.5q-2 31 1 62.5t7 64.5q4 23 11 24.5t26 -10.5q0 -2 2 -2h2q10 18 16 11t13 -13q2 0 4 1t4 1q14 4 14 0q4 -12 16.5 -14t16.5 -11 q12 -23 16 -45q8 -59 13.5 -115.5t9.5 -113.5q4 -39 7 -77t7 -83zM10 -53q-4 -2 -6 -2h-2q-4 -8 -9 -15.5t-9 -15.5q-53 -94 -97.5 -191.5t-81.5 -199.5q-47 -135 -75.5 -271.5t-20.5 -281.5q4 -59 14.5 -118.5t38.5 -117.5q8 -16 19.5 -30.5t21.5 -28.5q10 -10 19.5 -11 t17.5 15q16 35 35 69.5t31 71.5q43 129 64.5 260.5t29.5 266.5q4 80 6 160.5t4 162.5q2 68 1 136.5t-1 140.5zM-20 1104q0 37 18 64.5t51 37.5q33 12 66 -10q6 -4 12 -10t-8 -17q-2 0 -1 -4t3 -8q8 -12 14 -16q33 -29 29 -60.5t-33 -64.5q-18 -23 -49 -17q-106 13 -102 105z M131 -371h6v516h-6q-2 -8 -4 -15t-2 -15l6 -348v-138zM133 283q4 41 -2 80.5t-10 82.5v-163h12zM53 166q4 53 0 103t-8 104v-207h8zM94 76h-4v-113h4v113zM90 299h-4v-72h4v72zM164 172h-2v-106h2v106z" />
<glyph unicode="k" horiz-adv-x="1046" d="M199 182l-33 -100q-35 -117 -63.5 -232.5t-47.5 -236.5q-4 -18 -5 -37.5t-3 -40.5q0 -4 -1 -8t-3 -4l-57 -23q-18 -6 -26.5 2.5t-10.5 24.5q-4 29 -9.5 55.5t-7.5 55.5q-10 141 -5 280t20 281q8 86 17 171t26 171q16 90 35.5 177t42.5 175q74 276 196 543 q47 98 102.5 188t129.5 168q45 51 106 90q51 33 107.5 23.5t99.5 -52.5q53 -53 64.5 -114.5t-5.5 -130.5q-31 -131 -90 -249t-133 -229q-78 -117 -167 -222t-193 -199q-23 -20 -47.5 -36t-47.5 -34q-6 -4 -12 -9t-8 -14q-14 -70 -27.5 -138t-25.5 -138l-19 -121q2 0 4 -1 t4 -1q8 14 11 29q45 125 103.5 240.5t150.5 213.5q45 49 95 87t114 61q37 12 72.5 9t70.5 -26q39 -25 37 -69q-2 -47 -18.5 -88t-43.5 -80q-55 -82 -124.5 -146.5t-147.5 -123.5q-35 -27 -69.5 -52.5t-71.5 -52.5q49 -29 76.5 -74t44.5 -94q16 -51 28 -102t25 -103 q16 -72 29.5 -142.5t29.5 -141.5q6 -23 18.5 -45.5t24.5 -42.5q10 -18 16.5 -18.5t18.5 16.5q35 45 59.5 95t44.5 103q35 90 66 180.5t65 182.5q35 96 71 190t73 191q18 49 36.5 98t39.5 98q14 35 49 25q2 -2 4 -7t0 -10q-4 -16 -9 -30.5t-12 -30.5q-72 -211 -145.5 -418 t-149.5 -415q-23 -68 -49 -133.5t-71 -125.5q-31 -41 -71 -60t-93 -9q-37 8 -61.5 32.5t-47.5 53.5q-29 45 -46 93t-27 101q-16 92 -32 181.5t-32 181.5q-6 31 -18.5 60.5t-22.5 58.5q-2 4 -7 9t-11 15zM217 803l8 -4l66 67q111 113 208 232t171 258q41 72 73.5 144.5 t47.5 154.5q8 47 0.5 90t-37.5 82q-12 18 -29 4q-25 -23 -51.5 -42.5t-46.5 -45.5q-57 -66 -101.5 -140.5t-83.5 -152.5q-63 -133 -111 -269.5t-87 -277.5q-6 -27 -12.5 -51t-14.5 -49zM244 303q6 -2 8 -2l10 6q78 59 151.5 124t133.5 144q33 45 61.5 92.5t36.5 104.5 q2 10 -2 31q-8 -2 -15 -3t-14 -5q-41 -23 -75.5 -48.5t-65.5 -60.5q-70 -74 -119 -159t-90 -177zM555 1714q-4 4 -6 4q-82 -111 -143.5 -229.5t-108.5 -243.5t-83 -254t-69 -260l11 14q35 121 70.5 240t76.5 236q41 123 97.5 237.5t131.5 218.5zM485 -471l-20 82t-21 82 q-16 78 -31.5 154.5t-31.5 154.5q-4 14 -8 25.5t-8 23.5q-4 0 -7 -2l21 -88l59 -309q6 -35 15 -65.5t32 -57.5zM342 -2q-2 -2 -8 -2q29 -111 43 -222.5t55 -217.5zM297 47q-2 0 -4 -1t-4 -1l33 -168q2 2 8 2q-8 41 -15.5 84t-17.5 84zM356 -291q4 -45 15.5 -87t34.5 -81z M776 1425q2 0 3 -1t5 -1l47 131q-2 0 -3 1t-3 1zM711 707q4 0 5 -1t5 -1l10 63q-6 0 -8 2z" />
<glyph unicode="l" horiz-adv-x="624" d="M-96 -53q8 96 13 190t15 191q16 154 51 302t85 296q49 150 110.5 293t145.5 278q35 55 73.5 105.5t89.5 93.5q41 35 88.5 51t102.5 0q51 -16 85 -62.5t40 -109.5q10 -104 -15.5 -201.5t-70.5 -189.5q-68 -143 -161 -266t-208 -234q-43 -41 -91 -78t-105 -59 q-25 -8 -27 -33q-10 -72 -23.5 -142.5t-19.5 -142.5q-10 -94 -15.5 -186t-7.5 -186q-2 -76 6.5 -151t30.5 -146q6 -25 16.5 -48.5t20.5 -46.5q10 -20 17.5 -21t17.5 19q29 49 58.5 98.5t52.5 102.5q47 113 88 226.5t84 228.5l106 268l72 211q6 23 26 14q6 -2 9.5 -11t11.5 7 q8 -8 8 -14q-4 -23 -7 -43.5t-11 -40.5l-199 -516q-35 -94 -70 -187.5t-71 -185.5q-16 -41 -34 -79t-38 -74q-27 -47 -74 -70t-98 -12q-29 6 -47 28q-41 43 -61.5 95.5t-34.5 109.5q-18 80 -24.5 162t-10.5 166zM154 651q4 0 8 -4l10 6q20 16 40.5 31.5t39.5 32.5 q131 117 232.5 254t179.5 295q37 72 55 149.5t10 159.5q-4 25 -11 48.5t-16 45.5q-8 27 -28 10q-16 -10 -31.5 -20t-30.5 -23q-49 -49 -88 -105t-71 -118q-72 -135 -131.5 -275.5t-106.5 -287.5q-16 -49 -30.5 -98.5t-30.5 -100.5zM508 1573l-8 6q-18 -29 -39 -54.5 t-37 -54.5q-111 -190 -188.5 -388.5t-133.5 -409.5q-4 -16 -6 -31.5t-6 -32.5l12 -4q31 129 70 253t92 247q51 123 108.5 241.5t135.5 227.5zM68 -489q4 0 6 2q0 4 -1 6t-1 6q-31 90 -41.5 181t-12.5 183q0 68 4.5 135.5t12.5 135.5q10 90 23.5 177t25.5 177v29 q-4 -6 -9 -12.5t-5 -14.5q-68 -346 -60 -690q0 -63 7.5 -124.5t23.5 -121.5q6 -18 13.5 -35.5t13.5 -33.5zM293 1374l-14 -22q-113 -225 -189 -460t-113 -484l-10 -86q12 57 22.5 114.5t22.5 114.5q31 160 79 313.5t114 304.5q23 51 46 100.5t46 100.5l35 64q-2 2 -6 2 l-9 -13zM375 1446q-231 -406 -324 -860q53 227 134 440t190 420zM6 285q8 47 14.5 93t12.5 93l18 86q-2 2 -8 2l-6 -20l-21 -109l-16 -160q2 4 4 7.5t2 7.5zM-53 -217q4 -59 14 -121.5t33 -124.5zM23 -444l-37 202q0 -104 37 -202zM719 1237q-2 0 -3 1t-3 1 q-10 -20 -20.5 -40.5t-20.5 -43.5q4 0 6 -2zM-12 176q2 0 3 -1t3 -1l6 94z" />
<glyph unicode="m" horiz-adv-x="1638" d="M2 4q0 45 -1 90t1 92q4 98 7 195.5t11 196.5q4 63 14.5 124.5t20.5 122.5q4 12 8 21q2 4 5.5 4t7.5 2q4 -8 4 -12q-10 -94 -19.5 -187.5t-17.5 -187.5q-4 -53 -6 -108.5t-4 -108.5q-2 -39 -1 -76t3 -78q4 10 6 18.5t4 18.5q4 84 6 166t6 166q6 88 13.5 175t15.5 175 q0 8 5 18.5t9 8.5q12 0 15.5 -10.5t3.5 -22.5q-4 -55 -6 -110.5t-4 -110.5q-4 -74 -6.5 -147.5t-4.5 -147.5q-2 -6 4 -23l13 27q49 111 97 219.5t103 216.5q35 70 80 135.5t88 130.5q16 25 34 50.5t36 50.5q14 16 35 20q59 8 102 -30.5t51 -102.5q8 -86 -1 -167t-19 -165 q-10 -78 -20.5 -153.5t-20.5 -153.5q8 8 10 12q104 221 220 432t253 412q23 33 56.5 40t68.5 -15q45 -31 58 -86q12 -57 9 -113.5t-14 -112.5q-23 -133 -49 -263t-51 -261q-23 -113 -42 -224.5t-36 -223.5q-12 -86 -19 -169t-16 -169q-4 -35 -2 -71t2 -71q2 0 4.5 -1t4.5 -1 q4 6 9 11.5t9 13.5q53 96 100.5 194.5t90.5 202.5q43 106 89 211t93 211q33 76 63.5 150.5t61.5 150.5q16 37 51 19q4 -4 7 -12.5t1 -14.5l-45 -106l-235 -539q-49 -111 -97.5 -220.5t-97.5 -219.5q-10 -23 -22.5 -43.5t-24.5 -42.5q-18 -29 -45 -44.5t-60 -19.5 q-41 -6 -53 29q-10 29 -19 57.5t-12 56.5q-4 72 -5 142.5t3 142.5q4 135 23.5 269.5t42.5 269.5q16 98 36.5 197.5t39.5 197.5l65 336l4 47q-2 0 -4 1t-4 1q-18 -29 -37.5 -55.5t-38.5 -55.5q-231 -369 -401 -776l-102 -246q-2 -4 -5.5 -10t-7.5 -6q-25 -4 -49 -6t-49 -4 q-4 0 -10 8t-6 12q-4 33 -7.5 64t-1.5 61q2 66 5.5 129.5t9.5 128.5q8 70 17 137.5t18 137.5q10 84 19 166t19 166l-4 12l-8 -8t-8 -9q-80 -92 -140.5 -195.5t-113.5 -213.5q-125 -266 -213 -543q-8 -25 -13 -50.5t-9 -51.5q-6 -29 -33 -23q-6 0 -10 -4q-18 -12 -37 -10 t-35 6q-6 2 -10 13.5t-7 21.5q-4 47 -9 96t-7 98q-4 135 0 271q6 104 16.5 207.5t36.5 207.5q4 10 7.5 21.5t7.5 21.5q10 23 21 30t36 3q14 -2 10 -20q-10 -45 -18 -88t-12 -86q-8 -57 -13.5 -113.5t-7.5 -114.5q-4 -102 -6 -203.5t-4 -203.5v-29h10zM1141 145q2 -2 8 -2 q0 4 2 5.5t2 5.5q18 96 36.5 190t39.5 191q25 123 49.5 242.5t34.5 244.5v33zM696 926q-23 -188 -52.5 -373.5t-39.5 -376.5q12 94 27.5 187.5t29 186.5t23.5 187.5t12 188.5zM565 250h8l80 586h-10zM614 938l-79 -619h8q16 156 42.5 308.5t28.5 310.5zM-39 -76 q-4 225 5 447.5t46 445.5q-49 -223 -55 -445.5t4 -447.5zM1245 1028q-8 0 -10 2q-20 -100 -38.5 -199.5t-37.5 -201.5h8q18 100 38 199.5t40 199.5zM1272 969h-10l-72 -371h10q16 92 35 184.5t37 186.5zM1098 -582h8l-12 78h-7zM522 18h4v93h-4v-93zM25 365h4v86h-4v-86z M76 401l-2 2v-102h2v100zM20 240h3v84h-3v-84zM68 205h2v57h-2v-57z" />
<glyph unicode="n" horiz-adv-x="1019" d="M84 727q6 29 12 57.5t15 57.5q0 8 4 16q4 4 16 8q4 -12 4 -14q-10 -94 -21.5 -188.5t-21.5 -188.5q-6 -59 -9 -116.5t-7 -116.5q2 -2 8 -2q2 6 4 11t2 11l29 375q4 47 10 94t10 94q2 6 5 12.5t8 14.5q6 -8 14 -14.5t8 -14.5v-62.5t-4 -64.5q-4 -63 -10 -125.5t-13 -124.5 q0 -12 7 -20q10 25 21 50.5t24 47.5q47 102 97 201.5t116 192.5q37 51 76.5 97t91.5 85q18 12 37.5 23.5t39.5 21.5q25 12 55.5 11t56.5 -14.5t41 -39t13 -62.5q-6 -68 -11 -134t-13 -132q-14 -129 -29.5 -255t-28.5 -255q-10 -104 -17 -207.5t-13 -208.5q-4 -43 -2 -86 t2 -86q0 -6 4 -18q4 0 6 -2q10 23 19.5 46.5t17.5 45.5q33 109 64.5 214.5t60.5 211.5q31 111 65.5 217.5t75.5 212.5q16 45 57 25q4 -2 5 -10.5t-1 -12.5q-10 -33 -20 -65.5t-23 -65.5q-45 -123 -80.5 -246t-70.5 -245q-29 -94 -62.5 -184.5t-68.5 -182.5 q-12 -33 -33.5 -53.5t-56.5 -26.5q-20 -4 -30.5 1t-18.5 28q-8 29 -15.5 55.5t-11.5 54.5q-23 135 -23 270.5t7 270.5q4 109 15 215.5t30 212.5q16 98 34.5 195.5t34.5 195.5l6 45q-33 -14 -57.5 -33.5t-46.5 -41.5q-63 -61 -115.5 -132t-93.5 -151q-39 -78 -78 -154.5 t-69 -156.5q-35 -92 -61.5 -184.5t-57.5 -184.5q-4 -12 -6 -26.5t-13 -18.5q-14 -8 -31.5 -8h-33.5q-41 0 -45 45q-4 57 -9.5 113.5t-7.5 115.5q-4 150 7 301q4 66 13 131.5t32 126.5l12 29q8 14 27.5 20.5t31.5 -2.5q4 -2 5 -10t-1 -14q-4 -29 -11 -58.5t-13 -58.5 q4 0 5 -1t3 -1zM784 1004q-18 -100 -34.5 -210t-29.5 -216.5t-23.5 -205t-16.5 -179t-6 -136t4 -77.5q10 262 44.5 515t61.5 509zM633 434l41 268l45 265h-8q-25 -133 -46.5 -265.5t-31.5 -267.5zM737 891q-4 0 -6 2q-23 -129 -41 -256t-26 -258zM61 823q-45 -193 -50 -384 t5 -388q-4 193 0 387.5t45 384.5zM47 371q-2 -49 -3 -98.5t-1 -98.5q0 -10 1 -18.5t1 -18.5q2 0 4 1t4 1v258q-2 -8 -4 -14t-2 -12zM672 -49h-2v-154h2v154zM53 399q2 16 3 35t1 35h-4v-70z" />
<glyph unicode="o" horiz-adv-x="645" d="M315 575l21 -24q55 -68 89 -143.5t30 -165.5q-6 -102 -43 -192.5t-117 -160.5q-125 -111 -295 -65q-49 12 -80 45t-47 80q-27 74 -31 148.5t11 152.5q16 90 47.5 174t85.5 158q16 23 35.5 43t39.5 41q20 20 46 23t47 -13q31 -23 64.5 -22t66.5 -15q68 -29 137 -35 q35 -4 70.5 0t72.5 8q23 2 47.5 6.5t46.5 6.5q16 2 37 -4q6 -2 11.5 -7.5l9.5 -9.5q-4 -6 -9.5 -13t-13.5 -9q-29 -8 -57.5 -13.5t-56.5 -9.5q-59 -10 -119 -5t-119 17q-4 2 -10.5 2t-16.5 2zM348 233q-2 23 -4 45.5t-6 45.5q-14 80 -54 145.5t-91 124.5q-10 12 -21 -2 q-14 -25 -28.5 -48.5t-26.5 -45.5q-53 -111 -84 -223.5t-27 -235.5q2 -39 8 -77t27 -73q23 -35 59 -24l40 16t38 19q86 59 125 144t45 189zM104 567q-80 -115 -117.5 -238.5t-25.5 -265.5q4 135 40.5 260t102.5 244zM-78 190l84 285q-37 -68 -57.5 -140.5t-26.5 -144.5z M-47 449q-31 -68 -50.5 -136.5t-19.5 -140.5zM403 127q14 35 20.5 70.5t0.5 76.5z" />
<glyph unicode="p" horiz-adv-x="870" d="M2 -954q2 -20 -13.5 -20.5t-25.5 -0.5q-27 -4 -33 2t-10 35q-6 37 -6 78q0 113 -1 224.5t3 223.5q6 154 14.5 306.5t18.5 306.5q10 135 24.5 266t28.5 266l10 111q4 23 10.5 25.5t24.5 -3.5q10 -4 19.5 -4t19.5 -4q43 -16 52 -30.5t12 -45.5v-272h6q4 8 6 15t6 16 q25 51 49.5 103t52.5 101q16 25 39 47.5t45 41.5q37 31 79 35.5t79 -9.5t66.5 -45t42.5 -70q18 -53 20 -108t-2 -111l-6 -65q10 2 18 8q74 51 119 81t69.5 45t36 19t19.5 9q14 4 23 2q8 -4 15 -8.5t15 -8.5q-4 -6 -9 -13t-11 -11l-262 -185q-57 -39 -72 -106 q-20 -88 -55 -169t-82 -159q-23 -37 -52.5 -68.5t-76.5 -46.5q-61 -23 -117 -2q-39 14 -39 56q-2 35 9.5 64.5t27.5 58.5q41 70 94 127t113 110q55 49 69 119q12 63 24.5 125.5t12.5 128.5q0 68 -16 145q-8 33 -21.5 37t-42.5 -14q-41 -29 -70.5 -67t-52.5 -83 q-45 -88 -74.5 -180t-54.5 -190q-29 -119 -51 -237t-37 -241q-14 -121 -25 -239.5t-16 -239.5q-2 -61 -6 -121.5t-8 -121.5q0 -12 -8 -33q-4 -16 -16 -17q-4 -2 -10.5 2.5t-10.5 8.5zM410 158q-49 -53 -92.5 -111.5t-53.5 -136.5q59 49 88 115.5t58 132.5zM-51 -786 q4 281 17.5 557t37.5 555q-35 -279 -47 -555t-8 -557zM-10 -268h8l25 346q-4 0 -9 2zM150 225q16 55 30.5 111.5t28.5 114.5q2 4 2 14q-14 -29 -22.5 -59.5t-16.5 -59.5q-18 -76 -31 -143zM68 219q20 59 22 120.5t4 125.5q-6 -61 -12 -123t-14 -123zM563 297q-8 4 -10 4 l-43 -137q2 0 3 -1t5 -1q10 35 21.5 67.5t23.5 67.5zM543 496h-6l-29 -129q2 0 3 -1t5 -1zM582 424q2 0 3 -1t5 -1q16 51 10 115zM115 102q2 -2 8 -2l12 76q-6 -18 -11 -38z" />
<glyph unicode="q" horiz-adv-x="970" d="M524 10q59 70 117.5 137.5t112.5 139.5q47 59 88 119.5t82 121.5q14 20 24 43t23 45q14 25 27.5 30t39.5 -7q4 -2 8.5 -8t2.5 -10q-4 -16 -10.5 -32t-14.5 -30q-66 -117 -145.5 -223.5t-165.5 -208.5q-47 -53 -96.5 -104.5t-96.5 -102.5q-16 -16 -24.5 -26.5t-9.5 -19.5 t5.5 -20.5t18.5 -29.5l49 -74q37 -55 51.5 -116.5t16.5 -127.5q4 -125 -12.5 -244.5t-69.5 -236.5q-12 -29 -28.5 -54.5t-33.5 -51.5q-23 -33 -53.5 -48.5t-67.5 -21.5q-57 -6 -88 43q-29 47 -40 97t-15 104q-20 289 53 571q31 121 66 238.5t70 236.5q2 8 0 19 q-14 -16 -26.5 -31.5t-29.5 -32.5q-35 -35 -69.5 -68.5t-73.5 -62.5q-31 -23 -67 -34t-73.5 -11t-74.5 12.5t-66 36.5q-31 23 -45 56.5t-22 70.5q-14 57 -10 112.5t20 110.5q39 137 104.5 256t169.5 220q35 31 72 57.5t82 42.5q63 27 131 -6q8 -2 21 -15q6 -6 14 -26 q-6 -2 -13.5 -2t-13.5 -4q-18 -8 -36.5 -15.5t-34.5 -19.5q-113 -80 -191 -184.5t-127 -233.5q-25 -68 -42 -137.5t-9 -140.5q2 -29 9 -56.5t18 -54.5q8 -23 19 -27t34 6q41 16 76.5 43t64.5 60q55 61 108.5 124.5t106.5 125.5q49 59 87 122.5t69 133.5q10 25 20.5 30 t36.5 0q14 -4 27.5 -9t27.5 -11t14.5 -17.5t-3.5 -21.5q-14 -39 -29.5 -76t-30.5 -73l-129 -363q-4 -10 -8 -31zM440 -233l-10 -25q-16 -76 -33.5 -149.5t-31.5 -151.5q-18 -102 -26.5 -203.5t1.5 -206.5q4 -29 11 -57.5t16 -56.5q6 -27 28 -4q31 39 53.5 81.5t38.5 90.5 q74 223 45 460q-6 61 -30.5 115t-61.5 107zM360 -348l-38 -193q-33 -197 -25 -395q2 -23 6 -46.5t8 -45.5h6q0 4 1 8t-1 8q-4 35 -7 71t-5 71q-2 123 13.5 242.5t39.5 242.5q4 12 5.5 24.5t3.5 22.5q-7 -6 -7 -10zM129 625q-27 -23 -61.5 -82.5t-62.5 -129t-44 -137 t-6 -104.5q16 123 62 236t112 217zM641 475q-55 -119 -101 -240.5t-79 -250.5q45 123 89 245.5t91 245.5zM-8 451q-12 -16 -24.5 -47t-23 -64t-16.5 -60.5t-2 -37.5zM-63 403q-23 -47 -38.5 -97t-13.5 -105q12 53 26 103t26 99zM588 -391l12 -217q4 55 4 109.5t-16 107.5z M248 -883h-6l8 -82q4 0 6 2zM391 -262q-4 0 -5 1t-5 1l-10 -59q4 16 10 29.5t10 27.5zM276 -852h-4v-61q4 2 4 6v55z" />
<glyph unicode="r" horiz-adv-x="741" d="M342 893q-10 -23 -19.5 -46.5t-19.5 -47.5q-55 -158 -107.5 -314.5t-86.5 -318.5q-4 -25 -6.5 -50.5t-6.5 -49.5q-2 -10 -4 -18.5t-6 -14.5q-4 -4 -10 -6t-13 -7q-4 12 -4 19q-2 4 -1 7t1 7h-6q-4 -4 -4 -10t-2 -11t-6 -8.5t-14 -0.5q-23 4 -37.5 11t-18.5 27 q-6 47 -11 92.5t-5 92.5q0 96 2 191t8 194q4 66 16.5 129t22.5 129q2 10 10 31q10 31 25.5 33.5t44.5 -13.5q31 -18 39 -43t4 -59q-6 -86 -9 -170t-7 -170q0 -4 6 -11l33 88q41 123 87 241t103 235l8 20q4 10 10.5 22.5t10.5 12.5q33 0 61 -12q33 -16 37 -58l25 -295 q8 -76 15 -150.5t17 -150.5q4 -18 11.5 -36.5t15.5 -36.5q16 -29 43 -7q16 14 32.5 28.5t26.5 31.5q23 37 40.5 76t37.5 77q4 8 8 16.5t11 18.5q27 39 57 10q4 -4 5 -13t-3 -15q-12 -29 -24.5 -56.5t-28.5 -54.5q-37 -63 -84 -127q-29 -37 -65 -41t-77 11q-43 16 -71.5 43.5 t-48.5 68.5q-23 47 -34 96.5t-16 100.5q-4 59 -5 118.5t-5 118.5q0 6 -1 12.5t-1 12.5h-6z" />
<glyph unicode="s" horiz-adv-x="741" d="M262 154q33 39 62.5 75.5t64.5 69.5q55 59 113.5 113.5t118.5 107.5q33 27 69.5 46.5t71.5 41.5q33 20 72 -2q16 -10 0 -22q-6 -4 -12.5 -9.5t-14.5 -9.5q-78 -37 -139.5 -91t-120.5 -114q-66 -66 -123 -135t-111 -143q-18 -27 -8 -55q53 -158 78 -318q12 -92 4 -181 t-45 -177q-66 -162 -240 -182q-23 -2 -48 -2.5t-50 4.5q-49 8 -70.5 34.5t-27.5 77.5q-10 76 4 145.5t35 141.5q29 106 78 202.5t110 188.5q18 31 6 59q-31 84 -60.5 166t-58.5 166q-27 78 -42 158t-9 166q10 92 49 162.5t121 117.5q55 33 112.5 21t102.5 -41l4 -4l19 -33 q-8 0 -16.5 -1t-16.5 1q-61 4 -105 -22.5t-77 -73.5q-29 -47 -39 -97.5t-6 -103.5q4 -66 20.5 -126t38.5 -120l76 -184l4 -8t6 -10zM182 -129l-12 -16q-53 -90 -90 -185.5t-57 -197.5q-10 -47 -13.5 -95.5t8.5 -97.5q23 -90 93 -29q33 29 52 66t32 78q25 90 26.5 178 t-14.5 180q-9 51 -25 119zM319 -584q23 72 28 142.5t-11 142.5zM-20 -700q4 0 6 -2v157q-8 -41 -13 -78.5t7 -76.5zM143 848q-33 -27 -45 -60.5t-18 -72.5zM256 -489q6 12 9 33.5t3 45t-3 45t-9 33.5v-157zM293 -494h6v132h-6v-132zM14 750q2 0 3 -1t3 -1l39 92q-2 0 -3 1 t-3 1q-10 -23 -19.5 -46t-19.5 -46zM59 774q2 0 3 -1t4 -1l24 51l-6 4zM-70 -631h-4v-59q4 10 4 31v28zM367 -446h2v61h-2v-61z" />
<glyph unicode="t" horiz-adv-x="462" d="M129 -166q23 49 46.5 98.5t43.5 98.5q35 82 66.5 165t66.5 164q31 70 64 138.5t65 138.5q8 16 19.5 14t21.5 -4q23 -6 15 -29l-43 -112l-226 -574q-14 -35 -30.5 -70.5t-32.5 -70.5q-39 -74 -127 -61q-49 8 -75 40.5t-42 73.5q-23 53 -28 108.5t-1 110.5 q8 111 17.5 218.5t21.5 218.5q10 102 24.5 202.5t29.5 202.5q10 63 21 127t22 127q4 23 1 27t-24 0q-66 -10 -129 -17.5t-129 2.5q-41 8 -80 22.5t-74 37.5q-18 10 -36 33q-4 4 -4.5 11t-0.5 11q4 0 9.5 1t9.5 1q16 -4 22 -8q47 -33 96.5 -36t100.5 3q59 8 117.5 18.5 t118.5 20.5q27 6 28 35q8 49 17.5 99t19.5 100q4 27 10 27.5t31 2.5q18 2 30.5 -4t24.5 -16q23 -16 28 -39t5 -47q0 -23 -1 -47.5t-1 -46.5q-2 -23 2 -27t27 -4q61 2 119.5 -8.5t113.5 -40.5q16 -10 31.5 -24.5t32.5 -28.5l4 -17q-14 -4 -19 -2q-29 8 -43 16q-43 27 -90 31 t-94 0q-16 -2 -31.5 -5t-31.5 -3q-31 -2 -31 -35q-4 -49 -9.5 -98t-11.5 -98q-12 -98 -26.5 -194.5t-26.5 -195.5q-10 -88 -20.5 -175t-18.5 -175q-14 -152 -24 -309q-2 -31 1 -60.5t5 -60.5q4 0 6 -1t6 -1zM152 846q-8 -6 -9 -19q-8 -47 -16 -92t-14 -92 q-12 -98 -23.5 -193.5t-21.5 -193.5q-8 -76 -11.5 -149.5t-5.5 -149.5q-2 -23 3 -45.5t9 -46.5q-2 123 7.5 245.5t22.5 244.5t30 245t29 246zM68 858h-7q-4 -29 -9 -55.5t-9 -54.5q-14 -117 -29.5 -232t-27.5 -231q-6 -70 -9.5 -139.5t-7.5 -141.5q0 -23 3 -47.5t5 -46.5h11 l-6 65q-2 82 2 163t14 161l45 377zM16 -82h9q-6 217 21.5 430t49.5 426q-4 -10 -6 -19.5t-4 -19.5q-12 -92 -25.5 -183t-23.5 -183q-10 -100 -14.5 -199.5t-10.5 -198.5q-2 -14 1 -26.5t3 -26.5zM37 -51h4v180h-4v-180zM115 319q-2 0 -4 3l-9 -86h7zM119 395q2 -2 6 -2 q0 8 1 16.5t1 16.5l4 31h-6zM72 414h-4l-9 -66h7z" />
<glyph unicode="u" horiz-adv-x="1161" d="M182 1020q43 6 31 -35q-10 -47 -23.5 -95t-23.5 -97q-27 -129 -47.5 -259.5t-16.5 -265.5q0 -12 1 -24.5t3 -24.5q4 -18 8.5 -20t16.5 10l48.5 48.5t43.5 49.5q129 166 243 339t222 353q14 23 22.5 48.5t18.5 50.5q4 10 7 25.5t30 2.5q6 -4 16.5 0t20.5 7q4 0 16 -5 q33 -16 39 -29.5t-2 -51.5l-74 -336q-35 -154 -62.5 -305.5t-43.5 -307.5q-6 -66 -12.5 -131t-6.5 -131q2 -66 11.5 -132t17.5 -134q0 -6 6 -21q6 6 9.5 11.5t7.5 9.5q37 78 75.5 156.5t73.5 156.5q57 125 111.5 249t107.5 249q20 45 38 90l36 90q4 12 9 24.5t11 24.5 q10 16 23.5 13.5t26.5 -5.5q2 0 3 -10t-1 -16q-12 -41 -31 -80l-293 -690q-29 -68 -59.5 -134.5t-61.5 -131.5q-37 -76 -129 -76q-35 0 -55 33q-29 43 -42 90t-22 96q-20 115 -17 227.5t13 227.5q16 160 46 315.5t69 310.5q4 6 -2 15q-16 -29 -32.5 -56.5t-35.5 -54.5 q-66 -102 -129 -201.5t-129 -199.5q-23 -33 -49 -63t-55 -58q-31 -29 -69 -33t-79 4q-78 14 -96 100q-12 55 -13 110.5t5 113.5q10 106 30.5 209.5t53.5 205.5q12 37 28.5 74t32.5 72q10 20 37 24.5t43 -12.5v-10zM647 -436h8l-6 28q-16 74 -23.5 149t-2.5 148q4 63 7 125 t11 123q12 92 25.5 183.5t31.5 181.5q27 133 57.5 262t61.5 260l6 47q-2 2 -6 2l-8 -14q-4 -16 -6 -30.5t-6 -31.5q-57 -229 -106.5 -457.5t-69.5 -463.5q-10 -104 -12.5 -205.5t16.5 -206.5q4 -25 10 -50zM59 274q4 10 3 19.5t1 19.5q4 57 7.5 113.5t11.5 114.5 q16 111 38.5 218t57.5 214q4 10 4 21.5v23.5q-61 -180 -97 -364.5t-26 -379.5zM68 854q-35 -131 -61.5 -262t-18.5 -270q4 135 27.5 267t52.5 265zM20 358q12 139 37 273.5t60 269.5q-41 -133 -67 -267.5t-30 -275.5zM582 -2q-2 -18 -3 -36.5t-1 -35.5q-6 -115 16 -235 q4 8 2 16q-2 37 -5 74t-3 74q-2 41 -2 79.5v77.5q-4 -8 -4 -14zM559 100q-10 -49 -13 -115.5t-1 -130t8 -115.5t18 -73q-18 111 -20 217t8 217zM641 428q-4 0 -6 2l-25 -147h8q4 35 10.5 71.5t12.5 73.5zM672 598q8 29 15 54.5t13 54.5q-6 0 -8 2l-20 -109l-19 -70q4 0 5 -1 t6 -1zM600 125h-12v-94z" />
<glyph unicode="v" horiz-adv-x="790" d="M102 55l-6 90q-4 92 -8 182.5t-4 182.5q0 66 7 130.5t11 129.5l11 156q0 4 2 9t4 5q4 0 10 -1t8 -5q10 -16 10 -33q-4 -59 -7 -115.5t-5 -115.5q-2 -92 -3 -182.5t-1 -182.5q0 -41 2 -81t6 -81v-13t2 -13q2 -2 6 -2q4 8 10.5 15t10.5 17q115 205 218 410t181 426 q6 18 11.5 36.5t13.5 35.5q8 16 24 20q31 8 50.5 -6t25.5 -45q8 -53 15.5 -105.5t21.5 -105.5q16 -61 37.5 -121.5t67.5 -109.5q16 -16 -9 -19q-45 -6 -77 35q-45 55 -72 117.5t-47 130.5q-4 6 -5 14t-6 19l-14 -31q-45 -109 -90 -215.5t-92 -212.5q-35 -76 -71 -149.5 t-75 -145.5q-18 -35 -41.5 -64.5t-50.5 -58.5q-10 -12 -30.5 -20.5t-43 -11.5t-44 0t-33.5 14q-14 10 -24.5 26.5t-14.5 32.5q-10 45 -19.5 90t-13.5 90q-12 98 -12 195q-2 94 10 184t29 182q6 35 13 69t11 69q8 45 66 30q0 -2 2 -2q16 -4 24 -4q0 -8 -1 -15t-3 -18 q-8 -98 -18 -196.5t-12 -196.5q-2 -104 6 -204.5t12 -204.5q0 -14 2 -27.5t4 -28.5h8zM41 899q-33 -180 -48.5 -357t13.5 -360q-23 182 -5.5 359.5t40.5 357.5zM78 928q-18 -133 -35.5 -262t-11.5 -248z" />
<glyph unicode="w" horiz-adv-x="1439" d="M1171 911q-10 -27 -16 -51t-14 -47q-47 -150 -103.5 -295t-128.5 -285q-39 -76 -86 -139q-23 -33 -56.5 -45t-68 -9t-65.5 18.5t-47 39.5q-29 41 -41.5 83t-16.5 89q-16 225 19 447q2 6 -4 16l-33 -61q-47 -92 -90 -181.5t-90 -181.5q-18 -35 -42 -65.5t-46 -61.5 q-12 -18 -40 -28.5t-58.5 -9.5t-59.5 12.5t-45 36.5q-43 63 -53 147q-8 72 -6 144.5t6 144.5q4 74 13 147.5t30 145.5q14 47 31.5 95t33.5 95q4 14 12.5 23.5t30.5 5.5q8 -4 19.5 -4h21.5q23 -2 22 -12.5t-5 -22.5q-10 -35 -21.5 -72t-23.5 -74q-23 -80 -35.5 -160.5 t-16.5 -164.5q-6 -121 -6 -236q0 -27 3 -52.5t7 -49.5h9l-7 51q-4 180 12.5 354t76.5 346q4 12 6 26.5t6 27.5q4 8 8 14l8 12q8 -8 19.5 -13t5.5 -21l-23 -86q-31 -94 -47 -190.5t-20 -195.5q-4 -78 -4 -154.5v-154.5q0 -23 3 -43t5 -43q2 0 3 -1t5 -1q6 8 13 14.5t12 16.5 q41 68 79.5 136.5t77.5 137.5l232 406l22 51q16 45 60 23l12 -5l7 -7t3 -7q-12 -86 -26.5 -172t-24.5 -172q-8 -68 -9 -136.5t-5 -137.5q-2 -33 -1 -65t1 -62q2 -2 6 -2q2 8 2 20q4 92 6 181t10 182q10 90 23.5 177t25.5 177q0 4 3 8t8 8q4 -4 8 -6t6 -6q4 -6 4 -13v-14 q-10 -84 -20.5 -164.5t-20.5 -164.5q-8 -113 -12 -232q-4 -106 0 -211q2 -23 8 -43t14 -39q16 -39 43 -8q23 29 45.5 59.5t40.5 63.5q70 121 123 247t96 257q29 86 53.5 169t51.5 169q4 14 6 28.5t4 30.5q2 12 6 20.5t21 8.5q43 4 59 -6.5t25 -51.5q14 -82 30.5 -161.5 t51.5 -157.5q23 -51 50 -96t70 -82l7 -4l24 -35q-10 -2 -22.5 -7t-22.5 -3q-16 4 -32.5 8t-28.5 14q-123 86 -174 219q-12 31 -24 62.5t-24 66.5zM20 385q4 70 6.5 139.5t8.5 139.5t16 138t21 138q-41 -137 -49.5 -275.5t-2.5 -279.5zM561 289q2 66 3 134.5t7 135.5 q4 70 13.5 137.5t17.5 137.5q-12 -35 -22.5 -107t-16.5 -152.5t-7 -158.5t5 -127zM123 971q-45 -125 -56.5 -253t-9.5 -257q4 129 17.5 256t48.5 254zM621 780q2 0 3 -1t5 -1l20 135h-6q-4 -33 -10 -65.5t-12 -67.5zM600 612q4 0 6 -2l6 66h-6zM594 481h-2v-100h2v100z" />
<glyph unicode="x" horiz-adv-x="804" d="M215 479q12 18 21.5 34.5t21.5 31.5q39 45 76 89t78 85q20 23 45.5 29t54.5 0q12 -2 29 -15q16 -12 15 -19t-17 -18q-10 -8 -20.5 -15t-20.5 -17q-66 -72 -121 -148t-98 -162q-8 -18 -3 -32q16 -61 35 -122t37 -122q23 -72 53.5 -140.5t71.5 -132.5q23 -31 31 -30.5 t22 35.5q41 111 81 219t81 219q35 94 67.5 188t67.5 191q14 35 45 24q16 -4 16.5 -16t-3.5 -23q-12 -41 -25.5 -80.5t-28.5 -80.5q-27 -78 -54.5 -153t-51.5 -153q-29 -84 -53.5 -166.5t-49.5 -166.5q-2 -12 -10 -23q-23 -55 -74 -74.5t-108 2.5q-53 23 -90 60t-64 86 q-29 55 -53 112.5t-51 114.5q0 2 -8 10l-35 -80q-53 -129 -101.5 -257t-82.5 -263q-14 -53 -20.5 -104t-8.5 -105q0 -6 -4 -18q-2 -6 -4 -10q-14 2 -30.5 0t-23.5 14q-10 23 -17 44.5t-5 41.5q6 55 14 108.5t21 106.5q45 168 105.5 329t129.5 320q8 20 10.5 38t-6.5 40 q-33 86 -61.5 174t-60.5 176q-10 29 -25.5 53.5t-32.5 49.5q-10 18 -8 24t23 13q35 10 63.5 -2.5t50.5 -36.5q53 -55 89 -120t65 -134q2 -4 4 -9.5t6 -13.5zM147 145l-4 5l-12 -21l-63 -154q-47 -123 -91.5 -243.5t-74.5 -249.5l-17 -98h9q35 201 105 388t148 373zM252 389 q4 -4 8 -4q16 25 29.5 50.5t29.5 51.5q-2 0 -6 5z" />
<glyph unicode="y" horiz-adv-x="1173" d="M776 821l-16 -22q-70 -106 -138.5 -213t-140.5 -213q-70 -106 -170 -191q-31 -25 -76 -35t-92 -1.5t-89 36t-64 80.5q-33 72 -43 144.5t-4 150.5q10 111 38.5 213t84.5 199q23 37 61.5 38t62.5 -36q4 -10 0 -19q-35 -78 -54 -158.5t-32 -164.5q-12 -90 -9 -178.5 t32 -174.5q6 -18 15.5 -34.5t19.5 -32.5q10 -25 33 -6q35 29 72.5 55.5t68.5 60.5q123 141 226.5 294t201.5 313q10 14 14 29.5t13 31.5q12 16 24 17q16 0 31.5 -2.5t30.5 -6.5q29 -10 36 -32.5t9 -49.5q8 -113 5 -225.5t-14 -224.5l-4 -60l31 27q57 53 116.5 101.5 t127.5 86.5q12 8 24.5 11.5t28.5 -2.5q14 -6 16 -11.5t-12 -15.5q-23 -16 -45 -32.5t-45 -35.5q-51 -43 -99 -89t-102 -89q-37 -31 -49 -67.5t-18 -81.5q-16 -96 -35 -190.5t-39 -188.5q-23 -100 -55.5 -196.5t-77.5 -188.5q-47 -98 -104.5 -186.5t-135.5 -163.5 q-37 -39 -81 -61.5t-97 -26.5q-51 -4 -79.5 14t-37.5 78q-8 59 4.5 115.5t28.5 111.5q37 125 94.5 238.5t122.5 224.5q59 102 133 194.5t156 178.5q29 31 41 63.5t16 71.5q10 111 20.5 220.5t20.5 219.5l4 86q-2 0 -3 1t-3 1zM702 63q-2 2 -8 3l-12 -15q-166 -199 -285 -440 q-45 -88 -79.5 -177t-51.5 -188q-6 -37 -5 -73.5t1 -73.5q0 -12 6 -15.5t17 7.5q8 8 16 15t14 15q78 82 133.5 178.5t100.5 198.5q45 104 74.5 211t52.5 217q6 35 12 68.5t14 68.5zM846 342q10 12 19 69.5t14.5 125t7.5 127t-4 75.5zM815 657q-6 0 -10 2l-37 -383q2 0 4 -1 t4 -1zM807 309h8q8 76 17.5 152t11.5 151q-2 0 -3 1t-3 1zM152 952q-49 -94 -72 -194.5t-29 -204.5q14 104 37 202.5t64 196.5zM799 14q2 -2 6 -2q10 53 22.5 107.5t16.5 109.5q-2 2 -10 2q-8 -53 -16.5 -108.5t-18.5 -108.5zM59 897q-57 -135 -75 -287zM225 -803 q-6 -23 -9 -44t9 -44v88zM811 686h4v62h-4v-62z" />
<glyph unicode="z" horiz-adv-x="1173" d="M471 627q-8 0 -15 1t-18 1q-72 -2 -142.5 9t-135.5 46q-4 4 -11.5 2t-13.5 0h-36.5t-39.5 2q-12 2 -13 10.5t9 14.5q16 10 14.5 19t-12.5 22q-35 47 -48 101t-7 112q10 111 51 205t113 178q35 39 76 63.5t94 24.5q92 -2 138 -57.5t30 -145.5q-10 -45 -25 -82 q-43 -111 -102.5 -207t-145.5 -180q-16 -14 -15 -19.5t20 -19.5q59 -39 133 -35q53 0 104 4t102 9q57 6 105 -33q25 -20 4 -43q-29 -31 -58.5 -60.5t-56.5 -62.5q-45 -53 -87 -107.5t-85 -109.5l-16 -27q18 4 32.5 8t28.5 6q41 4 82 7.5t82 3.5q33 -2 59.5 -16.5t49.5 -37.5 q10 -10 17 -9t18 12q174 170 348 335q12 12 27.5 22.5t29.5 20.5q16 12 29.5 11.5t29.5 -7.5q25 -12 7 -28q-20 -18 -40 -34.5t-38 -35.5l-191 -196l-153 -162q-4 -6 -9.5 -14.5t-1.5 -12.5q27 -68 28 -137.5t-11 -138.5q-16 -102 -48 -198.5t-87 -184.5 q-145 -231 -400 -314q-37 -10 -71 -10q-41 -2 -69 23.5t-28 66.5q-2 23 2.5 45.5t10.5 44.5q29 96 76 180.5t100 165.5q78 119 165 227.5t183 213.5q18 18 8 43q-14 29 -26.5 45t-27.5 24.5t-36.5 6.5t-52.5 -11q-115 -29 -217 -112q-70 -57 -158 -21q-29 10 -34 19.5 t11 36.5q33 55 66 109t72 103q53 68 110.5 132.5t116.5 132.5zM678 12q-2 2 -8 2q-4 -2 -13 -10q-111 -123 -204 -256t-168 -278q-20 -39 -36 -80t-28 -82q-4 -16 -1 -33.5t7 -34.5q10 -35 43 -16l39 16q104 57 168 147.5t111 194.5q33 72 51 145.5t29 151.5q4 33 6 65.5 t4 67.5zM133 942l21 -104q8 -29 28 -7q80 86 136.5 183.5t91.5 208.5q10 37 8 73.5t-25 71.5q-12 23 -35 10q-16 -10 -30.5 -19t-26.5 -22q-78 -82 -116 -181t-52 -214zM98 942q4 74 26.5 142.5t49.5 136.5q-35 -66 -60.5 -134.5t-15.5 -144.5zM768 -127q10 45 13 87t-7 85 h-6v-172zM483 1247q-2 0 -3 1t-3 1q-6 -20 -12 -40.5t-10 -41.5q2 0 3 -1t3 -1q6 20 12 41t10 41zM47 1042q-2 0 -4 1t-4 1l-10 -90q4 0 6 -2zM66 1006q2 -2 6 -2l12 59q-2 0 -3 1t-3 1zM707 -45h4v82h-4v-82zM739 -45h4v63h-4v-63z" />
<glyph unicode="{" horiz-adv-x="671" d="M242 -705q-10 6 -22.5 12.5t-22.5 14.5q-47 39 -72 88t-37 109q-27 123 -30 243.5t8 243.5q8 100 17 200.5t5 203.5q-2 59 -14.5 114.5t-46.5 106.5l-13 16q-25 29 -6 60q68 98 102.5 204.5t59.5 221.5q25 117 55.5 227t77.5 221q35 78 79 146.5t110 121.5q29 23 58.5 31 t63.5 -10q6 -2 17 -12q20 -20 19 -25.5t-25 -15.5q-35 -16 -58.5 -39t-46.5 -52q-53 -70 -88 -145.5t-57 -159.5q-29 -117 -56.5 -231.5t-56.5 -231.5q-43 -164 -147 -303q-4 -4 -4 -10t4 -10q53 -57 76.5 -124t23.5 -142q-2 -70 -6 -138.5t-8 -138.5q-4 -98 -10.5 -193.5 t-6.5 -193.5q0 -49 9.5 -99t17.5 -102q8 -49 34.5 -89t55.5 -79q14 -18 -6 -26zM184 -545q6 0 9 2l-7 25q-43 164 -34 328q4 115 13 228.5t17 227.5q2 35 3 69t-9 73q-2 -6 -3 -8.5t-1 -4.5q-6 -121 -13 -239.5t-16 -239.5q-6 -86 -5 -172t18 -172q6 -29 14 -58.5t14 -58.5z M279 1196q-29 -100 -51.5 -201.5t-67.5 -195.5q29 45 46 94t29.5 99t22 101.5t21.5 102.5zM362 1499q27 55 53.5 109.5t55.5 107.5q-41 -47 -67 -102.5t-42 -114.5zM125 356h-6l-13 -190h9zM154 348h-7l-12 -207h6zM115 -293h4v201h-4v-201zM141 907q2 0 3 -1t3 -1l23 72 q-4 0 -6 2zM135 -446l4 2q-2 18 -4 36.5t-6 36.5q-2 0 -3 -1t-3 -1zM369 1647q-2 0 -3 1t-4 1l-24 -52q2 0 3 -1t3 -1zM92 -43h-4v-61h4v61z" />
<glyph unicode="|" horiz-adv-x="395" d="M102 -514q2 147 4.5 294.5t6.5 295.5q4 139 10 277.5t16 277.5q8 129 18.5 257t20.5 257q6 76 10.5 150.5t8.5 150.5l26 270q2 14 8.5 22.5t22.5 6.5q45 -6 45 -39q-12 -180 -23.5 -356t-21.5 -357q-8 -121 -15.5 -239.5t-13.5 -241.5q-6 -141 -9 -283.5t-7 -285.5 q-4 -111 -4 -220.5t-2 -220.5q0 -25 -1 -48t-3 -46v-4q-16 -4 -31.5 -9t-32.5 -9q-27 -6 -31 22l-6 78h4zM168 -547h6q6 379 14.5 753t38.5 750q-8 -57 -12 -120l-20 -256q-4 -47 -4.5 -92.5t-2.5 -92.5q-4 -92 -8 -181t-6 -181q-4 -129 -4 -256t-2 -256v-68zM158 4h-4v-205 h4v205zM147 346h-4v-72h4v72zM135 78l-2 2v-135h2v133zM147 403h5v60h-5v-60zM127 -334h2v90h-2v-90zM162 182h-2v-71h2v71zM166 250h2v67h-2v-67zM172 446h-2v-65h2v65z" />
<glyph unicode="}" horiz-adv-x="342" d="M301 1479q-6 -92 -12 -175t-10 -167q-6 -117 1 -228.5t50 -220.5q12 -35 9 -60.5t-24 -56.5q-41 -59 -59 -127.5t-27 -140.5q-10 -86 -17 -172t-17 -172q-8 -72 -16.5 -141.5t-22.5 -139.5q-14 -78 -53.5 -141t-84.5 -127q-16 -23 -34.5 -44t-53.5 -25q-10 -2 -20 -4.5 t-21 -0.5q-16 4 -13 11.5t7 15.5q14 25 27.5 50.5t30.5 49.5q12 23 25.5 45.5t27.5 45.5q35 59 49 122.5t20 128.5q10 106 19.5 212t19.5 212q10 92 29 179.5t57 173.5q6 10 11.5 20t11.5 21q23 31 6 67q-57 119 -64.5 243t1.5 251q6 109 14 215t14 215q4 59 -9 114.5 t-60 100.5q-2 0 -2 6q0 2 -2 4q8 8 14 6q16 -8 34.5 -14t32.5 -19q86 -84 99 -196zM209 406q-29 -123 -37 -242t-14 -240z" />
<glyph unicode="~" horiz-adv-x="917" d="M250 764q63 2 119.5 -17.5t113.5 -44.5q39 -16 78 -28t80 -23q74 -16 137 31q23 16 45.5 31.5t44.5 31.5q6 4 14.5 7.5t16.5 3.5t15.5 -4t15.5 -9q-4 -8 -17 -24q-41 -41 -86 -74t-98 -55q-63 -29 -128.5 -28t-131.5 16q-51 10 -98 30.5t-95 42.5q-29 16 -58.5 26.5 t-57.5 20.5q-12 4 -25.5 3t-25.5 -1q-12 2 -24.5 3.5t-25.5 5.5q-4 0 -8 3t-8 7l8 8t10 6q23 6 45.5 11.5t45.5 9.5q25 4 49 6t49 4zM608 608q0 6 2 8l-51 11q0 -2 -1 -3t-1 -3z" />
<glyph unicode="&#xa1;" horiz-adv-x="475" d="M439 759q-14 -96 -27.5 -191t-30.5 -192q-29 -166 -65.5 -328.5t-83.5 -324.5q-16 -51 -34 -100l-36 -98q-10 -29 -22.5 -33t-38.5 10q-10 6 -21.5 13t-19.5 18q-4 4 -5.5 14t3.5 21q14 47 29.5 95t29.5 95q61 205 110.5 409.5t84.5 415.5q14 90 24 189q2 23 0 46l-4 46 q-2 14 2 20.5t21 3.5q59 -4 71 -59q4 -16 5 -33.5t3 -33.5q2 0 2.5 -1.5t2.5 -1.5zM381 1245q35 -2 51.5 -13.5t26.5 -41.5q10 -27 1 -56.5t-30 -44.5q-23 -16 -55.5 -15t-48.5 19q-12 10 -26.5 18.5t-10.5 30.5q4 27 13.5 49.5t29.5 39.5q10 8 23.5 9t25.5 5zM96 -416 q4 -4 5 -4q12 35 25.5 70.5t23.5 70.5q72 238 126 477.5t87 485.5l4 53v31q-37 -305 -108 -598t-163 -586zM283 18l-4 4q-12 -43 -23.5 -87t-21.5 -87q2 0 3 -1t3 -1z" />
<glyph unicode="&#xa2;" horiz-adv-x="759" d="M416 94q25 16 46 29.5t42 30.5q33 25 63.5 51t59.5 55q18 23 32.5 48.5t30.5 49.5q4 8 11.5 17.5t13.5 11.5q12 2 24.5 -3l22.5 -9q6 -4 6 -19q4 -27 -4 -48t-23 -42q-35 -51 -80 -91t-92 -75q-29 -23 -58.5 -43t-66.5 -22q-35 -4 -47 -21.5t-18 -46.5q-8 -41 -19.5 -81 t-21.5 -81q-4 -12 -9 -15t-16 -1h-12q-23 2 -29 10t-2 31l37 174q4 23 -16 25q-117 18 -186.5 95t-71.5 193q-6 401 321 629q29 20 63 32.5t68 22.5q33 10 39 43q10 47 20.5 95.5t24.5 95.5q8 27 12.5 38t11.5 13t17.5 -5t30.5 -17q10 -4 12 -9.5t0 -15.5 q-10 -51 -17 -102.5t-18 -100.5q-6 -31 23 -39q27 -10 48.5 -24.5t37.5 -36.5q8 -12 10 -18q2 -4 1 -9.5t-1 -9.5q-10 0 -14 2q-10 4 -21.5 10.5t-21.5 12.5q-6 4 -12 9t-15 9q-45 23 -55 -29l-125 -563l-55 -231v-9.5t-2 -15.5zM496 909q-6 -2 -8.5 -1t-4.5 -1 q-12 -4 -18 -10q-35 -29 -72 -55.5t-67 -59.5q-76 -80 -119 -175t-64 -204q-10 -57 -6 -112t27 -109q18 -43 49 -73.5t84 -34.5q29 -2 31 24l149 723zM489 528q-6 0 -10 2l-96 -438q2 -2 6 -2zM129 494q23 70 55.5 135t73.5 129q-98 -117 -129 -264zM322 -160q2 0 3 -1t3 -1 l43 176h-6z" />
<glyph unicode="&#xa3;" horiz-adv-x="1349" d="M965 852q4 4 7 10t7 10t7 5.5l7 3.5q4 -14 2 -19q-8 -12 -16 -24.5t-18 -20.5q-37 -25 -82 -41q-53 -16 -106.5 -26.5t-108.5 -1.5q-14 2 -16.5 -5.5t-4.5 -15.5q-18 -59 -35.5 -117.5t-38.5 -117.5q-33 -92 -68.5 -180.5t-88.5 -168.5q-25 -37 -53.5 -71.5t-57.5 -69.5 l-20 -25q20 -4 35.5 -5t31.5 -5q63 -18 125 -37.5t125 -40.5q74 -23 147.5 -44t151.5 -19q74 2 140.5 22.5t125.5 67.5q16 14 36 20.5t42 -8.5q16 -10 19.5 -17t-7.5 -22q-16 -16 -34.5 -32.5t-40.5 -28.5q-123 -68 -248 -69t-254 34q-72 20 -139.5 47t-139.5 49 q-33 10 -65.5 17.5t-65.5 15.5q-41 8 -73 -18q-14 -14 -30 -25.5t-32 -25.5q-25 -23 -49.5 -17t-48.5 12q-4 0 -6 2.5t-7 4.5q-27 8 -6 28q29 29 56.5 59.5t58.5 57.5q82 72 139.5 159t96.5 187q37 98 68.5 195.5t66.5 195.5q8 27 -19 27q-43 -4 -86 -5t-86 -3q-8 0 -16 -4 q-29 -16 -47.5 -3t-38.5 27q-2 2 -2 8.5t2 8.5q6 4 13 9t16 9q66 31 132 33t134 -2q29 -2 37 24q35 106 67.5 212t69.5 210q29 84 70.5 161t101.5 142q29 31 58.5 57.5t68.5 45.5q53 25 108.5 10.5t96.5 -64.5q80 -94 75 -225q-2 -12 -8 -23.5t-10 -23.5q-12 10 -25.5 20.5 t-23.5 20.5q-4 6 -4 15.5t-2 19.5q-10 90 -45 164q-12 23 -22.5 27.5t-35.5 -5.5q-43 -14 -74.5 -40.5t-60.5 -61.5q-53 -68 -91 -143.5t-65 -159.5q-29 -92 -54 -183.5t-54 -183.5q-4 -18 -1 -22.5t23 -1.5q51 6 100.5 17t94.5 40q4 4 7 5t7 3q14 6 28.5 13.5t31.5 -9.5 q8 -8 7 -14t-4 -11.5t-8 -10.5t-8 -11zM418 223q66 127 109.5 259t78.5 270q-47 -133 -94 -264.5t-94 -264.5zM627 836q6 0 8 -2q20 66 38.5 132t37.5 132q-4 0 -6 2l-40 -132t-38 -132zM545 750q-4 0 -5 1t-3 1q-23 -66 -43.5 -130.5t-40.5 -129.5q2 0 3 -1.5t5 -1.5 q20 66 40.5 130.5t43.5 130.5zM557 678l-8 4l-90 -268q2 0 3 -1t3 -1zM940 1575q-61 -57 -98 -127t-66 -148q35 74 74 143t90 132zM573 887q4 -2 9 -2q6 25 16 57q-2 0 -3 1t-3 1z" />
<glyph unicode="&#xa4;" horiz-adv-x="1093" d="M367 961q61 57 137 96q37 16 81 3t66 -46q12 -16 27 -23q43 -16 82 -39.5t74 -56.5q10 -10 16 -9t14 11q78 96 164 195q23 29 38 27.5t40 -29.5q2 -2 5 -2.5t5 -2.5q16 -10 4 -22l-207 -223q-8 -8 -10 -15.5t2 -19.5q16 -37 16.5 -76t-8.5 -78q-23 -86 -50 -168t-79 -157 q-2 -4 -4 -8.5t2 -8.5q27 -55 62 -110q20 -35 40.5 -68t43.5 -68q2 -4 4 -9t0 -9q0 -4 -6 -5t-11 -1q-80 -6 -116 57q-18 29 -37 55.5t-35 55.5q-14 25 -35 6q-45 -39 -93 -66.5t-107 -33.5q-33 -4 -66 -3t-66 5q-29 6 -43 -19q-41 -66 -84 -132l-86 -132l-45 -65 q-27 -33 -65 -9q-4 0 -4 4.5v6.5q10 27 19 52t24 50q41 68 81 134.5t81 131.5q8 12 6 18.5t-13 14.5q-20 23 -36 53q-14 27 -26.5 51.5t-21.5 53.5q-18 66 -9 131t30 129q25 82 60.5 157.5t86.5 143.5q10 12 8.5 21.5t-10.5 19.5q-31 39 -61.5 76.5t-63.5 76.5l-14 21 q-6 14 -4 22q2 4 9 5.5t11 -1.5q43 0 68 -30l96 -123zM803 754q-2 10 -4 27.5t-6 33.5q-6 27 -27 52.5t-48.5 46t-58 34t-57.5 13.5q-41 4 -67 -23q-10 -10 -23.5 -21.5t-24.5 -23.5q-88 -98 -141 -214t-82 -245q-10 -45 -11 -89t15 -89q16 -41 52 -64.5t79 -17.5 q49 8 91 29.5t79 52.5q49 39 83 87t63 103q35 72 59.5 146t28.5 162zM334 743l141 195q-94 -80 -141 -195zM786 399q14 18 31 54t30 75t22.5 73t7.5 48zM305 825q4 -4 6 -4q10 14 18.5 26.5t16.5 26.5q-4 4 -6 5z" />
<glyph unicode="&#xa5;" horiz-adv-x="806" d="M815 1649q4 8 10 14t11 12q0 -10 2 -20t-2 -19q-35 -98 -68 -192t-66 -193q-57 -168 -112 -337t-113 -336q-8 -29 21 -35q53 -6 82 -47q4 -6 8 -19q-6 -2 -11.5 -3t-11.5 -1l-96 -6q-27 0 -33 -27l-61 -221q-4 -20 -1 -23t23 -8q63 -10 129 -24q43 -12 62 -64l-29 6 q-29 16 -57.5 18.5t-57.5 2.5q-16 0 -34.5 -1t-34.5 1q-20 0 -23 -21l-69 -444q-2 -16 0 -33.5t6 -34.5q0 -8 -1 -13t-12 -3l-73 6q-16 2 -22.5 12.5t-8.5 22.5q-2 31 -4 61.5t2 61.5q8 86 18.5 170t20.5 170q2 14 -1 20.5t-20 8.5q-47 0 -79 36q-23 23 6 29q20 4 40.5 7 t41.5 3q33 0 32 31q0 2 2 2q16 47 5 90t-21 86q-6 18 -25 13l-69 -19q-31 -8 -66 5.5t-51 37.5q-8 12 -1 16.5t15 8.5l105 24q25 6 39 10.5t18 12.5t3 22.5t-7 40.5q-39 186 -71.5 369.5t-51.5 370.5q-8 78 -16 152.5t-19 150.5q-2 18 4.5 24t22.5 4q84 -6 98 -84 q20 -96 38 -189t36 -187l92 -473q8 -35 16.5 -69t18.5 -69l10 25l381 1038q6 27 25 45q10 16 33 21q39 6 18 -43q-4 -10 -9 -20.5t-9 -20.5q-23 -63 -45.5 -126t-45.5 -126l-253 -737q-6 -16 -11.5 -35t-9.5 -35q2 0 3 -1t3 -1q4 8 7 15t8 18q43 129 84.5 257t87.5 257 q47 139 96 276.5t98 274.5zM246 -354l67 471q-2 2 -8 2q-23 -117 -39 -234.5t-20 -238.5zM246 104q-23 -106 -36 -211.5t-17 -214.5zM225 -211h8q10 80 22.5 159t25.5 158h-9zM322 197q2 -2 4 -2t6 -2l16 79q-8 0 -10 2q-4 -20 -8 -39.5t-8 -37.5zM403 449q-2 2 -4 2t-6 2 q-4 -18 -10 -36l-12 -36l8 -4zM291 203q2 -2 8 -2l10 63q-2 0 -3 1t-3 1zM258 199q2 -2 6 -2l8 55q-6 -10 -8 -22.5t-6 -24.5v-6z" />
<glyph unicode="&#xa6;" horiz-adv-x="299" d="M129 -274q2 10 2 21v22q2 127 2 250.5v250.5q0 4 -1 8.5t1 8.5q0 10 6 10q4 0 8.5 -2t4.5 -6q4 -8 4 -29q2 -129 2 -256v-256v-49q0 -8 -11 -12q-16 -2 -31.5 -4t-31.5 2q-8 2 -14.5 9t-10.5 15q-4 6 -5 14.5t-1 14.5q-2 88 -3 176t-1 176q0 47 5 93t9 93q2 16 13.5 21.5 t27.5 1.5t16.5 -12t0.5 -17v-542q4 -2 8 -2zM94 1143l47 504q4 29 9.5 57.5t9.5 56.5q4 23 12 27t29 -6q8 -4 16 -5t12 -8q12 -12 9 -26q-4 -49 -10.5 -98.5t-12.5 -98.5q-6 -53 -10 -105t-8 -106l-19 -209q-2 -23 -7 -26.5t-30 0.5q-29 4 -37 12t-10 31zM104 217h-4v-481h4 v481zM74 -195h4v359h-4v-359z" />
<glyph unicode="&#xa7;" horiz-adv-x="927" d="M692 135q6 80 -28.5 145.5t-94.5 122.5q-53 53 -106 108.5t-101 115.5q-53 66 -92 137.5t-57 155.5q-12 63 -8 124.5t45 116.5q16 18 16 33.5t-6 36.5q-45 127 -39 247.5t76 237.5q49 84 119.5 123t146.5 40t146.5 -33t117.5 -95q41 -53 50.5 -113.5t-0.5 -126.5 q-8 -47 -21.5 -91t-42.5 -83q-18 -29 -35.5 -33t-46.5 11q-20 10 -20 14t10 25q49 90 61.5 182t-32.5 186q-33 68 -79 83.5t-116 -19.5q-109 -55 -156 -176q-43 -113 -40 -222.5t59 -216.5q29 -55 64.5 -105t74.5 -101q61 -84 119.5 -168t93.5 -185q18 -53 15 -103t-21 -101 q-8 -23 -5 -41.5t21 -38.5q37 -47 47.5 -100.5t12.5 -108.5q4 -72 -16.5 -135.5t-67.5 -118.5q-43 -51 -97.5 -88t-119.5 -53q-41 -10 -83 -17.5t-83 -11.5q-84 -6 -160 12.5t-141 73.5q-53 45 -79 105.5t-13 131.5q8 53 17 107.5t21 107.5q4 23 14.5 43.5t22.5 40.5 q12 23 37 33t47 4q18 -4 21.5 -10t-4.5 -22q-4 -10 -9.5 -17.5t-9.5 -17.5q-25 -78 -38 -157t3 -157q23 -111 86.5 -162t167.5 -51q61 0 114.5 27t100.5 68q61 57 92 124.5t29 155.5zM668 510q2 0 4 2q-4 23 -8.5 45.5t-12.5 44.5q-20 57 -52 108.5t-67 100.5 q-45 61 -90 122.5t-90 125.5l-16 12l-8 -18q-29 -117 16 -219q33 -74 78 -136.5t100 -119.5q29 -29 58.5 -56.5t60.5 -56.5q4 -4 9 -5t9 -3l7 16q2 10 2 18.5v18.5zM397 1698q-35 -41 -49 -87t-20 -95q16 45 33.5 90t35.5 92zM780 0q18 39 21.5 80t-6.5 82q-4 -41 -7.5 -81 t-7.5 -81zM63 -29l15 211q-10 -53 -18.5 -105.5t3.5 -105.5zM758 518q-6 0 -10 2l-21 -121q2 0 4 -1t4 -1q6 31 12.5 60.5t10.5 60.5zM850 1499q-2 0 -3 1t-5 1l-31 -110q4 0 8 -2zM309 1669q-2 0 -3 1t-3 1l-37 -108l6 -4zM281 1014h6l24 92q-4 2 -10 2zM305 1579q2 0 3 -1 t3 -1q8 18 14.5 36.5t12.5 39.5q-4 0 -6 2q-6 -20 -13.5 -39t-13.5 -37zM754 59h8q2 16 3 30.5t1 29.5q-2 2 -6 2zM723 57h4v99h-4v-99zM37 49h-4v-59h4v59z" />
<glyph unicode="&#xa8;" horiz-adv-x="528" d="M37 1647q2 20 5 37.5t13 33.5q14 23 37 31t45 -2q33 -14 58 -27q27 -14 30 -51q2 -23 -7 -44t-26.5 -36.5t-39 -24t-46.5 -3.5q-73 12 -69 86zM393 1567q-4 2 -12 2t-19 2q-37 12 -45 43q-4 10 -6 18t-4 19q-2 47 37 73q20 10 39.5 15.5t42.5 -2.5q12 -4 24.5 -7.5 t26.5 -7.5q16 -6 26.5 -22.5t6.5 -32.5q-8 -45 -35 -71.5t-82 -28.5zM410 1604q4 2 8 6t4 8l-2 4q-4 0 -10.5 -5t-3.5 -9q0 -2 2 -2zM129 1606h2v2z" />
<glyph unicode="&#xa9;" horiz-adv-x="1431" d="M178 657q0 84 17.5 162t44.5 156q29 86 67.5 168t100.5 153q63 72 133.5 133.5t165.5 90.5q66 20 133 29.5t137 -17.5q41 -16 77 -40t68 -54q61 -59 106.5 -128t61.5 -157q10 -57 10 -112.5t-8 -110.5q-10 -80 -25.5 -158t-45.5 -151q-35 -90 -81 -170t-120 -144 q-72 -61 -155 -106t-181 -56q-139 -16 -253 38.5t-183 183.5q-37 68 -53.5 140t-16.5 150zM965 1499l-11 -4q12 -18 7 -21.5t-21 -0.5q-16 2 -31.5 3t-31.5 -3q-98 -18 -179 -80q-227 -168 -321 -428q-39 -104 -60.5 -210t-5.5 -216q14 -78 42 -147.5t87 -127.5 q86 -84 199 -61q86 18 158.5 57t136.5 96q84 74 133 165t80 196q20 66 32.5 133.5t20.5 134.5q14 135 -21.5 251t-140.5 208q-16 16 -35.5 28.5t-37.5 26.5zM664 731q4 -45 8 -81t20 -70q14 -27 23.5 -30t32.5 19q16 16 29.5 35t27.5 35q10 10 18 20.5t19 18.5q25 23 45 -10 q0 -6 6 0q10 8 14 4t4 -15q0 -16 -6 -30q-16 -35 -37.5 -62.5t-48.5 -52.5q-35 -29 -72.5 -32t-78.5 12q-61 23 -95 67.5t-49 106.5q-37 172 68 307q35 45 84 80q23 16 54.5 22t65 1t66.5 -21.5t56 -42.5q8 -10 10 -20.5t-8 -20.5q-4 -4 -12.5 -4h-16.5q-33 0 -47 28 q-6 14 -18.5 14.5t-22.5 -10.5q-20 -20 -41 -41.5t-37 -44.5q-10 -12 -21.5 -35.5t-21.5 -50t-15 -53.5t-3 -43zM279 748q29 137 79 263t136 240q-33 -23 -70 -84t-69.5 -136t-54 -151.5t-21.5 -131.5zM1264 938q-14 -70 -28.5 -138.5t-31.5 -137.5q29 66 41.5 135t18.5 141 zM260 932l92 229q-16 -23 -24 -45q-18 -47 -36 -91t-34 -91l-33 -111q4 0 6 -2q8 29 15.5 55.5t13.5 55.5zM621 750l47 153q-25 -29 -38 -73.5t-9 -79.5zM315 1018l9 -4q14 33 28.5 64.5t30.5 64.5l-6 4zM573 856q-2 0 -4 1t-4 1q-4 -16 -7 -32.5t-7 -32.5q2 -2 8 -2z" />
<glyph unicode="&#xaa;" horiz-adv-x="528" d="M-25 1489q2 10 2 21.5t5 21.5q23 82 68.5 139.5t127.5 85.5q20 8 41 11.5t43 -1.5q6 -2 12.5 -2t10.5 -4q18 -8 30 4q23 20 60 7q4 -4 10 -6.5t12 -6.5q18 -6 15 -24q0 -10 -2 -17q-12 -55 -20.5 -111.5t-12.5 -113.5q-10 -86 0 -176q4 -23 7 -44.5t7 -43.5 q4 -16 9.5 -30.5t11.5 -31.5q2 -6 3 -12t-3 -12q-8 -10 -25 -6q-53 10 -76 53q-12 25 -19 50.5t-11 49.5l-13 119q0 10 -2 16q0 4 -3 5.5t-5 -3.5q-10 -10 -12 -16q-6 -8 -12.5 -16.5t-14.5 -16.5q-29 -31 -72 -38t-84 10q-86 43 -88 139zM86 1477q2 -23 4 -42.5t12 -35.5 q8 -14 19 -4q14 10 24.5 22.5t20.5 24.5q31 41 54.5 83t45.5 89q10 23 16.5 45t12.5 47q6 27 -25 31q-8 2 -22 -2q-10 -6 -21.5 -12.5t-21.5 -14.5q-45 -33 -70.5 -78t-40.5 -98q-4 -16 -5 -29.5t-3 -25.5z" />
<glyph unicode="&#xab;" horiz-adv-x="784" d="M719 -61q-41 0 -64.5 22.5t-42.5 52.5q-25 41 -50 84t-54 84q-47 68 -99.5 134.5t-101.5 132.5q-12 16 -24.5 33.5t-22.5 33.5t-8 31.5t12 32.5q68 109 134.5 215t136.5 215q57 90 114.5 177t114.5 175q4 8 9 16t22 -2q23 -12 29.5 -22.5t-1.5 -26.5q-12 -25 -24.5 -49.5 t-26.5 -48.5l-340 -555q-23 -35 -44 -71t-44 -71q-14 -20 0 -40q10 -14 20.5 -28.5t20.5 -31.5q63 -80 125.5 -159.5t124.5 -163.5q29 -35 51.5 -74t44.5 -76q15 -24 -12 -20zM0 600q4 10 7 18.5t7 16.5q90 135 179.5 266t181.5 266l123 183q18 27 39 6q23 -23 24.5 -30 t-14.5 -34q-109 -162 -215.5 -323.5t-212.5 -325.5q-20 -31 -31.5 -46t-11.5 -27.5t9 -29t32 -48.5q59 -98 122.5 -190.5t125.5 -188.5q29 -41 53 -83t51 -85q4 -4 4 -10.5t2 -12.5q-14 0 -22 2q-29 2 -46.5 17.5t-33.5 40.5l-299 469q-16 25 -30.5 51t-29.5 53 q-4 10 -7 21.5t-7 23.5zM580 952q-8 4 -9 4l-151 -245q4 0 8 -4q37 61 75 122.5t77 122.5zM590 991l8 -4q18 31 36.5 62.5t39.5 62.5q-4 4 -8 4q-18 -31 -37 -62.5t-39 -62.5zM350 600l-37 -55l9 -6l30 57l37 55l-6 6q-8 -16 -16.5 -29.5t-16.5 -27.5z" />
<glyph unicode="&#xac;" horiz-adv-x="1040" d="M952 305q-53 45 -53 103q0 117 6 237q2 16 -3 20.5t-21 6.5q-133 0 -263.5 -10.5t-261.5 -26.5q-68 -8 -135 -12.5t-133 -8.5q-16 -2 -36.5 18.5t-20.5 39.5q0 4 6 7t10 3q63 8 126 14t128 13q86 10 173 18t175 12q66 4 132.5 3t131.5 -1q23 0 39.5 -27.5t12.5 -58.5 l-21 -227q-2 -23 0 -46.5t4 -45.5q0 -6 1 -13.5t3 -17.5z" />
<glyph unicode="&#xad;" horiz-adv-x="675" d="M201 668q74 -4 146.5 -9.5t144.5 -13.5q25 -2 50 -12t48 -23q10 -4 16 -16t15 -23q-10 -4 -22.5 -8t-25.5 -4q-92 2 -185 4t-187 2q-31 0 -56.5 6.5t-48.5 28.5q-8 10 -16 19.5t-12 19.5q-6 14 2 18.5t18 4.5q29 2 56.5 2h56.5v4z" />
<glyph unicode="&#xae;" horiz-adv-x="1415" d="M1305 979q-4 -72 -13.5 -141.5t-31.5 -135.5q-20 -59 -41 -116.5t-54 -110.5q-131 -209 -377 -250q-80 -12 -157.5 -8t-153.5 33q-109 41 -173 120t-93 189q-18 78 -20.5 156t6.5 157q8 82 24.5 162t44.5 158q88 246 312 371q43 25 89 29.5t93 -15.5q4 -2 11 -2h11 q84 14 158 -7.5t145 -58.5q70 -37 111 -94t66 -129q27 -76 36 -152.5t7 -154.5zM326 801q-2 -70 0 -130.5t18 -119.5q23 -80 65 -146.5t119 -105.5q53 -25 117 -32t128.5 7.5t126 51t110.5 98.5q61 78 102 166t70 182q25 84 27.5 169t-7.5 171q-10 80 -34.5 154.5 t-71.5 142.5q-31 45 -75 76t-94 44t-102.5 8t-101.5 -30q-27 -14 -53.5 -24t-55.5 -23l-22 -14q-121 -102 -184 -246q-41 -98 -59.5 -199.5t-22.5 -199.5zM643 819q-4 -35 -10 -64.5t-10 -60.5l-13 -86l-5 -10t-7 -6q-23 0 -43 6q-16 4 -26.5 13.5t-8.5 29.5 q6 53 10.5 106.5t8.5 106.5l26 256q6 51 19 104q4 29 12 36t37 3q16 -2 30.5 -9t28.5 -15q12 -8 8 -25q0 -16 -2 -32.5t-6 -34.5q18 6 23 10q43 29 90 41t100 12q10 0 20.5 -2t20.5 -6q43 -16 59.5 -45t-8.5 -76q-27 -49 -65.5 -82t-85.5 -59q-25 -16 -50.5 -28.5 t-50.5 -29.5q-18 -10 -20 -17t14 -24q31 -35 68 -61.5t82 -42.5q25 -12 53 -29q4 -4 6 -8l4 -8q-12 -8 -18 -8q-29 4 -56.5 8t-54.5 14q-47 16 -87 45t-74 64zM662 924q31 18 60.5 34.5t59 35t55 40t46.5 49.5q8 10 12 21.5t8 21.5q6 16 2 20.5t-20 0.5q-61 -10 -107.5 -44 t-81.5 -81q-16 -23 -27 -45t-7 -53zM410 1292q-86 -147 -110 -302.5t-13 -321.5q-2 164 23.5 320.5t99.5 303.5zM223 729q2 104 16.5 204.5t39.5 201.5q-66 -201 -56 -406zM584 649h6l28 195h-8zM1270 915h6v220h-6v-220zM322 1165q-2 2 -7 2q-10 -35 -19 -71.5t-20 -71.5 q2 0 4.5 -1t4.5 -1zM670 1198q-2 0 -4 1t-4 1l-17 -106q6 0 8 -2zM1231 961h2v86h-2v-86zM1253 1047h-2v-86h2v86z" />
<glyph unicode="&#xb0;" horiz-adv-x="565" d="M522 1438q2 -51 -26 -107q-49 -92 -138 -149q-23 -16 -48 -25.5t-54 -15.5q-74 -12 -141 24q-53 31 -77 81t-11 114q29 139 112 248q14 20 37 37q37 33 76 14q31 -16 61 -6q53 10 111.5 -18.5t79.5 -92.5q10 -27 15 -51t3 -53zM426 1442q0 41 -7 74.5t-26 62.5 q-4 10 -11 17.5t-13 15.5q-12 12 -29 6l-25 -12l-92 -58q-6 -4 -11 -7t-11 -3q-12 -2 -19 -16q-23 -43 -38 -89.5t-21 -95.5q-10 -70 33 -125q25 -33 46 -37t56 17l12 6q88 59 133 150q25 51 23 94z" />
<glyph unicode="&#xb1;" horiz-adv-x="847" d="M557 678h-147q-25 2 -25 -21q-6 -63 -12 -126.5t-15 -127.5q-4 -47 -11 -96t-13 -96q-2 -14 -6 -23.5t-23 7.5q-4 2 -9 0t-9 0q-25 4 -32 11t-7 30l12 223l4 194q2 25 -22 23q-27 -2 -52.5 -2t-50.5 -4q-70 -6 -114 32q-10 10 -9 15q0 12 15 12q20 6 45 6q41 2 84 3t86 1 q25 0 26 23q8 74 17.5 148.5t19.5 148.5q2 12 6 28.5t9 14.5q33 0 61 -17q29 -14 25 -55l-17 -264q-4 -29 23 -29h101t99 -2q23 0 43.5 -2t42.5 -4h7l45 -31q-12 -4 -23.5 -11t-23.5 -7q-39 -2 -76 -2h-74zM559 -14q-78 -6 -153.5 -11.5t-153.5 -9.5l-174 -14q-12 0 -26.5 6 t-29 17.5t-23.5 23.5t-11 25q0 4 6 10t10 6q27 4 52.5 6t54.5 4q102 4 203.5 6t205.5 4q27 0 52.5 -6t54.5 -12q14 -4 20 -10l23 -37l-31 -8l-80 -4v4z" />
<glyph unicode="&#xb2;" horiz-adv-x="458" d="M68 453l70 17q23 4 46.5 8.5t48.5 1.5q20 -4 34 -14.5t20 -31.5q2 -7 2 -10q-1 -14 -13 -6q-5 5 -9 8.5t-5 11.5q-2 12 -14 11q-19 -4 -39 -5.5t-38 -6.5q-35 -9 -68 -19l-66 -20q-7 -1 -11.5 0t-9.5 3q-9 3 -13 14q-5 9 -2 13t11 7q5 2 8 8q39 66 77.5 132t77.5 133 q26 44 51.5 89t50.5 91q16 31 28.5 63t17.5 67q1 17 -2 37q-2 19 -22 19q-10 0 -19 -1t-19 -4q-44 -15 -77.5 -40.5t-54.5 -67.5q-5 -10 -9 -18.5t-1 -20.5q1 -1 -1.5 -3.5t-4.5 -1.5q-21 2 -34 17q-1 3 -2 7.5t-1 8.5q2 21 11.5 39t23.5 34q27 31 61 51.5t75 27.5 q14 2 31 0.5t33.5 -8t31 -18t22.5 -28.5q10 -18 8.5 -36.5t-5.5 -36.5q-11 -42 -29 -79t-42 -74q-55 -88 -109.5 -176t-109.5 -176zM350 964l-64 -134q20 31 36.5 64t27.5 70zM109 961l4 -3q6 11 11.5 21.5t13.5 20.5l-4 3q-6 -11 -12.5 -21.5t-12.5 -20.5z" />
<glyph unicode="&#xb3;" horiz-adv-x="501" d="M65 570l-10 -20q-19 -28 -15.5 -55t21.5 -54q14 -18 30.5 -31.5t38.5 -20.5q21 -6 41 5q38 21 64.5 52t45.5 69q40 79 38 166q-1 31 -9 59.5t-26 53.5q-9 12 -19.5 18.5t-23.5 7.5q-16 2 -30.5 1.5t-29.5 -0.5q-27 -1 -50 17q-4 5 -2.5 8.5t5.5 7.5l49 46q34 32 67 64 t65 65q10 10 18 22.5t16 25.5q4 5 4 13t2 15q1 11 -10 9q-18 -1 -35 -6t-34 -13q-35 -15 -64.5 -35.5t-50.5 -52.5q-5 -6 -8.5 -13.5t-7.5 -15.5q-3 -7 -9 -4q-36 11 -21 45q8 21 21.5 37.5t32.5 29.5q54 41 120 58q16 4 33 4t33 -5q16 -6 27.5 -16t17.5 -23.5t5 -29.5 t-11 -32q-12 -24 -30.5 -43.5t-37.5 -37.5l-108 -101l-6 -6q4 -1 6.5 -2t5.5 -1q37 -4 66.5 -21.5t49.5 -42.5t30.5 -56t9.5 -63q-2 -81 -31.5 -148.5t-90.5 -120.5q-43 -38 -96.5 -39t-99.5 28q-25 17 -43 39t-25 53q-6 29 4 54t34 38q9 5 17 3.5t16 -5.5zM340 546 q5 9 10 24.5t8 31.5t4.5 29.5t-1.5 18.5q-6 -25 -11 -51.5t-10 -52.5zM387 1066q-8 -13 -15 -24t-15 -23q26 18 30 47zM323 597q3 0 4 -1l7 51h-2zM161 1030l-3 2q-5 -8 -10.5 -15.5t-9.5 -15.5l3 -2zM346 626q-1 0 -4 1l-6 -39q1 0 1.5 -0.5t1.5 -0.5q2 11 4 19.5t3 19.5z " />
<glyph unicode="&#xb4;" horiz-adv-x="475" d="M72 1446q-8 0 -27 6q-8 4 -2 12q2 4 4 6.5t4 6.5l154 153l82 78q61 51 131 76q4 2 9 3t9 -3q4 -2 -4 -19q-6 -8 -11 -14t-11 -10q-14 -14 -26.5 -25.5t-25.5 -21.5q-39 -39 -77.5 -79t-79.5 -77q-31 -35 -66 -65q-24 -27 -63 -27z" />
<glyph unicode="&#xb5;" horiz-adv-x="944" d="M645 -25q10 10 16.5 17.5t10.5 15.5q35 68 69.5 134.5t67.5 136.5q41 86 79 171t77 171q4 10 11 11t13 -1q10 -4 23.5 -8.5t11.5 -22.5q-2 -16 -10 -39l-137 -342q-29 -68 -60 -134.5t-74 -127.5l-18 -25q-37 -55 -107 -34q-29 8 -48 26.5t-23 48.5q-4 47 -8 94.5 t-2 94.5q0 143 22.5 282.5t48.5 280.5q4 23 8.5 46.5t8.5 47.5l-4 2q-6 -10 -13.5 -17t-11.5 -18l-252 -389q-37 -53 -78 -103t-92 -95q-70 -61 -149 -27q-16 8 -23.5 5t-9.5 -23l-21 -271q0 -4 1 -9t1 -11l11 6q49 53 114 27q74 -33 66 -103q-4 -25 -10.5 -50.5 t-18.5 -47.5q-27 -49 -59.5 -59.5t-91.5 8.5q-37 12 -59.5 39.5t-37.5 62.5q-23 61 -27.5 124.5t-0.5 129.5q10 147 42.5 287.5t67.5 283.5q29 115 65 224.5t81 218.5q4 10 9 20t11 21q12 23 20.5 25.5t28.5 -7.5q29 -18 43 -41q4 -6 4 -16t-4 -19q-25 -98 -51 -192 t-49 -193q-18 -80 -30.5 -160.5t-26.5 -162.5q-2 -6 -1 -14.5t1 -22.5q12 10 22 18.5t21 18.5q55 49 98 107.5t84 119.5q90 131 176 263t172 265q39 61 98 13q16 -16 21.5 -33.5t1.5 -38.5l-33 -209q-23 -143 -43 -284.5t-39 -284.5q-6 -51 -6 -103.5t-2 -105.5q0 -4 1 -8.5 t3 -14.5zM559 786q2 0 2 -1t2 -1l53 82l-6 4l-49 -75q-2 -3 -2 -9zM508 709l-37 -56q2 0 6 -4q10 14 17.5 27.5t15.5 28.5l37 55q-2 0 -6 4zM934 414q-4 0 -5 1t-3 1l-27 -66l8 -4q6 16 12.5 34t14.5 34zM461 623l-6 6l-31 -47q4 -4 6 -4z" />
<glyph unicode="&#xb6;" horiz-adv-x="1419" d="M-29 12l6 -24q4 4 8.5 11t10.5 9q33 8 39 -26q6 -29 14 -60t19 -61q16 -49 40.5 -57.5t67.5 24.5q27 20 45.5 46t34.5 54q47 86 79 173t60 178q59 184 109.5 367t97.5 370q6 31 -22 35q-23 4 -46.5 10t-46.5 12q-90 25 -157.5 79t-120.5 126q-35 47 -38 100.5t13 106.5 q23 68 65 119t97 94q74 57 160 85.5t178 37.5q86 8 170 5t170 -14q86 -10 169 -16t169 -10q41 -4 82 5t80 26l16 8q35 18 59.5 58t-2.5 93q-4 4 -4 10.5t-2 12.5q6 0 13.5 1t11.5 -3q18 -6 33.5 -22.5t27 -38t15.5 -45t0 -42.5q-6 -23 -14.5 -44t-24.5 -38 q-29 -29 -61.5 -37t-67.5 -12q-41 -6 -82 -7t-82 -5q-12 0 -24.5 1t-24.5 3t-16.5 -2t-8.5 -16q-20 -92 -37.5 -184.5t-42.5 -184.5q-82 -299 -158.5 -594t-175.5 -588q-25 -74 -52 -146.5t-62 -141.5q-41 -82 -109.5 -129.5t-163.5 -57.5q-14 -2 -34 2q-8 2 -14.5 6 t-12.5 9q6 4 12 9t13 9q100 35 159 119q35 49 62 112q84 209 147.5 420t118.5 426q41 154 82 302.5t82 299.5q23 80 41 161t39 161q4 23 -17 22q-66 4 -133 9.5t-133 11.5q-10 0 -13 -1t-3 -11q-8 -104 -30 -203.5t-46 -200.5q-53 -209 -105.5 -414.5t-109.5 -412.5 q-37 -135 -80 -265.5t-100 -256.5q-16 -35 -35 -67t-39 -65q-41 -61 -98.5 -81.5t-126.5 -12.5q-47 4 -82 28.5t-54.5 61.5t-21.5 81t18 87zM827 106q100 285 173 574t157 575q-6 0 -8 2zM694 1030q-61 -238 -129.5 -472t-146.5 -468q90 229 156.5 463.5t119.5 476.5z M571 768q-4 0 -6 2q-8 -31 -15 -61.5t-18 -61.5q2 -2 7 -2q10 31 17 61.5t15 61.5zM1006 924q-2 2 -7 2l-26 -107q4 0 6 -2zM252 1499l6 -6q10 16 21.5 33.5t23.5 34.5l-6 4zM940 696q2 0 3 -1t3 -1l17 64q-4 0 -7 2z" />
<glyph unicode="&#xb7;" horiz-adv-x="561" d="M295 516q-61 0 -102 33q-8 8 -13 10q-14 8 -21 20.5t-16 26.5q-10 27 -5 47.5t22 40.5q6 10 12 19.5t14 19.5q25 29 53.5 48.5t65.5 29.5t68 -4q10 -6 21.5 -10t21.5 -11q53 -29 51 -90q-2 -59 -41 -109t-94 -67q-10 -2 -20.5 -3t-16.5 -1z" />
<glyph unicode="&#xb8;" horiz-adv-x="485" d="M137 -438q-53 -4 -98 18q-12 2 -29 19q-18 16 0 34q6 6 15.5 10.5t17.5 8.5q6 4 16 -2q10 -10 20.5 -17.5t20.5 -17.5q12 -14 27 -12q18 4 34.5 6t33.5 6q14 2 24 11t19 22q20 41 28 84t-2 90q-14 47 -55 55q-10 2 -21.5 5t-21.5 7q-14 6 -8 25q23 47 42 95t40 95 q18 35 49 29q12 -2 21 -6t20 -8q6 -4 6 -13q0 -6 -2 -11t-6 -11l-64 -156q-8 -16 -6 -21t21 -13l34 -13q49 -23 62 -82q6 -41 -1 -77.5t-24 -73.5q-16 -29 -41 -45q-18 -10 -37.5 -17.5t-40.5 -11.5q-23 -4 -46 -6t-48 -6z" />
<glyph unicode="&#xb9;" horiz-adv-x="315" d="M190 1112l-27 -15q-16 -8 -27 -7t-22 11q-5 5 1 8q29 13 52.5 32t45.5 41q3 3 6 5t5 5q4 5 7 7t10 -2q3 -2 8 -3t9 -4q5 -4 6.5 -4t0.5 -5q3 -1 6 -1.5t5 -2.5q4 -6 3 -12q-42 -90 -67.5 -184.5t-48.5 -189.5q-14 -57 -24 -114.5t-21 -114.5q-3 -20 -2.5 -39.5 t-0.5 -39.5q-1 -10 12 -13q18 -4 34.5 -10.5t29.5 -20.5q4 -5 8.5 -11t-0.5 -13q-1 -2 -10 0t-12 7q-22 22 -47.5 21.5t-51.5 -3.5q-5 -1 -9 -1.5t-8 -3.5q-17 -6 -30 -1.5t-25 13.5l-4.5 4.5t-1.5 4.5q3 5 9 7q14 3 27 5.5t27 4.5q8 1 10.5 2.5t-1.5 9.5q-8 19 -7 37t3 36 q17 139 48.5 273.5t70.5 268.5zM249 1144q-4 -2 -5 -6q-9 -24 -17.5 -48t-17.5 -49q-33 -111 -59.5 -222.5t-45.5 -226.5q-3 -17 -4 -32t-3 -32q22 159 60.5 311.5t91.5 304.5z" />
<glyph unicode="&#xba;" horiz-adv-x="548" d="M20 1264q0 66 17 137q10 57 24.5 112.5t36.5 108.5q10 31 24.5 58.5t31.5 56.5q20 41 63 28q16 -2 33 4q18 8 37.5 12.5t40.5 0.5q37 -10 67.5 -27.5t53.5 -50.5q55 -86 61 -184q2 -29 -3 -58.5t-13 -58.5q-23 -86 -68 -157.5t-121 -123.5q-18 -12 -37.5 -23.5 t-40.5 -19.5q-53 -27 -116 -8q-49 14 -68 64q-10 27 -15 51t-8 53v25zM123 1260q0 -35 4 -66t14 -59q10 -23 17.5 -25t27.5 10q51 33 92 75t70 95q33 66 47 125q39 139 -33 271q-12 25 -30 43q-8 10 -13.5 11t-17.5 -3q-10 -4 -17.5 -9.5t-17.5 -9.5q-39 -14 -55 -61 q-23 -57 -38 -116.5t-30 -121.5q-10 -41 -15 -80.5t-5 -78.5z" />
<glyph unicode="&#xbb;" horiz-adv-x="897" d="M293 -184l18 49q72 172 164 328.5t203 306.5q14 20 22.5 32.5t8.5 23.5t-5.5 23.5t-17.5 34.5q-41 74 -80 149t-80 150q-59 113 -119.5 225.5t-121.5 225.5q-6 12 -14.5 23.5t-16.5 21.5q-4 10 -2 12q6 6 12 2q14 -8 29.5 -14t25.5 -18q27 -35 50.5 -69t46.5 -71 q57 -98 111.5 -196.5t109.5 -196.5l166 -311q8 -16 -2 -35q-14 -23 -28.5 -43t-31.5 -43q-102 -139 -188 -285.5t-154 -306.5q-12 -33 -30.5 -40t-51.5 7zM78 -113h-10q-33 4 -42.5 16.5t5.5 41.5q43 92 87 184t91 180q39 68 83 130.5t87 127.5q16 23 2 43q-35 72 -70 141.5 t-69 139.5q-23 45 -47.5 88t-47.5 88q-33 68 -62.5 136.5t-61.5 135.5l-21 43q-4 10 -1 14.5t13 -1.5q12 -6 25.5 -14.5t21.5 -20.5q31 -53 61 -104.5t58 -104.5q39 -72 77 -140.5t75 -140.5l153 -297q12 -23 -6 -41q-106 -123 -182 -263t-145 -285q-12 -23 -24.5 -45.5 t-27.5 -44.5q-4 -4 -10 -5.5t-10 -3.5z" />
<glyph unicode="&#xbc;" horiz-adv-x="1511" d="M1245 1110l37 68q2 4 14 12q2 -6 5.5 -12.5t1.5 -10.5l-23 -45l-264 -405q-35 -53 -72 -104.5t-72 -104.5q-4 -4 -5 -10t-5 -13q6 0 12.5 -2t10.5 0l319 15q14 0 17.5 8t7.5 18q37 117 72.5 235t70.5 236q4 16 11.5 29.5t13.5 30.5q33 70 98 28q8 -4 15.5 -10t11.5 -14 q2 -6 -4.5 -13.5t-10.5 -15.5q-23 -59 -44 -117.5t-44 -117.5q-20 -57 -37.5 -113.5t-33.5 -114.5q-4 -12 -4.5 -21t16.5 -16q16 -6 16 -19t-10 -24q-6 -10 -14 -10q-29 -4 -36 -22.5t-13 -38.5q-37 -135 -71 -267.5t-56 -269.5q-4 -35 -4.5 -70.5t-4.5 -70.5q0 -8 -1 -19.5 t-5 -13.5q-14 -4 -28.5 -5t-24.5 15t-19.5 32.5t-7.5 33.5q2 53 7.5 105.5t15.5 105.5q23 106 47.5 211.5t50.5 212.5q4 23 1 26.5t-27 3.5l-160 -8t-160 -6q-57 -4 -100 23q-14 8 -15.5 17t2.5 20q4 10 17 26l172 250t172 252q31 43 56.5 88t51.5 90q16 29 41 16 q33 -8 17 -38l-15.5 -31t-17.5 -29zM1321 1882h25q0 -6 1 -13t-4 -11q-123 -129 -222 -273.5t-197 -292.5q-147 -223 -283.5 -450.5t-263.5 -462.5q-76 -141 -140.5 -286.5t-107.5 -301.5q-4 -8 -6 -16t-6 -15q-2 -4 -2 -9t-2 -10t-6.5 -5t-12.5 10q-4 4 -10 -2 q-12 -12 -14 4q-8 -4 -13 -8q2 59 15.5 114.5t31.5 110.5q47 137 108.5 266t129.5 256q176 328 367.5 639.5t408.5 612.5q33 47 69 89t70 87q12 16 24.5 11t23.5 -9q8 -4 20 -11.5t-4 -23.5zM459 1804l-80 -24q-31 -10 -54.5 1t-45.5 34q-4 4 -5 12q0 2 4.5 4t8.5 0 q51 -4 95 16.5t85 42.5q39 23 68.5 11.5t52.5 -43.5q4 -6 3 -17.5t-5 -19.5q-25 -66 -52.5 -131.5t-50.5 -130.5q-33 -100 -62.5 -201t-58.5 -203q-6 -23 -7 -45.5t1 -44.5q0 -14 7.5 -26.5t13.5 -24.5q-35 -4 -65.5 19.5t-37.5 58.5q-8 47 0.5 92t20.5 90q37 123 76 245.5 t75 247.5q4 8 6.5 15.5t6.5 21.5zM1475 1038q-6 -6 -20.5 -41.5t-34 -87t-39 -110t-36 -111.5t-26.5 -92t-10 -49zM1239 289q10 41 22.5 79t24.5 78q-4 0 -6 1.5t-4 1.5q-10 -41 -19.5 -80t-19.5 -78l-37 -150q-4 -8 -4 -10q-12 -57 -25.5 -113.5t-23.5 -113.5 q-4 -29 -7 -60.5t-7 -62.5h8q0 2 1 3t1 3q6 47 12 95t14 95l33 162z" />
<glyph unicode="&#xbd;" horiz-adv-x="913" d="M25 -229l16 90h-6q-4 -18 -8 -37t-9 -35q-2 -6 -7 -13t-9 -5q-6 0 -15.5 5t-9.5 9q-4 16 -4 30.5t4 30.5q29 98 57.5 194.5t61.5 195.5q111 328 226.5 648t244.5 640q33 82 73 158.5t79 154.5q6 12 13 15t22 1q39 -6 61 -41q12 -16 0 -32q-12 -29 -26.5 -58.5 t-28.5 -58.5q-92 -180 -169 -365.5t-149 -375.5q-86 -236 -169 -467.5t-167 -466.5q-16 -47 -28 -93.5t-29 -93.5q-2 -10 -6 -17t-8 -17zM481 150q10 2 22.5 3t24.5 1q76 8 150 5t145 -32q33 -14 60.5 -32.5t48.5 -47.5q6 -8 8 -18.5t6 -20.5q-10 0 -18 -1t-19 1 q-20 4 -30 15q-66 63 -140.5 76.5t-160.5 -5.5q-41 -8 -81 -20.5t-81 -22.5q-70 -18 -129 19q-4 4 -6 13t2 13l57 72l295 371q37 47 72.5 95t70.5 97q29 45 41 96q6 27 -4 34t-39 3q-119 -18 -186 -110q-39 -51 -66 -109q-4 -8 -2 -18.5t2 -20.5q-2 -2 -2 -4t-2 -4 q-2 -4 -4 -6q-18 6 -36.5 10t-35.5 14q-6 4 -8 18.5t2 22.5q10 27 23.5 52.5t30.5 50.5q53 80 129.5 113.5t173.5 27.5q66 -4 96.5 -49t5.5 -104q-14 -39 -34.5 -75t-45.5 -69q-78 -106 -158.5 -210.5t-160.5 -209.5l-21 -28zM295 1765q-29 -16 -56.5 -31.5t-56.5 -31.5 q-41 -23 -80 8q-12 10 -10 15.5t12 11.5q20 10 39 20t37 21l146 94q12 8 27.5 8t30.5 -4t27.5 -14.5t16.5 -22.5q4 -8 1 -17.5t-7 -19.5q-35 -88 -67.5 -174t-63.5 -176q-29 -78 -53.5 -158t-49.5 -159q-4 -12 -5 -25.5t-5 -28.5q-4 -23 -24 -16q-29 8 -40.5 20.5t-7.5 40.5 q10 47 20.5 95.5t25.5 95.5q35 104 69.5 207.5l69.5 208.5q2 6 3 13t5 13q-4 4 -4 6zM487 1116l50 123q0 2 4 6q53 135 112.5 266t128.5 261q4 6 5 13t4 13q-2 0 -5 2q-4 -4 -7 -9t-5 -11q-41 -82 -81 -163t-77 -165q-23 -51 -43 -104.5t-41 -106.5l-49 -123 q-6 -16 -12 -31.5t-14 -31.5q4 -2 8 -2zM219 1325q2 4 4 7t4 7l162 453q2 4 2 14q-10 -10 -12 -18l-135 -373q-8 -23 -13.5 -45t-13.5 -45q-12 -35 -29 -76l9 -4zM885 782l-8 4l-33 -84q2 0 3 -1t3 -1z" />
<glyph unicode="&#xbe;" horiz-adv-x="1329" d="M1282 997q8 4 16.5 9.5t14.5 -7.5q8 -14 2 -32q-27 -86 -54.5 -171t-56.5 -171q-4 -14 4 -31q12 -33 -14 -49q-16 -12 -18 -27q-33 -139 -65 -276.5t-60 -278.5q-8 -31 -7.5 -62.5t-3.5 -62.5q0 -10 -2 -21.5t-8 -17.5q-6 -8 -30.5 -3t-32.5 11q-18 16 -24.5 37t-4.5 41 q6 59 12 116.5t19 115.5q18 98 39.5 194.5t44.5 194.5q2 12 0 18t-17 4q-53 -4 -105 -8t-106 -12q-23 -4 -45 -10t-45 -17q-35 -16 -65.5 -10t-59.5 23q-16 10 -11 19t11 19q27 41 52.5 80t54.5 78q76 109 151.5 213.5t151.5 212.5q16 25 30.5 31t55.5 -14q4 -4 6 -9.5 t6 -9.5l29 -4q-4 -8 -4 -16.5t-4 -14.5l-351 -493l-12 -21h31q59 4 117.5 6t117.5 2q27 2 35 29q27 94 52.5 186.5t54.5 186.5q4 16 12 29q6 10 12 18t17 12q8 2 18 -2t21 -8l24 -6zM63 -360q-43 2 -62 23.5t-7 60.5q23 70 46 139t56 135q94 203 190.5 402.5t196.5 400.5 q106 211 216 420t219 419q29 53 53 108.5t51 111.5q10 23 27.5 23.5t31.5 -19.5q10 -14 29 -19q33 -6 18 -37q-23 -43 -43 -86t-43 -86q-139 -262 -279 -522t-276 -524q-90 -178 -173 -356.5t-167 -358.5q-18 -41 -31.5 -85t-27.5 -87q-6 -20 -4 -37q8 -32 -21 -26z M438 1440l37 -13q25 -8 47.5 -19t38.5 -32q55 -68 8 -131q-43 -51 -102 -104q-53 -41 -108.5 -77t-120.5 -58q-39 -14 -74 -6t-68 30q-12 8 -18 23q-6 14 0 22t22 6q8 -2 17.5 -4t13.5 -6q12 -16 25.5 -14t27.5 10q41 29 84 56.5t84 58.5q29 25 55.5 52.5t53.5 55.5 q10 12 15 27.5t9 32.5q4 12 -2 21t-22 5q-20 -4 -41 -6t-41 -10q-25 -10 -64 3t-55 34q-4 4 -2 15t6 15q23 25 47.5 48.5t46.5 46.5q35 35 69 66.5t65 66.5q16 16 26 35.5t21 40.5q10 23 -0.5 34t-32.5 7q-61 -14 -113.5 -44t-93.5 -77q-14 -16 -22.5 -38t-16.5 -44 q-4 -14 -9 -16.5t-18 3.5q-31 14 -41 33t-2 53q14 61 64 101q84 70 186 88q53 10 105.5 -15.5t81.5 -72.5q12 -23 10 -43.5t-12 -40.5q-23 -49 -59 -88t-74 -76q-12 -14 -25 -27.5t-29 -27.5zM1139 528l-6 -16l-52 -203q-18 -86 -35.5 -173t-33.5 -173q-4 -25 -4 -49.5 t-4 -48.5h8q14 170 53 333.5t74 329.5zM1282 997q-37 -92 -65.5 -185t-51.5 -191q6 6 9 12q29 84 55 167t53 167q2 8 1 15t-1 15zM932 1505q12 10 39.5 58.5t55.5 103.5t48.5 102.5t18.5 57.5zM608 1688q-4 0 -8 4l-43 -76l8 -4zM74 -244q-2 0 -3 1t-3 1q-4 -14 -7.5 -28.5 t-7.5 -30.5q4 0 6 -2q4 16 7.5 30.5t7.5 28.5zM975 1700q2 0 2 -1t2 -1q10 16 17.5 32.5t15.5 32.5q-2 0 -3 1t-3 1z" />
<glyph unicode="&#xbf;" horiz-adv-x="763" d="M559 874q-2 -61 -13 -118.5t-27 -114.5q-57 -209 -127 -410t-150 -399q-20 -47 -38.5 -94.5t-35.5 -96.5q-6 -16 -7 -36.5t1 -41.5q6 -63 76 -69q47 -4 91 7t85 34q180 90 225 282q6 27 3 50.5t-25 43.5q-4 2 -5 6.5t-3 8.5q4 2 9 4t9 2q20 -4 41 -8t39 -15 q66 -31 53 -106q-25 -156 -145 -258q-61 -53 -134 -85t-157 -34q-47 0 -94 10.5t-88 36.5q-80 47 -103.5 104.5t-1.5 137.5q12 47 32.5 94t39.5 94l207 525q35 92 61.5 185t46.5 189q10 47 11.5 93.5t-2.5 93.5q0 10 2 15t16 3q20 -2 38.5 -2t35.5 -18q35 -37 34 -93v-20z M541 1124q-25 4 -44 12t-30 35q-4 8 -20 20q-41 39 -25 74q10 23 35 38t47 13q49 -4 73.5 -31.5t18.5 -78.5q-2 -27 -16 -58q-10 -28 -39 -24zM473 923q-6 -39 -9 -71.5t-11 -65.5q-33 -160 -84 -313.5t-111 -307.5q-37 -96 -77.5 -189t-81.5 -189q-10 -25 -17.5 -50.5 t-15.5 -52.5q2 -2 6 -2q23 51 44.5 102.5t41.5 104.5q47 123 95 245t93 246q33 96 60 192.5t55 195.5q10 35 15 73.5t-3 81.5zM678 -183l-57 -143q23 31 39 65.5t18 77.5zM113 -279l8 -4l33 80q-2 0 -4 1t-4 1zM519 784q2 0 3 -1t3 -1l12 102q-2 0 -4 1t-4 1q-2 -27 -4 -52 t-6 -50zM170 -250q-2 0 -4 1t-4 1l-26 -72q2 0 3 -1t3 -1zM504 862q-4 0 -6 2l-8 -66h6z" />
<glyph unicode="&#xc0;" horiz-adv-x="1646" d="M1468 1966l-6 -33q-6 -14 -16 -8q-31 14 -54.5 32.5t-35.5 51.5l-62 150q-18 45 -36.5 90t-41.5 90q-12 18 8 25q23 14 39 6q4 -2 13 -2q35 -2 47 -37l51 -117q23 -53 43 -106.5t41 -106.5q4 -8 6 -17.5t4 -17.5zM1554 905q-6 0 -8 2q-53 43 -121.5 60.5t-128.5 15.5 q-23 0 -28 -25q-23 -150 -44.5 -297t-39.5 -296q-16 -129 -20.5 -257t10.5 -258q2 -25 9 -50t15 -50q10 -27 17.5 -28t25.5 22q70 84 122 176t89 193q47 123 88 246.5t84 246.5q4 14 19.5 21.5t27.5 -0.5q8 -10 4 -25q-10 -41 -21.5 -81t-23.5 -79q-23 -80 -47 -159.5 t-51 -157.5q-78 -221 -227 -399q-18 -23 -43 -36.5t-54 -17.5q-63 -12 -98 43q-23 35 -35 72t-18 76q-16 113 -16.5 224.5t10.5 221.5q16 162 36.5 323t42.5 322q2 16 -4 18.5t-16 0.5l-231 -25q-23 -2 -45.5 -6t-45.5 -6q-25 -2 -36 -27q-41 -92 -81 -181t-83 -179 q-51 -109 -107.5 -212.5t-128.5 -199.5q-20 -29 -44.5 -53.5t-47.5 -50.5q-18 -23 -46 -30t-57.5 -5t-57 13.5t-44.5 27.5q-20 20 -34.5 53t-18.5 70t1 72.5t22 60.5q12 23 38.5 26t42.5 -18q4 -2 3.5 -9t-5.5 -11q-20 -45 -20 -89t14 -92q18 -53 38 -58t61 32t70.5 82 t58.5 90q88 133 154.5 274.5t125.5 286.5l39 92v8q-14 -2 -27.5 -3t-27.5 -5q-29 -8 -57.5 -14t-57.5 -17q-16 -4 -27.5 -3t-21.5 18q-6 18 -18 30q-10 12 -5 17.5t15 9.5q68 23 131 37q29 8 58.5 13t58.5 9q27 2 36 25q47 102 95.5 203.5t97.5 202.5q45 92 98.5 174 t114.5 159q35 47 82 76q27 18 56.5 21.5t56 -6t46 -31t27.5 -53.5q8 -31 10.5 -65t-2.5 -67q-12 -88 -27.5 -175t-29.5 -173q-10 -53 -19.5 -106t-19.5 -107q-4 -18 2 -22t23 -6q33 0 68.5 -9.5t67.5 -25t55.5 -33.5t33.5 -35q6 -10 11 -20t12 -21q-2 0 -3.5 -1t-3.5 -1z M1286 1763q-2 0 -4 2q-4 20 -8 31q-6 -4 -14.5 -6t-14.5 -6q-12 -10 -25.5 -22.5t-23.5 -24.5q-59 -76 -111.5 -155t-93.5 -165q-43 -90 -85 -179t-83 -181q-8 -20 -10 -31q8 0 16.5 -1t16.5 -1q70 6 138.5 13t137.5 12q25 2 27 24l80 400q16 72 29.5 144t27.5 146z M1145 -199h2q-4 51 -8 101.5t-6 99.5q-2 221 24 438l70 480l6 55h-6l-6 -29q-14 -86 -29.5 -173t-26.5 -175q-12 -106 -22 -211.5t-17 -212.5q-4 -74 -2 -147.5t6 -147.5q0 -20 5.5 -40t9.5 -38zM1163 946h-8l-61 -434h8zM1010 1513l-6 5q-47 -98 -93.5 -196.5t-93.5 -199.5 q2 0 4 -1t4 -1zM1122 487h8q10 72 19.5 145t19.5 146h-8zM1075 -12h-6l8 -105h6q-4 27 -5 52.5t-3 52.5zM1077 260h-6v-51q0 -8 1 -14.5t1 -12.5h4v78zM1071 125h-4v-96h4v96zM1102 59h-2v-112h2v112zM1100 111h2v108h-2v-108z" />
<glyph unicode="&#xc1;" horiz-adv-x="1646" d="M1166 1958q-8 0 -27 6q-8 4 -2 12q2 4 4 6.5t4 6.5l154 153l82 78q61 51 131 76q4 2 9 3t9 -3q4 -2 -4 -19q-6 -8 -11 -14t-11 -10q-14 -14 -26.5 -25.5t-25.5 -21.5q-39 -39 -77.5 -79t-79.5 -77q-31 -35 -66 -65q-24 -27 -63 -27zM1554 905q-6 0 -8 2 q-53 43 -121.5 60.5t-128.5 15.5q-23 0 -28 -25q-23 -150 -44.5 -297t-39.5 -296q-16 -129 -20.5 -257t10.5 -258q2 -25 9 -50t15 -50q10 -27 17.5 -28t25.5 22q70 84 122 176t89 193q47 123 88 246.5t84 246.5q4 14 19.5 21.5t27.5 -0.5q8 -10 4 -25q-10 -41 -21.5 -81 t-23.5 -79q-23 -80 -47 -159.5t-51 -157.5q-78 -221 -227 -399q-18 -23 -43 -36.5t-54 -17.5q-63 -12 -98 43q-23 35 -35 72t-18 76q-16 113 -16.5 224.5t10.5 221.5q16 162 36.5 323t42.5 322q2 16 -4 18.5t-16 0.5l-231 -25q-23 -2 -45.5 -6t-45.5 -6q-25 -2 -36 -27 q-41 -92 -81 -181t-83 -179q-51 -109 -107.5 -212.5t-128.5 -199.5q-20 -29 -44.5 -53.5t-47.5 -50.5q-18 -23 -46 -30t-57.5 -5t-57 13.5t-44.5 27.5q-20 20 -34.5 53t-18.5 70t1 72.5t22 60.5q12 23 38.5 26t42.5 -18q4 -2 3.5 -9t-5.5 -11q-20 -45 -20 -89t14 -92 q18 -53 38 -58t61 32t70.5 82t58.5 90q88 133 154.5 274.5t125.5 286.5l39 92v8q-14 -2 -27.5 -3t-27.5 -5q-29 -8 -57.5 -14t-57.5 -17q-16 -4 -27.5 -3t-21.5 18q-6 18 -18 30q-10 12 -5 17.5t15 9.5q68 23 131 37q29 8 58.5 13t58.5 9q27 2 36 25q47 102 95.5 203.5 t97.5 202.5q45 92 98.5 174t114.5 159q35 47 82 76q27 18 56.5 21.5t56 -6t46 -31t27.5 -53.5q8 -31 10.5 -65t-2.5 -67q-12 -88 -27.5 -175t-29.5 -173q-10 -53 -19.5 -106t-19.5 -107q-4 -18 2 -22t23 -6q33 0 68.5 -9.5t67.5 -25t55.5 -33.5t33.5 -35q6 -10 11 -20 t12 -21q-2 0 -3.5 -1t-3.5 -1zM1286 1763q-2 0 -4 2q-4 20 -8 31q-6 -4 -14.5 -6t-14.5 -6q-12 -10 -25.5 -22.5t-23.5 -24.5q-59 -76 -111.5 -155t-93.5 -165q-43 -90 -85 -179t-83 -181q-8 -20 -10 -31q8 0 16.5 -1t16.5 -1q70 6 138.5 13t137.5 12q25 2 27 24l80 400 q16 72 29.5 144t27.5 146zM1145 -199h2q-4 51 -8 101.5t-6 99.5q-2 221 24 438l70 480l6 55h-6l-6 -29q-14 -86 -29.5 -173t-26.5 -175q-12 -106 -22 -211.5t-17 -212.5q-4 -74 -2 -147.5t6 -147.5q0 -20 5.5 -40t9.5 -38zM1163 946h-8l-61 -434h8zM1010 1513l-6 5 q-47 -98 -93.5 -196.5t-93.5 -199.5q2 0 4 -1t4 -1zM1122 487h8q10 72 19.5 145t19.5 146h-8zM1075 -12h-6l8 -105h6q-4 27 -5 52.5t-3 52.5zM1077 260h-6v-51q0 -8 1 -14.5t1 -12.5h4v78zM1071 125h-4v-96h4v96zM1102 59h-2v-112h2v112zM1100 111h2v108h-2v-108z" />
<glyph unicode="&#xc2;" horiz-adv-x="1646" d="M1503 1899q-8 0 -15 2t-18 4q-23 6 -32 30q-10 16 -14.5 36t-6.5 38q-12 76 -18 146q-4 23 -4 45t-2 45q0 10 -2 14h-5h-4q-2 -4 -5 -8t-5 -8l-94 -162q-10 -14 -17.5 -27.5t-17.5 -25.5q-12 -20 -39 -21q-4 0 -9 1t-9 1q-12 4 -6 10l6 9l86 153q20 33 38.5 62.5 t35.5 60.5q10 14 16 28.5t14 28.5q14 31 47 27q8 -2 15.5 -2t13.5 -4q18 -4 23 -23l8 -55q2 -41 3 -83t5 -83q4 -37 8 -74.5t12 -72.5q4 -14 7.5 -28.5t11.5 -24.5q12 -16 0.5 -28.5t-27.5 -10.5zM1554 905q-6 0 -8 2q-53 43 -121.5 60.5t-128.5 15.5q-23 0 -28 -25 q-23 -150 -44.5 -297t-39.5 -296q-16 -129 -20.5 -257t10.5 -258q2 -25 9 -50t15 -50q10 -27 17.5 -28t25.5 22q70 84 122 176t89 193q47 123 88 246.5t84 246.5q4 14 19.5 21.5t27.5 -0.5q8 -10 4 -25q-10 -41 -21.5 -81t-23.5 -79q-23 -80 -47 -159.5t-51 -157.5 q-78 -221 -227 -399q-18 -23 -43 -36.5t-54 -17.5q-63 -12 -98 43q-23 35 -35 72t-18 76q-16 113 -16.5 224.5t10.5 221.5q16 162 36.5 323t42.5 322q2 16 -4 18.5t-16 0.5l-231 -25q-23 -2 -45.5 -6t-45.5 -6q-25 -2 -36 -27q-41 -92 -81 -181t-83 -179 q-51 -109 -107.5 -212.5t-128.5 -199.5q-20 -29 -44.5 -53.5t-47.5 -50.5q-18 -23 -46 -30t-57.5 -5t-57 13.5t-44.5 27.5q-20 20 -34.5 53t-18.5 70t1 72.5t22 60.5q12 23 38.5 26t42.5 -18q4 -2 3.5 -9t-5.5 -11q-20 -45 -20 -89t14 -92q18 -53 38 -58t61 32t70.5 82 t58.5 90q88 133 154.5 274.5t125.5 286.5l39 92v8q-14 -2 -27.5 -3t-27.5 -5q-29 -8 -57.5 -14t-57.5 -17q-16 -4 -27.5 -3t-21.5 18q-6 18 -18 30q-10 12 -5 17.5t15 9.5q68 23 131 37q29 8 58.5 13t58.5 9q27 2 36 25q47 102 95.5 203.5t97.5 202.5q45 92 98.5 174 t114.5 159q35 47 82 76q27 18 56.5 21.5t56 -6t46 -31t27.5 -53.5q8 -31 10.5 -65t-2.5 -67q-12 -88 -27.5 -175t-29.5 -173q-10 -53 -19.5 -106t-19.5 -107q-4 -18 2 -22t23 -6q33 0 68.5 -9.5t67.5 -25t55.5 -33.5t33.5 -35q6 -10 11 -20t12 -21q-2 0 -3.5 -1t-3.5 -1z M1286 1763q-2 0 -4 2q-4 20 -8 31q-6 -4 -14.5 -6t-14.5 -6q-12 -10 -25.5 -22.5t-23.5 -24.5q-59 -76 -111.5 -155t-93.5 -165q-43 -90 -85 -179t-83 -181q-8 -20 -10 -31q8 0 16.5 -1t16.5 -1q70 6 138.5 13t137.5 12q25 2 27 24l80 400q16 72 29.5 144t27.5 146z M1145 -199h2q-4 51 -8 101.5t-6 99.5q-2 221 24 438l70 480l6 55h-6l-6 -29q-14 -86 -29.5 -173t-26.5 -175q-12 -106 -22 -211.5t-17 -212.5q-4 -74 -2 -147.5t6 -147.5q0 -20 5.5 -40t9.5 -38zM1163 946h-8l-61 -434h8zM1010 1513l-6 5q-47 -98 -93.5 -196.5t-93.5 -199.5 q2 0 4 -1t4 -1zM1122 487h8q10 72 19.5 145t19.5 146h-8zM1075 -12h-6l8 -105h6q-4 27 -5 52.5t-3 52.5zM1077 260h-6v-51q0 -8 1 -14.5t1 -12.5h4v78zM1071 125h-4v-96h4v96zM1102 59h-2v-112h2v112zM1100 111h2v108h-2v-108z" />
<glyph unicode="&#xc3;" horiz-adv-x="1646" d="M1462 2003q-16 2 -32.5 4.5t-32.5 6.5q-16 2 -29.5 5t-28.5 7q-43 12 -86 35q-16 8 -32.5 15t-32.5 18q-39 20 -78 -7q-4 -2 -6 -4t-6 -2q-6 -6 -15 -8q-14 -4 -16 4q-4 6 -1 9t7 8q12 16 37 26q16 8 33.5 15.5t35.5 13.5q47 12 97 0q35 -10 67.5 -22.5t65.5 -26.5 q14 -6 27.5 -13.5t29.5 -13.5q8 -4 16.5 -5t18.5 -3q31 -4 51 16q4 6 11.5 11.5t13.5 9.5q20 14 41 8q12 -4 8 -14q-6 -25 -27 -37q-16 -10 -31.5 -19.5t-31.5 -19.5q-31 -17 -74 -17zM1554 905q-6 0 -8 2q-53 43 -121.5 60.5t-128.5 15.5q-23 0 -28 -25 q-23 -150 -44.5 -297t-39.5 -296q-16 -129 -20.5 -257t10.5 -258q2 -25 9 -50t15 -50q10 -27 17.5 -28t25.5 22q70 84 122 176t89 193q47 123 88 246.5t84 246.5q4 14 19.5 21.5t27.5 -0.5q8 -10 4 -25q-10 -41 -21.5 -81t-23.5 -79q-23 -80 -47 -159.5t-51 -157.5 q-78 -221 -227 -399q-18 -23 -43 -36.5t-54 -17.5q-63 -12 -98 43q-23 35 -35 72t-18 76q-16 113 -16.5 224.5t10.5 221.5q16 162 36.5 323t42.5 322q2 16 -4 18.5t-16 0.5l-231 -25q-23 -2 -45.5 -6t-45.5 -6q-25 -2 -36 -27q-41 -92 -81 -181t-83 -179 q-51 -109 -107.5 -212.5t-128.5 -199.5q-20 -29 -44.5 -53.5t-47.5 -50.5q-18 -23 -46 -30t-57.5 -5t-57 13.5t-44.5 27.5q-20 20 -34.5 53t-18.5 70t1 72.5t22 60.5q12 23 38.5 26t42.5 -18q4 -2 3.5 -9t-5.5 -11q-20 -45 -20 -89t14 -92q18 -53 38 -58t61 32t70.5 82 t58.5 90q88 133 154.5 274.5t125.5 286.5l39 92v8q-14 -2 -27.5 -3t-27.5 -5q-29 -8 -57.5 -14t-57.5 -17q-16 -4 -27.5 -3t-21.5 18q-6 18 -18 30q-10 12 -5 17.5t15 9.5q68 23 131 37q29 8 58.5 13t58.5 9q27 2 36 25q47 102 95.5 203.5t97.5 202.5q45 92 98.5 174 t114.5 159q35 47 82 76q27 18 56.5 21.5t56 -6t46 -31t27.5 -53.5q8 -31 10.5 -65t-2.5 -67q-12 -88 -27.5 -175t-29.5 -173q-10 -53 -19.5 -106t-19.5 -107q-4 -18 2 -22t23 -6q33 0 68.5 -9.5t67.5 -25t55.5 -33.5t33.5 -35q6 -10 11 -20t12 -21q-2 0 -3.5 -1t-3.5 -1z M1286 1763q-2 0 -4 2q-4 20 -8 31q-6 -4 -14.5 -6t-14.5 -6q-12 -10 -25.5 -22.5t-23.5 -24.5q-59 -76 -111.5 -155t-93.5 -165q-43 -90 -85 -179t-83 -181q-8 -20 -10 -31q8 0 16.5 -1t16.5 -1q70 6 138.5 13t137.5 12q25 2 27 24l80 400q16 72 29.5 144t27.5 146z M1145 -199h2q-4 51 -8 101.5t-6 99.5q-2 221 24 438l70 480l6 55h-6l-6 -29q-14 -86 -29.5 -173t-26.5 -175q-12 -106 -22 -211.5t-17 -212.5q-4 -74 -2 -147.5t6 -147.5q0 -20 5.5 -40t9.5 -38zM1163 946h-8l-61 -434h8zM1010 1513l-6 5q-47 -98 -93.5 -196.5t-93.5 -199.5 q2 0 4 -1t4 -1zM1122 487h8q10 72 19.5 145t19.5 146h-8zM1075 -12h-6l8 -105h6q-4 27 -5 52.5t-3 52.5zM1077 260h-6v-51q0 -8 1 -14.5t1 -12.5h4v78zM1071 125h-4v-96h4v96zM1102 59h-2v-112h2v112zM1100 111h2v108h-2v-108z" />
<glyph unicode="&#xc4;" horiz-adv-x="1646" d="M1114 2110q2 20 5 37.5t13 33.5q14 23 37 31t45 -2q33 -14 58 -27q27 -14 30 -51q2 -23 -7 -44t-26.5 -36.5t-39 -24t-46.5 -3.5q-73 12 -69 86zM1470 2030q-4 2 -12 2t-19 2q-37 12 -45 43q-4 10 -6 18t-4 19q-2 47 37 73q20 10 39.5 15.5t42.5 -2.5q12 -4 24.5 -7.5 t26.5 -7.5q16 -6 26.5 -22.5t6.5 -32.5q-8 -45 -35 -71.5t-82 -28.5zM1487 2067q4 2 8 6t4 8l-2 4q-4 0 -10.5 -5t-3.5 -9q0 -2 2 -2zM1206 2069h2v2zM1554 905q-6 0 -8 2q-53 43 -121.5 60.5t-128.5 15.5q-23 0 -28 -25q-23 -150 -44.5 -297t-39.5 -296 q-16 -129 -20.5 -257t10.5 -258q2 -25 9 -50t15 -50q10 -27 17.5 -28t25.5 22q70 84 122 176t89 193q47 123 88 246.5t84 246.5q4 14 19.5 21.5t27.5 -0.5q8 -10 4 -25q-10 -41 -21.5 -81t-23.5 -79q-23 -80 -47 -159.5t-51 -157.5q-78 -221 -227 -399q-18 -23 -43 -36.5 t-54 -17.5q-63 -12 -98 43q-23 35 -35 72t-18 76q-16 113 -16.5 224.5t10.5 221.5q16 162 36.5 323t42.5 322q2 16 -4 18.5t-16 0.5l-231 -25q-23 -2 -45.5 -6t-45.5 -6q-25 -2 -36 -27q-41 -92 -81 -181t-83 -179q-51 -109 -107.5 -212.5t-128.5 -199.5 q-20 -29 -44.5 -53.5t-47.5 -50.5q-18 -23 -46 -30t-57.5 -5t-57 13.5t-44.5 27.5q-20 20 -34.5 53t-18.5 70t1 72.5t22 60.5q12 23 38.5 26t42.5 -18q4 -2 3.5 -9t-5.5 -11q-20 -45 -20 -89t14 -92q18 -53 38 -58t61 32t70.5 82t58.5 90q88 133 154.5 274.5t125.5 286.5 l39 92v8q-14 -2 -27.5 -3t-27.5 -5q-29 -8 -57.5 -14t-57.5 -17q-16 -4 -27.5 -3t-21.5 18q-6 18 -18 30q-10 12 -5 17.5t15 9.5q68 23 131 37q29 8 58.5 13t58.5 9q27 2 36 25q47 102 95.5 203.5t97.5 202.5q45 92 98.5 174t114.5 159q35 47 82 76q27 18 56.5 21.5t56 -6 t46 -31t27.5 -53.5q8 -31 10.5 -65t-2.5 -67q-12 -88 -27.5 -175t-29.5 -173q-10 -53 -19.5 -106t-19.5 -107q-4 -18 2 -22t23 -6q33 0 68.5 -9.5t67.5 -25t55.5 -33.5t33.5 -35q6 -10 11 -20t12 -21q-2 0 -3.5 -1t-3.5 -1zM1286 1763q-2 0 -4 2q-4 20 -8 31q-6 -4 -14.5 -6 t-14.5 -6q-12 -10 -25.5 -22.5t-23.5 -24.5q-59 -76 -111.5 -155t-93.5 -165q-43 -90 -85 -179t-83 -181q-8 -20 -10 -31q8 0 16.5 -1t16.5 -1q70 6 138.5 13t137.5 12q25 2 27 24l80 400q16 72 29.5 144t27.5 146zM1145 -199h2q-4 51 -8 101.5t-6 99.5q-2 221 24 438 l70 480l6 55h-6l-6 -29q-14 -86 -29.5 -173t-26.5 -175q-12 -106 -22 -211.5t-17 -212.5q-4 -74 -2 -147.5t6 -147.5q0 -20 5.5 -40t9.5 -38zM1163 946h-8l-61 -434h8zM1010 1513l-6 5q-47 -98 -93.5 -196.5t-93.5 -199.5q2 0 4 -1t4 -1zM1122 487h8q10 72 19.5 145 t19.5 146h-8zM1075 -12h-6l8 -105h6q-4 27 -5 52.5t-3 52.5zM1077 260h-6v-51q0 -8 1 -14.5t1 -12.5h4v78zM1071 125h-4v-96h4v96zM1102 59h-2v-112h2v112zM1100 111h2v108h-2v-108z" />
<glyph unicode="&#xc5;" horiz-adv-x="1646" d="M1184 2103q8 72 38.5 126t90.5 89q16 10 34.5 12t37.5 -2q72 -16 114.5 -62t67.5 -112q8 -18 3 -37.5t-15 -38.5q-68 -127 -209 -120q-45 2 -84 24.5t-62 63.5q-6 14 -9 29.5t-7 27.5zM1469 2173q0 27 -10.5 45t-24.5 39q-14 16 -33 6q-106 -74 -117 -201q-2 -35 6.5 -41 t42.5 2q12 2 23 8q47 18 80 59.5t33 82.5zM1270 2160l8 -4q8 16 17.5 31.5t19.5 32.5l-8 6q-10 -16 -18.5 -33t-18.5 -33zM1495 2052q37 20 37 61q-10 -16 -18.5 -30.5t-18.5 -30.5zM1554 905q-6 0 -8 2q-53 43 -121.5 60.5t-128.5 15.5q-23 0 -28 -25q-23 -150 -44.5 -297 t-39.5 -296q-16 -129 -20.5 -257t10.5 -258q2 -25 9 -50t15 -50q10 -27 17.5 -28t25.5 22q70 84 122 176t89 193q47 123 88 246.5t84 246.5q4 14 19.5 21.5t27.5 -0.5q8 -10 4 -25q-10 -41 -21.5 -81t-23.5 -79q-23 -80 -47 -159.5t-51 -157.5q-78 -221 -227 -399 q-18 -23 -43 -36.5t-54 -17.5q-63 -12 -98 43q-23 35 -35 72t-18 76q-16 113 -16.5 224.5t10.5 221.5q16 162 36.5 323t42.5 322q2 16 -4 18.5t-16 0.5l-231 -25q-23 -2 -45.5 -6t-45.5 -6q-25 -2 -36 -27q-41 -92 -81 -181t-83 -179q-51 -109 -107.5 -212.5t-128.5 -199.5 q-20 -29 -44.5 -53.5t-47.5 -50.5q-18 -23 -46 -30t-57.5 -5t-57 13.5t-44.5 27.5q-20 20 -34.5 53t-18.5 70t1 72.5t22 60.5q12 23 38.5 26t42.5 -18q4 -2 3.5 -9t-5.5 -11q-20 -45 -20 -89t14 -92q18 -53 38 -58t61 32t70.5 82t58.5 90q88 133 154.5 274.5t125.5 286.5 l39 92v8q-14 -2 -27.5 -3t-27.5 -5q-29 -8 -57.5 -14t-57.5 -17q-16 -4 -27.5 -3t-21.5 18q-6 18 -18 30q-10 12 -5 17.5t15 9.5q68 23 131 37q29 8 58.5 13t58.5 9q27 2 36 25q47 102 95.5 203.5t97.5 202.5q45 92 98.5 174t114.5 159q35 47 82 76q27 18 56.5 21.5t56 -6 t46 -31t27.5 -53.5q8 -31 10.5 -65t-2.5 -67q-12 -88 -27.5 -175t-29.5 -173q-10 -53 -19.5 -106t-19.5 -107q-4 -18 2 -22t23 -6q33 0 68.5 -9.5t67.5 -25t55.5 -33.5t33.5 -35q6 -10 11 -20t12 -21q-2 0 -3.5 -1t-3.5 -1zM1286 1763q-2 0 -4 2q-4 20 -8 31q-6 -4 -14.5 -6 t-14.5 -6q-12 -10 -25.5 -22.5t-23.5 -24.5q-59 -76 -111.5 -155t-93.5 -165q-43 -90 -85 -179t-83 -181q-8 -20 -10 -31q8 0 16.5 -1t16.5 -1q70 6 138.5 13t137.5 12q25 2 27 24l80 400q16 72 29.5 144t27.5 146zM1145 -199h2q-4 51 -8 101.5t-6 99.5q-2 221 24 438 l70 480l6 55h-6l-6 -29q-14 -86 -29.5 -173t-26.5 -175q-12 -106 -22 -211.5t-17 -212.5q-4 -74 -2 -147.5t6 -147.5q0 -20 5.5 -40t9.5 -38zM1163 946h-8l-61 -434h8zM1010 1513l-6 5q-47 -98 -93.5 -196.5t-93.5 -199.5q2 0 4 -1t4 -1zM1122 487h8q10 72 19.5 145 t19.5 146h-8zM1075 -12h-6l8 -105h6q-4 27 -5 52.5t-3 52.5zM1077 260h-6v-51q0 -8 1 -14.5t1 -12.5h4v78zM1071 125h-4v-96h4v96zM1102 59h-2v-112h2v112zM1100 111h2v108h-2v-108z" />
<glyph unicode="&#xc6;" horiz-adv-x="2562" d="M1122 100v256q0 14 1 27.5t3 28.5q2 33 -4 40t-39 11t-64.5 8t-64.5 4q-82 4 -161.5 -4t-159.5 -18q-39 -6 -60 -39l-284 -449l-230 -360q-20 -33 -47 -66q-25 -31 -55 -49q-31 -18 -66 -6q-18 8 -4 20q25 23 43.5 48.5t34.5 52.5l344 569q31 51 62.5 100.5t62.5 98.5 l17 26l4 17q-4 0 -8.5 1t-8.5 -1q-10 -2 -21 -4t-22 -2q-12 -2 -24.5 -3t-22.5 -1t-18 3t-17 5q-4 2 -5 4t-5 6q8 8 12 10q4 4 10.5 4t10.5 2q33 8 64.5 15.5t64.5 11.5q20 4 32.5 14.5t22.5 26.5q104 170 210 338t212 338q72 117 143.5 230.5t143.5 227.5q23 35 44 66 t44 64q16 27 53 30q18 2 34.5 -5t33.5 -17q6 -4 7 -11.5t1 -13.5l-6 -63q-10 -88 -25.5 -175t-32.5 -174l-12 -71q0 -4 2 -8q2 2 4 2t4 4q4 4 4 7t5 7q70 141 177 237.5t257 149.5q125 45 260 31q133 -16 237 -98q10 -8 17.5 -16.5t15.5 -16.5q14 -20 12 -45 q-4 -18 -19 -24.5t-32 3.5q-8 8 -8 17q2 16 -6 29.5t-19 23.5q-111 100 -253 94q-53 -2 -104.5 -17.5t-98.5 -39.5q-111 -59 -187.5 -144.5t-130.5 -195.5q-16 -37 -22 -72q-29 -109 49 -192q29 -31 60.5 -54.5t72.5 -40.5q29 -12 62 0q35 16 71.5 24.5t75.5 12.5 q33 2 61.5 -8t57.5 -24q12 -6 12 -16.5t-10 -18.5q-16 -14 -39 -21q-25 -10 -50.5 -12t-52.5 -4q-16 -2 -30.5 -2h-28.5q-31 2 -55 -17q-66 -41 -123 -102q-78 -78 -135.5 -167t-98.5 -189q-4 -10 -6 -21.5t-4 -23.5q0 -18 -12 -29q-6 -4 -9 -10t-5 -13q-27 -82 -39 -174 q-16 -102 -13 -207q4 -100 30 -192t83 -178q57 -78 131 -135q33 -27 69 -33t74 2q47 10 88 30.5t78 51.5q25 20 46.5 41.5t43.5 44.5q90 98 162 205.5t129 226.5q35 72 71 144.5t73 144.5q20 39 39.5 75.5t42.5 71.5q20 33 35.5 64.5t31.5 66.5l31 66q14 27 45 26 q33 0 22 -30l-28 -64q-29 -59 -58.5 -117.5t-58.5 -117.5q-23 -43 -41 -86t-39 -86l-78 -170q-59 -127 -134 -242t-169 -219q-55 -61 -121.5 -103.5t-148.5 -60.5q-147 -33 -285 41q-90 55 -160 139q-4 4 -9 10.5t-9 4.5q-8 -4 -7 -10.5t3 -12.5l18 -111q6 -27 -20 -32 q-25 -6 -46.5 0t-41.5 20q-12 10 -17 29q-4 20 -8 39.5t-8 42.5l-18 198q-8 106 -11.5 212t-3.5 212zM1114 504q12 -2 16 14q2 4 3 10l16 164q10 94 23.5 187.5t29.5 185.5l80 416l6 43q0 6 -2 10l-8 -6q-8 -8 -14 -21l-187 -293l-426 -677l-12 -21q-8 -16 10 -16q4 0 8.5 1 t8.5 1l155 14q49 4 99.5 4t99.5 -6q23 -2 47 -4t47 -6zM1257 479q0 -8 3 -12q0 -4 6 -10q6 0 10 4l10 18l41 72q55 92 126 169t161 136l10 6q12 10 0 17l-29 10q-47 18 -88 42.5t-75 59.5q-29 29 -48.5 59.5t-25.5 71.5q0 8 -2 15l-4 6l-6 -6l-5 -17q-10 -63 -20 -125.5 t-18 -126.5q-10 -61 -17.5 -123.5t-15.5 -126.5z" />
<glyph unicode="&#xc7;" horiz-adv-x="1253" d="M298 -548q-42 -3 -77 14q-10 1 -23 15q-14 12 0 26q5 5 12.5 8.5t13.5 6.5q5 3 12 -1q8 -8 16.5 -14t16.5 -14q9 -11 21 -9q14 3 27 4.5t27 4.5q11 2 18.5 9t14.5 17q16 32 22.5 66t-1.5 71q-11 36 -43 43q-8 1 -17 3.5t-17 5.5q-11 5 -7 20q18 36 33 74t32 75 q14 27 39 22q9 -1 16 -4.5t16 -6.5q5 -3 5 -10q0 -5 -2 -8.5t-5 -8.5l-50 -122q-6 -13 -4.5 -17t16.5 -10l26 -10q39 -18 49 -65q5 -32 -0.5 -60.5t-18.5 -57.5q-13 -23 -33 -35q-14 -8 -29.5 -14t-31.5 -9q-18 -3 -36 -4.5t-38 -4.5zM27 518q0 199 49 385.5t137 366.5 q41 86 97.5 162.5t131.5 138.5q45 37 93.5 64.5t103.5 43.5q39 10 79 5t76.5 -22t66.5 -46t48 -66q20 -41 30.5 -83t-5.5 -89q-4 -10 -10 -20t-13 -21q-10 8 -21 14.5t-20 16.5q-6 4 -7 12.5t-3 16.5q-2 23 -2 45t-4 45q-4 20 -11 40.5t-16 39.5q-8 16 -22 22t-31 8 q-57 2 -105 -20.5t-94 -50.5q-80 -53 -134 -125t-97 -156q-115 -221 -160 -463q-20 -104 -20 -209.5t12 -212.5q8 -74 22.5 -144.5t39.5 -139.5q31 -92 98 -166q72 -76 168 -27q57 31 103 75t87 91q100 115 173 243t134 263l15 29q6 16 16 19t25 -1q35 -8 24 -43 q-55 -154 -122.5 -301t-174.5 -276q-29 -33 -58.5 -63t-63.5 -56q-53 -41 -113 -52.5t-125 -7.5q-115 8 -188.5 68.5t-122.5 159.5q-41 82 -54.5 168t-23.5 174q-4 37 -5 72.5t-3 72.5zM498 1511q-88 -68 -140.5 -158.5t-95.5 -189.5q47 96 102.5 185t133.5 163z" />
<glyph unicode="&#xc8;" horiz-adv-x="1435" d="M854 1880l-6 -33q-6 -14 -16 -8q-31 14 -54.5 32.5t-35.5 51.5l-62 150q-18 45 -36.5 90t-41.5 90q-12 18 8 25q23 14 39 6q4 -2 13 -2q35 -2 47 -37l51 -117q23 -53 43 -106.5t41 -106.5q4 -8 6 -17.5t4 -17.5zM322 780q-51 16 -92.5 42t-75.5 59q-66 61 -86 147 q-41 150 -3.5 279t136.5 243q119 141 284 205q53 23 109.5 34t114.5 -5q61 -14 120 -51q23 -12 44.5 -24.5t37.5 -39.5q14 -23 16.5 -29t-12.5 -26q-111 -166 -141 -363q-4 -23 -2 -43t4 -43q0 -16 -3 -19t-19 3q-57 29 -60 88q-4 53 5.5 105.5t25.5 103.5q16 53 35.5 103 t40.5 104q4 12 4 18t-17 10q-59 10 -112 -1t-105 -35q-154 -76 -249 -193t-123 -289q-10 -66 0 -130t45 -124q23 -37 59.5 -58.5t81.5 -19.5q37 2 74 9.5t71 13.5l72 14l53 17q16 4 37 0t31 -17q12 -16 -6 -30l-41 -21q-18 -6 -8 -24q10 -16 8 -20.5t-23 -6.5 q-37 -4 -73.5 -7t-71.5 -20q-43 -18 -78 -47.5t-70 -62.5q-78 -74 -118.5 -165t-57.5 -196q-16 -88 -23 -175t-1 -175q4 -80 15 -160t44 -153q14 -33 41 -60.5t59.5 -46t68.5 -26t67 1.5q59 14 111 40.5t100 63.5q117 88 199.5 199.5t152.5 234.5q76 137 147.5 274.5 t145.5 276.5l20 40t21 40q16 27 55 8q16 -8 14 -17t-6 -20q-27 -55 -53.5 -111.5t-54.5 -109.5q-53 -104 -106.5 -205.5t-108.5 -203.5q-68 -127 -150 -241t-194 -206q-78 -63 -165 -99t-192 -26q-68 8 -129 33t-109.5 67t-81 100t-44.5 132q-10 61 -17.5 122.5t-9.5 123.5 q-2 78 5 154.5t26 152.5q14 55 29.5 109.5t37.5 107.5q57 137 183 234zM197 1331q43 82 100 150.5t129 128.5q-80 -51 -139 -119t-90 -160zM190 459q35 66 78 122t94 109q-127 -92 -172 -231zM303 1554q-74 -59 -108 -143zM227 1522q-12 -8 -26.5 -25.5t-27.5 -38t-22.5 -40 t-11.5 -32.5zM176 526q4 -4 8 -4l70 103l-8 4zM225 645q-59 -57 -84 -129q20 33 40.5 64.5t43.5 64.5zM893 1638q-4 4 -6 4l-43 -73l4 -4q12 18 23.5 36.5t21.5 36.5z" />
<glyph unicode="&#xc9;" horiz-adv-x="1435" d="M613 1868q-8 0 -27 6q-8 4 -2 12q2 4 4 6.5t4 6.5l154 153l82 78q61 51 131 76q4 2 9 3t9 -3q4 -2 -4 -19q-6 -8 -11 -14t-11 -10q-14 -14 -26.5 -25.5t-25.5 -21.5q-39 -39 -77.5 -79t-79.5 -77q-31 -35 -66 -65q-24 -27 -63 -27zM322 780q-51 16 -92.5 42t-75.5 59 q-66 61 -86 147q-41 150 -3.5 279t136.5 243q119 141 284 205q53 23 109.5 34t114.5 -5q61 -14 120 -51q23 -12 44.5 -24.5t37.5 -39.5q14 -23 16.5 -29t-12.5 -26q-111 -166 -141 -363q-4 -23 -2 -43t4 -43q0 -16 -3 -19t-19 3q-57 29 -60 88q-4 53 5.5 105.5t25.5 103.5 q16 53 35.5 103t40.5 104q4 12 4 18t-17 10q-59 10 -112 -1t-105 -35q-154 -76 -249 -193t-123 -289q-10 -66 0 -130t45 -124q23 -37 59.5 -58.5t81.5 -19.5q37 2 74 9.5t71 13.5l72 14l53 17q16 4 37 0t31 -17q12 -16 -6 -30l-41 -21q-18 -6 -8 -24q10 -16 8 -20.5 t-23 -6.5q-37 -4 -73.5 -7t-71.5 -20q-43 -18 -78 -47.5t-70 -62.5q-78 -74 -118.5 -165t-57.5 -196q-16 -88 -23 -175t-1 -175q4 -80 15 -160t44 -153q14 -33 41 -60.5t59.5 -46t68.5 -26t67 1.5q59 14 111 40.5t100 63.5q117 88 199.5 199.5t152.5 234.5 q76 137 147.5 274.5t145.5 276.5l20 40t21 40q16 27 55 8q16 -8 14 -17t-6 -20q-27 -55 -53.5 -111.5t-54.5 -109.5q-53 -104 -106.5 -205.5t-108.5 -203.5q-68 -127 -150 -241t-194 -206q-78 -63 -165 -99t-192 -26q-68 8 -129 33t-109.5 67t-81 100t-44.5 132 q-10 61 -17.5 122.5t-9.5 123.5q-2 78 5 154.5t26 152.5q14 55 29.5 109.5t37.5 107.5q57 137 183 234zM197 1331q43 82 100 150.5t129 128.5q-80 -51 -139 -119t-90 -160zM190 459q35 66 78 122t94 109q-127 -92 -172 -231zM303 1554q-74 -59 -108 -143zM227 1522 q-12 -8 -26.5 -25.5t-27.5 -38t-22.5 -40t-11.5 -32.5zM176 526q4 -4 8 -4l70 103l-8 4zM225 645q-59 -57 -84 -129q20 33 40.5 64.5t43.5 64.5zM893 1638q-4 4 -6 4l-43 -73l4 -4q12 18 23.5 36.5t21.5 36.5z" />
<glyph unicode="&#xca;" horiz-adv-x="1435" d="M921 1766q-8 0 -15 2t-18 4q-23 6 -32 30q-10 16 -14.5 36t-6.5 38q-12 76 -18 146q-4 23 -4 45t-2 45q0 10 -2 14h-5h-4q-2 -4 -5 -8t-5 -8l-94 -162q-10 -14 -17.5 -27.5t-17.5 -25.5q-12 -20 -39 -21q-4 0 -9 1t-9 1q-12 4 -6 10l6 9l86 153q20 33 38.5 62.5 t35.5 60.5q10 14 16 28.5t14 28.5q14 31 47 27q8 -2 15.5 -2t13.5 -4q18 -4 23 -23l8 -55q2 -41 3 -83t5 -83q4 -37 8 -74.5t12 -72.5q4 -14 7.5 -28.5t11.5 -24.5q12 -16 0.5 -28.5t-27.5 -10.5zM322 780q-51 16 -92.5 42t-75.5 59q-66 61 -86 147q-41 150 -3.5 279 t136.5 243q119 141 284 205q53 23 109.5 34t114.5 -5q61 -14 120 -51q23 -12 44.5 -24.5t37.5 -39.5q14 -23 16.5 -29t-12.5 -26q-111 -166 -141 -363q-4 -23 -2 -43t4 -43q0 -16 -3 -19t-19 3q-57 29 -60 88q-4 53 5.5 105.5t25.5 103.5q16 53 35.5 103t40.5 104q4 12 4 18 t-17 10q-59 10 -112 -1t-105 -35q-154 -76 -249 -193t-123 -289q-10 -66 0 -130t45 -124q23 -37 59.5 -58.5t81.5 -19.5q37 2 74 9.5t71 13.5l72 14l53 17q16 4 37 0t31 -17q12 -16 -6 -30l-41 -21q-18 -6 -8 -24q10 -16 8 -20.5t-23 -6.5q-37 -4 -73.5 -7t-71.5 -20 q-43 -18 -78 -47.5t-70 -62.5q-78 -74 -118.5 -165t-57.5 -196q-16 -88 -23 -175t-1 -175q4 -80 15 -160t44 -153q14 -33 41 -60.5t59.5 -46t68.5 -26t67 1.5q59 14 111 40.5t100 63.5q117 88 199.5 199.5t152.5 234.5q76 137 147.5 274.5t145.5 276.5l20 40t21 40 q16 27 55 8q16 -8 14 -17t-6 -20q-27 -55 -53.5 -111.5t-54.5 -109.5q-53 -104 -106.5 -205.5t-108.5 -203.5q-68 -127 -150 -241t-194 -206q-78 -63 -165 -99t-192 -26q-68 8 -129 33t-109.5 67t-81 100t-44.5 132q-10 61 -17.5 122.5t-9.5 123.5q-2 78 5 154.5t26 152.5 q14 55 29.5 109.5t37.5 107.5q57 137 183 234zM197 1331q43 82 100 150.5t129 128.5q-80 -51 -139 -119t-90 -160zM190 459q35 66 78 122t94 109q-127 -92 -172 -231zM303 1554q-74 -59 -108 -143zM227 1522q-12 -8 -26.5 -25.5t-27.5 -38t-22.5 -40t-11.5 -32.5zM176 526 q4 -4 8 -4l70 103l-8 4zM225 645q-59 -57 -84 -129q20 33 40.5 64.5t43.5 64.5zM893 1638q-4 4 -6 4l-43 -73l4 -4q12 18 23.5 36.5t21.5 36.5z" />
<glyph unicode="&#xcb;" horiz-adv-x="1435" d="M494 1969q2 20 5 37.5t13 33.5q14 23 37 31t45 -2q33 -14 58 -27q27 -14 30 -51q2 -23 -7 -44t-26.5 -36.5t-39 -24t-46.5 -3.5q-73 12 -69 86zM850 1889q-4 2 -12 2t-19 2q-37 12 -45 43q-4 10 -6 18t-4 19q-2 47 37 73q20 10 39.5 15.5t42.5 -2.5q12 -4 24.5 -7.5 t26.5 -7.5q16 -6 26.5 -22.5t6.5 -32.5q-8 -45 -35 -71.5t-82 -28.5zM867 1926q4 2 8 6t4 8l-2 4q-4 0 -10.5 -5t-3.5 -9q0 -2 2 -2zM586 1928h2v2zM322 780q-51 16 -92.5 42t-75.5 59q-66 61 -86 147q-41 150 -3.5 279t136.5 243q119 141 284 205q53 23 109.5 34t114.5 -5 q61 -14 120 -51q23 -12 44.5 -24.5t37.5 -39.5q14 -23 16.5 -29t-12.5 -26q-111 -166 -141 -363q-4 -23 -2 -43t4 -43q0 -16 -3 -19t-19 3q-57 29 -60 88q-4 53 5.5 105.5t25.5 103.5q16 53 35.5 103t40.5 104q4 12 4 18t-17 10q-59 10 -112 -1t-105 -35q-154 -76 -249 -193 t-123 -289q-10 -66 0 -130t45 -124q23 -37 59.5 -58.5t81.5 -19.5q37 2 74 9.5t71 13.5l72 14l53 17q16 4 37 0t31 -17q12 -16 -6 -30l-41 -21q-18 -6 -8 -24q10 -16 8 -20.5t-23 -6.5q-37 -4 -73.5 -7t-71.5 -20q-43 -18 -78 -47.5t-70 -62.5q-78 -74 -118.5 -165 t-57.5 -196q-16 -88 -23 -175t-1 -175q4 -80 15 -160t44 -153q14 -33 41 -60.5t59.5 -46t68.5 -26t67 1.5q59 14 111 40.5t100 63.5q117 88 199.5 199.5t152.5 234.5q76 137 147.5 274.5t145.5 276.5l20 40t21 40q16 27 55 8q16 -8 14 -17t-6 -20q-27 -55 -53.5 -111.5 t-54.5 -109.5q-53 -104 -106.5 -205.5t-108.5 -203.5q-68 -127 -150 -241t-194 -206q-78 -63 -165 -99t-192 -26q-68 8 -129 33t-109.5 67t-81 100t-44.5 132q-10 61 -17.5 122.5t-9.5 123.5q-2 78 5 154.5t26 152.5q14 55 29.5 109.5t37.5 107.5q57 137 183 234zM197 1331 q43 82 100 150.5t129 128.5q-80 -51 -139 -119t-90 -160zM190 459q35 66 78 122t94 109q-127 -92 -172 -231zM303 1554q-74 -59 -108 -143zM227 1522q-12 -8 -26.5 -25.5t-27.5 -38t-22.5 -40t-11.5 -32.5zM176 526q4 -4 8 -4l70 103l-8 4zM225 645q-59 -57 -84 -129 q20 33 40.5 64.5t43.5 64.5zM893 1638q-4 4 -6 4l-43 -73l4 -4q12 18 23.5 36.5t21.5 36.5z" />
<glyph unicode="&#xcc;" horiz-adv-x="645" d="M547 1992l-6 -33q-6 -14 -16 -8q-31 14 -54.5 32.5t-35.5 51.5l-62 150q-18 45 -36.5 90t-41.5 90q-12 18 8 25q23 14 39 6q4 -2 13 -2q35 -2 47 -37l51 -117q23 -53 43 -106.5t41 -106.5q4 -8 6 -17.5t4 -17.5zM766 1798q-16 2 -29.5 4t-25.5 0q-39 -4 -77 -9t-75 -11 q-4 -2 -10 -6t-6 -9q-8 -33 -13.5 -65.5t-13.5 -65.5q-47 -186 -86 -372.5t-72 -376.5q-25 -147 -49 -292.5t-47 -293.5q-10 -66 -17 -133.5t-16 -134.5q0 -12 1 -24.5t-5 -22.5q-4 -4 -17 -3t-24 -1q-35 -2 -50 10t-13 47q2 141 5 279.5t24 277.5q33 223 77.5 440t98.5 434 q16 66 34.5 129.5t36.5 129.5q4 16 0 18t-16 -2q-6 -2 -12.5 -2t-10.5 -4q-31 -10 -50 3t-36 36q-16 23 11 28q29 6 54 13.5t54 11.5q63 8 127 16t129 15q47 4 75 -11.5t44 -52.5zM362 -31h41t37 -16q16 -14 0 -25q-20 -10 -37 -10q-88 -10 -174 -23.5t-172 -37.5 q-8 -2 -22.5 1t-28.5 9t-26.5 13t-16.5 16q-2 4 1 11t7 9q10 4 22.5 8t24.5 6l344 45v-6zM262 1026l-6 -12q-18 -104 -36.5 -206.5t-35.5 -207.5q-12 -74 -17 -149.5t-13 -151.5q-4 -35 -5.5 -68.5t-3.5 -68.5q-2 -31 -1 -61.5t1 -61.5q4 6 4.5 12t2.5 12q4 76 5 152t11 152 q14 123 31.5 244.5t36.5 244.5q6 43 13 85t15 83q4 18 8 35.5t9 36.5h-9q-2 -16 -4 -35t-6 -35zM197 31q23 279 67.5 551t93.5 546q-66 -274 -107.5 -545t-53.5 -552zM188 244l11 114l57 418q4 35 11 66.5t12 64.5q-10 -14 -11 -26q-16 -86 -31.5 -172t-27.5 -174 q-10 -76 -15.5 -152t-11.5 -152zM172 106q-2 -14 -1 -27t1 -30q2 2 8 2v158q-4 -25 -5 -50.5t-3 -52.5z" />
<glyph unicode="&#xcd;" horiz-adv-x="645" d="M326 1909q-8 0 -27 6q-8 4 -2 12q2 4 4 6.5t4 6.5l154 153l82 78q61 51 131 76q4 2 9 3t9 -3q4 -2 -4 -19q-6 -8 -11 -14t-11 -10q-14 -14 -26.5 -25.5t-25.5 -21.5q-39 -39 -77.5 -79t-79.5 -77q-31 -35 -66 -65q-24 -27 -63 -27zM766 1798q-16 2 -29.5 4t-25.5 0 q-39 -4 -77 -9t-75 -11q-4 -2 -10 -6t-6 -9q-8 -33 -13.5 -65.5t-13.5 -65.5q-47 -186 -86 -372.5t-72 -376.5q-25 -147 -49 -292.5t-47 -293.5q-10 -66 -17 -133.5t-16 -134.5q0 -12 1 -24.5t-5 -22.5q-4 -4 -17 -3t-24 -1q-35 -2 -50 10t-13 47q2 141 5 279.5t24 277.5 q33 223 77.5 440t98.5 434q16 66 34.5 129.5t36.5 129.5q4 16 0 18t-16 -2q-6 -2 -12.5 -2t-10.5 -4q-31 -10 -50 3t-36 36q-16 23 11 28q29 6 54 13.5t54 11.5q63 8 127 16t129 15q47 4 75 -11.5t44 -52.5zM362 -31h41t37 -16q16 -14 0 -25q-20 -10 -37 -10 q-88 -10 -174 -23.5t-172 -37.5q-8 -2 -22.5 1t-28.5 9t-26.5 13t-16.5 16q-2 4 1 11t7 9q10 4 22.5 8t24.5 6l344 45v-6zM262 1026l-6 -12q-18 -104 -36.5 -206.5t-35.5 -207.5q-12 -74 -17 -149.5t-13 -151.5q-4 -35 -5.5 -68.5t-3.5 -68.5q-2 -31 -1 -61.5t1 -61.5 q4 6 4.5 12t2.5 12q4 76 5 152t11 152q14 123 31.5 244.5t36.5 244.5q6 43 13 85t15 83q4 18 8 35.5t9 36.5h-9q-2 -16 -4 -35t-6 -35zM197 31q23 279 67.5 551t93.5 546q-66 -274 -107.5 -545t-53.5 -552zM188 244l11 114l57 418q4 35 11 66.5t12 64.5q-10 -14 -11 -26 q-16 -86 -31.5 -172t-27.5 -174q-10 -76 -15.5 -152t-11.5 -152zM172 106q-2 -14 -1 -27t1 -30q2 2 8 2v158q-4 -25 -5 -50.5t-3 -52.5z" />
<glyph unicode="&#xce;" horiz-adv-x="645" d="M635 1887q-8 0 -15 2t-18 4q-23 6 -32 30q-10 16 -14.5 36t-6.5 38q-12 76 -18 146q-4 23 -4 45t-2 45q0 10 -2 14h-5h-4q-2 -4 -5 -8t-5 -8l-94 -162q-10 -14 -17.5 -27.5t-17.5 -25.5q-12 -20 -39 -21q-4 0 -9 1t-9 1q-12 4 -6 10l6 9l86 153q20 33 38.5 62.5 t35.5 60.5q10 14 16 28.5t14 28.5q14 31 47 27q8 -2 15.5 -2t13.5 -4q18 -4 23 -23l8 -55q2 -41 3 -83t5 -83q4 -37 8 -74.5t12 -72.5q4 -14 7.5 -28.5t11.5 -24.5q12 -16 0.5 -28.5t-27.5 -10.5zM766 1798q-16 2 -29.5 4t-25.5 0q-39 -4 -77 -9t-75 -11q-4 -2 -10 -6t-6 -9 q-8 -33 -13.5 -65.5t-13.5 -65.5q-47 -186 -86 -372.5t-72 -376.5q-25 -147 -49 -292.5t-47 -293.5q-10 -66 -17 -133.5t-16 -134.5q0 -12 1 -24.5t-5 -22.5q-4 -4 -17 -3t-24 -1q-35 -2 -50 10t-13 47q2 141 5 279.5t24 277.5q33 223 77.5 440t98.5 434q16 66 34.5 129.5 t36.5 129.5q4 16 0 18t-16 -2q-6 -2 -12.5 -2t-10.5 -4q-31 -10 -50 3t-36 36q-16 23 11 28q29 6 54 13.5t54 11.5q63 8 127 16t129 15q47 4 75 -11.5t44 -52.5zM362 -31h41t37 -16q16 -14 0 -25q-20 -10 -37 -10q-88 -10 -174 -23.5t-172 -37.5q-8 -2 -22.5 1t-28.5 9 t-26.5 13t-16.5 16q-2 4 1 11t7 9q10 4 22.5 8t24.5 6l344 45v-6zM262 1026l-6 -12q-18 -104 -36.5 -206.5t-35.5 -207.5q-12 -74 -17 -149.5t-13 -151.5q-4 -35 -5.5 -68.5t-3.5 -68.5q-2 -31 -1 -61.5t1 -61.5q4 6 4.5 12t2.5 12q4 76 5 152t11 152q14 123 31.5 244.5 t36.5 244.5q6 43 13 85t15 83q4 18 8 35.5t9 36.5h-9q-2 -16 -4 -35t-6 -35zM197 31q23 279 67.5 551t93.5 546q-66 -274 -107.5 -545t-53.5 -552zM188 244l11 114l57 418q4 35 11 66.5t12 64.5q-10 -14 -11 -26q-16 -86 -31.5 -172t-27.5 -174q-10 -76 -15.5 -152 t-11.5 -152zM172 106q-2 -14 -1 -27t1 -30q2 2 8 2v158q-4 -25 -5 -50.5t-3 -52.5z" />
<glyph unicode="&#xcf;" horiz-adv-x="645" d="M248 2046q2 20 5 37.5t13 33.5q14 23 37 31t45 -2q33 -14 58 -27q27 -14 30 -51q2 -23 -7 -44t-26.5 -36.5t-39 -24t-46.5 -3.5q-73 12 -69 86zM604 1966q-4 2 -12 2t-19 2q-37 12 -45 43q-4 10 -6 18t-4 19q-2 47 37 73q20 10 39.5 15.5t42.5 -2.5q12 -4 24.5 -7.5 t26.5 -7.5q16 -6 26.5 -22.5t6.5 -32.5q-8 -45 -35 -71.5t-82 -28.5zM621 2003q4 2 8 6t4 8l-2 4q-4 0 -10.5 -5t-3.5 -9q0 -2 2 -2zM340 2005h2v2zM766 1798q-16 2 -29.5 4t-25.5 0q-39 -4 -77 -9t-75 -11q-4 -2 -10 -6t-6 -9q-8 -33 -13.5 -65.5t-13.5 -65.5 q-47 -186 -86 -372.5t-72 -376.5q-25 -147 -49 -292.5t-47 -293.5q-10 -66 -17 -133.5t-16 -134.5q0 -12 1 -24.5t-5 -22.5q-4 -4 -17 -3t-24 -1q-35 -2 -50 10t-13 47q2 141 5 279.5t24 277.5q33 223 77.5 440t98.5 434q16 66 34.5 129.5t36.5 129.5q4 16 0 18t-16 -2 q-6 -2 -12.5 -2t-10.5 -4q-31 -10 -50 3t-36 36q-16 23 11 28q29 6 54 13.5t54 11.5q63 8 127 16t129 15q47 4 75 -11.5t44 -52.5zM362 -31h41t37 -16q16 -14 0 -25q-20 -10 -37 -10q-88 -10 -174 -23.5t-172 -37.5q-8 -2 -22.5 1t-28.5 9t-26.5 13t-16.5 16q-2 4 1 11t7 9 q10 4 22.5 8t24.5 6l344 45v-6zM262 1026l-6 -12q-18 -104 -36.5 -206.5t-35.5 -207.5q-12 -74 -17 -149.5t-13 -151.5q-4 -35 -5.5 -68.5t-3.5 -68.5q-2 -31 -1 -61.5t1 -61.5q4 6 4.5 12t2.5 12q4 76 5 152t11 152q14 123 31.5 244.5t36.5 244.5q6 43 13 85t15 83 q4 18 8 35.5t9 36.5h-9q-2 -16 -4 -35t-6 -35zM197 31q23 279 67.5 551t93.5 546q-66 -274 -107.5 -545t-53.5 -552zM188 244l11 114l57 418q4 35 11 66.5t12 64.5q-10 -14 -11 -26q-16 -86 -31.5 -172t-27.5 -174q-10 -76 -15.5 -152t-11.5 -152zM172 106q-2 -14 -1 -27 t1 -30q2 2 8 2v158q-4 -25 -5 -50.5t-3 -52.5z" />
<glyph unicode="&#xd0;" horiz-adv-x="1456" d="M872 930l-26 12q-27 8 -39 35q-29 57 -74 81.5t-104 24.5q-8 0 -14.5 -1t-14.5 1q-29 8 -47 -4t-33 -39q-201 -348 -327 -733q-12 -39 -14.5 -81t-8.5 -83q-4 -37 -9 -73.5t-11 -73.5q-2 -6 -8.5 -11t-10.5 -10l-14 23q-2 -6 -8.5 -12t-20.5 0l-22.5 9t-12.5 23v99.5 t-2 99.5q0 4 1 8t1 8l13 431q4 82 8 161.5t8 159.5q0 23 -4 26t-27 -3q-57 -16 -113.5 -30.5t-113.5 -31.5q-23 -6 -58.5 8.5t-52.5 30.5q-2 4 0 11.5t6 11.5q10 6 21.5 11t21.5 9q74 20 148 38.5t145 35.5q16 4 24.5 11t8.5 26q6 111 12 219t15 219q8 152 24 303 q4 29 10.5 32t34.5 3q10 0 18.5 1t12.5 -13q2 -2 4 0q20 10 29.5 -2.5t19.5 -22.5q18 -18 15 -43q-2 -59 -3 -119.5t-6 -120.5l-12 -204l-16 -224q-2 -23 2 -25.5t26 -0.5q88 12 170 18q25 2 35 19q53 84 115.5 158.5t134.5 140.5q59 55 125 100t141 80q43 18 89 18 t88 -17.5t75 -49t49 -76.5q25 -70 29 -141q10 -111 -2 -217.5t-35 -215.5q-23 -106 -49.5 -210.5t-60.5 -206.5q-4 -4 -4 -10.5t-3 -14.5q41 18 77 34.5t73 33.5q35 14 66.5 25.5t66.5 21.5q16 4 31.5 1t32.5 -7q6 0 6 -9q0 -8 -8 -8q-78 -16 -147 -53t-140 -70 q-14 -6 -26.5 -14t-26.5 -14q-23 -8 -33 -23.5t-21 -36.5q-66 -158 -150.5 -302t-193.5 -275q-29 -37 -60.5 -71t-66.5 -64q-115 -100 -264 -54q-74 23 -51 117q16 59 45 113.5t65 103.5q193 264 482 420q35 18 51 59q74 193 119 390.5t73 402.5q10 74 12.5 148.5 t-14.5 146.5v6q-16 57 -42.5 68.5t-79.5 -17.5q-137 -72 -242 -178t-193 -229q-12 -18 -10 -22.5t25 -10.5q37 -10 73.5 -22.5t71.5 -28.5t56.5 -42t37.5 -57q8 -16 10.5 -33.5t6.5 -33.5q-5 -2 -11 -2zM913 293l-6 8l-86 -59q-59 -43 -111.5 -95.5t-99.5 -111.5 q-43 -51 -82 -105.5t-61 -119.5q-10 -25 -12 -49.5t-4 -51.5q-2 -8 5 -18t15 -15q4 -4 14.5 1.5t16.5 9.5l51 49q78 90 146.5 188.5t127.5 202.5q23 41 43 83t43 83zM215 694h2l191 381q-41 -6 -80 -12t-80 -14q-8 -4 -8 -17zM1182 717q45 154 77.5 307.5t28.5 314.5 q-16 -160 -43.5 -314t-62.5 -308zM1247 1264q-16 -86 -29.5 -173t-27.5 -173q23 86 39 172t18 174zM1174 1020q20 78 32.5 156.5t12.5 160.5q-12 -80 -23.5 -158.5t-21.5 -158.5z" />
<glyph unicode="&#xd1;" horiz-adv-x="1654" d="M831 1906q-16 2 -32.5 4.5t-32.5 6.5q-16 2 -29.5 5t-28.5 7q-43 12 -86 35q-16 8 -32.5 15t-32.5 18q-39 20 -78 -7q-4 -2 -6 -4t-6 -2q-6 -6 -15 -8q-14 -4 -16 4q-4 6 -1 9t7 8q12 16 37 26q16 8 33.5 15.5t35.5 13.5q47 12 97 0q35 -10 67.5 -22.5t65.5 -26.5 q14 -6 27.5 -13.5t29.5 -13.5q8 -4 16.5 -5t18.5 -3q31 -4 51 16q4 6 11.5 11.5t13.5 9.5q20 14 41 8q12 -4 8 -14q-6 -25 -27 -37q-16 -10 -31.5 -19.5t-31.5 -19.5q-31 -17 -74 -17zM96 8q-4 -10 -8 -17t-18 3q-2 2 -7.5 -3t-7.5 -3q-10 10 -22.5 6t-24.5 -2q-4 0 -6 9 t-2 15q2 74 12 148q14 113 27.5 225.5t30.5 224.5q14 98 28.5 192.5t30.5 192.5q14 86 27.5 172t29.5 172q10 51 22.5 100.5t22.5 100.5q6 29 37 19q12 -6 26.5 -7.5t24.5 -7.5q45 -31 39 -86q-16 -147 -32.5 -293.5t-32.5 -294.5q-4 -25 -6 -48t0 -50l22 43 q88 178 186.5 347t221.5 327q86 115 184 215t215 186q27 20 56.5 36t60.5 28q55 25 111.5 10.5t97.5 -59.5q39 -43 53 -93.5t16 -107.5q2 -80 -8 -160t-26 -157q-29 -131 -58.5 -261.5t-56.5 -261.5q-27 -133 -50.5 -266t-43.5 -268q-23 -139 -39.5 -278.5t-32.5 -280.5 q-4 -29 -6 -56.5t-4 -56.5l6 -4q12 12 16 20q41 78 85 154t79 156q68 150 131.5 299t128.5 301q12 29 28.5 36t45.5 -3q6 -6 6 -19q-10 -37 -22.5 -72.5t-24.5 -72.5q-53 -158 -118.5 -309.5t-137.5 -301.5q-27 -55 -56.5 -107t-64.5 -104q-59 -90 -174 -79q-49 4 -61 45 q-8 23 -13.5 47t-5.5 47q-4 109 4.5 214t24.5 212q25 166 50.5 331.5t53.5 331.5q23 117 50.5 231.5t52.5 231.5q25 111 47 218.5t45 215.5q10 47 10 94.5t-12 94.5q-6 23 -11.5 25.5t-25.5 -5.5q-41 -16 -78 -39.5t-71 -52.5q-125 -104 -231.5 -222t-199.5 -253 q-113 -164 -207 -334t-178 -350q-37 -78 -70.5 -158t-64.5 -159q-16 -47 -26.5 -97.5t-22.5 -99.5q-6 -23 -12 -47.5t-15 -46.5q-2 -12 -10 -23q-10 -10 -20.5 -12t-20.5 12zM1176 74q2 4 4 7t2 7l80 487q29 174 66.5 344.5t76.5 344.5q14 53 24.5 108t20.5 111 q-10 -8 -10 -21l-41 -174q-23 -88 -45.5 -174t-38.5 -176q-35 -188 -65.5 -375.5t-63.5 -378.5q-4 -29 -5 -55t-5 -55zM1362 1430q-4 0 -5 1t-5 1q-49 -205 -98.5 -408t-75.5 -414q23 104 43 206t43 204q23 104 48 206zM1366 1303q-51 -186 -92 -369.5t-66 -374.5 q41 186 80 372zM279 1122h-9l-84 -542q6 0 11 -2q4 10 8 19t6 19zM127 436h12l74 533h-10zM190 1094q-39 -174 -62.5 -348.5t-39.5 -352.5zM1141 -375q2 2 8 2v166q-4 -41 -11 -81t3 -87zM1159 -37l-4 -55q4 10 6 21.5t4 21.5l6 94zM1073 -326h-6l10 -55q2 2 6 2 q-2 14 -4 27.5t-6 25.5z" />
<glyph unicode="&#xd2;" d="M1210 1800l-6 -33q-6 -14 -16 -8q-31 14 -54.5 32.5t-35.5 51.5l-62 150q-18 45 -36.5 90t-41.5 90q-12 18 8 25q23 14 39 6q4 -2 13 -2q35 -2 47 -37l51 -117q23 -53 43 -106.5t41 -106.5q4 -8 6 -17.5t4 -17.5zM0 193q0 98 19.5 191t48.5 185q18 59 40.5 113.5 t45.5 112.5q8 16 8 41q-16 313 151 571q59 90 132 162.5t167 122.5q82 43 168 54t167 -8.5t152.5 -68.5t125.5 -125q41 -59 71.5 -120.5t38.5 -133.5q10 -78 9 -157.5t-17 -157.5q-25 -113 -56.5 -222.5t-74.5 -217.5q-41 -98 -93 -188.5t-112 -176.5q-51 -78 -111.5 -145.5 t-127.5 -128.5q-55 -49 -113.5 -91.5t-128.5 -66.5q-82 -29 -163 -27t-157 53q-59 41 -96 95.5t-59 120.5q-37 107 -35 213zM252 541q-6 -10 -6 -11q-25 -92 -46.5 -184t-19.5 -188q2 -92 26.5 -176t90.5 -154q37 -41 65.5 -46t75.5 17q4 2 7.5 4t7.5 4q98 49 177 119 t146 154q129 160 222.5 334t150.5 370q35 123 56.5 243t6.5 249q-10 92 -43.5 173t-97.5 150q-31 35 -70.5 52.5t-87.5 13.5q-53 -4 -104 -18.5t-98 -42.5q-106 -63 -183 -150.5t-135 -196.5q-47 -88 -67 -188q10 10 18 15.5t14 11.5q29 18 53.5 12t41.5 -35q4 -4 6 -4 q23 -8 26.5 -16.5t-12.5 -28.5q-49 -66 -84 -139.5t-67 -151.5q-4 -16 -3 -24q12 -53 32 -102.5t52 -90.5q45 -53 92.5 -105.5t94.5 -105.5q8 -8 8 -16q-6 -10 -14 -10q-33 -4 -64 -1t-57 29l-176 187q-10 10 -17.5 21.5t-17.5 25.5zM217 618h-10q-16 -57 -33.5 -113 t-30 -114.5t-17.5 -118t-1 -120.5q4 27 6 53t8 51q18 84 37 166t39 164q2 8 2 16v16zM176 735q-14 -16 -30.5 -57t-34 -94.5t-33 -113.5t-24.5 -112.5t-12 -92.5t5 -54q12 137 45 267t84 257zM1290 979l-139 -459q51 111 83.5 225.5t55.5 233.5zM436 1409 q-76 -90 -116.5 -190.5t-51.5 -217.5q23 111 62.5 212.5t105.5 195.5zM426 1028q-4 0 -5 -1t-3 -1q-70 -80 -113 -184q-4 -4 -2 -11.5t2 -17.5zM190 672q-43 -102 -69.5 -207t-34.5 -215q20 109 44.5 213.5t59.5 208.5zM205 1028l65 227q-29 -53 -43 -110.5t-22 -116.5z M315 1272q-4 0 -5 1t-3 1q-16 -43 -30.5 -86t-28.5 -86l6 -4zM1219 907q-2 0 -4.5 1t-4.5 1l-53 -186q4 0 6 -2zM1219 797q-2 2 -9 2l-20 -66t-21 -67q2 0 3.5 -1t3.5 -1zM299 913l8 -4q6 10 12.5 21.5t14.5 21.5q-2 0 -6 4z" />
<glyph unicode="&#xd3;" d="M787 1798q-8 0 -27 6q-8 4 -2 12q2 4 4 6.5t4 6.5l154 153l82 78q61 51 131 76q4 2 9 3t9 -3q4 -2 -4 -19q-6 -8 -11 -14t-11 -10q-14 -14 -26.5 -25.5t-25.5 -21.5q-39 -39 -77.5 -79t-79.5 -77q-31 -35 -66 -65q-24 -27 -63 -27zM0 193q0 98 19.5 191t48.5 185 q18 59 40.5 113.5t45.5 112.5q8 16 8 41q-16 313 151 571q59 90 132 162.5t167 122.5q82 43 168 54t167 -8.5t152.5 -68.5t125.5 -125q41 -59 71.5 -120.5t38.5 -133.5q10 -78 9 -157.5t-17 -157.5q-25 -113 -56.5 -222.5t-74.5 -217.5q-41 -98 -93 -188.5t-112 -176.5 q-51 -78 -111.5 -145.5t-127.5 -128.5q-55 -49 -113.5 -91.5t-128.5 -66.5q-82 -29 -163 -27t-157 53q-59 41 -96 95.5t-59 120.5q-37 107 -35 213zM252 541q-6 -10 -6 -11q-25 -92 -46.5 -184t-19.5 -188q2 -92 26.5 -176t90.5 -154q37 -41 65.5 -46t75.5 17q4 2 7.5 4 t7.5 4q98 49 177 119t146 154q129 160 222.5 334t150.5 370q35 123 56.5 243t6.5 249q-10 92 -43.5 173t-97.5 150q-31 35 -70.5 52.5t-87.5 13.5q-53 -4 -104 -18.5t-98 -42.5q-106 -63 -183 -150.5t-135 -196.5q-47 -88 -67 -188q10 10 18 15.5t14 11.5q29 18 53.5 12 t41.5 -35q4 -4 6 -4q23 -8 26.5 -16.5t-12.5 -28.5q-49 -66 -84 -139.5t-67 -151.5q-4 -16 -3 -24q12 -53 32 -102.5t52 -90.5q45 -53 92.5 -105.5t94.5 -105.5q8 -8 8 -16q-6 -10 -14 -10q-33 -4 -64 -1t-57 29l-176 187q-10 10 -17.5 21.5t-17.5 25.5zM217 618h-10 q-16 -57 -33.5 -113t-30 -114.5t-17.5 -118t-1 -120.5q4 27 6 53t8 51q18 84 37 166t39 164q2 8 2 16v16zM176 735q-14 -16 -30.5 -57t-34 -94.5t-33 -113.5t-24.5 -112.5t-12 -92.5t5 -54q12 137 45 267t84 257zM1290 979l-139 -459q51 111 83.5 225.5t55.5 233.5z M436 1409q-76 -90 -116.5 -190.5t-51.5 -217.5q23 111 62.5 212.5t105.5 195.5zM426 1028q-4 0 -5 -1t-3 -1q-70 -80 -113 -184q-4 -4 -2 -11.5t2 -17.5zM190 672q-43 -102 -69.5 -207t-34.5 -215q20 109 44.5 213.5t59.5 208.5zM205 1028l65 227q-29 -53 -43 -110.5 t-22 -116.5zM315 1272q-4 0 -5 1t-3 1q-16 -43 -30.5 -86t-28.5 -86l6 -4zM1219 907q-2 0 -4.5 1t-4.5 1l-53 -186q4 0 6 -2zM1219 797q-2 2 -9 2l-20 -66t-21 -67q2 0 3.5 -1t3.5 -1zM299 913l8 -4q6 10 12.5 21.5t14.5 21.5q-2 0 -6 4z" />
<glyph unicode="&#xd4;" d="M1179 1760q-8 0 -15 2t-18 4q-23 6 -32 30q-10 16 -14.5 36t-6.5 38q-12 76 -18 146q-4 23 -4 45t-2 45q0 10 -2 14h-5h-4q-2 -4 -5 -8t-5 -8l-94 -162q-10 -14 -17.5 -27.5t-17.5 -25.5q-12 -20 -39 -21q-4 0 -9 1t-9 1q-12 4 -6 10l6 9l86 153q20 33 38.5 62.5 t35.5 60.5q10 14 16 28.5t14 28.5q14 31 47 27q8 -2 15.5 -2t13.5 -4q18 -4 23 -23l8 -55q2 -41 3 -83t5 -83q4 -37 8 -74.5t12 -72.5q4 -14 7.5 -28.5t11.5 -24.5q12 -16 0.5 -28.5t-27.5 -10.5zM0 193q0 98 19.5 191t48.5 185q18 59 40.5 113.5t45.5 112.5q8 16 8 41 q-16 313 151 571q59 90 132 162.5t167 122.5q82 43 168 54t167 -8.5t152.5 -68.5t125.5 -125q41 -59 71.5 -120.5t38.5 -133.5q10 -78 9 -157.5t-17 -157.5q-25 -113 -56.5 -222.5t-74.5 -217.5q-41 -98 -93 -188.5t-112 -176.5q-51 -78 -111.5 -145.5t-127.5 -128.5 q-55 -49 -113.5 -91.5t-128.5 -66.5q-82 -29 -163 -27t-157 53q-59 41 -96 95.5t-59 120.5q-37 107 -35 213zM252 541q-6 -10 -6 -11q-25 -92 -46.5 -184t-19.5 -188q2 -92 26.5 -176t90.5 -154q37 -41 65.5 -46t75.5 17q4 2 7.5 4t7.5 4q98 49 177 119t146 154 q129 160 222.5 334t150.5 370q35 123 56.5 243t6.5 249q-10 92 -43.5 173t-97.5 150q-31 35 -70.5 52.5t-87.5 13.5q-53 -4 -104 -18.5t-98 -42.5q-106 -63 -183 -150.5t-135 -196.5q-47 -88 -67 -188q10 10 18 15.5t14 11.5q29 18 53.5 12t41.5 -35q4 -4 6 -4 q23 -8 26.5 -16.5t-12.5 -28.5q-49 -66 -84 -139.5t-67 -151.5q-4 -16 -3 -24q12 -53 32 -102.5t52 -90.5q45 -53 92.5 -105.5t94.5 -105.5q8 -8 8 -16q-6 -10 -14 -10q-33 -4 -64 -1t-57 29l-176 187q-10 10 -17.5 21.5t-17.5 25.5zM217 618h-10q-16 -57 -33.5 -113 t-30 -114.5t-17.5 -118t-1 -120.5q4 27 6 53t8 51q18 84 37 166t39 164q2 8 2 16v16zM176 735q-14 -16 -30.5 -57t-34 -94.5t-33 -113.5t-24.5 -112.5t-12 -92.5t5 -54q12 137 45 267t84 257zM1290 979l-139 -459q51 111 83.5 225.5t55.5 233.5zM436 1409 q-76 -90 -116.5 -190.5t-51.5 -217.5q23 111 62.5 212.5t105.5 195.5zM426 1028q-4 0 -5 -1t-3 -1q-70 -80 -113 -184q-4 -4 -2 -11.5t2 -17.5zM190 672q-43 -102 -69.5 -207t-34.5 -215q20 109 44.5 213.5t59.5 208.5zM205 1028l65 227q-29 -53 -43 -110.5t-22 -116.5z M315 1272q-4 0 -5 1t-3 1q-16 -43 -30.5 -86t-28.5 -86l6 -4zM1219 907q-2 0 -4.5 1t-4.5 1l-53 -186q4 0 6 -2zM1219 797q-2 2 -9 2l-20 -66t-21 -67q2 0 3.5 -1t3.5 -1zM299 913l8 -4q6 10 12.5 21.5t14.5 21.5q-2 0 -6 4z" />
<glyph unicode="&#xd5;" d="M1145 1853q-16 2 -32.5 4.5t-32.5 6.5q-16 2 -29.5 5t-28.5 7q-43 12 -86 35q-16 8 -32.5 15t-32.5 18q-39 20 -78 -7q-4 -2 -6 -4t-6 -2q-6 -6 -15 -8q-14 -4 -16 4q-4 6 -1 9t7 8q12 16 37 26q16 8 33.5 15.5t35.5 13.5q47 12 97 0q35 -10 67.5 -22.5t65.5 -26.5 q14 -6 27.5 -13.5t29.5 -13.5q8 -4 16.5 -5t18.5 -3q31 -4 51 16q4 6 11.5 11.5t13.5 9.5q20 14 41 8q12 -4 8 -14q-6 -25 -27 -37q-16 -10 -31.5 -19.5t-31.5 -19.5q-31 -17 -74 -17zM0 193q0 98 19.5 191t48.5 185q18 59 40.5 113.5t45.5 112.5q8 16 8 41q-16 313 151 571 q59 90 132 162.5t167 122.5q82 43 168 54t167 -8.5t152.5 -68.5t125.5 -125q41 -59 71.5 -120.5t38.5 -133.5q10 -78 9 -157.5t-17 -157.5q-25 -113 -56.5 -222.5t-74.5 -217.5q-41 -98 -93 -188.5t-112 -176.5q-51 -78 -111.5 -145.5t-127.5 -128.5q-55 -49 -113.5 -91.5 t-128.5 -66.5q-82 -29 -163 -27t-157 53q-59 41 -96 95.5t-59 120.5q-37 107 -35 213zM252 541q-6 -10 -6 -11q-25 -92 -46.5 -184t-19.5 -188q2 -92 26.5 -176t90.5 -154q37 -41 65.5 -46t75.5 17q4 2 7.5 4t7.5 4q98 49 177 119t146 154q129 160 222.5 334t150.5 370 q35 123 56.5 243t6.5 249q-10 92 -43.5 173t-97.5 150q-31 35 -70.5 52.5t-87.5 13.5q-53 -4 -104 -18.5t-98 -42.5q-106 -63 -183 -150.5t-135 -196.5q-47 -88 -67 -188q10 10 18 15.5t14 11.5q29 18 53.5 12t41.5 -35q4 -4 6 -4q23 -8 26.5 -16.5t-12.5 -28.5 q-49 -66 -84 -139.5t-67 -151.5q-4 -16 -3 -24q12 -53 32 -102.5t52 -90.5q45 -53 92.5 -105.5t94.5 -105.5q8 -8 8 -16q-6 -10 -14 -10q-33 -4 -64 -1t-57 29l-176 187q-10 10 -17.5 21.5t-17.5 25.5zM217 618h-10q-16 -57 -33.5 -113t-30 -114.5t-17.5 -118t-1 -120.5 q4 27 6 53t8 51q18 84 37 166t39 164q2 8 2 16v16zM176 735q-14 -16 -30.5 -57t-34 -94.5t-33 -113.5t-24.5 -112.5t-12 -92.5t5 -54q12 137 45 267t84 257zM1290 979l-139 -459q51 111 83.5 225.5t55.5 233.5zM436 1409q-76 -90 -116.5 -190.5t-51.5 -217.5 q23 111 62.5 212.5t105.5 195.5zM426 1028q-4 0 -5 -1t-3 -1q-70 -80 -113 -184q-4 -4 -2 -11.5t2 -17.5zM190 672q-43 -102 -69.5 -207t-34.5 -215q20 109 44.5 213.5t59.5 208.5zM205 1028l65 227q-29 -53 -43 -110.5t-22 -116.5zM315 1272q-4 0 -5 1t-3 1 q-16 -43 -30.5 -86t-28.5 -86l6 -4zM1219 907q-2 0 -4.5 1t-4.5 1l-53 -186q4 0 6 -2zM1219 797q-2 2 -9 2l-20 -66t-21 -67q2 0 3.5 -1t3.5 -1zM299 913l8 -4q6 10 12.5 21.5t14.5 21.5q-2 0 -6 4z" />
</font>
</defs>
</svg>
